<svg width="320" height="240" viewBox="0 0 320 240" fill="none" xmlns="http://www.w3.org/2000/svg">
<path d="M38.9938 54.611H28.2712C27.759 54.611 27.2811 54.9579 27.1964 55.4626C27.0885 56.1042 27.5864 56.6658 28.209 56.6658H38.9938C39.5611 56.6658 40.0212 56.2058 40.0212 55.6384C40.0212 55.071 39.5611 54.611 38.9938 54.611Z" fill="#D1FAE5"/>
<path d="M293.999 65.0279H283.276C282.764 65.0279 282.286 65.3747 282.201 65.8795C282.093 66.5211 282.591 67.0826 283.213 67.0826H293.999C294.566 67.0826 295.026 66.6226 295.026 66.0553C295.026 65.4879 294.566 65.0279 293.999 65.0279Z" fill="#D1FAE5"/>
<path d="M201.739 22.9437H191.016C190.504 22.9437 190.026 23.2905 189.942 23.7958C189.834 24.4368 190.331 24.9984 190.954 24.9984H201.739C202.306 24.9984 202.766 24.5384 202.766 23.971C202.766 23.4037 202.306 22.9437 201.739 22.9437Z" fill="#D1FAE5"/>
<path d="M219.656 22.9437H208.933C208.421 22.9437 207.943 23.2905 207.859 23.7958C207.751 24.4368 208.249 24.9984 208.871 24.9984H219.656C220.223 24.9984 220.683 24.5384 220.683 23.971C220.683 23.4037 220.223 22.9437 219.656 22.9437Z" fill="#D1FAE5"/>
<path d="M29.2897 105.777H6.41269C5.84548 105.777 5.38574 106.237 5.38574 106.804C5.38574 107.371 5.84548 107.831 6.41269 107.831H29.3524C29.975 107.831 30.4724 107.27 30.365 106.628C30.2797 106.123 29.8024 105.777 29.2897 105.777Z" fill="#D1FAE5"/>
<path d="M287.976 115.588H265.099C264.532 115.588 264.072 116.048 264.072 116.615C264.072 117.183 264.532 117.643 265.099 117.643H288.039C288.661 117.643 289.159 117.081 289.051 116.439C288.966 115.935 288.488 115.588 287.976 115.588Z" fill="#D1FAE5"/>
<path d="M291.227 178.714H280.505C279.993 178.714 279.515 179.061 279.43 179.566C279.322 180.207 279.819 180.769 280.442 180.769H291.227C291.795 180.769 292.254 180.308 292.254 179.741C292.254 179.174 291.795 178.714 291.227 178.714Z" fill="#D1FAE5"/>
<path d="M309.144 178.714H298.422C297.909 178.714 297.432 179.061 297.347 179.566C297.239 180.207 297.737 180.769 298.359 180.769H309.144C309.712 180.769 310.172 180.308 310.172 179.741C310.172 179.174 309.712 178.714 309.144 178.714Z" fill="#D1FAE5"/>
<path d="M25.2975 178.714H14.5749C14.0628 178.714 13.5854 179.061 13.5001 179.566C13.3922 180.207 13.8901 180.769 14.5122 180.769H25.2975C25.8649 180.769 26.3249 180.308 26.3249 179.741C26.3249 179.174 25.8649 178.714 25.2975 178.714Z" fill="#D1FAE5"/>
<path d="M43.2145 178.714H32.4918C31.9797 178.714 31.5024 179.061 31.4171 179.566C31.3092 180.207 31.8071 180.769 32.4297 180.769H43.2145C43.7818 180.769 44.2418 180.308 44.2418 179.741C44.2418 179.174 43.7818 178.714 43.2145 178.714Z" fill="#D1FAE5"/>
<path d="M68.2685 55.2358L110.654 93.0389C110.866 93.2284 111.36 93.0237 111.752 92.5842C112.144 92.1442 112.292 91.63 112.08 91.4405L69.6943 53.6368C69.4822 53.4479 68.988 53.6526 68.5959 54.0921C68.2033 54.5321 68.0564 55.0463 68.2685 55.2358Z" fill="#34D399"/>
<path d="M60.0054 45.5685L60.2401 45.7805C60.247 45.84 62.0133 60.8153 76.0822 60.1263L76.2201 60.2074C75.308 46.1232 60.0054 45.5685 60.0054 45.5685Z" fill="#34D399"/>
<path d="M88.285 42.6442L88.1686 42.9384C88.115 42.9658 74.6987 49.8484 80.255 62.7916L80.2271 62.9495C93.1071 57.1784 88.285 42.6442 88.285 42.6442Z" fill="#34D399"/>
<path d="M79.7801 63.1126L79.5164 63.2873C79.4564 63.2794 64.5122 61.2715 61.6859 75.0705L61.5728 75.1847C75.4422 77.7984 79.7801 63.1126 79.7801 63.1126Z" fill="#34D399"/>
<path d="M96.7401 50.4005L96.6232 50.6942C96.5701 50.722 83.1532 57.6041 88.7095 70.5473L88.6822 70.7052C101.562 64.9347 96.7401 50.4005 96.7401 50.4005Z" fill="#34D399"/>
<path d="M88.2347 70.8689L87.9715 71.0436C87.9115 71.0357 72.9673 69.0273 70.141 82.8268L70.0278 82.9404C83.8973 85.5546 88.2347 70.8689 88.2347 70.8689Z" fill="#34D399"/>
<path d="M107.683 60.7978L107.566 61.0915C107.512 61.1194 94.0961 68.0015 99.6524 80.9446L99.6246 81.1025C112.505 75.332 107.683 60.7978 107.683 60.7978Z" fill="#34D399"/>
<path d="M99.1781 81.2663L98.9144 81.4411C98.8549 81.4332 83.9102 79.4253 81.0839 93.2242L80.9707 93.3379C94.8407 95.9521 99.1781 81.2663 99.1781 81.2663Z" fill="#34D399"/>
<path d="M71.8992 177.955C75.3907 179.62 78.565 182.288 80.6413 185.279C77.2007 182.104 73.0197 180.284 68.6176 179.738C61.3455 183.925 55.2171 189.016 50.3581 193.807C53.4392 194.573 56.0102 196.668 58.2676 198.988C54.3197 197.575 50.6534 197.129 46.8644 197.422C40.5492 204.277 37.1729 209.758 37.1729 209.758L38.5486 209.3C38.6729 209.353 53.9807 215.783 72.9823 215.595C76.1828 214.532 79.0871 212.874 81.0976 209.563C80.6676 211.946 79.6586 213.773 78.3813 215.359C82.8907 215.006 87.5397 214.232 92.1871 212.889C95.7476 210.061 97.2802 204.816 96.2813 199.934C97.9665 203.048 99.2539 206.678 99.416 210.307C111.449 205.133 122.98 195.49 131.514 178.543L132.15 178.175C108.015 166.494 87.5681 169.93 71.8992 177.955Z" fill="#34D399"/>
<path d="M90.6616 191.658C89.0516 192.263 87.4442 192.875 85.84 193.496C85.3037 193.704 85.0373 194.307 85.2447 194.844C85.4526 195.38 86.0563 195.646 86.5926 195.438C88.1889 194.82 89.7894 194.211 91.3931 193.609C91.9321 193.407 92.2047 192.807 92.0026 192.268C91.8005 191.729 91.2 191.456 90.6616 191.658Z" fill="#10B981"/>
<path d="M131.397 177.213C120.464 181.161 109.424 184.852 98.4557 188.799C97.9147 188.993 97.6336 189.59 97.8284 190.132C98.0231 190.673 98.62 190.954 99.1615 190.759C110.099 186.823 121.14 183.132 132.105 179.173C132.646 178.977 132.926 178.381 132.731 177.84C132.535 177.299 131.938 177.018 131.397 177.213Z" fill="#10B981"/>
<path d="M106.064 152.88C110.685 158.273 115.301 163.664 119.826 169.125C120.193 169.568 120.849 169.629 121.293 169.263C121.735 168.895 121.797 168.239 121.43 167.796C116.891 162.318 112.268 156.918 107.646 151.525C107.271 151.088 106.614 151.037 106.177 151.412C105.74 151.786 105.689 152.444 106.064 152.88Z" fill="#10B981"/>
<path d="M98.658 110.704C98.3696 114.703 96.9954 118.775 94.8938 121.909C96.6575 117.388 96.8333 112.665 95.6959 108.211C88.9059 102.775 81.6759 98.7852 75.2149 95.9074C75.6412 99.1705 74.5901 102.444 73.2054 105.499C73.0769 101.155 72.1201 97.4484 70.4064 93.9021C61.4017 90.3989 54.8364 89.2126 54.8364 89.2126L54.8401 89.1984C54.8364 89.3374 55.3748 107.712 62.7412 125.979C64.9759 128.666 67.6754 130.842 71.6301 131.531C69.1675 132.016 67.0238 131.733 65.0096 131.1C67.0554 135.318 69.5596 139.512 72.6122 143.49C76.688 145.857 82.3296 145.353 86.6627 142.544C84.2949 145.347 81.278 147.962 77.8364 149.491C87.3796 159.148 101.045 166.631 120.628 168.461L121.223 168.934C123.372 141.226 112.326 122.792 98.658 110.704Z" fill="#34D399"/>
<path d="M94.546 138.605C96.5739 141.176 98.6129 143.74 100.667 146.292C101.027 146.74 101.683 146.812 102.131 146.45C102.579 146.09 102.65 145.434 102.29 144.986C100.241 142.44 98.2066 139.882 96.1813 137.315C95.825 136.863 95.1702 136.786 94.7187 137.143C94.2666 137.499 94.1892 138.154 94.546 138.605Z" fill="#10B981"/>
<path d="M80.8835 122.103C82.1835 124.052 83.6783 125.756 85.1493 127.394C86.6214 129.031 88.0699 130.603 89.302 132.273C89.6435 132.735 90.2962 132.834 90.7588 132.492C91.2214 132.15 91.3199 131.498 90.9778 131.035C89.6535 129.243 88.1572 127.625 86.6988 126.002C85.2393 124.378 83.8172 122.748 82.6167 120.947C82.2977 120.469 81.6509 120.339 81.1725 120.658C80.6935 120.978 80.5646 121.624 80.8835 122.103Z" fill="#10B981"/>
<path d="M247.131 166.423C243.533 164.652 240.277 161.847 238.163 158.721C241.689 162.056 245.999 163.994 250.554 164.616C258.144 160.368 264.56 155.169 269.657 150.264C266.473 149.433 263.835 147.228 261.524 144.796C265.598 146.31 269.393 146.818 273.323 146.563C279.955 139.537 283.524 133.9 283.524 133.9C283.524 133.9 266.18 127.443 246.483 127.398C243.153 128.459 240.122 130.141 237.996 133.547C238.473 131.083 239.541 129.203 240.885 127.574C236.207 127.884 231.379 128.627 226.545 129.959C222.819 132.846 221.164 138.263 222.138 143.335C220.431 140.086 219.143 136.307 219.021 132.544C206.484 137.755 194.411 147.603 185.352 165.06L184.688 165.434C209.555 177.844 230.79 174.541 247.131 166.423Z" fill="#34D399"/>
<path d="M240.483 89.7663L197.803 121.806C197.589 121.966 197.687 122.459 198.019 122.902C198.351 123.345 198.798 123.576 199.012 123.416L241.692 91.3763C241.905 91.2158 241.809 90.7226 241.476 90.28C241.143 89.8374 240.697 89.6063 240.483 89.7663Z" fill="#34D399"/>
<path d="M250.92 83.9458L250.681 84.1232C250.625 84.1184 236.503 82.97 234.53 96.0579L234.43 96.1705C247.573 97.9405 250.92 83.9458 250.92 83.9458Z" fill="#34D399"/>
<path d="M248.373 110.539L248.124 110.377C248.108 110.323 244.255 96.6884 231.301 99.4079L231.161 99.3532C234.09 112.288 248.373 110.539 248.373 110.539Z" fill="#34D399"/>
<path d="M231.094 98.9111L230.981 98.6359C231 98.5822 235.619 85.188 223.431 80.0264L223.347 79.9011C218.369 92.1938 231.094 98.9111 231.094 98.9111Z" fill="#34D399"/>
<path d="M239.661 116.891L239.412 116.729C239.397 116.675 235.543 103.039 222.589 105.759L222.449 105.704C225.378 118.639 239.661 116.891 239.661 116.891Z" fill="#34D399"/>
<path d="M222.381 105.263L222.27 104.987C222.287 104.934 226.907 91.539 214.719 86.378L214.635 86.2527C209.656 98.5453 222.381 105.263 222.381 105.263Z" fill="#34D399"/>
<path d="M228.055 125.045L227.805 124.883C227.79 124.828 223.936 111.194 210.983 113.913L210.843 113.858C213.772 126.793 228.055 125.045 228.055 125.045Z" fill="#34D399"/>
<path d="M210.775 113.416L210.663 113.141C210.681 113.088 215.3 99.6931 203.113 94.5315L203.029 94.4063C198.05 106.699 210.775 113.416 210.775 113.416Z" fill="#34D399"/>
<path d="M71.0161 138.106C73.0961 141.749 74.2745 146.088 74.2745 150.037C73.1729 145.08 70.5735 140.874 66.9898 137.666C57.9224 136.899 49.315 137.644 42.024 138.907C44.2956 141.495 45.2898 144.952 45.8666 148.414C43.2235 144.714 40.2324 142.05 36.6777 139.967C26.8114 142.169 20.415 144.963 20.415 144.963C20.415 144.963 31.6619 160.725 48.7056 172.307C52.2135 173.339 55.8266 173.658 59.6645 171.952C57.8077 173.808 55.7798 174.811 53.6608 175.436C57.8966 177.909 62.5166 180.094 67.4866 181.773C72.4077 181.454 77.0161 177.729 79.1445 172.763C78.7203 176.579 77.6219 180.609 75.5224 183.943C89.4419 186.774 105.677 185.314 123.76 175.494L124.552 175.559C110.276 150.23 89.9366 140.647 71.0161 138.106Z" fill="#059669"/>
<path d="M76.7664 164.469C92.7416 168.368 108.571 172.534 124.294 176.568C124.851 176.712 125.419 176.376 125.562 175.818C125.705 175.261 125.369 174.694 124.812 174.551C109.097 170.518 93.2595 166.351 77.26 162.445C76.7016 162.309 76.1379 162.652 76.0011 163.21C75.8648 163.769 76.2074 164.333 76.7664 164.469Z" fill="#10B981"/>
<path d="M56.0336 159.191C60.2789 160.462 64.8636 161.295 69.0947 162.516C69.6473 162.675 70.2247 162.356 70.3842 161.804C70.5436 161.251 70.2247 160.673 69.6715 160.514C65.3031 159.257 60.721 158.423 56.6326 157.195C56.0815 157.029 55.501 157.342 55.3352 157.893C55.1699 158.444 55.4826 159.025 56.0336 159.191Z" fill="#10B981"/>
<path d="M239.245 150.461C236.556 155.171 235.032 160.781 235.032 165.887C236.457 159.478 239.817 154.039 244.451 149.891C256.175 148.9 267.304 149.864 276.732 151.497C273.794 154.843 272.509 159.312 271.763 163.788C275.18 159.004 279.047 155.56 283.644 152.867C296.401 155.715 304.671 159.327 304.671 159.327C304.671 159.327 290.129 179.706 268.092 194.681C263.557 196.016 258.885 196.427 253.922 194.222C256.323 196.623 258.946 197.919 261.685 198.727C256.208 201.925 250.235 204.75 243.809 206.92C237.446 206.509 231.487 201.692 228.736 195.271C229.284 200.205 230.704 205.416 233.419 209.726C215.421 213.387 194.43 211.499 171.05 198.802L170.024 198.887C188.484 166.136 214.781 153.746 239.245 150.461Z" fill="#059669"/>
<path d="M209.15 185.369C193.502 189.706 178.92 195.122 163.563 199.271C163.008 199.421 162.68 199.993 162.83 200.548C162.98 201.104 163.552 201.433 164.107 201.282C179.585 197.098 194.17 191.68 209.706 187.377C210.26 187.224 210.585 186.65 210.431 186.095C210.278 185.541 209.704 185.216 209.15 185.369Z" fill="#10B981"/>
<path d="M223.228 181.012C220.916 181.723 218.604 182.437 216.293 183.153C215.744 183.323 215.436 183.906 215.607 184.456C215.777 185.005 216.36 185.313 216.91 185.143C219.219 184.427 221.529 183.714 223.84 183.004C224.39 182.834 224.699 182.252 224.53 181.702C224.361 181.152 223.778 180.843 223.228 181.012Z" fill="#10B981"/>
<path d="M239.833 175.932C236.4 176.794 233.474 178.047 230.54 178.776C229.982 178.916 229.643 179.481 229.782 180.039C229.922 180.598 230.487 180.937 231.045 180.797C234.198 180.005 237.105 178.758 240.339 177.953C240.897 177.814 241.237 177.248 241.097 176.69C240.957 176.131 240.392 175.793 239.833 175.932Z" fill="#10B981"/>
<path d="M276.781 226.525H39.6774C37.7621 226.525 36.209 224.972 36.209 223.057C36.209 221.142 37.7621 219.588 39.6774 219.588H276.781C278.696 219.588 280.249 221.142 280.249 223.057C280.249 224.972 278.696 226.525 276.781 226.525Z" fill="#059669"/>
<path d="M198.946 191.025L199.671 191.031L200.814 53.0174C200.891 43.7142 193.342 36.0395 184.039 35.9626L124.912 35.4732C115.609 35.3958 107.934 42.9448 107.857 52.2484L106.716 190.181L107.684 190.188C108.62 190.196 108.607 191.648 107.672 191.641L106.703 191.633L106.606 203.364C106.529 212.667 114.078 220.342 123.381 220.419L182.508 220.908C191.811 220.985 199.486 213.436 199.563 204.133L199.66 192.483L198.933 192.477C197.997 192.47 198.011 191.017 198.946 191.025Z" fill="#064E3B"/>
<path d="M200.061 85.4821C198.73 85.471 197.65 84.3726 197.66 83.041L197.837 61.7384C197.848 60.4074 198.946 59.3268 200.278 59.3379C201.609 59.3489 202.689 60.4474 202.678 61.7784L202.502 83.081C202.491 84.4126 201.393 85.4931 200.061 85.4821Z" fill="#064E3B"/>
<path d="M108.368 87.9511C107.037 87.94 105.956 86.8416 105.968 85.51L106.117 67.4353C106.128 66.1037 107.227 65.0237 108.558 65.0348C109.889 65.0458 110.97 66.1437 110.959 67.4753L110.809 85.55C110.798 86.8816 109.7 87.9621 108.368 87.9511Z" fill="#064E3B"/>
<path d="M109.173 103.833L107.947 103.823C106.952 103.814 106.146 102.995 106.154 102.001L106.213 94.9048C106.221 93.9111 107.041 93.1048 108.035 93.1127L109.262 93.1232C110.256 93.1311 111.063 93.9511 111.054 94.9453L110.995 102.041C110.987 103.035 110.168 103.841 109.173 103.833Z" fill="#064E3B"/>
<path d="M109.39 116.746L108.162 116.736C107.169 116.728 106.362 115.908 106.37 114.914L106.429 107.818C106.437 106.824 107.257 106.018 108.251 106.026L109.478 106.036C110.472 106.044 111.279 106.865 111.27 107.858L111.212 114.954C111.203 115.948 110.383 116.754 109.39 116.746Z" fill="#064E3B"/>
<path d="M179.321 217.986L126.364 217.548C116.614 217.467 108.702 209.424 108.783 199.672L109.972 55.9894C110.053 46.2389 118.097 38.3268 127.848 38.4079L180.803 38.8457C190.554 38.9268 198.466 46.9705 198.385 56.721L197.195 200.405C197.115 210.155 189.071 218.067 179.321 217.986Z" fill="#065F46"/>
<path d="M178.434 215.774C178.386 215.774 178.339 215.774 178.29 215.773L127.589 215.354C118.144 215.276 110.481 207.484 110.559 198.039L111.721 57.6521C111.799 48.2553 119.512 40.6216 128.892 40.6216C128.94 40.6216 128.988 40.6216 129.035 40.6221L179.737 41.0421C189.181 41.12 196.844 48.9116 196.767 58.3563L195.604 198.744C195.527 208.139 187.813 215.774 178.434 215.774ZM137.622 209.148C137.773 209.793 138.354 210.277 139.043 210.277H168.627C169.429 210.277 170.086 209.621 170.086 208.819C170.086 208.016 169.429 207.36 168.627 207.36H153.958C154.39 204.685 154.121 202.053 153.534 199.443H161.851C164.328 199.443 166.336 197.435 166.336 194.958V182.261C166.336 179.784 164.328 177.776 161.851 177.776H149.507C149.703 176.941 149.978 176.102 150.34 175.261C151.131 173.426 152.235 171.739 153.577 170.276H161.851C164.328 170.276 166.336 168.268 166.336 165.791V164.639C166.354 164.639 166.372 164.639 166.39 164.639C167.347 164.639 168.302 164.707 169.252 164.833V166.208C169.252 168.685 171.26 170.693 173.737 170.693H184.993C187.233 171.855 189.452 173.063 191.69 174.225C193.029 174.919 194.395 175.626 195.79 176.286L196.498 90.841C191.015 87.7889 186.372 83.0547 182.104 78.4274C176.53 72.3826 170.809 64.8384 162.919 61.8005C160.934 61.0363 158.895 60.6663 156.849 60.6663C154.999 60.6663 153.143 60.9689 151.317 61.5542C146.138 63.2142 142.338 67.5658 139.337 71.9305C136.364 76.2547 133.82 80.8895 130.392 84.8816C126.473 89.4468 121.027 92.7847 115.691 95.4868L114.823 200.376C114.784 205.097 118.574 208.991 123.247 209.029L137.622 209.148ZM173.737 178.193C171.26 178.193 169.252 180.201 169.252 182.677V195.375C169.252 197.852 171.26 199.86 173.737 199.86H187.268C189.744 199.86 191.753 197.852 191.753 195.375V182.677C191.753 180.201 189.744 178.193 187.268 178.193H173.737Z" fill="url(#paint0_linear_276_3049)"/>
<mask id="mask0_276_3049" style="mask-type:luminance" maskUnits="userSpaceOnUse" x="114" y="60" width="83" height="150">
<path d="M137.622 209.148L123.246 209.029C118.574 208.991 114.784 205.097 114.823 200.376L115.691 95.4868C121.026 92.7847 126.473 89.4468 130.392 84.8816C133.82 80.8895 136.364 76.2547 139.337 71.9305C142.337 67.5658 146.138 63.2142 151.317 61.5542C153.143 60.9689 154.999 60.6663 156.849 60.6663C158.895 60.6663 160.934 61.0363 162.919 61.8005C170.809 64.8384 176.53 72.3826 182.104 78.4273C186.372 83.0547 191.015 87.7889 196.497 90.841L195.79 176.286C194.395 175.626 193.028 174.919 191.689 174.225C189.452 173.063 187.233 171.855 184.993 170.693H187.267C189.744 170.693 191.753 168.685 191.753 166.208V153.511C191.753 151.034 189.744 149.026 187.267 149.026H173.737C171.26 149.026 169.252 151.034 169.252 153.511V164.833C168.302 164.707 167.347 164.639 166.39 164.639C166.372 164.639 166.354 164.639 166.335 164.639V153.094C166.335 150.617 164.327 148.609 161.85 148.609H148.32C145.843 148.609 143.835 150.617 143.835 153.094V165.791C143.835 168.268 145.843 170.276 148.32 170.276H153.576C152.235 171.739 151.13 173.426 150.34 175.261C149.977 176.102 149.703 176.941 149.506 177.776H148.32C145.843 177.776 143.835 179.784 143.835 182.261V194.958C143.835 197.435 145.843 199.443 148.32 199.443H153.534C154.121 202.053 154.39 204.685 153.958 207.36H139.043C138.241 207.36 137.585 208.016 137.585 208.819C137.585 208.932 137.597 209.042 137.622 209.148ZM122.903 177.359C120.426 177.359 118.418 179.367 118.418 181.844V194.542C118.418 197.019 120.426 199.027 122.903 199.027H136.433C138.91 199.027 140.918 197.019 140.918 194.542V181.844C140.918 179.367 138.91 177.359 136.433 177.359H122.903ZM122.903 148.192C120.426 148.192 118.418 150.2 118.418 152.677V165.375C118.418 167.852 120.426 169.859 122.903 169.859H136.433C138.91 169.859 140.918 167.852 140.918 165.375V152.677C140.918 150.2 138.91 148.192 136.433 148.192H122.903ZM173.737 121.942C171.26 121.942 169.252 123.949 169.252 126.427V139.124C169.252 141.601 171.26 143.609 173.737 143.609H187.267C189.744 143.609 191.753 141.601 191.753 139.124V126.427C191.753 123.949 189.744 121.942 187.267 121.942H173.737ZM148.32 121.525C145.843 121.525 143.835 123.533 143.835 126.01V138.707C143.835 141.185 145.843 143.192 148.32 143.192H161.85C164.327 143.192 166.335 141.185 166.335 138.707V126.01C166.335 123.533 164.327 121.525 161.85 121.525H148.32ZM122.903 121.108C120.426 121.108 118.418 123.116 118.418 125.594V138.291C118.418 140.767 120.426 142.776 122.903 142.776H136.433C138.91 142.776 140.918 140.767 140.918 138.291V125.594C140.918 123.116 138.91 121.108 136.433 121.108H122.903Z" fill="white"/>
</mask>
<g mask="url(#mask0_276_3049)">
<path d="M137.622 209.148L123.246 209.029C118.574 208.991 114.784 205.097 114.823 200.376L115.691 95.4868C121.026 92.7847 126.473 89.4468 130.392 84.8816C133.82 80.8895 136.364 76.2547 139.337 71.9305C142.337 67.5658 146.138 63.2142 151.317 61.5542C153.143 60.9689 154.999 60.6663 156.849 60.6663C158.895 60.6663 160.934 61.0363 162.919 61.8005C170.809 64.8384 176.53 72.3826 182.104 78.4273C186.372 83.0547 191.015 87.7889 196.497 90.841L195.79 176.286C194.395 175.626 193.028 174.919 191.689 174.225C189.452 173.063 187.233 171.855 184.993 170.693H187.267C189.744 170.693 191.753 168.685 191.753 166.208V153.511C191.753 151.034 189.744 149.026 187.267 149.026H173.737C171.26 149.026 169.252 151.034 169.252 153.511V164.833C168.302 164.707 167.347 164.639 166.39 164.639C166.372 164.639 166.354 164.639 166.335 164.639V153.094C166.335 150.617 164.327 148.609 161.85 148.609H148.32C145.843 148.609 143.835 150.617 143.835 153.094V165.791C143.835 168.268 145.843 170.276 148.32 170.276H153.576C152.235 171.739 151.13 173.426 150.34 175.261C149.977 176.102 149.703 176.941 149.506 177.776H148.32C145.843 177.776 143.835 179.784 143.835 182.261V194.958C143.835 197.435 145.843 199.443 148.32 199.443H153.534C154.121 202.053 154.39 204.685 153.958 207.36H139.043C138.241 207.36 137.585 208.016 137.585 208.819C137.585 208.932 137.597 209.042 137.622 209.148ZM122.903 177.359C120.426 177.359 118.418 179.367 118.418 181.844V194.542C118.418 197.019 120.426 199.027 122.903 199.027H136.433C138.91 199.027 140.918 197.019 140.918 194.542V181.844C140.918 179.367 138.91 177.359 136.433 177.359H122.903ZM122.903 148.192C120.426 148.192 118.418 150.2 118.418 152.677V165.375C118.418 167.852 120.426 169.859 122.903 169.859H136.433C138.91 169.859 140.918 167.852 140.918 165.375V152.677C140.918 150.2 138.91 148.192 136.433 148.192H122.903ZM173.737 121.942C171.26 121.942 169.252 123.949 169.252 126.427V139.124C169.252 141.601 171.26 143.609 173.737 143.609H187.267C189.744 143.609 191.753 141.601 191.753 139.124V126.427C191.753 123.949 189.744 121.942 187.267 121.942H173.737ZM148.32 121.525C145.843 121.525 143.835 123.533 143.835 126.01V138.707C143.835 141.185 145.843 143.192 148.32 143.192H161.85C164.327 143.192 166.335 141.185 166.335 138.707V126.01C166.335 123.533 164.327 121.525 161.85 121.525H148.32ZM122.903 121.108C120.426 121.108 118.418 123.116 118.418 125.594V138.291C118.418 140.767 120.426 142.776 122.903 142.776H136.433C138.91 142.776 140.918 140.767 140.918 138.291V125.594C140.918 123.116 138.91 121.108 136.433 121.108H122.903Z" fill="url(#paint1_linear_276_3049)"/>
</g>
<mask id="mask1_276_3049" style="mask-type:luminance" maskUnits="userSpaceOnUse" x="118" y="121" width="23" height="22">
<path d="M136.433 142.776H122.903C120.426 142.776 118.418 140.767 118.418 138.291V125.594C118.418 123.116 120.426 121.109 122.903 121.109H136.433C138.91 121.109 140.918 123.116 140.918 125.594V138.291C140.918 140.767 138.91 142.776 136.433 142.776Z" fill="white"/>
</mask>
<g mask="url(#mask1_276_3049)">
<path d="M136.433 142.776H122.903C120.426 142.776 118.418 140.767 118.418 138.291V125.594C118.418 123.116 120.426 121.109 122.903 121.109H136.433C138.91 121.109 140.918 123.116 140.918 125.594V138.291C140.918 140.767 138.91 142.776 136.433 142.776Z" fill="url(#paint2_linear_276_3049)"/>
</g>
<mask id="mask2_276_3049" style="mask-type:luminance" maskUnits="userSpaceOnUse" x="143" y="121" width="24" height="23">
<path d="M161.85 143.192H148.32C145.842 143.192 143.834 141.185 143.834 138.707V126.01C143.834 123.533 145.842 121.525 148.32 121.525H161.85C164.327 121.525 166.335 123.533 166.335 126.01V138.707C166.335 141.185 164.327 143.192 161.85 143.192Z" fill="white"/>
</mask>
<g mask="url(#mask2_276_3049)">
<path d="M161.85 143.192H148.32C145.842 143.192 143.834 141.185 143.834 138.707V126.01C143.834 123.533 145.842 121.525 148.32 121.525H161.85C164.327 121.525 166.335 123.533 166.335 126.01V138.707C166.335 141.185 164.327 143.192 161.85 143.192Z" fill="url(#paint3_linear_276_3049)"/>
</g>
<mask id="mask3_276_3049" style="mask-type:luminance" maskUnits="userSpaceOnUse" x="169" y="121" width="23" height="23">
<path d="M187.267 143.609H173.737C171.26 143.609 169.252 141.6 169.252 139.124V126.427C169.252 123.949 171.26 121.942 173.737 121.942H187.267C189.744 121.942 191.752 123.949 191.752 126.427V139.124C191.752 141.6 189.744 143.609 187.267 143.609Z" fill="white"/>
</mask>
<g mask="url(#mask3_276_3049)">
<path d="M187.267 143.609H173.737C171.26 143.609 169.252 141.6 169.252 139.124V126.427C169.252 123.949 171.26 121.942 173.737 121.942H187.267C189.744 121.942 191.752 123.949 191.752 126.427V139.124C191.752 141.6 189.744 143.609 187.267 143.609Z" fill="url(#paint4_linear_276_3049)"/>
</g>
<mask id="mask4_276_3049" style="mask-type:luminance" maskUnits="userSpaceOnUse" x="118" y="148" width="23" height="22">
<path d="M136.433 169.859H122.903C120.426 169.859 118.418 167.852 118.418 165.375V152.677C118.418 150.2 120.426 148.192 122.903 148.192H136.433C138.91 148.192 140.918 150.2 140.918 152.677V165.375C140.918 167.852 138.91 169.859 136.433 169.859Z" fill="white"/>
</mask>
<g mask="url(#mask4_276_3049)">
<path d="M136.433 169.859H122.903C120.426 169.859 118.418 167.852 118.418 165.375V152.677C118.418 150.2 120.426 148.192 122.903 148.192H136.433C138.91 148.192 140.918 150.2 140.918 152.677V165.375C140.918 167.852 138.91 169.859 136.433 169.859Z" fill="url(#paint5_linear_276_3049)"/>
</g>
<mask id="mask5_276_3049" style="mask-type:luminance" maskUnits="userSpaceOnUse" x="153" y="164" width="14" height="7">
<path d="M161.85 170.276H153.576C156.009 167.624 159.224 165.71 162.766 164.993C163.951 164.753 165.145 164.642 166.335 164.639V165.791C166.335 168.268 164.327 170.276 161.85 170.276Z" fill="white"/>
</mask>
<g mask="url(#mask5_276_3049)">
<path d="M161.85 170.276H153.576C156.009 167.624 159.224 165.71 162.766 164.993C163.951 164.753 165.145 164.642 166.335 164.639V165.791C166.335 168.268 164.327 170.276 161.85 170.276Z" fill="url(#paint6_linear_276_3049)"/>
</g>
<mask id="mask6_276_3049" style="mask-type:luminance" maskUnits="userSpaceOnUse" x="143" y="148" width="24" height="23">
<path d="M153.576 170.276H148.32C145.842 170.276 143.834 168.268 143.834 165.791V153.094C143.834 150.617 145.842 148.609 148.32 148.609H161.85C164.327 148.609 166.335 150.617 166.335 153.094V164.639C165.145 164.642 163.951 164.753 162.766 164.993C159.224 165.71 156.009 167.624 153.576 170.276Z" fill="white"/>
</mask>
<g mask="url(#mask6_276_3049)">
<path d="M153.576 170.276H148.32C145.842 170.276 143.834 168.268 143.834 165.791V153.094C143.834 150.617 145.842 148.609 148.32 148.609H161.85C164.327 148.609 166.335 150.617 166.335 153.094V164.639C165.145 164.642 163.951 164.753 162.766 164.993C159.224 165.71 156.009 167.624 153.576 170.276Z" fill="url(#paint7_linear_276_3049)"/>
</g>
<mask id="mask7_276_3049" style="mask-type:luminance" maskUnits="userSpaceOnUse" x="169" y="164" width="16" height="7">
<path d="M184.992 170.693H173.737C171.26 170.693 169.252 168.685 169.252 166.208V164.833C171.928 165.188 174.561 165.994 177.064 166.987C179.779 168.065 182.4 169.348 184.992 170.693Z" fill="white"/>
</mask>
<g mask="url(#mask7_276_3049)">
<path d="M184.992 170.693H173.737C171.26 170.693 169.252 168.685 169.252 166.208V164.833C171.928 165.188 174.561 165.994 177.064 166.987C179.779 168.065 182.4 169.348 184.992 170.693Z" fill="url(#paint8_linear_276_3049)"/>
</g>
<mask id="mask8_276_3049" style="mask-type:luminance" maskUnits="userSpaceOnUse" x="169" y="149" width="23" height="22">
<path d="M187.267 170.693H184.992C182.4 169.348 179.779 168.065 177.064 166.987C174.561 165.994 171.928 165.188 169.252 164.833V153.511C169.252 151.034 171.26 149.026 173.737 149.026H187.267C189.744 149.026 191.752 151.034 191.752 153.511V166.208C191.752 168.685 189.744 170.693 187.267 170.693Z" fill="white"/>
</mask>
<g mask="url(#mask8_276_3049)">
<path d="M187.267 170.693H184.992C182.4 169.348 179.779 168.065 177.064 166.987C174.561 165.994 171.928 165.188 169.252 164.833V153.511C169.252 151.034 171.26 149.026 173.737 149.026H187.267C189.744 149.026 191.752 151.034 191.752 153.511V166.208C191.752 168.685 189.744 170.693 187.267 170.693Z" fill="url(#paint9_linear_276_3049)"/>
</g>
<mask id="mask9_276_3049" style="mask-type:luminance" maskUnits="userSpaceOnUse" x="118" y="177" width="23" height="23">
<path d="M136.433 199.027H122.903C120.426 199.027 118.418 197.019 118.418 194.542V181.844C118.418 179.367 120.426 177.359 122.903 177.359H136.433C138.91 177.359 140.918 179.367 140.918 181.844V194.542C140.918 197.019 138.91 199.027 136.433 199.027Z" fill="white"/>
</mask>
<g mask="url(#mask9_276_3049)">
<path d="M136.433 199.027H122.903C120.426 199.027 118.418 197.019 118.418 194.542V181.844C118.418 179.367 120.426 177.359 122.903 177.359H136.433C138.91 177.359 140.918 179.367 140.918 181.844V194.542C140.918 197.019 138.91 199.027 136.433 199.027Z" fill="url(#paint10_linear_276_3049)"/>
</g>
<mask id="mask10_276_3049" style="mask-type:luminance" maskUnits="userSpaceOnUse" x="149" y="177" width="18" height="23">
<path d="M161.851 199.443H153.534C151.897 192.166 147.785 185.073 149.507 177.776H161.851C164.328 177.776 166.336 179.784 166.336 182.261V194.958C166.336 197.435 164.328 199.443 161.851 199.443Z" fill="white"/>
</mask>
<g mask="url(#mask10_276_3049)">
<path d="M161.851 199.443H153.534C151.897 192.166 147.785 185.073 149.507 177.776H161.851C164.328 177.776 166.336 179.784 166.336 182.261V194.958C166.336 197.435 164.328 199.443 161.851 199.443Z" fill="url(#paint11_linear_276_3049)"/>
</g>
<mask id="mask11_276_3049" style="mask-type:luminance" maskUnits="userSpaceOnUse" x="143" y="177" width="11" height="23">
<path d="M153.533 199.443H148.32C145.842 199.443 143.834 197.435 143.834 194.958V182.261C143.834 179.784 145.842 177.776 148.32 177.776H149.506C147.784 185.073 151.896 192.166 153.533 199.443Z" fill="white"/>
</mask>
<g mask="url(#mask11_276_3049)">
<path d="M153.533 199.443H148.32C145.842 199.443 143.834 197.435 143.834 194.958V182.261C143.834 179.784 145.842 177.776 148.32 177.776H149.506C147.784 185.073 151.896 192.166 153.533 199.443Z" fill="url(#paint12_linear_276_3049)"/>
</g>
<mask id="mask12_276_3049" style="mask-type:luminance" maskUnits="userSpaceOnUse" x="169" y="178" width="23" height="22">
<path d="M187.267 199.86H173.737C171.26 199.86 169.252 197.852 169.252 195.375V182.677C169.252 180.201 171.26 178.193 173.737 178.193H187.267C189.744 178.193 191.752 180.201 191.752 182.677V195.375C191.752 197.852 189.744 199.86 187.267 199.86Z" fill="white"/>
</mask>
<g mask="url(#mask12_276_3049)">
<path d="M187.267 199.86H173.737C171.26 199.86 169.252 197.852 169.252 195.375V182.677C169.252 180.201 171.26 178.193 173.737 178.193H187.267C189.744 178.193 191.752 180.201 191.752 182.677V195.375C191.752 197.852 189.744 199.86 187.267 199.86Z" fill="url(#paint13_linear_276_3049)"/>
</g>
<mask id="mask13_276_3049" style="mask-type:luminance" maskUnits="userSpaceOnUse" x="137" y="207" width="34" height="4">
<path d="M168.627 210.277H139.043C138.354 210.277 137.773 209.793 137.622 209.148L153.525 209.279C153.677 208.755 153.805 208.217 153.906 207.663C153.924 207.562 153.942 207.461 153.958 207.36H168.627C169.429 207.36 170.085 208.016 170.085 208.819C170.085 209.621 169.429 210.277 168.627 210.277Z" fill="white"/>
</mask>
<g mask="url(#mask13_276_3049)">
<path d="M168.627 210.277H139.043C138.354 210.277 137.773 209.793 137.622 209.148L153.525 209.279C153.677 208.755 153.805 208.217 153.906 207.663C153.924 207.562 153.942 207.461 153.958 207.36H168.627C169.429 207.36 170.085 208.016 170.085 208.819C170.085 209.621 169.429 210.277 168.627 210.277Z" fill="url(#paint14_linear_276_3049)"/>
</g>
<mask id="mask14_276_3049" style="mask-type:luminance" maskUnits="userSpaceOnUse" x="137" y="207" width="17" height="3">
<path d="M153.525 209.279L137.622 209.148C137.598 209.042 137.585 208.932 137.585 208.819C137.585 208.016 138.241 207.36 139.043 207.36H153.958C153.942 207.461 153.924 207.562 153.906 207.663C153.805 208.217 153.678 208.755 153.525 209.279Z" fill="white"/>
</mask>
<g mask="url(#mask14_276_3049)">
<path d="M153.525 209.279L137.622 209.148C137.598 209.042 137.585 208.932 137.585 208.819C137.585 208.016 138.241 207.36 139.043 207.36H153.958C153.942 207.461 153.924 207.562 153.906 207.663C153.805 208.217 153.678 208.755 153.525 209.279Z" fill="url(#paint15_linear_276_3049)"/>
</g>
<path d="M78.6549 196.064C76.6596 196.777 74.6644 197.49 72.6691 198.203C72.1275 198.397 71.8454 198.993 72.0391 199.535C72.2328 200.076 72.8286 200.358 73.3707 200.165C75.3654 199.452 77.3607 198.739 79.356 198.026C79.8981 197.832 80.1802 197.236 79.9865 196.694C79.7928 196.153 79.197 195.871 78.6549 196.064" fill="#10B981"/>
<path d="M125.295 193.61H69.0393C65.4883 193.61 62.583 190.704 62.583 187.154V156.732C62.583 153.181 65.4883 150.276 69.0393 150.276H125.295C128.846 150.276 131.751 153.181 131.751 156.732V187.154C131.751 190.704 128.846 193.61 125.295 193.61Z" fill="white"/>
<path d="M126.126 169.859H68.2084C67.4063 169.859 66.75 169.203 66.75 168.401C66.75 167.599 67.4063 166.943 68.2084 166.943H126.126C126.928 166.943 127.585 167.599 127.585 168.401C127.585 169.203 126.928 169.859 126.126 169.859Z" fill="#D1D5DB"/>
<path d="M126.126 177.567H68.2084C67.4063 177.567 66.75 176.912 66.75 176.109C66.75 175.308 67.4063 174.651 68.2084 174.651H126.126C126.928 174.651 127.585 175.308 127.585 176.109C127.585 176.912 126.928 177.567 126.126 177.567Z" fill="#D1D5DB"/>
<path d="M91.4216 188.61H70.5C68.4374 188.61 66.75 186.922 66.75 184.859C66.75 182.797 68.4374 181.109 70.5 181.109H91.4216C93.4842 181.109 95.1716 182.797 95.1716 184.859C95.1716 186.922 93.4842 188.61 91.4216 188.61Z" fill="#10B981"/>
<path d="M123.44 188.61H102.519C100.456 188.61 98.7686 186.922 98.7686 184.859C98.7686 182.797 100.456 181.109 102.519 181.109H123.44C125.502 181.109 127.19 182.797 127.19 184.859C127.19 186.922 125.502 188.61 123.44 188.61Z" fill="#D1D5DB"/>
<path d="M166.954 100.275C166.976 100.28 167.102 94.3279 167.083 93.9573C166.88 90.0426 166.215 85.8789 164.152 82.4763C161.068 77.3926 154.608 75.7931 150.067 79.9116C147.02 82.6758 145.847 87.0137 145.33 90.9531C144.928 94.011 144.836 97.2042 145.189 100.275C138.314 101.942 137.634 108.036 137.634 108.036H155.76H156.384H174.509C174.509 108.036 173.829 101.942 166.954 100.275Z" fill="#D1FAE5"/>
<path d="M156.057 112.095C153.682 112.095 151.737 110.151 151.737 107.775C151.737 105.399 153.682 103.455 156.057 103.455C158.433 103.455 160.377 105.399 160.377 107.775C160.377 110.151 158.433 112.095 156.057 112.095Z" fill="#D1FAE5"/>
<path d="M156.335 84.9968C155.113 84.9968 154.113 83.9968 154.113 82.7747V75.2742C154.113 74.0521 155.113 73.0521 156.335 73.0521C157.558 73.0521 158.558 74.0521 158.558 75.2742V82.7747C158.558 83.9968 157.558 84.9968 156.335 84.9968Z" fill="#D1FAE5"/>
<path d="M215.444 89.8142C203.982 89.8142 194.605 80.4363 194.605 68.9747C194.605 57.5132 203.982 48.1358 215.444 48.1358C226.906 48.1358 236.283 57.5132 236.283 68.9747C236.283 80.4363 226.906 89.8142 215.444 89.8142Z" fill="#D1FAE5"/>
<mask id="mask15_276_3049" style="mask-type:luminance" maskUnits="userSpaceOnUse" x="187" y="40" width="57" height="58">
<path d="M215.444 97.4111C199.804 97.4111 187.007 84.6148 187.007 68.9748C187.007 53.3348 199.804 40.538 215.444 40.538C231.084 40.538 243.881 53.3348 243.881 68.9748C243.881 84.6148 231.084 97.4111 215.444 97.4111Z" fill="white"/>
</mask>
<g mask="url(#mask15_276_3049)">
<path d="M215.444 97.4111C199.804 97.4111 187.007 84.6148 187.007 68.9748C187.007 53.3348 199.804 40.538 215.444 40.538C231.084 40.538 243.881 53.3348 243.881 68.9748C243.881 84.6148 231.084 97.4111 215.444 97.4111Z" fill="#FACC15"/>
</g>
<path d="M215.444 91.9417C202.813 91.9417 192.478 81.6064 192.478 68.9748C192.478 56.3432 202.813 46.008 215.444 46.008C228.076 46.008 238.411 56.3432 238.411 68.9748C238.411 81.6064 228.076 91.9417 215.444 91.9417Z" fill="white"/>
<path d="M214.311 73.4016C213.509 73.4016 212.854 72.7458 212.854 71.9442V59.1174C212.854 58.3153 213.509 57.6595 214.311 57.6595C215.112 57.6595 215.769 58.3153 215.769 59.1174V71.9442C215.769 72.7458 215.112 73.4016 214.311 73.4016Z" fill="#34D399"/>
<path d="M212.854 72.1669C212.854 71.3653 213.51 70.7095 214.311 70.7095H227.138C227.94 70.7095 228.596 71.3653 228.596 72.1669C228.596 72.9684 227.94 73.6248 227.138 73.6248H214.311C213.51 73.6248 212.854 72.9684 212.854 72.1669Z" fill="#34D399"/>
<path d="M269.715 219.527H228.431V177.071H269.715V219.527Z" fill="#ECFDF5"/>
<path d="M269.715 187.337V177.071H228.431V187.337H269.715Z" fill="#6EE7B7"/>
<path d="M237.49 180.759C236.464 180.759 235.624 179.919 235.624 178.892V173.026C235.624 171.999 236.464 171.159 237.49 171.159C238.517 171.159 239.357 171.999 239.357 173.026V178.892C239.357 179.919 238.517 180.759 237.49 180.759Z" fill="#34D399"/>
<path d="M248.95 180.759C247.923 180.759 247.083 179.919 247.083 178.892V173.026C247.083 171.999 247.923 171.159 248.95 171.159C249.977 171.159 250.817 171.999 250.817 173.026V178.892C250.817 179.919 249.977 180.759 248.95 180.759Z" fill="#34D399"/>
<path d="M259.485 180.759C258.459 180.759 257.619 179.919 257.619 178.892V173.026C257.619 171.999 258.459 171.159 259.485 171.159C260.512 171.159 261.352 171.999 261.352 173.026V178.892C261.352 179.919 260.512 180.759 259.485 180.759Z" fill="#34D399"/>
<path d="M88.1402 27.6358L88.7097 28.6763L89.7502 29.2458L88.7097 29.8147L88.1402 30.8552L87.5713 29.8147L86.5308 29.2458L87.5713 28.6763L88.1402 27.6358Z" fill="#D1FAE5"/>
<path d="M10.0247 71L11.4472 73.6016L14.0487 75.0242L11.4472 76.4469L10.0247 79.0485L8.60158 76.4469L6 75.0242L8.60158 73.6016L10.0247 71Z" fill="#D1FAE5"/>
<path d="M35.7114 88.9442L36.5162 90.4157L37.9877 91.2205L36.5162 92.0252L35.7114 93.4973L34.9061 92.0252L33.4346 91.2205L34.9061 90.4157L35.7114 88.9442Z" fill="#D1FAE5"/>
<path d="M8.27674 202L9.08163 203.472L10.5531 204.276L9.08163 205.082L8.27674 206.553L7.47184 205.082L6 204.276L7.47184 203.472L8.27674 202Z" fill="#D1FAE5"/>
<path d="M39.3332 18.7027L40.7842 21.3559L43.4374 22.8064L40.7842 24.258L39.3332 26.9111L37.8821 24.258L35.2295 22.8064L37.8821 21.3559L39.3332 18.7027Z" fill="#D1FAE5"/>
<path d="M4.72392 127.309L5.62403 128.954L7.26913 129.854L5.62403 130.754L4.72392 132.399L3.82424 130.754L2.17871 129.854L3.82424 128.954L4.72392 127.309Z" fill="#D1FAE5"/>
<path d="M272.544 92.7295L273.789 95.0058L276.065 96.251L273.789 97.4958L272.544 99.7721L271.299 97.4958L269.022 96.251L271.299 95.0058L272.544 92.7295Z" fill="#D1FAE5"/>
<path d="M255.843 36.359L256.743 38.0042L258.388 38.9042L256.743 39.8037L255.843 41.449L254.943 39.8037L253.297 38.9042L254.943 38.0042L255.843 36.359Z" fill="#D1FAE5"/>
<path d="M299.306 37.9684L300.206 39.6137L301.851 40.5137L300.206 41.4137L299.306 43.059L298.406 41.4137L296.761 40.5137L298.406 39.6137L299.306 37.9684Z" fill="#D1FAE5"/>
<path d="M264.294 77.4069L265.194 79.0527L266.839 79.9522L265.194 80.8522L264.294 82.4974L263.394 80.8522L261.749 79.9522L263.394 79.0527L264.294 77.4069Z" fill="#D1FAE5"/>
<path d="M294.074 198.942L294.974 200.588L296.619 201.487L294.974 202.387L294.074 204.032L293.174 202.387L291.529 201.487L293.174 200.588L294.074 198.942Z" fill="#D1FAE5"/>
<path d="M304.537 134.494L305.174 135.657L306.337 136.293L305.174 136.93L304.537 138.093L303.901 136.93L302.737 136.293L303.901 135.657L304.537 134.494Z" fill="#D1FAE5"/>
<path d="M10.7596 46.3484H10.1559C10.1555 47.1284 9.84156 47.8284 9.33087 48.3405C8.81919 48.851 8.11871 49.1652 7.33892 49.1652C6.55908 49.1652 5.85866 48.851 5.34693 48.3405C4.83624 47.8284 4.52208 47.1284 4.52187 46.3484C4.52208 45.5684 4.83624 44.8678 5.34693 44.3563C5.85866 43.8457 6.55887 43.5315 7.33892 43.5315C8.11871 43.5315 8.81919 43.8457 9.33066 44.3563C9.84135 44.8678 10.1555 45.5684 10.1559 46.3484H10.7596H11.3631C11.3628 44.1252 9.56177 42.3241 7.33892 42.3241C5.11603 42.3241 3.31482 44.1252 3.31445 46.3484C3.31482 48.571 5.11603 50.372 7.33892 50.3726C9.56177 50.372 11.3628 48.571 11.3631 46.3484H10.7596Z" fill="#D1FAE5"/>
<path d="M290.853 30.8547H290.25C290.249 31.6347 289.936 32.3347 289.424 32.8468C288.913 33.3573 288.212 33.671 287.433 33.6715C286.653 33.671 285.952 33.3573 285.441 32.8468C284.93 32.3347 284.616 31.6347 284.616 30.8547C284.616 30.0747 284.93 29.3742 285.441 28.8626C285.952 28.3521 286.653 28.0379 287.433 28.0379C288.212 28.0379 288.913 28.3521 289.424 28.8626C289.936 29.3742 290.249 30.0747 290.25 30.8547H290.853H291.457C291.457 28.6315 289.656 26.8305 287.433 26.8299C285.21 26.8305 283.409 28.6315 283.409 30.8547C283.409 33.0773 285.21 34.8784 287.433 34.8789C289.656 34.8784 291.457 33.0773 291.457 30.8547H290.853Z" fill="#D1FAE5"/>
<path d="M43.9401 72.1142H43.4801C43.4801 72.7084 43.2406 73.2421 42.8517 73.6316C42.4617 74.0205 41.9285 74.26 41.3343 74.26C40.7401 74.26 40.2069 74.0205 39.8169 73.6316C39.428 73.2421 39.189 72.7084 39.1885 72.1142C39.189 71.5205 39.428 70.9868 39.8169 70.5968C40.2069 70.2079 40.7401 69.9689 41.3343 69.9684C41.9285 69.9689 42.4617 70.2079 42.8517 70.5968C43.2406 70.9868 43.4801 71.5205 43.4801 72.1142H43.9401H44.3996C44.3996 70.421 43.0275 69.0489 41.3343 69.0489C39.6411 69.0489 38.269 70.421 38.269 72.1142C38.269 73.8073 39.6411 75.1794 41.3343 75.1794C43.0275 75.1794 44.3996 73.8073 44.3996 72.1142H43.9401Z" fill="#D1FAE5"/>
<path d="M26.0314 197.462H25.5714C25.5714 198.056 25.3319 198.59 24.943 198.98C24.5535 199.369 24.0198 199.608 23.4256 199.608C22.8319 199.608 22.2982 199.369 21.9082 198.98C21.5193 198.59 21.2804 198.056 21.2798 197.462C21.2804 196.868 21.5193 196.335 21.9082 195.945C22.2982 195.556 22.8319 195.317 23.4256 195.317C24.0198 195.317 24.5535 195.556 24.943 195.945C25.3319 196.335 25.5714 196.868 25.5714 197.462H26.0314H26.4914C26.4909 195.77 25.1193 194.397 23.4256 194.397C21.7325 194.397 20.3609 195.77 20.3604 197.462C20.3604 199.155 21.7325 200.528 23.4256 200.528C25.1193 200.528 26.4909 199.155 26.4914 197.462H26.0314Z" fill="#D1FAE5"/>
<path d="M275.76 58.2821H275.301C275.3 58.8763 275.061 59.41 274.672 59.7995C274.282 60.1884 273.749 60.4279 273.155 60.4279C272.561 60.4279 272.028 60.1884 271.638 59.7995C271.249 59.41 271.009 58.8763 271.009 58.2821C271.009 57.6884 271.249 57.1548 271.638 56.7648C272.028 56.3758 272.561 56.1368 273.155 56.1363C273.749 56.1368 274.282 56.3758 274.672 56.7648C275.061 57.1548 275.3 57.6884 275.301 58.2821H275.76H276.22C276.22 56.589 274.848 55.2174 273.155 55.2168C271.462 55.2174 270.09 56.589 270.09 58.2821C270.09 59.9753 271.462 61.3474 273.155 61.3479C274.848 61.3474 276.22 59.9753 276.22 58.2821H275.76Z" fill="#D1FAE5"/>
<path d="M309.557 194.645H309.097C309.097 195.239 308.857 195.773 308.468 196.163C308.078 196.552 307.545 196.791 306.951 196.791C306.357 196.791 305.824 196.552 305.434 196.163C305.045 195.773 304.805 195.239 304.805 194.645C304.805 194.052 305.045 193.518 305.434 193.128C305.824 192.739 306.357 192.5 306.951 192.499C307.545 192.5 308.078 192.739 308.468 193.128C308.857 193.518 309.097 194.052 309.097 194.645H309.557H310.016C310.016 192.952 308.644 191.581 306.951 191.58C305.258 191.581 303.886 192.952 303.886 194.645C303.886 196.338 305.258 197.711 306.951 197.711C308.644 197.711 310.016 196.338 310.016 194.645H309.557Z" fill="#D1FAE5"/>
<path d="M41.5353 113.59H41.0758C41.0753 114.183 40.8364 114.717 40.4474 115.107C40.0574 115.496 39.5237 115.735 38.93 115.735C38.3358 115.735 37.8021 115.496 37.4127 115.107C37.0237 114.717 36.7843 114.183 36.7843 113.59C36.7843 112.995 37.0237 112.462 37.4127 112.072C37.8021 111.683 38.3358 111.444 38.93 111.444C39.5237 111.444 40.0574 111.683 40.4474 112.072C40.8364 112.462 41.0753 112.995 41.0758 113.59H41.5353H41.9953C41.9953 111.896 40.6232 110.524 38.93 110.524C37.2369 110.524 35.8648 111.896 35.8643 113.59C35.8648 115.283 37.2369 116.655 38.93 116.655C40.6232 116.655 41.9948 115.283 41.9953 113.59H41.5353Z" fill="#D1FAE5"/>
<defs>
<linearGradient id="paint0_linear_276_3049" x1="154.281" y1="42.3442" x2="153.031" y2="216.088" gradientUnits="userSpaceOnUse">
<stop stop-color="#D1FAE5"/>
<stop offset="1" stop-color="#047857"/>
</linearGradient>
<linearGradient id="paint1_linear_276_3049" x1="154.28" y1="42.3442" x2="153.03" y2="216.088" gradientUnits="userSpaceOnUse">
<stop stop-color="#A7F3D0"/>
<stop offset="1" stop-color="#059669"/>
</linearGradient>
<linearGradient id="paint2_linear_276_3049" x1="154.281" y1="42.3443" x2="153.031" y2="216.088" gradientUnits="userSpaceOnUse">
<stop stop-color="#D1FAE5"/>
<stop offset="1" stop-color="#10B981"/>
</linearGradient>
<linearGradient id="paint3_linear_276_3049" x1="154.28" y1="42.3443" x2="153.03" y2="216.088" gradientUnits="userSpaceOnUse">
<stop stop-color="#D1FAE5"/>
<stop offset="1" stop-color="#10B981"/>
</linearGradient>
<linearGradient id="paint4_linear_276_3049" x1="154.28" y1="42.3441" x2="153.03" y2="216.088" gradientUnits="userSpaceOnUse">
<stop stop-color="#D1FAE5"/>
<stop offset="1" stop-color="#10B981"/>
</linearGradient>
<linearGradient id="paint5_linear_276_3049" x1="154.281" y1="42.3442" x2="153.031" y2="216.088" gradientUnits="userSpaceOnUse">
<stop stop-color="#D1FAE5"/>
<stop offset="1" stop-color="#059669"/>
</linearGradient>
<linearGradient id="paint6_linear_276_3049" x1="154.28" y1="42.3441" x2="153.03" y2="216.089" gradientUnits="userSpaceOnUse">
<stop stop-color="#D1FAE5"/>
<stop offset="1" stop-color="#059669"/>
</linearGradient>
<linearGradient id="paint7_linear_276_3049" x1="154.28" y1="42.3442" x2="153.03" y2="216.088" gradientUnits="userSpaceOnUse">
<stop stop-color="#D1FAE5"/>
<stop offset="1" stop-color="#10B981"/>
</linearGradient>
<linearGradient id="paint8_linear_276_3049" x1="154.28" y1="42.3443" x2="153.03" y2="216.088" gradientUnits="userSpaceOnUse">
<stop stop-color="#D1FAE5"/>
<stop offset="1" stop-color="#059669"/>
</linearGradient>
<linearGradient id="paint9_linear_276_3049" x1="154.28" y1="42.3442" x2="153.03" y2="216.088" gradientUnits="userSpaceOnUse">
<stop stop-color="#D1FAE5"/>
<stop offset="1" stop-color="#10B981"/>
</linearGradient>
<linearGradient id="paint10_linear_276_3049" x1="154.281" y1="42.3442" x2="153.031" y2="216.088" gradientUnits="userSpaceOnUse">
<stop stop-color="#D1FAE5"/>
<stop offset="1" stop-color="#10B981"/>
</linearGradient>
<linearGradient id="paint11_linear_276_3049" x1="154.281" y1="42.3442" x2="153.031" y2="216.088" gradientUnits="userSpaceOnUse">
<stop stop-color="#D1FAE5"/>
<stop offset="1" stop-color="#10B981"/>
</linearGradient>
<linearGradient id="paint12_linear_276_3049" x1="154.28" y1="42.3442" x2="153.03" y2="216.088" gradientUnits="userSpaceOnUse">
<stop stop-color="#D1FAE5"/>
<stop offset="1" stop-color="#10B981"/>
</linearGradient>
<linearGradient id="paint13_linear_276_3049" x1="154.28" y1="42.3442" x2="153.03" y2="216.088" gradientUnits="userSpaceOnUse">
<stop stop-color="#D1FAE5"/>
<stop offset="1" stop-color="#10B981"/>
</linearGradient>
<linearGradient id="paint14_linear_276_3049" x1="154.28" y1="42.3442" x2="153.031" y2="216.088" gradientUnits="userSpaceOnUse">
<stop stop-color="#6EE7B7"/>
<stop offset="1" stop-color="#10B981"/>
</linearGradient>
<linearGradient id="paint15_linear_276_3049" x1="154.281" y1="42.3441" x2="153.031" y2="216.088" gradientUnits="userSpaceOnUse">
<stop stop-color="#F5F8FD"/>
<stop offset="1" stop-color="#10B981"/>
</linearGradient>
</defs>
</svg>
