<svg width="320" height="320" viewBox="0 0 320 320" fill="none" xmlns="http://www.w3.org/2000/svg">
<path d="M320 263.966H0V264.15H320V263.966Z" fill="#EBEBEB"/>
<path d="M287.936 275.809H266.74V275.993H287.936V275.809Z" fill="#EBEBEB"/>
<path d="M211.981 277.811H206.419V277.995H211.981V277.811Z" fill="#EBEBEB"/>
<path d="M266.099 268.979H253.818V269.163H266.099V268.979Z" fill="#EBEBEB"/>
<path d="M61.2163 270.215H33.5747V270.399H61.2163V270.215Z" fill="#EBEBEB"/>
<path d="M70.9696 270.215H66.9184V270.399H70.9696V270.215Z" fill="#EBEBEB"/>
<path d="M144.096 273.321H84.1406V273.505H144.096V273.321Z" fill="#EBEBEB"/>
<path d="M151.68 231.141H28.102C27.1339 231.139 26.206 230.695 25.5221 229.907C24.8381 229.119 24.454 228.052 24.454 226.938V27.1658C24.4624 26.0588 24.8503 25.0004 25.5333 24.2204C26.2164 23.4405 27.1394 23.0019 28.102 23H151.68C152.649 23 153.578 23.4428 154.264 24.2309C154.949 25.019 155.334 26.088 155.334 27.2026V226.938C155.334 228.053 154.949 229.122 154.264 229.91C153.578 230.698 152.649 231.141 151.68 231.141ZM28.102 23.1472C27.1763 23.1492 26.2892 23.5734 25.6352 24.3268C24.9813 25.0802 24.614 26.1012 24.614 27.1658V226.938C24.614 228.003 24.9813 229.024 25.6352 229.777C26.2892 230.531 27.1763 230.955 28.102 230.957H151.68C152.606 230.955 153.494 230.531 154.149 229.778C154.804 229.024 155.172 228.003 155.174 226.938V27.1658C155.172 26.1006 154.804 25.0796 154.149 24.3264C153.494 23.5732 152.606 23.1491 151.68 23.1472H28.102Z" fill="#EBEBEB"/>
<path d="M290.119 231.141H166.535C165.566 231.139 164.637 230.695 163.952 229.908C163.267 229.12 162.882 228.052 162.88 226.938V27.1658C162.89 26.0582 163.28 24.9998 163.964 24.22C164.648 23.4402 165.571 23.0019 166.535 23H290.119C291.08 23.0038 292.001 23.4433 292.683 24.223C293.365 25.0028 293.752 26.0601 293.76 27.1658V226.938C293.76 228.05 293.377 229.117 292.694 229.905C292.012 230.692 291.086 231.137 290.119 231.141ZM166.535 23.1472C165.608 23.1491 164.721 23.5732 164.066 24.3264C163.411 25.0796 163.042 26.1006 163.04 27.1658V226.938C163.042 228.003 163.411 229.024 164.066 229.778C164.721 230.531 165.608 230.955 166.535 230.957H290.119C291.045 230.955 291.933 230.531 292.588 229.778C293.243 229.024 293.611 228.003 293.613 226.938V27.1658C293.611 26.1006 293.243 25.0796 292.588 24.3264C291.933 23.5732 291.045 23.1491 290.119 23.1472H166.535Z" fill="#EBEBEB"/>
<path d="M136.263 176.279C136.211 175.867 134.983 166.174 137.44 162.825C137.684 162.474 137.992 162.188 138.343 161.99C138.694 161.791 139.078 161.685 139.469 161.677C144.41 161.545 145.088 166.093 145.095 166.152L144.512 166.255C144.512 166.093 143.872 162.229 139.482 162.354C139.174 162.359 138.872 162.443 138.596 162.6C138.32 162.757 138.079 162.982 137.888 163.26C135.61 166.38 136.839 176.081 136.851 176.176L136.263 176.279Z" fill="#E6E6E6"/>
<path d="M135.968 175.838H135.379C135.379 175.749 135.571 166.903 131.782 165.077C130.822 164.526 129.711 164.431 128.691 164.814C127.67 165.197 126.822 166.027 126.329 167.124L125.805 166.822C126.371 165.579 127.335 164.638 128.493 164.196C129.651 163.754 130.912 163.845 132.013 164.452C136.173 166.439 135.974 175.455 135.968 175.838Z" fill="#E6E6E6"/>
<path d="M135.981 176.53C135.981 176.39 135.949 162.406 133.574 158.314C131.302 154.391 127.629 156.238 127.475 156.319L127.232 155.701C127.27 155.701 131.507 153.493 134.067 157.909C136.537 162.17 136.576 175.919 136.576 176.5L135.981 176.53Z" fill="#E6E6E6"/>
<path d="M140.16 162.008C140.16 162.008 138.003 162.928 138.643 165.085C139.283 167.241 146.105 170.796 146.105 170.796C146.105 170.796 148.96 167.786 146.336 162.892C143.712 157.997 140.237 160.47 140.16 162.008Z" fill="#E6E6E6"/>
<path d="M133.472 157.578C133.472 157.578 135.001 157.386 134.88 156.319C134.758 155.252 128.928 152.485 125.484 156.945C125.484 156.945 127.686 161.294 130.873 161.361C134.06 161.427 133.472 157.578 133.472 157.578Z" fill="#E6E6E6"/>
<path d="M131.897 164.746C131.897 164.746 132.953 163.76 131.814 163.274C130.675 162.788 125.075 162.936 125.017 169.309C125.017 169.309 131.539 170.553 132.345 168.124C133.152 165.696 131.897 164.746 131.897 164.746Z" fill="#E6E6E6"/>
<path d="M141.337 189.262H131.219L130.131 176.53H142.425L141.337 189.262Z" fill="#E6E6E6"/>
<path d="M142.963 175.124H129.587V177.935H142.963V175.124Z" fill="#E6E6E6"/>
<path d="M105.83 176.279C105.881 175.867 107.11 166.174 104.659 162.825C104.414 162.474 104.104 162.189 103.752 161.99C103.401 161.792 103.015 161.685 102.624 161.677C97.6827 161.545 97.0107 166.093 97.0043 166.152L97.5867 166.255C97.5867 166.093 98.2267 162.229 102.611 162.354C102.918 162.358 103.221 162.442 103.497 162.598C103.773 162.755 104.015 162.981 104.204 163.26C106.483 166.38 105.26 176.081 105.248 176.176L105.83 176.279Z" fill="#E6E6E6"/>
<path d="M106.131 175.838H106.72C106.72 175.749 106.521 166.903 110.31 165.077C111.27 164.526 112.381 164.431 113.401 164.814C114.422 165.197 115.27 166.027 115.763 167.124L116.288 166.822C115.721 165.579 114.758 164.638 113.6 164.196C112.442 163.754 111.18 163.845 110.08 164.452C105.92 166.439 106.118 175.455 106.131 175.838Z" fill="#E6E6E6"/>
<path d="M106.112 176.53C106.112 176.39 106.112 162.406 108.519 158.314C110.797 154.391 114.464 156.238 114.624 156.319L114.867 155.701C114.823 155.701 110.586 153.493 108.026 157.909C105.555 162.17 105.523 175.919 105.523 176.5L106.112 176.53Z" fill="#E6E6E6"/>
<path d="M101.92 162.008C101.92 162.008 104.077 162.928 103.437 165.085C102.797 167.241 96 170.796 96 170.796C96 170.796 93.1392 167.786 95.7632 162.892C98.3872 157.997 101.862 160.47 101.92 162.008Z" fill="#E6E6E6"/>
<path d="M108.627 157.578C108.627 157.578 107.091 157.386 107.219 156.319C107.347 155.252 113.171 152.485 116.608 156.945C116.608 156.945 114.407 161.294 111.226 161.361C108.045 161.427 108.627 157.578 108.627 157.578Z" fill="#E6E6E6"/>
<path d="M110.196 164.746C110.196 164.746 109.14 163.76 110.279 163.274C111.418 162.788 117.018 162.936 117.076 169.309C117.076 169.309 110.56 170.553 109.754 168.124C108.948 165.696 110.196 164.746 110.196 164.746Z" fill="#E6E6E6"/>
<path d="M100.762 189.262H110.874L111.968 176.53H99.6675L100.762 189.262Z" fill="#E6E6E6"/>
<path d="M99.1292 177.935H112.505V175.124H99.1292V177.935Z" fill="#E6E6E6"/>
<path d="M75.5196 176.279C75.4684 175.867 74.2396 166.174 76.6908 162.825C76.9359 162.474 77.2454 162.189 77.5971 161.99C77.9488 161.792 78.3343 161.685 78.726 161.677C83.6668 161.545 84.3388 166.093 84.3452 166.152L83.7628 166.255C83.7628 166.093 83.1228 162.229 78.7388 162.354C78.4312 162.358 78.1283 162.442 77.8524 162.598C77.5766 162.755 77.3349 162.981 77.1452 163.26C74.8668 166.38 76.0892 176.081 76.102 176.176L75.5196 176.279Z" fill="#E6E6E6"/>
<path d="M75.1872 175.838H74.5984C74.5984 175.749 74.7968 166.903 71.008 165.077C70.0477 164.526 68.9371 164.431 67.9166 164.814C66.8961 165.197 66.0477 166.027 65.5552 167.124L65.0304 166.822C65.5956 165.58 66.558 164.638 67.7149 164.196C68.8718 163.754 70.1327 163.846 71.232 164.452C75.3984 166.439 75.2 175.455 75.1872 175.838Z" fill="#E6E6E6"/>
<path d="M75.2066 176.53C75.2066 176.39 75.1682 162.406 72.8002 158.314C70.5218 154.391 66.8482 156.238 66.6946 156.319L66.4514 155.701C66.4962 155.701 70.733 153.493 73.293 157.909C75.757 162.17 75.7954 175.919 75.7954 176.5L75.2066 176.53Z" fill="#E6E6E6"/>
<path d="M79.3985 162.008C79.3985 162.008 77.2417 162.928 77.8817 165.085C78.5217 167.241 85.3441 170.796 85.3441 170.796C85.3441 170.796 88.2049 167.786 85.5809 162.892C82.9569 157.997 79.4561 160.47 79.3985 162.008Z" fill="#E6E6E6"/>
<path d="M72.6909 157.578C72.6909 157.578 74.2269 157.386 74.0989 156.319C73.9709 155.252 68.1469 152.485 64.7101 156.945C64.7101 156.945 66.9117 161.294 70.0925 161.361C73.2733 161.427 72.6909 157.578 72.6909 157.578Z" fill="#E6E6E6"/>
<path d="M71.1231 164.746C71.1231 164.746 72.1791 163.76 71.0399 163.274C69.9007 162.788 64.3007 162.936 64.2431 169.309C64.2431 169.309 70.7583 170.553 71.5647 168.124C72.3711 165.696 71.1231 164.746 71.1231 164.746Z" fill="#E6E6E6"/>
<path d="M80.5571 189.262H70.4451L69.3507 176.53H81.6515L80.5571 189.262Z" fill="#E6E6E6"/>
<path d="M82.1885 175.124H68.8125V177.935H82.1885V175.124Z" fill="#E6E6E6"/>
<path d="M62.7773 263.694V193.384H146.38V263.694H149.58V188.858H59.5773V263.694H62.7773Z" fill="#E6E6E6"/>
<path d="M76.7616 263.694V218.312H160.358V263.694H163.558V213.779H73.5616V263.694H76.7616Z" fill="#F0F0F0"/>
<path d="M149.44 203.32C149.44 203.32 147.52 198.485 149.715 193.715C151.911 188.946 152.557 187.827 151.155 186.856C149.754 185.884 149.107 190.668 149.107 190.668C148.412 188.504 148.34 186.141 148.903 183.926C149.875 180.475 150.49 174.859 149.159 174.255C147.827 173.652 148.903 181.262 147.744 183.823C147.154 182.004 146.773 180.104 146.611 178.171C146.451 175.404 146.701 170.98 145.651 169.847C144.602 168.713 143.923 169.493 144.954 175.61C145.577 179.26 145.922 182.967 145.984 186.686C145.984 186.686 143.699 178.671 142.144 178.436C140.589 178.2 140.608 180.798 141.927 183.051C143.245 185.303 145.767 189.336 146.189 191.412C146.189 191.412 143.674 185.376 141.421 187.224C139.168 189.071 143.386 192.722 145.261 194.039C147.136 195.357 148.461 203.607 148.461 203.607L149.44 203.32Z" fill="#F0F0F0"/>
<path d="M147.923 205.307C147.923 205.307 149.798 200.442 147.546 195.739C145.293 191.036 144.646 189.903 146.042 188.902C147.437 187.901 148.128 192.677 148.128 192.677C148.799 190.505 148.846 188.142 148.262 185.936C147.251 182.506 146.579 176.898 147.904 176.272C149.229 175.646 148.237 183.271 149.421 185.84C149.991 184.01 150.35 182.103 150.49 180.165C150.624 177.391 150.323 172.975 151.366 171.827C152.41 170.678 153.094 171.444 152.122 177.575C151.537 181.234 151.23 184.946 151.206 188.666C151.206 188.666 153.414 180.614 154.944 180.357C156.474 180.099 156.499 182.69 155.213 184.964C153.926 187.238 151.43 191.316 151.034 193.399C151.034 193.399 153.485 187.319 155.757 189.13C158.029 190.941 153.837 194.657 151.981 196.004C150.125 197.351 148.896 205.631 148.896 205.631L147.923 205.307Z" fill="#F0F0F0"/>
<path d="M156.576 201.841H141.076L142.33 214.588H155.322L156.576 201.841Z" fill="#F0F0F0"/>
<path d="M120.013 203.32C120.013 203.32 121.933 198.485 119.744 193.715C117.556 188.946 116.903 187.827 118.304 186.856C119.706 185.884 120.352 190.668 120.352 190.668C121.048 188.504 121.12 186.141 120.557 183.926C119.584 180.475 118.97 174.859 120.301 174.255C121.632 173.652 120.557 181.262 121.715 183.823C122.306 182.004 122.686 180.104 122.848 178.171C123.008 175.404 122.759 170.98 123.808 169.847C124.858 168.713 125.536 169.493 124.506 175.61C123.883 179.26 123.538 182.967 123.476 186.686C123.476 186.686 125.76 178.671 127.316 178.436C128.871 178.2 128.852 180.798 127.533 183.051C126.215 185.303 123.693 189.336 123.271 191.412C123.271 191.412 125.786 185.376 128.039 187.224C130.292 189.071 126.074 192.722 124.199 194.039C122.324 195.357 120.999 203.607 120.999 203.607L120.013 203.32Z" fill="#F0F0F0"/>
<path d="M121.536 205.307C121.536 205.307 119.661 200.442 121.914 195.739C124.166 191.036 124.813 189.903 123.418 188.902C122.022 187.901 121.331 192.677 121.331 192.677C120.66 190.505 120.613 188.142 121.197 185.936C122.208 182.506 122.88 176.898 121.555 176.272C120.23 175.646 121.222 183.271 120.038 185.84C119.468 184.01 119.109 182.103 118.97 180.165C118.835 177.391 119.13 172.975 118.093 171.827C117.056 170.678 116.365 171.444 117.338 177.575C117.923 181.234 118.229 184.946 118.253 188.666C118.253 188.666 116.045 180.614 114.515 180.357C112.986 180.099 112.96 182.69 114.246 184.964C115.533 187.238 118.029 191.316 118.426 193.399C118.426 193.399 115.974 187.319 113.702 189.13C111.43 190.941 115.622 194.657 117.478 196.004C119.334 197.351 120.563 205.631 120.563 205.631L121.536 205.307Z" fill="#F0F0F0"/>
<path d="M112.883 201.841H128.384L127.129 214.588H114.137L112.883 201.841Z" fill="#F0F0F0"/>
<path d="M92.9282 203.32C92.9282 203.32 91.0082 198.485 93.2034 193.715C95.3986 188.946 96.045 187.827 94.6434 186.856C93.2418 185.884 92.5954 190.668 92.5954 190.668C91.8993 188.505 91.8253 186.142 92.3842 183.926C93.3634 180.475 93.9778 174.859 92.6402 174.255C91.3026 173.652 92.3906 181.262 91.2322 183.823C90.6421 182.004 90.2613 180.104 90.0994 178.171C89.9394 175.404 90.189 170.98 89.133 169.847C88.077 168.713 87.405 169.493 88.4418 175.61C89.065 179.26 89.4098 182.967 89.4722 186.686C89.4722 186.686 87.181 178.671 85.6322 178.436C84.0834 178.2 84.0962 180.798 85.4082 183.051C86.7202 185.303 89.2482 189.336 89.6706 191.412C89.6706 191.412 87.1618 185.376 84.9026 187.224C82.6434 189.071 86.8674 192.722 88.7426 194.039C90.6178 195.357 91.9426 203.607 91.9426 203.607L92.9282 203.32Z" fill="#F0F0F0"/>
<path d="M91.4111 205.307C91.4111 205.307 93.2863 200.442 91.0335 195.739C88.7807 191.036 88.1343 189.903 89.5231 188.902C90.9119 187.901 91.6095 192.677 91.6095 192.677C92.2843 190.506 92.3336 188.142 91.7503 185.936C90.7327 182.506 90.0671 176.898 91.3919 176.272C92.7167 175.646 91.7183 183.271 92.9023 185.84C93.4727 184.01 93.8341 182.103 93.9775 180.165C94.1055 177.391 93.8111 172.975 94.8543 171.827C95.8975 170.678 96.5759 171.444 95.6095 177.575C95.0342 181.228 94.7365 184.932 94.7199 188.644C94.7199 188.644 96.9215 180.592 98.4575 180.335C99.9935 180.077 100.013 182.668 98.7199 184.942C97.4271 187.216 94.9439 191.294 94.5471 193.377C94.5471 193.377 96.9919 187.297 99.2703 189.108C101.549 190.918 97.3503 194.635 95.4943 195.982C93.6383 197.329 92.4095 205.609 92.4095 205.609L91.4111 205.307Z" fill="#F0F0F0"/>
<path d="M100.064 201.841H84.5634L85.8178 214.588H98.8098L100.064 201.841Z" fill="#F0F0F0"/>
<path d="M152.672 116.509L152.429 118.776L152.384 119.254L151.136 131.074H139.546L138.285 119.1L138.234 118.592L138.01 116.509H152.672Z" fill="#EBEBEB"/>
<path d="M137.562 107.64C138.043 107.821 138.481 108.131 138.838 108.544C139.195 108.957 139.462 109.462 139.616 110.017C139.94 110.92 140.48 111.697 141.173 112.26C141.867 112.823 142.685 113.148 143.533 113.197C144.095 113.23 144.636 113.447 145.094 113.822L145.587 114.154C145.587 113.955 145.549 113.749 145.542 113.535C145.4 113.414 145.263 113.284 145.133 113.145L145.043 113.042C143.501 111.342 143.456 109.546 141.658 107.934C139.859 106.323 137.562 107.64 137.562 107.64Z" fill="#EBEBEB"/>
<path d="M152.519 105.874C152.064 106.131 151.67 106.509 151.367 106.976C151.064 107.443 150.862 107.986 150.778 108.56C150.568 109.506 150.128 110.364 149.511 111.033C148.893 111.703 148.123 112.157 147.29 112.343C146.737 112.47 146.227 112.774 145.818 113.219L145.37 113.624C145.37 113.425 145.37 113.219 145.37 113.005C145.491 112.866 145.607 112.711 145.722 112.549L145.799 112.439C147.117 110.503 146.938 108.722 148.525 106.83C150.112 104.939 152.519 105.874 152.519 105.874Z" fill="#EBEBEB"/>
<path d="M145.818 113.219C145.861 114.341 145.759 115.465 145.517 116.553C144.646 120.424 145.037 116.612 145.037 116.612C145.279 115.641 145.391 114.633 145.37 113.624C145.37 113.425 145.37 113.219 145.37 113.005C145.316 112.235 145.179 111.476 144.96 110.746C144.051 107.706 142.221 106.764 141.498 103.504C140.774 100.243 143.277 97.9174 143.277 97.9174C143.215 98.6487 143.306 99.3862 143.541 100.069C143.775 100.753 144.148 101.362 144.627 101.848C145.366 102.735 145.871 103.844 146.084 105.048C146.297 106.251 146.209 107.5 145.83 108.648C145.408 109.612 145.677 110.856 145.83 112.439C145.792 112.689 145.805 112.947 145.818 113.219Z" fill="#EBEBEB"/>
<path d="M151.853 117.694C151.793 117.694 151.735 117.671 151.689 117.628C151.642 117.585 151.61 117.525 151.597 117.458L145.555 88.4526L139.52 117.458C139.503 117.535 139.461 117.602 139.403 117.645C139.345 117.687 139.274 117.702 139.206 117.686C139.139 117.666 139.081 117.616 139.044 117.548C139.007 117.479 138.994 117.397 139.008 117.318L145.28 87.091C145.3 87.0319 145.336 86.9812 145.381 86.9455C145.427 86.9097 145.481 86.8906 145.536 86.8906C145.591 86.8906 145.645 86.9097 145.691 86.9455C145.736 86.9812 145.772 87.0319 145.792 87.091L152.083 117.318C152.092 117.357 152.094 117.397 152.089 117.437C152.084 117.476 152.072 117.514 152.054 117.549C152.036 117.583 152.013 117.613 151.985 117.636C151.957 117.66 151.925 117.677 151.891 117.686L151.853 117.694Z" fill="#EBEBEB"/>
<path d="M145.555 119.666C145.485 119.666 145.419 119.635 145.369 119.578C145.32 119.521 145.293 119.445 145.293 119.365V68.426C145.293 68.346 145.32 68.2692 145.369 68.2127C145.419 68.1561 145.485 68.1243 145.555 68.1243C145.625 68.1243 145.691 68.1561 145.74 68.2127C145.79 68.2692 145.817 68.346 145.817 68.426V119.365C145.817 119.445 145.79 119.521 145.74 119.578C145.691 119.635 145.625 119.666 145.555 119.666Z" fill="#EBEBEB"/>
<path d="M71.0978 116.509L70.861 118.776L70.8098 119.254L69.5682 131.074H57.9714L56.7106 119.1L56.6594 118.592L56.4418 116.509H71.0978Z" fill="#EBEBEB"/>
<path d="M70.8611 107.191C70.5782 107.678 70.1984 108.08 69.7531 108.364C69.3079 108.649 68.8101 108.807 68.3011 108.825C67.4589 108.94 66.6624 109.327 66.0042 109.942C65.3459 110.557 64.853 111.374 64.5827 112.299C64.4032 112.916 64.0719 113.461 63.6291 113.867C63.5011 114.014 63.6291 114.117 63.5139 114.279C63.6867 114.279 63.5715 114.389 63.7571 114.433C63.896 114.31 64.0414 114.197 64.1923 114.095L64.3011 114.014C66.1443 112.77 67.6547 113.212 69.4979 111.651C71.3411 110.091 70.8611 107.191 70.8611 107.191Z" fill="#EBEBEB"/>
<path d="M56.6146 108.751C57.0709 109.009 57.4673 109.387 57.7712 109.856C58.075 110.324 58.2775 110.869 58.3618 111.445C58.5718 112.391 59.0112 113.249 59.6287 113.918C60.2462 114.588 61.0165 115.042 61.8498 115.228C62.4042 115.349 62.9159 115.653 63.3218 116.104L63.7698 116.509C63.7698 116.31 63.7698 116.097 63.7698 115.891C63.6482 115.743 63.533 115.596 63.4178 115.434L63.341 115.317C62.0226 113.381 62.1954 111.6 60.6146 109.708C59.0338 107.817 56.6146 108.751 56.6146 108.751Z" fill="#EBEBEB"/>
<path d="M63.3219 114.301C63.2786 115.423 63.38 116.547 63.6227 117.635C64.4867 121.506 64.1027 117.686 64.1027 117.686C63.861 116.718 63.7488 115.713 63.7699 114.706C63.7699 114.507 63.7699 114.293 63.7699 114.087C63.8234 113.318 63.9588 112.559 64.1731 111.828C65.0883 108.781 66.9187 107.846 67.6355 104.578C68.3523 101.31 65.8563 98.9994 65.8563 98.9994C65.9199 99.7291 65.8312 100.466 65.5974 101.148C65.3636 101.83 64.9916 102.439 64.5123 102.922C62.8291 104.799 62.5923 108.074 63.3091 109.723C63.7315 110.694 63.4627 111.931 63.3411 113.521C63.3603 113.771 63.3603 114.029 63.3219 114.301Z" fill="#EBEBEB"/>
<path d="M69.9712 117.694C69.9116 117.694 69.8538 117.671 69.8073 117.628C69.7607 117.585 69.7283 117.525 69.7152 117.458L63.6736 88.4526L57.632 117.458C57.6282 117.501 57.6165 117.543 57.5977 117.58C57.5788 117.617 57.5533 117.649 57.5227 117.674C57.4922 117.699 57.4573 117.716 57.4206 117.724C57.3838 117.732 57.346 117.731 57.3095 117.721C57.2731 117.711 57.239 117.692 57.2095 117.666C57.18 117.639 57.1557 117.606 57.1384 117.568C57.121 117.53 57.111 117.488 57.1089 117.445C57.1068 117.402 57.1128 117.359 57.1264 117.318L63.4176 87.091C63.4378 87.0319 63.4731 86.9812 63.5187 86.9455C63.5644 86.9097 63.6183 86.8906 63.6736 86.8906C63.7288 86.8906 63.7827 86.9097 63.8284 86.9455C63.8741 86.9812 63.9093 87.0319 63.9296 87.091L70.2272 117.318C70.241 117.397 70.2281 117.479 70.1913 117.548C70.1544 117.616 70.0963 117.666 70.0288 117.686L69.9712 117.694Z" fill="#EBEBEB"/>
<path d="M63.6739 119.666C63.6043 119.666 63.5375 119.635 63.4883 119.578C63.4391 119.521 63.4115 119.445 63.4115 119.365V68.426C63.4131 68.3466 63.4412 68.2709 63.4901 68.2147C63.539 68.1585 63.6048 68.1261 63.6739 68.1243C63.7434 68.1243 63.8102 68.1561 63.8594 68.2127C63.9086 68.2692 63.9363 68.346 63.9363 68.426V119.365C63.9363 119.445 63.9086 119.521 63.8594 119.578C63.8102 119.635 63.7434 119.666 63.6739 119.666Z" fill="#EBEBEB"/>
<path d="M111.77 116.509L111.533 118.776L111.482 119.254L110.24 131.074H98.6433L97.3825 119.1L97.3313 118.592L97.1137 116.509H111.77Z" fill="#EBEBEB"/>
<path d="M112 109.51C111.518 109.691 111.08 110.002 110.722 110.417C110.365 110.831 110.099 111.338 109.945 111.894C109.622 112.796 109.081 113.574 108.388 114.137C107.695 114.7 106.876 115.025 106.029 115.074C105.465 115.105 104.921 115.323 104.461 115.699L103.968 116.03C103.968 115.832 104.006 115.626 104.013 115.412C104.153 115.287 104.288 115.155 104.422 115.015L104.512 114.919C106.054 113.212 106.099 111.423 107.897 109.804C109.696 108.185 112 109.51 112 109.51Z" fill="#EBEBEB"/>
<path d="M97.1523 105.432C97.3689 105.959 97.6913 106.42 98.093 106.775C98.4947 107.131 98.9642 107.372 99.4627 107.478C100.282 107.734 101.022 108.252 101.596 108.973C102.169 109.693 102.552 110.587 102.701 111.548C102.799 112.187 103.055 112.779 103.437 113.256L103.783 113.778C103.61 113.778 103.783 114.514 103.616 114.551C103.404 114.129 103.149 113.739 102.855 113.388L102.759 113.293C101.095 111.754 99.5587 111.924 97.9267 110.076C96.2947 108.229 97.1523 105.432 97.1523 105.432Z" fill="#EBEBEB"/>
<path d="M103.475 113.219C103.435 114.342 103.538 115.465 103.783 116.553C104.647 120.424 104.263 116.612 104.263 116.612C104.016 115.642 103.902 114.634 103.923 113.624C103.923 113.425 103.923 113.219 103.955 113.005C104.003 112.235 104.139 111.476 104.359 110.746C105.267 107.706 107.098 106.764 107.821 103.504C108.544 100.243 106.042 97.9174 106.042 97.9174C106.103 98.6487 106.013 99.3862 105.778 100.069C105.543 100.753 105.171 101.362 104.691 101.848C103.952 102.734 103.446 103.844 103.234 105.048C103.022 106.252 103.113 107.501 103.495 108.648C103.911 109.612 103.648 110.856 103.495 112.439C103.501 112.689 103.488 112.947 103.475 113.219Z" fill="#EBEBEB"/>
<path d="M110.637 117.694C110.578 117.694 110.521 117.67 110.476 117.627C110.43 117.584 110.399 117.525 110.387 117.458L104.32 88.4526L98.2787 117.458C98.2619 117.535 98.22 117.602 98.1616 117.645C98.1032 117.687 98.0328 117.702 97.9651 117.686C97.8975 117.666 97.8394 117.616 97.8026 117.548C97.7657 117.479 97.7529 117.397 97.7667 117.318L104.064 87.091C104.085 87.0319 104.12 86.9812 104.165 86.9455C104.211 86.9097 104.265 86.8906 104.32 86.8906C104.376 86.8906 104.429 86.9097 104.475 86.9455C104.521 86.9812 104.556 87.0319 104.576 87.091L110.867 117.318C110.876 117.357 110.878 117.397 110.873 117.437C110.868 117.476 110.856 117.514 110.838 117.549C110.82 117.583 110.797 117.613 110.769 117.636C110.741 117.66 110.709 117.677 110.675 117.686L110.637 117.694Z" fill="#EBEBEB"/>
<path d="M104.32 119.666C104.25 119.666 104.183 119.635 104.134 119.578C104.085 119.521 104.057 119.445 104.057 119.365V68.426C104.057 68.346 104.085 68.2692 104.134 68.2127C104.183 68.1561 104.25 68.1243 104.32 68.1243C104.389 68.1261 104.455 68.1585 104.503 68.2147C104.552 68.2709 104.58 68.3466 104.582 68.426V119.365C104.582 119.445 104.554 119.521 104.505 119.578C104.456 119.635 104.389 119.666 104.32 119.666Z" fill="#EBEBEB"/>
<path d="M150.151 65.4672H59.0339V68.0947H150.151V65.4672Z" fill="#EBEBEB"/>
<path d="M197.165 81.0704L218.407 66.8582H234.771L256.359 80.3933V172.482H197.165V81.0704Z" fill="#91B2BB"/>
<path d="M256.973 172.482H197.165V81.0704L197.805 80.3932C205.671 71.6789 216.176 66.825 227.098 66.8582C238.011 66.8377 248.503 71.6965 256.359 80.408L256.999 81.0851L256.973 172.482ZM201.133 167.918H253.005V83.0281C245.924 75.5701 236.671 71.4333 227.069 71.4333C217.467 71.4333 208.214 75.5701 201.133 83.0281V167.918Z" fill="#FAFAFA"/>
<path d="M225.58 168.47H228.556V137.912H253.753V134.489H228.556V103.231H253.753V99.809H228.556V70.8326H225.58V99.809H200.384V103.231H225.58V134.489H200.384V137.912H225.58V168.47Z" fill="#F0F0F0"/>
<path d="M258.95 174.763H195.2V80.1357L195.776 79.4659C204.085 69.9328 215.344 64.5791 227.081 64.5791C238.819 64.5791 250.077 69.9328 258.387 79.4659L258.963 80.1357L258.95 174.763ZM199.148 170.2H254.988V82.0419C247.476 73.7627 237.473 69.1406 227.068 69.1406C216.663 69.1406 206.661 73.7627 199.148 82.0419V170.2Z" fill="#F0F0F0"/>
<path d="M160.001 297.204C228.533 297.204 284.09 293.474 284.09 288.873C284.09 284.271 228.533 280.541 160.001 280.541C91.4678 280.541 35.911 284.271 35.911 288.873C35.911 293.474 91.4678 297.204 160.001 297.204Z" fill="#F5F5F5"/>
<path d="M68.8194 258.564C68.8194 258.277 67.9874 230.154 64.0066 225.709C60.1666 221.396 55.6866 225.547 55.5202 225.709L55.1106 225.142C55.1618 225.091 60.1858 220.38 64.4546 225.142C68.6146 229.786 69.4274 257.328 69.4594 258.498L68.8194 258.564Z" fill="#263238"/>
<path d="M69.1658 264.091C69.1658 263.753 66.4458 230.316 77.0634 216.303L77.5498 216.789C67.105 230.552 69.761 263.672 69.7994 264.018L69.1658 264.091Z" fill="#263238"/>
<path d="M68.788 260.559L68.148 260.507C68.148 260.124 70.228 222.507 62.4456 214.272L62.8744 213.727C70.8872 222.198 68.8776 258.991 68.788 260.559Z" fill="#263238"/>
<path d="M69.8053 260.537H69.1653C69.1653 259.499 69.4213 235.115 75.4437 231.141C76.0168 230.715 76.6704 230.453 77.3497 230.377C78.029 230.302 78.7141 230.415 79.3477 230.707C82.9957 232.436 84.8004 239.899 84.8772 240.216L84.2372 240.407C84.2372 240.333 82.4389 232.981 79.0853 231.384C78.5412 231.138 77.9541 231.047 77.3729 231.116C76.7917 231.185 76.2333 231.413 75.7445 231.781C70.0549 235.535 69.8053 260.286 69.8053 260.537Z" fill="#263238"/>
<path d="M67.4563 260.551L66.8163 260.507C66.8163 260.316 67.7251 241.246 63.2515 234.534C62.1699 232.907 60.9923 232.134 59.7507 232.23C56.8195 232.466 54.3683 237.382 54.3427 237.448L53.7859 237.088C53.8947 236.867 56.4355 231.759 59.7059 231.494C61.1715 231.376 62.5411 232.23 63.7635 234.085C68.3779 241.018 67.4947 259.756 67.4563 260.551Z" fill="#263238"/>
<path d="M68.4226 263.149C68.301 261.295 65.4978 217.738 70.4322 210.062L70.9442 210.503C66.1506 217.959 69.0242 262.642 69.0626 263.09L68.4226 263.149Z" fill="#263238"/>
<path d="M80.6855 235.123C80.6855 235.123 77.7287 236.374 78.6055 239.34C79.4823 242.306 88.8455 247.178 88.8455 247.178C88.8455 247.178 92.7687 243.042 89.1655 236.322C85.5623 229.603 80.7687 233.003 80.6855 235.123Z" fill="#064E3B"/>
<path opacity="0.2" d="M80.6855 235.123C80.6855 235.123 77.7287 236.374 78.6055 239.34C79.4823 242.306 88.8455 247.178 88.8455 247.178C88.8455 247.178 92.7687 243.042 89.1655 236.322C85.5623 229.603 80.7687 233.003 80.6855 235.123Z" fill="white"/>
<path d="M67.8406 229.477C67.8406 229.477 70.9894 229.33 71.1686 232.421C71.3478 235.513 64.3398 244.197 64.3398 244.197C64.3398 244.197 59.3414 242.122 60.4166 234.32C61.4918 226.519 67.0342 227.556 67.8406 229.477Z" fill="#064E3B"/>
<path opacity="0.2" d="M67.8406 229.477C67.8406 229.477 70.9894 229.33 71.1686 232.421C71.3478 235.513 64.3398 244.197 64.3398 244.197C64.3398 244.197 59.3414 242.122 60.4166 234.32C61.4918 226.519 67.0342 227.556 67.8406 229.477Z" fill="white"/>
<path d="M65.1522 214.529C65.1522 214.529 67.2514 214.264 67.0722 212.792C66.893 211.32 58.8994 207.537 54.1826 213.661C54.1826 213.661 57.2034 219.63 61.5746 219.711C65.9458 219.792 65.1522 214.529 65.1522 214.529Z" fill="#064E3B"/>
<path opacity="0.2" d="M65.1522 214.529C65.1522 214.529 67.2514 214.264 67.0722 212.792C66.893 211.32 58.8994 207.537 54.1826 213.661C54.1826 213.661 57.2034 219.63 61.5746 219.711C65.9458 219.792 65.1522 214.529 65.1522 214.529Z" fill="white"/>
<path d="M69.0694 210.952C69.0694 210.952 67.1494 212.012 66.631 210.658C66.1126 209.304 71.111 201.222 77.9654 203.555C77.9654 203.555 78.151 210.459 74.4774 213.182C70.8038 215.906 69.0694 210.952 69.0694 210.952Z" fill="#064E3B"/>
<path opacity="0.2" d="M69.0694 210.952C69.0694 210.952 67.1494 212.012 66.631 210.658C66.1126 209.304 71.111 201.222 77.9654 203.555C77.9654 203.555 78.151 210.459 74.4774 213.182C70.8038 215.906 69.0694 210.952 69.0694 210.952Z" fill="white"/>
<path d="M59.1174 233.93C59.1174 233.93 60.5702 232.583 59.0022 231.928C57.4342 231.273 49.7606 231.457 49.6774 240.201C49.6774 240.201 58.6374 241.916 59.7318 238.582C60.8262 235.248 59.1174 233.93 59.1174 233.93Z" fill="#064E3B"/>
<path opacity="0.2" d="M59.1174 233.93C59.1174 233.93 60.5702 232.583 59.0022 231.928C57.4342 231.273 49.7606 231.457 49.6774 240.201C49.6774 240.201 58.6374 241.916 59.7318 238.582C60.8262 235.248 59.1174 233.93 59.1174 233.93Z" fill="white"/>
<path d="M77.3574 214.308C77.3574 214.308 75.9046 212.962 77.4726 212.307C79.0406 211.651 86.7206 211.836 86.7974 220.579C86.7974 220.579 77.8374 222.294 76.743 218.96C75.6486 215.626 77.3574 214.308 77.3574 214.308Z" fill="#064E3B"/>
<path opacity="0.2" d="M77.3574 214.308C77.3574 214.308 75.9046 212.962 77.4726 212.307C79.0406 211.651 86.7206 211.836 86.7974 220.579C86.7974 220.579 77.8374 222.294 76.743 218.96C75.6486 215.626 77.3574 214.308 77.3574 214.308Z" fill="white"/>
<path d="M72.628 221.352C72.628 221.352 72.5 219.718 73.652 220.358C74.804 220.999 78.772 225.967 74.6568 230.662C74.6568 230.662 69.0696 225.9 70.0744 223.427C71.0792 220.954 72.628 221.352 72.628 221.352Z" fill="#064E3B"/>
<path opacity="0.2" d="M72.628 221.352C72.628 221.352 72.5 219.718 73.652 220.358C74.804 220.999 78.772 225.967 74.6568 230.662C74.6568 230.662 69.0696 225.9 70.0744 223.427C71.0792 220.954 72.628 221.352 72.628 221.352Z" fill="white"/>
<path d="M57.8245 223.685C57.8245 223.685 58.6885 222.382 57.4213 222.213C56.1541 222.044 50.4581 223.796 51.7829 230.309C51.7829 230.309 58.7141 229.706 59.0149 226.997C59.3157 224.289 57.8245 223.685 57.8245 223.685Z" fill="#064E3B"/>
<path opacity="0.2" d="M57.8245 223.685C57.8245 223.685 58.6885 222.382 57.4213 222.213C56.1541 222.044 50.4581 223.796 51.7829 230.309C51.7829 230.309 58.7141 229.706 59.0149 226.997C59.3157 224.289 57.8245 223.685 57.8245 223.685Z" fill="white"/>
<path d="M81.2424 284.78H57.4536L54.8936 254.833H83.8088L81.2424 284.78Z" fill="#263238"/>
<path opacity="0.7" d="M81.2424 284.78H57.4536L54.8936 254.833H83.8088L81.2424 284.78Z" fill="white"/>
<path d="M85.0761 251.528H53.6201V258.137H85.0761V251.528Z" fill="#263238"/>
<path opacity="0.5" d="M85.0761 251.528H53.6201V258.137H85.0761V251.528Z" fill="white"/>
<path d="M179.562 176.57C180.112 178.726 180.643 180.986 181.226 183.194C181.808 185.402 182.365 187.61 182.96 189.766C183.555 191.923 184.182 194.065 184.88 195.971C185.053 196.442 185.226 196.898 185.398 197.303C185.571 197.708 185.744 198.076 185.84 198.252C185.936 198.429 185.91 198.378 185.795 198.252C185.462 197.987 185.827 198.252 185.949 198.37C186.237 198.613 186.691 198.907 187.082 199.187C188.739 200.335 190.518 201.483 192.285 202.617L197.622 206.054C201.202 208.336 204.758 210.688 208.291 213.112L206.525 217.528C202.612 215.988 198.747 214.332 194.928 212.56C193.008 211.684 191.088 210.742 189.2 209.822C187.312 208.902 185.405 207.894 183.44 206.79C182.941 206.488 182.48 206.238 181.91 205.848C181.509 205.609 181.129 205.322 180.778 204.994C180.381 204.613 180.018 204.186 179.696 203.721C179.249 203.081 178.842 202.405 178.48 201.697C178.154 201.064 177.84 200.468 177.61 199.872C176.647 197.609 175.792 195.287 175.05 192.916C173.587 188.372 172.346 183.738 171.331 179.035L179.562 176.57Z" fill="#FFF5EC"/>
<path d="M184.099 186.506L172.49 190.098L172.029 189.038L168.375 180.677L173.328 177.475L179.959 173.192C181.783 176.614 184.099 186.506 184.099 186.506Z" fill="#263238"/>
<path opacity="0.2" d="M172.029 189.038L168.375 180.677L173.328 177.475C173.776 179.514 174.698 185.196 172.029 189.038Z" fill="black"/>
<path d="M179.959 173.192C179.959 173.192 170.109 195.124 146.071 201.02L123.428 191.018C123.428 191.018 127.101 187.441 131.805 182.303C136.24 177.522 140.427 172.445 144.343 167.098C146.986 163.418 149.213 159.738 150.48 156.558C150.48 156.558 169.712 155.66 179.959 173.192Z" fill="#263238"/>
<path d="M172.489 185.056C172.489 185.056 171.734 186.41 170.32 188.42C167.177 192.887 160.771 200.578 152.195 203.758C139.753 208.358 132.694 201.02 132.694 201.02V190.51C142.435 191.982 151.651 182.73 155.094 178.734C156.009 177.681 156.515 177.004 156.515 177.004L159.952 178.734L169.622 183.613L172.489 185.056Z" fill="#064E3B"/>
<path opacity="0.2" d="M159.946 178.778C159.517 180.507 158.666 182.899 157.149 182.657C155.632 182.414 155.191 180.213 155.088 178.778C156.003 177.725 156.509 177.048 156.509 177.048L159.946 178.778Z" fill="black"/>
<path opacity="0.2" d="M153.239 191.018C153.239 191.018 158.237 193.836 162.295 194.859C163.626 193.726 164.547 192.85 164.547 192.85L153.571 188.346C149.603 193.248 144.861 195.154 145.021 196.442C145.181 197.73 150.813 200.122 154.013 199.997C155.786 199.923 158.839 197.745 161.2 195.816C159.031 195.323 155.101 194.101 153.239 191.018Z" fill="black"/>
<path d="M154.09 156.735C154.09 156.735 159.748 161.585 155.671 179.359C155.563 179.848 155.622 180.366 155.836 180.805C156.051 181.245 156.404 181.573 156.823 181.722C157.042 181.799 157.273 181.824 157.501 181.796C157.729 181.768 157.949 181.687 158.15 181.559C158.35 181.43 158.526 181.257 158.666 181.048C158.806 180.84 158.909 180.601 158.967 180.346C160.048 175.65 162.269 163.66 158.57 157.493L154.09 156.735Z" fill="#064E3B"/>
<path opacity="0.2" d="M158.48 179.595C158.491 179.744 158.475 179.894 158.433 180.035C158.39 180.177 158.323 180.307 158.235 180.417C158.147 180.527 158.04 180.615 157.921 180.675C157.802 180.735 157.673 180.766 157.543 180.766C157.413 180.766 157.284 180.735 157.165 180.675C157.046 180.615 156.939 180.527 156.851 180.417C156.763 180.307 156.695 180.177 156.653 180.035C156.611 179.894 156.595 179.744 156.605 179.595C156.625 179.324 156.732 179.072 156.906 178.888C157.079 178.704 157.307 178.602 157.543 178.602C157.779 178.602 158.006 178.704 158.18 178.888C158.354 179.072 158.461 179.324 158.48 179.595Z" fill="black"/>
<path opacity="0.2" d="M172.49 185.056C172.49 185.056 171.735 186.41 170.32 188.419C168.567 187.639 169.098 185.144 169.616 183.613L172.49 185.056Z" fill="black"/>
<path d="M169.565 185.762C171.306 182.892 175.555 174.892 174.742 166.391L176.464 168.253C176.464 168.253 179.139 176.695 171.139 187.183C170.997 187.365 170.808 187.491 170.6 187.542C170.393 187.594 170.176 187.568 169.981 187.47C169.847 187.401 169.728 187.298 169.632 187.17C169.536 187.042 169.465 186.891 169.426 186.728C169.386 186.565 169.378 186.394 169.402 186.228C169.426 186.061 169.482 185.902 169.565 185.762Z" fill="#064E3B"/>
<path opacity="0.2" d="M171.408 186.418C171.31 186.525 171.188 186.599 171.055 186.631C170.922 186.663 170.785 186.652 170.657 186.599C170.53 186.545 170.417 186.453 170.333 186.33C170.249 186.208 170.196 186.061 170.181 185.906C170.165 185.751 170.187 185.595 170.245 185.453C170.302 185.312 170.393 185.192 170.507 185.107C170.62 185.022 170.752 184.975 170.888 184.971C171.023 184.967 171.157 185.007 171.274 185.085C171.442 185.244 171.55 185.472 171.576 185.72C171.601 185.969 171.541 186.219 171.408 186.418Z" fill="black"/>
<path d="M99.139 267.289L124.157 266.244L119.606 276.806L94.4606 271.521L99.139 267.289Z" fill="#FFF5EC"/>
<path d="M101.885 266.781C102.313 267.348 96.0669 273.082 96.0669 273.082C96.0669 273.082 89.0845 272.633 84.8029 275.363C80.5213 278.094 80.5725 273.604 84.5085 269.475L94.2557 259.282C97.0589 256.367 97.4749 260.938 101.885 266.781Z" fill="#263238"/>
<path d="M99.7921 269.394C99.8195 269.387 99.848 269.387 99.8753 269.394C99.8962 269.387 99.9185 269.387 99.9393 269.394C99.9611 269.4 99.981 269.413 99.9969 269.431C100.02 269.453 100.037 269.481 100.048 269.512C100.087 269.615 100.835 271.72 100.336 272.92C100.264 273.107 100.156 273.273 100.021 273.407C99.8863 273.541 99.7271 273.638 99.5553 273.692C99.4184 273.77 99.2639 273.795 99.1135 273.766C98.9631 273.737 98.8244 273.655 98.7169 273.531C98.4545 273.155 98.5889 272.353 98.8385 271.558C98.4624 272.113 97.9593 272.536 97.3857 272.78C97.2707 272.811 97.1513 272.816 97.0348 272.793C96.9182 272.771 96.8068 272.721 96.7073 272.647C96.5663 272.57 96.4495 272.444 96.3728 272.287C96.2961 272.131 96.2632 271.95 96.2785 271.771C96.3271 271.48 96.4658 271.219 96.6689 271.035C97.6203 270.286 98.6768 269.731 99.7921 269.394ZM99.3441 270.071C98.1409 270.557 96.7841 271.315 96.6945 271.867C96.6945 271.919 96.6945 272.059 96.9377 272.265C96.989 272.304 97.0471 272.329 97.108 272.339C97.1688 272.35 97.2309 272.344 97.2897 272.323C97.5983 272.214 97.8779 272.016 98.1025 271.749C98.5649 271.229 98.9809 270.657 99.3441 270.042V270.071ZM99.9841 272.736C100.272 272 100.023 270.881 99.8433 270.219C99.2673 271.514 98.8449 272.927 99.0689 273.243C99.1393 273.347 99.3441 273.295 99.4593 273.243C99.5825 273.205 99.6963 273.134 99.7921 273.037C99.8632 272.949 99.9196 272.847 99.9585 272.736H99.9841Z" fill="#064E3B"/>
<path d="M104.624 274.105L109.789 259.51L125.808 261.202L123.933 278.337L104.624 274.105Z" fill="#064E3B"/>
<path opacity="0.2" d="M104.624 274.105L109.789 259.51L125.808 261.202L123.933 278.337L104.624 274.105Z" fill="black"/>
<path d="M86.6786 270.601L111.703 269.549L107.152 280.118L82.0066 274.833L86.6786 270.601Z" fill="#FFF5EC"/>
<path d="M89.4305 270.093C89.8593 270.653 83.6129 276.394 83.6129 276.394C83.6129 276.394 76.6305 275.945 72.3489 278.675C68.0673 281.406 68.1185 276.916 72.0545 272.787L81.8017 262.594C84.6049 259.672 85.0209 264.25 89.4305 270.093Z" fill="#263238"/>
<path d="M82.2629 276.202H82.3461C82.3673 276.198 82.389 276.198 82.4101 276.202C82.4297 276.213 82.4472 276.228 82.4613 276.246C82.4839 276.268 82.5015 276.296 82.5125 276.327C82.5509 276.438 83.2997 278.535 82.8005 279.735C82.7272 279.922 82.6194 280.089 82.4846 280.224C82.3498 280.358 82.1912 280.458 82.0197 280.515C81.8822 280.591 81.7273 280.616 81.5768 280.586C81.4264 280.555 81.2881 280.471 81.1813 280.346C80.9189 279.97 81.0533 279.176 81.3029 278.381C80.9267 278.934 80.4235 279.354 79.8501 279.595C79.7357 279.63 79.6163 279.636 79.4995 279.615C79.3827 279.593 79.271 279.544 79.1717 279.47C79.0307 279.392 78.9139 279.267 78.8372 279.11C78.7605 278.953 78.7276 278.773 78.7429 278.594C78.7942 278.304 78.9323 278.043 79.1333 277.858C80.0861 277.104 81.1448 276.543 82.2629 276.202ZM81.8149 276.879C80.6117 277.365 79.2549 278.123 79.1653 278.675C79.1653 278.727 79.1653 278.874 79.4085 279.08C79.4616 279.117 79.5208 279.142 79.5824 279.152C79.6441 279.162 79.7069 279.158 79.7669 279.139C80.0742 279.022 80.3528 278.823 80.5797 278.557C81.0418 278.05 81.4558 277.487 81.8149 276.879ZM82.4549 279.551C82.6464 278.717 82.597 277.833 82.3141 277.034C81.7445 278.329 81.3157 279.735 81.5397 280.059C81.6101 280.154 81.8149 280.103 81.9301 280.059C82.0538 280.018 82.1676 279.945 82.2629 279.845C82.3326 279.759 82.3889 279.659 82.4293 279.551H82.4549Z" fill="#064E3B"/>
<path d="M191.6 266.583C189.795 275.348 184.195 278.138 178.582 278.602C171.741 279.146 164.893 276.173 164.893 276.173C164.893 276.173 164.253 279.161 152.195 280.589C135.011 282.642 98.1985 280.868 98.1985 280.868L101.142 268.224L136.982 259.826C136.982 259.826 110.141 232.925 111.939 210.124C112.579 201.947 124.739 187.507 124.944 186.889L155.485 197.708L152.189 203.758C152.189 203.758 195.459 247.962 191.6 266.583Z" fill="#064E3B"/>
<path opacity="0.2" d="M178.582 278.602C171.741 279.146 164.893 276.173 164.893 276.173C164.893 276.173 168.093 271.367 167.203 263.072C166.352 254.902 144.266 215.637 143.626 214.496C144.579 215.512 174.986 247.962 179.056 264.176C180.605 270.329 179.978 275.076 178.582 278.602Z" fill="black"/>
<path d="M173.034 165.589C172.394 167.363 173.072 168.231 173.072 168.231C172.932 168.805 172.679 169.334 172.333 169.778C171.987 170.222 171.557 170.57 171.077 170.793C170.596 171.017 170.077 171.111 169.56 171.069C169.043 171.027 168.541 170.849 168.093 170.549C163.53 167.451 164.675 160.025 164.675 160.025C168.797 160.282 171.351 156.278 172.547 153.732C172.868 153.07 173.144 152.381 173.373 151.671L177.987 159.833C177.016 160.591 176.092 161.428 175.223 162.336C174.31 163.24 173.566 164.346 173.034 165.589Z" fill="#FFF5EC"/>
<path opacity="0.2" d="M177.987 159.833C177.016 160.591 176.092 161.428 175.223 162.336C174.31 163.24 173.566 164.346 173.034 165.589C169.405 163.55 172.547 153.813 172.547 153.813V153.754C172.868 153.092 173.144 152.403 173.373 151.693L177.987 159.833Z" fill="black"/>
<path d="M181.142 133.573C181.142 133.573 185.622 124.741 180.47 121.061C178.963 119.996 177.247 119.384 175.48 119.281C173.713 119.178 171.952 119.588 170.358 120.472C170.358 120.472 169.206 117.447 164.816 119.258C160.426 121.068 158.25 125.506 161.066 130.585C161.066 130.585 158.576 132.417 158.576 135.369C158.576 138.32 162.096 142.618 159.402 143.126C159.402 143.126 162.602 143.597 161.2 139.336C161.2 139.336 164.016 140.808 162.608 144.436C161.2 148.065 164.016 148.514 164.016 148.514C164.016 148.514 161.456 146.129 164.016 144.436C166.576 142.743 169.552 141.117 169.61 136.546C169.61 135.074 172.995 137.643 174.64 137.194C176.978 136.443 179.18 135.217 181.142 133.573Z" fill="#263238"/>
<path d="M183.702 135.759C190.64 138.136 191.767 143.178 190.147 151.575C188.119 162.078 184.24 168.702 176.131 163.528C165.143 156.506 172.182 131.806 183.702 135.759Z" fill="#FFF5EC"/>
<path d="M185.801 149.596C186.048 150.978 186.437 152.322 186.96 153.599C186.671 153.857 186.326 154.019 185.963 154.067C185.599 154.115 185.231 154.048 184.899 153.872L185.801 149.596Z" fill="#B7AFA8"/>
<path d="M181.718 147.483C181.565 148.146 181.123 148.58 180.745 148.462C180.368 148.344 180.176 147.726 180.336 147.049C180.496 146.372 180.925 145.952 181.309 146.07C181.693 146.188 181.878 146.821 181.718 147.483Z" fill="#263238"/>
<path d="M181.143 146.055L182.525 145.879C182.525 145.879 181.616 146.894 181.143 146.055Z" fill="#263238"/>
<path d="M188.893 149.588C188.733 150.243 188.298 150.685 187.914 150.567C187.53 150.449 187.351 149.831 187.504 149.154C187.658 148.477 188.099 148.05 188.483 148.175C188.867 148.3 189.047 148.926 188.893 149.588Z" fill="#263238"/>
<path d="M188.31 148.153L189.693 147.984C189.693 147.984 188.822 148.999 188.31 148.153Z" fill="#263238"/>
<path d="M179.754 142.5C179.704 142.501 179.655 142.487 179.612 142.46C179.568 142.433 179.531 142.394 179.504 142.346C179.481 142.308 179.464 142.265 179.456 142.219C179.447 142.174 179.446 142.127 179.453 142.081C179.46 142.035 179.475 141.991 179.497 141.952C179.519 141.913 179.548 141.879 179.581 141.853C181.136 140.602 183.114 141.558 183.197 141.603C183.234 141.62 183.268 141.646 183.297 141.679C183.325 141.712 183.348 141.752 183.363 141.795C183.378 141.838 183.385 141.885 183.384 141.931C183.383 141.978 183.374 142.024 183.357 142.066C183.341 142.109 183.319 142.148 183.29 142.181C183.261 142.214 183.227 142.24 183.189 142.257C183.152 142.274 183.111 142.282 183.071 142.281C183.03 142.28 182.99 142.27 182.954 142.25C182.954 142.25 181.206 141.411 179.933 142.434C179.88 142.477 179.818 142.5 179.754 142.5Z" fill="#263238"/>
<path d="M190.787 145.334C190.741 145.334 190.695 145.322 190.652 145.299C190.61 145.276 190.573 145.243 190.544 145.202C190.284 144.762 189.941 144.394 189.541 144.127C189.142 143.859 188.695 143.698 188.233 143.656C188.152 143.656 188.075 143.62 188.016 143.556C187.958 143.491 187.923 143.403 187.92 143.31C187.918 143.218 187.948 143.128 188.003 143.061C188.058 142.993 188.134 142.953 188.214 142.949C188.773 142.984 189.317 143.166 189.805 143.479C190.293 143.793 190.712 144.231 191.03 144.76C191.08 144.835 191.103 144.929 191.093 145.022C191.084 145.116 191.043 145.201 190.979 145.26C190.924 145.31 190.857 145.336 190.787 145.334Z" fill="#263238"/>
<path d="M172.65 146.615C172.65 146.615 177.597 141.168 178.41 135.935C178.41 135.935 193.84 134.184 190.359 150.471C190.359 150.471 195.402 136.679 183.549 132.27C171.696 127.861 166.544 147.962 171.159 156.05C171.165 156.05 169.584 150.03 172.65 146.615Z" fill="#263238"/>
<path d="M184.893 156.587C184.23 157.541 183.627 158.547 183.088 159.598C182.915 159.524 182.742 159.451 182.569 159.362C180.208 158.28 179.427 156.882 179.273 155.682C179.207 155.085 179.271 154.478 179.459 153.916C179.557 153.597 179.693 153.295 179.862 153.018C180.816 154.446 182.947 155.653 184.112 156.242C184.579 156.455 184.893 156.587 184.893 156.587Z" fill="#263238"/>
<path d="M184.099 156.205L183.542 157.081C181.328 156.05 179.881 154.983 179.459 153.894C179.559 153.583 179.695 153.288 179.862 153.018C180.803 154.409 182.934 155.616 184.099 156.205Z" fill="white"/>
<path d="M182.57 159.362C180.208 158.28 179.428 156.882 179.274 155.682C180.166 156.112 180.983 156.723 181.687 157.485C182.141 157.993 182.449 158.647 182.57 159.362Z" fill="#DE5753"/>
<path d="M169.489 150.331C169.533 151.303 174.161 128.803 189.002 136.097L186.538 132.108C181.463 128.848 168.65 130.761 169.489 150.331Z" fill="#064E3B"/>
<path d="M173.348 148.683C173.513 147.738 173.35 146.756 172.893 145.948C172.436 145.14 171.721 144.571 170.903 144.363C168.682 143.899 166.34 148.624 171.376 151.678C172.093 152.113 172.752 151.399 173.348 148.683Z" fill="#FFF5EC"/>
<path opacity="0.2" d="M149.143 205.517C150.241 205.142 151.272 204.546 152.189 203.758C151.21 203.949 150.269 204.074 149.309 204.162C149.379 204.387 149.4 204.627 149.371 204.863C149.342 205.099 149.264 205.323 149.143 205.517Z" fill="black"/>
<path opacity="0.2" d="M133.783 201.086C129.227 198.778 125.144 195.393 121.802 191.15L119.843 193.888C119.843 193.888 123.357 199.842 131.715 203.706C132.6 203.066 133.315 202.16 133.783 201.086Z" fill="black"/>
<path opacity="0.2" d="M148.394 204.236C143.992 204.509 139.59 203.714 135.472 201.903C134.809 202.829 134.046 203.652 133.2 204.354C134.019 204.685 134.877 204.994 135.76 205.274C140.675 206.797 144.413 206.709 147.075 206.128C147.411 205.958 147.707 205.697 147.936 205.368C148.166 205.038 148.323 204.65 148.394 204.236Z" fill="black"/>
<path d="M172.905 218.816L169.129 220.539L162.435 199.003L160.95 200.019L167.741 221.171L163.152 223.269C163.152 223.269 166.077 231.873 172.905 234.898C172.905 234.898 176.758 229.613 172.905 218.816Z" fill="#263238"/>
<path opacity="0.2" d="M172.905 218.816L169.129 220.539L162.435 199.003L160.95 200.019L167.741 221.171L163.152 223.269C163.152 223.269 166.077 231.873 172.905 234.898C172.905 234.898 176.758 229.613 172.905 218.816Z" fill="white"/>
<path d="M160.88 199.092L162.09 198.554C162.17 198.519 162.255 198.503 162.34 198.506C162.426 198.509 162.509 198.532 162.587 198.573C162.665 198.615 162.734 198.673 162.792 198.746C162.849 198.818 162.894 198.903 162.922 198.996L167.184 213.053C167.212 213.146 167.224 213.244 167.218 213.342C167.213 213.44 167.19 213.536 167.152 213.624C167.114 213.711 167.061 213.79 166.996 213.853C166.931 213.917 166.856 213.966 166.775 213.996L165.834 214.341C165.677 214.401 165.506 214.388 165.357 214.306C165.208 214.224 165.092 214.078 165.034 213.9L160.509 200.041C160.479 199.951 160.465 199.854 160.468 199.758C160.47 199.661 160.489 199.566 160.524 199.478C160.558 199.39 160.608 199.31 160.669 199.244C160.73 199.178 160.802 199.126 160.88 199.092Z" fill="#064E3B"/>
<path opacity="0.2" d="M160.88 199.092L162.09 198.554C162.17 198.519 162.255 198.503 162.34 198.506C162.426 198.509 162.509 198.532 162.587 198.573C162.665 198.615 162.734 198.673 162.792 198.746C162.849 198.818 162.894 198.903 162.922 198.996L167.184 213.053C167.212 213.146 167.224 213.244 167.218 213.342C167.213 213.44 167.19 213.536 167.152 213.624C167.114 213.711 167.061 213.79 166.996 213.853C166.931 213.917 166.856 213.966 166.775 213.996L165.834 214.341C165.677 214.401 165.506 214.388 165.357 214.306C165.208 214.224 165.092 214.078 165.034 213.9L160.509 200.041C160.479 199.951 160.465 199.854 160.468 199.758C160.47 199.661 160.489 199.566 160.524 199.478C160.558 199.39 160.608 199.31 160.669 199.244C160.73 199.178 160.802 199.126 160.88 199.092Z" fill="black"/>
<path d="M210.698 211.986C209.384 211.434 208.001 211.13 206.602 211.088L203.965 208.321L201.54 216.873L206.941 218.301L211.76 221.539L217.879 221.753L218.052 213.657L210.698 211.986Z" fill="#064E3B"/>
<path opacity="0.6" d="M210.698 211.986C209.384 211.434 208.001 211.13 206.602 211.088L203.965 208.321L201.54 216.873L206.941 218.301L211.76 221.539L217.879 221.753L218.052 213.657L210.698 211.986Z" fill="white"/>
<path d="M222.205 206.628C221.953 206.773 221.674 206.849 221.392 206.849C221.11 206.849 220.832 206.773 220.579 206.628C220.023 206.371 219.299 206.753 219.069 205.892C219.006 205.684 219.001 205.458 219.054 205.246C219.107 205.034 219.215 204.846 219.363 204.707L219.459 204.619C219.459 204.619 219.459 204.155 220.023 204.067C220.586 203.979 220.842 204.369 221.239 204.619C221.635 204.869 222.474 204.737 222.979 205.671C223.049 205.792 223.103 205.923 223.139 206.061C223.223 206.525 222.64 206.348 222.205 206.628Z" fill="#064E3B"/>
<path opacity="0.2" d="M223.139 206.083C221.905 205.726 220.687 205.296 219.491 204.795L219.363 204.729L219.459 204.641C219.459 204.641 219.459 204.177 220.023 204.089C220.586 204.001 220.842 204.391 221.239 204.641C221.635 204.891 222.474 204.759 222.979 205.693C223.049 205.814 223.103 205.945 223.139 206.083Z" fill="black"/>
<path d="M223.555 201.837C222.924 202.024 222.308 202.27 221.712 202.573C221.021 203.036 220.598 204.008 219.869 203.839C219.139 203.669 218.115 203.397 218.845 201.837C218.845 201.837 218.845 201.8 218.845 201.778C218.845 201.756 218 202.021 217.565 201.513C217.461 201.36 217.388 201.183 217.35 200.994C217.312 200.805 217.311 200.609 217.347 200.42C217.382 200.23 217.453 200.052 217.555 199.897C217.657 199.743 217.787 199.616 217.936 199.526C218.627 199.15 218.659 199.658 219.325 199.187C219.99 198.716 220.426 199.106 221.347 199.187C222.005 199.292 222.667 199.351 223.331 199.364C223.952 199.443 224.529 199.768 224.963 200.284C225 200.317 225.032 200.357 225.059 200.402C225.302 200.711 223.958 201.594 223.555 201.837Z" fill="#064E3B"/>
<path opacity="0.2" d="M225.001 200.284C222.859 200.062 220.71 200.604 218.845 201.837C218.845 201.837 218.845 201.8 218.845 201.778C218.845 201.756 218 202.021 217.565 201.513C217.461 201.36 217.388 201.183 217.35 200.994C217.312 200.805 217.311 200.609 217.347 200.42C217.382 200.23 217.453 200.052 217.555 199.897C217.657 199.743 217.787 199.616 217.936 199.526C218.627 199.15 218.659 199.658 219.325 199.187C219.99 198.716 220.426 199.106 221.347 199.187C222.005 199.292 222.667 199.351 223.331 199.364C223.965 199.433 224.557 199.759 225.001 200.284Z" fill="white"/>
<path d="M218.794 185.343C218.467 186.256 219.722 187.551 217.239 189.023C215.92 189.796 215.319 187.551 215.319 187.551H215.159C213.962 187.72 213.354 187.448 213.354 185.976C213.354 184.504 213.629 183.267 214.787 182.554C215.579 182.012 216.315 181.37 216.983 180.64C217.725 180.141 218.583 179.918 219.44 180C219.542 180.009 219.643 180.031 219.741 180.066C220.189 180.257 219.453 181.538 219.741 182.554C220.029 183.569 219.12 184.423 218.794 185.343Z" fill="#064E3B"/>
<path opacity="0.2" d="M218.794 185.343C218.467 186.256 219.722 187.551 217.239 189.023C215.92 189.796 215.319 187.551 215.319 187.551H215.159C215.722 185.807 217.213 181.722 219.44 180C219.542 180.009 219.643 180.031 219.741 180.066C220.189 180.257 219.453 181.538 219.741 182.554C220.029 183.569 219.12 184.423 218.794 185.343Z" fill="black"/>
<path d="M223.869 190.466C223.261 191.135 223.229 191.82 222.269 192.364C221.309 192.909 220.285 194.241 219.177 194.307C218.07 194.374 217.174 194.116 217.257 193.292C217.341 192.467 218.23 191.658 218.454 191.444L218.505 191.4C217.27 191.327 217.225 191.349 217.225 190.186C217.225 189.023 219.229 188.28 219.856 188.603C220.483 188.927 221.693 187.588 222.192 187.809C222.565 187.972 222.954 188.083 223.35 188.14C223.625 188.192 223.903 188.219 224.182 188.221C224.912 188.221 224.477 189.818 223.869 190.466Z" fill="#064E3B"/>
<path opacity="0.2" d="M223.382 188.14C222.071 189.793 220.351 190.947 218.454 191.444L218.505 191.4C217.27 191.327 217.225 191.349 217.225 190.186C217.225 189.023 219.229 188.28 219.856 188.603C220.483 188.927 221.693 187.588 222.192 187.809C222.575 187.974 222.975 188.086 223.382 188.14Z" fill="black"/>
<path d="M211.76 189.553C211.268 190.37 209.693 190.289 208.637 189.222L208.4 188.949C208.4 188.949 208.49 192.151 207.421 192.026C206.352 191.901 205.239 190.885 204.189 189.553C203.14 188.221 203.748 187.463 203.472 186.013C203.197 184.563 202.589 184.732 202.532 182.59C202.426 180.84 202.644 179.084 203.172 177.438C203.238 177.171 203.348 176.921 203.498 176.702C203.844 176.253 204.17 176.945 205.066 176.982C206.224 177.026 207.325 177.755 208.65 179.278C209.975 180.802 210.519 183.974 211.76 184.732C213.002 185.49 212.285 188.662 211.76 189.553Z" fill="#064E3B"/>
<path opacity="0.2" d="M211.76 189.553C211.267 190.37 209.693 190.289 208.637 189.222C207.453 184.202 204.503 178.528 203.517 176.71C203.863 176.261 204.189 176.953 205.085 176.989C206.243 177.034 207.344 177.762 208.669 179.286C209.994 180.809 210.538 183.981 211.779 184.74C213.021 185.498 212.285 188.662 211.76 189.553Z" fill="white"/>
<path d="M206.775 196.538C206.167 197.274 205.009 196.714 204.183 196.538C203.357 196.361 200.157 196.14 199.389 195.515C198.621 194.889 196.785 193.932 196.727 193.196C196.722 193.105 196.747 193.016 196.797 192.946C197.29 192.21 199.94 190.627 201.354 190.502C202.769 190.377 203.357 190.502 205.29 191.643C206.98 192.644 206.57 193.91 206.071 193.976C206.002 194.001 205.928 194.001 205.86 193.976C205.86 193.976 207.383 195.831 206.775 196.538Z" fill="#064E3B"/>
<path opacity="0.2" d="M206.102 193.976C200.777 191.621 197.929 192.504 196.758 193.196C196.753 193.105 196.778 193.016 196.829 192.946C197.321 192.21 199.971 190.627 201.385 190.502C202.8 190.377 203.389 190.502 205.321 191.643C206.979 192.644 206.582 193.91 206.102 193.976Z" fill="black"/>
<path d="M210.007 195.625C209.651 193.362 209.155 191.131 208.522 188.949C207.899 186.774 207.148 184.649 206.275 182.59C207.06 184.689 207.723 186.845 208.259 189.045C208.795 191.235 209.195 193.466 209.456 195.721C209.456 195.875 209.488 196.022 209.507 196.177C209.027 195.794 208.541 195.441 208.042 195.088C207.355 194.623 206.648 194.198 205.923 193.814C204.486 193.023 202.94 192.525 201.354 192.342C202.922 192.609 204.438 193.187 205.834 194.05C207.171 194.854 208.436 195.808 209.61 196.898C209.788 198.753 209.88 200.618 209.885 202.484C209.902 204.733 209.75 206.979 209.431 209.197L210.531 209.425C210.772 207.115 210.834 204.785 210.717 202.462C210.621 200.167 210.383 197.882 210.007 195.625Z" fill="#263238"/>
<path d="M217.622 202.904C218.283 202.373 218.986 201.914 219.722 201.535C220.234 201.233 220.784 201.042 221.322 200.799C221.859 200.556 222.435 200.431 222.992 200.247C222.422 200.379 221.846 200.475 221.283 200.644C219.573 201.137 217.946 201.956 216.47 203.066C215.481 203.824 214.578 204.722 213.782 205.738C213.24 206.422 212.751 207.161 212.323 207.946C212.27 206.294 212.3 204.64 212.413 202.992C212.561 200.725 212.835 198.471 213.232 196.243C213.43 195.205 213.642 194.168 213.872 193.137C215.323 192.71 216.754 192.22 218.166 191.665C218.896 191.371 219.613 191.047 220.317 190.686C221.03 190.344 221.692 189.877 222.282 189.303C221.672 189.841 220.994 190.268 220.272 190.569C219.562 190.892 218.832 191.172 218.102 191.43C216.752 191.886 215.376 192.276 214 192.615C214.237 191.621 214.486 190.627 214.787 189.671C215.075 188.574 215.459 187.522 215.805 186.447C216.15 185.372 216.586 184.342 216.976 183.29C216.547 184.32 216.08 185.336 215.696 186.388C215.312 187.441 214.883 188.478 214.55 189.56C213.826 191.708 213.213 193.902 212.714 196.133C212.219 198.37 211.849 200.642 211.606 202.933C211.34 205.246 211.256 207.581 211.357 209.911L212.464 209.763C212.464 209.683 212.464 209.594 212.464 209.513L212.816 209.66C213.228 208.481 213.784 207.376 214.467 206.378C215.156 205.344 215.956 204.414 216.848 203.611L217.341 203.198C218.02 203.834 218.761 204.377 219.549 204.818C220.396 205.31 221.317 205.615 222.262 205.715C221.337 205.54 220.449 205.165 219.645 204.611C218.918 204.129 218.24 203.556 217.622 202.904Z" fill="#263238"/>
<g opacity="0.2">
<path d="M210.006 195.625C209.65 193.362 209.154 191.131 208.522 188.949C207.899 186.774 207.148 184.649 206.275 182.59C207.06 184.689 207.723 186.845 208.259 189.045C208.795 191.235 209.195 193.466 209.456 195.721C209.456 195.875 209.488 196.022 209.507 196.177C209.027 195.794 208.541 195.441 208.042 195.088C207.354 194.623 206.647 194.198 205.923 193.814C204.485 193.023 202.939 192.525 201.354 192.342C202.922 192.609 204.437 193.187 205.834 194.05C207.171 194.854 208.436 195.808 209.61 196.898C209.788 198.753 209.879 200.618 209.885 202.484C209.902 204.733 209.75 206.979 209.43 209.197L210.531 209.425C210.771 207.115 210.833 204.785 210.717 202.462C210.621 200.167 210.383 197.882 210.006 195.625Z" fill="white"/>
<path d="M217.622 202.904C218.283 202.373 218.986 201.914 219.721 201.535C220.233 201.233 220.784 201.042 221.321 200.799C221.859 200.556 222.435 200.431 222.992 200.247C222.422 200.379 221.846 200.475 221.283 200.644C219.573 201.137 217.946 201.956 216.47 203.066C215.481 203.824 214.578 204.722 213.782 205.738C213.239 206.422 212.751 207.161 212.323 207.946C212.27 206.294 212.3 204.64 212.413 202.992C212.561 200.725 212.835 198.471 213.232 196.243C213.43 195.205 213.641 194.168 213.872 193.137C215.322 192.71 216.754 192.22 218.166 191.665C218.896 191.371 219.613 191.047 220.317 190.686C221.029 190.344 221.692 189.877 222.281 189.303C221.672 189.841 220.994 190.268 220.272 190.569C219.561 190.892 218.832 191.172 218.102 191.43C216.752 191.886 215.376 192.276 214 192.615C214.237 191.621 214.486 190.627 214.787 189.671C215.075 188.574 215.459 187.522 215.805 186.447C216.15 185.372 216.585 184.342 216.976 183.29C216.547 184.32 216.08 185.336 215.696 186.388C215.312 187.441 214.883 188.478 214.55 189.56C213.826 191.708 213.212 193.902 212.713 196.133C212.219 198.37 211.849 200.642 211.606 202.933C211.34 205.246 211.256 207.581 211.357 209.911L212.464 209.763C212.464 209.683 212.464 209.594 212.464 209.513L212.816 209.66C213.227 208.481 213.783 207.376 214.467 206.378C215.156 205.344 215.956 204.414 216.848 203.611L217.341 203.198C218.02 203.834 218.761 204.377 219.549 204.818C220.396 205.31 221.317 205.615 222.262 205.715C221.337 205.54 220.449 205.165 219.645 204.611C218.918 204.129 218.24 203.556 217.622 202.904Z" fill="white"/>
</g>
<path d="M204.502 213.311C204.682 211.736 206.499 210.367 206.39 209.329C206.393 209.082 206.454 208.839 206.567 208.628C206.68 208.417 206.84 208.245 207.03 208.13C207.254 207.953 207.933 207.394 208.176 207.452C208.28 207.498 208.391 207.523 208.502 207.526C208.746 207.482 208.848 207.107 209.085 207.026L209.245 206.989C209.315 206.969 209.379 206.928 209.429 206.87C209.48 206.811 209.516 206.738 209.533 206.658C209.533 206.547 209.533 206.429 209.603 206.341C209.652 206.287 209.708 206.242 209.77 206.209C209.883 206.101 209.976 205.968 210.045 205.819C210.115 205.701 210.442 205.406 210.595 205.451C210.639 205.466 210.677 205.497 210.704 205.539C210.891 205.732 211.017 205.991 211.062 206.275C211.062 206.429 211.062 206.606 211.12 206.731C211.178 206.856 211.562 206.849 211.677 207.055C211.717 207.161 211.747 207.272 211.766 207.386C211.862 207.636 212.182 207.71 212.234 207.982C212.304 208.372 212.298 208.409 212.656 208.24C212.867 208.137 213.046 207.96 213.258 207.85C213.357 207.786 213.468 207.747 213.581 207.737C213.695 207.727 213.809 207.746 213.916 207.792C214.023 207.838 214.12 207.911 214.199 208.005C214.279 208.099 214.34 208.212 214.378 208.336C215.018 209.602 214.557 210.183 215.216 211.096C215.875 212.008 216.445 212.479 216.438 213.304C216.432 214.128 215.766 217.315 215.434 217.565C215.101 217.815 214.666 217.491 213.565 218.301C212.464 219.111 213.053 219.861 211.766 219.861C210.48 219.861 210.154 219.714 209.846 219.861C209.539 220.009 209.629 221.414 208.304 219.861C206.979 218.308 204.182 216.27 204.502 213.311Z" fill="#263238"/>
<path d="M214.621 216.719C214.72 217.04 214.758 217.382 214.73 217.722C214.702 218.061 214.61 218.389 214.461 218.684C214.346 218.963 214.186 219.221 214.077 219.42C213.969 219.644 213.937 219.906 213.987 220.156C214.004 220.291 214.039 220.423 214.09 220.546C214.161 220.683 214.212 220.832 214.243 220.988C214.24 221.129 214.255 221.271 214.288 221.407C214.288 221.466 214.339 221.532 214.365 221.62C214.375 221.669 214.375 221.72 214.365 221.768C214.355 221.817 214.335 221.862 214.307 221.9C214.205 222.04 214.115 222.091 214.064 222.224C214.008 222.353 213.965 222.489 213.936 222.629C213.873 222.913 213.832 223.204 213.815 223.497C213.806 223.202 213.823 222.906 213.866 222.614C213.885 222.463 213.919 222.315 213.968 222.172C214.007 222.025 214.141 221.9 214.192 221.812C214.243 221.723 214.192 221.635 214.128 221.481C214.075 221.339 214.044 221.186 214.039 221.032C213.997 220.906 213.941 220.787 213.872 220.678C213.804 220.537 213.752 220.386 213.719 220.229C213.639 219.907 213.661 219.563 213.783 219.258C213.898 218.956 214.019 218.713 214.109 218.456C214.199 218.21 214.251 217.949 214.263 217.683C214.277 217.445 214.24 217.208 214.154 216.991L214.621 216.719Z" fill="#263238"/>
<path d="M211.453 218.353C211.361 218.908 211.417 219.483 211.613 220.001C211.71 220.137 211.79 220.288 211.85 220.45C211.885 220.656 211.851 220.869 211.754 221.046C211.695 221.156 211.658 221.279 211.645 221.407C211.648 221.549 211.665 221.689 211.696 221.826C211.766 222.444 211.809 223.066 211.824 223.689C211.824 223.99 211.952 224.277 211.99 224.594C212.022 224.747 212.019 224.907 211.982 225.059C211.945 225.211 211.875 225.35 211.779 225.462C211.865 225.346 211.923 225.207 211.949 225.057C211.975 224.908 211.967 224.754 211.926 224.609C211.862 224.314 211.741 224.027 211.683 223.718C211.627 223.107 211.542 222.5 211.427 221.9C211.379 221.74 211.347 221.575 211.331 221.407C211.33 221.225 211.367 221.046 211.44 220.884C211.549 220.568 211.498 220.605 211.267 220.274C210.972 219.683 210.842 219.002 210.896 218.323L211.453 218.353Z" fill="#263238"/>
<path d="M208.932 217.683L208.765 219.155C208.742 219.234 208.742 219.319 208.765 219.398C208.797 219.493 208.861 219.589 208.913 219.729C208.952 219.81 208.972 219.901 208.972 219.994C208.972 220.087 208.952 220.178 208.913 220.259C208.836 220.378 208.738 220.475 208.625 220.546C208.547 220.582 208.485 220.651 208.452 220.739C208.418 220.827 208.416 220.927 208.445 221.017C208.529 221.255 208.596 221.502 208.644 221.753C208.628 221.998 208.628 222.244 208.644 222.489C208.665 222.606 208.71 222.717 208.774 222.811C208.838 222.906 208.921 222.982 209.015 223.034C208.912 222.991 208.818 222.921 208.742 222.831C208.665 222.74 208.608 222.631 208.573 222.511C208.541 222.267 208.524 222.021 208.522 221.775C208.451 221.55 208.366 221.331 208.266 221.12C208.227 220.976 208.227 220.822 208.266 220.678C208.31 220.533 208.393 220.406 208.503 220.318C208.574 220.261 208.636 220.191 208.689 220.112C208.696 220.081 208.697 220.05 208.692 220.019C208.686 219.988 208.674 219.959 208.657 219.935L208.484 219.641C208.408 219.499 208.37 219.336 208.375 219.17V217.698L208.932 217.683Z" fill="#263238"/>
<path d="M206.839 217.05C206.801 217.05 206.692 217.05 206.609 217.219C206.523 217.383 206.478 217.572 206.481 217.764C206.471 217.971 206.497 218.179 206.557 218.375C206.65 218.607 206.707 218.856 206.724 219.111V219.258H206.602C206.514 219.272 206.429 219.306 206.353 219.36C206.276 219.414 206.211 219.485 206.16 219.57C206.11 219.654 206.075 219.75 206.059 219.851C206.042 219.952 206.044 220.056 206.065 220.156C206.16 220.375 206.244 220.601 206.314 220.833C206.378 221.071 206.411 221.319 206.41 221.569C206.386 221.328 206.332 221.093 206.25 220.87C206.167 220.649 206.045 220.45 205.936 220.222C205.892 220.09 205.874 219.948 205.883 219.807C205.892 219.666 205.929 219.529 205.991 219.406C206.052 219.283 206.136 219.178 206.238 219.097C206.339 219.017 206.455 218.964 206.576 218.941L206.449 219.103C206.406 218.897 206.335 218.701 206.237 218.522C206.141 218.291 206.082 218.041 206.065 217.786C206.043 217.506 206.085 217.225 206.186 216.969C206.246 216.823 206.333 216.695 206.442 216.594C206.507 216.531 206.583 216.483 206.664 216.454C206.745 216.425 206.831 216.415 206.916 216.424L206.839 217.05Z" fill="#263238"/>
<path d="M205.129 214.923C205.181 214.923 205.129 214.879 205.027 214.923C204.942 215.014 204.888 215.136 204.873 215.269C204.84 215.463 204.788 215.653 204.72 215.836C204.688 215.895 204.672 215.964 204.672 216.034C204.672 216.104 204.688 216.173 204.72 216.233C204.751 216.311 204.79 216.385 204.835 216.454C204.874 216.499 204.905 216.553 204.925 216.613C204.944 216.672 204.953 216.736 204.95 216.8C204.938 216.859 204.914 216.915 204.881 216.964C204.848 217.012 204.806 217.051 204.758 217.079C204.7 217.134 204.644 217.193 204.592 217.256C204.54 217.32 204.501 217.395 204.475 217.478C204.45 217.56 204.44 217.647 204.445 217.734C204.452 217.825 204.484 217.91 204.535 217.979C204.587 218.048 204.656 218.096 204.733 218.117C204.648 218.105 204.569 218.062 204.506 217.997C204.443 217.931 204.4 217.844 204.381 217.749C204.361 217.65 204.359 217.547 204.376 217.447C204.392 217.347 204.427 217.252 204.477 217.168C204.56 216.998 204.758 216.836 204.745 216.77C204.733 216.704 204.566 216.564 204.477 216.395C204.417 216.296 204.378 216.183 204.362 216.065C204.347 215.946 204.355 215.825 204.387 215.71C204.427 215.537 204.452 215.359 204.464 215.18C204.473 214.934 204.554 214.698 204.694 214.511C204.784 214.405 204.897 214.329 205.021 214.29C205.099 214.266 205.182 214.264 205.261 214.281C205.341 214.299 205.416 214.337 205.481 214.393L205.129 214.923Z" fill="#263238"/>
<path d="M215.421 215.188C215.421 215.141 215.43 215.095 215.448 215.053C215.465 215.011 215.491 214.974 215.523 214.945C215.554 214.914 215.589 214.892 215.628 214.878C215.666 214.864 215.707 214.859 215.747 214.864C215.809 214.866 215.869 214.889 215.92 214.93C215.987 214.984 216.04 215.057 216.073 215.144L216.157 215.357C216.214 215.504 216.272 215.644 216.329 215.821C216.398 216.012 216.411 216.224 216.368 216.424C216.314 216.595 216.229 216.751 216.118 216.881C216.033 216.982 215.973 217.108 215.943 217.244C215.912 217.381 215.913 217.525 215.945 217.661C216.015 217.815 216.036 217.992 216.003 218.161C215.952 218.315 215.879 218.456 215.785 218.581C215.854 218.446 215.904 218.299 215.933 218.147C215.94 217.995 215.899 217.846 215.817 217.727C215.753 217.564 215.726 217.384 215.738 217.205C215.75 217.026 215.802 216.854 215.888 216.704C216.048 216.402 216.073 216.248 215.945 216.012C215.888 215.902 215.805 215.762 215.728 215.629L215.613 215.431C215.574 215.364 215.613 215.467 215.613 215.431C215.638 215.439 215.664 215.439 215.689 215.431C215.721 215.434 215.752 215.43 215.782 215.419C215.812 215.407 215.839 215.389 215.862 215.364C215.887 215.341 215.907 215.312 215.921 215.279C215.936 215.246 215.944 215.21 215.945 215.173L215.421 215.188Z" fill="#263238"/>
<path opacity="0.2" d="M150.455 170.527C150.455 170.527 149.892 184.688 131.805 182.303C136.24 177.522 140.427 172.445 144.343 167.098C146.639 167.489 148.773 168.687 150.455 170.527Z" fill="black"/>
<path d="M150.717 168.945C149.366 170.513 147.913 172.176 146.563 173.839C145.213 175.503 143.862 177.188 142.576 178.874C141.339 180.503 140.177 182.206 139.094 183.974C138.654 184.718 138.26 185.498 137.917 186.307C137.763 186.646 137.705 186.896 137.661 186.999C137.606 186.734 137.531 186.476 137.437 186.226C137.437 186.226 137.385 186.145 137.398 186.16V186.204L137.437 186.3L137.513 186.484L137.75 186.918L138.057 187.396L138.416 187.89C138.992 188.614 139.614 189.288 140.278 189.906C141.756 191.283 143.313 192.544 144.937 193.682C146.595 194.889 148.336 196.022 150.102 197.134C151.869 198.245 153.686 199.342 155.453 200.35L154.07 204.921C149.898 203.777 145.827 202.19 141.91 200.181C140.925 199.666 139.941 199.106 138.96 198.503C137.956 197.9 136.981 197.234 136.041 196.508C135.03 195.737 134.07 194.881 133.168 193.947L132.464 193.159L131.773 192.269C131.549 191.945 131.325 191.606 131.133 191.26L130.819 190.686L130.659 190.392L130.582 190.245C130.541 190.157 130.505 190.066 130.473 189.972C130.315 189.569 130.18 189.153 130.07 188.729C130.008 188.359 129.966 187.985 129.942 187.61C129.904 187.281 129.893 186.948 129.91 186.616C129.915 186.314 129.934 186.011 129.968 185.711C130.077 184.78 130.276 183.867 130.563 182.988C131.015 181.609 131.576 180.281 132.24 179.021C133.402 176.811 134.698 174.699 136.118 172.699C137.475 170.741 138.889 168.886 140.342 167.09C141.795 165.294 143.261 163.579 144.886 161.857L150.717 168.945Z" fill="#FFF5EC"/>
<path d="M152.343 156.455C146.154 154.593 135.517 167.907 135.517 167.907L145.68 176.739C145.68 176.739 161.207 159.119 152.343 156.455Z" fill="#263238"/>
<path d="M162.787 201.344L157.296 200.203L152.381 197.259L149.392 205.576L152.963 205.443C154.05 206.457 155.274 207.26 156.586 207.82L163.133 212.023L167.562 205.767L162.787 201.344Z" fill="#064E3B"/>
<path opacity="0.6" d="M162.787 201.344L157.296 200.203L152.381 197.259L149.392 205.576L152.963 205.443C154.05 206.457 155.274 207.26 156.586 207.82L163.133 212.023L167.562 205.767L162.787 201.344Z" fill="white"/>
<path d="M251.296 247.48V257.541H250.419C250.419 257.541 249.895 252.036 247.795 250.085C245.696 248.135 251.296 247.48 251.296 247.48Z" fill="#064E3B"/>
<path opacity="0.2" d="M251.296 247.48V257.541H250.419C250.419 257.541 249.895 252.036 247.795 250.085C245.696 248.135 251.296 247.48 251.296 247.48Z" fill="black"/>
<path d="M236.16 283.11C236.576 276.795 239.482 268.449 241.319 263.429C241.978 261.631 242.317 259.699 242.317 257.747H246.893V257.784C246.894 259.719 247.227 261.635 247.872 263.422C249.709 268.471 252.621 276.876 253.043 283.088C253.059 283.301 253.037 283.516 252.977 283.718C252.917 283.921 252.821 284.107 252.695 284.265C252.569 284.422 252.416 284.548 252.246 284.635C252.076 284.721 251.892 284.766 251.706 284.766H237.472C237.29 284.76 237.111 284.713 236.946 284.626C236.78 284.539 236.632 284.414 236.509 284.259C236.387 284.105 236.293 283.923 236.233 283.726C236.173 283.528 236.148 283.319 236.16 283.11Z" fill="#064E3B"/>
<path opacity="0.7" d="M236.16 283.11C236.576 276.795 239.482 268.449 241.319 263.429C241.978 261.631 242.317 259.699 242.317 257.747H246.893V257.784C246.894 259.719 247.227 261.635 247.872 263.422C249.709 268.471 252.621 276.876 253.043 283.088C253.059 283.301 253.037 283.516 252.977 283.718C252.917 283.921 252.821 284.107 252.695 284.265C252.569 284.422 252.416 284.548 252.246 284.635C252.076 284.721 251.892 284.766 251.706 284.766H237.472C237.29 284.76 237.111 284.713 236.946 284.626C236.78 284.539 236.632 284.414 236.509 284.259C236.387 284.105 236.293 283.923 236.233 283.726C236.173 283.528 236.148 283.319 236.16 283.11Z" fill="white"/>
<path d="M242.112 258.24H247.021V252.595H242.112V258.24Z" fill="#064E3B"/>
<path d="M242.944 253.28L240.083 248.643V245.552H253.69V247.48C253.69 247.48 247.034 249.747 246.33 253.309H242.944" fill="#064E3B"/>
<path opacity="0.2" d="M242.112 258.24H247.021V252.595H242.112V258.24Z" fill="black"/>
<path d="M240.915 252.213H198.867L203.776 290.676H236.012L240.915 252.213Z" fill="#263238"/>
<path opacity="0.7" d="M240.921 252.213L238.272 272.953L238.227 273.321L237.632 277.958L237.542 278.679L237.228 281.152L237.043 282.602L236.844 284.155L236.608 285.995L236.48 286.959L236.249 288.799L236.006 290.676H203.776L203.532 288.799L203.302 286.959L203.18 285.995L202.944 284.155L202.745 282.602L202.56 281.152L202.246 278.679L202.15 277.958L201.561 273.321L201.51 272.953L198.867 252.213H240.921Z" fill="white"/>
<path d="M242.023 251.27H197.76V255.996H242.023V251.27Z" fill="#263238"/>
<path opacity="0.5" d="M242.023 251.27H197.76V255.996H242.023V251.27Z" fill="white"/>
<g opacity="0.2">
<path d="M236.479 286.959L236.249 288.799H203.532L203.301 286.959H236.479Z" fill="black"/>
<path d="M236.844 284.155L236.607 285.995H203.18L202.943 284.155H236.844Z" fill="black"/>
<path d="M237.228 281.152L237.042 282.602H202.745L202.559 281.152H237.228Z" fill="black"/>
<path d="M237.631 277.958L237.542 278.679H202.246L202.15 277.958H237.631Z" fill="black"/>
<path d="M238.271 272.953L238.227 273.321H201.561L201.51 272.953H238.271Z" fill="black"/>
</g>
</svg>
