<svg width="320" height="320" viewBox="0 0 320 320" fill="none" xmlns="http://www.w3.org/2000/svg">
<path d="M308.787 75.3679C309.949 69.0768 306.244 59.5588 300.398 57.184C294.553 54.8093 287.216 57.1936 283.813 62.575C279.778 55.1636 269.231 52.425 262.205 56.9638C263.705 47.1585 255.838 36.9318 246.131 36.0605C236.425 35.1891 226.911 43.8645 226.71 53.7847C223.398 50.5865 218.083 49.7726 213.994 51.8313C209.905 53.8996 207.325 58.697 207.124 66.2042C204.004 63.5517 199.211 63.1783 195.725 65.3232C192.24 67.4681 190.346 71.959 191.206 75.9999C233.964 76.0095 265.416 75.3679 308.787 75.3679Z" fill="#A3C1C9"/>
<path d="M275.823 288.073C275.823 301.301 286.268 328.891 146.894 316.072C3.27664 328.891 22.9044 307.357 22.9044 294.129C22.9044 280.901 66.994 240.306 206.22 250.677C276.026 250.677 275.823 274.845 275.823 288.073Z" fill="#F5F5F5"/>
<path d="M164.218 12.9339C164.215 12.9312 164.213 12.8921 164.211 12.8178C164.209 12.7321 164.206 12.6248 164.203 12.4898C164.198 12.1887 164.193 11.7696 164.185 11.2316C164.176 10.128 164.163 8.54174 164.146 6.54172L164.218 6.61665C158.878 6.62745 150.386 6.645 140.834 6.66457C140.887 6.6099 140.714 6.78742 140.951 6.54172V6.54307V6.54645V6.5532V6.56602V6.59167V6.64297V6.74557V6.95077V7.36049C140.951 7.63319 140.951 7.90522 140.951 8.17589C140.951 8.71791 140.951 9.25521 140.951 9.78913C140.95 10.8563 140.949 11.9052 140.949 12.9333L140.832 12.8131C147.492 12.8347 153.318 12.8543 157.498 12.8678C159.579 12.8826 161.25 12.8941 162.417 12.9022C162.985 12.909 163.429 12.9144 163.747 12.9177C163.89 12.9211 164.005 12.9238 164.095 12.9252C164.174 12.9292 164.215 12.9312 164.218 12.9339C164.221 12.9366 164.184 12.9393 164.11 12.9414C164.023 12.9434 163.913 12.9461 163.776 12.9495C163.463 12.9535 163.028 12.9589 162.471 12.965C161.311 12.9731 159.649 12.9846 157.579 12.9994C153.379 13.0129 147.524 13.0325 140.832 13.0541L140.716 13.0548V12.9339C140.715 11.9059 140.714 10.857 140.714 9.78981C140.714 9.25656 140.714 8.71859 140.713 8.17657C140.713 7.90589 140.713 7.63387 140.713 7.36117V6.95145V6.74625V6.64365V6.59235V6.5667V6.55387V6.54712V6.54375V6.5424C140.951 6.29602 140.78 6.47422 140.834 6.41887C150.387 6.43845 158.879 6.456 164.218 6.4668H164.291L164.291 6.54172C164.274 8.56064 164.26 10.1624 164.251 11.2762C164.243 11.8067 164.238 12.2205 164.233 12.5175C164.23 12.6464 164.227 12.7503 164.225 12.832C164.223 12.9022 164.221 12.9366 164.218 12.9339Z" fill="#E0E0E0"/>
<path d="M167.388 6.54242C167.385 6.53972 167.382 6.49854 167.379 6.42092C167.377 6.32912 167.373 6.21775 167.37 6.08207C167.365 5.76752 167.358 5.34025 167.348 4.80025C167.337 3.67976 167.322 2.09689 167.302 0.150199L167.388 0.238624C163.748 0.247399 158.796 0.259548 153.338 0.273048C153.23 0.383073 153.481 0.123199 153.456 0.150874V0.152223V0.155599V0.162348V0.175848V0.202174V0.254823V0.360121V0.570046V0.987869C153.456 1.26597 153.456 1.54204 153.455 1.81677C153.455 2.36621 153.455 2.90891 153.454 3.44351C153.453 4.5127 153.451 5.5495 153.449 6.54242L153.336 6.42497C157.393 6.44724 160.885 6.46682 163.388 6.48032C164.622 6.49382 165.612 6.50462 166.316 6.51272C166.645 6.51879 166.907 6.52352 167.105 6.52757C167.287 6.53297 167.384 6.53769 167.388 6.54242C167.393 6.54714 167.305 6.55187 167.134 6.55659C166.941 6.55997 166.687 6.56537 166.367 6.57145C165.669 6.57955 164.689 6.59034 163.465 6.60384C160.943 6.61802 157.424 6.63692 153.337 6.65987L153.223 6.66054V6.54242C153.222 5.54882 153.221 4.5127 153.219 3.44351C153.218 2.90891 153.218 2.36621 153.217 1.81677C153.217 1.54204 153.217 1.26529 153.217 0.987869V0.570046V0.360121V0.254823V0.202174V0.175848V0.162348V0.155599V0.152223V0.150874C153.191 0.176524 153.443 -0.0826767 153.337 0.0273478C158.795 0.0408477 163.747 0.0529993 167.387 0.0617743H167.474L167.473 0.150199C167.454 2.11917 167.438 3.72026 167.427 4.85358C167.418 5.3848 167.411 5.80532 167.405 6.11515C167.4 6.40202 167.394 6.54849 167.388 6.54242Z" fill="#E0E0E0"/>
<path d="M160.044 218.799C160.042 218.797 160.04 218.757 160.037 218.683C160.035 218.597 160.032 218.49 160.029 218.355C160.025 218.055 160.019 217.635 160.012 217.098C160.002 215.994 159.989 214.408 159.972 212.408L160.044 212.483C154.704 212.493 146.212 212.511 136.66 212.531C136.713 212.476 136.54 212.653 136.778 212.408V212.409V212.412V212.418V212.431V212.457V212.508V212.611V212.816V213.226C136.778 213.498 136.778 213.771 136.778 214.041C136.778 214.583 136.777 215.121 136.777 215.654C136.776 216.722 136.776 217.771 136.775 218.799L136.659 218.678C143.318 218.701 149.145 218.72 153.324 218.733C155.406 218.748 157.076 218.759 158.243 218.768C158.811 218.774 159.255 218.78 159.573 218.783C159.716 218.786 159.831 218.788 159.921 218.79C160 218.795 160.042 218.797 160.044 218.799C160.047 218.802 160.01 218.805 159.936 218.807C159.849 218.809 159.739 218.812 159.602 218.815C159.29 218.819 158.854 218.824 158.297 218.831C157.137 218.839 155.475 218.851 153.405 218.865C149.205 218.879 143.35 218.898 136.658 218.92H136.542V218.799C136.541 217.771 136.54 216.722 136.54 215.655C136.54 215.122 136.54 214.584 136.539 214.042C136.539 213.771 136.539 213.499 136.539 213.226V212.817V212.612V212.509V212.458V212.432V212.419V212.413V212.41V212.408C136.778 212.162 136.606 212.34 136.66 212.285C146.213 212.304 154.704 212.322 160.044 212.333H160.117L160.117 212.408C160.1 214.427 160.086 216.028 160.077 217.142C160.069 217.673 160.064 218.086 160.059 218.383C160.056 218.512 160.053 218.616 160.051 218.698C160.049 218.768 160.047 218.802 160.044 218.799Z" fill="#E0E0E0"/>
<path d="M163.216 212.408C163.213 212.405 163.21 212.364 163.207 212.286C163.204 212.194 163.201 212.083 163.198 211.947C163.193 211.633 163.185 211.205 163.176 210.665C163.165 209.545 163.149 207.962 163.13 206.015L163.215 206.104C159.575 206.113 154.623 206.125 149.165 206.138C149.058 206.248 149.309 205.988 149.284 206.016V206.018V206.022V206.028V206.042V206.068V206.121V206.226V206.436V206.854C149.284 207.132 149.284 207.408 149.283 207.683C149.283 208.232 149.282 208.775 149.282 209.309C149.28 210.379 149.279 211.415 149.278 212.408L149.164 212.292C153.221 212.314 156.713 212.333 159.216 212.347C160.45 212.36 161.44 212.371 162.143 212.379C162.473 212.385 162.734 212.39 162.933 212.394C163.115 212.398 163.212 212.403 163.216 212.408C163.221 212.412 163.134 212.417 162.961 212.422C162.769 212.425 162.514 212.431 162.195 212.437C161.497 212.445 160.517 212.456 159.293 212.469C156.771 212.483 153.252 212.502 149.165 212.524L149.052 212.525V212.407C149.05 211.414 149.049 210.377 149.047 209.308C149.047 208.773 149.047 208.231 149.046 207.681C149.046 207.407 149.046 207.131 149.046 206.852V206.435V206.225V206.119V206.067V206.04V206.027V206.02V206.017V206.015C149.02 206.04 149.272 205.781 149.166 205.891C154.624 205.905 159.576 205.917 163.216 205.926H163.302L163.302 206.014C163.282 207.983 163.266 209.584 163.255 210.717C163.246 211.249 163.239 211.669 163.234 211.979C163.228 212.267 163.222 212.414 163.216 212.408Z" fill="#E0E0E0"/>
<path d="M56.9798 170.39C56.9772 170.387 56.9752 170.348 56.9726 170.274C56.9706 170.188 56.968 170.081 56.9648 169.946C56.9608 169.645 56.955 169.225 56.9471 168.687C56.938 167.584 56.9242 165.998 56.9073 163.998L56.9798 164.072C51.64 164.083 43.1479 164.101 33.5955 164.121C33.6484 164.066 33.4753 164.244 33.7131 163.998V164V164.003V164.01V164.023V164.048V164.099V164.202V164.407V164.817C33.7131 165.09 33.7131 165.362 33.7131 165.632C33.7131 166.174 33.7131 166.712 33.7124 167.246C33.7118 168.313 33.7111 169.362 33.7105 170.39L33.5942 170.27C40.2537 170.291 46.0801 170.311 50.2595 170.324C52.3411 170.338 54.0117 170.351 55.1785 170.359C55.7463 170.365 56.1906 170.371 56.5087 170.374C56.6518 170.378 56.7661 170.38 56.857 170.382C56.9354 170.384 56.9772 170.387 56.9798 170.39C56.9824 170.392 56.9458 170.395 56.8713 170.398C56.7851 170.4 56.6753 170.403 56.5375 170.405C56.2252 170.409 55.7894 170.414 55.2328 170.421C54.0724 170.429 52.411 170.44 50.3406 170.455C46.1409 170.469 40.2857 170.488 33.5935 170.51L33.4772 170.511V170.39C33.4766 169.362 33.4759 168.313 33.4753 167.246C33.4753 166.712 33.4753 166.174 33.4746 165.632C33.4746 165.362 33.4746 165.09 33.4746 164.817V164.407V164.202V164.099V164.048V164.023V164.01V164.003V164V163.998C33.7131 163.752 33.5419 163.93 33.5955 163.875C43.1486 163.894 51.6407 163.912 56.9798 163.923H57.053L57.0523 163.998C57.0353 166.016 57.0216 167.618 57.0125 168.732C57.0046 169.263 56.9987 169.676 56.9948 169.973C56.9915 170.102 56.9889 170.206 56.987 170.288C56.9844 170.358 56.9824 170.392 56.9798 170.39Z" fill="#E0E0E0"/>
<path d="M60.1514 163.998C60.1481 163.995 60.1455 163.954 60.1422 163.877C60.1396 163.785 60.137 163.674 60.1331 163.538C60.1278 163.223 60.1206 162.796 60.1115 162.256C60.1004 161.136 60.0847 159.553 60.0651 157.606L60.1507 157.695C56.5103 157.703 51.5586 157.715 46.1006 157.729C45.9935 157.839 46.2444 157.579 46.2189 157.607V157.608V157.611V157.618V157.632V157.658V157.711V157.816V158.026V158.444C46.2189 158.722 46.2189 158.998 46.2189 159.273C46.2189 159.822 46.2182 160.365 46.2176 160.899C46.2163 161.969 46.215 163.005 46.213 163.998L46.1 163.881C50.1559 163.903 53.6487 163.923 56.1516 163.936C57.3858 163.95 58.3756 163.96 59.0799 163.969C59.4085 163.975 59.6705 163.979 59.8698 163.983C60.0501 163.988 60.1468 163.993 60.1514 163.998C60.1559 164.003 60.0684 164.008 59.8965 164.012C59.7038 164.016 59.4497 164.021 59.1302 164.027C58.4324 164.035 57.4518 164.046 56.228 164.06C53.7062 164.074 50.1873 164.093 46.1 164.115L45.9863 164.116V163.998C45.985 163.005 45.9837 161.967 45.9817 160.899C45.9811 160.364 45.9811 159.821 45.9804 159.272C45.9804 158.997 45.9804 158.721 45.9804 158.443V158.025V157.815V157.71V157.657V157.631V157.618V157.611V157.607V157.606C45.9543 157.632 46.2065 157.373 46.1006 157.483C51.5586 157.496 56.5109 157.508 60.1507 157.517H60.2369L60.2363 157.605C60.2173 159.574 60.2017 161.175 60.1905 162.309C60.1814 162.84 60.1742 163.261 60.169 163.57C60.1631 163.857 60.1572 164.004 60.1514 163.998Z" fill="#E0E0E0"/>
<path d="M35.4895 117.883C35.4869 117.88 35.485 117.841 35.4824 117.767C35.4804 117.681 35.4778 117.574 35.4745 117.439C35.47 117.138 35.4647 116.719 35.4569 116.181C35.4477 115.077 35.434 113.491 35.417 111.491L35.4895 111.566C30.1498 111.577 21.6577 111.594 12.1052 111.614C12.1582 111.559 11.985 111.737 12.2228 111.491V111.492V111.496V111.502V111.515V111.541V111.592V111.695V111.9V112.31C12.2228 112.582 12.2228 112.854 12.2228 113.125C12.2228 113.667 12.2222 114.204 12.2222 114.738C12.2215 115.806 12.2209 116.854 12.2202 117.882L12.1039 117.762C18.7634 117.784 24.5899 117.804 28.7693 117.817C30.8508 117.832 32.5214 117.843 33.6883 117.851C34.256 117.858 34.7003 117.864 35.0185 117.867C35.1616 117.87 35.2766 117.872 35.3667 117.874C35.4458 117.878 35.4876 117.88 35.4895 117.883C35.4922 117.886 35.4556 117.889 35.3811 117.891C35.2949 117.893 35.1851 117.895 35.0472 117.899C34.7349 117.903 34.2992 117.908 33.7425 117.914C32.5822 117.922 30.9208 117.934 28.8503 117.949C24.6507 117.962 18.7954 117.982 12.1033 118.003L11.987 118.004V117.883C11.9863 116.855 11.9857 115.806 11.985 114.739C11.985 114.206 11.985 113.668 11.9844 113.126C11.9844 112.855 11.9844 112.583 11.9844 112.31V111.901V111.695V111.593V111.542V111.516V111.503V111.496V111.493V111.492C12.2228 111.245 12.051 111.423 12.1052 111.368C21.6584 111.388 30.1498 111.405 35.4895 111.416H35.5627L35.5621 111.491C35.5451 113.51 35.5314 115.112 35.5222 116.225C35.5144 116.756 35.5092 117.17 35.5046 117.467C35.5013 117.596 35.4987 117.7 35.4967 117.781C35.4948 117.851 35.4922 117.886 35.4895 117.883Z" fill="#E0E0E0"/>
<path d="M250.465 260.926C250.463 260.924 250.461 260.885 250.458 260.81C250.456 260.725 250.453 260.617 250.45 260.482C250.446 260.181 250.44 259.762 250.432 259.224C250.423 258.12 250.41 256.534 250.393 254.534L250.465 254.609C245.125 254.62 236.633 254.637 227.081 254.657C227.134 254.602 226.961 254.78 227.198 254.534V254.536V254.539V254.546V254.559V254.584V254.635V254.738V254.943V255.353C227.198 255.626 227.198 255.898 227.198 256.168C227.198 256.71 227.198 257.248 227.198 257.782C227.197 258.849 227.196 259.898 227.196 260.926L227.08 260.806C233.739 260.827 239.565 260.847 243.745 260.86C245.826 260.874 247.497 260.887 248.664 260.895C249.232 260.901 249.676 260.907 249.994 260.91C250.137 260.914 250.252 260.916 250.342 260.918C250.421 260.922 250.463 260.924 250.465 260.926C250.468 260.929 250.431 260.932 250.357 260.935C250.27 260.937 250.16 260.939 250.023 260.943C249.711 260.947 249.275 260.951 248.718 260.958C247.558 260.966 245.896 260.978 243.826 260.993C239.626 261.006 233.771 261.026 227.079 261.047H226.963V260.926C226.962 259.898 226.961 258.849 226.961 257.782C226.961 257.249 226.961 256.711 226.96 256.169C226.96 255.898 226.96 255.626 226.96 255.354V254.944V254.739V254.636V254.585V254.559V254.546V254.54V254.536V254.535C227.198 254.289 227.027 254.467 227.081 254.411C236.634 254.431 245.126 254.448 250.465 254.459H250.538L250.538 254.534C250.521 256.553 250.507 258.155 250.498 259.269C250.49 259.799 250.484 260.213 250.48 260.51C250.477 260.639 250.474 260.743 250.472 260.825C250.47 260.895 250.467 260.929 250.465 260.926Z" fill="#E0E0E0"/>
<path d="M310.927 93.7264C310.924 93.7237 310.922 93.6845 310.92 93.6103C310.918 93.5245 310.915 93.4172 310.912 93.2822C310.908 92.9818 310.902 92.562 310.894 92.0247C310.885 90.9211 310.871 89.3348 310.854 87.3348L310.927 87.4097C305.587 87.4205 297.095 87.4381 287.543 87.4577C287.596 87.403 287.422 87.5805 287.66 87.3348V87.3362V87.3395V87.3463V87.3591V87.3848V87.4361V87.5387V87.7439V88.1536C287.66 88.4263 287.66 88.6983 287.66 88.969C287.66 89.511 287.66 90.0483 287.66 90.5822C287.659 91.6487 287.658 92.6983 287.658 93.7264L287.541 93.6062C294.201 93.6285 300.027 93.6474 304.207 93.6609C306.288 93.6757 307.959 93.6872 309.126 93.6953C309.694 93.7021 310.138 93.7075 310.456 93.7108C310.599 93.7142 310.714 93.7162 310.804 93.7183C310.883 93.7216 310.924 93.7243 310.927 93.7264C310.93 93.7291 310.893 93.7318 310.819 93.7345C310.732 93.7365 310.622 93.7392 310.485 93.7426C310.172 93.7466 309.737 93.7513 309.18 93.7581C308.02 93.7662 306.358 93.7777 304.288 93.7925C300.088 93.806 294.233 93.8256 287.541 93.8472L287.424 93.8479V93.727C287.424 92.699 287.423 91.6501 287.422 90.5829C287.422 90.0497 287.422 89.5117 287.422 88.9697C287.422 88.699 287.422 88.427 287.422 88.1543V87.7445V87.5393V87.4367V87.3854V87.3598V87.347V87.3402V87.3368V87.3355C287.66 87.0891 287.488 87.2673 287.543 87.212C297.096 87.2315 305.587 87.2491 310.927 87.2606H311L311 87.3355C310.983 89.3544 310.969 90.9562 310.96 92.0699C310.952 92.6005 310.947 93.0142 310.942 93.3112C310.939 93.4402 310.936 93.5441 310.934 93.6258C310.932 93.6946 310.93 93.7291 310.927 93.7264Z" fill="#E0E0E0"/>
<path d="M195.142 83.324L191.115 75.9922C192.896 73.0047 193.926 69.4879 193.926 65.7221C193.926 54.8911 185.428 46.1115 174.944 46.1115C164.461 46.1115 155.963 54.8911 155.963 65.7221C155.963 76.5525 164.461 85.3328 174.944 85.3328C179.322 85.3328 183.35 83.7979 186.561 81.2261L186.554 81.2349L195.142 83.324Z" fill="#FAFAFA"/>
<path d="M195.14 83.324C194.732 83.2275 192.013 82.5862 186.539 81.2936L186.451 81.2727L186.506 81.1978L186.512 81.189L186.595 81.2733C185.511 82.14 184.214 82.9939 182.69 83.7054C181.163 84.4047 179.414 84.9757 177.484 85.2417C176.519 85.3692 175.513 85.4509 174.477 85.3989C173.96 85.3686 173.433 85.3557 172.902 85.3098C172.375 85.2275 171.84 85.1438 171.298 85.0594C169.148 84.6213 166.95 83.7776 164.9 82.4634C162.851 81.1539 160.954 79.3753 159.433 77.1896C157.914 75.008 156.762 72.4214 156.223 69.6108C155.69 66.8034 155.734 63.795 156.447 60.8837C157.166 57.9826 158.508 55.1476 160.517 52.8155L161.293 51.9339C161.547 51.6376 161.852 51.3933 162.128 51.1212C162.417 50.8641 162.678 50.5731 162.989 50.3457L163.9 49.6416C164.195 49.3953 164.52 49.1968 164.844 48.997C165.166 48.7952 165.486 48.5934 165.807 48.3929C166.144 48.2242 166.48 48.0554 166.816 47.8873C167.154 47.726 167.48 47.5357 167.834 47.4196C170.592 46.2883 173.534 45.8576 176.346 46.0682C179.158 46.2775 181.849 47.1111 184.158 48.4537C186.474 49.7854 188.427 51.564 189.934 53.5506C191.446 55.5377 192.511 57.7295 193.171 59.9124C193.826 62.1055 194.003 64.2803 193.996 66.2931C193.94 68.3114 193.584 70.1703 193.066 71.8018C192.547 73.436 191.866 74.8413 191.162 76.0232L191.163 75.9638C193.703 80.6645 194.945 82.9629 195.14 83.324C194.94 82.9662 193.668 80.6861 191.064 76.0212L191.048 75.9915L191.065 75.9618C191.757 74.7819 192.426 73.3813 192.934 71.7572C193.44 70.1352 193.785 68.2891 193.834 66.2877C193.833 64.2911 193.651 62.1372 192.996 59.9678C192.337 57.8084 191.276 55.6417 189.776 53.6788C188.281 51.7166 186.346 49.9616 184.054 48.6481C181.77 47.3244 179.109 46.5043 176.329 46.3004C173.55 46.0952 170.645 46.5232 167.921 47.6416C167.571 47.7557 167.249 47.9447 166.915 48.104C166.584 48.2701 166.252 48.4368 165.919 48.6042C165.603 48.8026 165.286 49.0018 164.968 49.2015C164.648 49.3986 164.327 49.5951 164.036 49.8387L163.136 50.534C162.829 50.7581 162.571 51.0463 162.286 51.3001C162.013 51.5688 161.712 51.8097 161.461 52.1027L160.695 52.9734C158.71 55.2765 157.384 58.0764 156.673 60.9418C155.967 63.8173 155.92 66.7899 156.445 69.5642C156.975 72.3418 158.11 74.8994 159.608 77.0587C161.108 79.2214 162.982 80.9845 165.006 82.2852C167.032 83.5899 169.205 84.4303 171.333 84.8711C171.87 84.9568 172.399 85.0412 172.921 85.1242C173.447 85.1715 173.969 85.1856 174.481 85.2174C175.507 85.2727 176.505 85.1951 177.461 85.0722C179.376 84.8164 181.114 84.2575 182.632 83.571C184.148 82.8724 185.441 82.032 186.523 81.1775L186.877 80.8981L186.606 81.2619L186.599 81.2707L186.566 81.1755C192.023 82.543 194.734 83.2221 195.14 83.324Z" fill="#263238"/>
<path d="M221.2 294.797C238.159 294.797 251.907 290.566 251.907 285.347C251.907 280.128 238.159 275.897 221.2 275.897C204.241 275.897 190.493 280.128 190.493 285.347C190.493 290.566 204.241 294.797 221.2 294.797Z" fill="#DBDBDB"/>
<path d="M75.9889 290.496C104.761 290.496 128.086 286.293 128.086 281.107C128.086 275.922 104.761 271.718 75.9889 271.718C47.2163 271.718 23.8916 275.922 23.8916 281.107C23.8916 286.293 47.2163 290.496 75.9889 290.496Z" fill="#DBDBDB"/>
<path d="M52.6962 259.838C51.0498 257.334 28.1372 276.956 29.1237 280.304C29.4504 281.424 31.2863 281.769 33.573 281.735C38.1071 281.64 44.4315 280.054 44.4315 280.054L56.2896 270.719C56.2896 270.719 55.989 269.443 55.5317 267.742C54.813 265.076 53.6958 261.37 52.6962 259.838Z" fill="#064E3B"/>
<path d="M55.532 267.742C46.3264 268.289 36.2977 278.718 33.5732 281.735C38.1074 281.64 44.4317 280.054 44.4317 280.054L56.2898 270.719C56.2898 270.719 55.9893 269.443 55.532 267.742Z" fill="#FFE5D8"/>
<path d="M42.6934 280.007L57.1714 280.756L60.5426 272.008L52.01 270.678L42.6934 280.007Z" fill="#FFE5D8"/>
<path d="M115.058 281.775C112.138 283.24 109.132 283.26 108.878 283.26C108.871 283.26 108.864 283.26 108.864 283.26C100.534 294.405 54.7353 281.688 54.7353 281.688C52.5205 276.672 54.5916 269.916 55.1142 268.363C55.1926 268.147 55.2318 268.032 55.2318 268.032L57.6165 268.316L57.7407 268.329C57.7407 268.329 43.5501 263.193 45.5951 244.718C46.8756 233.176 59.1845 222.403 59.1845 222.403L85.0437 238.009C85.0437 238.009 110.236 252.096 116.11 256.463C129.164 266.169 117.097 280.756 115.058 281.775Z" fill="#A3C1C9"/>
<path d="M111.543 275.687C112.164 272.595 111.968 269.2 110.354 266.52C109.035 264.34 106.911 262.821 104.808 261.444C95.6804 255.45 87.3111 251.184 77.6221 246.959C81.5813 246.507 83.2604 245.109 85.3903 243.152C84.5867 246.331 84.0183 246.27 83.28 247.897C90.5386 251.238 96.1638 253.803 101.946 257.671C105.65 260.155 110.276 262.923 112.36 266.952C114.438 270.982 112.138 278.056 111.942 280.425C111.779 282.477 113.758 281.958 115.052 281.769C112.131 283.233 109.126 283.254 108.871 283.254C110.119 280.905 111.008 278.319 111.543 275.687Z" fill="#859CA3"/>
<path d="M96.3396 275.93C93.8962 278.63 86.6049 277.901 82.9462 277.314C75.5765 276.126 60.8241 271.077 55.1074 268.37C55.1858 268.154 55.225 268.039 55.225 268.039L57.6097 268.323C68.7361 272.656 87.2125 278.907 96.3396 275.93Z" fill="#859CA3"/>
<path d="M87.6501 277.32C88.8849 278.414 91.9752 280.061 93.5693 280.365C91.0017 281.208 87.3038 278.954 86.167 277.327C86.4479 277.314 87.4214 277.3 87.6501 277.32Z" fill="#859CA3"/>
<path d="M89.6707 167.006C86.5151 165.554 82.7584 165.46 79.6027 166.763C76.4471 168.059 73.9383 170.732 72.8799 173.924C74.082 171.724 76.323 170.111 78.8383 169.638C75.9375 171.089 74.1278 174.363 74.4479 177.583C74.768 180.803 77.205 183.773 80.3541 184.799C81.8306 179.216 86.2537 174.532 91.8136 172.662C91.3955 170.833 90.4416 169.118 89.6707 167.006Z" fill="#263238"/>
<path d="M103.823 211.94L106.129 219.426L135.209 223.847L134.333 235.754L90.6512 233.823L87.3584 217.158L103.823 211.94Z" fill="#C9B5AA"/>
<path d="M94.597 183.725C98.6543 185.73 101.072 190.144 102.502 194.552C104.658 201.167 105.155 208.214 105.632 215.18C101.065 217.354 96.1847 218.825 91.2062 219.541C89.4291 213.513 87.9656 207.289 88.1355 200.992C88.3119 194.687 90.2654 188.248 94.597 183.725Z" fill="#064E3B"/>
<path d="M143.474 219.014C145.728 218.582 148.035 218.474 150.315 218.683C151.236 218.771 152.275 218.987 152.758 219.797C153.438 220.945 152.497 222.457 151.347 223.084C150.191 223.712 148.825 223.847 147.708 224.536C148.871 224.36 150.106 224.198 151.197 224.657C152.288 225.116 153.131 226.446 152.667 227.56C152.268 228.518 151.171 228.889 150.197 229.153C148.819 229.531 147.44 229.909 146.062 230.287C147.179 230.219 148.361 230.165 149.354 230.698C150.348 231.232 151.027 232.568 150.485 233.581C150.053 234.377 149.067 234.654 148.178 234.681C147.29 234.708 146.375 234.573 145.539 234.87C146.395 235.309 147.172 236.024 147.44 236.976C147.715 237.921 147.349 239.095 146.48 239.507C145.898 239.784 145.225 239.689 144.605 239.521C142.037 238.812 139.705 236.807 137.059 237.124C138.091 233.986 138.489 230.665 139.306 227.452C140.11 224.252 141.429 221.032 143.474 219.014Z" fill="#2E4C5E"/>
<path d="M138.023 203.374C140.088 199.189 143.642 195.949 147.778 194.498C148.379 194.289 149.006 194.113 149.64 194.215C150.267 194.316 150.901 194.761 151.09 195.436C151.201 195.835 151.149 196.267 151.031 196.658C150.594 198.082 149.359 198.973 148.157 199.669C145.524 201.194 142.656 202.261 139.703 202.814C139.082 202.936 138.409 203.057 138.023 203.374Z" fill="#46A6A4"/>
<path d="M137.828 203.199C140.997 200.276 144.708 197.988 148.7 196.489C144.845 198.454 140.899 200.485 137.991 203.752C138.011 203.422 138.024 203.091 137.828 203.199Z" fill="#2C7482"/>
<path d="M136.967 209.881C139.28 205.44 143.513 202.321 148.158 201.646C148.851 201.545 149.674 201.545 150.138 202.139C150.491 202.585 150.517 203.26 150.321 203.793C150.125 204.333 149.746 204.751 149.348 205.123C146.316 207.944 142.004 208.275 136.967 209.881Z" fill="#46A6A4"/>
<path d="M136.764 209.962C139.789 206.709 143.768 204.427 148.034 203.496C143.735 204.765 139.789 207.283 136.758 210.678C136.686 210.354 136.719 210.016 136.764 209.962Z" fill="#2C7482"/>
<path d="M137.071 212.392C136.202 208.707 133.295 205.642 129.917 204.846C129.153 204.664 128.349 204.596 127.611 204.846C127.238 204.967 126.886 205.183 126.65 205.528C126.454 205.811 126.363 206.169 126.33 206.533C126.206 207.937 126.997 209.321 128.049 210.158C129.1 210.995 130.387 211.387 131.648 211.67C132.909 211.954 134.196 212.17 137.071 212.392Z" fill="#46A6A4"/>
<path d="M137.057 212.426C135.992 211.063 134.843 209.746 133.451 208.747C132.059 207.748 130.393 207.08 128.701 207.127C130.263 207.37 131.707 208.153 133.026 209.051C134.601 210.124 136.09 211.42 137.005 213.121C137.077 212.851 137.168 212.568 137.057 212.426Z" fill="#2C7482"/>
<path d="M137.15 207.775C137.261 204.137 135.68 200.593 133.511 197.772C133.001 197.11 132.432 196.456 131.707 196.111C130.982 195.767 130.067 195.801 129.525 196.395C128.8 197.191 129.016 198.555 129.447 199.615C130.701 202.706 133.21 204.947 137.15 207.775Z" fill="#46A6A4"/>
<path d="M137.13 208.045C135.889 204.826 134.092 201.835 131.838 199.27C133.027 200.161 133.902 201.417 134.758 202.645C135.386 203.55 136.019 204.468 136.45 205.494C136.725 206.149 136.914 206.851 137.319 207.424C137.221 207.62 137.123 207.823 137.13 208.045Z" fill="#2C7482"/>
<path d="M138.233 202.612C138.73 199.54 138.469 196.3 137.482 193.33C137.09 192.156 136.581 191.002 135.797 190.09C135.176 189.368 134.215 188.788 133.405 189.179C132.523 189.604 132.34 190.894 132.491 191.953C132.726 193.567 133.458 195.052 134.242 196.456C135.418 198.568 136.744 200.573 138.233 202.612Z" fill="#46A6A4"/>
<path d="M138.312 202.753C137.508 199.23 136.045 195.916 134.588 192.622C136.378 195.416 137.659 198.568 138.338 201.849C138.397 202.112 138.443 202.409 138.312 202.753Z" fill="#2C7482"/>
<path d="M136.633 215.396C138.514 211.285 142.493 209.011 146.472 208.558C147.119 208.484 147.785 208.457 148.406 208.714C149.027 208.97 149.589 209.578 149.693 210.347C149.863 211.63 148.772 212.561 147.779 213.054C144.087 214.87 139.913 214.93 136.633 215.396Z" fill="#46A6A4"/>
<path d="M136.522 215.477C138.149 214.276 139.783 213.074 141.566 212.136C143.35 211.198 145.297 210.529 147.296 210.482C143.526 211.427 139.985 213.31 137.052 215.923C136.836 215.727 136.705 215.45 136.522 215.477Z" fill="#2C7482"/>
<path d="M139.364 198.413C138.992 195.949 139.41 193.371 140.534 191.245C141.657 189.118 143.467 187.451 145.577 186.607C145.937 186.466 146.342 186.344 146.708 186.499C147.145 186.688 147.394 187.235 147.394 187.741C147.4 188.254 147.211 188.734 147.002 189.186C145.296 192.878 142.258 195.551 139.364 198.413Z" fill="#46A6A4"/>
<path d="M136.104 219.21C136.202 214.093 136.437 208.957 137.482 204.002C138.534 199.048 140.442 194.255 143.552 190.556C138.874 198.872 136.3 206.959 137.547 218.724C137.077 218.852 136.6 219.162 136.104 219.21Z" fill="#2C7482"/>
<path d="M149.863 220.621C148.661 223.752 148.132 227.154 148.308 230.516C148.406 232.305 148.641 234.296 147.583 235.707C146.622 236.989 144.904 237.34 143.343 237.502C139.612 237.887 135.829 237.705 132.144 236.976C130.498 236.645 128.708 236.091 127.826 234.613C127.336 233.796 127.205 232.811 127.127 231.852C126.99 230.03 127.022 228.207 127.061 226.378C127.101 224.4 127.14 222.423 127.179 220.445C127.179 220.296 127.192 220.134 127.284 220.02C127.382 219.898 127.551 219.871 127.702 219.851C134.248 218.933 140.984 218.022 149.863 220.621Z" fill="#395959"/>
<path d="M151.157 221.12C151.138 221.66 150.778 222.058 150.321 222.342C149.981 222.558 149.563 222.713 149.191 222.801C147.59 223.192 145.917 223.239 144.264 223.287C141.651 223.368 139.025 223.435 136.405 223.516C134.673 223.557 132.929 223.611 131.198 223.658C130.25 223.685 129.27 223.705 128.408 223.294C127.552 222.882 125.938 219.892 125.99 219.068C126.043 218.245 126.389 217.462 126.448 216.638C126.513 215.646 126.18 214.512 126.788 213.742C126.859 213.648 126.931 213.567 127.023 213.506C127.545 213.081 128.323 213.02 129.015 213.04C131.211 213.121 133.36 213.668 135.549 213.891C139.155 214.262 142.788 213.742 146.388 213.297C147.263 213.189 148.165 213.088 149.027 213.304C149.883 213.52 150.7 214.114 150.935 214.978C151.314 216.368 150.118 217.819 150.497 219.203C150.661 219.878 151.183 220.438 151.157 221.12Z" fill="#3F615E"/>
<path d="M151.157 221.12C151.138 221.66 150.779 222.058 150.321 222.342C150.321 221.545 150.066 220.722 149.609 220.081C148.753 218.872 147.335 218.197 145.911 217.941C144.48 217.698 143.017 217.84 141.566 217.975C140.338 218.089 139.103 218.211 137.875 218.326C141.429 217.509 145.088 217.178 148.721 217.36C148.825 215.97 147.499 214.856 146.166 214.627C144.84 214.411 143.494 214.802 142.161 214.991C138.783 215.47 135.379 214.606 132.06 213.803C130.78 213.499 129.473 213.196 128.166 213.29C127.781 213.317 127.389 213.391 127.017 213.506C127.539 213.081 128.317 213.02 129.009 213.04C131.204 213.121 133.354 213.668 135.543 213.891C139.149 214.262 142.782 213.742 146.382 213.297C147.257 213.189 148.159 213.088 149.021 213.304C149.877 213.52 150.694 214.114 150.929 214.978C151.308 216.368 150.112 217.819 150.491 219.203C150.661 219.878 151.184 220.438 151.157 221.12Z" fill="#547A75"/>
<path d="M85.999 238.359C91.7811 228.93 97.4194 221.194 100.196 210.455C104.306 194.579 96.5243 181.336 89.2265 178.94C80.916 176.206 69.5937 184.211 66.7059 189.719C62.1652 198.386 59.3558 207.235 56.2852 224.947C62.0999 231.535 73.6836 237.057 85.999 238.359Z" fill="#064E3B"/>
<path d="M102.097 181.977C100.627 183.415 99.4703 185.176 98.6928 187.107C98.0917 188.558 97.7128 190.104 97.5821 191.683C97.4841 192.878 97.4057 194.282 96.4192 194.91C95.5045 195.497 94.3154 195.031 93.3746 194.485C88.0368 191.339 84.4761 185.21 84.3193 178.865C86.0376 177.833 87.5534 176.381 88.7816 174.674C89.8858 173.135 90.7613 171.386 91.3427 169.523C91.4081 169.355 91.4538 169.186 91.5061 169.01C91.689 169.287 91.8654 169.557 92.0418 169.827C95.3216 174.755 98.6667 178.42 102.097 181.977Z" fill="#FFE5D8"/>
<path d="M91.3433 169.523C91.572 169.625 91.8072 169.733 92.0424 169.827C95.3222 174.755 98.6672 178.42 102.097 181.977C100.627 183.415 99.4709 185.177 98.6934 187.107C94.1788 184.299 90.6116 179.831 88.7822 174.674" fill="#C9B5AA"/>
<path d="M119.716 167.077C122.711 166.671 125.369 168.152 125.652 170.385C125.936 172.617 123.738 174.756 120.744 175.162C117.749 175.568 115.091 174.088 114.808 171.855C114.524 169.623 116.722 167.483 119.716 167.077Z" fill="#C9B5AA"/>
<path d="M119.808 173.108C118.306 178.217 114.052 182.263 110.283 185.446C105.885 189.16 102.122 184.968 98.7055 183.423C90.0288 175.128 88.0495 173.999 87.6706 166.007C87.4811 162.092 88.2847 158.089 90.1794 154.7C92.0806 151.305 95.1121 148.551 98.7055 147.282C101.678 146.229 104.912 146.209 108.016 146.715C110.799 147.167 113.484 148.16 115.908 149.645C124.107 154.667 121.311 167.998 119.808 173.108Z" fill="#FFE5D8"/>
<path d="M89.3496 165.649C93.7727 163.766 97.5033 160.195 99.6985 156.044C105.128 160.438 112.112 162.733 119.044 162.348C120.266 164.285 120.919 166.601 120.893 168.916C122.624 164.927 122.944 160.303 121.67 156.266C114.307 153.843 106.938 151.413 99.5744 148.99C99.1693 148.855 98.712 148.727 98.3265 148.916C98.0456 149.057 97.8626 149.341 97.6993 149.611C95.6217 152.993 93.5375 156.381 91.3684 159.419C91.2704 161.666 90.8131 163.901 89.3496 165.649Z" fill="#C9B5AA"/>
<path d="M104.438 170.009C104.6 169.07 105.139 168.383 105.644 168.475C106.148 168.567 106.427 169.404 106.266 170.344C106.104 171.284 105.565 171.971 105.06 171.878C104.555 171.786 104.277 170.95 104.438 170.009Z" fill="#1E2742"/>
<path d="M115.582 171.649C115.743 170.709 116.283 170.022 116.787 170.115C117.292 170.207 117.57 171.043 117.409 171.984C117.248 172.923 116.708 173.61 116.204 173.518C115.699 173.425 115.421 172.588 115.582 171.649Z" fill="#1E2742"/>
<path d="M108.589 163.172C108.028 161.909 106.727 161.039 105.382 161.025C104.036 161.012 102.716 161.849 102.128 163.097C104.036 162.193 106.375 162.335 108.589 163.172Z" fill="#263238"/>
<path d="M120.225 164.717C120.134 163.502 119.134 162.422 117.958 162.274C116.782 162.132 115.567 162.935 115.201 164.096C116.919 163.563 118.879 163.894 120.225 164.717Z" fill="#263238"/>
<path d="M112.778 172.082C113.039 173.276 112.712 174.586 111.922 175.504" stroke="#AD373B" stroke-miterlimit="10" stroke-linecap="round"/>
<path d="M110.223 178.757C107.793 178.622 105.428 177.535 103.703 175.76" stroke="#AD373B" stroke-miterlimit="10" stroke-linecap="round"/>
<path d="M123.957 165.122C123.095 167.114 121.925 168.956 120.449 170.549C121.056 168.619 121.533 162.854 120.227 161.025C111.981 161.342 103.397 156.995 98.98 152.426C97.0461 158.852 93.1783 164.852 89.7287 166.304C88.2456 165.338 87.2133 164.859 85.58 164.393C84.2537 159.392 84.0969 153.884 85.8478 149.273C87.1414 145.851 90.4473 143.286 93.5703 143.894C94.191 142.577 95.073 141.443 96.1314 140.492C98.3854 138.453 101.437 137.265 104.461 136.941C112.256 136.124 120.325 140.741 123.8 148.004C126.322 153.296 126.283 159.749 123.957 165.122Z" fill="#263238"/>
<path d="M123.956 165.122C125.047 156.827 122.297 148.733 116.92 143.968C111.536 139.189 103.454 137.697 96.124 140.492C98.378 138.453 101.429 137.265 104.454 136.941C112.248 136.124 120.317 140.741 123.793 148.004C126.321 153.296 126.282 159.749 123.956 165.122Z" fill="#263238"/>
<path d="M83.1797 163.607C84.4896 161.697 87.6328 161.671 90.2004 163.551C92.7681 165.43 93.7873 168.502 92.4773 170.412C91.1674 172.323 88.0242 172.347 85.4566 170.468C82.8889 168.59 81.8697 165.518 83.1797 163.607Z" fill="#FFE5D8"/>
<path d="M118.28 236.382C118.28 236.382 117.365 236.524 115.83 236.76C114.151 237.003 111.733 237.354 108.963 237.698C100.163 238.818 87.8537 239.993 84.5543 238.359C81.9605 237.07 77.6158 230.361 74.4406 224.988C72.167 221.147 70.501 217.995 70.501 217.995L85.7434 208.369L88.7357 216.341L91.7214 224.306L112.014 225.751L114.327 225.919L117.973 226.183L118.28 236.382Z" fill="#FFE5D8"/>
<path d="M88.748 216.341C84.7104 220.303 79.7712 223.287 74.4464 224.988C72.1728 221.147 70.5068 217.995 70.5068 217.995L85.7492 208.369L88.748 216.341Z" fill="#C9B5AA"/>
<path d="M115.83 236.76C114.151 237.003 111.734 237.354 108.963 237.698C108.767 236.085 108.8 234.444 109.068 232.845C109.486 230.307 110.486 227.89 112.028 225.751L114.34 225.919C115.007 229.504 115.51 233.122 115.83 236.76Z" fill="#C9B5AA"/>
<path d="M119.522 239.169C119.894 240.04 118.764 240.857 117.849 240.769C116.934 240.681 116.079 240.135 115.164 240.189C114.471 240.229 113.818 240.614 113.119 240.587C111.655 240.533 110.858 238.812 110.538 237.34C109.663 233.304 109.924 229.018 111.283 225.123C111.727 223.861 112.544 222.443 113.844 222.416C114.386 222.403 114.916 222.652 115.451 222.578C116 222.504 116.451 222.112 116.961 221.896C118.045 221.424 119.424 221.836 120.266 223.496C120.979 222.025 121.821 220.607 122.919 219.419C124.023 218.231 125.395 217.286 126.937 216.881C127.571 216.712 128.322 216.672 128.812 217.117C129.328 217.59 129.348 218.427 129.1 219.095C128.858 219.757 128.4 220.31 128.067 220.931C127.728 221.545 127.512 222.308 128.087 223.354C131.948 223.388 135.809 222.97 139.579 222.112C140.219 221.964 140.866 221.809 141.52 221.856C142.173 221.903 142.846 222.193 143.199 222.767C143.8 223.739 143.238 225.049 142.48 225.892C140.402 228.214 137.155 228.883 134.091 230.017C136.927 229.949 139.762 229.888 142.604 229.821C143.14 229.807 143.708 229.807 144.166 230.084C144.917 230.543 145.113 231.616 144.878 232.487C144.571 233.628 143.689 234.539 142.676 235.093C141.663 235.646 140.513 235.889 139.383 236.071C137.462 236.382 135.522 236.55 133.967 236.78C135.835 236.78 137.782 236.793 139.468 237.63C140.121 237.954 140.762 238.454 140.932 239.183C141.101 239.912 140.736 240.688 140.18 241.174C139.625 241.66 138.919 241.903 138.22 242.139C138.109 243.051 137.403 243.786 136.593 244.151C135.783 244.515 134.869 244.563 133.987 244.563C128.943 244.536 123.932 242.916 119.522 239.169Z" fill="#2E4C5E"/>
<path d="M120.417 224.529C118.804 228.849 118.516 233.689 119.614 238.184C118.196 236.179 117.477 233.662 117.608 231.184C117.739 228.707 118.725 226.284 120.417 224.529Z" fill="#1C3040"/>
<path d="M115.105 223.118C113.674 227.377 113.184 232.102 113.713 236.665C112.23 232.372 112.57 227.209 115.105 223.118Z" fill="#1C3040"/>
<path d="M137.724 242.126C135.084 241.836 132.673 241.66 129.962 240.708C131.909 242.713 135.718 242.862 137.724 242.126Z" fill="#1C3040"/>
<path d="M69.8607 223.773C68.1621 218.089 63.066 200.938 65.0848 193.783C66.2739 189.564 69.7039 185.777 73.9376 185.433C77.4133 185.149 80.778 187.222 82.9079 190.07C85.0378 192.925 86.1027 196.469 86.8214 199.993C87.5466 203.516 88.5201 210.367 89.3433 214.06C83.1497 219.439 76.2961 221.795 69.8607 223.773Z" fill="#064E3B"/>
<path d="M157.617 276.308C153.318 275.451 148.536 274.141 144.048 274.647C142.61 274.809 141.428 275.559 140.108 276.051C138.599 276.618 137.442 276.834 135.822 276.551C134.11 276.247 132.353 276.47 130.987 277.651C130.086 278.427 129.792 279.602 130.36 280.682C131.098 282.072 132.725 282.72 134.241 282.936C136.279 283.226 138.37 283.159 140.422 283.321C142.414 283.483 144.4 283.787 146.4 283.888C148.876 284.023 151.293 283.76 153.756 283.577C155.814 283.422 157.729 283.456 159.767 283.652C160.838 283.753 161.923 283.679 162.994 283.766C163.818 283.834 164.634 283.787 165.451 283.672C167.261 283.422 169.214 283.044 170.599 281.816C171.318 281.181 173.193 279.582 172.03 278.481C171.553 278.029 170.495 277.658 169.894 277.428C169.195 277.165 168.437 277.091 167.712 276.936C166.261 276.632 164.83 276.659 163.354 276.571C161.237 276.443 159.114 276.605 157.617 276.308Z" fill="#DDDDDD"/>
<path d="M123.238 293.635C123.18 292.994 122.69 290.908 123.245 290.145C123.363 289.983 123.63 289.781 123.794 289.673C124.232 289.382 124.761 289.362 125.218 289.133C126.244 288.613 125.675 287.452 126.231 286.581C126.832 285.629 128.145 285.413 129.145 285.542C129.785 285.623 130.157 285.791 130.51 285.062C130.883 284.293 130.869 283.213 131.072 282.389C131.392 281.073 131.797 280.013 133.293 280.128C134.509 280.223 135.92 281.397 137.083 280.52C137.867 279.926 138.193 278.954 139.069 278.441C139.67 278.09 140.474 278.069 141.153 278.015C142.218 277.928 142.832 278.15 143.381 279.102C143.655 279.575 143.943 279.993 144.015 280.547C144.08 281.066 143.897 281.822 144.191 282.308C144.505 282.821 145.23 282.761 145.713 282.977C146.7 283.402 147.595 284.165 147.817 285.285C147.961 286.014 147.797 286.655 147.51 287.31C147.321 287.735 147 288.269 147.17 288.755C147.347 289.254 147.771 289.281 148.209 289.376C148.875 289.524 149.529 289.727 150.11 290.118C150.783 290.57 151.195 291.144 151.227 291.988C151.254 292.751 150.92 293.014 150.639 293.642C150.313 294.357 150.888 294.222 151.071 294.836C151.345 295.761 149.914 295.586 149.411 295.545C148.529 295.464 147.654 295.282 146.772 295.214C144.916 295.073 143.008 295.187 141.153 295.289C136.442 295.545 131.647 295.106 126.982 294.607C126.1 294.512 125.27 294.722 124.401 294.722C124.009 294.708 122.16 294.425 123.238 293.635Z" fill="#B7B7B7"/>
<path d="M163.145 259.014L158.539 258.299C158.539 258.299 158.65 251.657 158.99 244.785C159.323 237.975 159.878 230.934 160.76 229.915C162.583 227.816 166.268 228.201 167.575 230.3C167.732 230.543 167.856 230.82 167.934 231.117C168.581 233.574 163.145 259.014 163.145 259.014Z" fill="#525252"/>
<path d="M167.561 230.3C167.189 230.151 166.804 230.03 166.405 229.962C165.026 229.699 163.485 230.037 162.524 231.096C161.819 231.886 161.512 232.966 161.244 234.012C160.336 237.57 159.617 241.167 158.977 244.785C159.31 237.975 159.865 230.934 160.747 229.915C162.576 227.816 166.261 228.207 167.561 230.3Z" fill="#797876"/>
<path d="M171.637 261.147C171.252 264.367 165.62 274.532 165.62 274.532L150.704 273.135C150.704 273.135 149.653 266.662 149.62 261.917C149.594 259.406 149.855 257.374 150.704 257.063C152.776 256.307 166.679 257.455 170.605 259.777C170.612 259.777 170.618 259.777 170.625 259.79C171.324 260.216 171.696 260.661 171.637 261.147Z" fill="#6394C7"/>
<path d="M170.611 259.777C169.86 259.5 169.05 259.345 168.272 259.197C164.006 258.407 159.707 257.631 155.369 257.725C153.872 257.759 152.265 257.948 151.161 258.987C150.371 259.743 149.966 260.83 149.632 261.883C149.632 261.89 149.626 261.903 149.626 261.91C149.6 259.399 149.861 257.367 150.71 257.057C152.775 256.301 166.678 257.455 170.611 259.777Z" fill="#95C3E6"/>
<path d="M157.473 257.779C157.467 257.34 157.493 256.841 157.826 256.564C158.009 256.409 158.257 256.368 158.493 256.335C159.78 256.152 161.086 256.173 162.367 256.402C163.184 256.544 164.118 256.908 164.327 257.739C164.425 258.137 164.32 258.562 164.203 258.96C163.595 260.925 162.55 262.707 161.511 264.462C160.819 265.629 159.747 268.08 158.669 267.897C157.722 267.735 157.5 260.769 157.473 257.779Z" fill="#5174A8"/>
<path d="M147.079 272.346C146.942 271.9 146.805 271.461 146.674 271.016C146.504 270.726 146.53 270.496 146.752 270.327C146.837 270.179 146.929 269.983 147.02 269.848C147.17 269.625 147.425 269.524 147.674 269.45C148.079 269.328 148.268 269.274 148.451 268.822C148.549 268.579 148.556 268.323 148.634 268.073C148.719 267.796 148.876 267.553 149.026 267.31C149.326 266.824 149.529 266.547 150.11 266.406C150.522 266.304 150.934 266.19 151.352 266.291C151.855 266.412 152.188 266.628 152.404 267.114C152.711 267.796 153.031 268.417 153.854 268.262C154.475 268.147 155.187 267.533 155.84 267.958C156.376 268.302 156.311 269.335 156.592 269.841C156.742 270.111 156.944 270.233 157.238 270.307C157.813 270.449 158.329 270.078 158.885 270.118C159.708 270.179 159.597 270.867 159.721 271.475C159.76 271.677 159.721 271.947 159.826 272.13C159.943 272.346 160.368 272.629 160.583 272.73C160.799 272.832 161.021 272.879 161.243 272.784C161.505 272.67 161.675 272.413 161.969 272.346C162.302 272.271 162.596 272.433 162.922 272.46C163.275 272.487 163.641 272.379 163.929 272.157C164.765 271.509 164.941 270.213 166.176 270.172C166.653 270.159 167.11 270.381 167.587 270.354C167.992 270.334 168.26 270.01 168.6 269.835C169.103 269.565 169.894 269.983 170.325 270.3C170.684 270.57 170.854 271.171 170.926 271.596C171.063 272.42 170.736 273.311 170.403 274.033C170.658 274.29 171.364 274.526 171.109 275.073C171.017 275.268 170.763 275.302 170.56 275.336C170.116 275.403 169.652 275.356 169.201 275.403C168.724 275.457 168.208 275.518 167.724 275.457C167.208 275.39 166.666 275.208 166.156 275.086C165.791 275.005 165.405 274.951 165.039 275.025C164.543 275.127 164.092 275.113 163.589 275.113C162.798 275.113 162.086 274.654 161.302 274.56C160.394 274.445 159.407 274.539 158.486 274.546C157.748 274.553 157.173 274.033 156.487 273.804C155.775 273.561 155.108 273.466 154.364 273.466C154.044 273.466 153.691 273.507 153.384 273.439C153.05 273.365 152.763 273.291 152.417 273.297C151.79 273.297 151.215 273.493 150.607 273.527C150.306 273.54 150.065 273.378 149.777 273.358C149.47 273.338 149.15 273.304 148.843 273.304C148.484 273.297 148.137 273.304 147.785 273.358C147.504 273.405 147.262 273.486 147.014 273.311C146.935 273.257 146.785 273.115 146.739 273.021C146.517 272.636 146.726 272.46 147.079 272.346Z" fill="#B7B7B7"/>
<path d="M239.321 87.6649C229.985 88.7226 218.385 88.4351 209.051 87.3625C205.047 76.1967 207.939 64.1757 208.735 52.2964L229.038 51.6531L239.321 87.6649Z" fill="#263238"/>
<path d="M233.492 50.2985C233.509 48.8061 232.417 47.5485 230.979 47.4041L217.926 41.0179C213.193 40.5414 208.35 49.2421 208.09 54.148C207.802 59.5986 208.405 66.1656 209.062 70.225C210.384 78.3885 215.701 78.6159 215.701 78.6159L215.082 106.416L232.465 91.9849L233.492 50.2985Z" fill="#FFE5D8"/>
<path d="M211.533 61.402C211.519 61.9555 211.961 62.4253 212.521 62.4516C213.079 62.4773 213.544 62.0514 213.559 61.4972C213.573 60.9437 213.132 60.4732 212.573 60.4476C212.014 60.4212 211.548 60.8485 211.533 61.402Z" fill="#263238"/>
<path d="M209.527 57.8834C209.638 57.9833 210.435 57.8618 211.497 58.1203C212.56 58.3701 213.291 58.8568 213.417 58.8136C213.479 58.796 213.375 58.6387 213.057 58.4221C212.745 58.2074 212.196 57.9388 211.535 57.7801C210.873 57.6222 210.294 57.6208 209.952 57.6796C209.603 57.7369 209.471 57.8375 209.527 57.8834Z" fill="#263238"/>
<path d="M221.314 60.638C221.299 61.1915 221.741 61.6613 222.3 61.6876C222.859 61.7132 223.324 61.2873 223.338 60.7331C223.353 60.1796 222.911 59.7098 222.353 59.6835C221.793 59.6565 221.328 60.0838 221.314 60.638Z" fill="#263238"/>
<path d="M220.291 58.6448C220.448 58.6839 221.145 58.121 222.287 57.7943C223.426 57.4588 224.373 57.5445 224.472 57.4311C224.521 57.3791 224.343 57.2779 223.927 57.236C223.519 57.1922 222.858 57.2252 222.147 57.4311C221.435 57.6383 220.885 57.9563 220.59 58.204C220.288 58.4544 220.214 58.6286 220.291 58.6448Z" fill="#263238"/>
<path d="M216.35 66.121C216.355 66.0569 215.675 65.9415 214.574 65.8058C214.295 65.7781 214.03 65.7234 213.982 65.5277C213.915 65.3198 214.029 65.0086 214.161 64.6725C214.418 63.9732 214.686 63.2401 214.968 62.472C216.088 59.3393 216.896 56.7642 216.774 56.719C216.651 56.6738 215.644 59.176 214.524 62.3086C214.255 63.0808 213.997 63.8173 213.752 64.522C213.649 64.85 213.47 65.2233 213.617 65.6539C213.694 65.8686 213.9 66.0231 214.079 66.0711C214.258 66.1257 214.415 66.1278 214.552 66.1345C215.66 66.1858 216.347 66.1851 216.35 66.121Z" fill="#263238"/>
<path d="M215.697 78.6158C215.697 78.6158 221.023 79.0046 226.27 75.685C226.27 75.685 223.748 81.7721 215.823 81.0755L215.697 78.6158Z" fill="#E9DDD6"/>
<path d="M216.56 68.8615C217.092 68.0178 217.905 67.4501 218.643 67.4062C219.156 67.3752 219.638 67.6027 219.881 68.1015C220.123 68.5996 220.083 69.3847 219.724 69.9787C219.32 70.6476 218.623 70.9236 218.078 70.8231C217.532 70.7225 217.105 70.3216 216.702 69.9179C216.591 69.8059 216.477 69.6891 216.421 69.5163C216.365 69.3442 216.38 69.1005 216.501 68.9236" fill="#E9DDD6"/>
<path d="M219.576 66.8736C219.398 66.8642 219.406 68.0886 218.398 68.9668C217.393 69.8476 216.128 69.7207 216.121 69.8922C216.104 69.9691 216.404 70.1278 216.937 70.1379C217.461 70.1521 218.223 69.9718 218.84 69.4346C219.455 68.8966 219.715 68.1831 219.751 67.6802C219.791 67.1679 219.657 66.8662 219.576 66.8736Z" fill="#263238"/>
<path d="M219.348 53.7226C219.487 54.0156 220.556 53.7483 221.846 53.7631C223.137 53.751 224.205 54.0203 224.344 53.7274C224.406 53.5876 224.197 53.3217 223.75 53.0733C223.307 52.8249 222.621 52.619 221.847 52.6177C221.074 52.6177 220.387 52.8222 219.943 53.0699C219.497 53.317 219.287 53.5836 219.348 53.7226Z" fill="#263238"/>
<path d="M209.169 55.4021C209.41 55.6552 210.341 55.3778 211.465 55.3508C212.588 55.2914 213.542 55.4966 213.758 55.2259C213.853 55.0943 213.7 54.8398 213.281 54.6029C212.869 54.3667 212.181 54.1777 211.409 54.2067C210.637 54.2371 209.971 54.478 209.584 54.7447C209.19 55.0133 209.062 55.2786 209.169 55.4021Z" fill="#263238"/>
<path d="M241.331 70.5929C240.694 66.96 238.708 55.3163 235.645 49.2184C232.583 43.1205 229.024 40.679 225.547 39.7523C222.07 38.8255 218.244 39.6308 216.692 41.0942C215.141 42.5576 215.324 47.0996 215.324 47.0996C215.324 47.0996 224.271 49.1374 227.139 54.0338C230.432 59.6586 231.246 62.497 231.246 62.497L232.324 65.5817C232.324 65.5817 232.974 81.7303 232.644 84.6963L242.628 87.2383C241.823 83.6959 241.968 74.2257 241.331 70.5929Z" fill="#263238"/>
<path d="M215.654 47.3622C215.654 47.3622 210.866 46.8789 209.157 52.478C208.383 55.0106 208.201 62.4052 208.201 62.4052C208.201 62.4052 207.089 56.528 207.313 53.2205C207.537 49.913 209.091 45.7186 211.518 43.3784C213.878 41.103 215.878 40.0257 220.143 40.2457C220.143 40.2457 218.166 40.9747 217.092 42.6561C216.554 43.4985 216.323 44.214 215.654 47.3622Z" fill="#263238"/>
<path d="M231.199 62.9284C231.269 61.1187 233.163 59.8902 234.69 60.7799C235.528 61.2686 236.176 62.2622 236.119 64.1832C235.967 69.3071 231.019 68.0921 231.015 67.9456C231.013 67.8552 231.119 65.0479 231.199 62.9284Z" fill="#FFE5D8"/>
<path d="M232.586 66.0526C232.608 66.0371 232.671 66.1181 232.815 66.1917C232.955 66.2632 233.198 66.3179 233.46 66.2261C233.99 66.0439 234.457 65.1988 234.508 64.276C234.535 63.8103 234.453 63.3628 234.304 62.9902C234.164 62.6101 233.937 62.3408 233.674 62.2841C233.414 62.2132 233.222 62.3705 233.158 62.5129C233.087 62.654 233.115 62.7573 233.089 62.7654C233.075 62.7775 232.985 62.6763 233.032 62.4657C233.055 62.3644 233.117 62.2456 233.236 62.1505C233.358 62.0539 233.535 62.0087 233.718 62.035C234.099 62.0749 234.433 62.4488 234.597 62.8579C234.782 63.2696 234.884 63.7725 234.854 64.2956C234.791 65.327 234.251 66.2774 233.527 66.4684C233.176 66.5515 232.888 66.434 232.742 66.3078C232.591 66.1762 232.568 66.0614 232.586 66.0526Z" fill="#E9DDD6"/>
<path d="M220.795 67.1861C220.705 67.2172 220.492 66.7663 219.976 66.5436C219.468 66.2999 219.003 66.4416 218.964 66.3519C218.946 66.312 219.046 66.2067 219.261 66.1419C219.474 66.0765 219.799 66.0785 220.113 66.2216C220.427 66.3647 220.648 66.6117 220.744 66.8176C220.844 67.0255 220.836 67.1733 220.795 67.1861Z" fill="#E9DDD6"/>
<path d="M221.325 67.1889C221.233 67.2179 221.061 66.8898 220.78 66.5577C220.505 66.2209 220.217 65.9961 220.258 65.9057C220.291 65.8179 220.707 65.9293 221.038 66.3282C221.37 66.7258 221.414 67.1679 221.325 67.1889Z" fill="#E9DDD6"/>
<path d="M210.513 61.4554C210.477 61.5452 210.29 61.5506 210.094 61.4669C209.899 61.3839 209.769 61.2435 209.805 61.1537C209.841 61.0639 210.028 61.0585 210.224 61.1422C210.42 61.2253 210.549 61.3657 210.513 61.4554Z" fill="#E9DDD6"/>
<path d="M229.648 262.785L230.994 278.738L228.537 291.674C228.36 292.606 228.984 293.499 229.896 293.618C230.407 293.685 230.914 293.496 231.263 293.103C233.478 290.608 241.583 281.386 241.421 280.224C241.234 278.879 241.083 263.298 241.083 263.298L229.648 262.785Z" fill="#064E3B"/>
<path d="M229.895 293.618L241.353 279.146L241.395 279.823C241.431 280.408 241.268 280.989 240.928 281.459C240.02 282.716 237.439 286.132 231.308 293.101C230.951 293.506 230.419 293.701 229.895 293.618Z" fill="#263238"/>
<g opacity="0.6">
<path d="M237.858 274.201C237.488 274.503 237.399 275.118 237.676 275.513C237.953 275.907 238.557 276.006 238.932 275.71C239.307 275.415 239.437 274.681 239.118 274.32C238.8 273.96 238.085 273.884 237.789 274.264" fill="white"/>
</g>
<path d="M232.997 286.401C232.912 286.451 232.511 285.637 231.563 285.248C230.627 284.83 229.786 285.112 229.761 285.014C229.745 284.975 229.933 284.838 230.292 284.761C230.647 284.683 231.174 284.701 231.694 284.923C232.213 285.147 232.597 285.519 232.795 285.834C232.995 286.151 233.034 286.385 232.997 286.401Z" fill="#263238"/>
<path d="M232.028 288.614C231.958 288.688 231.43 288.201 230.615 288.018C229.804 287.815 229.123 288.014 229.092 287.916C229.043 287.838 229.766 287.449 230.692 287.675C231.619 287.89 232.106 288.566 232.028 288.614Z" fill="#263238"/>
<path d="M234.875 283.522C234.807 283.602 233.997 282.85 232.755 282.449C231.518 282.029 230.435 282.155 230.426 282.049C230.396 281.965 231.531 281.666 232.859 282.114C234.19 282.548 234.947 283.472 234.875 283.522Z" fill="#263238"/>
<path d="M234.861 278.637C234.825 278.736 233.948 278.423 232.833 278.456C231.718 278.472 230.855 278.822 230.815 278.726C230.768 278.65 231.628 278.125 232.826 278.104C234.024 278.072 234.905 278.559 234.861 278.637Z" fill="#263238"/>
<path d="M234.58 273.943C234.538 274.039 233.646 273.563 232.474 273.696C231.3 273.803 230.516 274.449 230.456 274.364C230.429 274.333 230.585 274.121 230.929 273.884C231.269 273.647 231.809 273.412 232.44 273.346C233.071 273.283 233.646 273.405 234.025 273.568C234.407 273.73 234.601 273.907 234.58 273.943Z" fill="#263238"/>
<path d="M232.444 272.802C232.424 272.803 232.376 272.59 232.385 272.198C232.395 271.809 232.469 271.232 232.751 270.584C232.9 270.277 233.051 269.883 233.469 269.644C233.677 269.523 234 269.544 234.197 269.743C234.391 269.937 234.465 270.196 234.486 270.449C234.533 271.464 233.751 272.501 232.656 272.72C231.555 272.919 230.51 272.332 230.017 271.485C229.906 271.264 229.823 270.991 229.926 270.713C230.027 270.433 230.335 270.303 230.558 270.328C231.022 270.368 231.329 270.622 231.611 270.808C232.172 271.215 232.531 271.659 232.744 271.98C232.959 272.302 233.034 272.506 233.016 272.516C232.964 272.562 232.576 271.758 231.477 271.015C231.202 270.846 230.882 270.63 230.55 270.62C230.388 270.615 230.253 270.69 230.204 270.828C230.153 270.961 230.198 271.159 230.292 271.332C230.708 272.023 231.664 272.559 232.593 272.375C233.517 272.2 234.204 271.288 234.173 270.47C234.163 270.273 234.1 270.079 233.992 269.968C233.884 269.86 233.73 269.838 233.591 269.907C233.298 270.052 233.117 270.401 232.969 270.692C232.39 271.909 232.514 272.813 232.444 272.802Z" fill="#263238"/>
<path d="M216.354 262.069L216.581 275.304C216.581 275.304 203.636 279.986 203.447 282.436L228.3 282.904L228.767 262.268L216.354 262.069Z" fill="#064E3B"/>
<path d="M224.29 274.336C224.769 274.481 225.091 275.046 224.971 275.545C224.851 276.046 224.297 276.389 223.816 276.253C223.335 276.117 222.927 275.451 223.102 274.968C223.275 274.485 223.946 274.118 224.382 274.37" fill="#E0E0E0"/>
<path d="M228.305 282.904L228.273 280.823L204.456 281.152C204.456 281.152 203.341 281.629 203.452 282.436L228.305 282.904Z" fill="#263238"/>
<path d="M216.182 275.166C216.184 275.291 216.79 275.359 217.38 275.774C217.98 276.172 218.279 276.721 218.391 276.674C218.503 276.651 218.336 275.898 217.613 275.41C216.894 274.914 216.158 275.049 216.182 275.166Z" fill="#263238"/>
<path d="M213.555 276.23C213.525 276.351 214.047 276.574 214.45 277.112C214.868 277.638 214.962 278.213 215.083 278.21C215.197 278.232 215.293 277.499 214.781 276.839C214.273 276.177 213.56 276.11 213.555 276.23Z" fill="#263238"/>
<path d="M212.016 279.425C212.126 279.454 212.305 278.831 212.006 278.138C211.712 277.444 211.144 277.161 211.091 277.265C211.02 277.367 211.382 277.743 211.62 278.315C211.87 278.881 211.896 279.411 212.016 279.425Z" fill="#263238"/>
<path d="M216.449 272.143C216.498 272.258 217.058 272.096 217.743 272.157C218.429 272.204 218.959 272.451 219.024 272.345C219.096 272.256 218.583 271.782 217.775 271.722C216.968 271.655 216.392 272.044 216.449 272.143Z" fill="#263238"/>
<path d="M252.658 153.777C252.658 153.777 253.119 165.522 252.895 171.059C252.672 176.596 242.505 217.552 242.505 217.552L243.031 271.715L227.23 271.186C227.23 271.186 222.961 215.833 223.184 215.142C223.408 214.45 223.178 200.838 223.178 200.838L227.122 170.156V154.469L252.658 153.777Z" fill="#455A64"/>
<path d="M199.042 151.867C199.042 151.867 198.426 163.927 198.859 170.848C199.293 177.769 208.671 215.602 208.671 215.602L214.893 271.186H228.822L227.122 171.079V154.469L199.042 151.867Z" fill="#455A64"/>
<g opacity="0.3">
<path d="M199.45 158.469C205.607 162.345 213.146 163.083 220.348 162.767C227.551 162.451 234.721 161.183 241.926 161.443C245.575 161.576 249.733 161.922 252.352 159.292C234.532 158.583 217.284 158.426 199.45 158.469Z" fill="black"/>
</g>
<path d="M227.247 167.757C227.253 167.759 227.234 167.848 227.193 168.019C227.146 168.207 227.082 168.459 227.001 168.78C226.831 169.448 226.556 170.426 226.275 171.706C225.677 174.254 224.931 177.976 224.339 182.627C223.11 191.918 222.569 204.928 223.736 219.202C224.712 233.493 225.996 246.396 226.895 255.737C227.342 260.394 227.705 264.169 227.958 266.8C228.075 268.092 228.165 269.103 228.229 269.81C228.255 270.141 228.275 270.4 228.29 270.594C228.302 270.771 228.305 270.861 228.299 270.862C228.293 270.862 228.278 270.773 228.256 270.597C228.232 270.405 228.201 270.146 228.16 269.817C228.082 269.111 227.969 268.103 227.826 266.814C227.548 264.185 227.148 260.414 226.655 255.762C225.694 246.427 224.373 233.524 223.396 219.226C222.228 204.937 222.807 191.89 224.1 182.592C224.724 177.937 225.508 174.215 226.146 171.672C226.446 170.395 226.742 169.421 226.935 168.759C227.029 168.442 227.104 168.193 227.159 168.008C227.212 167.84 227.242 167.755 227.247 167.757Z" fill="#263238"/>
<path d="M225.582 174.318C225.532 174.395 224.293 173.604 222.972 172.354C221.647 171.109 220.772 169.906 220.842 169.848C220.917 169.782 221.896 170.867 223.202 172.094C224.504 173.326 225.639 174.235 225.582 174.318Z" fill="#263238"/>
<path d="M205.711 88.4843L213.172 84.7253C219.799 86.7732 225.781 87.3874 228.994 81.8336C228.994 81.8336 238.499 80.2521 241.342 81.8336C244.185 83.4151 243.97 103.072 243.97 103.072L246.493 128.301C246.493 128.301 253.996 143.683 252.759 159.742L198.919 158.428C198.919 158.428 198.331 149.92 200.887 142.612C203.443 135.305 203.074 128.83 203.074 128.83L202.655 107.664L205.711 88.4843Z" fill="#064E3B"/>
<g opacity="0.3">
<path d="M208.959 134.718C212.483 132.078 215.58 128.83 218.082 125.149C219.135 123.601 220.088 121.969 221.327 120.574C222.565 119.18 224.143 118.013 225.951 117.71C228.784 117.236 231.492 118.913 233.903 120.521C236.57 122.3 239.236 124.078 241.903 125.856C242.582 126.309 243.302 126.777 244.11 126.826C244.917 126.875 246.082 126.873 246.153 126.041C244.895 125.388 241.739 123.257 239.904 121.793C237.165 119.61 234.257 118.073 231.518 115.89C230.25 114.878 228.89 113.717 228.609 112.087C228.51 111.515 228.54 110.876 228.189 110.422C227.731 109.827 226.868 109.842 226.135 109.91C224.694 110.044 223.19 110.2 221.974 111.01C220.294 112.13 219.54 114.223 218.801 116.143C216.287 122.678 212.74 128.788 208.345 134.158" fill="black"/>
</g>
<path d="M205.711 88.4843C205.711 88.4843 197.836 90.1158 196.304 102.091C194.774 114.066 190.318 129.748 192.942 134.718C193.681 136.116 196.174 138.841 197.616 139.389C201.813 140.983 206.252 137.401 209.079 133.823L217.07 121.496L218.749 118.24L210.255 112.553L205.17 118.046L205.711 88.4843Z" fill="#064E3B"/>
<path d="M239.784 81.3401C239.784 81.3401 247.572 82.1441 252.482 90.24C259.13 101.201 262.909 120.041 261.976 125.707C261.107 130.977 252.361 134.248 250.105 132.806C247.971 131.441 226.26 112.371 226.26 112.371L233.36 104.36L245.657 110.985L241.712 97.8526L239.784 81.3401Z" fill="#064E3B"/>
<path d="M208.344 104.204C208.459 104.212 208.284 106.819 207.875 110.001C207.675 111.525 207.495 112.904 207.343 114.072C207.199 115.112 207.116 115.756 207.068 115.754C206.953 115.746 207.128 113.139 207.538 109.957C207.737 108.433 207.917 107.054 208.069 105.886C208.213 104.846 208.296 104.202 208.344 104.204Z" fill="#263238"/>
<path d="M242.757 101.334C242.761 101.333 242.782 101.387 242.819 101.494C242.859 101.615 242.91 101.773 242.976 101.975C243.115 102.416 243.311 103.043 243.565 103.852C244.075 105.513 244.813 107.917 245.746 110.958L245.814 111.179L245.614 111.072C242.288 109.292 238.12 107.063 233.298 104.484L233.461 104.455C231.308 106.892 228.914 109.602 226.374 112.479L226.362 112.253C232.086 117.438 238.558 123.324 245.492 129.405C246.28 130.084 247.064 130.757 247.843 131.427C248.24 131.746 248.629 132.09 249.029 132.384C249.23 132.533 249.426 132.695 249.631 132.776C249.847 132.856 250.077 132.917 250.318 132.937C251.277 133.03 252.263 132.855 253.201 132.605C254.144 132.355 255.052 131.997 255.925 131.587C257.656 130.747 259.265 129.65 260.463 128.215C261.055 127.497 261.536 126.688 261.779 125.808C262.024 124.935 262.024 123.995 262.011 123.087C261.887 119.432 261.234 115.984 260.578 112.796C259.9 109.607 259.119 106.669 258.313 104.02C256.707 98.7179 254.948 94.5809 253.447 91.8923C252.695 90.5498 252.029 89.5555 251.524 88.9271C251.289 88.5977 251.068 88.3844 250.94 88.2204C250.806 88.0624 250.744 87.9753 250.744 87.9753C250.744 87.9753 251.059 88.2609 251.577 88.8819C252.102 89.4988 252.789 90.4856 253.562 91.8235C255.104 94.5026 256.903 98.6389 258.542 103.945C259.366 106.596 260.161 109.537 260.853 112.734C261.523 115.932 262.19 119.379 262.324 123.081C262.338 124.004 262.346 124.956 262.086 125.901C261.827 126.838 261.323 127.687 260.71 128.434C259.468 129.924 257.828 131.041 256.064 131.901C255.175 132.32 254.251 132.686 253.285 132.942C252.323 133.199 251.317 133.385 250.28 133.286C250.021 133.264 249.76 133.198 249.506 133.103C249.24 132.994 249.042 132.826 248.833 132.672C248.412 132.362 248.033 132.025 247.629 131.701C246.848 131.03 246.063 130.354 245.273 129.675C238.334 123.59 231.87 117.695 226.159 112.493L226.041 112.385L226.147 112.266C228.697 109.398 231.1 106.697 233.261 104.267L233.332 104.187L233.424 104.237C238.23 106.846 242.385 109.102 245.701 110.902L245.569 111.016C244.672 107.965 243.962 105.552 243.471 103.884C243.237 103.068 243.056 102.436 242.928 101.992C242.872 101.786 242.828 101.626 242.795 101.504C242.766 101.392 242.753 101.336 242.757 101.334Z" fill="#263238"/>
<path d="M253.54 110.916C253.478 111.005 251.959 109.866 249.858 108.911C247.763 107.941 245.927 107.54 245.949 107.434C245.958 107.39 246.428 107.434 247.173 107.608C247.917 107.782 248.93 108.102 249.997 108.59C251.062 109.08 251.972 109.642 252.594 110.096C253.218 110.549 253.565 110.881 253.54 110.916Z" fill="#263238"/>
<path d="M201.261 122.271C201.257 122.267 201.306 122.205 201.406 122.09C201.518 121.962 201.666 121.794 201.855 121.58C202.269 121.122 202.858 120.47 203.612 119.636C205.165 117.939 207.397 115.501 210.171 112.469L210.235 112.399L210.315 112.449C212.862 114.013 215.815 115.826 219.064 117.82L219.186 117.895L219.116 118.023C218.516 119.138 217.868 120.339 217.204 121.573L217.201 121.579L217.197 121.584C214.679 125.455 211.901 129.729 208.973 134.231L208.969 134.238L208.964 134.244C207.748 135.773 206.264 137.229 204.52 138.365C203.112 139.274 201.519 139.961 199.853 139.967C199.438 139.98 199.029 139.916 198.623 139.843C198.212 139.739 197.832 139.571 197.477 139.37C196.764 138.971 196.127 138.471 195.533 137.939C194.361 136.86 193.3 135.67 192.597 134.251C192.504 134.078 192.447 133.881 192.375 133.696C192.326 133.505 192.292 133.312 192.25 133.12L192.131 132.548C192.105 132.357 192.097 132.165 192.079 131.974C191.992 131.21 192.01 130.458 192.011 129.713C192.104 126.741 192.529 123.956 192.925 121.359C193.339 118.764 193.781 116.358 194.182 114.161C194.996 109.771 195.647 106.218 196.05 103.754C196.257 102.523 196.404 101.565 196.501 100.914C196.551 100.604 196.59 100.36 196.62 100.176C196.649 100.01 196.666 99.9248 196.672 99.9262C196.678 99.9268 196.672 100.013 196.654 100.181C196.633 100.366 196.605 100.611 196.569 100.924C196.493 101.578 196.368 102.54 196.181 103.776C195.818 106.248 195.202 109.811 194.418 114.206C194.033 116.405 193.605 118.813 193.203 121.405C192.819 123.998 192.407 126.78 192.324 129.721C192.325 130.454 192.309 131.199 192.397 131.941C192.414 132.126 192.422 132.315 192.449 132.499L192.565 133.046C192.604 133.228 192.637 133.414 192.683 133.594C192.751 133.764 192.8 133.941 192.89 134.105C193.556 135.447 194.606 136.629 195.752 137.679C196.916 138.686 198.245 139.723 199.853 139.617C201.424 139.613 202.966 138.956 204.341 138.067C206.044 136.959 207.508 135.524 208.704 134.023L208.695 134.036C211.632 129.54 214.419 125.273 216.944 121.407L216.937 121.418C217.607 120.187 218.258 118.988 218.863 117.876L218.916 118.078C215.678 116.064 212.736 114.234 210.197 112.655L210.341 112.635C207.534 115.635 205.276 118.048 203.705 119.727C202.931 120.542 202.328 121.179 201.903 121.627C201.705 121.83 201.549 121.991 201.431 122.113C201.323 122.221 201.265 122.275 201.261 122.271Z" fill="#263238"/>
<path d="M227.95 125.108C227.968 125.164 227.161 125.462 225.914 126.066C224.667 126.668 222.993 127.617 221.31 128.912C219.629 130.213 218.273 131.6 217.36 132.666C216.445 133.729 215.939 134.444 215.893 134.41C215.873 134.396 215.982 134.205 216.195 133.869C216.405 133.531 216.739 133.062 217.178 132.505C218.053 131.388 219.402 129.95 221.106 128.631C222.814 127.317 224.532 126.389 225.816 125.84C226.459 125.564 226.988 125.366 227.362 125.254C227.733 125.137 227.942 125.084 227.95 125.108Z" fill="#263238"/>
<path d="M211.039 113.159L210.29 108.228L206.761 104.225L207.185 97.91C207.185 97.91 208.482 97.4652 208.482 98.7106C208.482 99.9559 208.9 102.98 208.9 102.98L209.946 103.959L209.773 97.8331L212.442 94.3528C212.442 94.3528 213.475 95.2424 212.959 96.7544C212.442 98.2664 211.926 98.8888 211.926 98.8888L212.184 102.713H213.103V99.1554L217.005 93.908C217.005 93.908 217.436 94.2637 217.005 95.8648C216.574 97.4659 215.8 98.9779 215.8 98.9779L217.196 105.471L218.469 106.093L219.157 105.026L221.137 100.756C221.137 100.756 221.74 100.578 222.084 101.023C222.428 101.468 221.137 104.937 221.051 105.559C220.965 106.181 222.975 110.184 222.142 112.23L218.225 117.494L211.039 113.159Z" fill="#FFE5D8"/>
<path d="M214.405 88.7422V109.584H225.878V89.0729L214.405 88.7422Z" fill="#263238"/>
<path d="M225.878 93.1965C225.878 93.1965 227.725 93.1965 227.897 94.6194C228.069 96.0423 228.069 96.6653 229.274 98.0882C230.479 99.5111 231.77 100.756 232.029 103.78L232.298 105.305L227.122 110.985C227.122 110.985 218.566 110.807 217.506 110.451C216.446 110.096 215.413 109.206 215.413 109.206L214.208 105.471C214.208 105.471 214.648 104.628 215.419 105.716C216.188 106.804 217.506 108.05 217.506 108.05L220.065 108.316L221.268 107.694L216.533 105.559C216.533 105.559 213.089 103.602 213.089 103.157C213.089 102.713 213.24 101.684 213.24 101.684C213.24 101.684 212.659 100.934 213.089 99.9552C213.52 98.9765 215.241 99.9552 215.241 99.9552C215.241 99.9552 220.493 102.001 221.268 102.09C222.043 102.179 223.162 102.09 223.162 102.09L215.5 97.4645C215.5 97.4645 215.5 96.5748 217.05 96.9306C218.6 97.2863 223.248 99.154 224.109 99.3322C224.97 99.5104 225.878 98.8874 225.878 98.8874V93.1965H225.878Z" fill="#FFE5D8"/>
<path d="M225.878 93.1965C225.878 93.1965 225.888 93.3335 225.893 93.5853C225.898 93.8539 225.904 94.2211 225.912 94.6923C225.923 95.6724 225.938 97.0825 225.957 98.8888L225.958 98.9333L225.922 98.9569C225.619 99.154 225.281 99.3093 224.9 99.3997C224.523 99.503 224.082 99.4557 223.696 99.316C222.909 99.0683 222.083 98.7632 221.199 98.4466C220.316 98.1301 219.381 97.7885 218.389 97.4605C217.894 97.3012 217.382 97.1263 216.859 97.0244C216.6 96.9785 216.329 96.9556 216.085 97.0129C215.841 97.0582 215.642 97.2492 215.629 97.4645L215.565 97.3498C217.87 98.7335 220.46 100.287 223.238 101.955L223.671 102.214L223.174 102.245C222.518 102.285 221.864 102.323 221.167 102.231C220.477 102.073 219.852 101.833 219.19 101.607C217.881 101.141 216.546 100.637 215.185 100.113L215.177 100.109L215.164 100.102C214.891 99.9559 214.583 99.8277 214.274 99.7494C213.969 99.6751 213.63 99.6535 213.411 99.8081C213.217 99.96 213.111 100.336 213.098 100.651C213.088 100.974 213.196 101.323 213.372 101.577L213.416 101.64L213.406 101.71C213.344 102.161 213.279 102.632 213.259 103.087C213.208 103.159 213.451 103.355 213.609 103.485C213.785 103.629 213.977 103.763 214.17 103.897C214.947 104.425 215.776 104.922 216.615 105.405L216.602 105.398C217.729 105.907 218.931 106.448 220.144 106.995C220.545 107.175 220.943 107.355 221.336 107.533L221.67 107.683L221.345 107.851C220.94 108.061 220.54 108.267 220.142 108.473L220.098 108.496L220.049 108.491C219.189 108.401 218.336 108.312 217.49 108.223L217.433 108.217L217.393 108.178C216.816 107.621 216.27 107.048 215.763 106.439C215.505 106.144 215.281 105.78 215.048 105.536C214.926 105.419 214.785 105.325 214.666 105.334C214.553 105.326 214.425 105.434 214.355 105.552L214.367 105.415C214.775 106.683 215.175 107.928 215.569 109.152L215.519 109.076C215.927 109.415 216.373 109.722 216.831 109.97C217.061 110.094 217.296 110.204 217.536 110.285C217.765 110.351 218.022 110.383 218.279 110.416C219.311 110.525 220.338 110.579 221.342 110.631C223.353 110.729 225.286 110.79 227.124 110.836L227.018 110.883C228.905 108.824 230.641 106.93 232.211 105.218L232.18 105.326C232.085 104.777 232 104.283 231.916 103.801L231.915 103.795L231.914 103.789C231.829 102.781 231.614 101.836 231.242 101.017C230.876 100.194 230.361 99.5151 229.855 98.907C229.348 98.2995 228.841 97.75 228.488 97.15C228.121 96.5546 227.982 95.9073 227.921 95.3484C227.851 94.7881 227.853 94.2731 227.576 93.9491C227.321 93.6197 226.986 93.4672 226.723 93.374C226.182 93.1999 225.875 93.2147 225.878 93.1965C225.878 93.1965 226.184 93.1533 226.742 93.3126C227.015 93.3977 227.367 93.5421 227.651 93.8891C227.782 94.0639 227.904 94.2839 227.938 94.5418C227.982 94.7922 228.006 95.0548 228.046 95.3329C228.117 95.8884 228.259 96.4972 228.619 97.0676C228.968 97.6434 229.474 98.1787 229.992 98.7855C230.508 99.3909 231.044 100.081 231.43 100.927C231.821 101.77 232.05 102.742 232.144 103.77L232.143 103.759C232.23 104.24 232.318 104.734 232.418 105.282L232.429 105.343L232.387 105.39C230.827 107.112 229.101 109.016 227.226 111.086L227.183 111.134L227.119 111.133C225.277 111.095 223.343 111.042 221.329 110.951C220.32 110.902 219.294 110.852 218.244 110.744C217.982 110.71 217.716 110.681 217.435 110.601C217.174 110.512 216.924 110.396 216.682 110.267C216.197 110.005 215.745 109.695 215.31 109.335L215.275 109.306L215.26 109.259C214.864 108.036 214.461 106.791 214.051 105.524L214.027 105.449L214.062 105.388C214.183 105.178 214.382 104.995 214.658 104.989C214.928 104.984 215.122 105.143 215.277 105.284C215.577 105.604 215.758 105.918 216.018 106.212C216.512 106.806 217.056 107.376 217.621 107.92L217.524 107.875C218.37 107.963 219.223 108.052 220.082 108.141L219.989 108.158C220.387 107.953 220.787 107.745 221.191 107.535L221.199 107.853C220.806 107.676 220.407 107.496 220.007 107.316C218.794 106.769 217.591 106.227 216.464 105.718L216.457 105.715L216.45 105.712C215.603 105.222 214.774 104.725 213.981 104.185C213.784 104.048 213.588 103.912 213.399 103.758C213.304 103.685 213.211 103.597 213.119 103.512C213.073 103.457 213.029 103.407 212.983 103.346C212.959 103.296 212.938 103.238 212.925 103.182C212.914 103.129 212.923 103.113 212.921 103.076C212.944 102.582 213.01 102.121 213.074 101.658L213.108 101.791C212.867 101.442 212.757 101.049 212.764 100.642C212.795 100.245 212.863 99.8378 213.217 99.5293C213.596 99.2775 214.007 99.3437 214.347 99.4193C214.695 99.5091 215.011 99.6414 215.318 99.8067L215.297 99.7966C216.653 100.323 217.987 100.831 219.289 101.298C219.937 101.523 220.595 101.772 221.212 101.916C221.844 102.003 222.516 101.971 223.148 101.934L223.083 102.223C220.313 100.541 217.731 98.9745 215.432 97.5786L215.364 97.5374L215.368 97.4632C215.388 97.0636 215.726 96.8125 216.023 96.7571C216.328 96.6889 216.621 96.7207 216.899 96.7706C217.453 96.8833 217.959 97.0615 218.458 97.2262C219.453 97.5644 220.386 97.9134 221.266 98.2381C222.147 98.5621 222.972 98.8759 223.746 99.1297C224.501 99.4483 225.266 99.1641 225.831 98.8179L225.796 98.8861C225.815 97.0588 225.83 95.6332 225.841 94.6417C225.848 94.1779 225.855 93.8168 225.859 93.5529C225.867 93.3133 225.873 93.1918 225.878 93.1965Z" fill="#E9DDD6"/>
<path d="M222.272 105.305C222.262 105.349 221.72 105.27 220.863 105.047C220.007 104.827 218.841 104.452 217.585 103.949C216.33 103.445 215.224 102.908 214.448 102.475C213.669 102.043 213.217 101.724 213.239 101.685C213.263 101.639 213.754 101.88 214.553 102.252C215.352 102.626 216.462 103.121 217.708 103.622C218.953 104.121 220.096 104.529 220.93 104.808C221.763 105.091 222.283 105.255 222.272 105.305Z" fill="#E9DDD6"/>
<path d="M223.335 107.467C223.384 107.547 223.127 107.776 222.738 107.753C222.348 107.731 222.117 107.474 222.175 107.4C222.229 107.317 222.469 107.39 222.757 107.402C223.043 107.423 223.29 107.379 223.335 107.467Z" fill="#E9DDD6"/>
<path d="M224.672 105.097C224.758 105.137 224.581 105.551 224.107 105.685C223.633 105.822 223.275 105.56 223.33 105.48C223.371 105.39 223.675 105.451 224.016 105.346C224.362 105.255 224.592 105.042 224.672 105.097Z" fill="#E9DDD6"/>
<path d="M226.259 101.851C226.337 101.903 226.18 102.227 225.797 102.331C225.414 102.437 225.123 102.235 225.165 102.15C225.2 102.058 225.443 102.069 225.709 101.992C225.978 101.924 226.184 101.789 226.259 101.851Z" fill="#E9DDD6"/>
<path d="M227.63 98.5134C227.642 98.6113 227.196 98.7497 226.646 98.8914C226.097 99.0311 225.64 99.1236 225.606 99.0318C225.574 98.942 225.994 98.6957 226.565 98.5505C227.135 98.4034 227.618 98.4182 227.63 98.5134Z" fill="#E9DDD6"/>
<path d="M233.426 67.7322C232.475 64.9863 231.599 62.0798 230.48 59.4021C230.28 58.9215 229.708 58.7244 229.518 58.239C228.056 54.4982 226.967 50.5292 224.693 47.2487C222.419 43.9682 218.544 41.4525 214.724 42.2895L216.147 47.9197C218.104 50.9551 222.351 52.0068 223.755 55.3521C224.65 57.4837 224.121 60.0082 224.89 62.1925C225.403 63.6532 226.458 64.8459 227.074 66.2634C227.937 68.2506 227.877 70.5166 227.803 72.6934C227.712 75.3212 227.622 77.9496 227.532 80.5774C227.483 81.9834 227.47 83.5116 228.284 84.6395C229.549 86.3925 232.589 86.4924 234.69 86.2285C235.611 86.113 236.681 86.1907 237.088 86.0995C237.088 86.0995 236.173 78.8474 236.117 78.4073C235.428 73.089 235.176 72.7845 233.426 67.7322Z" fill="#263238"/>
<path d="M238.451 79.9557C238.439 79.9543 238.442 79.7903 238.46 79.4778C238.483 79.1308 238.513 78.6779 238.549 78.1136C238.627 76.9297 238.762 75.2179 238.815 73.1004C238.861 70.9863 238.828 68.4524 238.35 65.7038C238.114 64.3315 237.742 62.914 237.204 61.5053C236.672 60.0946 235.966 58.6946 235.055 57.3973C234.157 56.0891 233.061 54.9835 231.884 54.0959C230.7 53.213 229.401 52.6095 228.136 52.1249C225.597 51.1765 223.194 50.5731 221.333 49.62C219.459 48.7067 218.142 47.5626 217.426 46.6237C216.694 45.6901 216.498 45.0442 216.498 45.0442C216.537 45.0205 216.776 45.6449 217.528 46.5359C218.263 47.4323 219.575 48.5224 221.436 49.3952C223.282 50.3064 225.671 50.8795 228.245 51.8211C229.526 52.3024 230.858 52.9119 232.079 53.8157C233.29 54.7223 234.415 55.8556 235.331 57.1914C236.262 58.5171 236.979 59.9441 237.515 61.3798C238.058 62.8135 238.429 64.2553 238.659 65.6471C239.125 68.4328 239.133 70.9863 239.055 73.1085C238.972 75.2341 238.8 76.9452 238.681 78.1264C238.618 78.688 238.567 79.1396 238.528 79.4845C238.489 79.7944 238.463 79.957 238.451 79.9557Z" fill="#E0E0E0"/>
<path d="M237.496 53.9879C237.439 54.0473 236.685 52.9369 234.932 51.8326C234.062 51.2831 232.952 50.7519 231.673 50.297C230.392 49.838 228.948 49.4634 227.415 49.0874C224.344 48.297 221.699 47.0793 219.944 45.9372C219.066 45.3681 218.396 44.8403 217.968 44.4367C217.536 44.0371 217.324 43.7873 217.337 43.7738C217.357 43.7529 217.599 43.9675 218.052 44.3314C218.502 44.6986 219.184 45.1899 220.068 45.7245C221.832 46.7978 224.459 47.9642 227.497 48.7465C229.024 49.1211 230.487 49.5099 231.778 49.9919C233.069 50.4698 234.19 51.0354 235.061 51.6233C235.931 52.2146 236.563 52.8019 236.945 53.2535C237.151 53.4661 237.275 53.6632 237.371 53.7854C237.462 53.9102 237.505 53.9798 237.496 53.9879Z" fill="#E0E0E0"/>
<path d="M233.371 85.7378C233.371 85.7378 232.803 85.4219 232.024 84.5477C231.251 83.6878 230.283 82.1974 229.895 80.0894C229.804 79.5642 229.756 79.006 229.755 78.4228C229.766 77.8389 229.836 77.2362 229.947 76.6226C230.17 75.3955 230.566 74.1312 230.842 72.7839C231.116 71.4494 231.224 69.9577 230.645 68.6036C230.08 67.2489 228.925 66.1406 228.292 64.6083C227.675 63.0666 227.682 61.45 227.405 59.9907C227.15 58.5232 226.54 57.2009 225.791 56.0689C225.041 54.9329 224.17 53.9683 223.314 53.1145C222.465 52.2451 221.59 51.5586 220.756 50.9511C219.09 49.7523 217.763 48.6973 217.042 47.7651C216.301 46.8512 216.118 46.2032 216.118 46.2032C216.157 46.1802 216.383 46.806 217.142 47.6754C217.881 48.5657 219.207 49.5721 220.895 50.7479C221.733 51.3379 222.648 52.0385 223.509 52.9032C224.382 53.7564 225.274 54.727 226.05 55.886C226.824 57.0382 227.464 58.4078 227.733 59.9265C228.017 61.4257 228.02 63.0228 228.606 64.4727C229.192 65.9144 230.345 67.0268 230.95 68.4659C231.566 69.9212 231.435 71.498 231.148 72.8514C230.858 74.223 230.454 75.4765 230.224 76.6793C230.109 77.28 230.035 77.8646 230.018 78.4289C230.012 78.9939 230.051 79.5359 230.132 80.0475C230.479 82.1029 231.392 83.5845 232.124 84.458C232.859 85.3463 233.398 85.7054 233.371 85.7378Z" fill="#E0E0E0"/>
<path d="M166.316 65V61.3636H167.085V62.864H168.646V61.3636H169.413V65H168.646V63.4979H167.085V65H166.316ZM171.265 65.0533C170.989 65.0533 170.75 64.9947 170.549 64.8775C170.349 64.7591 170.194 64.5946 170.086 64.3839C169.977 64.172 169.922 63.9264 169.922 63.647C169.922 63.3653 169.977 63.1191 170.086 62.9084C170.194 62.6965 170.349 62.532 170.549 62.4148C170.75 62.2964 170.989 62.2372 171.265 62.2372C171.54 62.2372 171.778 62.2964 171.978 62.4148C172.18 62.532 172.335 62.6965 172.444 62.9084C172.552 63.1191 172.607 63.3653 172.607 63.647C172.607 63.9264 172.552 64.172 172.444 64.3839C172.335 64.5946 172.18 64.7591 171.978 64.8775C171.778 64.9947 171.54 65.0533 171.265 65.0533ZM171.268 64.4673C171.394 64.4673 171.498 64.4318 171.582 64.3608C171.666 64.2886 171.73 64.1903 171.772 64.0661C171.816 63.9418 171.838 63.8003 171.838 63.6417C171.838 63.4831 171.816 63.3416 171.772 63.2173C171.73 63.093 171.666 62.9948 171.582 62.9226C171.498 62.8504 171.394 62.8143 171.268 62.8143C171.141 62.8143 171.035 62.8504 170.949 62.9226C170.863 62.9948 170.799 63.093 170.755 63.2173C170.712 63.3416 170.691 63.4831 170.691 63.6417C170.691 63.8003 170.712 63.9418 170.755 64.0661C170.799 64.1903 170.863 64.2886 170.949 64.3608C171.035 64.4318 171.141 64.4673 171.268 64.4673ZM173.568 65L172.826 62.2727H173.591L174.014 64.1051H174.039L174.479 62.2727H175.23L175.678 64.0945H175.701L176.116 62.2727H176.88L176.139 65H175.339L174.87 63.2848H174.836L174.367 65H173.568ZM179.891 62.2727V62.8409H178.249V62.2727H179.891ZM178.622 61.6193H179.378V64.1619C179.378 64.2318 179.389 64.2862 179.41 64.3253C179.431 64.3632 179.461 64.3898 179.499 64.4052C179.538 64.4206 179.583 64.4283 179.634 64.4283C179.669 64.4283 179.705 64.4253 179.74 64.4194C179.776 64.4123 179.803 64.407 179.822 64.4034L179.941 64.9663C179.903 64.9781 179.85 64.9917 179.781 65.0071C179.712 65.0237 179.629 65.0337 179.531 65.0373C179.348 65.0444 179.189 65.0201 179.051 64.9645C178.915 64.9089 178.809 64.8224 178.733 64.7053C178.658 64.5881 178.62 64.4401 178.622 64.2614V61.6193ZM181.587 65.0533C181.311 65.0533 181.073 64.9947 180.871 64.8775C180.671 64.7591 180.517 64.5946 180.408 64.3839C180.299 64.172 180.244 63.9264 180.244 63.647C180.244 63.3653 180.299 63.1191 180.408 62.9084C180.517 62.6965 180.671 62.532 180.871 62.4148C181.073 62.2964 181.311 62.2372 181.587 62.2372C181.863 62.2372 182.101 62.2964 182.301 62.4148C182.502 62.532 182.657 62.6965 182.766 62.9084C182.875 63.1191 182.929 63.3653 182.929 63.647C182.929 63.9264 182.875 64.172 182.766 64.3839C182.657 64.5946 182.502 64.7591 182.301 64.8775C182.101 64.9947 181.863 65.0533 181.587 65.0533ZM181.59 64.4673C181.716 64.4673 181.821 64.4318 181.905 64.3608C181.989 64.2886 182.052 64.1903 182.095 64.0661C182.138 63.9418 182.16 63.8003 182.16 63.6417C182.16 63.4831 182.138 63.3416 182.095 63.2173C182.052 63.093 181.989 62.9948 181.905 62.9226C181.821 62.8504 181.716 62.8143 181.59 62.8143C181.464 62.8143 181.357 62.8504 181.271 62.9226C181.186 62.9948 181.121 63.093 181.077 63.2173C181.035 63.3416 181.013 63.4831 181.013 63.6417C181.013 63.8003 181.035 63.9418 181.077 64.0661C181.121 64.1903 181.186 64.2886 181.271 64.3608C181.357 64.4318 181.464 64.4673 181.59 64.4673ZM166.302 72.0227V68.2727H167.048V68.7308H167.081C167.114 68.6574 167.162 68.5829 167.225 68.5071C167.289 68.4302 167.372 68.3662 167.474 68.3153C167.577 68.2633 167.705 68.2372 167.857 68.2372C168.056 68.2372 168.24 68.2893 168.408 68.3935C168.576 68.4964 168.71 68.6521 168.811 68.8604C168.911 69.0676 168.962 69.3274 168.962 69.6399C168.962 69.9441 168.913 70.201 168.814 70.4105C168.717 70.6188 168.585 70.7769 168.417 70.8846C168.25 70.9911 168.063 71.0444 167.855 71.0444C167.709 71.0444 167.584 71.0201 167.481 70.9716C167.379 70.9231 167.296 70.8621 167.23 70.7887C167.165 70.7141 167.116 70.639 167.081 70.5632H167.058V72.0227H166.302ZM167.042 69.6364C167.042 69.7985 167.065 69.94 167.11 70.0607C167.155 70.1815 167.22 70.2756 167.305 70.343C167.39 70.4093 167.494 70.4425 167.616 70.4425C167.739 70.4425 167.843 70.4087 167.928 70.3413C168.013 70.2726 168.078 70.1779 168.122 70.0572C168.167 69.9353 168.189 69.795 168.189 69.6364C168.189 69.4789 168.167 69.3404 168.124 69.2209C168.08 69.1013 168.015 69.0078 167.93 68.9403C167.845 68.8729 167.74 68.8391 167.616 68.8391C167.493 68.8391 167.388 68.8717 167.303 68.9368C167.219 69.0019 167.155 69.0942 167.11 69.2138C167.065 69.3333 167.042 69.4742 167.042 69.6364ZM170.222 67.3636V71H169.466V67.3636H170.222ZM171.606 71.0515C171.432 71.0515 171.277 71.0213 171.141 70.9609C171.005 70.8994 170.897 70.8088 170.818 70.6893C170.739 70.5685 170.7 70.4182 170.7 70.2383C170.7 70.0868 170.728 69.9595 170.784 69.8565C170.839 69.7536 170.915 69.6707 171.011 69.608C171.107 69.5452 171.216 69.4979 171.338 69.4659C171.461 69.4339 171.59 69.4115 171.725 69.3984C171.883 69.3819 172.011 69.3665 172.108 69.3523C172.205 69.3369 172.276 69.3144 172.32 69.2848C172.363 69.2552 172.385 69.2114 172.385 69.1534V69.1428C172.385 69.0303 172.35 68.9433 172.279 68.8817C172.209 68.8202 172.11 68.7894 171.981 68.7894C171.844 68.7894 171.736 68.8196 171.656 68.88C171.575 68.9392 171.522 69.0137 171.496 69.1037L170.796 69.0469C170.832 68.8812 170.902 68.7379 171.006 68.6172C171.11 68.4953 171.244 68.4018 171.409 68.3366C171.575 68.2704 171.766 68.2372 171.984 68.2372C172.136 68.2372 172.281 68.255 172.419 68.2905C172.559 68.326 172.682 68.381 172.79 68.4556C172.899 68.5302 172.985 68.6261 173.048 68.7433C173.11 68.8593 173.142 68.9983 173.142 69.1605V71H172.424V70.6218H172.403C172.359 70.707 172.301 70.7822 172.227 70.8473C172.154 70.9112 172.066 70.9615 171.963 70.9982C171.86 71.0337 171.741 71.0515 171.606 71.0515ZM171.823 70.5295C171.934 70.5295 172.032 70.5076 172.117 70.4638C172.203 70.4188 172.269 70.3584 172.318 70.2827C172.366 70.2069 172.391 70.1211 172.391 70.0252V69.7358C172.367 69.7512 172.334 69.7654 172.293 69.7784C172.253 69.7902 172.207 69.8015 172.156 69.8121C172.105 69.8216 172.055 69.8305 172.004 69.8388C171.953 69.8459 171.907 69.8524 171.865 69.8583C171.776 69.8713 171.699 69.892 171.633 69.9205C171.566 69.9489 171.515 69.9873 171.478 70.0359C171.441 70.0832 171.423 70.1424 171.423 70.2134C171.423 70.3164 171.46 70.3951 171.535 70.4496C171.611 70.5028 171.707 70.5295 171.823 70.5295ZM174.485 69.4233V71H173.729V68.2727H174.449V68.7539H174.481C174.542 68.5953 174.643 68.4698 174.785 68.3775C174.927 68.284 175.099 68.2372 175.302 68.2372C175.491 68.2372 175.656 68.2786 175.797 68.3615C175.938 68.4444 176.047 68.5627 176.126 68.7166C176.204 68.8693 176.243 69.0516 176.243 69.2635V71H175.486V69.3984C175.488 69.2315 175.445 69.1013 175.359 69.0078C175.272 68.9131 175.153 68.8658 175.002 68.8658C174.9 68.8658 174.81 68.8877 174.732 68.9315C174.655 68.9753 174.594 69.0392 174.551 69.1232C174.508 69.2061 174.486 69.3061 174.485 69.4233ZM178.29 68.2727V68.8409H176.647V68.2727H178.29ZM177.02 67.6193H177.776V70.1619C177.776 70.2318 177.787 70.2862 177.808 70.3253C177.83 70.3632 177.859 70.3898 177.897 70.4052C177.936 70.4206 177.981 70.4283 178.032 70.4283C178.068 70.4283 178.103 70.4253 178.139 70.4194C178.174 70.4123 178.201 70.407 178.22 70.4034L178.339 70.9663C178.301 70.9781 178.248 70.9917 178.18 71.0071C178.111 71.0237 178.027 71.0337 177.929 71.0373C177.747 71.0444 177.587 71.0201 177.45 70.9645C177.314 70.9089 177.208 70.8224 177.132 70.7053C177.056 70.5881 177.019 70.4401 177.02 70.2614V67.6193ZM180.717 71.0515C180.543 71.0515 180.388 71.0213 180.252 70.9609C180.116 70.8994 180.008 70.8088 179.929 70.6893C179.851 70.5685 179.812 70.4182 179.812 70.2383C179.812 70.0868 179.84 69.9595 179.895 69.8565C179.951 69.7536 180.027 69.6707 180.122 69.608C180.218 69.5452 180.327 69.4979 180.449 69.4659C180.572 69.4339 180.701 69.4115 180.836 69.3984C180.995 69.3819 181.123 69.3665 181.22 69.3523C181.317 69.3369 181.387 69.3144 181.431 69.2848C181.475 69.2552 181.497 69.2114 181.497 69.1534V69.1428C181.497 69.0303 181.461 68.9433 181.39 68.8817C181.32 68.8202 181.221 68.7894 181.092 68.7894C180.956 68.7894 180.847 68.8196 180.767 68.88C180.686 68.9392 180.633 69.0137 180.607 69.1037L179.908 69.0469C179.943 68.8812 180.013 68.7379 180.117 68.6172C180.221 68.4953 180.356 68.4018 180.52 68.3366C180.686 68.2704 180.878 68.2372 181.095 68.2372C181.247 68.2372 181.392 68.255 181.53 68.2905C181.67 68.326 181.794 68.381 181.902 68.4556C182.01 68.5302 182.096 68.6261 182.159 68.7433C182.222 68.8593 182.253 68.9983 182.253 69.1605V71H181.536V70.6218H181.514C181.471 70.707 181.412 70.7822 181.339 70.8473C181.265 70.9112 181.177 70.9615 181.074 70.9982C180.971 71.0337 180.852 71.0515 180.717 71.0515ZM180.934 70.5295C181.045 70.5295 181.143 70.5076 181.229 70.4638C181.314 70.4188 181.381 70.3584 181.429 70.2827C181.478 70.2069 181.502 70.1211 181.502 70.0252V69.7358C181.478 69.7512 181.446 69.7654 181.404 69.7784C181.364 69.7902 181.319 69.8015 181.268 69.8121C181.217 69.8216 181.166 69.8305 181.115 69.8388C181.064 69.8459 181.018 69.8524 180.976 69.8583C180.888 69.8713 180.81 69.892 180.744 69.9205C180.678 69.9489 180.626 69.9873 180.589 70.0359C180.553 70.0832 180.534 70.1424 180.534 70.2134C180.534 70.3164 180.572 70.3951 180.646 70.4496C180.722 70.5028 180.818 70.5295 180.934 70.5295ZM166.744 77.0462C166.627 77.0462 166.526 77.0047 166.442 76.9219C166.359 76.8378 166.318 76.7372 166.318 76.62C166.318 76.504 166.359 76.4046 166.442 76.3217C166.526 76.2389 166.627 76.1974 166.744 76.1974C166.858 76.1974 166.957 76.2389 167.042 76.3217C167.127 76.4046 167.17 76.504 167.17 76.62C167.17 76.6982 167.15 76.7698 167.11 76.8349C167.071 76.8988 167.019 76.9503 166.955 76.9893C166.891 77.0272 166.821 77.0462 166.744 77.0462ZM168.233 77.0462C168.116 77.0462 168.015 77.0047 167.931 76.9219C167.849 76.8378 167.807 76.7372 167.807 76.62C167.807 76.504 167.849 76.4046 167.931 76.3217C168.015 76.2389 168.116 76.1974 168.233 76.1974C168.347 76.1974 168.446 76.2389 168.532 76.3217C168.617 76.4046 168.659 76.504 168.659 76.62C168.659 76.6982 168.639 76.7698 168.599 76.8349C168.56 76.8988 168.508 76.9503 168.445 76.9893C168.381 77.0272 168.31 77.0462 168.233 77.0462ZM169.722 77.0462C169.605 77.0462 169.505 77.0047 169.421 76.9219C169.338 76.8378 169.296 76.7372 169.296 76.62C169.296 76.504 169.338 76.4046 169.421 76.3217C169.505 76.2389 169.605 76.1974 169.722 76.1974C169.836 76.1974 169.936 76.2389 170.021 76.3217C170.106 76.4046 170.149 76.504 170.149 76.62C170.149 76.6982 170.128 76.7698 170.088 76.8349C170.049 76.8988 169.998 76.9503 169.934 76.9893C169.87 77.0272 169.799 77.0462 169.722 77.0462ZM171.212 77.0462C171.095 77.0462 170.994 77.0047 170.91 76.9219C170.827 76.8378 170.786 76.7372 170.786 76.62C170.786 76.504 170.827 76.4046 170.91 76.3217C170.994 76.2389 171.095 76.1974 171.212 76.1974C171.325 76.1974 171.425 76.2389 171.51 76.3217C171.595 76.4046 171.638 76.504 171.638 76.62C171.638 76.6982 171.618 76.7698 171.578 76.8349C171.538 76.8988 171.487 76.9503 171.423 76.9893C171.359 77.0272 171.289 77.0462 171.212 77.0462ZM172.701 77.0462C172.584 77.0462 172.483 77.0047 172.399 76.9219C172.316 76.8378 172.275 76.7372 172.275 76.62C172.275 76.504 172.316 76.4046 172.399 76.3217C172.483 76.2389 172.584 76.1974 172.701 76.1974C172.815 76.1974 172.914 76.2389 172.999 76.3217C173.085 76.4046 173.127 76.504 173.127 76.62C173.127 76.6982 173.107 76.7698 173.067 76.8349C173.028 76.8988 172.976 76.9503 172.912 76.9893C172.848 77.0272 172.778 77.0462 172.701 77.0462Z" fill="black"/>
<path d="M20.1693 92.7901C26.6993 88.1027 35.4 86.7421 43.0062 89.2116C50.6125 91.6811 56.951 97.9249 59.6415 105.604C67.193 103.479 75.7751 105.715 81.3931 111.288C83.8464 99.2109 95.4017 89.7708 107.468 89.9758C119.534 90.1808 130.77 100.022 132.822 112.174C140.455 109.052 150.032 116.703 148.91 125.024C104.075 124.186 59.2219 124.847 14.4327 127C6.36132 120.393 6.50724 102.594 20.1693 92.7901Z" fill="#A3C1C9"/>
</svg>
