<svg width="320" height="320" viewBox="0 0 320 320" fill="none" xmlns="http://www.w3.org/2000/svg">
<path d="M301.647 243.846C301.688 243.846 302.432 240.574 302.452 240.357C302.735 237.887 301.881 232.931 299.463 231.768C299.056 231.587 298.618 231.498 298.176 231.506C297.734 231.515 297.298 231.621 296.898 231.818C296.498 232.015 296.142 232.299 295.853 232.65C295.564 233.001 295.348 233.411 295.221 233.856C294.615 235.719 295.476 237.973 296.468 239.512C297.645 241.318 301.647 243.846 301.647 243.846Z" fill="#263238"/>
<path d="M254.402 243.81C256.331 244.641 260.993 244.432 261 244.424C261.007 244.417 259.933 241.246 259.836 241.051C258.769 238.826 255.456 235.185 252.825 235.618C252.391 235.702 251.978 235.881 251.615 236.144C251.251 236.406 250.944 236.746 250.714 237.142C250.484 237.537 250.336 237.979 250.279 238.438C250.223 238.898 250.26 239.365 250.387 239.808C250.862 241.715 252.763 243.102 254.402 243.81Z" fill="#263238"/>
<path d="M256.324 257.955C258.314 258.215 262.453 256.857 262.784 256.748C263.517 259.236 264.41 261.669 265.456 264.03C266.055 265.41 266.702 266.775 267.37 268.141C266.978 267.563 266.62 267.057 266.565 266.985C264.974 265.135 260.862 262.542 258.431 263.691C258.034 263.893 257.682 264.181 257.398 264.535C257.114 264.889 256.904 265.302 256.782 265.747C256.66 266.192 256.628 266.658 256.689 267.117C256.751 267.575 256.903 268.015 257.136 268.408C258.073 270.12 260.256 270.922 262.012 271.153C263.769 271.384 267.357 270.301 268.293 269.997C268.548 270.525 268.803 271.045 269.065 271.565C270.325 274.057 271.592 276.542 272.756 279.013C273.169 279.887 273.548 280.761 273.927 281.635C273.576 281.122 273.279 280.696 273.238 280.638C271.64 278.789 267.529 276.195 265.105 277.337C264.707 277.539 264.354 277.827 264.069 278.182C263.784 278.536 263.574 278.95 263.451 279.395C263.328 279.84 263.296 280.308 263.357 280.767C263.417 281.227 263.569 281.668 263.803 282.061C264.74 283.766 266.923 284.568 268.686 284.799C270.449 285.03 273.679 284.077 274.795 283.701C275.153 284.611 275.518 285.514 275.834 286.41C276.034 287.031 276.268 287.609 276.434 288.238C276.599 288.866 276.792 289.473 276.964 290.087C277.26 291.272 277.57 292.493 277.832 293.656C278.025 294.465 278.19 295.238 278.355 296.018C277.956 295.151 277.136 293.453 277.053 293.323C275.745 291.243 272.054 288.028 269.478 288.772C269.055 288.908 268.665 289.136 268.332 289.44C267.999 289.745 267.731 290.12 267.545 290.54C267.36 290.961 267.26 291.417 267.254 291.881C267.247 292.344 267.334 292.804 267.508 293.23C268.197 295.064 270.263 296.213 271.936 296.719C273.817 297.275 277.942 296.639 278.458 296.553C278.734 297.846 278.989 299.103 279.209 300.295C279.829 303.574 280.27 306.435 280.586 308.689H282.363C281.991 306.377 281.475 303.394 280.752 299.955C280.476 298.64 280.159 297.246 279.822 295.816C281.056 295.266 282.259 294.641 283.424 293.945C284.801 295.462 288.341 297.196 288.796 297.412C288.348 298.648 287.9 299.847 287.46 300.966C286.261 304.029 285.139 306.637 284.223 308.689H286.137C286.957 306.724 287.914 304.354 288.892 301.58C289.36 300.323 289.829 298.98 290.27 297.586C290.772 297.687 294.884 298.467 296.785 297.976C298.506 297.528 300.579 296.451 301.316 294.645C301.505 294.226 301.607 293.769 301.616 293.305C301.625 292.841 301.54 292.381 301.368 291.953C301.196 291.526 300.94 291.141 300.616 290.825C300.293 290.508 299.91 290.267 299.491 290.116C296.95 289.285 293.162 292.377 291.792 294.407C291.709 294.53 290.972 295.939 290.524 296.827C290.71 296.264 290.903 295.715 291.089 295.122C291.468 293.966 291.812 292.796 292.191 291.51C292.356 290.896 292.515 290.282 292.68 289.654C292.845 289.025 292.969 288.361 293.114 287.71C293.431 286.193 293.672 284.64 293.892 283.065C294.856 283.412 298.313 284.59 300.09 284.423C301.867 284.257 304.064 283.52 305.056 281.845C305.301 281.459 305.467 281.024 305.542 280.567C305.616 280.111 305.599 279.643 305.489 279.194C305.38 278.744 305.182 278.325 304.908 277.961C304.634 277.598 304.29 277.299 303.899 277.084C301.509 275.856 297.322 278.305 295.676 280.104C295.572 280.212 294.526 281.642 293.968 282.437C294.092 281.491 294.216 280.544 294.312 279.583C294.581 276.817 294.774 273.999 295.001 271.189C295.063 270.329 295.132 269.47 295.201 268.61C295.545 268.74 299.622 270.236 301.612 270.055C303.382 269.889 305.586 269.159 306.578 267.483C306.825 267.099 306.992 266.664 307.067 266.207C307.143 265.751 307.126 265.282 307.018 264.833C306.909 264.384 306.711 263.964 306.437 263.6C306.163 263.236 305.819 262.937 305.428 262.723C303.038 261.495 298.844 263.943 297.198 265.735C297.074 265.872 295.572 267.902 295.214 268.473C295.366 266.58 295.531 264.702 295.772 262.853C296.079 260.358 296.539 257.887 297.15 255.455C297.308 255.513 301.564 257.088 303.596 256.9C305.366 256.734 307.57 256.004 308.561 254.328C308.808 253.944 308.975 253.509 309.051 253.053C309.127 252.596 309.11 252.128 309.001 251.678C308.893 251.229 308.695 250.809 308.421 250.445C308.147 250.081 307.803 249.782 307.411 249.568C305.021 248.34 300.827 250.789 299.181 252.58C299.071 252.703 297.928 254.263 297.398 255.022L297.267 254.957C297.942 252.525 298.827 250.163 299.911 247.899C300.497 246.642 301.116 245.472 301.743 244.359C302.508 244.735 306.013 246.425 307.866 246.461C309.718 246.498 311.908 246.028 313.065 244.475C313.351 244.12 313.562 243.707 313.684 243.261C313.807 242.816 313.839 242.348 313.778 241.889C313.717 241.429 313.564 240.989 313.33 240.595C313.096 240.202 312.785 239.865 312.418 239.606C310.173 238.118 305.751 240.068 303.926 241.665C303.83 241.751 302.907 242.748 302.253 243.485C302.542 242.979 302.838 242.459 303.121 241.99C304.202 240.205 305.29 238.645 306.268 237.265C306.833 236.492 307.356 235.821 307.852 235.156C308.782 235.156 312.542 234.918 314.174 234.072C315.806 233.227 317.569 231.725 317.921 229.788C318.017 229.337 318.022 228.868 317.935 228.414C317.848 227.96 317.67 227.53 317.414 227.153C317.158 226.776 316.83 226.459 316.449 226.223C316.069 225.988 315.646 225.839 315.207 225.786C312.556 225.541 309.491 229.398 308.568 231.71C308.492 231.912 307.583 235.163 307.632 235.163H307.687C307.205 235.77 306.681 236.427 306.13 237.157C305.125 238.515 303.995 240.047 302.88 241.816C301.655 243.705 300.535 245.666 299.526 247.69C298.388 249.953 297.443 252.317 296.702 254.755V254.841C296.702 254.025 296.619 251.735 296.592 251.562C296.241 249.098 294.174 244.554 291.55 244.106C291.112 244.043 290.666 244.078 290.242 244.208C289.817 244.338 289.424 244.561 289.087 244.862C288.75 245.162 288.478 245.534 288.287 245.953C288.097 246.372 287.993 246.828 287.983 247.292C287.866 249.257 289.264 251.193 290.607 252.407C292.129 253.765 296.302 255.029 296.633 255.13C295.938 257.63 295.404 260.176 295.035 262.752C294.808 264.247 294.629 265.764 294.464 267.288C294.464 266.566 294.415 265.945 294.402 265.843C294.044 263.38 291.977 258.836 289.354 258.388C288.915 258.325 288.469 258.36 288.045 258.49C287.62 258.62 287.227 258.843 286.89 259.143C286.553 259.444 286.281 259.816 286.09 260.235C285.9 260.654 285.797 261.11 285.786 261.574C285.669 263.539 287.067 265.475 288.417 266.689C289.767 267.902 293.32 269.065 294.257 269.354C294.202 269.939 294.14 270.525 294.085 271.11C293.816 273.92 293.568 276.723 293.245 279.461C293.128 280.429 292.983 281.375 292.838 282.35C292.838 281.722 292.79 281.194 292.783 281.115C292.425 278.652 290.359 274.108 287.735 273.66C287.297 273.597 286.851 273.631 286.426 273.761C286.002 273.891 285.608 274.114 285.271 274.415C284.935 274.716 284.662 275.088 284.472 275.507C284.282 275.925 284.178 276.382 284.168 276.846C284.051 278.81 285.449 280.746 286.799 281.953C288.148 283.159 291.351 284.221 292.466 284.575C292.294 285.536 292.122 286.504 291.909 287.465C291.75 288.093 291.64 288.715 291.447 289.336C291.254 289.957 291.096 290.571 290.924 291.185C290.545 292.341 290.166 293.54 289.767 294.667C289.498 295.447 289.23 296.191 288.961 296.935C289.085 295.975 289.292 294.089 289.292 293.93C289.219 291.74 288.612 289.606 287.529 287.732C287.531 287.49 287.512 287.248 287.473 287.01C287.409 286.551 287.254 286.111 287.017 285.72C286.78 285.329 286.467 284.994 286.099 284.738C285.73 284.481 285.315 284.309 284.879 284.233C284.443 284.156 283.996 284.177 283.569 284.293C281.007 285.066 279.471 289.834 279.402 292.327C279.402 292.471 279.519 294.075 279.615 295.079C279.471 294.501 279.34 293.93 279.188 293.331C278.899 292.146 278.569 290.968 278.224 289.719C278.038 289.112 277.845 288.505 277.653 287.884C277.46 287.263 277.219 286.641 276.964 286.013C276.427 284.568 275.814 283.123 275.166 281.678C276.158 281.404 279.657 280.385 281.048 279.215C282.439 278.045 283.892 276.166 283.837 274.202C283.84 273.74 283.751 273.283 283.575 272.86C283.399 272.437 283.14 272.057 282.816 271.745C282.491 271.433 282.108 271.197 281.691 271.05C281.274 270.903 280.832 270.85 280.394 270.893C277.749 271.254 275.573 275.719 275.111 278.175C275.111 278.326 274.967 280.118 274.919 281.108C274.526 280.248 274.133 279.388 273.706 278.529C272.474 276.058 271.151 273.602 269.85 271.139C269.443 270.416 269.058 269.629 268.665 268.877C269.016 268.784 273.204 267.664 274.76 266.356C276.138 265.193 277.604 263.308 277.515 261.336C277.517 260.875 277.427 260.418 277.25 259.996C277.074 259.574 276.815 259.195 276.491 258.884C276.167 258.573 275.784 258.337 275.367 258.19C274.95 258.044 274.509 257.991 274.071 258.034C271.434 258.388 269.251 262.86 268.796 265.309C268.796 265.497 268.596 268.076 268.583 268.74C267.715 267.071 266.868 265.41 266.096 263.727C265.035 261.468 264.115 259.139 263.342 256.756C263.507 256.712 267.887 255.564 269.478 254.227C270.855 253.064 272.322 251.179 272.267 249.207C272.27 248.745 272.181 248.288 272.005 247.865C271.829 247.442 271.57 247.062 271.246 246.75C270.921 246.438 270.538 246.202 270.121 246.055C269.704 245.908 269.262 245.855 268.824 245.898C266.179 246.259 264.003 250.731 263.548 253.18C263.514 253.339 263.383 255.311 263.342 256.25H263.19C262.484 253.828 261.981 251.345 261.689 248.831C261.517 247.451 261.42 246.115 261.358 244.822C262.191 244.692 266.007 244.099 267.556 243.037C269.106 241.975 270.697 240.328 270.848 238.371C270.9 237.91 270.858 237.444 270.726 237.001C270.594 236.559 270.375 236.151 270.082 235.803C269.79 235.456 269.431 235.177 269.029 234.984C268.627 234.792 268.191 234.69 267.749 234.686C265.091 234.737 262.432 238.927 261.744 241.311C261.709 241.441 261.468 242.806 261.31 243.796C261.31 243.211 261.255 242.611 261.248 242.048C261.207 239.938 261.296 238.002 261.386 236.268C261.448 235.293 261.517 234.412 261.592 233.596C262.357 233.018 265.387 230.706 266.296 229.03C267.205 227.354 267.901 225.107 267.171 223.294C267.015 222.86 266.774 222.465 266.463 222.135C266.153 221.806 265.779 221.549 265.367 221.381C264.954 221.213 264.513 221.138 264.072 221.162C263.63 221.185 263.198 221.306 262.804 221.517C260.463 222.853 259.946 227.852 260.387 230.301C260.422 230.518 261.379 233.754 261.42 233.726H261.468C261.379 234.513 261.289 235.365 261.214 236.29C261.09 238.002 260.959 239.938 260.952 242.069C260.923 244.351 261.022 246.633 261.248 248.903C261.495 251.45 261.956 253.969 262.625 256.431V256.517C262.198 255.838 260.924 253.974 260.814 253.844C259.223 251.995 255.112 249.402 252.681 250.543C252.283 250.745 251.93 251.033 251.645 251.388C251.36 251.742 251.15 252.156 251.027 252.601C250.904 253.047 250.872 253.514 250.933 253.974C250.993 254.433 251.145 254.874 251.379 255.267C252.357 256.922 254.54 257.731 256.324 257.955Z" fill="#263238"/>
<path opacity="0.3" d="M254.402 243.81C256.331 244.641 260.993 244.432 261 244.424C261.007 244.417 259.933 241.246 259.836 241.051C258.769 238.826 255.456 235.185 252.825 235.618C252.391 235.702 251.978 235.881 251.615 236.144C251.251 236.406 250.944 236.746 250.714 237.142C250.484 237.537 250.336 237.979 250.279 238.438C250.223 238.898 250.26 239.365 250.387 239.808C250.862 241.715 252.763 243.102 254.402 243.81Z" fill="#263238"/>
<path opacity="0.3" d="M301.647 243.846C301.688 243.846 302.432 240.574 302.452 240.357C302.735 237.887 301.881 232.931 299.463 231.768C299.056 231.587 298.618 231.498 298.176 231.506C297.734 231.515 297.298 231.621 296.898 231.818C296.498 232.015 296.142 232.299 295.853 232.65C295.564 233.001 295.348 233.411 295.221 233.856C294.615 235.719 295.476 237.973 296.468 239.512C297.645 241.318 301.647 243.846 301.647 243.846Z" fill="#263238"/>
<path opacity="0.3" d="M256.324 257.955C258.314 258.215 262.453 256.857 262.784 256.748C263.517 259.236 264.41 261.669 265.456 264.03C266.055 265.41 266.702 266.775 267.37 268.141C266.978 267.563 266.62 267.057 266.565 266.985C264.974 265.135 260.862 262.542 258.431 263.691C258.034 263.893 257.682 264.181 257.398 264.535C257.114 264.889 256.904 265.302 256.782 265.747C256.66 266.192 256.628 266.658 256.689 267.117C256.751 267.575 256.903 268.015 257.136 268.408C258.073 270.12 260.256 270.922 262.012 271.153C263.769 271.384 267.357 270.301 268.293 269.997C268.548 270.525 268.803 271.045 269.065 271.565C270.325 274.057 271.592 276.542 272.756 279.013C273.169 279.887 273.548 280.761 273.927 281.635C273.576 281.122 273.279 280.696 273.238 280.638C271.64 278.789 267.529 276.195 265.105 277.337C264.707 277.539 264.354 277.827 264.069 278.182C263.784 278.536 263.574 278.95 263.451 279.395C263.328 279.84 263.296 280.308 263.357 280.767C263.417 281.227 263.569 281.668 263.803 282.061C264.74 283.766 266.923 284.568 268.686 284.799C270.449 285.03 273.679 284.077 274.795 283.701C275.153 284.611 275.518 285.514 275.834 286.41C276.034 287.031 276.268 287.609 276.434 288.238C276.599 288.866 276.792 289.473 276.964 290.087C277.26 291.272 277.57 292.493 277.832 293.656C278.025 294.465 278.19 295.238 278.355 296.018C277.956 295.151 277.136 293.453 277.053 293.323C275.745 291.243 272.054 288.028 269.478 288.772C269.055 288.908 268.665 289.136 268.332 289.44C267.999 289.745 267.731 290.12 267.545 290.54C267.36 290.961 267.26 291.417 267.254 291.881C267.247 292.344 267.334 292.804 267.508 293.23C268.197 295.064 270.263 296.213 271.936 296.719C273.817 297.275 277.942 296.639 278.458 296.553C278.734 297.846 278.989 299.103 279.209 300.295C279.829 303.574 280.27 306.435 280.586 308.689H282.363C281.991 306.377 281.475 303.394 280.752 299.955C280.476 298.64 280.159 297.246 279.822 295.816C281.056 295.266 282.259 294.641 283.424 293.945C284.801 295.462 288.341 297.196 288.796 297.412C288.348 298.648 287.9 299.847 287.46 300.966C286.261 304.029 285.139 306.637 284.223 308.689H286.137C286.957 306.724 287.914 304.354 288.892 301.58C289.36 300.323 289.829 298.98 290.27 297.586C290.772 297.687 294.884 298.467 296.785 297.976C298.506 297.528 300.579 296.451 301.316 294.645C301.505 294.226 301.607 293.769 301.616 293.305C301.625 292.841 301.54 292.381 301.368 291.953C301.196 291.526 300.94 291.141 300.616 290.825C300.293 290.508 299.91 290.267 299.491 290.116C296.95 289.285 293.162 292.377 291.792 294.407C291.709 294.53 290.972 295.939 290.524 296.827C290.71 296.264 290.903 295.715 291.089 295.122C291.468 293.966 291.812 292.796 292.191 291.51C292.356 290.896 292.515 290.282 292.68 289.654C292.845 289.025 292.969 288.361 293.114 287.71C293.431 286.193 293.672 284.64 293.892 283.065C294.856 283.412 298.313 284.59 300.09 284.423C301.867 284.257 304.064 283.52 305.056 281.845C305.301 281.459 305.467 281.024 305.542 280.567C305.616 280.111 305.599 279.643 305.489 279.194C305.38 278.744 305.182 278.325 304.908 277.961C304.634 277.598 304.29 277.299 303.899 277.084C301.509 275.856 297.322 278.305 295.676 280.104C295.572 280.212 294.526 281.642 293.968 282.437C294.092 281.491 294.216 280.544 294.312 279.583C294.581 276.817 294.774 273.999 295.001 271.189C295.063 270.329 295.132 269.47 295.201 268.61C295.545 268.74 299.622 270.236 301.612 270.055C303.382 269.889 305.586 269.159 306.578 267.483C306.825 267.099 306.992 266.664 307.067 266.207C307.143 265.751 307.126 265.282 307.018 264.833C306.909 264.384 306.711 263.964 306.437 263.6C306.163 263.236 305.819 262.937 305.428 262.723C303.038 261.495 298.844 263.943 297.198 265.735C297.074 265.872 295.572 267.902 295.214 268.473C295.366 266.58 295.531 264.702 295.772 262.853C296.079 260.358 296.539 257.887 297.15 255.455C297.308 255.513 301.564 257.088 303.596 256.9C305.366 256.734 307.57 256.004 308.561 254.328C308.808 253.944 308.975 253.509 309.051 253.053C309.127 252.596 309.11 252.128 309.001 251.678C308.893 251.229 308.695 250.809 308.421 250.445C308.147 250.081 307.803 249.782 307.411 249.568C305.021 248.34 300.827 250.789 299.181 252.58C299.071 252.703 297.928 254.263 297.398 255.022L297.267 254.957C297.942 252.525 298.827 250.163 299.911 247.899C300.497 246.642 301.116 245.472 301.743 244.359C302.508 244.735 306.013 246.425 307.866 246.461C309.718 246.498 311.908 246.028 313.065 244.475C313.351 244.12 313.562 243.707 313.684 243.261C313.807 242.816 313.839 242.348 313.778 241.889C313.717 241.429 313.564 240.989 313.33 240.595C313.096 240.202 312.785 239.865 312.418 239.606C310.173 238.118 305.751 240.068 303.926 241.665C303.83 241.751 302.907 242.748 302.253 243.485C302.542 242.979 302.838 242.459 303.121 241.99C304.202 240.205 305.29 238.645 306.268 237.265C306.833 236.492 307.356 235.821 307.852 235.156C308.782 235.156 312.542 234.918 314.174 234.072C315.806 233.227 317.569 231.725 317.921 229.788C318.017 229.337 318.022 228.868 317.935 228.414C317.848 227.96 317.67 227.53 317.414 227.153C317.158 226.776 316.83 226.459 316.449 226.223C316.069 225.988 315.646 225.839 315.207 225.786C312.556 225.541 309.491 229.398 308.568 231.71C308.492 231.912 307.583 235.163 307.632 235.163H307.687C307.205 235.77 306.681 236.427 306.13 237.157C305.125 238.515 303.995 240.047 302.88 241.816C301.655 243.705 300.535 245.666 299.526 247.69C298.388 249.953 297.443 252.317 296.702 254.755V254.841C296.702 254.025 296.619 251.735 296.592 251.562C296.241 249.098 294.174 244.554 291.55 244.106C291.112 244.043 290.666 244.078 290.242 244.208C289.817 244.338 289.424 244.561 289.087 244.862C288.75 245.162 288.478 245.534 288.287 245.953C288.097 246.372 287.993 246.828 287.983 247.292C287.866 249.257 289.264 251.193 290.607 252.407C292.129 253.765 296.302 255.029 296.633 255.13C295.938 257.63 295.404 260.176 295.035 262.752C294.808 264.247 294.629 265.764 294.464 267.288C294.464 266.566 294.415 265.945 294.402 265.843C294.044 263.38 291.977 258.836 289.354 258.388C288.915 258.325 288.469 258.36 288.045 258.49C287.62 258.62 287.227 258.843 286.89 259.143C286.553 259.444 286.281 259.816 286.09 260.235C285.9 260.654 285.797 261.11 285.786 261.574C285.669 263.539 287.067 265.475 288.417 266.689C289.767 267.902 293.32 269.065 294.257 269.354C294.202 269.939 294.14 270.525 294.085 271.11C293.816 273.92 293.568 276.723 293.245 279.461C293.128 280.429 292.983 281.375 292.838 282.35C292.838 281.722 292.79 281.194 292.783 281.115C292.425 278.652 290.359 274.108 287.735 273.66C287.297 273.597 286.851 273.631 286.426 273.761C286.002 273.891 285.608 274.114 285.271 274.415C284.935 274.716 284.662 275.088 284.472 275.507C284.282 275.925 284.178 276.382 284.168 276.846C284.051 278.81 285.449 280.746 286.799 281.953C288.148 283.159 291.351 284.221 292.466 284.575C292.294 285.536 292.122 286.504 291.909 287.465C291.75 288.093 291.64 288.715 291.447 289.336C291.254 289.957 291.096 290.571 290.924 291.185C290.545 292.341 290.166 293.54 289.767 294.667C289.498 295.447 289.23 296.191 288.961 296.935C289.085 295.975 289.292 294.089 289.292 293.93C289.219 291.74 288.612 289.606 287.529 287.732C287.531 287.49 287.512 287.248 287.473 287.01C287.409 286.551 287.254 286.111 287.017 285.72C286.78 285.329 286.467 284.994 286.099 284.738C285.73 284.481 285.315 284.309 284.879 284.233C284.443 284.156 283.996 284.177 283.569 284.293C281.007 285.066 279.471 289.834 279.402 292.327C279.402 292.471 279.519 294.075 279.615 295.079C279.471 294.501 279.34 293.93 279.188 293.331C278.899 292.146 278.569 290.968 278.224 289.719C278.038 289.112 277.845 288.505 277.653 287.884C277.46 287.263 277.219 286.641 276.964 286.013C276.427 284.568 275.814 283.123 275.166 281.678C276.158 281.404 279.657 280.385 281.048 279.215C282.439 278.045 283.892 276.166 283.837 274.202C283.84 273.74 283.751 273.283 283.575 272.86C283.399 272.437 283.14 272.057 282.816 271.745C282.491 271.433 282.108 271.197 281.691 271.05C281.274 270.903 280.832 270.85 280.394 270.893C277.749 271.254 275.573 275.719 275.111 278.175C275.111 278.326 274.967 280.118 274.919 281.108C274.526 280.248 274.133 279.388 273.706 278.529C272.474 276.058 271.151 273.602 269.85 271.139C269.443 270.416 269.058 269.629 268.665 268.877C269.016 268.784 273.204 267.664 274.76 266.356C276.138 265.193 277.604 263.308 277.515 261.336C277.517 260.875 277.427 260.418 277.25 259.996C277.074 259.574 276.815 259.195 276.491 258.884C276.167 258.573 275.784 258.337 275.367 258.19C274.95 258.044 274.509 257.991 274.071 258.034C271.434 258.388 269.251 262.86 268.796 265.309C268.796 265.497 268.596 268.076 268.583 268.74C267.715 267.071 266.868 265.41 266.096 263.727C265.035 261.468 264.115 259.139 263.342 256.756C263.507 256.712 267.887 255.564 269.478 254.227C270.855 253.064 272.322 251.179 272.267 249.207C272.27 248.745 272.181 248.288 272.005 247.865C271.829 247.442 271.57 247.062 271.246 246.75C270.921 246.438 270.538 246.202 270.121 246.055C269.704 245.908 269.262 245.855 268.824 245.898C266.179 246.259 264.003 250.731 263.548 253.18C263.514 253.339 263.383 255.311 263.342 256.25H263.19C262.484 253.828 261.981 251.345 261.689 248.831C261.517 247.451 261.42 246.115 261.358 244.822C262.191 244.692 266.007 244.099 267.556 243.037C269.106 241.975 270.697 240.328 270.848 238.371C270.9 237.91 270.858 237.444 270.726 237.001C270.594 236.559 270.375 236.151 270.082 235.803C269.79 235.456 269.431 235.177 269.029 234.984C268.627 234.792 268.191 234.69 267.749 234.686C265.091 234.737 262.432 238.927 261.744 241.311C261.709 241.441 261.468 242.806 261.31 243.796C261.31 243.211 261.255 242.611 261.248 242.048C261.207 239.938 261.296 238.002 261.386 236.268C261.448 235.293 261.517 234.412 261.592 233.596C262.357 233.018 265.387 230.706 266.296 229.03C267.205 227.354 267.901 225.107 267.171 223.294C267.015 222.86 266.774 222.465 266.463 222.135C266.153 221.806 265.779 221.549 265.367 221.381C264.954 221.213 264.513 221.138 264.072 221.162C263.63 221.185 263.198 221.306 262.804 221.517C260.463 222.853 259.946 227.852 260.387 230.301C260.422 230.518 261.379 233.754 261.42 233.726H261.468C261.379 234.513 261.289 235.365 261.214 236.29C261.09 238.002 260.959 239.938 260.952 242.069C260.923 244.351 261.022 246.633 261.248 248.903C261.495 251.45 261.956 253.969 262.625 256.431V256.517C262.198 255.838 260.924 253.974 260.814 253.844C259.223 251.995 255.112 249.402 252.681 250.543C252.283 250.745 251.93 251.033 251.645 251.388C251.36 251.742 251.15 252.156 251.027 252.601C250.904 253.047 250.872 253.514 250.933 253.974C250.993 254.433 251.145 254.874 251.379 255.267C252.357 256.922 254.54 257.731 256.324 257.955Z" fill="#263238"/>
<path d="M189.424 26.7235H35.7977V302.62H189.424V26.7235Z" stroke="#263238" stroke-width="0.633213" stroke-linecap="round" stroke-linejoin="round"/>
<path d="M184.865 32.6832H40.35V296.661H184.865V32.6832Z" stroke="#263238" stroke-width="0.633213" stroke-linecap="round" stroke-linejoin="round"/>
<path d="M182.338 114.783H40.3498V120.815H182.338V114.783Z" stroke="#263238" stroke-width="0.633213" stroke-linecap="round" stroke-linejoin="round"/>
<path d="M114.226 213.99V296.589H108.468V213.99" stroke="#263238" stroke-width="0.633213" stroke-linecap="round" stroke-linejoin="round"/>
<path d="M108.468 207.951V120.823" stroke="#263238" stroke-width="0.633213" stroke-linecap="round" stroke-linejoin="round"/>
<path d="M114.226 207.951V120.823" stroke="#263238" stroke-width="0.633213" stroke-linecap="round" stroke-linejoin="round"/>
<path d="M108.468 114.784V32.6398H114.226V114.784" stroke="#263238" stroke-width="0.633213" stroke-linecap="round" stroke-linejoin="round"/>
<path d="M182.338 207.95H40.3498V213.982H182.338V207.95Z" stroke="#263238" stroke-width="0.633213" stroke-linecap="round" stroke-linejoin="round"/>
<path d="M178.418 207.951V120.823" stroke="#263238" stroke-width="0.633213" stroke-linecap="round" stroke-linejoin="round"/>
<path d="M178.419 114.783V32.6832H40.35V114.783V120.823V207.95V213.99V296.661H178.419V213.99" stroke="#263238" stroke-width="0.633213" stroke-linecap="round" stroke-linejoin="round"/>
<path d="M174.259 45.3829L129.687 92.1293" stroke="#263238" stroke-width="0.633213" stroke-linecap="round" stroke-linejoin="round"/>
<path d="M159.17 73.1878L147.283 85.6564" stroke="#263238" stroke-width="0.633213" stroke-linecap="round" stroke-linejoin="round"/>
<path d="M144.087 89.9763L139.06 95.2498" stroke="#263238" stroke-width="0.633213" stroke-linecap="round" stroke-linejoin="round"/>
<path d="M76.4304 158.539L55.4046 180.601" stroke="#263238" stroke-width="0.633213" stroke-linecap="round" stroke-linejoin="round"/>
<path d="M102.484 145.117L77.5735 171.246" stroke="#263238" stroke-width="0.633213" stroke-linecap="round" stroke-linejoin="round"/>
<path d="M96.5402 42.0237L70.4869 69.3521" stroke="#263238" stroke-width="0.633213" stroke-linecap="round" stroke-linejoin="round"/>
<path d="M75.9758 88.5314L70.0324 94.7657" stroke="#263238" stroke-width="0.633213" stroke-linecap="round" stroke-linejoin="round"/>
<path d="M167.399 180.601L161.001 187.312" stroke="#263238" stroke-width="0.633213" stroke-linecap="round" stroke-linejoin="round"/>
<path d="M169.225 153.749L131.739 193.069" stroke="#263238" stroke-width="0.633213" stroke-linecap="round" stroke-linejoin="round"/>
<path d="M139.514 279.374L158.488 259.479" stroke="#263238" stroke-width="0.633213" stroke-linecap="round" stroke-linejoin="round"/>
<path d="M59.0616 256.358L49.9157 265.951" stroke="#263238" stroke-width="0.633213" stroke-linecap="round" stroke-linejoin="round"/>
<path d="M297.955 28.5944H204.244V153.266H297.955V28.5944Z" stroke="#263238" stroke-width="0.633213" stroke-linecap="round" stroke-linejoin="round"/>
<path d="M294.401 33.3261H207.798V148.541H294.401V33.3261Z" stroke="#263238" stroke-width="0.633213" stroke-linecap="round" stroke-linejoin="round"/>
<path d="M274.099 60.3438H228.108V121.524H274.099V60.3438Z" stroke="#263238" stroke-width="0.633213" stroke-linecap="round" stroke-linejoin="round"/>
<path d="M66.3693 279.049C67.0501 276.572 67.5452 274.043 67.85 271.485C68.0125 270.211 68.0999 268.928 68.1117 267.642C68.1427 266.381 68.069 265.119 67.8913 263.871L67.7329 262.954L67.5332 261.978L67.1062 260.028C66.8307 258.72 66.5483 257.413 66.2935 256.084C66.0387 254.754 65.8183 253.411 65.6875 252.038C65.5573 250.67 65.5136 249.295 65.5566 247.921C65.5566 247.729 65.6292 247.545 65.7583 247.41C65.8875 247.274 66.0626 247.198 66.2453 247.198C66.428 247.198 66.6031 247.274 66.7323 247.41C66.8614 247.545 66.934 247.729 66.934 247.921C67.0224 250.53 67.4133 253.118 68.0979 255.629C68.4216 256.9 68.7866 258.179 69.1378 259.457L69.675 261.379L69.9436 262.347L70.1915 263.394C70.474 264.771 70.6422 266.17 70.6943 267.577C70.7735 268.963 70.7735 270.352 70.6943 271.738C70.5374 274.502 70.1689 277.249 69.5924 279.952C69.4847 280.385 69.2219 280.759 68.8585 280.994C68.4952 281.229 68.0593 281.309 67.6415 281.216C67.2237 281.123 66.8562 280.864 66.6154 280.494C66.3746 280.124 66.279 279.671 66.3486 279.229C66.3455 279.193 66.3455 279.157 66.3486 279.121L66.3693 279.049Z" fill="#064E3B" stroke="#263238" stroke-width="0.633213" stroke-linecap="round" stroke-linejoin="round"/>
<path d="M67.54 251.771C67.54 251.771 67.54 247.711 69.6888 245.457C71.8375 243.203 74.606 242.683 76.4311 242.467C78.3663 242.243 87.3193 243.875 87.3193 243.875C85.6215 246.473 83.5274 248.76 81.1211 250.644C77.2162 253.577 67.54 251.771 67.54 251.771Z" fill="#064E3B" stroke="#263238" stroke-width="0.633213" stroke-linecap="round" stroke-linejoin="round"/>
<path d="M79.4407 246.028C80.4257 245.781 81.4237 245.595 82.4296 245.472" stroke="#263238" stroke-width="0.633213" stroke-linecap="round" stroke-linejoin="round"/>
<path d="M67.54 251.771C70.6503 249.467 74.0879 247.692 77.7258 246.512" stroke="#263238" stroke-width="0.633213" stroke-linecap="round" stroke-linejoin="round"/>
<path d="M65.5566 247.921C65.5566 247.921 63.2081 242.026 59.255 240.314C55.3019 238.602 49.9921 242.741 49.9921 242.741C49.9921 242.741 52.3061 248.029 57.0787 248.744C59.927 249.176 62.8323 248.893 65.5566 247.921Z" fill="#064E3B" stroke="#263238" stroke-width="0.633213" stroke-linecap="round" stroke-linejoin="round"/>
<path d="M65.5566 247.921C65.5566 247.921 60.4809 244.598 56.2592 243.882L65.5566 247.921Z" fill="#064E3B"/>
<path d="M65.5566 247.921C65.5566 247.921 60.4809 244.598 56.2592 243.882" stroke="#263238" stroke-width="0.633213" stroke-linecap="round" stroke-linejoin="round"/>
<path d="M90.6457 275.126H47.072L52.0995 308.364H85.6183L90.6457 275.126Z" fill="#263238" stroke="#263238" stroke-width="0.633213" stroke-linecap="round" stroke-linejoin="round"/>
<path d="M187.455 241.954C187.455 241.954 169.694 239.158 161.436 237.352C155.121 235.972 146.003 233.502 146.003 233.502C146.003 233.502 125.576 224.486 123.648 224.833C121.719 225.18 115.982 230.944 115.982 230.944C115.982 230.944 127.194 246.541 127.69 246.44C128.186 246.339 142.449 242.828 142.449 242.828C142.449 242.828 174.563 262.614 180.479 264.579C186.394 266.544 189.59 267.295 189.59 267.295L187.455 241.954Z" fill="#FFEAE0" stroke="#263238" stroke-width="0.633213" stroke-linecap="round" stroke-linejoin="round"/>
<path d="M108.214 227.607C108.214 227.607 120.073 242.705 121.609 246.599C123.145 250.492 126.506 268.812 128.393 272.641C129.453 274.808 132.938 279.829 135.775 283.802C136.291 284.525 136.94 285.132 137.684 285.586C138.427 286.041 139.25 286.334 140.104 286.448C140.958 286.563 141.825 286.497 142.653 286.253C143.482 286.009 144.256 285.594 144.928 285.03L158.95 273.277C159.63 272.706 160.193 271.996 160.604 271.19C161.014 270.383 161.265 269.498 161.339 268.588C161.414 267.677 161.312 266.76 161.038 265.892C160.765 265.024 160.326 264.224 159.749 263.539L153.317 255.47C152.621 254.599 151.825 253.823 150.947 253.158C145.892 249.337 127.862 235.633 124.584 231.674C120.762 227.058 117.057 222.044 117.057 222.044L108.214 227.607Z" fill="#FFEAE0" stroke="#263238" stroke-width="0.633213" stroke-linecap="round" stroke-linejoin="round"/>
<path d="M109.977 229.565L118.083 223.937C117.913 223.482 117.866 222.985 117.947 222.504C118.029 222.022 118.235 221.573 118.544 221.206C119.619 220.065 121.299 217.11 120.066 215.066C118.834 213.022 109.908 212.538 106.375 215.254C102.842 217.97 97.0916 224.688 97.0916 224.688L101.003 229.854L105.611 227.13C105.611 227.13 108.31 229.297 109.977 229.565Z" fill="#999999" stroke="#263238" stroke-width="0.633213" stroke-linecap="round" stroke-linejoin="round"/>
<path d="M97.5392 225.317L95.2734 227.47L97.9043 230.915L100.335 228.813L97.5392 225.317Z" fill="#FFEAE0" stroke="#263238" stroke-width="0.633213" stroke-linecap="round" stroke-linejoin="round"/>
<path d="M94.1096 229.312L86.2723 231.71" stroke="#263238" stroke-width="0.633213" stroke-linecap="round" stroke-linejoin="round"/>
<path d="M91.4719 238.602L90.1909 240.617" stroke="#263238" stroke-width="0.633213" stroke-linecap="round" stroke-linejoin="round"/>
<path d="M95.7418 231.883L92.6771 236.702" stroke="#263238" stroke-width="0.633213" stroke-linecap="round" stroke-linejoin="round"/>
<path d="M110.438 230.41C110.438 230.41 107.615 231.594 107.959 233.675C108.303 235.755 110.411 236.846 110.411 236.846C110.411 236.846 117.126 236.427 117.298 235.495C117.47 234.564 116.155 233.104 114.901 232.656C113.795 232.3 112.671 232.011 111.533 231.79L110.438 230.41Z" fill="#FFEAE0" stroke="#263238" stroke-width="0.633213" stroke-linecap="round" stroke-linejoin="round"/>
<path d="M110.411 236.846C110.324 237.435 110.356 238.037 110.506 238.612C110.655 239.187 110.918 239.723 111.279 240.184C112.525 241.881 112.931 242.351 114.97 241.672C117.009 240.993 120.445 238.992 120.404 237.417C120.363 235.842 117.291 235.495 117.291 235.495C117.291 235.495 112.05 236.998 110.411 236.846Z" fill="#FFEAE0" stroke="#263238" stroke-width="0.633213" stroke-linecap="round" stroke-linejoin="round"/>
<path d="M113.331 242.192C113.331 242.192 113.496 244.525 114.963 244.944C116.43 245.363 118.517 244.301 119.495 243.68C120.473 243.059 122.98 240.682 122.47 238.855C121.96 237.027 119.874 238.753 119.874 238.753C119.874 238.753 116.258 241.665 113.331 242.192Z" fill="#FFEAE0" stroke="#263238" stroke-width="0.633213" stroke-linecap="round" stroke-linejoin="round"/>
<path d="M116.706 245.082C116.706 245.082 116.905 246.96 117.938 247.343C118.971 247.726 121.699 245.992 122.635 244.453C123.572 242.914 121.946 241.751 121.946 241.751C121.946 241.751 117.683 245.132 116.706 245.082Z" fill="#FFEAE0" stroke="#263238" stroke-width="0.633213" stroke-linecap="round" stroke-linejoin="round"/>
<path d="M144.487 234.152C144.487 234.152 128.227 222.875 126.161 221.539C124.095 220.202 121.692 221.777 120.934 222.666C118.939 224.493 116.685 225.984 114.254 227.087C112.188 227.809 110.197 228.763 111.637 229.832C113.076 230.901 115.294 231.277 117.752 230.814C119.915 230.301 122.034 229.602 124.088 228.727C124.088 228.727 126.733 237.15 132.463 236.875" fill="#FFEAE0"/>
<path d="M144.487 234.152C144.487 234.152 128.227 222.875 126.161 221.539C124.095 220.202 121.692 221.777 120.934 222.666C118.939 224.493 116.685 225.984 114.254 227.087C112.188 227.809 110.197 228.763 111.637 229.832C113.076 230.901 115.294 231.277 117.752 230.814C119.915 230.301 122.034 229.602 124.088 228.727C124.088 228.727 126.733 237.15 132.463 236.875" stroke="#263238" stroke-width="0.633213" stroke-linecap="round" stroke-linejoin="round"/>
<path d="M176.918 102.582C176.918 102.582 174.673 111.251 175.795 113.418C176.918 115.585 178.419 117.94 178.233 120.295C178.047 122.65 174.487 129.535 175.609 130.712C176.732 131.89 180.857 133.067 180.857 133.067C180.857 133.067 187.785 147.414 189.473 147.414C191.16 147.414 196.215 144.467 197.151 144.271C198.088 144.076 199.397 144.069 200.898 147.212C202.399 150.354 204.266 153.713 204.266 154.486C204.266 155.259 198.067 161.168 198.067 161.168C198.067 161.168 183.639 169.837 182.517 173.153C181.394 176.469 176.897 200.654 175.775 204.584C174.652 208.514 170.155 209.894 171.842 212.444C172.833 213.9 173.476 215.585 173.715 217.356C173.715 217.356 168.846 221.69 170.341 224.233C171.835 226.776 174.652 230.915 174.652 230.915C174.652 230.915 172.407 230.128 172.028 232.88C171.649 235.633 169.239 238.912 169.962 238.912C170.685 238.912 177.062 238.19 182.489 240.357C187.916 242.524 186.422 243.109 186.422 243.109L178.984 308.688H267.019L264.395 248.173C264.395 248.173 260.456 183.339 260.084 173.319C259.712 163.299 259.712 163.299 255.594 161.334C251.475 159.369 231.799 153.077 229.368 152.297C227.281 151.665 225.4 150.44 223.935 148.758C222.812 147.385 219.066 137.56 219.066 137.56C219.066 137.56 212.509 107.697 208.198 98.2622C203.887 88.8277 198.839 86.6678 190.209 90.0124C181.58 93.3571 178.791 98.0671 176.918 102.582Z" fill="#FFEAE0" stroke="#263238" stroke-width="0.633213" stroke-linecap="round" stroke-linejoin="round"/>
<path d="M186.725 308.689H217.578C217.633 293.107 218.06 215.688 220.753 199.448C223.301 184.061 231.008 160.287 233.246 153.547L229.369 152.297C228.949 152.16 228.556 152.001 228.17 151.835C224.431 158.647 208.887 186.236 203.143 185.896C196.587 185.499 200.636 158.64 200.636 158.64C200.636 158.64 193.405 171.347 190.209 183.534C187.014 195.721 188.143 223.222 188.143 223.222V251.121L186.725 308.689Z" fill="#FFEAE0" stroke="#263238" stroke-width="0.633213" stroke-linecap="round" stroke-linejoin="round"/>
<path d="M185.437 117.89C185.926 119.024 185.864 120.165 185.299 120.432C184.734 120.7 183.88 119.999 183.391 118.858C182.902 117.716 182.958 116.582 183.522 116.315C184.087 116.048 184.948 116.777 185.437 117.89Z" fill="#263238"/>
<path d="M180.106 112.833C180.106 112.833 180.857 110.471 184.238 111.453" stroke="#263238" stroke-width="1.26643" stroke-linecap="round" stroke-linejoin="round"/>
<path d="M184.975 134.021C186.149 134.14 187.329 133.862 188.34 133.226C189.352 132.59 190.142 131.63 190.595 130.488" stroke="#263238" stroke-width="0.633213" stroke-linecap="round" stroke-linejoin="round"/>
<path d="M186.47 243.067L178.984 308.689H188.915C188.963 298.699 189.362 227.6 190.409 217.92C191.387 208.861 198.736 168.898 200.636 158.64C199.293 159.991 198.088 161.139 198.088 161.139C198.088 161.139 183.66 169.808 182.537 173.124C181.415 176.44 176.918 200.626 175.795 204.556C174.673 208.485 170.175 209.865 171.863 212.415C172.854 213.871 173.496 215.556 173.736 217.328C173.736 217.328 168.867 221.662 170.361 224.205C171.856 226.748 174.673 230.887 174.673 230.887C174.673 230.887 172.427 230.1 172.049 232.852C171.67 235.604 169.259 238.884 169.983 238.884C170.706 238.884 175.12 241.297 180.533 241.773C186.353 242.272 186.47 243.067 186.47 243.067Z" fill="#064E3B" stroke="#263238" stroke-width="0.633213" stroke-linecap="round" stroke-linejoin="round"/>
<path d="M264.395 248.174C264.395 248.174 260.456 183.339 260.084 173.319C259.712 163.299 259.712 163.299 255.594 161.334C251.476 159.37 231.8 153.077 229.368 152.297C228.893 152.138 228.452 151.965 227.991 151.77C224.837 161.551 213.191 198.365 211.731 212.61C210.216 227.456 211.883 295.188 212.234 308.689H266.992L264.395 248.174Z" fill="#064E3B" stroke="#263238" stroke-width="0.633213" stroke-linecap="round" stroke-linejoin="round"/>
<path d="M243.225 275.422L222.337 276.881V279.807L249.63 277.763" fill="#064E3B"/>
<path d="M243.225 275.422L222.337 276.881V279.807L249.63 277.763" stroke="#263238" stroke-width="0.633213" stroke-linecap="round" stroke-linejoin="round"/>
<path d="M186.766 185.383C187.248 182.818 187.579 181.179 187.579 181.179" stroke="#263238" stroke-width="0.633213" stroke-linecap="round" stroke-linejoin="round"/>
<path d="M186.47 243.066C186.47 243.066 186.663 231.508 186.284 229.117C185.905 226.726 182.351 220.672 182.537 213.224C182.661 208.348 184.783 196.183 186.236 188.33" stroke="#263238" stroke-width="0.633213" stroke-linecap="round" stroke-linejoin="round"/>
<path d="M180.568 230.387C179.431 230.387 178.584 230.294 178.584 230.294" stroke="#263238" stroke-width="0.633213" stroke-linecap="round" stroke-linejoin="round"/>
<path d="M182.537 221.654C182.537 221.654 174.108 222.637 175.609 223.619C177.111 224.602 187.599 227.347 186.284 229.117C185.62 229.754 184.766 230.132 183.867 230.186" stroke="#263238" stroke-width="0.633213" stroke-linecap="round" stroke-linejoin="round"/>
<path d="M244.54 252.891C244.54 252.891 241.359 263.893 238.921 273.327C236.483 282.762 228.087 304.759 228.087 304.759L226.593 308.689H242.33C242.33 308.689 252.44 288.461 256.565 281.772C260.69 275.083 264.616 265.879 266.489 261.343L268.362 256.82L269.113 254.465L245.305 251.121L244.54 252.891Z" fill="#FFEAE0" stroke="#263238" stroke-width="0.633213" stroke-linecap="round" stroke-linejoin="round"/>
<path d="M237.798 188.843C237.798 188.843 241.544 217.92 241.93 220.672C242.316 223.425 238.934 227.347 239.685 229.514C240.436 231.682 247.949 238.183 247.736 238.747C247.522 239.31 243.431 240.914 243.989 243.262C244.547 245.609 245.677 248.961 245.677 248.961L244.554 252.891C244.554 252.891 248.115 255.058 255.415 256.229C262.715 257.399 269.65 257.016 270.029 256.034C270.408 255.051 269.278 245.429 269.278 243.854C269.278 242.279 269.278 240.314 270.779 238.552C272.281 236.789 273.025 234.427 271.716 231.082C270.896 228.935 270.329 226.691 270.029 224.4C270.029 224.4 274.526 217.898 273.397 214.38C272.267 210.862 267.405 206.13 267.405 204.953C267.405 203.775 265.718 173.89 264.223 167.814C262.729 161.739 246.048 158.777 246.048 158.777" fill="#064E3B"/>
<path d="M237.798 188.843C237.798 188.843 241.544 217.92 241.93 220.672C242.316 223.425 238.934 227.347 239.685 229.514C240.436 231.682 247.949 238.183 247.736 238.747C247.522 239.31 243.431 240.914 243.989 243.262C244.547 245.609 245.677 248.961 245.677 248.961L244.554 252.891C244.554 252.891 248.115 255.058 255.415 256.229C262.715 257.399 269.65 257.016 270.029 256.034C270.408 255.051 269.278 245.429 269.278 243.854C269.278 242.279 269.278 240.314 270.779 238.552C272.281 236.789 273.025 234.427 271.716 231.082C270.896 228.935 270.329 226.691 270.029 224.4C270.029 224.4 274.526 217.898 273.397 214.38C272.267 210.862 267.405 206.13 267.405 204.953C267.405 203.775 265.718 173.89 264.223 167.814C262.729 161.739 246.048 158.777 246.048 158.777" stroke="#263238" stroke-width="0.633213" stroke-linecap="round" stroke-linejoin="round"/>
<path d="M270.387 217.92C270.387 217.92 246.785 225.779 252.192 225.974C257.598 226.169 268.3 221.257 268.3 221.257" stroke="#263238" stroke-width="0.633213" stroke-linecap="round" stroke-linejoin="round"/>
<path d="M249.223 233.242C249.223 233.242 268.328 237.171 265.89 237.959C263.452 238.746 253.156 236.781 252.591 236.781" stroke="#263238" stroke-width="0.633213" stroke-linecap="round" stroke-linejoin="round"/>
<path d="M246.971 249.553C246.971 249.553 270.201 251.72 269.078 252.696C267.956 253.671 261.957 252.305 261.957 252.305" stroke="#263238" stroke-width="0.633213" stroke-linecap="round" stroke-linejoin="round"/>
<path d="M202.441 248.744C203.243 250.336 204.133 251.877 205.106 253.36" stroke="#263238" stroke-width="0.633213" stroke-linecap="round" stroke-linejoin="round"/>
<path d="M193.033 227.405C193.033 227.405 197.055 237.691 200.987 245.833" stroke="#263238" stroke-width="0.633213" stroke-linecap="round" stroke-linejoin="round"/>
<path d="M196.959 242.596C196.959 242.596 202.385 258.757 205.409 263.813" stroke="#263238" stroke-width="0.633213" stroke-linecap="round" stroke-linejoin="round"/>
<path d="M179.92 78.223C179.92 78.223 174.108 84.3128 171.863 92.1725C169.618 100.032 170.554 104.749 170.554 104.749L180.885 104.945L182.723 97.6627L183.66 104.735L188.157 105.32L190.223 100.986C190.223 100.986 190.974 103.341 192.847 110.218C194.72 117.095 197.716 121.813 198.467 132.222C198.864 138.835 198.232 145.472 196.594 151.872C196.594 151.872 202.028 152.269 218.887 149.704C235.746 147.14 242.674 143.022 244.919 142.632C246.787 142.418 248.672 142.418 250.539 142.632C247.57 136.702 245.246 130.44 243.611 123.965C241.366 114.336 239.3 99.2087 238.363 92.7288C237.426 86.2488 232.936 77.9918 222.069 71.5047C211.201 65.0175 194.906 67.3798 189.287 70.7173C185.862 72.7738 182.712 75.2977 179.92 78.223Z" fill="#263238" stroke="#263238" stroke-width="0.633213" stroke-linecap="round" stroke-linejoin="round"/>
<path d="M200.864 112.905C201.063 113.953 201.242 114.978 201.387 115.961" stroke="#999999" stroke-width="0.633213" stroke-linecap="round" stroke-linejoin="round"/>
<path d="M195.313 91.999C195.313 91.999 198.556 101.86 200.464 110.911" stroke="#999999" stroke-width="0.633213" stroke-linecap="round" stroke-linejoin="round"/>
<path d="M198.226 85.3819C198.956 85.129 206.49 101.188 207.461 111.135" stroke="#999999" stroke-width="0.633213" stroke-linecap="round" stroke-linejoin="round"/>
<path d="M213.549 97.5903C213.907 98.6884 214.238 99.8081 214.513 100.921" stroke="#999999" stroke-width="0.633213" stroke-linecap="round" stroke-linejoin="round"/>
<path d="M206.738 83.0774C209.178 87.0957 211.253 91.3451 212.936 95.7699" stroke="#999999" stroke-width="0.633213" stroke-linecap="round" stroke-linejoin="round"/>
<path d="M214.513 83.8431C214.513 83.8431 220.588 95.5677 221.07 102.199" stroke="#999999" stroke-width="0.633213" stroke-linecap="round" stroke-linejoin="round"/>
<path d="M223.742 97.7926C223.857 98.4061 223.94 99.026 223.99 99.6492" stroke="#999999" stroke-width="0.633213" stroke-linecap="round" stroke-linejoin="round"/>
<path d="M217.426 81.2931C217.426 81.2931 221.71 89.5573 223.37 96.1312" stroke="#999999" stroke-width="0.633213" stroke-linecap="round" stroke-linejoin="round"/>
<path d="M225.333 88.2714C226.993 91.3928 228.04 94.8318 228.411 98.385" stroke="#999999" stroke-width="0.633213" stroke-linecap="round" stroke-linejoin="round"/>
<path d="M219.823 80.0145C221.513 82.0309 223.021 84.2074 224.327 86.5161" stroke="#999999" stroke-width="0.633213" stroke-linecap="round" stroke-linejoin="round"/>
<path d="M234.072 98.5439C234.341 99.9887 234.554 101.498 234.685 102.965" stroke="#999999" stroke-width="0.633213" stroke-linecap="round" stroke-linejoin="round"/>
<path d="M230.305 85.1146C231.644 88.7099 232.744 92.3981 233.597 96.1528" stroke="#999999" stroke-width="0.633213" stroke-linecap="round" stroke-linejoin="round"/>
<path d="M179.514 81.2931C179.514 81.2931 175.864 86.6461 174.411 91.999" stroke="#999999" stroke-width="0.633213" stroke-linecap="round" stroke-linejoin="round"/>
<path d="M178.853 90.8937C178.444 91.7442 178.096 92.6256 177.813 93.5305" stroke="#999999" stroke-width="0.633213" stroke-linecap="round" stroke-linejoin="round"/>
<path d="M184.128 81.546C184.128 81.546 181.766 85.2013 179.872 88.8277" stroke="#999999" stroke-width="0.633213" stroke-linecap="round" stroke-linejoin="round"/>
<path d="M187.53 84.3488C187.53 84.3488 184.562 91.4211 183.646 94.5491" stroke="#999999" stroke-width="0.633213" stroke-linecap="round" stroke-linejoin="round"/>
<path d="M188.901 93.1042C188.674 93.8266 188.453 94.5852 188.26 95.3148" stroke="#999999" stroke-width="0.633213" stroke-linecap="round" stroke-linejoin="round"/>
<path d="M191.663 85.3818C191.663 85.3818 190.602 87.9825 189.548 91.1032" stroke="#999999" stroke-width="0.633213" stroke-linecap="round" stroke-linejoin="round"/>
<path d="M315.882 308.688H5.9021" stroke="#263238" stroke-width="0.633213" stroke-linecap="round" stroke-linejoin="round"/>
</svg>
