<svg width="320" height="320" viewBox="0 0 320 320" fill="none" xmlns="http://www.w3.org/2000/svg">
<path d="M306.771 259.505C306.771 259.505 322.949 115.947 298.392 81.8733C269.51 41.7977 198.08 43.258 163.214 71.7785C128.348 100.299 38.9952 59.2736 15.7 98.7793C-7.5952 138.285 18.3867 263.647 18.3867 263.647L306.771 259.505Z" fill="#C9DCE1"/>
<path d="M221.168 79.5102C224.906 78.8279 223.166 75.9151 225.983 74.6707C228.46 73.5764 231.706 74.7877 234.163 75.4673C239.325 76.895 237.645 73.0432 242.259 72.0596C246.001 71.2614 248.473 74.3725 251.028 75.604C254.791 77.4173 254.17 73.9398 258.323 73.9755C261.679 74.0045 264.156 76.7723 265.569 78.2249C267.657 80.3711 269.928 80.3778 273.667 80.6056C277.107 80.8152 280.344 82.3992 275.123 82.7631C272.285 82.9609 230.186 82.5809 220.861 82.1466C216.685 81.952 214.731 81.6067 214.317 80.2406C213.767 78.4242 218.942 79.9166 221.168 79.5102Z" fill="white"/>
<path d="M263.291 134.464C267.038 133.83 265.323 130.893 268.154 129.684C270.643 128.621 273.879 129.876 276.332 130.588C281.483 132.083 279.839 128.208 284.464 127.283C288.217 126.534 290.661 129.678 293.206 130.944C296.954 132.808 296.366 129.32 300.521 129.41C303.879 129.483 306.331 132.284 307.731 133.756C309.801 135.931 312.073 135.967 315.812 136.244C319.253 136.499 322.477 138.126 317.25 138.422C314.408 138.583 272.286 137.654 262.959 137.097C258.782 136.848 256.83 136.477 256.429 135.105C255.895 133.281 261.06 134.842 263.291 134.464Z" fill="white"/>
<path d="M7.92992 134.578C12.2308 133.671 10.2218 129.792 13.4611 128.136C16.3098 126.68 20.0473 128.295 22.8763 129.202C28.8188 131.105 26.8786 125.976 32.1853 124.668C36.4906 123.607 39.3414 127.751 42.2844 129.392C46.6178 131.809 45.8965 127.178 50.6762 127.228C54.5382 127.268 57.3934 130.955 59.0223 132.889C61.4295 135.748 64.0427 135.758 68.3458 136.064C72.3056 136.344 76.0338 138.456 70.0265 138.938C66.7608 139.2 18.3132 138.672 7.58178 138.088C2.77534 137.827 0.526018 137.366 0.047216 135.547C-0.588995 133.128 5.37016 135.117 7.92992 134.578Z" fill="white"/>
<path d="M101.955 112.51C109.315 112.648 105.204 108.786 108.328 108.071C111.465 107.353 113.559 109.967 116.529 108.597C119.68 107.143 121.16 104.574 125.079 105.536C126.419 105.864 128.416 108.691 129.889 108.703C131.635 108.717 131.693 106.291 133.431 106.528C136.999 107.014 137.207 108.836 139.26 110.636C140.575 111.789 143.397 113.105 145.178 112.986C146.341 112.908 147.736 115.273 143.429 115.276C135.767 115.281 110.128 114.65 101.182 114.758C100.1 114.77 97.4708 112.426 101.955 112.51Z" fill="white"/>
<path d="M44.6864 194.557C45.3792 192.72 47.1094 188.357 45.808 186.255C43.425 182.405 45.7743 176.605 48.0753 175.203C52.9089 172.26 51.6076 163.011 55.883 163.221C60.1589 163.431 58.7944 170.984 62.3916 173.018C66.4816 175.331 69.4631 180.595 67.1266 184.03C65.2675 186.763 70.1077 196.454 65.6463 201.92C63.0936 205.048 39.2955 208.852 44.6864 194.557Z" fill="#6FB590"/>
<path d="M53.616 255.154C53.7006 254.793 54.8248 177.028 54.8248 177.028H55.2488L56.4362 194.047L56.9452 195.911L58.1115 255.154C58.1115 255.154 56.2902 255.869 55.5386 255.799C54.9454 255.743 53.616 255.154 53.616 255.154Z" fill="#580D07"/>
<path d="M56.7973 196.036L63.8671 189.739L63.5913 189.613L55.9221 195.3L56.7973 196.036Z" fill="#580D07"/>
<path d="M49.2522 180.589L54.5537 186.738L54.5887 185.497L49.5069 180.375L49.2522 180.589Z" fill="#580D07"/>
<path d="M268.137 197.537C268.137 197.537 280.657 194.366 279.592 185.749C278.582 177.577 274.266 181.408 274.467 175.733C274.667 170.058 272.864 162.728 268.258 163.674C263.651 164.62 264.718 171.676 263.05 172.186C257.643 173.842 253.668 180.342 255.439 185.665C257.643 192.285 261.127 203.922 268.137 197.537Z" fill="#6FB590"/>
<path d="M268.756 250.744C268.691 250.467 268.043 175.769 268.043 175.769H267.718L266.806 188.832L266.416 190.263L265.305 250.744C265.305 250.744 266.688 251.04 267.265 250.987C267.72 250.944 268.756 250.744 268.756 250.744Z" fill="#580D07"/>
<path d="M266.4 190.755L259.063 182.749L259.268 182.558L267.03 189.317L266.4 190.755Z" fill="#580D07"/>
<path d="M271.275 179.706L268.163 184.76L268.136 183.808L271.079 179.541L271.275 179.706Z" fill="#580D07"/>
<path d="M278.283 247.18C277.323 245.017 276.762 242.341 275.32 240.948C273.23 238.929 270.523 240.612 268.173 241.818C264.98 243.457 261.446 244.114 258.135 242.915C256.102 242.179 255.835 242.227 253.905 243.378C252.16 244.417 250.302 245.079 248.416 244.883C240.602 244.071 235.253 229.405 227.455 230.518C221.593 231.355 217.736 240.913 211.964 242.668C205.307 244.693 199.594 235.895 193.283 232.115C177.837 222.864 160.98 244.518 144.568 240.576C135.121 238.307 126.598 227.641 117.11 229.481C109.785 230.901 103.662 239.65 96.2901 240.32C87.8207 241.089 74.9457 241.859 60.1524 236.099C51.2388 232.628 50.3409 248.505 34.4045 248.489C29.9299 248.484 22.7212 253.374 21.2124 259.725C26.8804 260.538 34.1159 257.04 39.8002 257.524C73.9118 260.428 108.599 261.378 142.758 262.412C161.269 262.972 178.425 261.841 196.94 261.852C211.644 261.86 226.717 262.683 241.421 262.692C254.003 262.698 263.976 262.101 276.553 261.572C281.761 261.353 285.057 259.726 294.615 261.26C294.911 261.076 295.211 260.88 295.454 260.565C296.195 259.604 296.183 257.822 295.79 256.473C294.957 253.617 292.845 252.059 290.797 251.617C288.749 251.174 286.665 251.607 284.597 251.513C282.528 251.419 280.329 250.679 278.916 248.399C278.682 248.022 278.474 247.611 278.283 247.18Z" fill="#6FB590"/>
<path d="M289.971 244.298C290.024 244.408 287.841 244.209 286.891 245.28C285.445 246.909 282.804 253.864 284.181 256.541C284.324 251.028 289.983 244.25 289.971 244.298Z" fill="#519F7D"/>
<path d="M60.1627 252.658C60.1627 252.658 63.0351 248.832 62.5651 243.85C59.6576 246.258 60.1627 252.658 60.1627 252.658Z" fill="#519F7D"/>
<path d="M53.6069 244.293C53.5543 244.403 55.7216 244.205 56.6647 245.268C58.1007 246.886 60.7227 253.792 59.3556 256.45C59.2135 250.976 53.5946 244.246 53.6069 244.293Z" fill="#519F7D"/>
<path d="M32.0926 247.297C32.0479 247.389 33.8824 247.222 34.6809 248.122C35.8963 249.491 38.1158 255.337 36.9587 257.587C36.8385 252.953 32.0825 247.256 32.0926 247.297Z" fill="#519F7D"/>
<path d="M161.883 270C239.95 270 303.236 265.301 303.236 259.505C303.236 253.709 239.95 249.01 161.883 249.01C83.8161 249.01 20.5303 253.709 20.5303 259.505C20.5303 265.301 83.8161 270 161.883 270Z" fill="#519F7D"/>
<path d="M139.713 252.687C145.16 251.45 141.001 253.576 149.209 253.136C156.097 252.769 164.178 252.329 170.751 251.972C177.95 251.583 183.335 251.294 183.335 251.294C183.085 250.854 175.276 242.281 172.312 244.29C168.892 246.619 164.893 248.954 161.828 249.011C154.168 249.15 150.147 247.711 147.714 245.993C144.276 243.566 139.106 252.825 139.713 252.687Z" fill="#519F7D"/>
<path d="M147.714 245.993C147.947 247.629 148.407 250.305 149.21 253.136C150.933 259.229 153.143 262.874 160.013 262.692C165.84 262.538 169.138 257.505 170.751 251.972C171.681 248.793 172.124 245.858 172.312 244.29C168.892 246.619 164.893 248.954 161.828 249.011C154.168 249.151 150.148 247.711 147.714 245.993Z" fill="#77614D"/>
<path d="M254.011 233.199C253.946 233.334 256.62 233.09 257.783 234.401C259.555 236.397 262.789 244.916 261.103 248.195C260.928 241.442 253.996 233.14 254.011 233.199Z" fill="#519F7D"/>
<path d="M223.913 237.725C223.93 237.804 222.957 237.762 222.226 238.361C218.885 241.095 217.609 245.34 218.061 247.271C219.063 243.648 223.929 237.694 223.913 237.725Z" fill="#519F7D"/>
<path d="M203.2 170.081C203.2 170.081 228.881 168.114 228.144 167.006C227.785 166.468 226.912 161.297 226.908 152.026C226.903 132.381 228.425 127.727 219.112 122.457C218.472 122.343 214.526 123.177 211.154 123.938C208.51 124.538 206.226 125.087 206.164 125.097C205.182 125.222 203.775 125.889 202.297 126.795C199.013 128.809 195.374 131.967 195.233 132.805C194.527 137.086 203.2 170.081 203.2 170.081Z" fill="#064E3B"/>
<path d="M204.923 133.127C204.079 133.127 203.189 132.868 202.569 132.002C202.529 131.947 202.536 131.863 202.583 131.817C202.629 131.77 202.7 131.777 202.739 131.832C204.142 133.793 207.213 132.327 207.244 132.311C207.3 132.283 207.366 132.315 207.389 132.383C207.413 132.45 207.386 132.527 207.329 132.555C207.252 132.593 206.135 133.127 204.923 133.127Z" fill="#B7CA79"/>
<path d="M202.297 126.795C202.854 128.705 204.135 131.682 206.594 131.128C209.247 130.527 210.624 126.153 211.154 123.938C208.51 124.538 206.226 125.087 206.165 125.097C205.182 125.222 203.775 125.889 202.297 126.795Z" fill="#FFE5D8"/>
<path d="M201.441 120.463L203.373 128.895C203.373 128.895 209.13 127.687 210.135 125.207C210.364 124.643 207.442 116.018 207.442 116.018L201.441 120.463Z" fill="#FFE5D8"/>
<path d="M201.938 122.683C203.062 122.209 205.563 119.817 205.563 119.817C205.563 119.817 205.122 122.666 202.318 124.215C202.213 123.799 202.099 123.288 201.938 122.683Z" fill="#AA7D5E"/>
<path d="M206.777 106.861L207.836 116.887C207.836 116.887 207.823 116.904 207.794 116.941C207.73 117.042 207.589 117.256 207.384 117.545C206.977 118.115 206.313 118.991 205.503 119.88C205.489 119.892 205.477 119.909 205.458 119.922C204.506 120.965 203.348 121.997 202.154 122.578C202.081 122.617 202.012 122.652 201.947 122.68C201.944 122.688 201.937 122.683 201.937 122.683C201.262 122.986 200.573 123.123 199.908 123.022C197.657 122.677 196.483 117.887 195.918 114.277C195.901 114.164 195.887 114.064 195.871 113.958C195.693 112.767 195.576 111.73 195.512 111.057C195.466 110.541 195.445 110.24 195.445 110.24L206.777 106.861Z" fill="#FFE5D8"/>
<path d="M197.34 114.969C197.437 115.284 197.354 115.61 197.153 115.696C196.953 115.782 196.712 115.596 196.615 115.281C196.517 114.966 196.601 114.64 196.801 114.554C197.001 114.468 197.242 114.654 197.34 114.969Z" fill="#634F3F"/>
<path d="M200.743 113.879C200.84 114.194 200.757 114.52 200.556 114.605C200.356 114.692 200.115 114.506 200.017 114.191C199.92 113.876 200.003 113.55 200.204 113.464C200.404 113.378 200.645 113.563 200.743 113.879Z" fill="#634F3F"/>
<path d="M198.783 118.062C198.604 118.062 198.41 118.007 198.218 117.855C197.861 117.571 197.927 117.247 198.17 116.041C198.221 115.785 198.282 115.486 198.349 115.135C198.361 115.067 198.417 115.026 198.476 115.039C198.534 115.055 198.57 115.122 198.557 115.19C198.49 115.542 198.429 115.842 198.378 116.099C198.143 117.266 198.11 117.465 198.337 117.646C198.9 118.091 199.471 117.511 199.496 117.485C199.54 117.44 199.607 117.445 199.646 117.497C199.685 117.549 199.681 117.628 199.637 117.674C199.631 117.68 199.255 118.062 198.783 118.062Z" fill="#634F3F"/>
<path d="M200.345 118.274C199.406 119.354 198.812 119.461 198.812 119.461C198.812 119.461 199.266 120.662 199.909 120.038C200.762 119.208 200.345 118.274 200.345 118.274Z" fill="white"/>
<path d="M205.654 104.458C204.302 102.386 202.539 103.978 202.351 103.807C201.399 102.939 199.284 102.971 198.483 104.032C197.037 105.951 196.317 104.749 194.882 105.346C191.545 106.735 194.356 111.304 196.237 111.229C197.179 111.191 197.978 110.394 198.857 109.994C199.736 109.594 200.79 109.424 201.576 110.037C202.002 110.369 202.48 111.808 202.951 112.039C203.711 112.413 204.622 111.877 205.389 112.229C206.045 112.53 206.382 113.377 206.609 114.163C206.833 114.94 207.013 115.736 207.146 116.542C207.213 116.949 207.272 117.372 207.463 117.721C207.653 118.07 208.016 118.326 208.354 118.212C208.861 118.041 208.959 117.245 208.9 116.626C208.846 116.056 208.742 115.494 208.593 114.949C208.405 114.265 209.054 103.656 205.654 104.458Z" fill="black"/>
<path d="M204.582 113.132C204.632 113.1 204.68 111.737 205.769 111.529C206.739 111.343 207.307 113.102 207.12 113.615C206.539 115.203 205.577 115.522 205.577 115.522L204.582 113.132Z" fill="#FFE5D8"/>
<path d="M206.592 113.557C206.544 113.557 206.501 113.518 206.489 113.461C206.409 113.08 206.284 112.859 206.114 112.803C205.855 112.716 205.518 113.028 205.411 113.154C205.368 113.203 205.301 113.203 205.259 113.153C205.218 113.104 205.218 113.025 205.26 112.975C205.279 112.953 205.74 112.417 206.172 112.56C206.421 112.643 206.597 112.926 206.696 113.401C206.71 113.469 206.675 113.537 206.618 113.553C206.609 113.556 206.601 113.557 206.592 113.557Z" fill="#634F3F"/>
<path d="M205.762 113.897C205.749 113.897 205.736 113.895 205.723 113.889C205.668 113.864 205.641 113.791 205.662 113.726C205.673 113.692 205.699 113.639 205.733 113.573C205.833 113.38 205.999 113.057 205.972 112.701C205.967 112.631 206.01 112.57 206.069 112.564C206.141 112.555 206.18 112.61 206.185 112.679C206.217 113.118 206.021 113.499 205.916 113.704C205.89 113.753 205.87 113.791 205.861 113.817C205.845 113.867 205.804 113.897 205.762 113.897Z" fill="#634F3F"/>
<path d="M199.259 113.275C199.4 113.422 199.77 113.126 200.246 112.947C200.723 112.746 201.189 112.81 201.223 112.712C201.268 112.624 200.769 112.248 200.103 112.386C199.429 112.524 199.112 113.141 199.259 113.275Z" fill="black"/>
<path d="M197.673 113.732C197.608 113.939 197.16 113.886 196.67 113.993C196.362 114.048 196.091 114.189 195.918 114.276C195.901 114.164 195.887 114.064 195.871 113.958C196.012 113.764 196.245 113.544 196.569 113.417C197.218 113.163 197.749 113.528 197.673 113.732Z" fill="black"/>
<path d="M243.612 246.955L245.11 256.638L226.813 256.918C226.813 256.918 224.853 255.163 225.976 253.795C227.099 252.427 233.183 250.033 232.893 248.323C232.604 246.613 243.612 246.955 243.612 246.955Z" fill="black"/>
<path d="M205.645 246.955L207.143 256.638L188.846 256.918C188.846 256.918 186.886 255.163 188.009 253.795C189.132 252.427 195.216 250.033 194.926 248.323C194.636 246.613 205.645 246.955 205.645 246.955Z" fill="black"/>
<path d="M227.895 164.821C227.895 164.821 236.961 209.542 244.574 248.459C239.474 252.731 229.261 249.516 229.261 249.516L214.428 179.793L212.085 179.563C212.085 179.563 206.466 201.182 205.495 208.126C204.033 218.586 206.593 226.799 207.288 249.074C203.414 252.731 191.511 249.603 191.511 249.603C191.511 249.603 189.464 217.016 190.711 206.284C191.86 196.384 200.808 165.9 200.808 165.9L227.895 164.821Z" fill="#535354"/>
<path d="M234.767 245.415C232.967 245.415 231.019 245.168 229.222 244.427C229.163 244.403 229.132 244.326 229.153 244.257C229.173 244.187 229.239 244.15 229.297 244.174C234.215 246.204 240.308 244.476 241.192 244.206C240.659 241.856 233.217 208.919 232.861 204.172C232.495 199.299 224.551 168.175 224.47 167.86C224.452 167.79 224.486 167.715 224.546 167.694C224.607 167.673 224.669 167.713 224.687 167.784C224.768 168.098 232.718 199.248 233.087 204.148C233.453 209.024 241.359 243.914 241.44 244.266C241.456 244.337 241.42 244.41 241.361 244.429C241.317 244.444 238.335 245.414 234.767 245.415Z" fill="black"/>
<path d="M213.688 176.101C213.683 176.101 213.678 176.101 213.673 176.1L211.663 175.764C211.62 175.757 211.584 175.722 211.571 175.674L209.532 168.343C209.512 168.273 209.544 168.197 209.604 168.175C209.665 168.151 209.727 168.19 209.747 168.26L211.764 175.511L213.705 175.835C213.767 175.845 213.809 175.913 213.801 175.986C213.792 176.053 213.744 176.101 213.688 176.101Z" fill="black"/>
<path d="M199.76 245.34C198.017 245.34 195.843 245.055 193.3 244.168C193.24 244.147 193.205 244.072 193.223 244.002C193.24 243.931 193.305 243.891 193.364 243.911C199.855 246.176 203.886 244.485 204.463 244.214L202.559 210.543C202.558 210.531 202.559 210.519 202.561 210.507L208.18 178.645C208.193 178.573 208.254 178.524 208.314 178.542C208.376 178.557 208.415 178.628 208.402 178.7L202.786 210.543L204.694 244.292C204.697 244.347 204.671 244.399 204.629 244.423C204.602 244.437 202.864 245.34 199.76 245.34Z" fill="black"/>
<path d="M236.625 161.855L184.543 201.927L185.218 203.149L237.3 163.077L236.625 161.855Z" fill="#634F3F"/>
<path d="M188.967 195.25C190.11 196.517 192.385 199.029 193.644 200.418C194.066 200.884 193.95 201.705 193.42 201.981C190.121 203.697 182.911 206.839 180.109 207.775C175.188 209.42 171.513 208.551 172.31 207.008C175.577 200.681 184.053 196.522 187.394 194.907C187.93 194.647 188.544 194.781 188.967 195.25Z" fill="#634F3F"/>
<path d="M205.278 175.967L208.82 177.721C208.82 177.721 212.216 180.797 212.268 183.099C212.322 185.401 208.979 187.813 207.868 188.252C206.757 188.69 205.076 186.042 204.5 184.381C204.279 183.744 201.339 179.585 201.339 179.585L205.278 175.967Z" fill="#FFE5D8"/>
<path d="M200.871 183.099C200.871 183.099 207.718 178.673 208.292 175.036C202.24 166.297 199.23 162.413 198.177 159.868C198.808 156.474 202.044 145.613 204.938 136.69L195.234 132.806C190.022 145.823 187.229 157.513 187.229 160.582C187.229 163.443 188.16 166.757 193.897 175.123C196.847 179.424 200.749 182.942 200.871 183.099Z" fill="#064E3B"/>
<path d="M197.938 139.297C197.898 139.297 197.86 139.272 197.84 139.229C197.748 139.031 195.578 134.374 195.128 132.848C195.108 132.78 195.138 132.705 195.196 132.68C195.258 132.657 195.318 132.693 195.338 132.762C195.782 134.266 198.013 139.053 198.035 139.102C198.065 139.165 198.045 139.245 197.991 139.28C197.975 139.292 197.956 139.297 197.938 139.297Z" fill="#B7CA79"/>
<path d="M211.633 184.982C211.592 184.982 211.552 184.955 211.533 184.908C211.524 184.888 210.662 182.828 210.076 182.406C210.023 182.368 210.006 182.286 210.038 182.223C210.072 182.161 210.14 182.141 210.193 182.179C210.835 182.641 211.698 184.704 211.735 184.791C211.762 184.857 211.739 184.937 211.683 184.969C211.667 184.978 211.65 184.982 211.633 184.982Z" fill="#634F3F"/>
<path d="M210.134 186.574C210.086 186.574 210.041 186.537 210.026 186.48C209.867 185.864 209.327 184.206 208.76 183.941C208.702 183.914 208.674 183.837 208.696 183.768C208.719 183.701 208.785 183.668 208.843 183.693C209.627 184.06 210.217 186.306 210.242 186.402C210.26 186.472 210.226 186.546 210.167 186.568C210.156 186.572 210.145 186.574 210.134 186.574Z" fill="#634F3F"/>
<path d="M208.761 187.715C208.711 187.715 208.665 187.676 208.652 187.616C208.649 187.603 208.352 186.308 207.394 185.241C207.349 185.19 207.347 185.106 207.389 185.053C207.432 185 207.503 184.998 207.549 185.047C208.556 186.169 208.857 187.493 208.87 187.549C208.886 187.62 208.85 187.692 208.789 187.711C208.78 187.713 208.77 187.715 208.761 187.715Z" fill="#634F3F"/>
<path d="M226.907 167.082C226.907 167.082 218.877 152.029 216.59 139.558C214.246 139.558 203.364 141.092 199.175 141.942C198.99 149.951 202.239 166.296 202.239 166.296C202.239 166.296 222.901 169.442 226.907 167.082Z" fill="#535354"/>
<path d="M211.555 141.181L214.926 140.673C214.342 135.302 214.183 126.527 215.917 122.654C214.863 122.681 212.33 122.922 212.189 122.942C210.359 129.704 211.402 139.757 211.555 141.181Z" fill="#535354"/>
<path d="M200.105 142.867L203.414 141.944C202.745 138.579 200.964 131.625 202.103 126.495C201.259 126.789 199.186 128.1 198.779 128.314C198.053 135.176 199.861 141.65 200.105 142.867Z" fill="#535354"/>
<path d="M212.447 141.033C212.335 141.487 212.557 141.962 212.941 142.094C213.326 142.226 213.729 141.965 213.84 141.511C213.952 141.056 213.731 140.581 213.346 140.449C212.961 140.317 212.559 140.579 212.447 141.033Z" fill="black"/>
<path d="M200.904 142.414C200.793 142.868 201.014 143.343 201.399 143.475C201.783 143.607 202.186 143.346 202.298 142.892C202.41 142.438 202.188 141.962 201.804 141.83C201.419 141.698 201.016 141.96 200.904 142.414Z" fill="black"/>
<path d="M205.472 159.056C205.424 159.056 205.38 159.019 205.365 158.964L202.565 148.859C202.554 148.82 202.559 148.778 202.578 148.744C202.597 148.709 202.628 148.688 202.662 148.684L214.98 147.362C215.033 147.353 215.083 147.396 215.099 147.456L217.705 157.56C217.714 157.599 217.71 157.64 217.691 157.674C217.671 157.707 217.641 157.728 217.607 157.732L205.483 159.054C205.479 159.056 205.476 159.056 205.472 159.056ZM202.824 148.936L205.552 158.779L217.447 157.482L214.909 147.639L202.824 148.936Z" fill="black"/>
<path d="M203.414 151.029C203.355 151.029 203.305 150.976 203.301 150.906C203.296 150.832 203.343 150.768 203.405 150.762L213.679 149.818C213.737 149.815 213.796 149.867 213.801 149.941C213.805 150.014 213.758 150.079 213.697 150.085L203.423 151.029C203.42 151.029 203.417 151.029 203.414 151.029Z" fill="black"/>
<path d="M235.369 160.428L232.591 165.038C232.591 165.038 233.983 167.662 232.591 169.309C231.198 170.957 228.295 171.916 227.484 170.957C225.312 168.39 225.472 165.586 225.317 164.599C225.163 163.613 228.412 156.707 228.412 156.707L235.369 160.428Z" fill="#FFE5D8"/>
<path d="M236.905 163.778C237.015 163.538 239.612 157.8 241.857 151.159C245.587 140.123 246.223 133.014 243.919 128.109C237.944 115.392 219.95 121.998 216.404 123.451L220.564 137.636C224.91 135.873 230.391 134.985 232.556 135.601C232.306 139.396 228.159 147.496 225.699 156.683C226.618 160.276 236.905 163.778 236.905 163.778Z" fill="#064E3B"/>
<path d="M218.922 132.168C218.887 132.168 218.853 132.149 218.831 132.112C217.491 129.864 218.941 122.729 219.003 122.426C219.018 122.356 219.076 122.313 219.138 122.329C219.198 122.346 219.235 122.418 219.22 122.488C219.205 122.561 217.732 129.809 219.013 131.961C219.049 132.02 219.036 132.102 218.986 132.144C218.967 132.161 218.944 132.168 218.922 132.168Z" fill="#B7CA79"/>
<path d="M229.367 171.192C229.333 171.192 229.3 171.174 229.278 171.14L228.071 169.308C228.033 169.25 228.042 169.167 228.091 169.122C228.139 169.077 228.21 169.087 228.249 169.145L229.456 170.977C229.494 171.035 229.485 171.119 229.436 171.164C229.415 171.182 229.391 171.192 229.367 171.192Z" fill="#634F3F"/>
<path d="M231.117 170.513C231.084 170.513 231.052 170.496 231.03 170.464L229.853 168.774C229.814 168.718 229.821 168.633 229.869 168.587C229.917 168.54 229.988 168.549 230.027 168.605L231.203 170.296C231.243 170.352 231.236 170.436 231.188 170.482C231.167 170.503 231.142 170.513 231.117 170.513Z" fill="#634F3F"/>
<path d="M232.592 169.442C232.562 169.442 232.533 169.429 232.511 169.402L231.176 167.759C231.132 167.706 231.134 167.622 231.179 167.571C231.224 167.52 231.295 167.521 231.338 167.575L232.673 169.218C232.717 169.271 232.715 169.355 232.67 169.406C232.648 169.43 232.62 169.442 232.592 169.442Z" fill="#634F3F"/>
<path d="M148.856 190.563L146.571 194.318L142.952 190.297L145.522 184.815C145.522 184.815 149.053 187.036 148.856 190.563Z" fill="#FFE5D8"/>
<path d="M132.458 201.562L128.493 183.32L120.076 193.272L122.892 204.445L132.458 201.562Z" fill="#064E3B"/>
<path d="M143.081 190.148L131.735 203.36L129.77 198.771L123.605 207.004C123.605 207.004 130.013 215.634 131.472 215.231C137.044 213.692 146.572 194.317 146.572 194.317L143.081 190.148Z" fill="#FFE5D8"/>
<path d="M143.473 185.307L142.386 188.039L142.506 190.819L143.685 189.451L143.897 187.813C143.897 187.813 144.34 185.737 143.473 185.307Z" fill="#FFE5D8"/>
<path d="M122.483 248.764L121.198 254.916C120.973 255.992 121.607 257.003 122.481 257.056C126.925 257.325 127.566 256.307 129.41 256.314C131.393 256.322 132.458 257.136 136.477 257.294C138.369 257.368 139.418 256.05 139.185 254.853C138.836 253.06 137.757 250.931 134.579 251.138C133.619 251.201 132.103 249.572 131.273 248.579C130.951 248.193 130.455 248.166 130.118 248.53C129.423 249.284 128.136 250.353 126.565 250.15C125.797 250.051 124.458 248.99 123.588 248.235C123.176 247.879 122.611 248.151 122.483 248.764Z" fill="#535354"/>
<path d="M132.91 204.465C121.556 205.697 97.9297 215.331 97.9297 215.331L108.04 230.171L126.416 221.662L118.72 251.189C118.72 251.189 131.08 253.498 134.096 250.683C138.438 235.356 139.844 225.259 140.733 216.447C141.111 212.691 140.733 203.616 132.91 204.465Z" fill="black"/>
<path d="M123.285 244.843C123.275 244.843 123.264 244.842 123.254 244.838C123.194 244.818 123.159 244.744 123.176 244.674L129.922 216.859L111.401 224.665C111.343 224.689 111.279 224.654 111.257 224.584C111.236 224.516 111.267 224.439 111.326 224.415L130.053 216.522C130.091 216.506 130.136 216.516 130.168 216.55C130.199 216.585 130.211 216.636 130.199 216.684L123.393 244.747C123.379 244.805 123.334 244.843 123.285 244.843Z" fill="#7F6854"/>
<path d="M85.5648 240.087L80.3164 236.422C79.3978 235.781 78.2679 236.141 77.943 237.117C76.2909 242.082 77.0236 243.176 76.4343 245.273C75.8002 247.53 74.7137 248.451 73.2984 252.972C72.6319 255.1 73.5115 256.767 74.6857 256.929C76.4439 257.173 78.7436 256.706 79.557 253.012C79.8025 251.897 81.5884 250.081 82.956 250.164C83.451 250.194 83.5944 249.38 83.3655 248.865C82.8928 247.804 83.3659 245.605 84.0491 243.888C84.3827 243.049 84.7322 242.254 85.7012 241.533C86.1598 241.193 86.0883 240.452 85.5648 240.087Z" fill="#535354"/>
<path d="M105.24 216.832C105.24 216.832 118.9 237.043 121.34 242.554C124.177 248.964 121.823 256.44 118.529 257.033C109.523 258.654 94.4949 257.337 81.2174 251.342C79.6555 248.197 84.804 237.388 84.804 237.388L103.875 242.208C103.875 242.208 92.4793 232.912 90.2756 230.166C87.12 226.235 85.3766 220.476 88.1556 214.42C89.065 212.439 92.2136 209.417 92.2136 209.417L105.24 216.832Z" fill="black"/>
<path d="M83.8784 250.816C83.8292 250.816 83.7836 250.778 83.7696 250.719C83.0624 247.709 86.6012 240.369 86.7525 240.058C86.777 240.007 86.8275 239.983 86.8744 239.994C87.0375 240.037 103.111 244.272 108.659 244.693C108.537 243.657 104.355 238.574 100.65 234.07C96.6999 229.27 92.6165 224.306 92.0689 222.69C90.8552 219.108 92.0899 215.806 93.3391 213.666C93.3746 213.605 93.4456 213.59 93.4956 213.632C93.5469 213.674 93.5596 213.757 93.5246 213.817C92.3065 215.903 91.1012 219.118 92.2771 222.59C92.8085 224.158 96.8762 229.103 100.81 233.885C105.975 240.162 109.094 244.034 108.869 244.873C108.854 244.931 108.811 244.966 108.755 244.966C103.496 244.607 88.1687 240.607 86.9064 240.275C86.5078 241.115 83.3434 247.912 83.9867 250.647C84.0029 250.718 83.9678 250.791 83.9077 250.811C83.8985 250.814 83.8884 250.816 83.8784 250.816Z" fill="black"/>
<path d="M125.689 174.158C121.947 175.126 116.983 168.637 116.983 168.637L117.317 158.108L129.344 160.412C129.344 160.412 129.358 162.13 129.184 164.355C129.174 164.537 129.16 164.718 129.145 164.899C128.81 168.681 127.948 173.577 125.689 174.158Z" fill="#FFE5D8"/>
<path d="M123.284 171.681L121.488 180.251C121.488 180.251 115.76 180.515 114.604 178.045C114.341 177.483 117.912 168.504 117.912 168.504L123.284 171.681Z" fill="#FFE5D8"/>
<path d="M131.577 158.505C131.76 159.532 131.743 161.653 129.836 161.973C127.929 162.294 123.533 159.024 123.086 160.043C122.391 161.629 120.973 163.482 119.718 163.709C118.752 166.122 118.759 166.239 118.759 166.239C118.759 166.239 119.083 170.636 116.982 172.565C115.661 173.779 109.903 170.222 110.229 166.787C110.542 163.5 112.407 161.479 113.753 159.96C115.099 158.44 115.239 156.781 115.873 155.665C116.507 154.548 118.438 152.993 120.038 153.781C121.998 154.747 122.548 152.011 124.832 153.936C126.962 155.73 131.018 155.371 131.577 158.505Z" fill="black"/>
<path d="M122.891 173.785C121.766 173.411 119.792 170.858 119.792 170.858C119.792 170.858 120.599 174.292 122.549 175.232C122.711 174.549 122.779 174.431 122.891 173.785Z" fill="#AA7D5E"/>
<path d="M124.12 164.755C124.043 165.092 124.155 165.421 124.369 165.49C124.584 165.558 124.82 165.34 124.897 165.002C124.974 164.664 124.862 164.335 124.648 164.267C124.433 164.198 124.197 164.417 124.12 164.755Z" fill="black"/>
<path d="M127.765 165.83C127.688 166.167 127.8 166.496 128.014 166.565C128.229 166.633 128.465 166.415 128.542 166.077C128.619 165.739 128.507 165.41 128.293 165.342C128.079 165.273 127.842 165.492 127.765 165.83Z" fill="black"/>
<path d="M126.161 168.668C125.866 168.668 125.618 168.608 125.602 168.604C125.541 168.589 125.502 168.518 125.515 168.446C125.527 168.374 125.59 168.332 125.648 168.343C125.654 168.345 126.242 168.487 126.633 168.323C126.81 168.249 126.755 167.028 126.514 165.712C126.501 165.64 126.539 165.569 126.6 165.553C126.662 165.539 126.721 165.584 126.734 165.655C126.883 166.467 127.178 168.377 126.709 168.573C126.537 168.646 126.34 168.668 126.161 168.668Z" fill="black"/>
<path d="M120.076 164.388C120.022 164.36 119.868 162.95 118.721 162.85C117.7 162.76 117.244 164.647 117.478 165.159C118.203 166.747 119.226 166.976 119.226 166.976L120.076 164.388Z" fill="#FFE5D8"/>
<path d="M118.061 164.856C118.057 164.856 118.052 164.856 118.047 164.855C117.985 164.846 117.942 164.779 117.95 164.706C117.989 164.348 118.11 164.112 118.31 164.007C118.729 163.788 119.329 164.268 119.354 164.289C119.405 164.331 119.418 164.413 119.383 164.474C119.347 164.534 119.277 164.549 119.226 164.507C119.082 164.391 118.655 164.116 118.401 164.25C118.278 164.315 118.201 164.479 118.173 164.74C118.166 164.807 118.118 164.856 118.061 164.856Z" fill="black"/>
<path d="M118.759 165.389C118.746 165.389 118.733 165.387 118.721 165.382C118.671 165.36 118.641 165.302 118.646 165.242C118.64 165.21 118.612 165.131 118.589 165.066C118.504 164.826 118.375 164.463 118.375 164.088C118.375 164.014 118.426 163.955 118.488 163.955C118.55 163.955 118.601 164.014 118.601 164.088C118.601 164.409 118.719 164.743 118.797 164.963C118.86 165.141 118.889 165.222 118.865 165.3C118.849 165.355 118.805 165.389 118.759 165.389Z" fill="black"/>
<path d="M125.95 170.454C125.433 170.454 124.493 170.264 124.235 168.932C124.221 168.86 124.259 168.789 124.319 168.772C124.384 168.758 124.44 168.801 124.455 168.872C124.767 170.48 126.194 170.175 126.254 170.162C126.319 170.144 126.374 170.195 126.386 170.267C126.398 170.34 126.358 170.409 126.297 170.423C126.292 170.425 126.153 170.454 125.95 170.454Z" fill="black"/>
<path d="M125.729 163.722C125.596 163.896 125.178 163.636 124.661 163.512C124.141 163.365 123.657 163.495 123.612 163.398C123.556 163.311 124.043 162.849 124.757 162.903C125.477 162.957 125.871 163.562 125.729 163.722Z" fill="black"/>
<path d="M129.145 164.899C129.01 164.825 128.858 164.746 128.683 164.694C128.174 164.517 127.704 164.515 127.654 164.288C127.595 164.071 128.18 163.75 128.837 164.102C128.973 164.176 129.089 164.258 129.185 164.355C129.175 164.538 129.16 164.718 129.145 164.899Z" fill="black"/>
<path d="M166.28 187.382C166.28 187.382 164.564 187.347 162.617 187.529C160.21 187.753 159.27 190.91 159.27 190.91C159.27 190.91 161.746 192.445 163.145 191.931C165.696 190.993 166.28 187.382 166.28 187.382Z" fill="#519F7D"/>
<path d="M166.137 187.404C165.197 188.369 164.155 189.191 163.039 189.859C162.479 190.188 161.895 190.462 161.294 190.682C160.69 190.893 160.063 191.019 159.427 191.064C159.337 191.07 159.26 190.989 159.254 190.883C159.249 190.776 159.318 190.685 159.408 190.679C159.41 190.679 159.411 190.679 159.413 190.679H159.421C160.026 190.662 160.632 190.568 161.225 190.389C161.815 190.2 162.396 189.958 162.958 189.656C164.076 189.047 165.139 188.275 166.101 187.357C166.112 187.345 166.13 187.346 166.139 187.359C166.149 187.371 166.148 187.392 166.137 187.404Z" fill="#519F7D"/>
<path d="M163.996 187.478L163.7 189.373L163.699 189.379C163.69 189.441 163.639 189.481 163.587 189.47C163.535 189.459 163.5 189.399 163.51 189.338C163.51 189.334 163.511 189.331 163.512 189.328L163.944 187.463C163.948 187.446 163.963 187.436 163.977 187.441C163.99 187.445 163.998 187.462 163.996 187.478Z" fill="#519F7D"/>
<path d="M163.277 191.85C162.682 191.389 162.089 190.932 161.528 190.403C161.5 190.377 161.496 190.329 161.518 190.296C161.541 190.263 161.581 190.258 161.609 190.284L161.61 190.286L161.613 190.288C162.146 190.829 162.729 191.314 163.306 191.797C163.319 191.807 163.322 191.827 163.313 191.841C163.306 191.855 163.289 191.859 163.277 191.85Z" fill="#519F7D"/>
<path d="M159.506 163.98C159.506 163.98 158.411 163.249 157.102 162.563C155.484 161.715 153.944 163.362 153.944 163.362C153.944 163.362 155.086 165.373 156.139 165.618C158.061 166.066 159.506 163.98 159.506 163.98Z" fill="#519F7D"/>
<path d="M159.408 163.935C158.517 164.169 157.602 164.269 156.685 164.24C155.771 164.201 154.845 164.007 154.001 163.526C153.941 163.492 153.916 163.408 153.945 163.337C153.973 163.267 154.045 163.237 154.105 163.271C154.106 163.272 154.107 163.273 154.108 163.273L154.111 163.275C154.897 163.765 155.793 163.998 156.692 164.074C157.594 164.143 158.507 164.083 159.399 163.889C159.41 163.886 159.42 163.894 159.423 163.906C159.425 163.919 159.418 163.932 159.408 163.935Z" fill="#519F7D"/>
<path d="M158.006 163.099L157.254 164.199L157.252 164.202C157.227 164.237 157.183 164.243 157.152 164.214C157.122 164.185 157.117 164.133 157.142 164.097C157.143 164.095 157.145 164.093 157.146 164.091L157.977 163.068C157.984 163.058 157.996 163.058 158.004 163.067C158.012 163.076 158.012 163.09 158.006 163.099Z" fill="#519F7D"/>
<path d="M156.249 165.621C156.002 165.079 155.756 164.539 155.551 163.967C155.541 163.939 155.552 163.906 155.576 163.894C155.6 163.882 155.628 163.895 155.638 163.923L155.639 163.927C155.823 164.495 156.055 165.049 156.284 165.598C156.29 165.61 156.286 165.624 156.276 165.63C156.266 165.636 156.255 165.632 156.249 165.621Z" fill="#519F7D"/>
<path d="M153.11 173.305C153.11 173.305 151.563 174.183 149.892 175.377C147.826 176.853 148.187 180.172 148.187 180.172C148.187 180.172 150.984 180.232 152.038 179.031C153.961 176.841 153.11 173.305 153.11 173.305Z" fill="#519F7D"/>
<path d="M152.991 173.4C152.518 174.76 151.899 176.047 151.157 177.235C150.782 177.826 150.364 178.381 149.911 178.896C149.451 179.405 148.939 179.85 148.387 180.227C148.309 180.28 148.209 180.248 148.164 180.156C148.119 180.064 148.145 179.946 148.223 179.893C148.225 179.892 148.227 179.891 148.228 179.89L148.235 179.885C148.769 179.55 149.274 179.145 149.737 178.67C150.193 178.188 150.619 177.664 151.006 177.098C151.774 175.96 152.43 174.706 152.941 173.377C152.947 173.361 152.962 173.352 152.976 173.359C152.99 173.365 152.996 173.384 152.991 173.4Z" fill="#519F7D"/>
<path d="M151.105 174.601L151.561 176.452L151.563 176.457C151.577 176.518 151.548 176.581 151.497 176.598C151.446 176.616 151.392 176.581 151.378 176.521C151.377 176.518 151.376 176.515 151.376 176.511L151.053 174.615C151.05 174.598 151.06 174.582 151.074 174.578C151.087 174.575 151.101 174.585 151.105 174.601Z" fill="#519F7D"/>
<path d="M152.126 178.889C151.42 178.792 150.716 178.698 150.014 178.523C149.979 178.514 149.957 178.473 149.964 178.432C149.972 178.391 150.006 178.364 150.04 178.373C150.041 178.373 150.042 178.374 150.043 178.374L150.045 178.374C150.727 178.574 151.433 178.7 152.133 178.825C152.147 178.828 152.158 178.843 152.156 178.861C152.154 178.878 152.14 178.89 152.126 178.889Z" fill="#519F7D"/>
<path d="M135.394 174.176C135.394 174.176 134.843 175.187 134.312 176.403C133.656 177.906 134.711 179.452 134.711 179.452C134.711 179.452 136.14 178.457 136.358 177.464C136.754 175.652 135.394 174.176 135.394 174.176Z" fill="#519F7D"/>
<path d="M135.358 174.268C135.477 175.128 135.503 176.006 135.44 176.879C135.371 177.749 135.194 178.623 134.826 179.406C134.8 179.462 134.741 179.481 134.694 179.451C134.647 179.42 134.631 179.35 134.656 179.295C134.657 179.294 134.659 179.29 134.66 179.289C135.032 178.562 135.233 177.718 135.328 176.864C135.417 176.008 135.419 175.134 135.327 174.274C135.326 174.263 135.331 174.254 135.34 174.252C135.348 174.25 135.357 174.258 135.358 174.268Z" fill="#519F7D"/>
<path d="M134.72 175.566L135.437 176.335L135.439 176.337C135.463 176.361 135.464 176.404 135.443 176.432C135.422 176.459 135.386 176.461 135.363 176.437C135.361 176.435 135.36 176.434 135.359 176.432L134.697 175.592C134.691 175.585 134.692 175.573 134.698 175.566C134.704 175.56 134.714 175.56 134.72 175.566Z" fill="#519F7D"/>
<path d="M136.364 177.359L135.2 177.949C135.181 177.958 135.159 177.948 135.15 177.925C135.142 177.902 135.15 177.876 135.17 177.865L135.171 177.865L135.177 177.862L136.351 177.325C136.359 177.32 136.368 177.324 136.372 177.334C136.376 177.343 136.372 177.355 136.364 177.359Z" fill="#519F7D"/>
<path d="M130.993 179.083C130.993 179.083 131.983 179.365 133.078 179.812C134.432 180.365 134.573 182.343 134.573 182.343C134.573 182.343 132.957 182.789 132.219 182.248C130.872 181.259 130.993 179.083 130.993 179.083Z" fill="#519F7D"/>
<path d="M131.099 179.099C131.535 179.796 132.048 180.427 132.613 180.973C133.181 181.514 133.821 181.96 134.515 182.183C134.567 182.198 134.599 182.261 134.586 182.322C134.573 182.383 134.52 182.421 134.468 182.405C134.467 182.404 134.464 182.403 134.463 182.403C133.739 182.136 133.1 181.648 132.541 181.075C131.985 180.495 131.49 179.84 131.072 179.12C131.067 179.112 131.069 179.1 131.076 179.094C131.083 179.088 131.093 179.092 131.099 179.099Z" fill="#519F7D"/>
<path d="M132.325 179.541L132.337 180.688C132.338 180.725 132.312 180.756 132.281 180.756C132.249 180.757 132.223 180.727 132.223 180.69C132.223 180.687 132.223 180.686 132.223 180.684V180.68L132.292 179.54C132.293 179.529 132.3 179.522 132.309 179.522C132.318 179.523 132.324 179.531 132.325 179.541Z" fill="#519F7D"/>
<path d="M132.143 182.142L133.306 181.573L133.312 181.571C133.331 181.561 133.353 181.572 133.361 181.595C133.369 181.618 133.36 181.645 133.341 181.654L133.34 181.654L132.153 182.177C132.145 182.181 132.136 182.176 132.132 182.166C132.129 182.157 132.135 182.146 132.143 182.142Z" fill="#519F7D"/>
<path d="M140.244 154.51C140.244 154.51 139.693 155.521 139.163 156.737C138.506 158.24 139.562 159.786 139.562 159.786C139.562 159.786 140.991 158.791 141.208 157.797C141.605 155.986 140.244 154.51 140.244 154.51Z" fill="#519F7D"/>
<path d="M140.209 154.601C140.328 155.462 140.353 156.34 140.29 157.213C140.221 158.084 140.045 158.957 139.677 159.74C139.651 159.796 139.592 159.815 139.545 159.785C139.498 159.754 139.481 159.684 139.507 159.629C139.507 159.628 139.509 159.624 139.51 159.623C139.882 158.896 140.084 158.052 140.178 157.198C140.267 156.342 140.269 155.467 140.178 154.608C140.176 154.597 140.182 154.587 140.191 154.586C140.199 154.584 140.207 154.592 140.209 154.601Z" fill="#519F7D"/>
<path d="M139.571 155.9L140.289 156.668L140.291 156.67C140.314 156.695 140.316 156.738 140.295 156.765C140.273 156.793 140.237 156.795 140.214 156.77C140.213 156.769 140.212 156.767 140.211 156.766L139.549 155.926C139.543 155.918 139.543 155.906 139.55 155.899C139.556 155.893 139.565 155.893 139.571 155.9Z" fill="#519F7D"/>
<path d="M141.215 157.693L140.05 158.282C140.031 158.292 140.009 158.282 140 158.259C139.992 158.236 140 158.209 140.02 158.2L140.021 158.199L140.027 158.196L141.201 157.659C141.209 157.654 141.218 157.659 141.222 157.668C141.226 157.677 141.222 157.689 141.215 157.693Z" fill="#519F7D"/>
<path d="M147.128 150.153C147.128 150.153 147.679 151.164 148.21 152.38C148.866 153.883 147.811 155.429 147.811 155.429C147.811 155.429 146.381 154.434 146.164 153.44C145.768 151.629 147.128 150.153 147.128 150.153Z" fill="#519F7D"/>
<path d="M147.195 150.25C147.104 151.11 147.106 151.985 147.195 152.841C147.289 153.695 147.491 154.539 147.863 155.266C147.892 155.319 147.878 155.39 147.833 155.424C147.788 155.458 147.728 155.442 147.7 155.389C147.699 155.388 147.697 155.384 147.697 155.383C147.329 154.6 147.152 153.726 147.083 152.856C147.02 151.983 147.045 151.106 147.164 150.244C147.166 150.234 147.174 150.227 147.182 150.229C147.191 150.23 147.197 150.241 147.195 150.25Z" fill="#519F7D"/>
<path d="M147.824 151.57L147.163 152.41C147.141 152.437 147.105 152.439 147.082 152.413C147.059 152.388 147.058 152.345 147.079 152.318C147.08 152.317 147.081 152.315 147.083 152.314L147.085 152.311L147.802 151.543C147.809 151.536 147.819 151.536 147.824 151.544C147.83 151.551 147.83 151.562 147.824 151.57Z" fill="#519F7D"/>
<path d="M146.171 153.302L147.345 153.839L147.35 153.842C147.37 153.851 147.38 153.877 147.372 153.9C147.365 153.924 147.342 153.935 147.323 153.926L147.321 153.926L146.157 153.337C146.149 153.333 146.145 153.322 146.149 153.312C146.153 153.303 146.163 153.298 146.171 153.302Z" fill="#519F7D"/>
<path d="M139.476 179.713C139.476 179.713 138.521 180.468 137.509 181.445C136.258 182.654 136.762 184.814 136.762 184.814C136.762 184.814 138.621 184.542 139.224 183.629C140.323 181.963 139.476 179.713 139.476 179.713Z" fill="#519F7D"/>
<path d="M139.405 179.79C139.2 180.744 138.893 181.666 138.496 182.536C138.093 183.401 137.578 184.212 136.899 184.828C136.851 184.871 136.782 184.86 136.746 184.804C136.709 184.747 136.718 184.666 136.766 184.623C136.767 184.622 136.768 184.621 136.769 184.62L136.771 184.618C137.433 184.062 137.963 183.296 138.385 182.461C138.803 181.622 139.138 180.718 139.371 179.779C139.373 179.768 139.383 179.761 139.393 179.764C139.401 179.766 139.407 179.778 139.405 179.79Z" fill="#519F7D"/>
<path d="M138.251 180.796L138.702 181.972L138.703 181.976C138.718 182.014 138.704 182.059 138.671 182.077C138.639 182.094 138.6 182.077 138.586 182.039C138.585 182.037 138.584 182.035 138.583 182.033L138.218 180.812C138.215 180.801 138.22 180.789 138.229 180.785C138.238 180.781 138.248 180.786 138.251 180.796Z" fill="#519F7D"/>
<path d="M139.27 183.524C138.794 183.539 138.32 183.555 137.84 183.517C137.817 183.515 137.799 183.491 137.8 183.463C137.802 183.435 137.822 183.413 137.846 183.415L137.849 183.416C138.318 183.472 138.795 183.477 139.269 183.482C139.279 183.482 139.287 183.491 139.287 183.503C139.287 183.514 139.279 183.524 139.27 183.524Z" fill="#519F7D"/>
<path d="M159.667 199.256C159.667 199.256 158.628 198.676 157.398 198.153C155.877 197.507 154.566 199.128 154.566 199.128C154.566 199.128 155.719 200.871 156.693 201.012C158.468 201.269 159.667 199.256 159.667 199.256Z" fill="#519F7D"/>
<path d="M159.575 199.222C158.776 199.506 157.948 199.668 157.112 199.713C156.277 199.749 155.423 199.644 154.627 199.273C154.57 199.247 154.543 199.172 154.565 199.105C154.587 199.039 154.651 199.007 154.707 199.032C154.708 199.033 154.709 199.033 154.711 199.034L154.713 199.036C155.457 199.421 156.287 199.563 157.11 199.562C157.934 199.554 158.763 199.428 159.565 199.182C159.575 199.178 159.585 199.184 159.588 199.196C159.589 199.207 159.583 199.219 159.575 199.222Z" fill="#519F7D"/>
<path d="M158.25 198.571L157.627 199.631L157.625 199.634C157.605 199.669 157.565 199.677 157.535 199.654C157.506 199.63 157.499 199.582 157.519 199.548C157.52 199.546 157.521 199.544 157.523 199.542L158.222 198.545C158.228 198.536 158.239 198.534 158.247 198.542C158.254 198.549 158.255 198.562 158.25 198.571Z" fill="#519F7D"/>
<path d="M156.792 201.005C156.537 200.531 156.281 200.059 156.063 199.554C156.052 199.529 156.06 199.498 156.082 199.485C156.103 199.472 156.129 199.483 156.14 199.508L156.141 199.511C156.34 200.014 156.583 200.5 156.823 200.983C156.828 200.993 156.825 201.006 156.816 201.012C156.808 201.018 156.797 201.014 156.792 201.005Z" fill="#519F7D"/>
<path d="M161.558 158.339C161.558 158.339 160.803 158.033 159.92 157.783C158.828 157.475 158.028 158.712 158.028 158.712C158.028 158.712 158.937 159.811 159.618 159.82C160.861 159.837 161.558 158.339 161.558 158.339Z" fill="#519F7D"/>
<path d="M161.492 158.325C160.959 158.592 160.398 158.779 159.824 158.886C159.25 158.986 158.654 158.992 158.08 158.807C158.04 158.794 158.016 158.745 158.027 158.697C158.038 158.649 158.079 158.621 158.12 158.634C158.121 158.634 158.124 158.635 158.125 158.635C158.663 158.834 159.244 158.858 159.813 158.782C160.382 158.702 160.946 158.541 161.483 158.298C161.489 158.295 161.497 158.298 161.5 158.305C161.502 158.312 161.499 158.321 161.492 158.325Z" fill="#519F7D"/>
<path d="M160.537 157.995L160.176 158.783L160.174 158.785C160.163 158.811 160.135 158.82 160.113 158.806C160.092 158.792 160.084 158.76 160.095 158.734C160.096 158.733 160.097 158.732 160.098 158.731L160.516 157.979C160.519 157.972 160.527 157.97 160.533 157.975C160.538 157.979 160.54 157.988 160.537 157.995Z" fill="#519F7D"/>
<path d="M159.686 159.806L159.088 158.871C159.078 158.855 159.081 158.833 159.094 158.821C159.107 158.809 159.126 158.812 159.136 158.828L159.137 158.829L159.14 158.833L159.705 159.788C159.71 159.794 159.709 159.803 159.704 159.809C159.699 159.814 159.691 159.813 159.686 159.806Z" fill="#519F7D"/>
<path d="M151.63 184.581C151.63 184.581 152.884 185.963 154.178 187.691C155.778 189.826 154.597 192.868 154.597 192.868C154.597 192.868 151.912 191.942 151.208 190.425C149.925 187.658 151.63 184.581 151.63 184.581Z" fill="#519F7D"/>
<path d="M151.774 184.709C151.926 186.158 152.237 187.586 152.683 188.941C152.909 189.617 153.184 190.269 153.498 190.888C153.82 191.504 154.2 192.068 154.625 192.576L154.631 192.583C154.694 192.658 154.693 192.78 154.629 192.855C154.565 192.93 154.461 192.929 154.398 192.854C154.397 192.852 154.395 192.85 154.394 192.849C153.963 192.295 153.587 191.691 153.276 191.043C152.973 190.391 152.714 189.716 152.505 189.02C152.095 187.624 151.829 186.178 151.721 184.713C151.72 184.696 151.731 184.681 151.745 184.679C151.759 184.678 151.772 184.692 151.774 184.709Z" fill="#519F7D"/>
<path d="M153.264 186.556L152.478 188.252C152.452 188.307 152.394 188.327 152.347 188.297C152.3 188.267 152.283 188.198 152.309 188.143C152.31 188.14 152.311 188.137 152.313 188.134L152.315 188.13L153.218 186.523C153.225 186.508 153.242 186.504 153.254 186.514C153.267 186.522 153.27 186.541 153.264 186.556Z" fill="#519F7D"/>
<path d="M151.171 190.196C151.871 190.323 152.576 190.45 153.277 190.499H153.28C153.315 190.502 153.342 190.537 153.34 190.58C153.338 190.622 153.308 190.654 153.272 190.651H153.27C152.556 190.572 151.86 190.414 151.161 190.258C151.147 190.255 151.137 190.238 151.14 190.221C151.143 190.204 151.157 190.193 151.171 190.196Z" fill="#519F7D"/>
<path d="M129.72 187.112C129.72 187.112 131.423 186.857 133.375 186.786C135.789 186.698 137.015 189.716 137.015 189.716C137.015 189.716 134.695 191.561 133.257 191.23C130.635 190.627 129.72 187.112 129.72 187.112Z" fill="#519F7D"/>
<path d="M129.894 187.064C130.936 187.852 132.064 188.483 133.232 188.944C133.817 189.171 134.417 189.337 135.021 189.449C135.628 189.551 136.239 189.566 136.842 189.505L136.849 189.504C136.939 189.495 137.018 189.573 137.026 189.679C137.034 189.786 136.967 189.879 136.877 189.888C136.876 189.888 136.873 189.889 136.871 189.889C136.235 189.926 135.601 189.882 134.98 189.75C134.362 189.609 133.756 189.412 133.169 189.157C131.999 188.636 130.887 187.954 129.863 187.116C129.851 187.106 129.848 187.087 129.857 187.072C129.865 187.058 129.882 187.055 129.894 187.064Z" fill="#519F7D"/>
<path d="M132.049 186.891L132.652 188.69C132.672 188.748 132.647 188.814 132.598 188.837C132.548 188.861 132.492 188.832 132.473 188.773C132.472 188.77 132.471 188.767 132.47 188.764L132.469 188.759L131.999 186.913C131.995 186.896 132.003 186.878 132.017 186.873C132.03 186.868 132.044 186.877 132.049 186.891Z" fill="#519F7D"/>
<path d="M133.083 191.118C133.612 190.564 134.147 190.006 134.627 189.399L134.629 189.397C134.653 189.367 134.694 189.365 134.72 189.394C134.746 189.423 134.748 189.471 134.723 189.501L134.721 189.503C134.213 190.101 133.665 190.632 133.117 191.167C133.106 191.178 133.089 191.176 133.079 191.163C133.07 191.149 133.072 191.129 133.083 191.118Z" fill="#519F7D"/>
<path d="M158.502 178.202C158.502 178.202 159.405 179.197 160.336 180.439C161.488 181.975 160.637 184.165 160.637 184.165C160.637 184.165 158.705 183.498 158.199 182.407C157.276 180.416 158.502 178.202 158.502 178.202Z" fill="#519F7D"/>
<path d="M158.606 178.293C158.715 179.336 158.939 180.363 159.259 181.339C159.586 182.31 160.036 183.231 160.657 183.954L160.659 183.956C160.705 184.01 160.706 184.098 160.66 184.153C160.614 184.207 160.54 184.208 160.494 184.154C160.493 184.153 160.492 184.151 160.491 184.15C159.86 183.359 159.432 182.394 159.131 181.395C158.836 180.391 158.645 179.35 158.567 178.296C158.566 178.284 158.574 178.272 158.584 178.271C158.595 178.272 158.604 178.281 158.606 178.293Z" fill="#519F7D"/>
<path d="M159.677 179.622L159.112 180.843C159.093 180.883 159.051 180.897 159.017 180.875C158.984 180.854 158.971 180.804 158.99 180.764C158.991 180.762 158.992 180.76 158.993 180.758L158.995 180.755L159.644 179.599C159.65 179.588 159.661 179.585 159.671 179.592C159.679 179.599 159.682 179.612 159.677 179.622Z" fill="#519F7D"/>
<path d="M158.172 182.242C158.675 182.333 159.183 182.425 159.688 182.46C159.714 182.46 159.734 182.486 159.733 182.516C159.733 182.546 159.711 182.57 159.686 182.57H159.683C159.169 182.512 158.668 182.399 158.165 182.287C158.155 182.284 158.148 182.272 158.15 182.26C158.152 182.248 158.162 182.239 158.172 182.242Z" fill="#519F7D"/>
<path d="M143.245 163.456C143.245 163.456 144.148 164.45 145.079 165.693C146.23 167.229 145.38 169.419 145.38 169.419C145.38 169.419 143.448 168.752 142.941 167.661C142.018 165.67 143.245 163.456 143.245 163.456Z" fill="#519F7D"/>
<path d="M143.347 163.547C143.457 164.59 143.68 165.617 144.001 166.593C144.327 167.564 144.777 168.485 145.399 169.208L145.4 169.211C145.446 169.264 145.447 169.352 145.401 169.407C145.356 169.461 145.281 169.462 145.235 169.408C145.234 169.407 145.233 169.406 145.232 169.405C144.601 168.613 144.173 167.648 143.872 166.649C143.578 165.645 143.386 164.604 143.308 163.551C143.307 163.538 143.315 163.527 143.325 163.526C143.336 163.525 143.346 163.535 143.347 163.547Z" fill="#519F7D"/>
<path d="M144.42 164.876L143.854 166.097C143.836 166.137 143.794 166.151 143.76 166.129C143.726 166.108 143.714 166.058 143.732 166.018C143.733 166.016 143.734 166.014 143.736 166.012L143.738 166.009L144.387 164.853C144.393 164.843 144.405 164.839 144.414 164.846C144.422 164.852 144.424 164.866 144.42 164.876Z" fill="#519F7D"/>
<path d="M142.914 167.496C143.417 167.587 143.925 167.679 144.43 167.714C144.456 167.715 144.476 167.74 144.475 167.77C144.475 167.8 144.453 167.824 144.428 167.824H144.424C143.91 167.766 143.41 167.653 142.907 167.541C142.897 167.538 142.89 167.526 142.892 167.514C142.894 167.502 142.904 167.493 142.914 167.496Z" fill="#519F7D"/>
<path d="M150.802 156.7C150.802 156.7 151.706 157.695 152.637 158.938C153.788 160.474 152.937 162.663 152.937 162.663C152.937 162.663 151.005 161.997 150.499 160.905C149.576 158.914 150.802 156.7 150.802 156.7Z" fill="#519F7D"/>
<path d="M150.905 156.792C151.015 157.835 151.238 158.862 151.559 159.837C151.885 160.809 152.335 161.73 152.957 162.454L152.958 162.456C153.004 162.51 153.005 162.598 152.959 162.652C152.914 162.706 152.839 162.707 152.793 162.653C152.792 162.652 152.791 162.65 152.79 162.649C152.16 161.858 151.732 160.893 151.43 159.894C151.136 158.89 150.944 157.849 150.866 156.795C150.865 156.783 150.873 156.771 150.884 156.77C150.895 156.77 150.904 156.78 150.905 156.792Z" fill="#519F7D"/>
<path d="M151.979 158.121L151.413 159.342C151.395 159.381 151.352 159.396 151.319 159.374C151.285 159.352 151.273 159.303 151.291 159.263C151.292 159.261 151.293 159.259 151.294 159.257L151.296 159.254L151.945 158.098C151.951 158.087 151.963 158.084 151.972 158.09C151.981 158.097 151.983 158.111 151.979 158.121Z" fill="#519F7D"/>
<path d="M150.472 160.74C150.975 160.831 151.483 160.923 151.988 160.959C152.014 160.959 152.034 160.985 152.033 161.015C152.033 161.046 152.012 161.069 151.986 161.069L151.983 161.068C151.469 161.011 150.968 160.898 150.465 160.785C150.455 160.783 150.448 160.771 150.45 160.759C150.451 160.746 150.462 160.738 150.472 160.74Z" fill="#519F7D"/>
<path d="M133.622 168.707C133.622 168.707 135.189 168.155 137.016 167.731C139.274 167.207 140.824 169.821 140.824 169.821C140.824 169.821 138.884 171.98 137.489 171.932C134.943 171.845 133.622 168.707 133.622 168.707Z" fill="#519F7D"/>
<path d="M133.781 168.63C134.864 169.18 136.008 169.567 137.167 169.788C137.748 169.894 138.333 169.94 138.917 169.935C139.5 169.919 140.077 169.822 140.635 169.654L140.642 169.652C140.725 169.627 140.81 169.686 140.831 169.785C140.852 169.883 140.802 169.983 140.719 170.009C140.717 170.009 140.715 170.01 140.713 170.01C140.12 170.162 139.517 170.236 138.917 170.226C138.317 170.206 137.722 170.132 137.136 169.999C135.967 169.724 134.831 169.285 133.759 168.684C133.746 168.677 133.741 168.659 133.747 168.644C133.753 168.629 133.769 168.623 133.781 168.63Z" fill="#519F7D"/>
<path d="M135.786 168.073L136.588 169.654C136.614 169.705 136.6 169.772 136.556 169.803C136.513 169.834 136.456 169.817 136.431 169.766C136.429 169.763 136.428 169.761 136.427 169.758L136.425 169.753L135.741 168.103C135.734 168.088 135.74 168.07 135.752 168.062C135.764 168.055 135.779 168.06 135.786 168.073Z" fill="#519F7D"/>
<path d="M137.312 171.859C137.737 171.241 138.166 170.618 138.539 169.96L138.54 169.958C138.559 169.924 138.597 169.915 138.625 169.938C138.653 169.96 138.661 170.005 138.642 170.039L138.641 170.041C138.242 170.696 137.797 171.295 137.351 171.898C137.342 171.91 137.325 171.912 137.315 171.901C137.304 171.89 137.303 171.871 137.312 171.859Z" fill="#519F7D"/>
<path d="M147.925 229.531C147.157 222.997 146.411 216.467 145.696 209.927C145.339 206.657 144.991 203.385 144.662 200.108C144.34 196.826 144.008 193.562 143.808 190.227C143.788 189.807 143.771 189.382 143.769 188.936C143.779 188.477 143.812 188.051 143.849 187.632C143.922 186.793 144.021 185.975 144.117 185.152C144.317 183.513 144.54 181.883 144.77 180.255C145.234 177 145.731 173.755 146.254 170.516C146.777 167.277 147.324 164.043 147.914 160.821C148.21 159.21 148.515 157.601 148.847 155.999C149.011 155.198 149.187 154.4 149.373 153.605C149.572 152.817 149.752 152.013 150.063 151.273C149.78 152.027 149.629 152.835 149.459 153.632C149.303 154.434 149.155 155.238 149.02 156.045C148.746 157.659 148.499 159.279 148.261 160.901C147.788 164.145 147.359 167.398 146.953 170.655C146.547 173.911 146.167 177.173 145.821 180.436C145.65 182.068 145.487 183.7 145.347 185.33C145.281 186.143 145.212 186.96 145.171 187.763C145.15 188.164 145.136 188.56 145.14 188.925C145.153 189.303 145.179 189.699 145.21 190.1C145.494 193.329 145.917 196.595 146.328 199.843C146.747 203.095 147.186 206.345 147.633 209.594C148.528 216.091 149.456 222.587 150.404 229.073L147.925 229.531Z" fill="black"/>
<path d="M144.965 179.414C144.404 177.47 143.801 175.526 143.18 173.598C142.556 171.669 141.913 169.748 141.232 167.845C139.866 164.044 138.405 160.28 136.601 156.729C138.547 160.175 140.166 163.869 141.69 167.603C142.45 169.472 143.173 171.362 143.877 173.262C144.579 175.165 145.26 177.073 145.909 179.011L144.965 179.414Z" fill="black"/>
<path d="M146.811 167.415C147.868 166.97 148.946 166.334 149.955 165.637C150.969 164.933 151.952 164.151 152.872 163.271C153.792 162.394 154.681 161.457 155.485 160.421C156.312 159.409 157.04 158.29 157.743 157.148C157.11 158.344 156.446 159.528 155.673 160.616C154.924 161.727 154.082 162.75 153.198 163.721C152.314 164.694 151.357 165.576 150.357 166.388C149.346 167.198 148.318 167.926 147.155 168.528L146.811 167.415Z" fill="black"/>
<path d="M145.854 205.889C149.126 201.506 152.365 197.069 155.543 192.579C157.132 190.335 158.708 188.075 160.251 185.786C161.793 183.496 163.321 181.19 164.755 178.799C163.464 181.302 162.071 183.732 160.664 186.148C159.255 188.563 157.812 190.95 156.353 193.325C153.437 198.076 150.463 202.769 147.438 207.435L145.854 205.889Z" fill="black"/>
<path d="M144.936 198.866C143.447 197.052 142.068 195.185 140.73 193.249C139.398 191.316 138.135 189.316 136.969 187.238C135.807 185.158 134.747 182.992 133.896 180.71C133.075 178.427 132.415 175.992 132.458 173.501C132.538 175.988 133.308 178.336 134.224 180.527C135.172 182.717 136.319 184.776 137.563 186.745C138.811 188.713 140.151 190.597 141.555 192.41C142.958 194.218 144.426 195.986 145.938 197.626L144.936 198.866Z" fill="black"/>
<path d="M136.708 193.812C136.708 193.812 137.919 193.311 139.337 192.9C141.09 192.392 142.385 194.373 142.385 194.373C142.385 194.373 140.932 196.149 139.838 196.171C137.841 196.213 136.708 193.812 136.708 193.812Z" fill="#519F7D"/>
<path d="M136.829 193.745C137.695 194.129 138.603 194.383 139.518 194.506C140.432 194.62 141.367 194.576 142.231 194.251L142.234 194.25C142.299 194.226 142.367 194.267 142.388 194.344C142.408 194.42 142.373 194.5 142.308 194.525C142.307 194.525 142.305 194.526 142.304 194.526C141.383 194.829 140.424 194.828 139.5 194.672C138.576 194.507 137.672 194.213 136.813 193.789C136.803 193.783 136.798 193.77 136.802 193.758C136.807 193.745 136.819 193.74 136.829 193.745Z" fill="#519F7D"/>
<path d="M138.383 193.222L139.061 194.426C139.083 194.465 139.074 194.518 139.041 194.544C139.007 194.57 138.963 194.56 138.941 194.52C138.939 194.518 138.938 194.516 138.938 194.514L138.936 194.51L138.349 193.247C138.343 193.235 138.346 193.221 138.356 193.214C138.365 193.208 138.377 193.212 138.383 193.222Z" fill="#519F7D"/>
<path d="M139.696 196.122C140.01 195.619 140.327 195.112 140.598 194.581C140.611 194.553 140.641 194.543 140.664 194.559C140.687 194.574 140.696 194.609 140.683 194.636L140.681 194.64C140.388 195.17 140.058 195.66 139.728 196.151C139.721 196.161 139.709 196.163 139.7 196.154C139.691 196.147 139.69 196.132 139.696 196.122Z" fill="#519F7D"/>
<path d="M154.463 225.134L143.864 226.596C143.864 226.596 144.697 240.124 149.566 240.124C156.807 240.125 154.463 225.134 154.463 225.134Z" fill="black"/>
<path d="M144.379 188.672C144.701 188.891 145.113 188.761 145.298 188.381L146.561 185.798L145.396 185.003L144.133 187.586C143.947 187.966 144.057 188.452 144.379 188.672Z" fill="#FFE5D8"/>
<path d="M144.756 190.337C145.041 190.618 145.465 190.573 145.704 190.236L147.322 187.946L146.288 186.928L144.67 189.218C144.432 189.555 144.471 190.056 144.756 190.337Z" fill="#FFE5D8"/>
<path d="M145.305 191.9C145.59 192.181 146.014 192.135 146.252 191.799L147.871 189.509L146.837 188.491L145.219 190.781C144.981 191.118 145.019 191.619 145.305 191.9Z" fill="#FFE5D8"/>
<path d="M145.962 193.109C146.202 193.394 146.593 193.394 146.833 193.109L148.291 191.323L147.42 190.293L145.962 192.08C145.72 192.364 145.72 192.825 145.962 193.109Z" fill="#FFE5D8"/>
<path d="M145.037 188.735C145.008 188.735 144.979 188.722 144.957 188.696C144.913 188.643 144.914 188.559 144.958 188.508L146.397 186.834C146.442 186.781 146.513 186.782 146.556 186.835C146.6 186.887 146.599 186.971 146.555 187.022L145.116 188.697C145.094 188.723 145.066 188.735 145.037 188.735Z" fill="black"/>
<path d="M145.352 190.708C145.323 190.708 145.292 190.695 145.27 190.667C145.227 190.613 145.229 190.53 145.274 190.479L146.919 188.628C146.965 188.578 147.036 188.58 147.079 188.633C147.122 188.686 147.12 188.771 147.075 188.821L145.43 190.672C145.408 190.696 145.38 190.708 145.352 190.708Z" fill="black"/>
<path d="M146.223 193.292C146.084 193.292 145.938 193.261 145.805 193.174C145.702 193.106 145.634 192.993 145.609 192.847C145.558 192.542 145.705 192.146 145.82 191.973C146.176 191.445 147.296 190.245 147.344 190.194C147.391 190.143 147.462 190.149 147.503 190.203C147.545 190.257 147.541 190.342 147.495 190.391C147.484 190.403 146.341 191.628 145.997 192.139C145.906 192.273 145.796 192.595 145.83 192.795C145.842 192.865 145.869 192.911 145.914 192.941C146.237 193.154 146.715 192.899 146.72 192.896C146.778 192.866 146.844 192.894 146.87 192.961C146.896 193.028 146.871 193.106 146.814 193.137C146.798 193.147 146.527 193.292 146.223 193.292Z" fill="black"/>
<path d="M91.3203 209.419C91.3203 209.419 97.4413 218.696 103.01 220.233C106.93 221.31 115.274 218.499 116.615 217.935C117.957 217.365 120.702 208.084 121.18 204.802C121.658 201.52 126.481 197.964 127.537 194.18C128.085 192.197 128.493 183.319 128.493 183.319C128.493 183.319 125.266 180.42 122.6 178.769C121.877 178.319 121.197 177.961 120.636 177.78C118.746 177.169 115.559 176.357 112.673 175.844C110.122 175.389 107.807 175.161 106.842 175.513C100.611 177.78 98.9847 194.407 97.165 198.476C95.3454 202.55 91.3203 209.419 91.3203 209.419Z" fill="#064E3B"/>
<path d="M112.673 175.844C113.862 178.096 116.549 182.688 118.939 183.21C120.614 183.583 122.017 180.363 122.6 178.769C121.877 178.319 121.197 177.961 120.636 177.78C118.746 177.169 115.558 176.357 112.673 175.844Z" fill="#FFE5D8"/>
<path d="M126.275 197.905H126.273C126.211 197.904 126.161 197.844 126.162 197.771C126.174 196.573 125.52 189.537 125.513 189.466C125.506 189.392 125.551 189.327 125.612 189.319C125.679 189.311 125.73 189.364 125.737 189.436C125.764 189.727 126.4 196.561 126.387 197.773C126.386 197.847 126.336 197.905 126.275 197.905Z" fill="#87AC61"/>
<path d="M119.737 185.012C118.267 185.012 115.587 184.622 114.488 181.945C114.461 181.879 114.484 181.799 114.54 181.767C114.596 181.735 114.663 181.762 114.691 181.828C116.162 185.416 120.666 184.689 120.71 184.683C120.777 184.672 120.828 184.723 120.838 184.795C120.847 184.868 120.804 184.936 120.742 184.946C120.729 184.948 120.332 185.012 119.737 185.012Z" fill="#87AC61"/>
<path d="M106.351 216.333C105.047 216.333 103.851 216.15 102.944 215.673C99.9396 214.09 94.6355 207.324 94.411 207.036C94.3689 206.983 94.372 206.898 94.418 206.848C94.4627 206.798 94.5355 206.801 94.5767 206.856C94.6315 206.926 100.074 213.87 103.036 215.43C106.797 217.41 116.049 214.088 116.142 214.054C116.2 214.035 116.264 214.071 116.283 214.142C116.301 214.213 116.268 214.287 116.208 214.308C115.916 214.414 110.57 216.333 106.351 216.333Z" fill="#87AC61"/>
<path d="M137.479 197.125L117.253 200.489L113.323 195.365L109.689 204.132C109.689 204.132 112.288 209.623 113.862 210.267C119.876 212.726 138.664 203.493 138.664 203.493L137.479 197.125Z" fill="#FFE5D8"/>
<path d="M138.023 203.824C138.023 203.824 142.661 204.171 145.328 203.397C146.525 203.05 148.287 202.161 148.017 201.389C147.878 200.991 147.388 200.777 147.388 200.777C147.388 200.777 148.653 199.959 148.505 199.406C148.313 198.692 147.455 198.563 147.455 198.563C147.455 198.563 148.33 197.736 148.181 197.367C147.893 196.653 146.511 196.989 146.511 196.989C146.511 196.989 147.186 196.257 146.789 195.701C146.556 195.376 141.311 196.507 141.311 196.507C141.311 196.507 143.836 193.53 142.999 193.245C142.162 192.959 135.859 197.8 135.859 197.8L138.023 203.824Z" fill="#FFE5D8"/>
<path d="M143.655 202.713C143.605 202.713 143.559 202.673 143.546 202.613C143.531 202.542 143.567 202.469 143.627 202.451C144.402 202.216 145.672 201.818 145.781 201.753C145.912 201.668 147.315 200.672 147.329 200.662C147.383 200.625 147.451 200.645 147.484 200.708C147.516 200.771 147.499 200.853 147.446 200.89C147.387 200.931 146.025 201.899 145.889 201.987C145.749 202.078 144.027 202.604 143.684 202.709C143.674 202.712 143.665 202.713 143.655 202.713Z" fill="black"/>
<path d="M143.127 200.691C143.075 200.691 143.027 200.648 143.016 200.585C143.004 200.513 143.043 200.443 143.104 200.428L145.521 199.835L147.395 198.45C147.448 198.411 147.517 198.43 147.55 198.492C147.583 198.554 147.567 198.636 147.515 198.675L145.624 200.073C145.612 200.082 145.599 200.087 145.586 200.091L143.149 200.688C143.142 200.69 143.134 200.691 143.127 200.691Z" fill="black"/>
<path d="M142.716 198.688C142.667 198.688 142.621 198.65 142.607 198.591C142.591 198.52 142.626 198.447 142.686 198.427L144.764 197.754L146.466 196.868C146.521 196.838 146.588 196.868 146.614 196.936C146.639 197.003 146.613 197.082 146.556 197.112L144.839 198.005L142.746 198.685C142.735 198.687 142.726 198.688 142.716 198.688Z" fill="black"/>
<path d="M108.821 207.263C107.16 205.108 102.433 194.745 101.922 190.672C101.412 186.6 103.072 178.013 105.372 177.782C107.671 177.551 111.12 178.456 112.143 182.528C112.833 185.279 115.674 193.766 117.764 197.772C119.805 201.686 110.482 209.418 108.821 207.263Z" fill="#064E3B"/>
<path d="M109.556 207.749C109.346 207.749 109.167 207.712 109.051 207.617C105.681 204.876 101.746 192.435 101.716 191.275C101.715 191.201 101.763 191.139 101.826 191.137C101.827 191.137 101.828 191.137 101.829 191.137C101.89 191.137 101.94 191.194 101.942 191.266C101.97 192.413 105.854 204.693 109.178 207.398C109.485 207.647 110.658 207.31 111.326 207.04C111.384 207.015 111.448 207.053 111.469 207.122C111.489 207.192 111.458 207.267 111.399 207.291C111.255 207.349 110.244 207.749 109.556 207.749Z" fill="#87AC61"/>
<path d="M117.855 200.522C117.847 200.522 117.838 200.521 117.83 200.519C117.769 200.503 117.731 200.431 117.745 200.359L118.147 198.244C117.86 197.455 113.453 185.329 112.045 182.597C112.013 182.535 112.03 182.453 112.083 182.414C112.136 182.376 112.205 182.395 112.238 182.458C113.693 185.285 118.321 198.05 118.368 198.179C118.377 198.204 118.379 198.233 118.374 198.26L117.964 200.417C117.953 200.48 117.907 200.522 117.855 200.522Z" fill="#87AC61"/>
<path d="M110.456 179.586C110.429 179.586 110.402 179.574 110.38 179.551C110.344 179.512 106.805 175.687 105.008 176.856C104.954 176.891 104.884 176.868 104.854 176.804C104.824 176.739 104.844 176.659 104.899 176.622C106.834 175.364 110.382 179.192 110.533 179.355C110.579 179.405 110.581 179.489 110.539 179.542C110.517 179.571 110.487 179.586 110.456 179.586Z" fill="#87AC61"/>
<path d="M135.859 204.929C135.814 204.929 135.771 204.896 135.754 204.844C135.732 204.775 135.761 204.698 135.819 204.672L137.982 203.699C137.996 203.693 138.002 203.689 138.026 203.69L141.022 203.778C141.084 203.78 141.133 203.841 141.131 203.915C141.13 203.987 141.08 204.044 141.019 204.044C141.018 204.044 141.017 204.044 141.016 204.044L138.042 203.957L135.9 204.92C135.886 204.927 135.872 204.929 135.859 204.929Z" fill="black"/>
</svg>
