<svg width="46" height="59" viewBox="0 0 46 59" fill="none" xmlns="http://www.w3.org/2000/svg">
<path d="M19.031 13.0018C20.3182 14.3516 21.1082 16.0453 21.3546 17.8855C21.4449 18.5594 21.4537 19.2406 21.5186 19.9172L21.2719 19.6393L18.92 17.0298C18.9795 16.7791 18.9689 16.4874 18.9807 16.2298L19.003 13.9666C19.0009 13.6514 18.9709 13.3123 19.031 13.0018Z" fill="#059669"/>
<path d="M11.0651 38.2824C11.7776 38.1546 12.5128 38.1233 13.2361 38.1459C13.6791 38.1598 14.1317 38.1868 14.5624 38.2966C15.2065 38.4608 15.8117 38.7641 16.3555 39.1397C16.8318 39.4687 17.2307 39.8506 17.617 40.2784L16.7321 40.2677L16.4126 40.2654L12.8832 40.2695C12.3086 39.7216 11.6698 39.3046 11.1628 38.679C11.0783 38.5749 10.9598 38.4615 10.9216 38.3347L11.0651 38.2824Z" fill="#059669"/>
<path d="M11.0884 38.3418C11.6268 38.4736 12.1487 38.6736 12.6778 38.8379C13.9053 39.219 15.1303 39.5865 16.3164 40.0848C16.4469 40.1396 16.6256 40.1765 16.7321 40.2677L16.4125 40.2653C16.3548 40.235 16.2959 40.202 16.2309 40.1907C15.7405 40.1043 15.2399 39.8349 14.7707 39.6652L11.9712 38.682L11.4587 38.5083C11.373 38.4821 11.2621 38.4696 11.1831 38.4298C11.1435 38.4098 11.1162 38.3746 11.0884 38.3418Z" fill="#022C22"/>
<path d="M29.192 37.5397C28.7533 36.4961 28.4392 35.3888 28.0899 34.3123L27.4563 32.2744C27.358 31.9321 27.2321 31.5476 27.1964 31.193C27.4229 31.6646 27.5798 32.208 27.7631 32.6997L29.1035 36.707C29.1698 36.9427 29.2907 37.1958 29.2953 37.4408L29.3601 37.4735L29.3677 37.5934L29.4232 37.5946L30.2392 36.5605C30.4826 36.2777 30.8516 35.9489 31.0284 35.6262C31.3983 34.951 31.4664 34.1352 31.7418 33.4315L31.7605 33.3851L31.9448 33.3409L31.3383 35.2963C31.6426 34.9976 31.9388 34.6839 32.2603 34.4034C32.7783 33.9515 33.3307 33.5492 33.8796 33.136L34.0045 33.2193L31.0926 36.2374L31.9661 36.0136C32.1169 35.9767 32.2956 35.9511 32.4318 35.8764L36.2676 35.0031L39.5645 34.3494L43.0278 33.4769C43.8959 33.2485 44.789 32.9627 45.684 32.87L45.6573 32.9356C43.5906 33.6326 41.489 34.3063 39.3576 34.7804L35.4552 35.4824C34.4359 35.6748 33.4176 35.9435 32.3939 36.0959L32.3062 36.1023L32.2461 36.1275C31.9298 36.2564 31.5618 36.3126 31.232 36.4117C31.1185 36.4458 30.9465 36.4842 30.8509 36.5516C30.5908 36.7346 30.3323 37.1857 30.1384 37.4432L28.2849 39.9173C28.2019 40.0117 28.1066 40.1067 28.078 40.2327L27.8286 40.245L27.8233 39.9198L28.8917 38.3281C29.0284 38.1303 29.2014 37.9437 29.3083 37.7295L29.2072 37.6358L29.192 37.5397Z" fill="#064E3B"/>
<path d="M28.2848 39.9173C28.5116 39.813 28.7254 39.6266 28.9338 39.4872C29.2495 39.2761 29.5809 39.0851 29.919 38.9116C31.5891 38.0546 33.7355 37.8111 35.5315 38.3766L35.0873 38.762C34.6142 39.1467 34.1329 39.482 33.6015 39.7836C33.336 39.9343 33.032 40.0605 32.7828 40.2333L30.4617 40.2281L30.1714 40.2277L28.9014 40.2261C28.6477 40.2634 28.3378 40.2309 28.0779 40.2327C28.1065 40.1067 28.2018 40.0117 28.2848 39.9173Z" fill="#10B981"/>
<path d="M28.9014 40.2261C29.3666 40.1729 29.8098 40.0306 30.2657 39.9309L32.8068 39.3749L34.4817 38.9056C34.2927 39.0417 34.0339 39.1036 33.815 39.1818C32.9407 39.4938 32.0751 39.7316 31.1725 39.9487C30.9141 40.0109 30.3647 40.0641 30.1714 40.2278L28.9014 40.2261Z" fill="#065F46"/>
<path d="M34.8757 38.8388C34.9442 38.788 35.0054 38.7795 35.0873 38.7621C34.6143 39.1467 34.133 39.482 33.6016 39.7836C33.3361 39.9343 33.0321 40.0606 32.7828 40.2333L30.4618 40.2281L30.1715 40.2278C30.3647 40.0641 30.9142 40.0109 31.1725 39.9487C32.0752 39.7316 32.9408 39.4938 33.815 39.1818C34.034 39.1036 34.2927 39.0417 34.4818 38.9056L34.5222 38.8601C34.6598 38.8163 34.7359 38.8131 34.8757 38.8388Z" fill="#064E3B"/>
<path d="M34.4818 38.9056L34.5222 38.8601C34.6598 38.8163 34.7359 38.8131 34.8757 38.8388C34.6846 38.9792 34.4754 39.0697 34.2634 39.1733C33.5461 39.5235 32.7796 39.7306 32.0091 39.9273C31.6814 40.011 31.3565 40.115 31.0233 40.1761C30.8376 40.2101 30.6458 40.1925 30.4618 40.2281L30.1715 40.2278C30.3647 40.0641 30.9142 40.0109 31.1725 39.9487C32.0752 39.7316 32.9408 39.4938 33.815 39.1818C34.034 39.1036 34.2927 39.0417 34.4818 38.9056Z" fill="#34D399"/>
<path d="M15.9318 10.9005C16.5127 11.1567 17.1512 11.4803 17.6428 11.8825L17.9389 12.0744C18.332 12.3255 18.7072 12.6678 19.031 13.0018C18.9709 13.3123 19.0009 13.6514 19.003 13.9666L18.9807 16.2298C18.969 16.4874 18.9795 16.7791 18.92 17.0298C18.7337 16.8171 18.4885 16.4833 18.252 16.3362C18.1151 16.2656 18.054 16.189 17.999 16.0476C17.8383 15.8207 17.5991 15.6194 17.3974 15.4267L16.2174 14.282C16.2261 13.8681 16.1661 13.451 16.1329 13.0386L15.9318 10.9005Z" fill="#34D399"/>
<path d="M17.6427 11.8825L17.9388 12.0744C18.332 12.3255 18.7071 12.6678 19.0309 13.0018C18.9708 13.3123 19.0009 13.6514 19.0029 13.9666L18.9806 16.2298C18.9689 16.4874 18.9795 16.7791 18.92 17.0298C18.7336 16.8171 18.4884 16.4833 18.2519 16.3362C18.115 16.2656 18.054 16.189 17.999 16.0476C18.047 15.8368 17.9636 15.4829 17.9446 15.2578C17.8501 14.1374 17.6838 13.0047 17.6427 11.8825Z" fill="#34D399"/>
<path d="M17.6427 11.8825L17.9388 12.0744L18.2519 16.3362C18.115 16.2656 18.054 16.189 17.999 16.0476C18.047 15.8368 17.9636 15.4829 17.9446 15.2579C17.8501 14.1375 17.6838 13.0047 17.6427 11.8825Z" fill="#022C22"/>
<path d="M33.0233 40.2566L37.4413 40.2719L37.4431 43.4417C37.0876 43.4416 36.7115 43.4164 36.3596 43.4628L36.3245 43.5001C36.1484 43.5709 35.8512 43.5354 35.6581 43.535L34.193 43.531L30.5587 43.5296L30.5605 43.505L32.5208 43.4962C32.6201 43.3191 32.6438 43.0351 32.6844 42.8329C32.8578 41.9706 32.9669 41.1336 33.0233 40.2566Z" fill="#DC2626"/>
<path d="M38.488 31.8173C40.3961 31.5236 42.4733 31.7831 44.3195 32.3133C44.7735 32.4437 45.2662 32.5838 45.6973 32.7795L45.684 32.87C44.789 32.9628 43.8959 33.2485 43.0278 33.4769L39.5644 34.3494L36.2676 35.0031L32.4318 35.8765C33.0609 35.1035 33.7638 34.4019 34.5294 33.7618C34.947 33.4127 35.3845 33.0658 35.8569 32.791C36.675 32.315 37.5623 32.0059 38.488 31.8173Z" fill="#10B981"/>
<path d="M0.0495605 32.9415L0.0575069 32.8769C2.48421 31.6148 5.61636 31.2481 8.24595 32.0574C9.77487 32.5279 11.1335 33.4102 12.2514 34.5378C12.667 34.9569 13.0832 35.4357 13.3734 35.9488L13.3769 35.9572C13.1883 35.9462 12.9711 35.8672 12.7852 35.8239L10.9188 35.3474L7.43408 34.4969L2.03668 33.304C1.43102 33.1714 0.808382 33.0896 0.210263 32.9305L0.0495605 32.9415Z" fill="#10B981"/>
<path d="M45.6973 32.7795L45.9618 32.8511L45.9831 32.8996L45.9347 32.9532C44.0639 35.3387 41.3461 37.1286 38.2824 37.5007C36.6676 37.6968 34.961 37.4341 33.4737 36.7906C33.1398 36.6462 32.7603 36.4755 32.4696 36.2555C32.4103 36.2105 32.3556 36.1576 32.3062 36.1023L32.3939 36.0959C33.4176 35.9435 34.4358 35.6748 35.4552 35.4824L39.3576 34.7804C41.489 34.3063 43.5906 33.6326 45.6573 32.9356L45.684 32.87L45.6973 32.7795Z" fill="#064E3B"/>
<path d="M45.6973 32.7795L45.9618 32.8511L45.9831 32.8996L45.9347 32.9532L45.8995 32.9629C45.4704 33.086 45.0579 33.3386 44.656 33.5309L42.9337 34.2747C40.1447 35.3355 37.3142 35.9354 34.3345 36.1313C33.7211 36.1717 32.9895 36.2705 32.3939 36.0959C33.4176 35.9435 34.4359 35.6748 35.4552 35.4824L39.3576 34.7804C41.489 34.3063 43.5906 33.6326 45.6573 32.9356L45.684 32.87L45.6973 32.7795Z" fill="#34D399"/>
<path d="M32.7405 25.4079C33.0758 25.1932 33.4703 25.0395 33.8247 24.8533C33.9873 24.7679 34.1363 24.6417 34.3071 24.5789C34.4669 26.2263 34.3382 27.844 33.9421 29.4509C33.6541 30.6194 33.2049 31.8056 32.4247 32.7431L32.0857 33.0966L31.9818 33.1849L31.9448 33.3409L31.7605 33.3851C31.7745 33.2706 31.7878 33.1851 31.7488 33.0749C31.3815 32.5769 31.0714 31.9935 30.796 31.4416C30.2323 30.3122 29.7935 29.1645 29.5345 27.9296C29.4494 27.5236 29.4326 27.1179 29.3632 26.713L29.3583 26.6855C29.7545 26.5728 30.1557 26.5043 30.5476 26.371L31.312 26.0722C31.4566 26.0076 31.6013 25.9198 31.7591 25.8957C31.8446 25.8155 31.9676 25.7738 32.0739 25.7242C32.2418 25.5822 32.5378 25.5132 32.7405 25.4079Z" fill="#064E3B"/>
<path d="M32.7405 25.4079C32.8562 25.702 32.9048 26.0342 32.9315 26.3482L32.0724 26.2756L32.0739 25.7242C32.2419 25.5822 32.5378 25.5132 32.7405 25.4079Z" fill="#34D399"/>
<path d="M32.0724 26.2756L32.9315 26.3482C32.9896 27.5073 32.948 28.7209 32.7631 29.8669L32.4128 31.553L32.195 32.4146C32.136 32.6422 32.0586 32.8585 32.0857 33.0966L31.9818 33.1849C31.9509 32.8907 31.9989 32.5524 32.0102 32.2552L32.0976 30.1137L32.0724 26.2756Z" fill="#10B981"/>
<path d="M31.7591 25.8957C31.8446 25.8155 31.9676 25.7738 32.0739 25.7242L32.0724 26.2756L32.0976 30.1137L32.0101 32.2552C31.9989 32.5524 31.9508 32.8907 31.9818 33.1849L31.9448 33.3409L31.7605 33.3851C31.7745 33.2706 31.7878 33.1851 31.7488 33.0749C31.3815 32.5769 31.0714 31.9935 30.796 31.4416C30.2323 30.3122 29.7935 29.1645 29.5345 27.9296C29.4494 27.5236 29.4326 27.1179 29.3632 26.713L29.3583 26.6855C29.7545 26.5728 30.1557 26.5043 30.5476 26.371L31.312 26.0722C31.4566 26.0076 31.6013 25.9198 31.7591 25.8957Z" fill="#10B981"/>
<path d="M31.7591 25.8957C31.8446 25.8155 31.9676 25.7738 32.0739 25.7242L32.0724 26.2756L32.0976 30.1137L32.0101 32.2552C31.9989 32.5524 31.9508 32.8907 31.9817 33.1849L31.9448 33.3409L31.7605 33.3851C31.7745 33.2706 31.7878 33.1851 31.7488 33.0749C31.784 32.9153 31.7671 32.7245 31.7686 32.5606L31.7798 31.6913L31.8185 27.7903C31.8143 27.162 31.8352 26.5203 31.7591 25.8957Z" fill="#065F46"/>
<path d="M41.3469 20.4202L41.4832 20.3533C41.5698 20.4184 41.5553 20.5106 41.5711 20.614C42.1235 23.5116 41.8003 26.7128 40.0874 29.194C39.5934 29.9096 38.9724 30.5317 38.3166 31.1018C37.6433 31.6723 36.9264 32.1235 36.1101 32.4695C35.712 32.6383 35.2987 32.7447 34.8782 32.8426C34.7084 32.8821 34.4786 32.901 34.322 32.9717C34.2024 33.0257 34.0963 33.1275 34.0044 33.2193L33.8795 33.136C34.0138 33.0242 34.1459 32.9529 34.2036 32.786L34.2557 32.7337L35.9254 30.5898C36.6788 29.5805 37.3924 28.507 38.0126 27.4124L39.9864 23.5133L41.3811 20.4844L41.3469 20.4202Z" fill="#064E3B"/>
<path d="M41.347 20.4202L41.4833 20.3533C41.5698 20.4184 41.5554 20.5106 41.5712 20.614L41.5492 20.6541C41.4533 20.8356 41.4099 21.0766 41.3447 21.2727L40.4581 24.1411C39.641 26.5481 38.454 28.7727 36.7183 30.6569C36.3426 31.0647 35.9231 31.4346 35.5141 31.8094L34.8121 32.4622C34.6755 32.5934 34.5336 32.7618 34.368 32.8544L34.3194 32.7982L34.2557 32.7337L35.9255 30.5898C36.6789 29.5805 37.3924 28.507 38.0126 27.4124L39.9865 23.5133L41.3811 20.4844L41.347 20.4202Z" fill="#34D399"/>
<mask id="mask0_826_849" style="mask-type:luminance" maskUnits="userSpaceOnUse" x="34" y="20" width="8" height="13">
<path d="M41.3811 20.4844L41.442 20.5382L40.5154 22.9352C39.8934 24.4552 39.2173 25.9748 38.4052 27.4053C37.605 28.8147 36.6607 30.1426 35.6053 31.3746L34.8678 32.2315C34.701 32.4262 34.5311 32.6487 34.3194 32.7982L34.2557 32.7337L35.9255 30.5898C36.6789 29.5805 37.3924 28.507 38.0126 27.4124L39.9865 23.5133L41.3811 20.4844Z" fill="white"/>
</mask>
<g mask="url(#mask0_826_849)">
<path d="M41.3811 20.4844L41.442 20.5382L40.5154 22.9352C39.8934 24.4552 39.2173 25.9748 38.4052 27.4053C37.605 28.8147 36.6607 30.1426 35.6053 31.3746L34.8678 32.2315C34.701 32.4262 34.5311 32.6487 34.3194 32.7982L34.2557 32.7337L35.9255 30.5898C36.6789 29.5805 37.3924 28.507 38.0126 27.4124L39.9865 23.5133L41.3811 20.4844Z" fill="url(#paint0_linear_826_849)"/>
</g>
<path d="M34.2037 32.786C34.1424 32.3151 34.1452 31.8398 34.1473 31.366C34.1539 29.9215 34.362 28.5265 34.8398 27.1595C35.4657 25.3691 36.5465 23.7471 38.0023 22.5121C39.0058 21.6607 40.1631 20.9913 41.347 20.4202L41.3811 20.4844L39.9865 23.5133L38.0126 27.4124C37.3924 28.507 36.6789 29.5805 35.9254 30.5898L34.2557 32.7337L34.2037 32.786Z" fill="#10B981"/>
<path d="M11.3911 32.6979C10.0994 32.5701 8.84095 32.0068 7.79563 31.2587C5.65433 29.7262 4.28992 27.2757 3.89767 24.7098C3.70695 23.4625 3.71625 22.1027 3.92063 20.8579C3.94332 20.7196 3.95065 20.4828 4.03562 20.3701L4.09614 20.3961C4.11604 20.4689 4.12745 20.5349 4.1718 20.5973L11.3911 32.6979Z" fill="#10B981"/>
<path d="M10.5118 9.59789L10.5148 9.60706L10.5151 9.61672C10.5206 9.78556 10.5618 9.95288 10.6042 10.1253C10.6183 10.183 10.6327 10.2413 10.6459 10.3004L10.5808 10.3149L10.6459 10.3004C10.8623 11.2708 11.19 12.3435 11.6591 13.2185L11.6592 13.2185L11.6603 13.2208L11.7765 13.4586L11.7766 13.4586L11.778 13.4617C12.0728 14.1517 12.4784 14.8792 12.9473 15.4661L12.9473 15.466L12.9488 15.468L13.1652 15.7602L13.8851 16.5816C13.9168 16.6163 13.9483 16.6521 13.9798 16.6878C14.0769 16.7981 14.1744 16.9086 14.2789 16.9913L14.2792 16.9908L14.2854 16.9972C15.9437 18.7133 18.2215 19.8203 20.6276 19.8748L21.1922 19.8538L21.125 19.7466L21.0933 19.6961L21.14 19.659L21.1749 19.6312L18.8705 17.0744L18.8699 17.0737C18.8277 17.0256 18.7827 16.9715 18.7361 16.9155C18.7304 16.9087 18.7247 16.9019 18.719 16.895C18.6662 16.8316 18.6112 16.766 18.555 16.7027C18.4422 16.5758 18.3278 16.4625 18.2189 16.3942C18.1463 16.3565 18.09 16.3151 18.0442 16.2619C17.9998 16.2103 17.9682 16.1507 17.94 16.0796C17.8177 15.9091 17.6507 15.754 17.4857 15.6009C17.4405 15.5588 17.3954 15.517 17.3514 15.4749L17.351 15.4746L16.1709 14.3298L16.1501 14.3096L16.1507 14.2806C16.1569 13.986 16.128 13.6914 16.0987 13.3937C16.0873 13.2778 16.0759 13.1615 16.0664 13.0444C16.0664 13.0443 16.0664 13.0441 16.0664 13.044L15.869 10.9459L15.6098 10.8329L13.6304 10.1344C13.6225 10.1349 13.6152 10.1347 13.6091 10.1344C13.5952 10.1337 13.5802 10.1318 13.5652 10.1293C13.5353 10.1243 13.5007 10.1162 13.4674 10.1077C13.4323 10.0987 13.4001 10.0898 13.3728 10.0822C13.3455 10.0746 13.3232 10.0684 13.308 10.065L10.5999 9.60793L10.5992 9.6078L10.5097 9.59173L10.5118 9.59789Z" fill="#111827" stroke="#1F2937" stroke-width="0.133333" stroke-linecap="round"/>
<path d="M10.611 9.54219L13.3208 9.99952C13.3873 10.3544 13.532 10.7025 13.6419 11.0464L14.0067 12.3295L10.611 9.54219Z" fill="#34D399"/>
<path d="M13.6371 10.066L15.6342 10.7708L15.9178 13.971L14.3232 12.5971C14.1902 11.7556 13.9042 10.8777 13.6371 10.066Z" fill="#34D399"/>
<path d="M13.1132 15.802L16.849 16.1281C16.9715 16.1376 17.7361 16.1533 17.7899 16.1837C17.9093 16.2513 18.0501 16.4177 18.1518 16.5179L18.9638 17.3134C18.925 17.3327 18.8925 17.3507 18.8483 17.3549C18.4076 17.3967 17.9045 17.2918 17.4607 17.2624L14.2374 17.0436C14.0932 16.9295 13.9602 16.7629 13.8353 16.6261L13.1132 15.802Z" fill="#34D399"/>
<path d="M11.7167 13.4879L11.7524 13.5071C12.1895 13.7336 12.7652 13.7987 13.2448 13.8955L15.2264 14.2857C15.431 14.3244 15.7624 14.3301 15.9454 14.4096C16.0777 14.467 16.2579 14.6868 16.3692 14.7931L17.5243 15.8845L14.7385 15.6253C14.1348 15.5724 13.5008 15.4918 12.8953 15.5077C12.4218 14.9151 12.0133 14.1821 11.7167 13.4879Z" fill="#34D399"/>
<path d="M10.4485 9.6189L15.6659 14.1094C14.7502 13.8335 13.7741 13.689 12.8372 13.497C12.4473 13.4172 11.9949 13.2552 11.6004 13.25C11.1272 12.3675 10.7979 11.2881 10.5808 10.3149C10.53 10.0871 10.4561 9.85257 10.4485 9.6189Z" fill="#34D399"/>
<path d="M14.2374 17.0435L17.4607 17.2624C17.9045 17.2918 18.4076 17.3967 18.8483 17.3549C18.8925 17.3507 18.925 17.3327 18.9638 17.3134C19.7578 18.0149 20.532 18.8741 21.1814 19.7112L21.3099 19.9161L20.628 19.9415C18.2017 19.8871 15.9069 18.7713 14.2374 17.0435Z" fill="#059669"/>
<path d="M33.3737 16.2845C35.5785 15.368 37.9091 14.8996 40.3002 14.8809L40.2452 14.9485L25.3168 26.2993C25.1322 26.4172 24.7144 26.7627 24.5133 26.7567L24.4987 26.7474C24.6382 26.5523 24.699 26.1181 24.7667 25.875L25.0753 24.9155C25.3139 24.2295 25.5852 23.554 25.9359 22.9161C27.0194 20.9449 28.7305 19.1666 30.5748 17.8799C31.4614 17.2614 32.4012 16.7557 33.3737 16.2845Z" fill="#10B981"/>
<path d="M8.64804 17.4957L8.61707 17.3759C8.7525 17.2706 9.4775 17.3969 9.68235 17.4218C12.7919 17.7985 15.9956 18.6678 18.5285 20.5663C19.461 21.2651 20.268 22.0963 20.986 23.008C21.6324 23.8285 22.1207 24.7063 22.5833 25.6366C22.8966 26.2666 23.202 26.9049 23.4364 27.5685C23.5478 27.8837 23.6403 28.2076 23.72 28.5321C23.7771 28.7643 23.811 29.0261 23.9217 29.2388L23.9209 29.8312L23.8254 29.8209C23.6964 29.7884 23.5654 29.6733 23.4548 29.5989L22.7194 29.1089L21.46 28.2763L19.4424 26.7563L14.4164 22.7735L11.7537 20.5356L9.916 18.7756C9.52572 18.3861 9.1385 17.8686 8.66386 17.5844L8.64804 17.4957Z" fill="#10B981"/>
<path d="M8.64807 17.4957C8.85231 17.5273 9.15069 17.8503 9.32063 17.9883L11.1649 19.4977L18.6043 25.5669L21.5326 27.853L23.8255 29.8209C23.6965 29.7884 23.5655 29.6733 23.4548 29.5989L22.7194 29.1089L21.4601 28.2762L19.4424 26.7563L14.4165 22.7735L11.7537 20.5356L9.91603 18.7756C9.52576 18.3861 9.13853 17.8686 8.6639 17.5844L8.64807 17.4957Z" fill="#064E3B"/>
<path d="M27.4357 13.5498L27.4276 13.5538L27.4194 13.5731C27.4111 13.5928 27.4026 13.6141 27.3937 13.6363C27.3669 13.7032 27.3369 13.7783 27.2986 13.8418L27.2918 13.853L27.2813 13.8608C27.2602 13.8765 27.238 13.9043 27.2152 13.9452C27.1928 13.9854 27.1724 14.0339 27.153 14.0863C27.137 14.1298 27.1223 14.1743 27.1078 14.218C27.1049 14.227 27.1019 14.236 27.0989 14.2449C27.0843 14.2888 27.0696 14.3322 27.0543 14.3693L27.0562 14.3838L27.0577 14.3955L27.0551 14.4071L27.0407 14.4711L27.0407 14.4711L27.0405 14.4718C26.9906 14.6819 26.912 14.8927 26.8304 15.0996C26.8133 15.1428 26.7961 15.1859 26.779 15.2287C26.7138 15.3921 26.6497 15.5527 26.5974 15.7117C26.2572 16.7467 26.0468 17.9418 26.0713 19.033L26.0786 19.0465L26.1241 19.13C26.1663 19.1319 26.2052 19.1235 26.2581 19.1121C26.2672 19.1101 26.2768 19.1081 26.2869 19.1059L26.2867 19.1049L26.2985 19.1046L26.3481 19.103C26.518 19.0894 26.6903 19.0575 26.8638 19.0253C26.9349 19.0121 27.0062 18.9988 27.0776 18.9868C28.5495 18.7389 29.9931 18.1669 31.1638 17.2417C31.8468 16.702 32.436 16.0573 32.9982 15.3909L33.634 14.5424L33.6874 14.5824L33.634 14.5424L33.8172 14.2979C33.8173 14.2979 33.8173 14.2979 33.8173 14.2978C34.352 13.5777 34.7245 12.6441 35.0633 11.7951C35.0793 11.755 35.0952 11.7152 35.111 11.6755C35.111 11.6755 35.1111 11.6754 35.1111 11.6754L35.2382 11.3532L35.4838 10.3846C35.653 9.60701 35.7521 8.83093 35.797 8.03639C35.7993 7.99461 35.8025 7.95209 35.8057 7.9089C35.8112 7.83479 35.8169 7.75868 35.8189 7.68091C35.8215 7.58139 35.8175 7.4871 35.8003 7.40509C34.7404 7.6189 33.7247 8.03346 32.7395 8.48077L32.4177 8.64547L30.9606 9.5125L30.669 9.73593L30.669 9.73595L30.6675 9.73704C30.1382 10.1197 29.6255 10.5446 29.2132 11.0455L29.2131 11.0457L28.9429 11.372L28.9429 11.372L28.9419 11.3732C28.3661 12.0357 27.8487 12.7331 27.4659 13.5193L27.456 13.5397L27.4357 13.5498Z" fill="#111827" stroke="#1F2937" stroke-width="0.133333" stroke-linecap="round"/>
<path d="M32.7104 8.42071C33.7052 7.96903 34.7357 7.54837 35.8133 7.33448C35.7097 7.52328 35.5321 7.69075 35.3857 7.84994L34.5778 8.7187L32.8258 10.7327L32.7104 8.42071Z" fill="#059669"/>
<path d="M30.9231 9.45721L32.3854 8.5871L32.5712 11.0828L31.2484 12.5992L31.0111 10.3538C30.9837 10.0661 30.9912 9.73428 30.9231 9.45721Z" fill="#059669"/>
<path d="M26.9901 14.3924L26.9859 14.3599C27.0518 14.2104 27.1138 13.9025 27.2415 13.8073L27.2524 13.8673C27.3156 14.1835 28.2446 16.2137 28.1939 16.2956C28.0542 16.5214 27.8316 16.7336 27.6606 16.94L26.6472 18.242L26.0651 18.9407C26.0283 18.9893 26.0281 19.0179 26.0201 19.0784L26.0059 19.0843C25.9736 17.9709 26.1867 16.7476 26.5341 15.6909C26.6676 15.2846 26.8782 14.8666 26.9756 14.4564L26.9901 14.3924Z" fill="#059669"/>
<path d="M29.1617 11.0032C29.5792 10.4959 30.0971 10.0671 30.6284 9.68301C30.7276 10.0041 30.7338 10.357 30.7678 10.69C30.8404 11.3993 30.8883 12.1138 31.0217 12.8149L29.7311 14.3995L29.3603 12.0942C29.3047 11.7374 29.2769 11.3444 29.1617 11.0032Z" fill="#059669"/>
<path d="M27.3289 13.5285L27.4059 13.4901C27.7922 12.6967 28.3136 11.9944 28.8915 11.3295C29.1093 12.0843 29.1824 12.893 29.2979 13.6689L29.4916 14.6737L28.3809 16.0555L27.7638 14.3986C27.6763 14.1583 27.5859 13.7574 27.4099 13.5671L27.3579 13.5471L27.3289 13.5285Z" fill="#059669"/>
<path d="M35.8504 7.33268C35.9142 7.53998 35.8757 7.82277 35.8634 8.04016C35.8184 8.83821 35.7188 9.61816 35.5486 10.3999L35.3016 11.3737C35.0008 11.4075 34.7116 11.5468 34.4233 11.6344L32.5631 12.1932C32.2402 12.2908 31.9165 12.409 31.5891 12.4889L33.7125 10.0303L34.8554 8.61106L35.503 7.85311C35.6019 7.73954 35.7506 7.60309 35.821 7.47431C35.8479 7.42479 35.8475 7.38745 35.8504 7.33268Z" fill="#059669"/>
<path d="M33.8707 14.3377L30.0249 14.3602L30.0373 14.3195C30.0866 14.2186 30.2044 14.1081 30.2778 14.0178L30.89 13.2727C30.9728 13.1692 31.0926 12.966 31.1945 12.8904C31.2438 12.8538 31.381 12.8301 31.4424 12.8124L32.1758 12.6052L35.1729 11.7002C34.8222 12.5776 34.4369 13.5751 33.8707 14.3377Z" fill="#059669"/>
<path d="M26.3005 19.1712C26.41 18.9659 28.3458 16.4135 28.4299 16.3685C28.4597 16.3525 28.5694 16.3483 28.606 16.3433L29.0936 16.2742L31.8756 15.827C32.1001 15.7905 32.5621 15.782 32.7464 15.6672C32.6417 15.6123 32.2811 15.6768 32.1449 15.686L28.6257 16.0612L29.7306 14.6331L33.6873 14.5824L33.0503 15.4325C32.4869 16.1004 31.8939 16.7497 31.205 17.294C30.0241 18.2273 28.5696 18.8031 27.0886 19.0526C26.8475 19.0931 26.5955 19.1503 26.3518 19.1696L26.3005 19.1712Z" fill="#059669"/>
<path d="M29.3583 26.6855L29.3633 26.7131C29.4326 27.1179 29.4495 27.5236 29.5346 27.9296C29.7935 29.1645 30.2323 30.3122 30.796 31.4416C31.0714 31.9935 31.3815 32.577 31.7488 33.0749C31.7878 33.1851 31.7745 33.2706 31.7606 33.3851L31.7418 33.4315C31.4665 34.1352 31.3983 34.951 31.0284 35.6262C30.8516 35.9489 30.4826 36.2777 30.2392 36.5605L29.4232 37.5946L29.3677 37.5934L29.3601 37.4735L29.2953 37.4408C29.2907 37.1958 29.1698 36.9427 29.1035 36.707L27.7632 32.6997C27.5798 32.208 27.4229 31.6646 27.1964 31.1931C27.2321 31.5477 27.358 31.9321 27.4564 32.2745L28.0899 34.3123C28.4392 35.3889 28.7533 36.4962 29.192 37.5397L29.2072 37.6358L29.3083 37.7295C29.2014 37.9437 29.0284 38.1303 28.8917 38.3281L27.8233 39.9198L27.4025 39.1044C26.6151 37.7389 25.4929 36.9708 23.9802 36.5602L23.9668 36.5459C23.9655 36.2251 24.0662 35.8699 24.116 35.5518L24.367 33.6862C24.6016 31.5135 24.654 29.3136 24.5054 27.1337C26.1511 27.1639 27.7532 27.0708 29.3583 26.6855Z" fill="white"/>
<path d="M26.2974 28.0102C26.4098 28.1425 26.4147 28.3617 26.4534 28.5316L26.856 30.5374C27.1384 31.8347 27.3691 33.1351 27.7956 34.3969C28.0577 35.1722 28.3341 35.9654 28.6767 36.7097L28.9236 37.2048C28.9976 37.3376 29.0879 37.4114 29.0901 37.5688C28.8295 37.4278 28.5907 37.1886 28.375 36.9872C27.6222 36.2845 26.9476 35.5232 26.5235 34.5777C25.822 33.0136 25.646 31.2047 25.9198 29.521C26.0035 29.0067 26.1098 28.4985 26.2974 28.0102Z" fill="#064E3B"/>
<path d="M26.2974 28.0102L26.3529 27.9392C28.0926 29.3399 29.719 31.4279 29.9488 33.7082C30.0712 34.9224 29.9661 36.3745 29.3601 37.4735L29.2952 37.4408C29.2907 37.1958 29.1698 36.9427 29.1035 36.707L27.7631 32.6997C27.5797 32.208 27.4229 31.6646 27.1964 31.193C27.2321 31.5476 27.358 31.9321 27.4563 32.2744L28.0898 34.3123C28.4391 35.3888 28.7533 36.4961 29.1919 37.5397L29.2072 37.6358L29.09 37.5688C29.0878 37.4114 28.9975 37.3376 28.9236 37.2048L28.6767 36.7097C28.334 35.9654 28.0576 35.1722 27.7956 34.3969C27.369 33.1351 27.1384 31.8347 26.856 30.5374L26.4533 28.5316C26.4147 28.3617 26.4098 28.1425 26.2974 28.0102Z" fill="#10B981"/>
<mask id="mask1_826_849" style="mask-type:luminance" maskUnits="userSpaceOnUse" x="21" y="14" width="20" height="23">
<path d="M23.927 19.3739C24.7704 18.4849 25.4968 17.4242 26.069 16.3473L26.99 14.3924L26.9755 14.4564C26.8781 14.8666 26.6675 15.2846 26.534 15.6909C26.1866 16.7476 25.9735 17.9709 26.0058 19.0843L26.02 19.0784L26.0822 19.1925C26.1607 19.2054 26.2238 19.1873 26.3005 19.1712C25.3015 20.8271 24.7056 22.6345 24.3146 24.516C24.254 24.8068 24.3421 25.1017 24.3703 25.3911L24.4986 26.7474L24.5132 26.7567C24.7143 26.7626 25.1321 26.4171 25.3167 26.2993L40.2451 14.9485L40.3001 14.8809L40.3611 14.9213L40.3009 15.1333C39.5588 17.9638 38.3676 20.7649 36.3146 22.9165C35.7196 23.5401 35.0476 24.1296 34.3071 24.5789C34.1362 24.6417 33.9872 24.7679 33.8247 24.8533C33.4702 25.0395 33.0758 25.1932 32.7405 25.4079C32.5377 25.5132 32.2418 25.5822 32.0739 25.7242C31.9676 25.7738 31.8446 25.8155 31.7591 25.8957C31.6012 25.9199 31.4565 26.0077 31.3119 26.0722L30.5475 26.371C30.1556 26.5043 29.7544 26.5728 29.3582 26.6855C27.7531 27.0707 26.151 27.1639 24.5053 27.1337C24.654 29.3136 24.6015 31.5135 24.3669 33.6862L24.116 35.5518C24.0661 35.8699 23.9654 36.2251 23.9667 36.5459L23.1974 36.4986L23.9048 30.1878L23.921 30.079L23.9209 29.8312L23.9217 29.2388L23.8691 26.5097C23.8539 26.1721 23.8612 25.814 23.8086 25.4805C23.7536 25.1316 23.6228 24.7758 23.5143 24.4387C23.065 23.0421 22.4934 21.8028 21.7083 20.563C21.5722 20.3482 21.4577 20.1239 21.3099 19.9162L21.1814 19.7112L21.2718 19.6393L21.5185 19.9172C21.8512 20.3457 22.1985 20.755 22.4994 21.2079C23.0423 22.0252 23.4269 22.9161 23.792 23.821L23.6061 20.8153C23.5952 20.3647 23.5235 19.815 23.7091 19.3935L23.7308 19.3455L23.7492 19.3354C23.8253 19.34 23.8621 19.3333 23.927 19.3739Z" fill="white"/>
</mask>
<g mask="url(#mask1_826_849)">
<path d="M23.927 19.3739C24.7704 18.4849 25.4968 17.4242 26.069 16.3473L26.99 14.3924L26.9755 14.4564C26.8781 14.8666 26.6675 15.2846 26.534 15.6909C26.1866 16.7476 25.9735 17.9709 26.0058 19.0843L26.02 19.0784L26.0822 19.1925C26.1607 19.2054 26.2238 19.1873 26.3005 19.1712C25.3015 20.8271 24.7056 22.6345 24.3146 24.516C24.254 24.8068 24.3421 25.1017 24.3703 25.3911L24.4986 26.7474L24.5132 26.7567C24.7143 26.7626 25.1321 26.4171 25.3167 26.2993L40.2451 14.9485L40.3001 14.8809L40.3611 14.9213L40.3009 15.1333C39.5588 17.9638 38.3676 20.7649 36.3146 22.9165C35.7196 23.5401 35.0476 24.1296 34.3071 24.5789C34.1362 24.6417 33.9872 24.7679 33.8247 24.8533C33.4702 25.0395 33.0758 25.1932 32.7405 25.4079C32.5377 25.5132 32.2418 25.5822 32.0739 25.7242C31.9676 25.7738 31.8446 25.8155 31.7591 25.8957C31.6012 25.9199 31.4565 26.0077 31.3119 26.0722L30.5475 26.371C30.1556 26.5043 29.7544 26.5728 29.3582 26.6855C27.7531 27.0707 26.151 27.1639 24.5053 27.1337C24.654 29.3136 24.6015 31.5135 24.3669 33.6862L24.116 35.5518C24.0661 35.8699 23.9654 36.2251 23.9667 36.5459L23.1974 36.4986L23.9048 30.1878L23.921 30.079L23.9209 29.8312L23.9217 29.2388L23.8691 26.5097C23.8539 26.1721 23.8612 25.814 23.8086 25.4805C23.7536 25.1316 23.6228 24.7758 23.5143 24.4387C23.065 23.0421 22.4934 21.8028 21.7083 20.563C21.5722 20.3482 21.4577 20.1239 21.3099 19.9162L21.1814 19.7112L21.2718 19.6393L21.5185 19.9172C21.8512 20.3457 22.1985 20.755 22.4994 21.2079C23.0423 22.0252 23.4269 22.9161 23.792 23.821L23.6061 20.8153C23.5952 20.3647 23.5235 19.815 23.7091 19.3935L23.7308 19.3455L23.7492 19.3354C23.8253 19.34 23.8621 19.3333 23.927 19.3739Z" fill="url(#paint1_linear_826_849)"/>
</g>
<path d="M23.9271 19.3739C24.7705 18.4849 25.4969 17.4242 26.0691 16.3473L26.9901 14.3924L26.9756 14.4564C26.8781 14.8666 26.6676 15.2846 26.534 15.6909C26.1867 16.7476 25.9736 17.9709 26.0059 19.0843L25.3727 20.043C24.8178 20.9591 24.3883 22.0149 24.1272 23.0505C23.984 21.8376 23.8344 20.5972 23.9271 19.3739Z" fill="white"/>
<path d="M40.3002 14.8809L40.3612 14.9213L40.301 15.1333L40.2743 15.1538C40.0713 15.3146 39.9177 15.5493 39.761 15.7535L39.1264 16.5512C38.4451 17.3923 37.7474 18.2234 36.9853 18.9946C35.6952 20.3 34.2807 21.5128 32.7598 22.5472C30.834 23.8569 28.7199 24.9101 26.636 25.9457L25.2125 26.602C25.0113 26.6995 24.7574 26.8876 24.5368 26.9165L24.5155 26.8629C24.5698 26.8216 24.5358 26.8397 24.6042 26.8206C24.8504 26.7519 25.1697 26.4788 25.3871 26.3326L25.3168 26.2993L40.2452 14.9485L40.3002 14.8809Z" fill="#34D399"/>
<path d="M40.2451 14.9485L40.2714 15.0055L36.3931 18.5354L32.0424 21.9744L30.2252 23.3103L27.5932 24.9955L25.387 26.3326L25.3168 26.2993L40.2451 14.9485Z" fill="#064E3B"/>
<path d="M23.1975 36.4986L23.9668 36.5459L23.9802 36.5602C25.4929 36.9708 26.6151 37.7389 27.4025 39.1044L27.8233 39.9198L27.8286 40.245L28.078 40.2327C28.3379 40.2309 28.6479 40.2634 28.9015 40.2261L30.1715 40.2277L30.4618 40.2281L32.7829 40.2333L33.0233 40.2566C32.967 41.1336 32.8578 41.9706 32.6844 42.833C32.6438 43.0351 32.6202 43.3191 32.5208 43.4962L30.5605 43.505L30.5588 43.5296L14.9096 43.5234L11.0966 43.4832L10.2108 43.4716C10.0694 43.4694 9.90098 43.4491 9.76377 43.4801L9.75854 43.9141C9.72587 43.7546 9.73749 43.573 9.73321 43.4099L8.54729 43.3969L8.51286 43.3944C8.42898 43.22 8.48168 42.8332 8.48447 42.6348L8.50233 40.9088L8.50967 40.2747L12.8832 40.2695L16.4126 40.2653L16.7321 40.2677L17.617 40.2784L17.7626 40.298C17.7938 40.2843 17.8911 40.2936 17.931 40.2936C18.1107 40.2935 18.4257 40.3346 18.5869 40.2646L18.5926 40.1739C18.6333 40.1156 18.6181 40.1468 18.6397 40.0729C18.8253 39.4355 19.1238 38.8519 19.555 38.3422C20.2446 37.5268 21.1953 36.8816 22.2453 36.6248C22.558 36.5484 22.8777 36.5265 23.1975 36.4986Z" fill="#EE531B"/>
<path d="M30.5605 43.505L15.4523 43.4783C15.584 43.3992 15.9891 43.4362 16.1532 43.4327L18.7794 43.404L30.4484 43.4191L31.8033 43.4238C32.0014 43.4242 32.2735 43.3931 32.4632 43.4394L32.5012 43.4518L32.5208 43.4962L30.5605 43.505Z" fill="#CA8A04"/>
<path d="M22.9906 36.8881L23.0602 36.8787L23.0915 36.9218C22.8837 37.7683 22.5824 38.5714 21.9584 39.2091C21.6321 39.5427 21.2711 39.8245 20.8771 40.076C20.8116 40.1178 20.699 40.2118 20.6275 40.2328C20.5406 40.2584 20.383 40.2395 20.2874 40.2417L19.3237 40.259C19.2526 40.2568 19.2583 40.2534 19.2032 40.2187C19.293 39.8687 19.4931 39.506 19.6893 39.2039C20.449 38.034 21.6079 37.1852 22.9906 36.8881Z" fill="#F68329"/>
<path d="M23.9801 36.5602C25.4928 36.9708 26.615 37.7389 27.4024 39.1044L27.8232 39.9198L27.8286 40.245L24.4483 40.2425C24.5802 39.6084 24.6508 38.9343 24.5474 38.2908C24.4829 37.8896 24.3663 37.4723 24.1943 37.1036C24.1278 36.9612 23.9531 36.7125 23.9801 36.5602Z" fill="#DC2626"/>
<path d="M8.50233 40.9088L28.1965 40.8519L28.1932 42.5194L8.51259 42.5621L8.51286 43.3944C8.42898 43.22 8.48168 42.8332 8.48447 42.6348L8.50233 40.9088Z" fill="#F68329"/>
<path d="M23.1795 0.00328636L23.2502 0.0346413C23.2905 0.0750103 23.382 0.145052 23.3994 0.195917C23.7802 0.607019 24.0987 1.06024 24.4301 1.50976C26.0028 3.64298 27.2498 6.05516 27.696 8.67955C27.8091 9.34525 27.8824 10.035 27.854 10.7108C27.8319 11.237 27.7873 11.7749 27.6763 12.2907C27.5854 12.7129 27.4461 13.1139 27.3289 13.5285L27.358 13.5471C27.3218 13.6325 27.2892 13.7282 27.2415 13.8074C27.1138 13.9025 27.0518 14.2104 26.9859 14.36L26.9901 14.3924L26.0691 16.3473C25.4969 17.4242 24.7705 18.4849 23.9271 19.3739C23.8622 19.3333 23.8254 19.34 23.7493 19.3354L23.7309 19.3455C23.7059 19.29 23.718 19.3021 23.682 19.2657L23.6477 19.2332C23.1808 18.7816 22.8109 18.285 22.4403 17.7564C20.7871 15.3986 19.761 12.3826 19.7282 9.50922C19.6956 6.66273 20.7371 3.94158 22.1668 1.51333L22.7859 0.534622C22.9085 0.351543 23.0242 0.161402 23.1795 0.00328636Z" fill="#10B981"/>
<path d="M23.1795 0.00328636L23.2501 0.0346413C23.2905 0.0750103 23.382 0.145052 23.3993 0.195917C23.7802 0.607019 24.0987 1.06024 24.4301 1.50976C26.0027 3.64298 27.2498 6.05516 27.6959 8.67955C27.8091 9.34525 27.8824 10.035 27.8539 10.7108C27.8318 11.237 27.7873 11.7749 27.6762 12.2907C27.5854 12.7129 27.4461 13.1139 27.3289 13.5285L27.358 13.5471C27.3218 13.6325 27.2892 13.7282 27.2414 13.8074C27.1137 13.9025 27.0517 14.2104 26.9858 14.36L26.99 14.3924L26.069 16.3473C25.4968 17.4242 24.7705 18.4849 23.927 19.3739C23.8622 19.3333 23.8253 19.34 23.7493 19.3354C23.7501 19.2152 23.7565 19.1024 23.7737 18.9833L24.1448 15.1219C24.3319 12.6466 24.3735 10.1347 24.1743 7.6596L23.6838 3.51326L23.3915 1.67669C23.3004 1.13028 23.1598 0.558374 23.1795 0.00328636Z" fill="#064E3B"/>
<path d="M23.1795 0.00328636L23.2501 0.0346413C23.2905 0.0750103 23.382 0.145052 23.3993 0.195917L23.4019 0.238102C23.4222 0.503601 23.5682 0.733105 23.6687 0.976267L24.1536 2.19087L24.7482 4.00335C25.7113 7.28813 25.9483 10.6302 25.3317 14.0016L24.89 15.9301L24.4971 17.4091C24.3339 18.0111 24.171 18.647 23.8745 19.2003L23.838 19.1758L23.8476 19.0842L23.7737 18.9833L24.1448 15.1219C24.3319 12.6466 24.3735 10.1347 24.1743 7.6596L23.6838 3.51326L23.3915 1.67669C23.3004 1.13028 23.1598 0.558374 23.1795 0.00328636Z" fill="#34D399"/>
<path d="M23.1795 0.00329018L23.2501 0.0346451L23.2523 0.0666046C23.2932 0.619137 23.5204 1.21325 23.6566 1.75461L24.2906 4.66462C24.7258 7.07343 24.983 9.56453 24.8883 12.0145C24.796 14.3983 24.3805 16.761 23.8476 19.0842L23.7737 18.9833L24.1448 15.1219C24.3319 12.6467 24.3735 10.1347 24.1743 7.65961L23.6838 3.51326L23.3915 1.6767C23.3004 1.13029 23.1598 0.558378 23.1795 0.00329018Z" fill="#064E3B"/>
<path d="M29.9672 54.4293L32.2838 54.4264L34.5718 54.4253C34.5286 54.8844 34.4463 55.3177 34.315 55.7596C33.9436 56.7202 33.308 57.5248 32.3393 57.9459C32.0348 58.0782 31.7089 58.1724 31.3799 58.2216C30.6147 58.3357 29.8101 58.2978 29.0372 58.3003L25.5475 58.3037C25.8026 58.1205 26.1017 58.0235 26.3876 57.898L27.3331 57.4278C28.4419 56.8218 29.6097 55.6572 29.9672 54.4293Z" fill="#064E3B"/>
<path d="M25.2365 54.4191L29.9673 54.4293C29.6097 55.6572 28.442 56.8218 27.3332 57.4278L26.3877 57.898C26.1018 58.0235 25.8027 58.1205 25.5475 58.3037L15.9935 58.2886C16.0698 58.2777 16.1423 58.266 16.2136 58.2355C16.4455 58.1364 16.6893 58.1027 16.936 58.0545L17.9193 57.8487C19.303 57.5413 20.636 57.0124 21.8351 56.2613C22.4884 55.8522 23.1318 55.3746 23.7007 54.855C23.8191 54.7468 24.0322 54.5944 24.0685 54.4354L25.2365 54.4191Z" fill="#047857"/>
<path d="M11.2431 55.742C11.1334 55.2932 11.1384 54.8502 11.1334 54.3921L13.3931 54.4052L17.8677 54.4277L19.2987 54.4267C19.5789 54.4262 19.8669 54.4413 20.1448 54.4062L24.0686 54.4354C24.0322 54.5944 23.8192 54.7468 23.7007 54.855C23.1318 55.3746 22.4884 55.8522 21.8352 56.2613C20.636 57.0124 19.303 57.5413 17.9194 57.8487L16.936 58.0545C16.6894 58.1027 16.4456 58.1364 16.2136 58.2355C16.1423 58.266 16.0698 58.2777 15.9936 58.2886C15.0729 58.2988 14.1186 58.3114 13.2632 57.9247C12.2711 57.4761 11.6229 56.7462 11.2431 55.742Z" fill="#059669"/>
<path d="M8.66387 17.5844C9.13851 17.8686 9.52573 18.3861 9.91601 18.7756L11.7537 20.5356L14.4164 22.7735L19.4424 26.7563L21.4601 28.2763L22.7194 29.1089L23.4548 29.5989C23.5654 29.6733 23.6964 29.7884 23.8254 29.8209L23.9209 29.8312L23.921 30.079L23.9048 30.1878L23.1974 36.4986C22.8777 36.5265 22.5579 36.5484 22.2453 36.6248C21.1953 36.8816 20.2446 37.5268 19.5549 38.3422C19.1238 38.8519 18.8252 39.4355 18.6396 40.0729C18.6181 40.1468 18.6332 40.1156 18.5926 40.1739L18.5869 40.2646C18.4257 40.3346 18.1106 40.2935 17.931 40.2936C17.891 40.2936 17.7938 40.2843 17.7625 40.2981C17.6274 39.9964 17.3985 39.708 17.2077 39.4367L15.4551 37.1573C15.3318 37.0036 15.1648 36.7207 15.0153 36.6037C14.9485 36.5515 14.8002 36.5283 14.7182 36.5075L13.8908 36.3227C13.7511 36.2935 13.5746 36.2741 13.4458 36.214L13.4149 36.1968L13.2389 36.2948C10.9796 37.5433 8.32542 37.9165 5.82576 37.2076C3.93625 36.6717 2.30334 35.5551 0.984639 34.1319C0.645438 33.7658 0.293603 33.3773 0.0495605 32.9415L0.210263 32.9305C0.808382 33.0896 1.43102 33.1714 2.03668 33.304L7.43408 34.4969L10.9188 35.3474L12.7852 35.8239C12.9711 35.8672 13.1883 35.9462 13.3769 35.9572L14.7655 36.283C14.5357 35.9526 14.2392 35.6568 13.9722 35.3551L12.1777 33.4218C11.9348 33.1766 11.7027 32.8537 11.3911 32.6979L4.1718 20.5973C4.12745 20.5349 4.11604 20.4689 4.09613 20.3961C7.17156 21.652 9.83763 23.8993 11.1357 26.9833C11.3027 27.3798 11.4526 27.7761 11.5639 28.1917C11.6282 28.4321 11.6642 28.6876 11.7441 28.9219C11.7656 28.818 11.7388 28.6946 11.7347 28.5868L11.7262 27.9277C11.739 26.8881 11.9276 25.8744 12.3415 24.9154C10.4757 23.0406 9.20949 20.5142 8.73077 17.9351C8.69681 17.8193 8.68099 17.7035 8.66387 17.5844Z" fill="#064E3B"/>
<path d="M14.7596 27.1141L14.8161 27.0612L15.1241 27.2392L13.6177 32.4338L13.545 32.4309C13.585 32.1879 13.5786 31.9345 13.6126 31.6894C13.6846 31.1694 13.7967 30.6429 13.9232 30.1331L14.5093 28.0035C14.5927 27.7062 14.6969 27.417 14.7596 27.1141Z" fill="#34D399"/>
<path d="M19.5839 29.1505L19.6257 29.1884C19.6056 29.6614 19.4768 30.1506 19.3786 30.614C18.873 32.9959 17.9567 35.3553 16.54 37.3566C16.5771 37.1149 16.7227 36.8572 16.8316 36.6374L17.5094 35.2902C17.8762 34.5009 18.2082 33.679 18.4891 32.8554L18.9185 31.5119L19.3619 29.8783C19.4209 29.657 19.4544 29.3379 19.5839 29.1505Z" fill="#34D399"/>
<path d="M11.8003 29.295C11.9283 29.5418 11.9615 29.8511 12.0508 30.1165C12.3168 30.9076 12.7625 31.7834 13.3414 32.3967L13.4351 32.4712C13.6082 32.7978 13.6684 33.2471 13.7757 33.6071C13.9333 34.1358 14.1259 34.6429 14.3609 35.1421L14.3438 35.1914L13.1502 33.9211L12.3196 33.0865C12.169 32.9338 11.9909 32.7762 11.8764 32.5958C11.9206 32.2564 11.9167 31.8981 11.9249 31.5559C11.9429 30.7977 11.9248 30.0449 11.8003 29.295Z" fill="white"/>
<path d="M0.200684 33.0038C0.54559 33.0349 0.906322 33.2072 1.23961 33.3052L4.02699 34.1021L8.98269 35.1954L12.5464 35.9762C12.7584 36.0209 12.9682 36.1002 13.1781 36.1397C12.9741 36.1845 12.7552 36.1387 12.5489 36.1207L11.094 35.9758C10.0272 35.8961 8.94038 35.8368 7.8827 35.6751C5.97077 35.3828 4.01068 34.7575 2.22896 34.0204L0.933287 33.4145C0.711115 33.3025 0.49655 33.1709 0.266431 33.0759C0.225542 33.059 0.223573 33.0402 0.200684 33.0038Z" fill="#34D399"/>
<path d="M4.23352 20.5729L4.27937 20.5101L6.05817 22.376C7.26147 23.7413 8.35229 25.2142 9.2183 26.8124C9.80147 27.8886 10.2815 29.042 10.7552 30.169L11.3716 31.7274C11.4122 31.8373 11.4939 31.9624 11.4912 32.0813L11.4878 32.1329L9.61557 28.91L6.47154 23.7677L4.96721 21.572C4.72996 21.2409 4.49889 20.8808 4.23352 20.5729Z" fill="#34D399"/>
<path d="M12.3415 24.9154C12.9559 25.6198 13.6113 26.2342 14.3799 26.7734C13.9108 28.2314 13.5146 29.6905 13.3612 31.2195C13.3283 31.547 13.2781 31.902 13.3198 32.2287L13.3414 32.3967C12.7625 31.7834 12.3168 30.9076 12.0508 30.1164C11.9615 29.8511 11.9283 29.5418 11.8003 29.295C11.7511 29.1805 11.7531 29.0453 11.7441 28.9219C11.7656 28.8179 11.7388 28.6945 11.7347 28.5868L11.7262 27.9277C11.739 26.8881 11.9277 25.8744 12.3415 24.9154Z" fill="#10B981"/>
<path d="M8.66382 17.5844C9.13846 17.8686 9.52568 18.3861 9.91595 18.7756L11.7536 20.5356L14.4164 22.7735L19.4423 26.7563L21.46 28.2763L22.7193 29.1089L23.4547 29.5989C23.5654 29.6733 23.6964 29.7884 23.8254 29.8209L23.9209 29.8312L23.9209 30.079L23.8887 30.0941C23.8149 30.1288 23.6337 30.0031 23.5593 29.9579L21.5148 28.7398L19.5784 27.4867C18.2449 26.6492 16.9084 25.7972 15.646 24.8566C14.4223 23.9447 13.2038 22.965 12.1045 21.9078C11.0726 20.9156 10.1692 19.8396 9.3465 18.673C9.229 18.5064 8.91228 17.9801 8.73072 17.9351C8.69676 17.8193 8.68093 17.7035 8.66382 17.5844Z" fill="#34D399"/>
<path d="M18.2226 28.6327L19.347 29.0507L17.857 33.5898L17.8585 33.5919L16.7974 36.1863C16.6578 36.5171 16.4937 37.035 16.2503 37.2915C16.2264 37.2663 16.1955 37.2394 16.1772 37.2102C16.2083 37.1347 16.1206 36.8297 16.1059 36.7368C16.0657 36.4821 16.0446 36.2202 16.0309 35.963C15.9293 34.0528 16.2965 32.1235 17.168 30.4121C17.4825 29.7945 17.8601 29.222 18.2226 28.6327Z" fill="#10B981"/>
<path d="M14.5906 35.2849L13.8591 33.0081C13.8411 32.9428 13.735 32.6639 13.7475 32.6129C13.7607 32.5587 13.8727 32.4299 13.9075 32.3802L14.5861 31.4276C15.3374 30.3508 16.0442 29.1968 16.332 27.9059L18.2227 28.6327C17.8601 29.222 17.4826 29.7945 17.1681 30.4121C16.2966 32.1235 15.9293 34.0528 16.0309 35.963C16.0447 36.2201 16.0657 36.4821 16.1059 36.7367C16.1207 36.8297 16.2083 37.1347 16.1772 37.2101L15.0306 35.9548C14.8509 35.7387 14.6679 35.5606 14.5906 35.2849Z" fill="white"/>
<path d="M16.6201 37.7169C16.8856 37.5278 17.1238 37.2947 17.3622 37.0738C17.8884 36.5861 18.3507 36.1015 18.7571 35.5067C20.0217 33.6558 20.6804 31.5739 20.2537 29.3494L21.8718 29.7704C22.5489 29.9413 23.2093 30.108 23.9049 30.1878L23.1975 36.4986C22.8777 36.5265 22.558 36.5484 22.2453 36.6249C21.1953 36.8816 20.2446 37.5268 19.5549 38.3422C19.1238 38.8519 18.8253 39.4355 18.6396 40.0729C18.6181 40.1468 18.6333 40.1156 18.5926 40.1739L16.6201 37.7169Z" fill="white"/>
<path d="M9.75854 43.9141L9.76378 43.4801C9.90098 43.4491 10.0694 43.4694 10.2108 43.4716L11.0966 43.4832L14.9096 43.5234L30.5588 43.5296L34.1931 43.531L35.6581 43.535C35.8513 43.5354 36.1485 43.5709 36.3246 43.5001C36.1622 46.8904 35.1303 50.3898 33.1966 53.2115C32.9156 53.6216 32.619 54.0586 32.2839 54.4264L29.9673 54.4293L25.2365 54.4191L24.0686 54.4354L20.1448 54.4062C19.8669 54.4413 19.5789 54.4261 19.2987 54.4267L17.8677 54.4277L13.3931 54.4052C12.9857 53.8623 12.5465 53.375 12.192 52.7892C11.1595 51.0828 10.5415 49.0914 10.1543 47.15C9.95443 46.148 9.79923 45.0999 9.7616 44.078L9.75854 43.9141Z" fill="#EE531B"/>
<path d="M15.1211 44.2854L15.1216 44.2846C15.504 44.2562 15.9103 44.2417 16.2917 44.2902L16.5426 44.3207C16.6924 44.3406 17.1166 44.4031 17.2023 44.5145C17.1139 45.402 16.9292 46.2693 16.3986 47.0102C15.7034 47.9813 14.6341 48.5157 13.474 48.7098C12.7961 48.8256 12.0497 48.7168 11.3876 48.5575C11.5784 47.5273 11.7942 46.5193 12.4689 45.6763C13.1309 44.8492 14.0841 44.4124 15.1211 44.2854Z" fill="#F68329"/>
<path d="M9.75854 43.9141L9.76378 43.4801C9.90098 43.4491 10.0694 43.4694 10.2108 43.4716L11.0966 43.4832L14.9096 43.5234L30.5588 43.5296L34.1931 43.531L35.6581 43.535C35.8513 43.5354 36.1485 43.5709 36.3246 43.5001C36.1622 46.8904 35.1303 50.3898 33.1966 53.2115C32.9156 53.6216 32.619 54.0586 32.2839 54.4264L29.9673 54.4293L25.2365 54.4191L24.0686 54.4354L20.1448 54.4062C20.2782 54.2951 20.4772 54.2671 20.6432 54.2203L21.5313 53.9589C22.589 53.6222 23.6197 53.2412 24.6116 52.7425C27.2063 51.4382 29.477 49.5817 30.9919 47.0937C31.566 46.1506 32.0096 45.121 32.3541 44.075L9.7616 44.078L9.75854 43.9141Z" fill="#B91C1C"/>
<path d="M32.3541 44.075L35.5703 44.0743C35.3373 44.7855 35.073 45.513 34.742 46.1859C33.2621 49.195 30.6412 51.7837 27.6361 53.3048L26.5017 53.8513L25.7133 54.1837C25.5596 54.2448 25.3481 54.2966 25.2365 54.4191L24.0685 54.4354L20.1448 54.4062C20.2782 54.2951 20.4772 54.2671 20.6432 54.2203L21.5313 53.9589C22.5889 53.6222 23.6196 53.2412 24.6116 52.7425C27.2063 51.4382 29.477 49.5817 30.9919 47.0937C31.566 46.1506 32.0096 45.121 32.3541 44.075Z" fill="#DC2626"/>
<defs>
<linearGradient id="paint0_linear_826_849" x1="38.5436" y1="26.9976" x2="37.6581" y2="26.5339" gradientUnits="userSpaceOnUse">
<stop stop-color="#1E582A"/>
<stop offset="1" stop-color="#1A3E20"/>
</linearGradient>
<linearGradient id="paint1_linear_826_849" x1="21.3877" y1="19.9596" x2="34.255" y2="27.2115" gradientUnits="userSpaceOnUse">
<stop stop-color="#1A4121"/>
<stop offset="1" stop-color="#227236"/>
</linearGradient>
</defs>
</svg>
