<svg width="130" height="100" viewBox="0 0 130 100" fill="none" xmlns="http://www.w3.org/2000/svg">
<path d="M28.0371 77.4852C24.1161 73.3961 19.0705 68.1341 18.5305 61.0985C17.9305 53.2797 23.1841 47.0345 26.3124 44.0396C27.3456 43.0512 28.5105 42.2111 29.7786 41.5503C32.2062 40.2864 35.115 38.2497 37.1685 34.9552C39.6852 30.9181 38.9082 28.2162 40.2957 24.3229C43.8843 14.2538 56.8449 10.5415 57.6831 10.3129C67.3368 7.6859 75.5358 11.1795 79.8657 13.7422C81.5921 14.7647 83.0808 16.1369 84.2903 17.7376C85.3271 19.112 86.7614 20.6432 88.7049 21.9464C92.6701 24.6045 95.4818 24.1156 99.0874 25.4484C105.406 27.7848 110.03 34.187 111.721 40.2092C113.866 47.8473 111.198 54.5289 109.309 57.9873C108.218 59.9847 107.579 62.1945 107.443 64.4664C107.385 65.4254 107.348 66.4763 107.343 67.6031C107.32 73.3239 108.197 74.6363 107.968 77.36C107.297 85.3634 98.3472 90.5651 97.5858 90.9947C90.9195 94.7531 84.2645 93.7919 81.3628 93.0983C79.9194 92.7536 78.4353 92.6078 76.9541 92.6996C76.0361 92.7566 75.0219 92.8829 73.9449 93.1211C69.2047 94.1678 67.3913 96.4532 64.3128 97.9994C58.5087 100.915 50.4606 100.073 44.799 96.4985C40.7031 93.9125 38.4063 90.2441 37.146 87.4208C36.1279 85.1402 34.5538 83.1563 32.5908 81.6122C31.1679 80.4926 29.6121 79.1273 28.0371 77.4852Z" fill="#ECFDF5"/>
<path d="M124.231 2.44205C120.767 -0.492958 114.156 2.20384 109.339 7.67993C104.521 13.156 97.9167 26.5399 97.9167 26.5399C97.9167 26.5399 97.9293 26.5373 97.9377 26.5356C96.2324 28.2586 94.5793 30.0279 92.9717 31.8367C94.4287 29.0784 95.7493 25.9608 96.4866 22.7438C98.1111 15.6491 96.6053 6.98132 92.0694 6.79531C87.5318 6.61013 83.9748 12.7991 83.5388 20.0798C83.1861 25.986 85.1035 36.7177 85.84 40.56C82.7139 44.7438 79.8462 49.1177 77.237 53.655C78.7722 49.5597 80.4775 43.6889 80.3975 37.9474C80.2965 30.6701 76.7808 22.6049 72.3293 23.4988C67.8779 24.3935 65.8871 31.2492 67.1882 38.4255C68.3228 44.6859 73.3289 55.7436 74.5898 58.4676C72.5777 62.3388 70.7549 66.3216 69.136 70.4094C68.1464 72.9084 67.1984 75.4797 66.3269 78.0966C66.7817 74.0286 67.2497 65.9112 64.9553 58.8804C62.6978 51.9618 56.9459 45.3039 52.9606 47.4789C48.9758 49.6551 49.1105 56.793 52.4836 63.2592C55.4843 69.0114 63.8051 78.3261 65.6105 80.3181C63.6866 86.4927 62.2583 92.8881 61.8587 99.2058C61.8203 99.8127 62.7577 99.9945 62.7965 99.3825C62.897 97.7973 63.0686 96.2091 63.2924 94.6219C65.7473 94.4265 76.0216 93.3477 83.7467 88.6191C89.9534 84.8187 95.097 77.6805 92.0568 74.3082C89.0165 70.9362 82.1045 72.7218 76.5956 77.5027C72.0326 81.4626 65.5313 90.6306 63.4334 93.6616C64.5938 86.1849 66.9764 78.7527 69.6173 71.8056C71.6252 71.6586 82.3082 70.6671 90.2791 65.7873C96.4858 61.9869 101.629 54.8487 98.5892 51.4764C95.549 48.1044 88.6369 49.89 83.1289 54.6708C78.6308 58.5747 72.2474 67.5405 70.0565 70.6995C73.58 61.6761 78.1544 53.1444 83.6179 45.2261C86.2642 46.0548 95.91 48.7701 104.631 47.3526C111.815 46.1853 119.277 41.5254 117.74 37.253C116.203 32.9814 109.129 32.0168 102.221 34.3567C96.8342 36.1815 88.1075 41.6283 84.5244 43.9392C85.0361 43.2159 85.5529 42.4962 86.0799 41.7828C86.1051 41.9072 86.1194 41.9772 86.1194 41.9772C86.1194 41.9772 87.9846 39.8589 90.1764 36.5401C93.1535 32.914 96.3225 29.4446 99.6682 26.1443C103.284 25.2529 111.758 22.7573 117.915 17.7374C123.556 13.14 127.697 5.37621 124.231 2.44205Z" fill="#A7F3D0"/>
<path d="M57.4221 80.9314C56.5813 78.7462 55.7056 76.5853 54.8047 74.455C53.8771 72.2626 52.8955 70.0963 51.8686 67.957C53.1391 64.285 58.2622 56.4252 58.5239 50.5633C58.8125 44.0653 50.8891 32.2466 50.8891 32.2466C52.6108 36.3772 51.1993 43.1251 49.4296 50.6483C48.3415 55.2763 49.4128 61.15 50.3995 64.9891C48.4618 61.1872 46.3534 57.4983 44.0629 53.9637C44.0911 48.6808 46.7359 38.7157 45.5611 33.0304C44.2222 26.5475 38.0155 18.8476 38.0155 18.8476C40.5898 24.0441 39.6961 35.3035 39.7801 41.7157C39.8191 44.6967 40.7824 47.9689 41.8015 50.6176C39.232 46.9607 36.4519 43.4961 33.436 40.2854C33.4375 40.2847 33.4459 40.288 33.4459 40.288C31.7329 34.5798 27.4378 27.7946 20.5759 25.7172C13.7152 23.6391 5.49997 19.621 5.49997 19.621C10.6436 32.7772 26.5465 38.3395 31.762 39.8411C34.5625 42.7188 37.1617 45.8091 39.5761 49.0741C36.8056 46.9306 32.1043 43.7892 28.0486 43.5203C21.8449 43.1087 16.6116 42.6776 14.9456 40.3024C14.9456 40.3024 25.0753 58.3024 41.233 51.3786C44.5663 56.1602 47.539 61.267 50.1976 66.5842C47.7556 64.3018 38.8366 57.0292 26.4175 59.3448C26.4175 59.3448 37.4407 69.5125 50.5506 67.2982C51.9081 70.0492 53.1862 72.8524 54.3886 75.6925C55.3138 77.8789 56.2051 80.1043 57.0576 82.3579C54.6244 80.3494 49.0738 76.201 44.3845 75.8896C38.1808 75.4777 32.9476 75.0469 31.2823 72.6709C31.2823 72.6709 41.4145 90.6763 57.5758 83.7451C59.4478 88.8397 61.0777 94.0891 62.2555 99.4624C62.3713 99.9892 63.1787 99.7606 63.0622 99.2305C61.8112 93.5203 60.0531 87.9709 58.0443 82.5817C65.9602 75.3208 64.3793 66.0388 63.182 61.249C61.9558 56.3461 62.4969 51.7594 62.4969 51.7594C57.7224 61.4161 57.3691 75.5806 57.4221 80.9314Z" fill="#6EE7B7"/>
<path d="M84.2173 97.5166C86.2111 96.1846 104.086 83.6671 106.704 78.8401C108.606 75.3319 110.156 67.5276 109.22 63.2044C107.959 57.3771 106.42 52.3104 105.819 52.7769C105.218 53.2435 97.1138 64.5657 95.998 67.4455C94.996 70.0293 84.2173 97.5166 84.2173 97.5166Z" fill="#34D399"/>
<path d="M86.4254 91.8844C87.25 91.2853 88.1886 90.5987 89.2149 89.8375C91.1338 88.4117 93.3587 86.7302 95.6807 84.8498C96.8407 83.9089 98.0218 82.9145 99.1803 81.8576C99.7558 81.326 100.326 80.7776 100.865 80.1971C101 80.0506 101.136 79.9067 101.262 79.7528L101.454 79.5254C101.518 79.4495 101.575 79.3682 101.635 79.2899C101.758 79.1336 101.871 78.97 101.985 78.8066L102.326 78.3161C103.229 77.0033 104.104 75.6706 104.942 74.345C105.781 73.0196 106.58 71.6987 107.332 70.4075C108.115 69.0584 108.842 67.7396 109.5 66.4775C109.52 66.4378 109.541 66.3983 109.561 66.3587L109.499 66.5189V66.5191C108.848 67.7726 108.129 69.0817 107.355 70.4207C106.604 71.7131 105.808 73.0357 104.97 74.3626C104.133 75.6901 103.261 77.0246 102.36 78.3389L102.019 78.8306C101.906 78.9941 101.792 79.1579 101.67 79.3157C101.609 79.3946 101.551 79.4761 101.487 79.5526L101.295 79.781C101.169 79.9357 101.033 80.0804 100.898 80.227C100.358 80.8103 99.7887 81.3599 99.2124 81.8929C98.0554 82.9532 96.875 83.9501 95.7158 84.8933C93.3959 86.7782 91.1725 88.4636 89.2565 89.8928C88.1923 90.6851 87.2215 91.3972 86.3742 92.0137L86.4254 91.8844Z" fill="#ECFDF5"/>
<path d="M73.4776 94.1368L74.1016 94.4992C76.8941 96.1231 79.8163 97.3219 82.7927 98.1175C82.6314 96.4951 83.2214 94.9234 83.2214 94.9234C83.2214 94.9234 83.753 97.0609 84.5269 98.5333C86.6403 98.9848 88.774 99.2371 90.902 99.2965C90.8469 99.2065 90.7958 99.1171 90.7472 99.0293C89.9101 97.4863 89.9603 95.5732 89.9603 95.5732C89.9603 95.5732 91.4344 97.8394 92.7642 98.8996C92.9376 99.0376 93.1078 99.1651 93.2731 99.2836C95.688 99.1897 98.0834 98.8492 100.42 98.2729C100.186 98.0455 99.9618 97.8089 99.7706 97.5727C98.6822 96.2302 98.3751 94.3771 98.3662 94.3195C98.3946 94.3486 100.239 96.2845 101.73 97.0771C102.117 97.2826 102.482 97.4515 102.821 97.5907C104.797 96.9535 106.721 96.1426 108.565 95.1661C108.06 94.9879 107.518 94.7671 107.065 94.5136C105.534 93.6562 104.555 92.0113 104.555 92.0113C104.555 92.0113 106.929 92.8228 108.653 93.1837C110.055 93.4777 111.206 93.3568 111.743 93.2623C113.382 92.1604 114.939 90.9137 116.391 89.5292C116.256 89.4694 115.639 89.1019 115.476 89.0002C114.737 88.5385 113.218 87.5977 113.218 87.5977C113.218 87.5977 114.702 87.9956 116.385 87.9748C117.044 87.9664 117.755 87.8587 118.109 87.7741C118.946 86.8564 119.741 85.888 120.49 84.8689C121.233 83.8567 121.931 82.7951 122.577 81.6854C122.581 81.6781 122.585 81.6713 122.589 81.6644L121.965 81.3017C120.042 80.1832 118.057 79.2668 116.034 78.5446C115.68 78.6457 115.272 78.8309 114.842 79.1584C113.502 80.1784 112.595 81.0512 112.595 81.0512C112.595 81.0512 112.965 79.0759 113.377 78.3079C113.488 78.1012 113.602 77.9362 113.707 77.8028C112.076 77.3447 110.425 77.0086 108.77 76.7914C108.32 77.0587 107.798 77.4439 107.275 77.9972C106.354 78.9709 105.593 80.7902 105.593 80.7902C105.593 80.7902 105.71 79.3813 105.964 78.0085C106.059 77.494 106.27 76.9927 106.495 76.5664C104.299 76.4224 102.104 76.4845 99.9383 76.744C99.4505 77.0234 98.6693 77.5883 97.7601 78.6832C96.9035 79.7152 96.0275 81.5551 96.0275 81.5551C96.0275 81.5551 95.7058 80.293 95.9602 78.9202C96.0599 78.3784 96.2658 77.8165 96.4764 77.3341C94.5081 77.77 92.5786 78.3728 90.7091 79.1356C90.3445 79.5853 89.8761 80.3 89.4336 81.3838C88.9271 82.6249 88.6435 84.6433 88.6435 84.6433C88.6435 84.6433 87.9571 83.5361 87.7878 82.1503C87.7213 81.6016 87.7481 81.0019 87.8048 80.4766C85.928 81.4483 84.1306 82.591 82.4386 83.8985C82.3989 84.1903 82.3689 84.5104 82.3519 84.8623C82.2879 86.191 82.6857 88.1678 82.6914 88.1981C82.6606 88.1731 81.6671 87.3631 81.0553 86.1334C80.9264 85.8742 80.8179 85.5932 80.7255 85.3108C77.9435 87.7552 75.4995 90.6805 73.5271 94.0516C73.5108 94.0795 73.4946 94.1083 73.4776 94.1368Z" fill="#A7F3D0"/>
<path d="M73.4772 94.1368L74.102 94.4992C76.8942 96.1231 79.8161 97.3219 82.7931 98.1175C82.6318 96.4951 83.2209 94.9234 83.2209 94.9234C83.2209 94.9234 83.7533 97.0609 84.5271 98.5333C86.6403 98.9848 88.7738 99.2371 90.9016 99.2965C90.8473 99.2065 90.7955 99.1171 90.7477 99.0292C89.9106 97.4863 89.9609 95.5732 89.9609 95.5732C89.9609 95.5732 91.434 97.8394 92.7644 98.8996C92.937 99.0376 93.1072 99.1651 93.2725 99.2836C95.688 99.1897 98.084 98.8492 100.42 98.2729C100.186 98.0455 99.9622 97.8088 99.771 97.5727C98.6828 96.2302 98.3757 94.3771 98.3659 94.3195C98.3943 94.3486 100.239 96.2845 101.729 97.0771C102.117 97.2826 102.482 97.4515 102.821 97.5907C104.797 96.9535 106.721 96.1426 108.565 95.1661C108.059 94.9879 107.517 94.7671 107.065 94.5136C105.534 93.6562 104.555 92.0113 104.555 92.0113C104.555 92.0113 106.929 92.8228 108.653 93.1837C110.055 93.4777 111.206 93.3568 111.743 93.2623C113.382 92.1604 114.939 90.9136 116.392 89.5291C116.255 89.4694 115.64 89.1019 115.477 89.0002C114.737 88.5385 113.218 87.5977 113.218 87.5977C113.218 87.5977 114.702 87.9955 116.386 87.9748C117.045 87.9664 117.755 87.8587 118.109 87.7741C118.946 86.8564 119.741 85.888 120.49 84.8689C121.233 83.8567 121.931 82.795 122.576 81.6853C118.212 81.6211 109.702 82.8388 97.6804 84.8512C91.7281 85.8478 80.6742 90.7054 73.5275 94.0516C73.5105 94.0795 73.4942 94.1083 73.4772 94.1368Z" fill="#6EE7B7"/>
<path d="M46.783 97.9817C44.7887 96.6494 26.9139 84.1322 24.2961 79.3047C22.3938 75.7965 20.8437 67.9927 21.7794 63.6694C23.0406 57.8421 24.5802 52.7754 25.1808 53.2421C25.7817 53.7083 33.8859 65.0306 35.0022 67.9102C36.0037 70.4943 46.783 97.9817 46.783 97.9817Z" fill="#34D399"/>
<path d="M44.5746 92.3492C43.7495 91.75 42.8111 91.0633 41.7848 90.3022C39.8664 88.8764 37.6411 87.195 35.3192 85.3144C34.1593 84.3738 32.9783 83.3792 31.8195 82.3223C31.2439 81.7906 30.6737 81.2424 30.1341 80.6617C30.0001 80.5152 29.8637 80.3712 29.7381 80.2175L29.5459 79.99C29.4825 79.914 29.4253 79.833 29.3644 79.7546C29.2424 79.5983 29.129 79.4349 29.0149 79.2711L28.674 78.7808C27.7704 77.468 26.896 76.1353 26.0577 74.8095C25.2187 73.4844 24.4198 72.1633 23.6679 70.8724C22.8847 69.5232 22.1574 68.2043 21.5001 66.9422C21.4794 66.9026 21.4587 66.863 21.4387 66.8234L21.5004 66.9836V66.9839C22.1517 68.2374 22.8712 69.5466 23.6454 70.8854C24.3955 72.1777 25.1926 73.5006 26.0295 74.8275C26.8662 76.1548 27.7384 77.4892 28.6401 78.8039L28.9807 79.2952C29.0941 79.4587 29.2075 79.6225 29.3306 79.7805C29.3911 79.8593 29.4487 79.941 29.5124 80.0173L29.705 80.2459C29.831 80.4004 29.9674 80.5451 30.1013 80.6916C30.6413 81.2751 31.2111 81.8244 31.7871 82.3576C32.9448 83.4177 34.1251 84.4149 35.2839 85.358C37.604 87.2428 39.8276 88.9283 41.7434 90.3575C42.8078 91.1497 43.7783 91.862 44.6254 92.4785L44.5746 92.3492Z" fill="#ECFDF5"/>
<path d="M57.5223 94.6015L56.8982 94.964C54.1058 96.5879 51.1836 97.7867 48.2071 98.5823C48.3686 96.9601 47.7786 95.3882 47.7786 95.3882C47.7786 95.3882 47.2469 97.5256 46.4727 98.998C44.3596 99.4496 42.226 99.7019 40.0982 99.7612C40.1529 99.6713 40.2043 99.5822 40.2524 99.494C41.0895 97.9514 41.0394 96.038 41.0394 96.038C41.0394 96.038 39.5657 98.3042 38.2355 99.3644C38.0624 99.5026 37.8926 99.6299 37.7273 99.7484C35.312 99.6544 32.9165 99.3139 30.58 98.7376C30.814 98.5103 31.0381 98.2735 31.2292 98.0374C32.3174 96.695 32.6246 94.8419 32.6336 94.7843C32.6052 94.8134 30.7606 96.7493 29.2702 97.5418C28.8834 97.7474 28.5178 97.9163 28.1794 98.0555C26.2027 97.4182 24.2791 96.6076 22.435 95.6308C22.9402 95.4526 23.4826 95.2319 23.9344 94.9783C25.4662 94.121 26.4448 92.4761 26.4448 92.4761C26.4448 92.4761 24.0709 93.2876 22.3471 93.6485C20.9452 93.9425 19.7941 93.8219 19.2568 93.727C17.618 92.6252 16.0611 91.3784 14.6085 89.9939C14.7446 89.9342 15.3608 89.5667 15.5235 89.465C16.2628 89.0032 17.781 88.0625 17.781 88.0625C17.781 88.0625 16.2978 88.4603 14.6144 88.4396C13.9556 88.4312 13.2449 88.3235 12.8909 88.2389C12.0534 87.3212 11.2585 86.3528 10.5103 85.3337C9.76711 84.3216 9.06942 83.2599 8.42358 82.1501C8.41922 82.1427 8.41552 82.1362 8.41116 82.1292L9.03488 81.7665C10.9581 80.6481 12.9431 79.7316 14.9653 79.0096C15.3202 79.1103 15.7276 79.2957 16.1585 79.623C17.4979 80.6432 18.4055 81.5157 18.4055 81.5157C18.4055 81.5157 18.0352 79.5408 17.6223 78.7727C17.5113 78.5659 17.3983 78.401 17.2924 78.2674C18.924 77.8093 20.5744 77.4734 22.2295 77.2563C22.6804 77.5235 23.2015 77.9088 23.7247 78.4619C24.6457 79.4355 25.4068 81.255 25.4068 81.255C25.4068 81.255 25.2903 79.8459 25.036 78.4734C24.9409 77.9586 24.7303 77.4573 24.505 77.0314C26.701 76.887 28.8958 76.9491 31.0612 77.2086C31.5492 77.4882 32.3306 78.0531 33.2397 79.1481C34.0958 80.1798 34.972 82.0202 34.972 82.0202C34.972 82.0202 35.2939 80.7579 35.0394 79.385C34.9395 78.843 34.7343 78.2814 34.5234 77.799C36.4917 78.2349 38.4214 78.8377 40.291 79.6004C40.6553 80.0502 41.1232 80.7645 41.5661 81.8488C42.0731 83.0897 42.3564 85.1081 42.3564 85.1081C42.3564 85.1081 43.043 84.0009 43.2124 82.6152C43.2786 82.0663 43.2515 81.4668 43.1952 80.9417C45.0718 81.9129 46.8695 83.0556 48.5615 84.3631C48.6006 84.6551 48.631 84.9752 48.6478 85.3271C48.7124 86.6558 48.314 88.6325 48.3082 88.6628C48.3395 88.6379 49.3329 87.8279 49.9443 86.5982C50.0734 86.339 50.1824 86.0579 50.2745 85.7756C53.0565 88.22 55.5002 91.1453 57.4726 94.5164C57.4894 94.5443 57.5055 94.573 57.5223 94.6015Z" fill="#A7F3D0"/>
<path d="M57.5224 94.6015L56.8982 94.964C54.1059 96.5879 51.1836 97.7867 48.2071 98.5823C48.3687 96.9601 47.7786 95.3882 47.7786 95.3882C47.7786 95.3882 47.247 97.5256 46.4727 98.998C44.3597 99.4496 42.226 99.7019 40.0982 99.7612C40.1529 99.6713 40.2043 99.5822 40.2524 99.494C41.0895 97.9514 41.0394 96.038 41.0394 96.038C41.0394 96.038 39.5657 98.3042 38.2355 99.3644C38.0624 99.5026 37.8926 99.6299 37.7273 99.7484C35.312 99.6544 32.9165 99.3139 30.58 98.7376C30.814 98.5103 31.0381 98.2735 31.2292 98.0374C32.3174 96.695 32.6246 94.8419 32.6336 94.7843C32.6052 94.8134 30.7606 96.7493 29.2702 97.5418C28.8835 97.7474 28.5178 97.9163 28.1794 98.0555C26.2027 97.4182 24.2791 96.6076 22.435 95.6308C22.9402 95.4526 23.4826 95.2319 23.9344 94.9783C25.4662 94.121 26.4448 92.4761 26.4448 92.4761C26.4448 92.4761 24.0709 93.2876 22.3471 93.6485C20.9452 93.9425 19.7941 93.8219 19.2568 93.727C17.618 92.6252 16.0611 91.3784 14.6085 89.9939C14.7446 89.9342 15.3608 89.5667 15.5235 89.465C16.2628 89.0032 17.7811 88.0625 17.7811 88.0625C17.7811 88.0625 16.2978 88.4603 14.6144 88.4396C13.9556 88.4312 13.2449 88.3235 12.8909 88.2389C12.0534 87.3212 11.2585 86.3528 10.5103 85.3337C9.76711 84.3216 9.06942 83.2599 8.42358 82.1501C12.788 82.086 21.298 83.3039 33.3195 85.316C39.2721 86.3126 50.3255 91.1702 57.4726 94.5164C57.4895 94.5443 57.5055 94.573 57.5224 94.6015Z" fill="#6EE7B7"/>
<path d="M100.026 98.5981C99.5906 99.325 98.7183 99.7612 97.846 99.7612H33.1537C32.2816 99.7612 31.4092 99.325 30.973 98.5981C30.5371 97.7256 30.5371 96.8536 30.973 96.1267L63.2469 39.2843C63.8284 38.4121 64.5549 37.9762 65.5723 37.9762C66.4452 37.9762 67.3168 38.4121 67.7533 39.2843L100.026 96.1267C100.463 96.8536 100.463 97.7256 100.026 98.5981Z" fill="#10B981"/>
<path d="M69.9341 57.8923H61.0663V79.6989H69.9341V57.8923Z" fill="white"/>
<path d="M69.9341 85.2234H61.0663V92.4921H69.9341V85.2234Z" fill="white"/>
<path d="M97.743 85.705C97.2492 86.8249 97.9882 87.5431 98.6614 88.8166C99.3346 90.0901 100.013 92.1964 99.078 93.9229C98.1434 95.6491 95.1456 95.7211 94.1338 93.5611C93.1226 91.4011 95.0952 89.1172 95.3848 88.7791C95.5655 88.5682 94.547 90.4705 95.4392 91.0066C95.9196 91.2955 96.7849 90.7837 96.3879 89.3359C95.7711 87.0904 97.743 85.705 97.743 85.705Z" fill="#34D399"/>
<path d="M97.5365 89.9959C97.4264 89.5411 98.6096 92.0098 97.888 93.3253C97.1664 94.6411 95.0267 94.3474 94.9259 92.2798C94.9007 91.7697 95.4771 93.6697 96.5582 93.3745C97.9848 92.9847 97.7288 90.7861 97.5365 89.9959Z" fill="#10B981"/>
<path d="M57.1601 43.77C56.6662 44.8896 57.4053 45.6082 58.0787 46.8817C58.7521 48.1548 59.43 50.2613 58.4953 51.9876C57.5607 53.714 54.5628 53.7862 53.5514 51.6261C52.5401 49.466 54.5126 47.1821 54.8025 46.8436C54.983 46.633 53.9641 48.5354 54.8561 49.0714C55.337 49.3607 56.2024 48.8488 55.8053 47.4007C55.189 45.1549 57.1601 43.77 57.1601 43.77Z" fill="#34D399"/>
<path d="M56.9539 48.0606C56.8435 47.6057 58.0267 50.0744 57.3051 51.39C56.5835 52.7061 54.4445 52.4122 54.3427 50.3444C54.3179 49.8345 54.8942 51.7341 55.9756 51.4392C57.4016 51.0498 57.1455 48.8506 56.9539 48.0606Z" fill="#10B981"/>
</svg>
