<svg width="70" height="78" viewBox="0 0 70 78" fill="none" xmlns="http://www.w3.org/2000/svg">
<path d="M66.2694 74.6726C66.2694 76.5102 52.4477 78 35.3978 78C18.348 78 4.52625 76.5102 4.52625 74.6726C4.52625 72.8347 18.348 71.3452 35.3978 71.3452C52.4481 71.3448 66.2694 72.8347 66.2694 74.6726Z" fill="#E5E7EB"/>
<path d="M37.6395 64.6664C18.3521 64.4381 7.8987 64.5118 2.50649 58.6437C-2.88617 52.7757 1.7713 47.6031 3.97734 43.1245C6.18339 38.6462 2.99678 34.2451 2.34322 29.4581C1.68966 24.671 3.48706 18.4941 11.0041 15.4828C18.5207 12.4719 20.8901 16.6413 29.1423 8.76546C37.3942 0.890359 48.4244 1.58507 55.7782 6.37212C63.1315 11.1592 67.4751 19.2793 65.4188 28.2996C64.2754 33.3183 63.3764 38.3371 66.8901 45.8266C71.382 55.4038 76.7756 65.1294 37.6395 64.6664Z" fill="#ECFDF5"/>
<path d="M33.443 26.7708C33.443 26.7708 33.7258 26.2917 34.2148 25.5516C34.7037 24.8114 35.3983 24.3759 36.4785 24.2236C37.5588 24.0709 38.0996 24.3542 38.0996 24.8767C38.0996 25.3989 36.6585 25.3336 36.17 25.7474C35.6811 26.1612 33.443 26.7708 33.443 26.7708Z" fill="#FCA5A5"/>
<path d="M40.1319 22.9388H40.9037V23.6576H40.8004H40.1062L40.1319 22.9388Z" fill="#D1D5DB"/>
<path d="M40.2349 23.4614L40.3377 23.8099C40.3377 23.8099 40.2863 25.4646 41.3665 26.4223L41.1866 26.5964C41.1866 26.5964 40.1578 26.0303 39.6431 24.8546C39.128 23.679 39.4889 23.3091 39.4889 23.3091L40.2349 23.4614Z" fill="#075985"/>
<path d="M36.9418 23.7007V24.9638H38.3824V23.5052L36.9418 23.7007Z" fill="#9CA3AF"/>
<path d="M27.7148 71.0911C27.7148 71.0911 26.9945 71.7007 26.9945 72.3683C26.9945 73.0359 26.8573 74.8647 27.0287 74.9517C27.2006 75.0387 33.135 75.0971 34.9184 75.0387C36.7018 74.9807 37.7996 74.7776 37.6968 73.7615C37.594 72.7454 32.0028 72.8614 31.214 72.1068C30.4251 71.3518 27.8181 71.1487 27.8181 71.1487" fill="#111827"/>
<path d="M31.2136 72.1072C30.4247 71.3522 27.8177 71.1491 27.8177 71.1491L27.7148 71.0911C27.7148 71.0911 26.9945 71.7007 26.9945 72.3683C26.9945 72.5389 26.9855 72.7859 26.9751 73.0596C27.2458 73.1389 27.5556 73.1954 27.9205 73.21C30.1157 73.297 31.5221 73.5291 32.0024 73.0645C32.1594 72.9122 32.3123 72.7168 32.4481 72.5229C31.8586 72.4152 31.4003 72.2858 31.2136 72.1072Z" fill="#FECACA"/>
<path d="M21.495 71.0911C21.495 71.0911 22.2153 71.7007 22.2153 72.3683C22.2153 73.0359 22.3524 74.8647 22.181 74.9517C22.0091 75.0387 15.9832 75.2422 14.1998 75.1842C12.4159 75.1261 11.0439 75.1261 11.1467 74.11C11.2495 73.0939 17.2069 72.8614 17.9962 72.1072C18.7851 71.3522 21.3921 71.1491 21.3921 71.1491" fill="#111827"/>
<path d="M17.9963 72.1072C18.7851 71.3522 21.3922 71.1491 21.3922 71.1491L21.495 71.0911C21.495 71.0911 22.2153 71.7007 22.2153 72.3683C22.2153 72.5389 22.2243 72.7859 22.2347 73.0596C21.9641 73.1393 21.6538 73.1954 21.2893 73.21C19.0941 73.297 17.6877 73.5291 17.2074 73.0645C17.0504 72.9122 16.8975 72.7168 16.7617 72.5229C17.3513 72.4152 17.8091 72.2858 17.9963 72.1072Z" fill="#FECACA"/>
<path d="M24.0099 43.9196H26.4108L26.8912 72.2518L31.6249 72.3682L31.762 38.2302H17.9727L17.8356 72.1358L22.2946 72.1942L24.0099 43.9196Z" fill="#9CA3AF"/>
<path d="M18.7535 37.2214C18.5736 37.2214 17.8276 36.1328 16.5926 35.7846C15.3576 35.4361 15.4866 36.2851 16.3355 36.5904C17.1844 36.8954 18.4707 37.2218 18.4707 37.2218V37.6138C18.4707 37.6138 16.8244 37.6791 15.7437 36.9389C14.663 36.1984 14.843 35.088 15.9751 35.0445C17.1072 35.001 18.6764 36.329 19.1653 36.9825L18.7535 37.2214Z" fill="#065F46"/>
<path d="M18.0842 37.3955C18.0842 37.3955 15.5629 39.5942 13.8651 40.1824L14.7654 40.7267C14.7654 40.7267 17.2872 39.3548 18.4446 37.8307L18.0842 37.3955Z" fill="#065F46"/>
<path d="M30.0471 20.9867C30.0471 20.9867 30.5956 20.5226 31.2131 20.6672C31.8306 20.8127 33.9234 21.8864 33.9572 25.0214C33.9915 28.1564 34.2662 32.54 34.5062 32.8305C34.7466 33.1206 43.8021 36.2269 43.8021 36.2269L42.91 39.2169C42.91 39.2169 33.4769 36.0529 32.4823 35.2402C31.4873 34.4272 31.007 34.3111 30.836 31.4952C30.6646 28.6794 30.0471 20.9867 30.0471 20.9867Z" fill="#059669"/>
<path d="M25.5192 20.1738C27.0622 20.1306 30.3214 20.3768 31.2131 20.6673C32.1053 20.9574 32.0363 40.2907 32.0363 40.2907C32.0363 40.2907 21.0944 40.3491 19.482 40.3491C17.8699 40.3491 17.9728 40.1751 17.9728 40.1751C17.9728 40.1751 17.9381 21.6254 18.3499 21.1899C18.7617 20.7547 20.3051 20.3192 25.5192 20.1738Z" fill="#10B981"/>
<path d="M29.0563 28.1462C27.3626 28.5367 25.0528 28.7886 23.5157 27.8786C21.0724 26.4323 19.8934 23.1339 20.3764 20.5364C19.1216 20.7249 18.5705 20.957 18.3503 21.1902C17.9385 21.6258 17.9733 40.1754 17.9733 40.1754C17.9733 40.1754 17.8704 40.3495 19.4825 40.3495C21.0949 40.3495 32.0368 40.2911 32.0368 40.2911C32.0368 40.2911 32.0638 32.6557 31.8627 26.9094C31.0765 27.4999 30.0801 27.9099 29.0563 28.1462Z" fill="#059669"/>
<path d="M25.9995 23.3091C27.2597 22.8426 27.9354 21.0707 28.1839 20.2626C27.1952 20.1916 26.1935 20.155 25.5192 20.1737C24.7023 20.1962 23.9847 20.2267 23.3379 20.2626C23.7786 22.5239 25.9995 23.3091 25.9995 23.3091Z" fill="#FECACA"/>
<path d="M27.2345 18.374H24.0785V20.7834H27.2345V18.374Z" fill="#FECACA"/>
<path d="M27.2345 20.212V18.374H24.0785V19.9986C25.051 20.3437 26.1799 20.3509 27.2345 20.212Z" fill="#FCA5A5"/>
<path d="M19.0363 3.4242C19.0363 3.4242 19.4819 0.404861 15.915 0.0277297C12.3478 -0.349402 11.3528 3.19174 11.4213 6.29811C11.4899 9.40448 12.1416 14.3102 10.4263 15.3264C8.71145 16.3421 8.19681 14.7458 8.19681 14.7458C8.19681 14.7458 7.75073 16.5165 9.91168 18.1132C12.0726 19.7096 18.007 18.7518 17.5613 13.7006C17.1153 8.64945 19.0363 3.4242 19.0363 3.4242Z" fill="#713F12"/>
<path d="M20.6483 3.16279C20.6483 3.16279 19.6881 1.85658 18.3846 2.8433C17.081 3.83041 17.8014 4.87553 18.4874 5.0786C19.1734 5.28167 20.6483 3.16279 20.6483 3.16279Z" fill="#10B981"/>
<path d="M19.808 5.13684V14.3025C19.808 17.1283 23.3383 19.419 26.6765 19.419C30.0155 19.419 31.8991 17.1283 31.8991 14.3025V5.13684H19.808Z" fill="#FECACA"/>
<path d="M21.2 9.28414C21.2938 9.1513 21.4679 9.05969 21.6375 9.01312C22.5211 8.77112 23.494 8.80471 24.4127 8.78333C26.9084 8.7257 29.404 8.7528 31.8996 8.76196V5.13684H19.8085V10.0682C20.3691 9.95404 20.8847 9.73036 21.2 9.28414Z" fill="#FECACA"/>
<path d="M19.1049 3.74333C19.1049 3.74333 16.2922 5.02092 16.1208 8.0395C15.949 11.0585 18.4874 13.2357 18.4874 13.2357C18.4874 13.2357 20.2027 12.5391 20.2027 11.581C20.2027 10.6229 20.0309 9.78125 20.0309 9.78125C20.0309 9.78125 21.3687 8.7075 21.3344 7.4593C21.3344 7.4593 21.4372 7.92384 21.3344 8.33037H23.6325C23.6325 8.33037 24.0781 7.28524 23.9753 6.41455C23.9753 6.41455 24.4556 7.22722 24.1809 8.30136H27.0622C27.0622 8.30136 27.474 7.45968 27.2336 6.29851C27.2336 6.29851 27.8853 7.46006 27.7482 8.33075L30.2867 8.38839C30.2867 8.38839 30.5957 7.45968 30.3548 6.38554C30.3548 6.38554 30.8694 7.37265 30.8352 8.41778H32.859C32.859 8.41778 33.9564 4.00519 29.5312 2.11839C25.1074 0.231204 19.4477 1.62445 19.1049 3.74333Z" fill="#713F12"/>
<path d="M27.5633 5.42334C26.9295 5.39623 26.2931 5.32371 25.6585 5.32944C25.0144 5.33554 24.8033 5.63939 24.3234 5.85734C23.7727 6.10736 23.1769 5.50808 22.7908 5.16377C21.9315 6.00316 19.9343 7.02424 18.9339 5.87948C18.4612 5.3386 18.3611 4.72442 18.4847 4.10681C17.6462 4.67442 16.2403 5.93101 16.1203 8.03959C15.9485 11.0585 18.4869 13.2358 18.4869 13.2358C18.4869 13.2358 20.2022 12.5392 20.2022 11.5811C20.2022 10.623 20.0304 9.78134 20.0304 9.78134C20.0304 9.78134 21.3682 8.70758 21.3339 7.45939C21.3339 7.45939 21.4367 7.92393 21.3339 8.33045H23.632C23.632 8.33045 24.0776 7.28533 23.9748 6.41464C23.9748 6.41464 24.4551 7.22731 24.1804 8.30144H27.0617C27.0617 8.30144 27.4735 7.45977 27.2331 6.2986C27.2331 6.2986 27.8848 7.46015 27.7477 8.33083L30.2862 8.38847C30.2862 8.38847 30.5952 7.45977 30.3543 6.38563C30.3543 6.38563 30.8689 7.37274 30.8347 8.41787H32.8585C32.8585 8.41787 33.1778 7.12653 32.7723 5.64244C31.1752 6.14324 29.2569 5.49624 27.5633 5.42334Z" fill="#713F12"/>
<path d="M20.2713 12.0749C20.2713 12.0749 19.9285 10.5656 18.2817 10.8267C16.6354 11.0882 16.9439 13.5266 17.6985 14.2522C18.4531 14.9779 19.7224 14.7458 19.9966 14.3102" fill="#FECACA"/>
<path d="M30.7417 10.0282C30.702 10.0549 30.5901 9.94003 30.4003 9.83277C30.2095 9.72321 29.9348 9.69039 29.6696 9.79383C29.4071 9.89575 29.2853 9.99156 29.2063 10.0171C29.1297 10.048 29.1008 10.0301 29.0692 10.0068C29.0377 9.98392 29.0115 9.95759 29.058 9.88697C29.1089 9.82208 29.2158 9.68962 29.5505 9.55831C29.7192 9.49686 29.9181 9.46709 30.1017 9.49419C30.2893 9.51556 30.4341 9.60488 30.5401 9.68008C30.7385 9.85071 30.7827 10.0026 30.7417 10.0282Z" fill="#422006"/>
<path d="M22.5607 10.1805C22.5305 10.169 22.5792 10.0007 22.7588 9.79038C22.844 9.68312 22.9744 9.5709 23.1457 9.47776C23.3203 9.38997 23.5526 9.33882 23.7736 9.36935C24.212 9.44455 24.3473 9.61479 24.4123 9.68198C24.4718 9.76061 24.4447 9.78848 24.4136 9.811C24.3811 9.8339 24.3532 9.85107 24.2679 9.81557C24.1822 9.78885 24.0384 9.6732 23.7289 9.62281C23.5751 9.6022 23.4213 9.63159 23.2842 9.68808C23.1507 9.75145 23.0285 9.83161 22.9347 9.91406C22.7385 10.0721 22.6225 10.208 22.5607 10.1805Z" fill="#422006"/>
<path d="M27.2945 14.3606C27.2751 14.3389 27.3653 14.2518 27.5168 14.122C27.5912 14.0568 27.6851 13.9804 27.7712 13.8949C27.792 13.8739 27.8132 13.8506 27.8235 13.8342L27.8217 13.8312C27.8145 13.8197 27.7365 13.7644 27.6751 13.7209C27.4072 13.5342 27.2336 13.2777 27.1984 13.0838C27.1542 12.8914 27.1871 12.7712 27.2178 12.7716C27.2836 12.7651 27.3111 13.2388 27.8249 13.5751C27.8853 13.6254 27.9485 13.6468 28.0229 13.7491C28.0599 13.8079 28.0522 13.877 28.0112 13.9289C27.9818 13.9671 27.9548 13.9907 27.9268 14.0148C27.8168 14.1072 27.7121 14.172 27.621 14.2263C27.4388 14.3324 27.3134 14.3816 27.2945 14.3606Z" fill="#422006"/>
<path d="M28.2205 15.9067C28.2412 15.9189 28.1506 16.0841 27.8741 16.2567C27.5998 16.4319 27.1235 16.5453 26.6179 16.5353C26.373 16.5342 26.1119 16.5185 25.8967 16.4376C25.6838 16.3609 25.5237 16.2483 25.4073 16.1456C25.175 15.9364 25.1074 15.765 25.1331 15.754C25.1611 15.7395 25.2774 15.8788 25.5174 16.0456C25.6374 16.1273 25.7894 16.2158 25.9747 16.2719C26.1579 16.3315 26.3735 16.3399 26.6197 16.3418C27.1005 16.3498 27.52 16.2689 27.7884 16.1406C28.0577 16.0154 28.193 15.8864 28.2205 15.9067Z" fill="#422006"/>
<path d="M17.9299 12.3143C17.9136 12.3132 17.9114 12.2177 17.9944 12.0616C18.0359 11.9853 18.1085 11.8895 18.2488 11.823C18.3918 11.7562 18.597 11.7685 18.7594 11.8398C18.9253 11.9089 19.0661 12.02 19.1928 12.1448C19.315 12.2696 19.4431 12.412 19.5261 12.5846C19.6109 12.7544 19.6628 12.9445 19.6583 13.1426C19.6502 13.3365 19.6042 13.5575 19.3741 13.7232C19.2537 13.8076 19.0742 13.8144 18.9569 13.7786C18.8942 13.7618 18.841 13.7392 18.7995 13.7114C18.7526 13.6869 18.7138 13.6591 18.6809 13.6293C18.5406 13.5178 18.4621 13.3663 18.4558 13.238C18.4504 12.9777 18.5812 12.8479 18.6488 12.7682C18.8072 12.6136 18.855 12.6395 18.8816 12.662C18.9141 12.6884 18.9222 12.7105 18.8293 12.8659C18.7896 12.9422 18.7147 13.0644 18.7336 13.2178C18.7445 13.293 18.7873 13.3724 18.8861 13.4488C18.9876 13.5262 19.1076 13.5785 19.1924 13.5182C19.2934 13.451 19.3579 13.2884 19.3601 13.1354C19.3669 12.9796 19.329 12.822 19.2645 12.6785C19.1265 12.4021 18.8883 12.138 18.6597 12.0135C18.4229 11.8792 18.2163 11.9841 18.1153 12.1105C18.0097 12.2292 17.9642 12.3196 17.9299 12.3143Z" fill="#422006"/>
<path d="M23.4611 11.9658C23.4611 11.5689 23.6108 11.2471 23.7953 11.2471C23.9802 11.2471 24.13 11.5689 24.13 11.9658C24.13 12.3628 23.9802 12.6846 23.7953 12.6846C23.6108 12.6846 23.4611 12.3628 23.4611 11.9658Z" fill="#422006"/>
<path d="M23.2166 11.3126C23.2694 11.308 23.4223 11.4966 23.5652 11.5851C23.6983 11.6794 23.6857 11.7107 23.6537 11.7588C23.6261 11.8027 23.5783 11.8435 23.4151 11.7279C23.3352 11.6695 23.2522 11.5721 23.2166 11.4821C23.1796 11.3924 23.1877 11.3191 23.2166 11.3126Z" fill="#422006"/>
<path d="M30.0737 11.8679C30.0737 11.4713 29.924 11.1492 29.7395 11.1492C29.5546 11.1492 29.4048 11.4713 29.4048 11.8679C29.4048 12.2649 29.5546 12.5867 29.7395 12.5867C29.924 12.5863 30.0737 12.2645 30.0737 11.8679Z" fill="#422006"/>
<path d="M30.3178 11.2149C30.265 11.2103 30.1121 11.3989 29.9691 11.4875C29.8361 11.5818 29.8487 11.6127 29.8807 11.6611C29.9082 11.705 29.956 11.7459 30.1193 11.6302C30.1991 11.5718 30.2821 11.4745 30.3178 11.3844C30.3548 11.2947 30.3471 11.221 30.3178 11.2149Z" fill="#422006"/>
<path d="M22.5351 13.5223C22.5351 13.4685 22.6217 13.4246 22.7281 13.4246C22.835 13.4246 22.9207 13.4685 22.9207 13.5223C22.9207 13.5765 22.8346 13.6204 22.7281 13.6204C22.6217 13.6204 22.5351 13.5765 22.5351 13.5223Z" fill="#422006"/>
<path d="M23.3324 14.0561C23.3324 14.0023 23.419 13.9584 23.5255 13.9584C23.6324 13.9584 23.7181 14.0023 23.7181 14.0561C23.7181 14.1103 23.6319 14.1542 23.5255 14.1542C23.419 14.1542 23.3324 14.1103 23.3324 14.0561Z" fill="#422006"/>
<path d="M22.1878 14.0886C22.1878 14.0347 22.2739 13.9908 22.3808 13.9908C22.4873 13.9908 22.5734 14.0347 22.5734 14.0886C22.5734 14.1428 22.4873 14.1867 22.3808 14.1867C22.2744 14.1867 22.1878 14.1428 22.1878 14.0886Z" fill="#422006"/>
<path d="M30.716 13.577C30.716 13.5231 30.6294 13.4792 30.5229 13.4792C30.4165 13.4792 30.3304 13.5231 30.3304 13.577C30.3304 13.6312 30.4165 13.6751 30.5229 13.6751C30.6294 13.6751 30.716 13.6312 30.716 13.577Z" fill="#422006"/>
<path d="M29.9186 14.1102C29.9186 14.0563 29.832 14.0125 29.7256 14.0125C29.6191 14.0125 29.533 14.0563 29.533 14.1102C29.533 14.1644 29.6191 14.2083 29.7256 14.2083C29.832 14.2083 29.9186 14.1644 29.9186 14.1102Z" fill="#422006"/>
<path d="M31.0633 14.143C31.0633 14.0892 30.9767 14.0453 30.8702 14.0453C30.7633 14.0453 30.6776 14.0892 30.6776 14.143C30.6776 14.1972 30.7638 14.2411 30.8702 14.2411C30.9767 14.2411 31.0633 14.1972 31.0633 14.143Z" fill="#422006"/>
<path d="M19.8938 37.5913L17.9385 37.5042V36.8076C17.9385 36.8076 18.2475 36.8656 18.9335 36.8947C19.6191 36.9237 20.2023 37.0107 20.2023 37.0107L19.8938 37.5913Z" fill="#065F46"/>
<path d="M20.8626 37.2431C20.7597 37.2431 19.7047 37.1778 19.7047 37.1778C19.7047 37.1778 23.4092 32.0178 24.9274 29.6447C27.2056 26.0826 29.7639 20.5871 29.8153 20.413C29.8667 20.239 30.5613 20.4352 30.6127 20.5001C30.6642 20.5653 28.3233 25.5948 26.6512 28.5339C24.9788 31.4735 20.8626 37.2431 20.8626 37.2431Z" fill="#065F46"/>
<path d="M20.2199 20.5658C20.2199 20.5658 20.8626 20.3482 21.2234 20.4352L31.6164 37.1126L30.6389 37.1782L20.2199 20.5658Z" fill="#047857"/>
<path d="M22.9812 31.4081L33.4435 26.9085L34.9527 29.8118C34.9527 29.8118 24.9707 34.282 23.393 34.7756C21.8152 35.2688 20.3399 35.0077 19.0021 32.3948C17.6643 29.7824 16.1808 24.0781 17.004 22.4814C17.8271 20.8851 19.7183 20.6091 19.731 20.6855C19.7634 20.8782 22.9812 31.4081 22.9812 31.4081Z" fill="#10B981"/>
<path d="M32.1396 36.7786L18.9335 36.8946L19.1392 55.4153H32.8942L32.1396 36.7786Z" fill="#047857"/>
<path d="M24.549 37.1626C25.5165 37.1553 26.4935 37.1225 27.4587 37.1942C28.0676 37.2393 28.8402 37.2442 29.3702 37.534C31.4518 38.6722 31.1018 41.9118 30.9421 43.6883C30.4739 48.8865 26.5165 53.4941 20.8915 55.4153H32.8946L32.14 36.7786L20.8965 36.8774C22.0575 37.1477 23.3177 37.1721 24.549 37.1626Z" fill="#065F46"/>
<path d="M40.389 22.7865C40.389 22.7865 36.6584 22.656 36.5042 22.6777C36.3499 22.6995 35.0893 23.9622 35.0893 23.9622L35.4492 24.3321L36.2723 23.8969C36.2723 23.8969 38.9732 24.0275 39.3079 23.984C39.6425 23.9404 39.7711 23.7664 40.0543 23.7878L40.3371 23.8099L40.389 22.7865Z" fill="#082F49"/>
<path d="M37.6621 24.5717C38.4356 24.5813 39.4631 24.6152 39.2317 26.5746C38.9999 28.5339 38.5885 33.0408 38.3824 33.4545C38.1767 33.8679 37.7907 33.9985 36.6328 33.9985C35.4755 33.9985 34.3948 33.955 34.1372 33.5629C33.8801 33.1709 33.7002 33.2366 34.0087 30.6238C34.3172 28.0113 34.858 25.7031 35.0375 25.3115C35.2184 24.9202 35.9387 24.55 37.6621 24.5717Z" fill="white"/>
<path d="M35.3514 30.8371C35.9522 30.4291 36.6563 30.1382 37.3771 29.9119C37.8777 29.7546 38.3806 29.7416 38.8907 29.7347C39.0166 28.5572 39.1384 27.3609 39.2317 26.5746C39.4631 24.6152 38.4356 24.5813 37.6621 24.5717C35.9387 24.55 35.2184 24.9202 35.0379 25.3119C34.858 25.7039 34.3176 28.0117 34.0091 30.6241C33.8273 32.1643 33.8156 32.7713 33.8891 33.0927C34.0993 32.2308 34.5612 31.3742 35.3514 30.8371Z" fill="#E5E7EB"/>
<path d="M33.3659 28.7737C32.5897 27.0774 33.6487 26.2919 34.2152 25.5517C34.7813 24.8116 37.4569 24.9421 38.9228 25.0074C40.3891 25.073 41.3408 25.0074 41.5469 25.2036C41.7526 25.3994 41.8297 26.0964 40.6462 26.0529L39.206 26.0964C39.206 26.0964 39.8235 26.0964 39.8487 26.4884C39.8749 26.8804 39.7202 27.098 39.1798 27.1633C39.1798 27.1633 39.5145 27.2725 39.5145 27.7947C39.5145 28.3176 38.9999 28.2741 38.9999 28.2741C38.9999 28.2741 39.5145 28.3176 39.4884 28.8619C39.4631 29.4059 39.257 29.5807 38.9223 29.4936C38.5881 29.4062 37.0446 29.341 36.8642 29.4715C36.6847 29.6013 34.4723 31.1904 33.3659 28.7737Z" fill="#FECACA"/>
<path d="M42.293 37.5912C43.0647 35.7624 43.528 35.5666 44.8143 35.1528C46.1007 34.739 47.9013 34.6737 48.0045 35.1963C48.1074 35.7189 46.6153 36.067 45.8179 36.1326C45.02 36.1979 45.2771 38.3534 42.293 37.5912Z" fill="#FECACA"/>
<path d="M43.3732 36.3502C43.3732 36.3502 42.6529 36.8728 42.2925 37.5916C41.9326 38.3099 42.0354 39.4421 43.7845 40.117C45.5341 40.7918 47.7979 41.2709 48.1578 41.2926C48.5178 41.3144 49.3283 40.9224 48.3247 40.3784C47.3216 39.8341 47.6175 39.2028 47.875 38.9413C48.1321 38.6802 49.3671 39.007 49.7275 39.0283C50.0874 39.0501 50.653 38.5058 49.9588 38.0924C49.2647 37.6786 44.1192 35.9147 43.3732 36.3502Z" fill="#FECACA"/>
<path d="M49.9592 38.0921C49.4595 37.7944 46.654 36.7978 44.8426 36.4244C44.1376 36.6141 43.54 37.0008 43.3785 37.6875C43.1927 38.4777 43.2784 39.3319 43.6694 40.0679C43.7087 40.0839 43.7443 40.1015 43.7854 40.1171C45.535 40.792 47.7987 41.271 48.1587 41.2928C48.5186 41.3145 49.3291 40.9225 48.3256 40.3786C47.3224 39.8343 47.6183 39.2029 47.8759 38.9414C48.133 38.6804 49.3679 39.0071 49.7283 39.0285C50.0878 39.0502 50.6534 38.5055 49.9592 38.0921Z" fill="#FCA5A5"/>
<path d="M47.7727 38.3318C47.7727 38.3318 49.6504 38.7887 50.165 39.0719C50.6797 39.3552 50.5899 40.1934 49.4578 39.8449C48.3257 39.4964 47.2328 39.159 47.2328 39.159" fill="#FCA5A5"/>
<path d="M46.8205 39.9426C46.8205 39.9426 48.3901 40.5087 49.0071 40.6614C49.6246 40.8137 50.3454 40.2476 49.4189 39.8556C48.4929 39.4636 47.3477 39.0826 47.3477 39.0826" fill="#FCA5A5"/>
<path d="M52.5488 46.7355C52.5488 46.7355 53.0977 41.8874 55.8761 36.5175L55.2934 36.6335C55.2934 36.6335 52.0689 42.7878 51.7256 45.8938L52.5488 46.7355Z" fill="#022C22"/>
<path d="M51.5542 46.7355C51.5542 46.7355 51.8627 41.9744 48.0555 37.7942L48.2611 37.3301C48.2611 37.3301 52.7549 42.0908 52.5492 46.7355H51.5542Z" fill="#022C22"/>
<path d="M51.7598 46.4164C51.7598 46.4164 52.0683 40.2621 50.4906 35.3273C48.9124 30.3922 47.5403 29.4054 47.5403 29.4054L48.0207 29.115C48.0207 29.115 49.6327 31.4373 50.7991 34.0211C51.965 36.6045 52.3426 39.4784 52.3426 39.4784C52.3426 39.4784 53.2 36.75 52.4797 31.2632C51.7594 25.7769 50.7991 24.7028 50.7991 24.7028L51.2104 24.5863C51.2104 24.5863 52.5135 26.9957 52.96 29.6085C53.4057 32.221 53.4747 33.6146 53.4747 33.6146C53.4747 33.6146 54.4349 28.9119 58.3455 23.5996L58.723 23.8027C58.723 23.8027 56.4245 27.1121 55.3614 30.3635C54.2983 33.6146 52.9943 40.6686 52.6858 46.5905L51.7598 46.4164Z" fill="#022C22"/>
<path d="M47.8151 36.8655C47.8151 36.8655 47.4032 35.9948 45.9626 36.1104C44.522 36.2269 44.762 38.4328 44.762 38.4328C44.762 38.4328 45.4142 38.0843 45.9283 38.2003C46.443 38.3167 44.6934 39.2454 44.6934 39.2454L44.7277 40.6387C44.7277 40.6387 45.6198 40.2615 45.8598 40.3486C46.0997 40.4356 45.3451 41.2777 44.762 41.5678C44.762 41.5678 45.0709 43.3385 44.8648 44.0645C44.8648 44.0645 46.6487 43.8611 46.9229 43.3965C47.1976 42.9324 46.7172 42.4969 47.0947 42.5839C47.4723 42.6709 47.5751 43.0771 47.5751 43.0771C47.5751 43.0771 48.6382 41.9159 48.7072 41.8289C48.7758 41.7418 48.1926 40.4642 48.1926 40.4642C48.1926 40.4642 49.05 40.8127 49.1528 41.0162C49.2557 41.2193 49.9422 39.6516 49.8732 39.5065C49.8046 39.3615 49.1528 38.7809 49.1528 38.7809C49.1528 38.7809 49.9422 38.6358 50.1821 38.9263C50.1821 38.9263 50.5939 37.1552 49.4275 36.5166C48.2611 35.8784 47.8151 36.8655 47.8151 36.8655Z" fill="#047857"/>
<path d="M44.7624 41.5681C44.7624 41.5681 45.0714 43.3389 44.8652 44.0649C44.8652 44.0649 44.8887 44.0619 44.9248 44.0573C47.0149 42.33 48.4118 39.2668 47.9111 36.7109C47.8462 36.7983 47.8151 36.8655 47.8151 36.8655C47.8151 36.8655 47.4032 35.9948 45.9626 36.1104C44.522 36.2269 44.762 38.4328 44.762 38.4328C44.762 38.4328 45.4142 38.0843 45.9283 38.2003C46.443 38.3167 44.6934 39.2454 44.6934 39.2454L44.7277 40.6387C44.7277 40.6387 45.6198 40.2615 45.8598 40.3486C46.1002 40.436 45.3456 41.278 44.7624 41.5681Z" fill="#059669"/>
<path d="M55.2586 37.4171C55.2586 37.4171 54.1265 37.2141 53.8522 36.488C53.578 35.7624 53.8522 34.7463 54.264 34.9204C54.6758 35.0944 55.2929 35.2399 55.2929 35.2399L54.6754 34.0497C54.6754 34.0497 54.9158 33.324 55.5675 32.7728C55.5675 32.7728 56.1507 33.3244 56.8025 33.4405C56.8025 33.4405 56.3907 32.5408 56.0479 32.1633C55.7047 31.7857 57.1453 30.7406 57.1453 30.7406C57.1453 30.7406 57.4538 31.6987 58.0713 31.9308C58.0713 31.9308 58.0713 30.7986 57.9342 30.5375C57.9342 30.5375 59.4776 29.4924 60.9525 29.8409L60.9183 32.2793C60.9183 32.2793 59.7861 32.2793 59.7861 32.4534C59.7861 32.6274 60.9521 33.0629 60.9521 33.0629L60.7464 34.2531C60.7464 34.2531 59.3058 34.3982 58.963 34.3111C58.6202 34.2241 60.1637 35.1532 60.1637 35.1532L59.9233 36.1693C59.9233 36.1693 57.7623 35.8788 57.728 36.0239C57.6938 36.1693 59.1687 36.7495 59.1687 36.7495C59.1687 36.7495 58.1403 39.5074 55.2586 37.4171Z" fill="#059669"/>
<path d="M59.7866 32.453C59.7866 32.2789 60.9187 32.2789 60.9187 32.2789L60.9498 30.052C59.902 31.1719 58.8367 32.2781 57.8714 33.4534C56.8877 34.6509 55.5472 35.9307 55.2035 37.4053C55.2387 37.4133 55.259 37.4167 55.259 37.4167C58.1403 39.507 59.1695 36.7491 59.1695 36.7491C59.1695 36.7491 57.6946 36.1689 57.7289 36.0235C57.7632 35.8781 59.9241 36.1689 59.9241 36.1689L60.1645 35.1528C60.1645 35.1528 58.6211 34.2237 58.9639 34.3108C59.3067 34.3978 60.7473 34.2527 60.7473 34.2527L60.953 33.0626C60.953 33.0626 59.7866 32.6274 59.7866 32.453Z" fill="#047857"/>
<path d="M48.5701 28.7954C48.5701 28.7954 49.0848 27.5472 47.747 26.7052C46.4092 25.8631 45.2771 26.6762 45.2771 26.6762C45.2771 26.6762 45.8945 27.9534 45.8945 28.1854C45.8945 28.1854 44.8314 27.4888 44.4539 27.0823C44.0764 26.6762 43.1504 28.3595 43.1504 28.3595L44.1797 29.4046C44.1797 29.4046 42.9794 28.795 42.7738 28.795C42.5681 28.795 41.8816 29.9562 42.0187 30.0432C42.1563 30.1303 42.7048 30.4498 42.7048 30.4498L41.6417 30.7692C41.6417 30.7692 41.3327 32.3075 41.5041 32.8301L43.6307 32.7721C43.6307 32.7721 43.6998 31.93 43.8026 31.959C43.9054 31.9884 44.3515 32.7141 44.4544 32.7721C44.5572 32.8301 45.655 32.6851 45.655 32.6851C45.655 32.6851 45.7579 31.2334 45.8264 31.4365C45.895 31.6399 46.4439 32.1625 46.5815 32.1625C46.7186 32.1625 48.1249 31.3788 48.1935 31.2624C48.262 31.1464 47.5417 30.3043 47.4732 30.0432C47.4046 29.7821 48.8457 30.4207 49.1542 30.8853C49.1542 30.8853 50.1145 30.6822 50.4573 30.7399C50.7996 30.7986 51.3143 29.1729 48.5701 28.7954Z" fill="#059669"/>
<path d="M48.8376 28.8428C47.6391 29.2188 46.4786 29.6799 45.3582 30.2001C44.0867 30.7906 41.9118 31.4991 41.5203 32.8298L43.6307 32.7725C43.6307 32.7725 43.6997 31.9304 43.8026 31.9595C43.9054 31.9888 44.3515 32.7145 44.4543 32.7725C44.5572 32.8305 45.655 32.6855 45.655 32.6855C45.655 32.6855 45.7578 31.2338 45.8264 31.4369C45.895 31.6403 46.4439 32.1629 46.5814 32.1629C46.7186 32.1629 48.1249 31.3793 48.1935 31.2628C48.262 31.1468 47.5417 30.3047 47.4731 30.0436C47.4046 29.7825 48.8457 30.4212 49.1542 30.8857C49.1542 30.8857 50.1145 30.6826 50.4572 30.7403C50.7874 30.7964 51.2691 29.2882 48.8376 28.8428Z" fill="#047857"/>
<path d="M51.3485 25.4283C51.3485 25.4283 52.4463 25.2829 53.0291 24.1801C53.6123 23.077 52.4806 21.5383 52.4806 21.5383C52.4806 21.5383 51.0057 22.2059 50.3197 22.2643L51.3485 21.0741C51.3485 21.0741 51.0057 20.697 50.2854 20.3191C49.5651 19.942 49.6679 19.6225 49.2566 19.6805C48.8448 19.7385 47.6784 20.4641 47.6441 20.2321C47.6098 20 48.193 19.3904 48.193 19.3034C48.193 19.2163 46.89 18.5483 46.5467 18.5773C46.2039 18.6067 45.5864 19.245 45.4836 19.0419C45.3808 18.8384 45.7583 18.4029 45.3808 18.3453C45.0032 18.2872 41.4017 18.3743 41.4017 18.3743C41.4017 18.3743 41.3674 20.087 41.5045 20.058C41.6421 20.029 43.4598 20.145 43.4255 20.2321C43.3912 20.3191 41.8477 20.6096 41.9163 20.784C41.9849 20.9581 42.8085 21.9738 42.9113 21.9452C43.0141 21.9162 45.484 21.8291 45.8268 21.8291C46.1701 21.8291 44.2148 22.5838 43.8716 22.6418C43.5288 22.6998 45.1065 24.1225 45.3808 24.1225C45.655 24.1225 46.5467 23.7159 47.1642 23.7453C47.7817 23.7743 48.3306 23.8614 48.3306 23.8614C48.3306 23.8614 47.8502 24.2099 47.0613 24.442C46.2725 24.674 45.5522 24.7031 45.6554 24.9061C45.7583 25.1092 46.4443 25.3703 47.8507 25.7768C49.2561 26.183 50.2507 26.299 51.3485 25.4283Z" fill="#047857"/>
<path d="M49.0324 22.218C48.4018 21.76 47.7302 21.3493 47.0888 20.9084C46.0298 20.3587 44.8851 19.8949 43.7471 19.4823C42.9429 19.1907 42.0927 18.9418 41.3985 18.4899C41.394 18.8704 41.3872 20.0824 41.5031 20.0579C41.6407 20.0289 43.4584 20.145 43.4241 20.232C43.3898 20.319 41.8464 20.6095 41.9149 20.784C41.9835 20.958 42.8071 21.9737 42.9099 21.9451C43.0128 21.9161 45.4827 21.8291 45.8255 21.8291C46.1687 21.8291 44.2135 22.5837 43.8702 22.6417C43.5274 22.6998 45.1052 24.1224 45.3794 24.1224C45.6536 24.1224 46.5453 23.7159 47.1628 23.7453C47.7803 23.7743 48.3292 23.8613 48.3292 23.8613C48.3292 23.8613 47.8489 24.2098 47.06 24.4419C46.2711 24.674 45.5508 24.703 45.6541 24.9061C45.7569 25.1091 46.443 25.3702 47.8493 25.7767C49.2557 26.1833 50.2502 26.2993 51.348 25.4282C51.348 25.4282 51.3995 25.4202 51.482 25.3996C51.1929 24.1919 50.0635 22.9666 49.0324 22.218Z" fill="#059669"/>
<path d="M58.346 24.0346C58.346 24.0346 56.3564 23.425 56.3564 22.0028C56.3564 20.5801 57.9342 19.7965 57.9342 19.7965L58.7916 21.0156C58.7916 21.0156 58.6888 19.0998 58.6888 18.9254C58.6888 18.751 60.644 17.213 60.8844 17.4741C61.1244 17.7352 60.8497 19.1288 61.2272 19.3029C61.6047 19.477 61.639 17.4447 61.9475 17.0096C62.2565 16.574 63.4224 16.1969 63.4224 16.371C63.4224 16.545 63.3539 17.242 63.5253 17.242C63.6971 17.242 64.0399 16.8355 64.1775 16.371C64.3146 15.9068 66.8874 16.342 66.8874 16.545C66.8874 16.7481 66.407 17.8222 66.407 18.0837C66.407 18.3448 65.4467 18.4899 64.8978 18.5769C64.3489 18.6639 65.9271 19.1575 65.9271 19.2445C65.9271 19.3315 64.8292 20.6668 64.8292 20.6668C64.8292 20.6668 62.8054 20.4053 62.9083 20.5507C63.0111 20.6962 63.5943 21.0733 64.0061 21.2183C64.4179 21.3634 64.795 21.1603 64.246 22.031C63.6976 22.9021 63.4229 23.2212 62.4626 22.9601C61.5024 22.699 60.8501 22.699 60.8501 22.699C60.8501 22.699 61.3305 23.1051 62.1879 23.4826C63.0458 23.8598 61.6052 24.9049 61.1248 25.079C60.6445 25.253 58.9292 25.1668 58.346 24.0346Z" fill="#059669"/>
<path d="M62.0517 19.5164C61.1451 20.2764 60.4541 21.1647 59.7608 22.0651C59.2715 22.7011 58.6914 23.329 58.2787 24.0119C58.3198 24.026 58.3464 24.0348 58.3464 24.0348C58.9296 25.1669 60.6444 25.2539 61.1248 25.0799C61.6052 24.9058 63.0458 23.8607 62.1879 23.4836C61.3305 23.1061 60.8501 22.6999 60.8501 22.6999C60.8501 22.6999 61.5023 22.6999 62.4626 22.961C63.4229 23.2225 63.6975 22.903 64.246 22.0319C64.7949 21.1609 64.4179 21.3643 64.0061 21.2192C63.5943 21.0738 63.0111 20.6967 62.9082 20.5516C62.8054 20.4062 64.8292 20.6677 64.8292 20.6677C64.8292 20.6677 65.927 19.3324 65.927 19.2454C65.927 19.1584 64.3488 18.6648 64.8978 18.5778C65.4467 18.4908 66.407 18.3457 66.407 18.0846C66.407 17.8732 66.7213 17.1296 66.8413 16.746C65.1684 17.5625 63.4265 18.3644 62.0517 19.5164Z" fill="#047857"/>
<path d="M55.6361 48.6804H48.5015L48.9128 44.2682H55.2243L55.6361 48.6804Z" fill="#A16207"/>
<path d="M48.7486 46.0284L48.501 48.6805H55.6356L55.3501 45.618C53.1558 45.8142 50.9556 45.9627 48.7486 46.0284Z" fill="#854D0E"/>
<path d="M48.1582 46.7792V52.1785C48.1582 53.3568 49.2872 54.3123 50.6796 54.3123H53.5094C54.9018 54.3123 56.0307 53.3568 56.0307 52.1785V46.7792H48.1582Z" fill="#854D0E"/>
<path d="M54.472 46.7792C54.5599 47.1777 54.6037 47.5869 54.6474 47.9739C54.7949 49.279 55.0006 50.5658 54.4431 51.8247C53.8215 53.2271 52.3931 53.9642 50.8023 54.3119H53.509C54.9013 54.3119 56.0303 53.3565 56.0303 52.1781V46.7788L54.472 46.7792Z" fill="#713F12"/>
<path d="M59.9237 75.2567C59.8046 75.2567 59.6982 75.1865 59.672 75.0853L52.4797 47.0986H52.3895C52.2979 47.0986 52.2172 47.0577 52.1721 46.997H48.5899C48.4478 46.997 48.3328 46.8997 48.3328 46.7795C48.3328 46.6592 48.4478 46.5619 48.5899 46.5619H56.1733C56.3041 46.5619 56.4141 46.6451 56.429 46.7554L60.179 75.0151C60.1943 75.1303 60.1005 75.2353 59.9652 75.2544C59.9516 75.2559 59.9372 75.2567 59.9237 75.2567ZM52.9808 46.9967L59.1077 70.8369L55.9437 46.9967H52.9808Z" fill="#422006"/>
<path d="M44.6257 75.2567C44.6117 75.2567 44.5977 75.2559 44.5837 75.254C44.4484 75.2353 44.3546 75.13 44.3695 75.0147L48.1199 46.7551C48.1348 46.6451 48.2449 46.5615 48.3757 46.5615H55.959C56.1011 46.5615 56.2161 46.6592 56.2161 46.7791C56.2161 46.8993 56.1011 46.9967 55.959 46.9967H52.3773C52.3313 47.0577 52.251 47.0982 52.1595 47.0982H52.0692L44.8769 75.0849C44.8503 75.1865 44.7443 75.2567 44.6257 75.2567ZM48.6057 46.9967L45.4416 70.8369L51.5686 46.9967H48.6057Z" fill="#422006"/>
<path d="M52.0688 75.2276H52.067C51.9367 75.2268 51.8275 75.1436 51.8131 75.034L48.12 46.803C48.1042 46.6835 48.2061 46.5759 48.3473 46.5625C48.4889 46.5488 48.6157 46.6354 48.6314 46.7553L52.0828 73.1343L55.9185 46.7522C55.9356 46.6328 56.066 46.5454 56.2049 46.5629C56.3461 46.5774 56.4467 46.6862 56.4286 46.8057L52.3241 75.0363C52.3083 75.1455 52.1983 75.2276 52.0688 75.2276Z" fill="#422006"/>
<path d="M42.582 22.569C42.6032 22.6392 42.4868 22.7258 42.3218 22.7617C42.1567 22.7976 42.0056 22.7697 41.9835 22.6995C41.9623 22.6293 42.0787 22.5426 42.2442 22.5071C42.4093 22.4709 42.5604 22.4987 42.582 22.569Z" fill="white"/>
<path d="M43.7777 22.3086C43.7989 22.3792 43.6826 22.4655 43.5175 22.5014C43.3524 22.5372 43.2013 22.5094 43.1796 22.4391C43.1584 22.3685 43.2748 22.2826 43.4404 22.2464C43.6054 22.2101 43.7561 22.238 43.7777 22.3086Z" fill="white"/>
<path d="M44.9734 22.0483C44.9951 22.1186 44.8783 22.2052 44.7132 22.2411C44.5481 22.277 44.397 22.2491 44.3754 22.1785C44.3546 22.1079 44.4705 22.0216 44.6361 21.9857C44.8011 21.9499 44.9522 21.9777 44.9734 22.0483Z" fill="white"/>
<path d="M46.1696 21.7876C46.1913 21.8582 46.0744 21.9445 45.9094 21.9804C45.7443 22.0162 45.5932 21.9884 45.5715 21.9181C45.5508 21.8479 45.6667 21.7613 45.8322 21.7254C45.9973 21.6891 46.1484 21.717 46.1696 21.7876Z" fill="white"/>
<path d="M47.1809 21.5673C47.2021 21.6375 47.1272 21.715 47.0131 21.7398C46.899 21.7646 46.7894 21.7276 46.7677 21.657C46.7461 21.5867 46.8214 21.5092 46.9355 21.4848C47.0496 21.46 47.1592 21.4966 47.1809 21.5673Z" fill="white"/>
<path d="M42.6014 23.3213C42.5992 23.3938 42.4598 23.4503 42.2893 23.4465C42.1183 23.4434 41.9821 23.3812 41.9839 23.3091C41.9862 23.2361 42.126 23.1804 42.2965 23.1835C42.4666 23.1869 42.6032 23.2487 42.6014 23.3213Z" fill="white"/>
<path d="M43.836 23.3457C43.8341 23.4182 43.6939 23.4747 43.5238 23.4709C43.3533 23.4678 43.2167 23.406 43.2189 23.3335C43.2212 23.2606 43.361 23.2048 43.5315 23.2083C43.7011 23.2113 43.8373 23.2732 43.836 23.3457Z" fill="white"/>
<path d="M45.0704 23.3701C45.0686 23.4426 44.9283 23.4991 44.7578 23.4953C44.5873 23.4923 44.4511 23.43 44.4529 23.3575C44.4552 23.2846 44.595 23.2289 44.7651 23.2319C44.9355 23.2354 45.0722 23.2976 45.0704 23.3701Z" fill="white"/>
<path d="M46.3049 23.3941C46.3026 23.467 46.1633 23.5231 45.9923 23.5197C45.8218 23.5166 45.6856 23.4548 45.6874 23.3819C45.6897 23.3089 45.8295 23.2528 45.9995 23.2567C46.17 23.2601 46.3067 23.3219 46.3049 23.3941Z" fill="white"/>
<path d="M47.4894 23.4178C47.4876 23.4903 47.359 23.5472 47.2021 23.5438C47.0451 23.5407 46.9202 23.4789 46.9224 23.4067C46.9238 23.3338 47.0528 23.2777 47.2097 23.2808C47.3658 23.2838 47.4916 23.3453 47.4894 23.4178Z" fill="white"/>
<path d="M42.5757 24.0675C42.5509 24.1369 42.3984 24.1606 42.2352 24.119C42.0719 24.0782 41.9591 23.9885 41.9839 23.9186C42.0087 23.8491 42.1612 23.8258 42.3245 23.8667C42.4877 23.9079 42.6005 23.9976 42.5757 24.0675Z" fill="white"/>
<path d="M43.7598 24.3648C43.735 24.4347 43.5825 24.458 43.4192 24.4164C43.256 24.3759 43.1432 24.2858 43.168 24.2163C43.1924 24.1465 43.3448 24.1232 43.5081 24.1644C43.6718 24.2053 43.7841 24.2954 43.7598 24.3648Z" fill="white"/>
<path d="M44.9433 24.6627C44.9189 24.7325 44.7669 24.7554 44.6027 24.7142C44.4394 24.673 44.3271 24.5833 44.3515 24.5142C44.3763 24.4443 44.5283 24.4211 44.692 24.4623C44.8553 24.5031 44.9681 24.5928 44.9433 24.6627Z" fill="white"/>
<path d="M46.1272 24.9598C46.1024 25.0293 45.9499 25.0529 45.7867 25.0113C45.6234 24.9705 45.5106 24.8808 45.5354 24.8109C45.5602 24.7415 45.7127 24.7182 45.876 24.759C46.0393 24.8002 46.152 24.8903 46.1272 24.9598Z" fill="white"/>
<path d="M47.1808 25.2248C47.156 25.2947 47.0334 25.3252 46.9057 25.2931C46.7781 25.2611 46.6946 25.1786 46.719 25.1088C46.7438 25.0389 46.8665 25.0084 46.9946 25.0404C47.1213 25.0725 47.2057 25.155 47.1808 25.2248Z" fill="white"/>
</svg>
