<svg width="70" height="78" viewBox="0 0 70 78" fill="none" xmlns="http://www.w3.org/2000/svg">
<path d="M0.749542 74.755C0.749542 76.5472 16.2522 78.0005 35.375 78.0005C54.4977 78.0005 70 76.5472 70 74.755C70 72.9629 54.4973 71.5099 35.375 71.5099C16.2526 71.5099 0.749542 72.9629 0.749542 74.755Z" fill="#E5E7EB"/>
<path d="M36.0815 64.9961C17.5918 64.7734 7.57023 64.8453 2.40253 59.1223C-2.76649 53.3997 1.69825 48.3549 3.8111 43.987C5.92616 39.6191 2.87221 35.3271 2.24495 30.6584C1.62034 25.9897 3.34187 19.9652 10.548 17.0283C17.7529 14.0921 20.0247 18.1581 27.9351 10.477C35.8487 2.79616 46.4222 3.47444 53.4722 8.14278C60.5194 12.8115 64.684 20.7309 62.7137 29.5282C61.6168 34.4229 60.7549 39.3172 64.1236 46.622C68.4308 55.9631 73.6002 65.448 36.0815 64.9961Z" fill="#ECFDF5"/>
<path d="M30.8843 70.8855C30.8843 70.8855 31.9954 71.2678 31.894 72.9241C31.7931 74.5803 32.0959 75.1749 29.2176 75.2173C26.3394 75.2597 23.1075 75.1324 21.4918 75.1324C19.876 75.1324 20.4816 73.1791 23.057 72.7543C25.6325 72.3296 27.7533 71.9052 28.3593 71.6502C28.9653 71.3952 30.8843 70.8855 30.8843 70.8855Z" fill="#111827"/>
<path d="M21.4917 75.1322C22.4058 75.1322 23.8374 75.1732 25.4297 75.2007C25.8772 74.1513 25.6908 73.1182 25.3903 72.3453C24.6847 72.4779 23.8958 72.6156 23.057 72.7541C20.4815 73.1785 19.8755 75.1322 21.4917 75.1322Z" fill="#1F2937"/>
<path d="M37.2176 70.8855C37.2176 70.8855 36.1065 71.2678 36.2079 72.9241C36.3088 74.5803 36.006 75.1749 38.8843 75.2173C41.7625 75.2597 44.9944 75.1324 46.6101 75.1324C48.2259 75.1324 47.6198 73.1791 45.0448 72.7543C42.4694 72.3296 40.3486 71.9052 39.7426 71.6502C39.1366 71.3952 37.2176 70.8855 37.2176 70.8855Z" fill="#111827"/>
<path d="M46.6102 75.1322C45.6957 75.1322 44.2641 75.1732 42.6723 75.2007C42.2247 74.1513 42.4102 73.1182 42.7117 72.3453C43.4168 72.4779 44.2061 72.6156 45.045 72.7541C47.62 73.1785 48.226 75.1322 46.6102 75.1322Z" fill="#1F2937"/>
<path d="M41.3871 40.734L41.1853 71.905L36.0849 71.8202L35.883 45.4481H32.9543L31.9946 71.7353L27.5007 71.8626L28.0053 40.5642L41.3871 40.734Z" fill="#9CA3AF"/>
<path d="M30.421 40.5947L28.0054 40.5642L27.9518 43.879C28.7916 43.213 29.8522 42.127 30.421 40.5947Z" fill="#D1D5DB"/>
<path d="M35.0753 43.1118C35.0753 42.8158 35.05 41.6998 35.0253 40.6529L33.4418 40.6328C33.4976 41.8535 33.5605 43.2667 33.5605 43.4092C33.56 43.6639 35.0753 43.7063 35.0753 43.1118Z" fill="#D1D5DB"/>
<path d="M38.968 40.703C39.3969 41.5429 40.1446 42.6124 41.3703 43.3644L41.3871 40.7339L38.968 40.703Z" fill="#D1D5DB"/>
<path d="M28.9146 22.4095C28.9146 22.4095 28.4347 22.1973 28.081 22.6217C27.7278 23.0465 23.8898 32.5589 23.6628 32.6866C23.4352 32.8139 13.2853 32.5805 13.2853 32.5805L12.9321 35.2772C12.9321 35.2772 23.7385 36.4454 24.572 36.3181C25.4046 36.1908 28.5361 33.4304 28.9398 31.7525C29.3431 30.075 28.9146 22.4095 28.9146 22.4095Z" fill="#059669"/>
<path d="M34.898 21.1776C37.2247 21.1091 39.6447 21.3049 40.7306 21.5811C41.8164 21.857 42.2449 22.8975 42.2706 25.531C42.2954 28.1637 41.6894 42.1989 41.6894 42.1989L27.7272 42.0083C27.7272 42.0083 27.9796 23.2798 28.0805 22.6216C28.1823 21.9634 32.0198 21.2624 34.898 21.1776Z" fill="#10B981"/>
<path d="M42.2706 25.5309C42.2449 22.8978 41.816 21.8572 40.7306 21.581C40.2127 21.4492 39.3893 21.3361 38.419 21.2612C38.7386 21.8796 38.7806 22.6078 38.9214 23.2764C39.2264 24.7275 39.5071 26.1902 39.6146 27.6625C39.7665 29.7488 39.8727 31.9943 39.2503 34.0355C38.6664 35.9498 37.3743 37.2557 35.1924 38.0289C32.8595 38.8554 30.2881 39.1577 27.7662 39.1975C27.7423 40.8921 27.7272 42.0082 27.7272 42.0082L41.6894 42.1988C41.6894 42.1988 42.2954 28.1636 42.2706 25.5309Z" fill="#059669"/>
<path d="M32.7775 22.027C32.7775 21.3822 33.6819 20.8591 34.7974 20.8591C35.9129 20.8591 36.8173 21.3822 36.8173 22.027C36.8173 22.6718 35.9129 23.1952 34.7974 23.1952C33.6819 23.1952 32.7775 22.6721 32.7775 22.027Z" fill="#D1D5DB"/>
<path d="M32.146 23.7259C32.146 23.7259 33.8127 22.8552 34.2412 22.4308C34.671 22.0064 35.1756 22.3247 35.6555 22.7495C36.1353 23.1742 36.8675 23.7475 36.8675 23.7475C36.8675 23.7475 38.2309 23.1534 38.1048 21.582C37.9786 20.0102 32.9034 20.4138 32.2469 21.4755C31.5909 22.5369 32.146 23.7259 32.146 23.7259Z" fill="white"/>
<path d="M34.6457 22.5788C33.9343 22.5788 33.3575 22.0941 33.3575 21.4958V18.0135H36.7913V21.1139C36.7913 22.1104 35.8307 22.5788 34.6457 22.5788Z" fill="#FCA5A5"/>
<path d="M36.7913 20.2791V18.0142H33.3575V20.944C34.5877 20.9492 35.7209 20.9257 36.7913 20.2791Z" fill="#F87171"/>
<path d="M26.1717 9.94232C25.7972 8.97291 27.0522 7.98079 28.1376 7.68446C29.2234 7.38776 30.4067 7.93351 30.7812 8.90291C31.1553 9.87232 30.5785 10.8987 29.493 11.195C28.4072 11.4917 26.5462 10.9121 26.1717 9.94232Z" fill="#111827"/>
<path d="M33.6222 20.2364C30.9737 20.2364 28.8078 19.4815 28.7374 17.2553L28.4598 7.43982H40.6128V15.3767C40.6128 18.623 37.4832 20.2364 33.6222 20.2364Z" fill="#FCA5A5"/>
<path d="M28.8118 9.79942C29.4966 9.73465 30.1198 9.47815 30.7971 9.42231C31.5023 9.36386 32.1875 9.429 32.8918 9.4357C33.6351 9.44278 34.1835 9.26371 34.8528 9.03439C35.2149 8.91042 35.5784 8.88772 35.9493 9.01429C36.6917 9.26669 37.2791 9.33631 38.0768 9.32663C39.0135 9.31583 39.789 9.64195 40.6128 9.9152V7.44031H28.4598L28.5267 9.81729C28.6218 9.81097 28.7175 9.80836 28.8118 9.79942Z" fill="#FCA5A5"/>
<path d="M44.6971 9.80074C45.6949 9.12394 46.5045 7.96429 45.9061 7.09168C45.5789 6.61442 44.8875 6.31027 44.1239 6.18035C44.8893 5.16627 45.2593 3.89495 44.4351 3.14295C43.9079 2.66159 42.9862 2.48215 42.0252 2.52794C42.1478 1.86753 42.0234 1.25402 41.4993 0.872061C40.4307 0.0928867 38.0735 0.544456 36.788 1.45914C36.5649 0.741018 36.1014 0.142403 35.3608 0.0221581C34.1187 -0.179616 32.5375 1.03289 32.0714 2.18397C32.0338 2.15903 31.9979 2.13296 31.9585 2.10913C30.7469 1.38357 29.1175 1.55892 28.3193 2.50152C27.7377 3.18837 27.7602 4.09188 28.283 4.81298C27.1179 4.98683 26.1029 5.81664 26.1029 6.81657C26.1029 7.94234 27.3229 8.99624 28.6611 8.99624C29.5154 8.99624 30.2649 8.62359 30.6969 8.0622C30.8841 8.29934 31.1276 8.51527 31.4242 8.69247C32.6353 9.41804 34.2648 9.24269 35.0629 8.30009C35.2117 8.12512 35.3201 7.93563 35.3918 7.7387C35.5025 8.10613 35.7544 8.44565 36.1515 8.68316C37.0195 9.20323 38.2134 9.04464 38.8499 8.33881C39.1957 8.79968 39.6972 9.2896 40.4103 9.61906L40.3767 12.5634L41.9924 13.809L42.3488 12.7778C42.6246 12.8247 42.9136 12.824 43.2018 12.7648C44.3107 12.5377 45.6506 11.6279 45.3638 10.6376C45.273 10.3223 45.026 10.0364 44.6971 9.80074Z" fill="#030712"/>
<path d="M40.2761 12.8187C40.2761 12.8187 40.2424 11.9412 41.7236 11.7711C43.2047 11.6014 43.6762 13.2152 43.0365 14.772C42.3969 16.3293 40.7475 16.0177 40.377 15.565" fill="#FCA5A5"/>
<path d="M42.4679 13.0214C42.4444 12.9712 42.3935 12.8989 42.2895 12.836C42.1855 12.7593 41.9872 12.7765 41.8508 12.8547C41.7078 12.9306 41.583 13.0445 41.4794 13.1763C41.2691 13.4391 41.1009 13.7667 41.0297 14.1185C41.0009 14.2939 40.9703 14.4804 41.0841 14.6751C41.1408 14.7715 41.2838 14.8508 41.4179 14.8463C41.5511 14.8471 41.6552 14.8005 41.7406 14.7499C41.9101 14.6449 42.0066 14.5046 42.039 14.3676C42.073 14.2254 42.0305 14.107 41.9889 14.018C41.8999 13.8215 41.687 13.7459 41.5764 13.7511C41.3448 13.7608 41.3453 13.82 41.3537 13.8389C41.363 13.8713 41.3953 13.8695 41.5533 13.8952C41.629 13.913 41.7233 13.9514 41.7791 14.0869C41.8057 14.1569 41.8305 14.241 41.8043 14.3263C41.7826 14.4134 41.7118 14.5135 41.5981 14.5835C41.4776 14.6576 41.348 14.6684 41.2917 14.5753C41.2249 14.4741 41.2271 14.3028 41.2523 14.1472C41.3046 13.8281 41.4484 13.5069 41.6246 13.2552C41.7919 13.005 42.0575 12.8104 42.2421 12.906C42.3293 12.9451 42.3913 13.0021 42.4263 13.0445C42.4648 13.0847 42.4905 13.1059 42.498 13.103C42.506 13.0989 42.4953 13.0706 42.4679 13.0214Z" fill="#422006"/>
<path d="M37.2363 10.2822C37.034 10.2644 36.821 10.3008 36.6356 10.3667C36.265 10.5056 36.1367 10.6445 36.0734 10.7126C36.0149 10.7867 36.0388 10.8135 36.068 10.8369C36.0981 10.8611 36.1256 10.8794 36.2124 10.8447C36.3013 10.8161 36.4426 10.7115 36.7502 10.5968C36.9043 10.5421 37.0645 10.5119 37.2132 10.5156C37.3637 10.5156 37.4943 10.5689 37.6076 10.6169C37.8254 10.7327 37.9476 10.8637 37.987 10.8369C38.026 10.8131 37.9711 10.6426 37.7356 10.4632C37.613 10.3824 37.4421 10.2968 37.2363 10.2822Z" fill="#422006"/>
<path d="M31.2541 10.1946C31.0571 10.1175 30.8177 10.1168 30.6273 10.1704C30.4409 10.2315 30.2918 10.3186 30.1891 10.4083C29.9748 10.5836 29.8978 10.737 29.9244 10.7519C29.9788 10.7869 30.1151 10.6737 30.3329 10.5524C30.4378 10.4876 30.5702 10.4325 30.7088 10.3945C30.8491 10.3666 30.9969 10.3714 31.1337 10.4232C31.406 10.5375 31.5113 10.6737 31.5852 10.7154C31.6565 10.7653 31.6884 10.7541 31.7251 10.7381C31.761 10.7229 31.7937 10.702 31.7596 10.6175C31.7172 10.5419 31.6392 10.3603 31.2541 10.1946Z" fill="#422006"/>
<path d="M33.0698 15.5618C33.3478 15.7111 33.5435 15.7606 33.5603 15.7349C33.5789 15.707 33.4173 15.6084 33.1827 15.4364C33.0707 15.3511 32.926 15.2413 32.8481 15.1129C32.7781 15.0228 32.8715 14.8273 32.9446 14.6423C33.2872 13.8918 33.6316 13.2872 33.5599 13.2575C33.5019 13.2318 33.0535 13.785 32.6953 14.5671C32.6524 14.6658 32.6157 14.7652 32.5895 14.8679C32.5776 14.9208 32.567 14.9714 32.5696 15.0358C32.5723 15.1062 32.6002 15.1624 32.632 15.2085C32.7657 15.3913 32.9335 15.4829 33.0698 15.5618Z" fill="#422006"/>
<path d="M32.4761 17.2146C32.083 17.126 31.9011 16.9808 31.8763 16.9949C31.8351 17.0117 32.0029 17.228 32.4146 17.3631C32.8218 17.4982 33.4079 17.5902 34.0706 17.5459C34.7311 17.4949 35.2901 17.2991 35.6598 17.1252C36.0316 16.9484 36.2242 16.792 36.2025 16.7682C36.1662 16.7079 35.287 17.2209 34.0467 17.3244C33.4376 17.3665 32.8595 17.3024 32.4761 17.2146Z" fill="#422006"/>
<path d="M36.7245 12.1957C36.5386 12.1957 36.3881 12.5002 36.3881 12.8751C36.3881 13.25 36.5386 13.5545 36.7245 13.5545C36.9109 13.5545 37.0614 13.25 37.0614 12.8751C37.0614 12.5002 36.9104 12.1957 36.7245 12.1957Z" fill="#422006"/>
<path d="M30.6312 12.0972C30.4453 12.0972 30.2948 12.4013 30.2948 12.7766C30.2948 13.1515 30.4453 13.456 30.6312 13.456C30.8172 13.456 30.9676 13.1515 30.9676 12.7766C30.9676 12.4013 30.8172 12.0972 30.6312 12.0972Z" fill="#422006"/>
<path d="M16.4049 27.9047C16.3669 27.8601 16.5723 27.7145 16.7391 27.6802C16.902 27.6441 16.9202 27.6903 16.9295 27.7398C16.9401 27.7923 16.9388 27.8292 16.8007 27.8601C16.6617 27.8876 16.4386 27.9446 16.4049 27.9047Z" fill="#065F46"/>
<path d="M18.6127 17.6532C18.6127 17.6532 18.2847 16.4854 17.7287 15.7215C17.1732 14.9572 16.3153 14.9996 15.785 15.5093C15.2542 16.0189 15.684 16.8893 16.4919 17.2712C17.2998 17.6536 18.3856 17.9082 18.3856 17.9082L18.6127 17.6532Z" fill="#059669"/>
<path d="M16.7193 21.3482C16.7193 21.3482 16.7441 19.1615 17.1987 18.0994C17.6538 17.0376 19.4709 15.5727 21.1633 16.9315C22.8551 18.2903 20.1279 20.6476 16.9464 21.3907L16.7193 21.3482Z" fill="#064E3B"/>
<path d="M18.5876 24.7238C18.5876 24.7238 18.739 22.9402 17.426 21.2627C16.1131 19.5852 14.3198 19.6913 13.3606 21.1566C12.4009 22.6219 13.689 23.8958 15.1538 24.5332C16.6182 25.1698 18.3353 25.0424 18.3353 25.0424L18.5876 24.7238Z" fill="#059669"/>
<path d="M17.0475 29.6925C17.0475 29.6925 16.113 26.6138 17.8554 24.2781C19.5973 21.9429 21.9204 22.3885 22.6525 23.1103C23.3847 23.8322 23.309 25.7222 21.3396 26.9537C19.3702 28.1855 18.6632 29.5868 18.6632 29.5868L17.0475 29.6925Z" fill="#064E3B"/>
<path d="M21.1887 27.7523C21.1608 27.7981 20.7695 27.657 20.534 27.5435C20.4145 27.4887 20.3445 27.4113 20.3419 27.3651C20.3361 27.3186 20.3662 27.3093 20.3946 27.3018C20.4242 27.2936 20.4508 27.2925 20.4791 27.3011C20.5096 27.3104 20.5353 27.3286 20.65 27.3845C20.8797 27.4951 21.217 27.7065 21.1887 27.7523Z" fill="#065F46"/>
<path d="M21.5632 27.21C21.5313 27.2539 21.2011 27.095 21.0072 26.9703C20.8138 26.8455 20.8372 26.8079 20.878 26.7696C20.9191 26.7313 20.963 26.7067 21.148 26.8258C21.3321 26.9438 21.5951 27.1657 21.5632 27.21Z" fill="#065F46"/>
<path d="M22.758 26.3444C22.7314 26.3909 22.3392 26.2792 22.102 26.1843C21.858 26.08 21.8709 26.0357 21.9041 25.9929C21.9382 25.9494 21.9736 25.9196 22.198 26.0156C22.4348 26.1106 22.7845 26.2975 22.758 26.3444Z" fill="#065F46"/>
<path d="M23.3432 25.3322C23.3264 25.3768 22.8687 25.334 22.5796 25.3396C22.2905 25.3396 22.2702 25.3083 22.2653 25.2547C22.26 25.206 22.272 25.1527 22.5831 25.1527C22.8983 25.1475 23.3636 25.2782 23.3432 25.3322Z" fill="#065F46"/>
<path d="M23.6305 24.219C23.6442 24.2692 23.1997 24.379 22.9085 24.423C22.6172 24.4669 22.5946 24.4274 22.5866 24.3764C22.5782 24.3254 22.5871 24.2815 22.8726 24.2383C23.1577 24.1952 23.6163 24.1691 23.6305 24.219Z" fill="#065F46"/>
<path d="M23.1314 22.6797C23.1651 22.7188 22.8096 23.0137 22.5967 23.2099C22.3806 23.4035 22.3368 23.3919 22.2886 23.3577C22.2434 23.3253 22.2107 23.2825 22.436 23.0807C22.6604 22.8748 23.0938 22.6351 23.1314 22.6797Z" fill="#065F46"/>
<path d="M21.6554 22.317C21.7165 22.3229 21.7302 22.5854 21.7076 22.7496C21.6846 22.9138 21.6342 22.9178 21.5731 22.9119C21.512 22.9059 21.4642 22.8922 21.4867 22.728C21.5102 22.5638 21.5948 22.3114 21.6554 22.317Z" fill="#065F46"/>
<path d="M20.5242 22.062C20.5795 22.0728 20.5874 22.3595 20.6198 22.5363C20.6468 22.7132 20.6105 22.731 20.5476 22.7426C20.4909 22.7534 20.4294 22.7541 20.3984 22.5561C20.3635 22.3547 20.4591 22.049 20.5242 22.062Z" fill="#065F46"/>
<path d="M19.4064 22.3457C19.4618 22.3476 19.5437 22.6167 19.6371 22.7701C19.7234 22.9254 19.6986 22.9514 19.6437 22.9804C19.5955 23.0065 19.5344 23.0262 19.4334 22.8446C19.3241 22.6607 19.3378 22.3431 19.4064 22.3457Z" fill="#065F46"/>
<path d="M16.2752 25.7545C16.3044 25.7039 16.7564 25.8807 16.9897 26.0646C17.2238 26.2433 17.1911 26.2891 17.149 26.3226C17.1026 26.3602 17.0623 26.3721 16.8427 26.205C16.6276 26.0337 16.25 25.797 16.2752 25.7545Z" fill="#065F46"/>
<path d="M16.2865 26.9688C16.3095 26.9263 16.618 26.9595 16.8101 26.9483C17.0014 26.9423 17.0195 26.9729 17.0297 27.0265C17.039 27.0745 17.0372 27.1285 16.8123 27.1352C16.5817 27.1471 16.2586 27.0213 16.2865 26.9688Z" fill="#065F46"/>
<path d="M15.8002 25.2328C15.7489 25.2045 15.8684 24.9476 15.972 24.7984C16.0751 24.6491 16.1247 24.6602 16.1787 24.6844C16.2332 24.7083 16.2717 24.7362 16.1659 24.8896C16.0596 25.0437 15.8516 25.2611 15.8002 25.2328Z" fill="#065F46"/>
<path d="M14.6584 25.0789C14.631 25.0688 14.6606 24.9612 14.7491 24.8417C14.8359 24.7215 14.9669 24.5953 15.0564 24.4992C15.2285 24.3083 15.2525 24.3057 15.3166 24.328C15.3662 24.3429 15.4291 24.3935 15.2299 24.6158C15.1289 24.723 14.982 24.8336 14.8722 24.9236C14.7611 25.0126 14.6872 25.0897 14.6584 25.0789Z" fill="#065F46"/>
<path d="M13.4467 24.4425C13.4157 24.3982 13.8575 24.1358 14.1554 23.9913C14.4529 23.8469 14.4941 23.8752 14.5246 23.9202C14.5556 23.9649 14.564 24.0088 14.2661 24.1533C13.9686 24.2977 13.4772 24.4876 13.4467 24.4425Z" fill="#065F46"/>
<path d="M12.7537 23.1879C12.7697 23.1447 13.1822 23.1585 13.435 23.1146C13.6878 23.0781 13.7134 23.1019 13.732 23.1548C13.7488 23.2002 13.7528 23.2579 13.4669 23.2996C13.1756 23.348 12.7329 23.2441 12.7537 23.1879Z" fill="#065F46"/>
<path d="M12.1961 21.9264C12.228 21.8922 12.6184 22.0247 12.8809 22.0407C13.1394 22.0653 13.1576 22.0909 13.1594 22.1468C13.162 22.1937 13.147 22.2536 12.849 22.2257C12.7012 22.2093 12.5184 22.1546 12.3882 22.0872C12.2576 22.0202 12.1797 21.9476 12.1961 21.9264Z" fill="#065F46"/>
<path d="M12.632 20.8985C12.6564 20.8513 13.0937 20.9581 13.3602 21.0515C13.6267 21.1446 13.6227 21.1882 13.5997 21.2358C13.5767 21.2838 13.5439 21.3173 13.2757 21.2243C13.0078 21.1308 12.6077 20.9462 12.632 20.8985Z" fill="#065F46"/>
<path d="M13.3369 19.8337C13.3821 19.7987 13.8 20.1018 14.0439 20.3136C14.2882 20.525 14.2656 20.5663 14.2227 20.6028C14.1793 20.6393 14.1306 20.6576 13.8854 20.4446C13.6397 20.2309 13.2913 19.8683 13.3369 19.8337Z" fill="#065F46"/>
<path d="M14.5446 19.5739C14.6013 19.5634 14.7553 19.8635 14.858 20.0496C14.9581 20.2373 14.9257 20.2644 14.8695 20.2886C14.8164 20.3117 14.7602 20.3233 14.6539 20.1245C14.5446 19.9253 14.4817 19.5858 14.5446 19.5739Z" fill="#065F46"/>
<path d="M15.7022 19.7133C15.7531 19.7327 15.7269 19.9665 15.7473 20.1094C15.7606 20.2527 15.7252 20.2688 15.6619 20.2803C15.6057 20.2907 15.5419 20.2926 15.5255 20.1195C15.503 19.9412 15.6397 19.6899 15.7022 19.7133Z" fill="#065F46"/>
<path d="M18.429 21.5973C18.4582 21.6405 18.1674 21.8464 17.9868 21.9774C17.8035 22.107 17.7632 22.0872 17.7203 22.0485C17.6796 22.0113 17.6521 21.9696 17.8456 21.8333C18.0381 21.6945 18.3976 21.5508 18.429 21.5973Z" fill="#065F46"/>
<path d="M18.8146 22.4996C18.827 22.5499 18.4587 22.656 18.2175 22.6973C17.9767 22.7386 17.9536 22.6995 17.9412 22.6493C17.9288 22.599 17.9319 22.5554 18.1732 22.5141C18.4145 22.4724 18.8022 22.449 18.8146 22.4996Z" fill="#065F46"/>
<path d="M19.05 21.0863C19.0036 21.1198 18.7703 20.9564 18.6455 20.8346C18.5202 20.7129 18.5516 20.6787 18.5981 20.6452C18.6446 20.6116 18.6893 20.5908 18.8137 20.7125C18.9389 20.8343 19.0965 21.0524 19.05 21.0863Z" fill="#065F46"/>
<path d="M20.063 20.6166C20.0214 20.6549 19.6849 20.4815 19.4924 20.3512C19.2989 20.2205 19.3175 20.1792 19.3534 20.1375C19.3892 20.0958 19.4291 20.069 19.6274 20.203C19.8275 20.3374 20.1046 20.5786 20.063 20.6166Z" fill="#065F46"/>
<path d="M20.8535 20.0922C20.8287 20.1395 20.5073 20.0371 20.3156 19.9471C20.1244 19.8573 20.1412 19.8175 20.1749 19.7743C20.2085 19.7311 20.2457 19.701 20.4294 19.7866C20.6118 19.8719 20.8783 20.045 20.8535 20.0922Z" fill="#065F46"/>
<path d="M21.846 19.2828C21.834 19.333 21.3873 19.3055 21.1049 19.2612C20.9571 19.2388 20.8694 19.1905 20.8424 19.1551C20.8137 19.1186 20.8305 19.0978 20.8495 19.078C20.9017 19.0333 20.8986 19.0326 21.1474 19.0776C21.4263 19.1216 21.8579 19.2318 21.846 19.2828Z" fill="#065F46"/>
<path d="M22.3512 17.8615C22.3702 17.9106 21.9435 18.0971 21.662 18.1902C21.38 18.2837 21.3437 18.2509 21.3189 18.2036C21.2937 18.1567 21.2884 18.1135 21.5765 18.0178C21.8651 17.9222 22.3322 17.8124 22.3512 17.8615Z" fill="#065F46"/>
<path d="M21.7615 17.1805C21.7943 17.2244 21.6 17.4106 21.4592 17.5066C21.3175 17.6027 21.275 17.5781 21.2317 17.5412C21.1892 17.5044 21.1621 17.4694 21.3131 17.3659C21.4649 17.2624 21.7292 17.1362 21.7615 17.1805Z" fill="#065F46"/>
<path d="M21.0762 16.3043C21.128 16.3326 20.9961 16.6055 20.8854 16.7655C20.7743 16.9256 20.7243 16.9145 20.6703 16.8903C20.6163 16.8657 20.5787 16.837 20.692 16.6736C20.8053 16.5102 21.0244 16.2764 21.0762 16.3043Z" fill="#065F46"/>
<path d="M20.2294 16.0466C20.2874 16.0563 20.2962 16.3035 20.3015 16.4572C20.3037 16.6113 20.2599 16.6229 20.1971 16.6262C20.1373 16.6299 20.0815 16.6244 20.0789 16.4572C20.0744 16.2889 20.1665 16.0358 20.2294 16.0466Z" fill="#065F46"/>
<path d="M18.9085 15.9224C18.9634 15.8997 19.1896 16.1904 19.3056 16.3881C19.4216 16.5854 19.3835 16.6148 19.3282 16.6375C19.2733 16.6606 19.2224 16.6684 19.1064 16.4708C18.99 16.2734 18.8532 15.9455 18.9085 15.9224Z" fill="#065F46"/>
<path d="M16.4242 18.4678C16.4623 18.4324 16.7673 18.5701 16.9683 18.6349C17.1675 18.7041 17.1684 18.7399 17.1489 18.7913C17.1321 18.8385 17.102 18.8836 16.8798 18.8065C16.6513 18.7317 16.3791 18.5094 16.4242 18.4678Z" fill="#065F46"/>
<path d="M16.3586 19.5354C16.3462 19.4851 16.6318 19.4069 16.8203 19.3839C17.0085 19.3608 17.0235 19.401 17.0297 19.4527C17.0359 19.5037 17.031 19.5469 16.8487 19.5696C16.6667 19.5916 16.3715 19.5856 16.3586 19.5354Z" fill="#065F46"/>
<path d="M18.2488 15.8254C18.2927 15.8616 18.1391 16.0518 18.0191 16.1545C17.9602 16.2044 17.9545 16.2044 17.9314 16.2078C17.9102 16.2111 17.8828 16.216 17.8522 16.2167C17.8226 16.2175 17.7911 16.2182 17.7778 16.1817C17.7615 16.146 17.7955 16.0734 17.8611 16.0231C17.9815 15.9207 18.205 15.7893 18.2488 15.8254Z" fill="#065F46"/>
<path d="M17.8235 15.2127C17.8691 15.2417 17.7668 15.4632 17.719 15.6039C17.6668 15.7435 17.6234 15.7454 17.5614 15.7339C17.5039 15.7234 17.449 15.7044 17.5083 15.5444C17.565 15.3809 17.7713 15.1792 17.8235 15.2127Z" fill="#065F46"/>
<path d="M17.0488 14.6737C17.109 14.6834 17.105 15.0065 17.0718 15.2068C17.0377 15.4078 16.9864 15.4145 16.9253 15.4093C16.8647 15.4041 16.8168 15.3888 16.8509 15.1833C16.8855 14.9782 16.9882 14.664 17.0488 14.6737Z" fill="#065F46"/>
<path d="M15.8193 14.8144C15.8618 14.7664 16.1965 14.9957 16.2948 15.2154C16.3979 15.4272 16.3355 15.4532 16.2806 15.464C16.2169 15.4778 16.1806 15.4719 16.092 15.2913C16.0115 15.1063 15.7875 14.8505 15.8193 14.8144Z" fill="#065F46"/>
<path d="M15.26 15.5303C15.2839 15.483 15.5676 15.5154 15.7363 15.5612C15.9054 15.607 15.9027 15.6505 15.8881 15.7004C15.8735 15.7503 15.8523 15.7887 15.6743 15.7406C15.4955 15.6926 15.2356 15.5776 15.26 15.5303Z" fill="#065F46"/>
<path d="M15.0459 16.2788C15.0326 16.2286 15.3544 16.1448 15.5674 16.1176C15.7794 16.0905 15.7949 16.1307 15.8015 16.182C15.8073 16.2334 15.8006 16.2766 15.5957 16.3027C15.3912 16.3295 15.0596 16.3295 15.0459 16.2788Z" fill="#065F46"/>
<path d="M15.4287 17.1044C15.392 17.0631 15.6124 16.8732 15.7722 16.7734C15.932 16.674 15.9701 16.702 16.0068 16.744C16.0431 16.785 16.0644 16.8241 15.9046 16.9238C15.7448 17.0229 15.465 17.1457 15.4287 17.1044Z" fill="#065F46"/>
<path d="M16.2161 17.6827C16.1745 17.6447 16.3989 17.4143 16.5631 17.2874C16.7278 17.16 16.7703 17.1839 16.8115 17.2215C16.8531 17.2598 16.8779 17.297 16.7132 17.4244C16.549 17.5521 16.2577 17.7203 16.2161 17.6827Z" fill="#065F46"/>
<path d="M18.3286 27.5139C18.356 27.5381 18.2002 27.783 18.1781 27.955C18.1471 28.1226 18.1245 28.1348 18.0705 28.1356C18.0271 28.1371 17.9669 28.1263 18.0037 27.9267C18.0338 27.7186 18.287 27.477 18.3286 27.5139Z" fill="#065F46"/>
<path d="M17.6344 27.0306C17.6769 27.044 17.676 27.2026 17.6888 27.2979C17.6981 27.394 17.6662 27.4055 17.6167 27.4137C17.5706 27.4215 17.5224 27.4234 17.5113 27.3061C17.4963 27.1866 17.5848 27.0154 17.6344 27.0306Z" fill="#065F46"/>
<path d="M18.0745 26.4092C18.1178 26.4248 18.0979 26.5812 18.0877 26.6772C18.0749 26.7733 18.0386 26.7785 17.9886 26.777C17.9408 26.7755 17.8965 26.7685 17.9111 26.6583C17.924 26.5458 18.0271 26.3917 18.0745 26.4092Z" fill="#065F46"/>
<path d="M18.968 25.6453C18.9906 25.6785 18.872 25.7998 18.8166 25.8821C18.7569 25.9629 18.7237 25.9573 18.6776 25.9398C18.6351 25.9238 18.5935 25.9015 18.6683 25.8002C18.7418 25.6941 18.9415 25.6059 18.968 25.6453Z" fill="#065F46"/>
<path d="M18.6305 24.4135C18.6549 24.4433 18.4729 24.6328 18.3981 24.7712C18.3184 24.9056 18.2875 24.9071 18.2383 24.8926C18.1954 24.8807 18.1489 24.8572 18.2414 24.7005C18.3317 24.5375 18.5986 24.3748 18.6305 24.4135Z" fill="#065F46"/>
<path d="M19.7284 23.7245C19.7497 23.7583 19.6403 23.8682 19.5859 23.9415C19.5292 24.013 19.496 24.0055 19.4504 23.9862C19.4084 23.9691 19.369 23.9456 19.4416 23.8544C19.5142 23.7591 19.7032 23.6846 19.7284 23.7245Z" fill="#065F46"/>
<path d="M20.851 23.3356C20.8612 23.3747 20.8103 23.4302 20.7842 23.4585C20.755 23.4853 20.7222 23.4715 20.6801 23.4488C20.6399 23.428 20.6036 23.4042 20.6562 23.3546C20.7111 23.3014 20.8395 23.2925 20.851 23.3356Z" fill="#065F46"/>
<path d="M19.9272 24.8384C19.952 24.8707 19.8307 24.9981 19.7652 25.0807C19.697 25.1622 19.6638 25.1537 19.6196 25.1328C19.578 25.1135 19.5412 25.0889 19.6222 24.9921C19.7028 24.892 19.8989 24.8015 19.9272 24.8384Z" fill="#065F46"/>
<path d="M21.0882 24.1453C21.0988 24.1807 20.8908 24.2953 20.789 24.3921C20.684 24.4852 20.6544 24.4781 20.6119 24.4524C20.5747 24.4308 20.5375 24.3981 20.6646 24.2857C20.7921 24.1669 21.074 24.0995 21.0882 24.1453Z" fill="#065F46"/>
<path d="M22.0282 23.9575C22.049 23.9928 21.968 24.074 21.9162 24.1175C21.8622 24.1607 21.8312 24.1432 21.7945 24.1153C21.7587 24.0885 21.729 24.0613 21.7958 24.0077C21.8627 23.9522 22.0061 23.9191 22.0282 23.9575Z" fill="#065F46"/>
<path d="M20.8193 25.2641C20.8317 25.2976 20.5927 25.4424 20.4873 25.569C20.3771 25.6892 20.3488 25.6885 20.3023 25.6673C20.2629 25.6501 20.2186 25.6185 20.3497 25.474C20.4802 25.3207 20.8021 25.2172 20.8193 25.2641Z" fill="#065F46"/>
<path d="M20.0114 25.659C20.0455 25.6888 19.872 25.9151 19.7431 26.0439C19.6139 26.1731 19.574 26.1608 19.5346 26.137C19.4944 26.1131 19.4691 26.0864 19.6037 25.9516C19.7378 25.8164 19.9769 25.6296 20.0114 25.659Z" fill="#065F46"/>
<path d="M19.1667 26.5774C19.203 26.6008 19.1246 26.7743 19.0905 26.8849C19.0525 26.9951 19.0184 26.9969 18.9684 26.9891C18.9219 26.9821 18.8772 26.9683 18.9205 26.841C18.9617 26.7103 19.1242 26.5502 19.1667 26.5774Z" fill="#065F46"/>
<path d="M19.9434 27.1176C19.97 27.1526 19.7712 27.3294 19.63 27.424C19.4888 27.5189 19.4538 27.4999 19.4202 27.4698C19.3865 27.4396 19.3671 27.4102 19.5145 27.3105C19.6632 27.2107 19.9173 27.083 19.9434 27.1176Z" fill="#065F46"/>
<path d="M21.4111 25.9883C21.4456 26.0173 21.2659 26.1755 21.1322 26.2611C20.9999 26.346 20.9715 26.3218 20.9458 26.2868C20.9197 26.2518 20.906 26.2187 21.0304 26.139C21.1539 26.059 21.3761 25.9585 21.4111 25.9883Z" fill="#065F46"/>
<path d="M22.3319 24.7643C22.3509 24.7997 22.1774 24.9229 22.0795 25.0066C21.9782 25.0882 21.9472 25.0751 21.9087 25.0472C21.8728 25.0212 21.8436 24.9903 21.9587 24.8968C22.0733 24.8 22.3102 24.7241 22.3319 24.7643Z" fill="#065F46"/>
<path d="M16.5587 23.677C16.5937 23.6536 16.8513 23.8341 17.0262 23.9328C17.1979 24.0348 17.1922 24.0634 17.1656 24.1003C17.1422 24.1342 17.1068 24.1632 16.9208 24.0537C16.7318 23.9454 16.5162 23.7053 16.5587 23.677Z" fill="#065F46"/>
<path d="M15.4981 23.6769C15.5331 23.6475 15.7301 23.7349 15.8376 23.8064C15.9461 23.8783 15.9301 23.9099 15.9036 23.9445C15.8766 23.9792 15.8487 24.0034 15.7332 23.927C15.6172 23.8507 15.464 23.7067 15.4981 23.6769Z" fill="#065F46"/>
<path d="M16.1704 22.8988C16.2133 22.882 16.3443 23.0168 16.4227 23.1013C16.4997 23.1876 16.4771 23.2122 16.4386 23.2394C16.4019 23.2654 16.3638 23.2844 16.2793 23.1899C16.1925 23.0953 16.1239 22.9166 16.1704 22.8988Z" fill="#065F46"/>
<path d="M17.1632 22.8291C17.1964 22.8023 17.3819 22.8872 17.5019 22.9281C17.6205 22.9721 17.6183 23.0011 17.6023 23.042C17.5882 23.0796 17.5656 23.1154 17.4266 23.0636C17.2832 23.0138 17.1256 22.86 17.1632 22.8291Z" fill="#065F46"/>
<path d="M17.2075 21.8149C17.2425 21.7862 17.3943 21.8979 17.4718 21.9843C17.5493 22.0703 17.5196 22.0926 17.4775 22.1142C17.4359 22.1362 17.3983 22.1492 17.3262 22.0699C17.2549 21.9913 17.1721 21.8436 17.2075 21.8149Z" fill="#065F46"/>
<path d="M16.1515 22.0213C16.1953 22.009 16.3042 22.1143 16.379 22.1694C16.4521 22.2271 16.4384 22.2532 16.4083 22.2878C16.3808 22.3198 16.348 22.3492 16.2542 22.2755C16.1559 22.2014 16.101 22.0358 16.1515 22.0213Z" fill="#065F46"/>
<path d="M15.3487 22.3595C15.3894 22.3364 15.5417 22.4351 15.617 22.5103C15.6931 22.5858 15.6692 22.6138 15.6342 22.6432C15.5997 22.6722 15.5669 22.6916 15.485 22.6112C15.4031 22.5296 15.308 22.383 15.3487 22.3595Z" fill="#065F46"/>
<path d="M14.2009 22.9291C14.2213 22.8915 14.5019 22.9615 14.6706 23.0259C14.8388 23.0903 14.8322 23.1242 14.8114 23.1618C14.7915 23.1998 14.7658 23.2266 14.5967 23.1622C14.4285 23.0978 14.181 22.9664 14.2009 22.9291Z" fill="#065F46"/>
<path d="M13.9498 21.8929C13.9901 21.8787 14.1534 22.0343 14.2796 22.1051C14.4013 22.1795 14.3965 22.2056 14.3726 22.2439C14.3518 22.2782 14.3186 22.3132 14.1712 22.2231C14.0158 22.1341 13.8985 21.9111 13.9498 21.8929Z" fill="#065F46"/>
<path d="M14.635 21.4299C14.6713 21.4094 14.8506 21.5133 14.9772 21.5472C15.1007 21.5855 15.1042 21.6112 15.0945 21.6544C15.0865 21.6916 15.0675 21.734 14.9104 21.6857C14.7444 21.6391 14.5881 21.4563 14.635 21.4299Z" fill="#065F46"/>
<path d="M15.1251 21.0181C15.1596 20.9887 15.2902 21.0501 15.3553 21.1049C15.4208 21.1592 15.3964 21.1856 15.3614 21.2154C15.3274 21.2445 15.2955 21.2657 15.23 21.211C15.1649 21.1566 15.0905 21.0475 15.1251 21.0181Z" fill="#065F46"/>
<path d="M15.7133 20.9763C15.7496 20.9517 15.9192 21.0493 16.029 21.1021C16.137 21.1576 16.129 21.1863 16.1069 21.2246C16.0865 21.2604 16.059 21.2927 15.9338 21.2287C15.8041 21.165 15.6722 21.0035 15.7133 20.9763Z" fill="#065F46"/>
<path d="M17.7113 19.6752C17.741 19.6994 17.6316 19.9116 17.6268 20.0538C17.6139 20.1934 17.59 20.2057 17.5373 20.2102C17.4935 20.2146 17.4346 20.2098 17.4501 20.0371C17.4599 19.8558 17.6688 19.6406 17.7113 19.6752Z" fill="#065F46"/>
<path d="M17.9598 18.8789C17.9983 18.9005 17.924 19.087 17.8868 19.2043C17.8465 19.3215 17.8111 19.323 17.7615 19.3145C17.715 19.3066 17.6716 19.2917 17.7164 19.1603C17.7597 19.0263 17.9164 18.8547 17.9598 18.8789Z" fill="#065F46"/>
<path d="M18.5322 20.0698C18.5606 20.0999 18.4229 20.2574 18.3476 20.3602C18.2693 20.4614 18.2348 20.454 18.19 20.4339C18.1484 20.4153 18.1121 20.3903 18.2007 20.276C18.2879 20.1584 18.4995 20.0352 18.5322 20.0698Z" fill="#065F46"/>
<path d="M18.565 19.2898C18.5996 19.3162 18.4982 19.4789 18.4358 19.5794C18.3703 19.6792 18.3349 19.6725 18.2893 19.6543C18.2459 19.6371 18.2091 19.6156 18.2809 19.5057C18.3512 19.3937 18.5265 19.2608 18.565 19.2898Z" fill="#065F46"/>
<path d="M19.4079 19.5167C19.446 19.5398 19.3774 19.6988 19.3353 19.7967C19.2906 19.8946 19.2543 19.892 19.207 19.8793C19.1614 19.8678 19.1206 19.851 19.1702 19.7416C19.2185 19.6295 19.3663 19.4914 19.4079 19.5167Z" fill="#065F46"/>
<path d="M19.5081 18.7815C19.5355 18.8139 19.3917 18.9565 19.3053 19.0462C19.2164 19.1352 19.1836 19.1232 19.1425 19.0983C19.1039 19.0748 19.0725 19.0473 19.1708 18.9483C19.2682 18.8474 19.4784 18.7461 19.5081 18.7815Z" fill="#065F46"/>
<path d="M19.0924 18.2459C19.1309 18.2713 19.022 18.4451 18.9322 18.5426C18.8432 18.6402 18.8069 18.6253 18.7675 18.6003C18.7285 18.575 18.702 18.5497 18.7914 18.4518C18.8817 18.3535 19.0539 18.2206 19.0924 18.2459Z" fill="#065F46"/>
<path d="M18.3253 18.0131C18.3687 18.0325 18.301 18.213 18.235 18.3176C18.1691 18.423 18.1305 18.4133 18.0872 18.394C18.0438 18.3746 18.0119 18.3534 18.0779 18.2484C18.1434 18.1434 18.2819 17.9941 18.3253 18.0131Z" fill="#065F46"/>
<path d="M18.9496 17.0518C18.9677 17.086 18.8292 17.2074 18.7703 17.2967C18.707 17.3827 18.6755 17.3794 18.6277 17.3626C18.5852 17.3481 18.541 17.3247 18.622 17.2141C18.703 17.0968 18.9265 17.0093 18.9496 17.0518Z" fill="#065F46"/>
<path d="M19.6752 17.2798C19.7 17.3136 19.5534 17.4428 19.4627 17.5225C19.3697 17.601 19.3374 17.5861 19.2998 17.5578C19.2639 17.5314 19.2361 17.502 19.3383 17.4156C19.4401 17.327 19.6482 17.2433 19.6752 17.2798Z" fill="#065F46"/>
<path d="M20.1631 17.7615C20.1795 17.7969 19.9599 17.9328 19.8408 18.0336C19.7182 18.1319 19.6877 18.1211 19.6487 18.0932C19.6133 18.0679 19.5828 18.0344 19.7209 17.9238C19.8594 17.8077 20.1432 17.7195 20.1631 17.7615Z" fill="#065F46"/>
<path d="M20.7168 17.2634C20.7415 17.2988 20.6366 17.4008 20.5565 17.4473C20.4759 17.4939 20.4472 17.4701 20.4171 17.4373C20.387 17.4045 20.367 17.3755 20.452 17.3264C20.5379 17.2765 20.692 17.2284 20.7168 17.2634Z" fill="#065F46"/>
<path d="M20.8867 18.3277C20.9111 18.3634 20.7189 18.4952 20.5835 18.5611C20.448 18.6266 20.421 18.601 20.3967 18.5652C20.3723 18.5295 20.3595 18.4967 20.4949 18.4316C20.6304 18.3657 20.8624 18.292 20.8867 18.3277Z" fill="#065F46"/>
<path d="M20.4813 19.0194C20.5088 19.054 20.3835 19.1873 20.2892 19.2539C20.1945 19.3213 20.1609 19.3016 20.1259 19.2722C20.0914 19.2431 20.0683 19.2156 20.1697 19.1434C20.272 19.0704 20.4543 18.9848 20.4813 19.0194Z" fill="#065F46"/>
<path d="M16.7925 16.9401C16.8315 16.9189 16.9696 17.0078 17.0555 17.0596C17.14 17.1132 17.1263 17.1415 17.0998 17.1772C17.075 17.2115 17.0453 17.2405 16.9457 17.1769C16.8417 17.1132 16.7492 16.9643 16.7925 16.9401Z" fill="#065F46"/>
<path d="M17.4635 16.488C17.5034 16.4694 17.6468 16.5759 17.7446 16.6287C17.8402 16.6846 17.8314 16.7121 17.8075 16.7501C17.7858 16.7851 17.757 16.8178 17.6393 16.749C17.5171 16.6808 17.4166 16.5092 17.4635 16.488Z" fill="#065F46"/>
<path d="M16.7391 16.4045C16.7759 16.3818 16.9268 16.4625 17.0247 16.5009C17.1212 16.5422 17.1167 16.5709 17.099 16.6111C17.0831 16.6483 17.0605 16.6837 16.9406 16.6323C16.8148 16.5817 16.6966 16.4313 16.7391 16.4045Z" fill="#065F46"/>
<path d="M16.9853 15.7045C17.0278 15.6885 17.1509 15.8065 17.2279 15.8768C17.3031 15.9491 17.2837 15.9748 17.2483 16.0049C17.2151 16.0339 17.1783 16.057 17.092 15.9733C17.0026 15.8902 16.9379 15.7223 16.9853 15.7045Z" fill="#065F46"/>
<path d="M16.3716 15.7519C16.4035 15.7206 16.5743 15.7999 16.6668 15.8666C16.7594 15.9336 16.7385 15.9622 16.7067 15.9939C16.6748 16.0252 16.6438 16.0471 16.5513 15.9801C16.4588 15.9135 16.3397 15.7832 16.3716 15.7519Z" fill="#065F46"/>
<path d="M15.984 16.3478C16.0145 16.3184 16.1694 16.3623 16.2651 16.3787C16.3607 16.3984 16.3633 16.4271 16.3576 16.4695C16.3527 16.5086 16.3412 16.5477 16.2186 16.5228C16.092 16.5 15.949 16.3813 15.984 16.3478Z" fill="#065F46"/>
<path d="M11.998 29.4661L12.3588 38.5716C12.3827 39.1773 12.9736 39.6582 13.6947 39.6582H21.9828C22.7039 39.6582 23.2949 39.1776 23.3188 38.5716L23.6795 29.4661H11.998Z" fill="#713F12"/>
<path d="M24.4202 28.3905H11.0888V29.9757H24.4202V28.3905Z" fill="#A16207"/>
<mask id="mask0_621_3026" style="mask-type:luminance" maskUnits="userSpaceOnUse" x="11" y="29" width="13" height="11">
<path d="M11.998 29.4661L12.3588 38.5716C12.3827 39.1773 12.9736 39.6582 13.6947 39.6582H21.9828C22.7039 39.6582 23.2949 39.1776 23.3188 38.5716L23.6795 29.4661H11.998Z" fill="white"/>
</mask>
<g mask="url(#mask0_621_3026)">
<path d="M25.8004 33.0758C25.0425 33.0758 24.665 32.6719 24.3316 32.3152C24.0315 31.994 23.7717 31.7166 23.2595 31.7166C22.7469 31.7166 22.4879 31.994 22.1878 32.3149C21.8545 32.6715 21.4769 33.0758 20.7186 33.0758C19.9612 33.0758 19.5836 32.6719 19.2507 32.3152C18.9506 31.994 18.6916 31.7166 18.179 31.7166C17.6659 31.7166 17.4065 31.994 17.106 32.3152C16.7731 32.6715 16.3951 33.0758 15.6372 33.0758C14.8785 33.0758 14.5004 32.6719 14.1667 32.3152C13.8661 31.994 13.6062 31.7166 13.0932 31.7166C12.5801 31.7166 12.3203 31.994 12.0197 32.3152C11.6855 32.6715 11.3079 33.0758 10.5496 33.0758C10.4102 33.0758 10.2973 32.9805 10.2973 32.8636C10.2973 32.7464 10.4106 32.6514 10.5496 32.6514C11.0627 32.6514 11.3221 32.3741 11.6227 32.0528C11.9564 31.6965 12.3345 31.2922 13.0932 31.2922C13.8519 31.2922 14.23 31.6962 14.5637 32.0528C14.8643 32.3741 15.1242 32.6514 15.6372 32.6514C16.1498 32.6514 16.4092 32.3741 16.7093 32.0532C17.0427 31.6965 17.4207 31.2922 18.179 31.2922C18.9368 31.2922 19.3144 31.6962 19.6473 32.0532C19.9475 32.3741 20.2064 32.6514 20.7186 32.6514C21.2316 32.6514 21.4906 32.3741 21.7907 32.0528C22.124 31.6965 22.5016 31.2922 23.2595 31.2922C24.0173 31.2922 24.3945 31.6962 24.7283 32.0528C25.0284 32.3741 25.2878 32.6514 25.8 32.6514C25.9394 32.6514 26.0523 32.7467 26.0523 32.8636C26.0532 32.9809 25.9398 33.0758 25.8004 33.0758Z" fill="#422006"/>
<path d="M25.6323 34.9726C24.9045 34.9726 24.5349 34.6524 24.2091 34.3702C23.9156 34.1163 23.6624 33.8967 23.1485 33.8967C22.6336 33.8967 22.3804 34.1163 22.087 34.3706C21.7611 34.6528 21.3915 34.9729 20.6633 34.9729C19.9351 34.9729 19.5664 34.6528 19.2402 34.3706C18.9467 34.1167 18.6939 33.8971 18.1795 33.8971C17.6647 33.8971 17.4111 34.1167 17.1176 34.371C16.7913 34.6532 16.4217 34.9733 15.6939 34.9733C14.9653 34.9733 14.5952 34.6535 14.269 34.371C13.9751 34.1167 13.7214 33.8971 13.2062 33.8971C12.6913 33.8971 12.4377 34.1167 12.1438 34.3706C11.8175 34.6528 11.4474 34.9729 10.7188 34.9729C10.5794 34.9729 10.4665 34.8776 10.4665 34.7607C10.4665 34.6435 10.5798 34.5485 10.7188 34.5485C11.2341 34.5485 11.4877 34.3293 11.7817 34.0746C12.1079 33.7925 12.4775 33.4723 13.2062 33.4723C13.9348 33.4723 14.3049 33.7921 14.6311 34.0746C14.925 34.3293 15.1787 34.5485 15.6939 34.5485C16.2083 34.5485 16.462 34.3293 16.7555 34.075C17.0817 33.7928 17.4513 33.4727 18.1795 33.4727C18.9068 33.4727 19.2765 33.7928 19.6023 34.075C19.8957 34.3293 20.149 34.5485 20.6633 34.5485C21.1777 34.5485 21.4309 34.3293 21.7244 34.075C22.0502 33.7928 22.4198 33.4727 23.148 33.4727C23.8758 33.4727 24.245 33.7928 24.5712 34.075C24.8647 34.3296 25.1179 34.5489 25.6323 34.5489C25.7717 34.5489 25.8846 34.6442 25.8846 34.7611C25.8846 34.8776 25.7713 34.9726 25.6323 34.9726Z" fill="#422006"/>
<path d="M25.2396 37.0396C24.5446 37.0396 24.1922 36.7347 23.8815 36.4656C23.5942 36.2169 23.3676 36.0203 22.8859 36.0203C22.4043 36.0203 22.1772 36.2169 21.8904 36.4656C21.5792 36.7347 21.2277 37.0396 20.5323 37.0396C19.8373 37.0396 19.4854 36.7347 19.1746 36.4656C18.8873 36.2169 18.6607 36.0203 18.1791 36.0203C17.6974 36.0203 17.4699 36.2169 17.1831 36.4656C16.8723 36.7347 16.5199 37.0396 15.8249 37.0396C15.1291 37.0396 14.7767 36.7347 14.4655 36.4656C14.1778 36.2169 13.9507 36.0203 13.4682 36.0203C12.9861 36.0203 12.759 36.2169 12.4713 36.4656C12.1606 36.7347 11.8078 37.0396 11.1119 37.0396C10.9729 37.0396 10.8596 36.9443 10.8596 36.8274C10.8596 36.7105 10.9729 36.6152 11.1119 36.6152C11.5944 36.6152 11.8215 36.4187 12.1092 36.17C12.42 35.9008 12.7728 35.5959 13.4682 35.5959C14.1641 35.5959 14.5164 35.9008 14.8276 36.17C15.1154 36.4187 15.3424 36.6152 15.8249 36.6152C16.3066 36.6152 16.5341 36.4187 16.8209 36.17C17.1317 35.9008 17.4841 35.5959 18.1791 35.5959C18.8745 35.5959 19.2264 35.9008 19.5372 36.17C19.8245 36.4187 20.0511 36.6152 20.5327 36.6152C21.0148 36.6152 21.2419 36.4187 21.5283 36.17C21.839 35.9008 22.1914 35.5959 22.8868 35.5959C23.5818 35.5959 23.9342 35.9008 24.2449 36.17C24.5322 36.4187 24.7589 36.6152 25.2405 36.6152C25.3799 36.6152 25.4928 36.7105 25.4928 36.8274C25.4919 36.9443 25.379 37.0396 25.2396 37.0396Z" fill="#422006"/>
</g>
<path d="M22.7031 32.6443C22.7031 32.6443 19.4088 32.1987 19.3521 32.9842C19.2954 33.7701 21.4822 33.5579 22.476 33.6212" fill="#F87171"/>
<path d="M22.5044 34.6618C22.5044 34.6618 19.9768 34.8952 19.4939 34.4712C19.0866 34.113 19.2384 33.5367 20.4026 33.4727C21.5673 33.4091 22.504 33.4091 22.504 33.4091" fill="#F87171"/>
<path d="M26.0612 34.0239C26.0612 33.5359 25.4551 32.6651 24.395 32.0922C23.3343 31.5185 22.4503 31.4336 20.9355 31.4128C19.4211 31.3912 19.3707 32.2195 19.6226 32.4321C19.8749 32.6443 22.0466 32.5169 22.1475 32.7079C22.2485 32.8989 22.4255 34.64 22.1475 34.6613C21.8704 34.6825 19.4716 34.385 19.5221 35.0652C19.5725 35.7442 20.0524 35.7442 21.0621 35.8079C22.0718 35.8715 22.4503 35.7867 22.804 36.0629C23.1577 36.3387 25.0514 37.0613 25.8341 36.0417C26.6167 35.0224 26.0612 34.0239 26.0612 34.0239Z" fill="#F87171"/>
<path d="M11.3417 35.7862C10.7862 35.7862 10.5591 35.7229 10.6096 35.2133C10.66 34.7033 11.2156 34.7457 11.7964 34.7457C12.3771 34.7457 13.4626 34.682 13.5383 35.1917C13.6144 35.7013 13.1093 35.7862 12.4528 35.7862H11.3417Z" fill="#F87171"/>
<path d="M11.147 34.7697C10.5383 34.7798 10.2878 34.7194 10.3311 34.2038C10.375 33.6882 10.9845 33.721 11.6206 33.7109C12.2576 33.7005 13.4457 33.6171 13.5405 34.1301C13.6352 34.6439 13.0841 34.7384 12.3643 34.75C11.645 34.7619 11.147 34.7697 11.147 34.7697Z" fill="#F87171"/>
<path d="M11.1192 33.7714C10.4937 33.7815 10.2357 33.7145 10.2799 33.1427C10.3237 32.5712 10.9506 32.6084 11.6048 32.598C12.2586 32.5876 13.48 32.496 13.5782 33.0656C13.6769 33.6348 13.1099 33.7394 12.3706 33.7513C11.6309 33.7632 11.1192 33.7714 11.1192 33.7714Z" fill="#F87171"/>
<path d="M11.1192 32.7311C10.4937 32.7412 10.2357 32.6742 10.2799 32.1024C10.3237 31.5306 10.9506 31.5681 11.6048 31.5577C12.2586 31.5473 13.48 31.4557 13.5782 32.0253C13.6769 32.5945 13.1099 32.6991 12.3706 32.711C11.6309 32.7226 11.1192 32.7311 11.1192 32.7311Z" fill="#F87171"/>
<path d="M39.2159 24.9789C38.9383 25.7432 36.2872 32.793 35.984 32.8991C35.6812 33.0052 25.8588 33.1538 25.7075 33.1538C25.5561 33.1538 25.4047 36.1052 25.5561 36.2541C25.7074 36.4022 34.4692 36.4238 36.1354 36.3814C37.802 36.3389 39.1145 36.6144 40.8564 32.4952C42.5992 28.376 45.3765 22.6005 40.7307 21.5812L39.2159 24.9789Z" fill="#059669"/>
<path d="M42.1276 22.1656C42.746 23.7445 41.8828 25.677 41.4849 27.2145C40.9094 29.4373 40.5641 32.2208 38.4167 33.8369C36.4017 35.3528 33.5589 35.6517 30.9512 35.406C29.1252 35.2333 26.9835 34.8632 25.5821 33.7728C25.4931 34.6462 25.4492 36.1498 25.5559 36.2548C25.7073 36.403 34.469 36.4246 36.1352 36.3821C37.8019 36.3397 39.1144 36.6152 40.8563 32.4959C42.3835 28.8856 44.7053 24.0032 42.1276 22.1656Z" fill="#047857"/>
</svg>
