<svg width="24" height="25" viewBox="0 0 24 25" fill="none" xmlns="http://www.w3.org/2000/svg">
<path d="M8.12 10.2277C9.22457 10.2277 10.12 9.33227 10.12 8.22771C10.12 7.12314 9.22457 6.22771 8.12 6.22771C7.01543 6.22771 6.12 7.12314 6.12 8.22771C6.12 9.33227 7.01543 10.2277 8.12 10.2277Z" fill="#030712"/>
<path fill-rule="evenodd" clip-rule="evenodd" d="M14.24 2.14771H10C5.58172 2.14771 2 5.72943 2 10.1477V14.3877C2 18.806 5.58172 22.3877 10 22.3877H14.24C18.6583 22.3877 22.24 18.806 22.24 14.3877V10.1477C22.24 8.02597 21.3971 5.99114 19.8969 4.49085C18.3966 2.99056 16.3617 2.14771 14.24 2.14771ZM10 3.64771H14.24C17.4859 3.65278 20.2306 6.05166 20.67 9.2677H19.12C14.9468 9.27111 11.0879 11.4859 8.98 15.0877C7.66362 14.042 6.03116 13.4744 4.35 13.4777H3.5V10.1477C3.50551 6.56014 6.41243 3.65321 10 3.64771ZM4.35 14.9777H3.53C3.74723 17.336 5.22988 19.3895 7.4 20.3377C7.47167 19.0029 7.77274 17.6903 8.29 16.4577C7.19845 15.5048 5.79895 14.9791 4.35 14.9777ZM14.24 20.8877H10C9.62404 20.8862 9.24906 20.8494 8.88 20.7777C9.00486 15.209 13.55 10.7572 19.12 10.7477H20.74V14.3877C20.7345 17.9753 17.8276 20.8822 14.24 20.8877Z" fill="#030712"/>
<path fill-rule="evenodd" clip-rule="evenodd" d="M17.72 13.0002H18.28C20.8868 13.0002 23 15.1135 23 17.7202V18.2802C23 20.887 20.8868 23.0002 18.28 23.0002H17.72C15.1132 23.0002 13 20.887 13 18.2802V17.7202C13 15.1135 15.1132 13.0002 17.72 13.0002ZM18.375 18.3752H20C20.2071 18.3752 20.375 18.2074 20.375 18.0002C20.375 17.7931 20.2071 17.6252 20 17.6252H18.375V16.0002C18.375 15.7931 18.2071 15.6252 18 15.6252C17.7929 15.6252 17.625 15.7931 17.625 16.0002V17.6252H16C15.7929 17.6252 15.625 17.7931 15.625 18.0002C15.625 18.2074 15.7929 18.3752 16 18.3752H17.625V20.0002C17.625 20.2074 17.7929 20.3752 18 20.3752C18.2071 20.3752 18.375 20.2074 18.375 20.0002V18.3752Z" fill="#030712"/>
</svg>
