<svg width="16" height="16" viewBox="0 0 16 16" fill="none" xmlns="http://www.w3.org/2000/svg">
<g id="Interface essential/Calendar">
<g id="Icon">
<path d="M11.0002 5.44008H5.00016C4.72402 5.44008 4.50016 5.66394 4.50016 5.94008C4.50016 6.21622 4.72402 6.44008 5.00016 6.44008H11.0002C11.2763 6.44008 11.5002 6.21622 11.5002 5.94008C11.5002 5.66394 11.2763 5.44008 11.0002 5.44008Z" fill="#030712"/>
<path fill-rule="evenodd" clip-rule="evenodd" d="M11.2602 2.38008H11.3335C13.1744 2.38008 14.6668 3.87247 14.6668 5.71341V11.7134C14.6668 13.5544 13.1744 15.0467 11.3335 15.0467H4.66683C3.78277 15.0467 2.93493 14.6956 2.30981 14.0704C1.68469 13.4453 1.3335 12.5975 1.3335 11.7134V5.71341C1.3335 3.87247 2.82588 2.38008 4.66683 2.38008H4.72683V1.16675C4.72683 0.890606 4.95069 0.666748 5.22683 0.666748C5.50297 0.666748 5.72683 0.890606 5.72683 1.16675V2.38008H10.2602V1.16675C10.2602 0.890606 10.484 0.666748 10.7602 0.666748C11.0363 0.666748 11.2602 0.890606 11.2602 1.16675V2.38008ZM11.3335 14.0467C12.6222 14.0467 13.6668 13.0021 13.6668 11.7134V5.71341C13.6668 4.42475 12.6222 3.38008 11.3335 3.38008H4.66683C3.37817 3.38008 2.3335 4.42475 2.3335 5.71341V11.7134C2.3335 13.0021 3.37817 14.0467 4.66683 14.0467H11.3335Z" fill="#030712"/>
</g>
</g>
</svg>
