<svg width="150" height="150" viewBox="0 0 150 150" fill="none" xmlns="http://www.w3.org/2000/svg">
<g clip-path="url(#clip0_1555_1939)">
<path d="M128.603 134.208H142.011V130.277H128.603V134.208Z" fill="#EBEBEB"/>
<path d="M136.085 139.161C138.312 139.129 144.021 139.041 146.168 139.017H149.493L149.317 139.175V135.244L149.508 135.42C147.281 135.42 141.603 135.395 139.452 135.367L136.1 135.328L136.192 135.244L136.1 139.175L136.085 139.161ZM136.085 139.161L135.993 135.23V135.149H136.085C137.755 135.128 141.115 135.093 142.789 135.079L149.485 135.054H149.676V135.23V139.161V139.322H149.485H146.103C143.967 139.301 138.281 139.21 136.077 139.175L136.085 139.161Z" fill="#EBEBEB"/>
<path d="M85.4658 70.9835C87.6928 70.9484 93.4015 70.8606 95.5484 70.8395L98.8699 70.8219L98.6983 70.9835L98.6792 67.0531L98.8699 67.2287C96.6467 67.2287 90.9685 67.2041 88.8178 67.176L85.4658 67.1374L85.5535 67.0531L85.4658 70.9835ZM85.4658 70.9835L85.3743 67.0531V66.9688H85.4696C87.1399 66.9477 90.4995 66.9126 92.1736 66.902L98.8737 66.8774H99.0682V67.0531V70.9835V71.1451H98.8928H95.5141C93.3786 71.124 87.6928 71.0362 85.4887 71.0011L85.4658 70.9835Z" fill="#EBEBEB"/>
<path d="M92.9441 75.9395C95.1711 75.9044 100.88 75.8166 103.03 75.7955H106.352L106.177 75.9571V72.0267L106.367 72.2023C104.14 72.2023 98.462 72.1777 96.3113 72.1496L92.9593 72.111L93.047 72.0056L92.9555 75.936L92.9441 75.9395ZM92.9441 75.9395L92.8525 72.0056V71.9213H92.9441C94.6143 71.9002 97.9739 71.8651 99.648 71.8545L106.352 71.83H106.543V72.0056L106.524 75.936V76.0976H106.352H102.969C100.834 76.0765 95.1482 75.9887 92.9441 75.9536V75.9395Z" fill="#EBEBEB"/>
<path d="M100.391 70.9835H113.799V67.0531H100.391V70.9835Z" fill="#EBEBEB"/>
<path d="M0.511039 139.164H13.9189V135.234H0.511039V139.164Z" fill="#EBEBEB"/>
<path d="M7.98516 7.25317L21.3931 7.25317V3.32272L7.98516 3.32272V7.25317Z" fill="#EBEBEB"/>
<path d="M0.507142 12.2058C2.73417 12.1707 8.44664 12.0829 10.5936 12.0618H13.915L13.7434 12.2199V8.28941L13.9341 8.46503C11.7071 8.46503 6.02894 8.44044 3.87819 8.41234L0.507142 8.35965L0.598663 8.27535L0.507142 12.2058ZM0.507142 12.2058L0.419434 8.27535V8.19457H0.510955C2.18504 8.17349 5.54464 8.13837 7.21491 8.12432L13.9189 8.09973H14.1095V8.27535V12.2058V12.3674H13.9341H10.5516C8.41613 12.3428 2.73417 12.255 0.526209 12.2199L0.507142 12.2058Z" fill="#EBEBEB"/>
<path d="M128.607 7.24965C130.834 7.21452 136.542 7.12671 138.689 7.10564H142.011L141.839 7.2637L141.82 3.31919L142.011 3.49482L135.307 3.47023C133.64 3.47023 130.273 3.42457 128.607 3.40349L128.695 3.31919L128.607 7.24965ZM128.607 7.24965L128.511 3.31919V3.23841H128.607C130.277 3.21733 133.637 3.18221 135.307 3.16816L142.011 3.16113H142.205V3.33676V7.26721V7.42878H142.03H138.651C136.512 7.4042 130.83 7.31638 128.626 7.28126L128.607 7.24965Z" fill="#EBEBEB"/>
<path d="M47.1603 18.0049H16.2832V52.5008H47.1603V18.0049Z" fill="#EBEBEB"/>
<path d="M43.629 21.1555H19.8105V49.3571H43.629V21.1555Z" fill="white"/>
<path d="M20.741 21.1555H19.8105V49.3571H20.741V21.1555Z" fill="#DBDBDB"/>
<path d="M48.0909 18.0049H47.1604V52.5008H48.0909V18.0049Z" fill="#DBDBDB"/>
<path d="M33.413 25.0438H27.7959V40.4565H33.413V25.0438Z" fill="#DBDBDB"/>
<path d="M40.319 35.5356H25.3438V43.0875H40.319V35.5356Z" stroke="#EBEBEB" stroke-miterlimit="10"/>
<path d="M132.786 18.0049H101.909V52.5008H132.786V18.0049Z" fill="#EBEBEB"/>
<path d="M129.259 21.1555H105.44V49.3571H129.259V21.1555Z" fill="white"/>
<path d="M106.371 21.1555H105.44V49.3571H106.371V21.1555Z" fill="#DBDBDB"/>
<path d="M133.717 18.0049H132.786V52.5008H133.717V18.0049Z" fill="#DBDBDB"/>
<path d="M119.039 25.0438H113.422V40.4565H119.039V25.0438Z" fill="#DBDBDB"/>
<path d="M125.945 35.5356H110.97V43.0875H125.945V35.5356Z" stroke="#EBEBEB" stroke-miterlimit="10"/>
<path d="M89.9733 26.3048H59.0962V60.8008H89.9733V26.3048Z" fill="#EBEBEB"/>
<path d="M86.442 29.4556H62.6235V57.6572H86.442V29.4556Z" fill="white"/>
<path d="M63.554 29.4556H62.6235V57.6572H63.554V29.4556Z" fill="#DBDBDB"/>
<path d="M90.9039 26.3048H89.9734V60.8008H90.9039V26.3048Z" fill="#DBDBDB"/>
<path d="M77.042 36.7439H72.2295V47.9487H77.042V36.7439Z" fill="#EBEBEB"/>
<path d="M82.11 43.5546H69.1826V51.2785H82.11V43.5546Z" stroke="#DBDBDB" stroke-miterlimit="10"/>
<path d="M125.411 121.205L123.123 125.673C122.907 126.123 122.595 126.528 122.204 126.864C121.813 127.2 121.352 127.459 120.85 127.626C120.347 127.793 119.813 127.864 119.279 127.835C118.746 127.806 118.224 127.677 117.746 127.457C116.778 127.035 116.03 126.277 115.667 125.349C115.304 124.421 115.355 123.398 115.809 122.504L119.458 115.36C119.493 115.29 119.569 115.321 119.603 115.255C119.565 115.153 119.565 115.153 119.603 115.082C120.082 114.209 120.905 113.538 121.905 113.206C122.904 112.875 124.003 112.909 124.976 113.302C126.077 113.798 127.273 114.088 128.496 114.154C129.72 114.22 130.945 114.062 132.101 113.688C133.257 113.314 134.32 112.731 135.23 111.975C136.139 111.218 136.876 110.303 137.397 109.282C137.918 108.26 138.214 107.154 138.266 106.026C138.319 104.899 138.127 103.773 137.703 102.714C137.278 101.656 136.629 100.685 135.794 99.8598C134.958 99.0344 133.953 98.3704 132.836 97.9065C131.39 97.2725 129.788 97.0014 128.191 97.1204C126.595 97.2395 125.061 97.7445 123.745 98.5844C123.302 98.8719 122.802 99.0752 122.273 99.1825C121.745 99.2897 121.198 99.2988 120.665 99.2092C120.133 99.1196 119.625 98.9331 119.171 98.6606C118.718 98.388 118.328 98.0349 118.025 97.622C117.727 97.2185 117.519 96.7649 117.412 96.2872C117.306 95.8095 117.303 95.3171 117.403 94.8383C117.504 94.3595 117.706 93.9037 117.999 93.4971C118.291 93.0906 118.668 92.7412 119.108 92.4692C121.467 90.9633 124.196 90.021 127.049 89.7269C129.902 89.4327 132.789 89.796 135.452 90.7841C138.114 91.7722 140.469 93.3541 142.303 95.3877C144.138 97.4213 145.396 99.8428 145.963 102.435C146.53 105.027 146.389 107.708 145.553 110.237C144.717 112.767 143.212 115.065 141.172 116.926C139.133 118.787 136.624 120.153 133.87 120.899C131.117 121.646 128.205 121.751 125.396 121.205H125.411ZM117.727 136.256L117.094 137.496C116.878 137.944 116.566 138.348 116.177 138.682C115.787 139.017 115.328 139.275 114.827 139.442C114.326 139.609 113.793 139.68 113.262 139.652C112.73 139.624 112.21 139.498 111.732 139.28C110.763 138.859 110.015 138.101 109.652 137.173C109.289 136.244 109.34 135.221 109.795 134.327L110.424 133.091C110.893 132.208 111.716 131.528 112.72 131.195C113.724 130.862 114.829 130.902 115.801 131.307C116.285 131.511 116.719 131.802 117.078 132.163C117.437 132.524 117.715 132.947 117.894 133.408C118.074 133.869 118.151 134.358 118.123 134.847C118.094 135.336 117.959 135.815 117.727 136.256Z" fill="#EBEBEB"/>
<path d="M12.0923 102.399L9.91487 97.896C9.68414 97.4523 9.55365 96.9701 9.53134 96.4786C9.50902 95.9871 9.59533 95.4966 9.78504 95.0368C9.97475 94.5769 10.2639 94.1574 10.635 93.8036C11.006 93.4497 11.4512 93.1691 11.9436 92.9785C12.9208 92.5761 14.0314 92.5468 15.032 92.8971C16.0327 93.2473 16.8418 93.9485 17.2824 94.8471L20.7945 102.055C20.8288 102.121 20.7525 102.153 20.7945 102.223C20.9013 102.262 20.9013 102.262 20.9356 102.329C21.3423 103.232 21.3583 104.245 20.9804 105.16C20.6025 106.074 19.8593 106.82 18.9031 107.246C17.7726 107.689 16.7494 108.335 15.8934 109.147C15.0374 109.958 14.3657 110.919 13.9178 111.972C13.4698 113.026 13.2544 114.151 13.2844 115.282C13.3144 116.413 13.589 117.528 14.0922 118.56C14.5955 119.592 15.3172 120.521 16.2151 121.293C17.1131 122.066 18.1693 122.665 19.3218 123.056C20.4743 123.448 21.7001 123.624 22.9273 123.574C24.1545 123.523 25.3585 123.248 26.4688 122.764C27.9327 122.166 29.1994 121.222 30.1413 120.029C31.0833 118.836 31.6672 117.435 31.8343 115.968C31.886 115.473 32.0442 114.993 32.2995 114.555C32.5548 114.117 32.9022 113.731 33.3213 113.418C33.7405 113.105 34.2232 112.872 34.7411 112.733C35.259 112.593 35.8018 112.55 36.3379 112.606C36.8643 112.661 37.3738 112.811 37.8372 113.047C38.3005 113.283 38.7085 113.602 39.0377 113.984C39.367 114.366 39.6109 114.805 39.7555 115.274C39.9002 115.744 39.9427 116.235 39.8806 116.719C39.5836 119.349 38.5821 121.87 36.966 124.055C35.3499 126.24 33.1698 128.021 30.6216 129.238C28.0733 130.454 25.2368 131.069 22.3668 131.027C19.4968 130.984 16.6832 130.286 14.1788 128.994C11.6743 127.702 9.55755 125.857 8.01855 123.626C6.47956 121.394 5.56657 118.845 5.3616 116.208C5.15662 113.571 5.6661 110.928 6.84424 108.517C8.02239 106.106 9.8323 104.003 12.1114 102.395L12.0923 102.399ZM4.69814 87.2251L4.09181 85.9782C3.86108 85.5345 3.7306 85.0523 3.70828 84.5608C3.68596 84.0693 3.77228 83.5788 3.96199 83.119C4.1517 82.6591 4.44085 82.2396 4.8119 81.8857C5.18295 81.5319 5.62817 81.2512 6.12054 81.0607C7.09826 80.6585 8.20919 80.6298 9.2099 80.9807C10.2106 81.3316 11.0195 82.0336 11.4593 82.9328L12.0656 84.1798C12.4879 85.0819 12.5119 86.1001 12.1324 87.0183C11.7529 87.9364 10.9998 88.6822 10.0331 89.0972C9.55025 89.3026 9.02775 89.417 8.49625 89.4338C7.96476 89.4505 7.43498 89.3693 6.93801 89.195C6.44105 89.0206 5.98692 88.7565 5.60228 88.4182C5.21764 88.0799 4.91025 87.6743 4.69814 87.2251Z" fill="#EBEBEB"/>
<path d="M32.3681 116.53C27.4107 122.694 22.2702 129.849 21.0156 137.583C21.0156 137.699 21.2063 137.738 21.233 137.622C21.8029 135.513 22.5344 133.443 23.4219 131.43C26.6709 130.608 29.8589 129.93 31.5673 126.962C33.3062 123.906 33.0927 119.937 32.7533 116.596C32.7304 116.421 32.4673 116.41 32.3681 116.53Z" fill="#10B981"/>
<path d="M23.4676 131.366C25.6908 126.776 28.5394 122.167 32.1621 118.395C32.1646 118.392 32.1676 118.39 32.171 118.389C32.1744 118.387 32.178 118.386 32.1817 118.386C32.1855 118.386 32.1892 118.387 32.1927 118.388C32.1962 118.389 32.1994 118.391 32.2022 118.393C32.2049 118.395 32.2071 118.398 32.2087 118.401C32.2103 118.404 32.2112 118.408 32.2114 118.411C32.2116 118.415 32.211 118.418 32.2098 118.421C32.2085 118.424 32.2066 118.427 32.2041 118.43C29.8321 121.12 28.0093 124.05 26.2666 127.025C27.9064 125.493 29.6987 124.124 31.2469 122.501C31.2774 122.469 31.327 122.501 31.2965 122.547C29.7711 124.247 28.078 126.098 26.0721 127.355C25.5332 128.268 24.9904 129.184 24.4438 130.102C24.5773 130.035 24.7146 129.972 24.8556 129.909C24.8588 129.911 24.8614 129.913 24.8632 129.916C24.8649 129.919 24.8659 129.923 24.8659 129.926C24.8659 129.93 24.8649 129.933 24.8632 129.936C24.8614 129.939 24.8588 129.942 24.8556 129.944C24.7031 130.014 24.5506 130.088 24.3942 130.151C24.1349 130.583 23.8756 131.019 23.6087 131.451C23.5667 131.556 23.4218 131.472 23.4676 131.366Z" fill="#030712"/>
<path d="M25.1226 129.772C26.4578 129.087 27.7328 128.307 28.936 127.439C28.9665 127.415 29.0122 127.457 28.9817 127.481C27.8144 128.406 26.5348 129.203 25.1683 129.856C25.157 129.858 25.1454 129.856 25.1351 129.851C25.1248 129.847 25.1165 129.839 25.1113 129.829C25.1062 129.82 25.1045 129.809 25.1065 129.799C25.1086 129.788 25.1142 129.779 25.1226 129.772Z" fill="#030712"/>
<path d="M20.4437 136.435C20.4437 136.526 20.6267 136.526 20.6267 136.435C20.6496 133.892 20.6267 131.331 20.6686 128.774C21.3779 127.457 22.8995 126.73 23.9558 125.673C24.7186 124.901 25.3815 124.05 25.9311 123.137C27.2035 120.962 27.982 118.572 28.2192 116.112C28.509 113.386 27.3878 104.401 26.1409 104.71C25.4964 104.872 23.4028 109.326 22.8499 110.797C21.9491 113.224 21.2905 115.721 20.8822 118.258C19.8678 124.25 19.9517 130.404 20.4437 136.435Z" fill="#10B981"/>
<path d="M20.4245 125.448C20.5771 122.223 21.3664 118.971 22.1024 115.845C22.8994 112.48 23.8261 109.308 25.7061 106.308C25.7132 106.297 25.725 106.288 25.7389 106.284C25.7529 106.281 25.7678 106.282 25.7804 106.289C25.7931 106.296 25.8024 106.306 25.8063 106.319C25.8103 106.332 25.8085 106.346 25.8014 106.357C24.5453 108.691 23.5745 111.146 22.907 113.677C23.0329 113.498 23.1854 113.326 23.3151 113.154C23.3685 113.087 23.4867 113.154 23.4371 113.221C23.2787 113.489 23.0922 113.742 22.8804 113.976H22.8575C22.2092 116.382 21.744 118.844 21.3321 121.3C21.3593 121.266 21.3886 121.235 21.4198 121.205C21.4389 121.184 21.4732 121.205 21.458 121.233C21.4122 121.314 21.355 121.394 21.3016 121.475C21.0995 122.722 20.9203 123.966 20.7296 125.198C23.1358 123.302 25.1951 121.068 26.3544 118.314C26.3544 118.314 26.381 118.314 26.3772 118.314C25.2332 121.173 23.4485 123.713 20.6915 125.444C20.6381 125.778 20.5885 126.108 20.5389 126.438C20.5389 126.509 20.4093 126.491 20.4093 126.438C20.4093 126.143 20.4093 125.852 20.436 125.557C20.4264 125.551 20.4185 125.543 20.4126 125.534C20.4067 125.525 20.4031 125.515 20.402 125.505C20.4009 125.494 20.4023 125.484 20.4062 125.474C20.4101 125.464 20.4164 125.455 20.4245 125.448Z" fill="#030712"/>
<path d="M21.5609 120.78C23.399 118.251 25.1188 115.792 26.4688 112.996C26.4688 112.964 26.5412 112.996 26.526 113.017C25.382 115.799 23.8032 118.612 21.6525 120.846C21.6477 120.852 21.6418 120.857 21.6351 120.86C21.6284 120.863 21.6211 120.866 21.6134 120.866C21.6058 120.867 21.5981 120.867 21.5907 120.865C21.5834 120.863 21.5765 120.86 21.5705 120.855C21.5645 120.851 21.5595 120.845 21.5557 120.839C21.552 120.833 21.5496 120.826 21.5487 120.819C21.5478 120.812 21.5485 120.805 21.5506 120.798C21.5527 120.792 21.5562 120.785 21.5609 120.78Z" fill="#030712"/>
<path d="M24.0243 112.371C24.787 111.127 25.5916 109.912 26.3123 108.651C26.3352 108.616 26.3848 108.651 26.3695 108.683C25.7814 110.005 25.0357 111.263 24.1463 112.434C24.0739 112.497 23.9633 112.441 24.0243 112.371Z" fill="#030712"/>
<path d="M18.5751 129.069C18.5341 130.757 18.3157 132.436 17.923 134.085C17.9535 134.268 17.9802 134.436 18.0107 134.636C18.573 132.814 18.8994 130.937 18.9831 129.045C19.0011 129.018 19.0106 128.988 19.0106 128.957C19.0106 128.926 19.0011 128.895 18.9831 128.869C19.064 126.331 18.8595 123.792 18.373 121.293C17.5417 116.614 15.6578 112.118 12.1152 108.609C12.0859 108.588 12.0518 108.572 12.0154 108.565C11.979 108.557 11.9411 108.557 11.9046 108.564C11.8681 108.572 11.8338 108.586 11.8043 108.607C11.7747 108.629 11.7507 108.656 11.7339 108.686C10.3038 112.034 10.8034 116.031 12.0199 119.371C12.6828 121.179 13.6296 122.888 14.8303 124.443C16.0354 126.02 17.5874 127.352 18.5751 129.069Z" fill="#10B981"/>
<path d="M12.5346 110.179C15.8942 115.209 18.228 121.148 18.514 127.078C18.514 127.183 18.3272 127.211 18.3119 127.106C18.2318 126.572 18.1441 126.052 18.0526 125.518C16.6645 124.292 15.2383 123 14.2392 121.468C14.2392 121.444 14.2659 121.412 14.2888 121.437C15.4412 122.739 16.6764 123.978 17.9878 125.146C17.7488 123.837 17.4615 122.549 17.1259 121.282C17.0344 121.187 16.9467 121.092 16.859 120.994C16.7713 120.896 16.8971 120.839 16.9581 120.903L17.042 120.987C16.5693 119.244 15.9822 117.529 15.2841 115.852C14.4299 114.914 13.4727 114.095 12.8511 112.968C12.8511 112.943 12.8778 112.922 12.8969 112.947C13.3964 113.593 13.8807 114.243 14.4489 114.844C14.6739 115.082 14.9256 115.307 15.1582 115.546C14.3854 113.729 13.4664 111.968 12.4088 110.277C12.3946 110.262 12.3876 110.242 12.3894 110.222C12.3912 110.202 12.4016 110.183 12.4183 110.17C12.435 110.157 12.4566 110.151 12.4784 110.152C12.5002 110.154 12.5204 110.164 12.5346 110.179Z" fill="#030712"/>
<path d="M13.2133 116.372C14.3002 117.717 15.5357 118.999 16.5463 120.39C16.5729 120.428 16.5119 120.471 16.4738 120.439C15.1772 119.319 14.0828 117.791 13.1409 116.41C13.1104 116.365 13.1828 116.329 13.2133 116.372Z" fill="#030712"/>
<path d="M16.6988 120.702L16.7445 120.745C16.775 120.773 16.7445 120.818 16.6949 120.79L16.6492 120.748C16.6426 120.742 16.6389 120.734 16.6389 120.725C16.6389 120.717 16.6426 120.709 16.6492 120.702C16.6558 120.696 16.6647 120.693 16.674 120.693C16.6833 120.693 16.6922 120.696 16.6988 120.702Z" fill="#030712"/>
<path d="M7.27602 119.828C7.54296 122.41 9.01874 125.497 10.8187 127.485C11.609 128.35 12.5871 129.054 13.6902 129.55C14.9371 130.119 16.2375 130.773 17.5264 131.236C18.1393 132.672 18.5941 134.16 18.884 135.68L19.0098 135.286C18.1823 128.746 13.5872 123.158 7.71075 119.571C7.66516 119.544 7.61178 119.529 7.55709 119.528C7.50241 119.528 7.44878 119.542 7.40272 119.569C7.35667 119.596 7.32018 119.635 7.29768 119.681C7.27519 119.727 7.26766 119.778 7.27602 119.828Z" fill="#10B981"/>
<path d="M9.30465 121.76C9.2627 121.725 9.30465 121.658 9.36566 121.689C12.5924 123.901 15.166 126.822 16.8514 130.186C16.8933 130.277 16.7598 130.355 16.7065 130.267C16.4319 129.824 16.1535 129.396 15.8713 128.974C14.529 128.742 13.2591 127.875 12.2638 127.049C12.2583 127.045 12.255 127.038 12.2546 127.031C12.2542 127.024 12.2569 127.018 12.2619 127.013C12.267 127.007 12.2741 127.004 12.2816 127.004C12.2891 127.004 12.2964 127.006 12.302 127.011C12.8165 127.44 13.3864 127.809 13.9989 128.11C14.5481 128.367 15.143 128.528 15.7035 128.732C15.2078 128.005 14.6892 127.309 14.1477 126.624C12.6992 126.117 11.3408 125.414 10.1169 124.538C10.0788 124.513 10.1169 124.454 10.155 124.478C11.368 125.154 12.6193 125.77 13.9036 126.322C13.0834 125.328 12.1997 124.379 11.2571 123.481C10.7995 123.259 10.3381 123.038 9.89572 122.799C9.88828 122.795 9.88284 122.788 9.88037 122.78C9.87789 122.772 9.87852 122.764 9.88217 122.756C9.88581 122.748 9.89222 122.742 9.90028 122.739C9.90834 122.735 9.91753 122.734 9.92623 122.736C10.2937 122.856 10.6444 123.015 10.9711 123.21C10.4334 122.722 9.8881 122.234 9.30465 121.76Z" fill="#030712"/>
<path d="M9.43048 124.018C9.51016 124.061 9.58547 124.11 9.65547 124.166C9.67835 124.183 9.65547 124.208 9.62496 124.201C9.54412 124.166 9.46635 124.124 9.39234 124.078C9.3504 124.053 9.38853 123.99 9.43048 124.018Z" fill="#030712"/>
<path d="M28.1773 149.838H12.0771L13.3775 136.333L13.6635 133.354H26.5948L26.8769 136.333L28.1773 149.838Z" fill="#4B5563"/>
<path d="M26.8767 136.333L13.4727 135.353L13.6633 133.354H26.5946L26.8767 136.333Z" fill="#1F2937"/>
<path d="M27.3649 131.271H12.8931V134.218H27.3649V131.271Z" fill="#4B5563"/>
<path d="M109.235 149.838H72.6834C71.0971 144.092 68.6489 135.248 66.5172 127.545C66.5172 127.545 66.5172 127.545 66.5172 127.527C66.3913 127.057 66.2579 126.586 66.1358 126.122C66.0558 125.834 65.9795 125.55 65.9032 125.272C63.8516 117.864 62.2347 112.009 62.1966 111.876C62.1585 111.742 62.1546 111.728 62.1394 111.679L62.1089 111.567H97.3981L109.235 149.838Z" fill="#1F2937"/>
<path d="M96.2463 111.556C96.2463 111.577 96.2463 111.616 96.2463 111.668C96.2463 112.051 96.2463 112.431 96.2463 112.813C96.2463 113.786 96.1815 114.763 96.1129 115.736C95.8331 119.542 95.293 123.327 94.496 127.071C93.4557 132.011 92.0801 136.887 90.3775 141.668C90.2288 142.083 90.1373 142.315 90.1297 142.339L87.3268 143.621L87.098 143.727L81.5266 146.277L80.0203 146.979L79.9784 147C79.9784 147 79.9136 148.156 79.8373 149.845H41.7224C42.4851 143.892 42.588 143.105 42.588 143.105C42.363 141.96 41.3639 138.995 41.7224 135.56C42.4851 127.998 47.5416 112.817 47.9954 111.914C48.1022 111.693 48.167 111.563 48.167 111.563H57.8073H80.6457H96.2463V111.556Z" fill="#1F2937"/>
<path d="M80.0165 146.895V146.972C80.0165 147.928 79.9899 148.886 79.9746 149.838H79.5933C79.681 148.879 79.7496 147.917 79.8716 146.958C79.8716 146.87 79.8907 146.79 79.9021 146.702C79.9021 146.688 79.9082 146.674 79.9189 146.664C79.9296 146.655 79.9442 146.649 79.9593 146.649C79.9745 146.649 79.9891 146.655 79.9998 146.664C80.0105 146.674 80.0165 146.688 80.0165 146.702C80.0127 146.768 80.0165 146.821 80.0165 146.895Z" fill="#030712"/>
<path d="M75.4482 148.735C77.0689 147.699 78.8154 146.832 80.5314 145.925C82.2475 145.019 84.0665 144.138 85.8931 143.354C89.4624 141.823 93.2262 140.72 96.9786 139.645C97.0778 139.621 97.1388 139.761 97.0473 139.8C93.4322 141.229 89.9277 142.87 86.3316 144.338C84.5241 145.075 82.7013 145.785 80.8899 146.519C79.0785 147.253 77.3129 148.086 75.4863 148.788C75.4796 148.788 75.473 148.786 75.4671 148.783C75.4611 148.78 75.4561 148.776 75.4524 148.771C75.4486 148.766 75.4463 148.76 75.4456 148.754C75.4448 148.748 75.4457 148.741 75.4482 148.735Z" fill="#030712"/>
<path d="M85.3401 132.441C85.3821 130.808 85.5079 129.175 85.5956 127.545C85.8054 123.681 85.977 119.817 86.3583 115.982C86.3583 115.95 86.372 115.92 86.3963 115.897C86.4206 115.875 86.4536 115.862 86.488 115.862C86.5223 115.862 86.5553 115.875 86.5796 115.897C86.604 115.92 86.6176 115.95 86.6176 115.982C86.671 118.96 86.5452 121.953 86.4803 124.924C86.446 126.417 86.4002 127.907 86.3545 129.396C86.2662 130.818 86.256 132.244 86.324 133.667C86.4117 134.742 86.6672 136.828 88.1887 136.958C89.6188 137.081 90.4081 135.655 90.7628 134.612C91.6742 131.96 91.9983 129.094 92.2881 126.336C92.4597 124.703 92.6352 123.077 92.7419 121.437C92.8487 119.796 92.9898 117.345 92.8945 115.694C92.8945 115.588 93.0508 115.592 93.0737 115.694C93.3521 117.099 93.3635 119.982 93.3254 121.665C92.9784 136.86 90.3776 137.727 89.001 137.973C88.8325 138.003 88.6615 138.02 88.49 138.022C88.49 138.374 88.4213 138.725 88.3947 139.055C88.3527 139.596 88.2841 140.133 88.204 140.671C88.1227 141.198 88.0029 141.719 87.8455 142.23C87.7236 142.75 87.5233 143.251 87.2506 143.72C87.24 143.735 87.2246 143.746 87.2065 143.752C87.1885 143.758 87.1688 143.759 87.1502 143.755C87.1316 143.75 87.115 143.74 87.103 143.726C87.0909 143.712 87.0838 143.695 87.0828 143.678C87.0707 143.162 87.118 142.646 87.2239 142.139C87.304 141.612 87.3803 141.085 87.4985 140.565C87.6167 140.046 87.7159 139.543 87.8303 139.034C87.9065 138.683 87.9599 138.332 88.0286 137.98C87.5842 137.91 87.1657 137.739 86.8109 137.483C86.4561 137.226 86.1761 136.893 85.996 136.512C85.3554 135.286 85.302 133.804 85.3401 132.441Z" fill="#030712"/>
<path d="M52.0261 129.554C54.3141 129.705 56.6021 129.979 58.8902 129.726C61.0667 129.52 63.1408 128.771 64.8887 127.559C68.683 124.847 70.3494 120.407 71.3714 116.242C71.3732 116.232 71.377 116.223 71.3826 116.214C71.3883 116.206 71.3957 116.199 71.4043 116.193C71.413 116.187 71.4228 116.183 71.4332 116.181C71.4436 116.179 71.4543 116.179 71.4649 116.18C71.4754 116.182 71.4854 116.185 71.4945 116.191C71.5035 116.196 71.5114 116.203 71.5176 116.211C71.5238 116.219 71.5282 116.228 71.5306 116.237C71.533 116.247 71.5333 116.257 71.5316 116.266C71.1007 119.877 70.2579 123.611 67.7182 126.519C66.6283 127.797 65.2505 128.842 63.6798 129.582C62.0101 130.298 60.1819 130.644 58.3411 130.594C56.1829 130.577 54.0355 130.311 51.9498 129.8C51.9144 129.791 51.8845 129.769 51.8666 129.739C51.8487 129.709 51.8443 129.674 51.8545 129.642C51.8646 129.609 51.8883 129.582 51.9205 129.565C51.9527 129.549 51.9907 129.545 52.0261 129.554Z" fill="#030712"/>
<path d="M102.279 128.714C101.639 128.648 101.009 128.697 100.372 128.261C99.7356 127.826 99.1675 127.042 98.6603 125.753C97.5506 122.943 97.0091 118.728 96.6468 114.837C96.6468 114.749 96.5972 114.752 96.601 114.837C96.7879 118.173 97.0891 121.661 97.848 124.542C98.1101 125.633 98.5067 126.694 99.0302 127.703C99.503 128.539 100.029 128.939 100.556 129.108C100.847 129.195 101.154 129.225 101.459 129.197C101.763 129.17 102.058 129.084 102.325 128.946C102.34 128.908 102.325 128.721 102.279 128.714Z" fill="#030712"/>
<path d="M51.6143 112.603C50.3788 118.848 48.9144 125.177 47.5607 131.405C47.2137 133.267 46.6111 135.104 46.7332 137C46.9074 138.912 47.2349 140.809 47.7132 142.676C47.492 143.878 47.2823 145.079 47.0459 146.28C46.8094 147.481 46.5997 148.655 46.3518 149.838C46.47 148.637 46.6188 147.439 46.756 146.242C46.8933 145.044 47.0535 143.846 47.2022 142.648C46.6366 140.811 46.2536 138.93 46.0582 137.028C45.9907 136.37 46.0074 135.706 46.1078 135.051C46.5196 132.494 47.0992 130 47.6827 127.496C48.8649 122.497 50.1652 117.524 51.6334 112.589L51.6143 112.603Z" fill="#030712"/>
<path d="M85.7098 65.4583C101.642 78.7495 112.972 90.2036 112.819 95.4091C112.495 107.078 105.803 109.589 104.613 109.238C92.0515 105.311 84.0625 83.2771 78.7809 69.9683C73.5375 56.7474 81.1452 61.6508 85.7098 65.4583Z" fill="#D3766A"/>
<path d="M108.323 84.394L88.2496 94.2676C88.2496 94.2676 80.0813 77.8327 77.2937 68.0119C74.5061 58.191 78.7847 58.5001 88.1313 66.1889C97.478 73.8777 108.323 84.394 108.323 84.394Z" fill="#10B981"/>
<path d="M83.6278 72.0231C83.4016 72.0231 83.1804 72.0849 82.9923 72.2007C82.8041 72.3165 82.6575 72.481 82.5709 72.6736C82.4843 72.8661 82.4617 73.078 82.5058 73.2824C82.5499 73.4868 82.6589 73.6746 82.8189 73.8219C82.9789 73.9693 83.1827 74.0697 83.4047 74.1103C83.6266 74.151 83.8566 74.1301 84.0656 74.0504C84.2747 73.9706 84.4534 73.8355 84.5791 73.6623C84.7048 73.489 84.7719 73.2852 84.7719 73.0768C84.7719 72.7974 84.6513 72.5293 84.4368 72.3317C84.2222 72.1341 83.9313 72.0231 83.6278 72.0231ZM83.6278 73.9725C83.4381 73.9718 83.2528 73.9194 83.0954 73.8219C82.9379 73.7243 82.8154 73.5861 82.7431 73.4245C82.6708 73.2629 82.6521 73.0852 82.6893 72.9138C82.7265 72.7425 82.818 72.5851 82.9521 72.4615C83.0863 72.3379 83.2572 72.2537 83.4432 72.2194C83.6293 72.1851 83.8222 72.2024 83.9976 72.2689C84.1731 72.3355 84.3232 72.4484 84.4291 72.5934C84.535 72.7384 84.5919 72.9091 84.5926 73.0839C84.5931 73.2007 84.5685 73.3165 84.5202 73.4245C84.4719 73.5325 84.4009 73.6307 84.3112 73.7133C84.2215 73.7959 84.1149 73.8613 83.9976 73.9058C83.8804 73.9503 83.7547 73.973 83.6278 73.9725ZM96.4294 73.3473C96.3811 73.4911 96.2937 73.621 96.1754 73.7249C96.0572 73.8287 95.912 73.9029 95.7538 73.9404C95.5956 73.978 95.4296 73.9776 95.2716 73.9393C95.1136 73.901 94.9688 73.8261 94.8511 73.7218C94.7335 73.6174 94.6467 73.487 94.5992 73.343C94.5517 73.199 94.545 73.0463 94.5798 72.8992C94.6145 72.7522 94.6895 72.6158 94.7977 72.503C94.9059 72.3902 95.0436 72.3048 95.1977 72.2549C95.1481 72.2057 95.0947 72.1601 95.0413 72.1144C94.8721 72.1853 94.7241 72.2931 94.6102 72.4285C94.4964 72.5639 94.42 72.7229 94.3879 72.8916C94.3558 73.0603 94.3688 73.2337 94.4258 73.3967C94.4828 73.5597 94.582 73.7075 94.715 73.8273C94.848 73.947 95.0107 74.0351 95.1889 74.0838C95.3672 74.1326 95.5557 74.1406 95.738 74.1072C95.9204 74.0738 96.0912 73.9999 96.2356 73.8919C96.38 73.784 96.4936 73.6453 96.5667 73.4878L96.4294 73.3473ZM77.6904 63.2981C77.465 63.3016 77.2457 63.3663 77.0601 63.4842C76.8745 63.602 76.7308 63.7678 76.6471 63.9606C76.5635 64.1535 76.5435 64.3648 76.5898 64.568C76.6361 64.7712 76.7465 64.9573 76.9072 65.103C77.0679 65.2486 77.2718 65.3472 77.4932 65.3865C77.7146 65.4257 77.9436 65.4038 78.1515 65.3236C78.3595 65.2433 78.537 65.1083 78.6619 64.9354C78.7868 64.7625 78.8534 64.5595 78.8535 64.3519C78.8535 64.212 78.8233 64.0735 78.7646 63.9445C78.7059 63.8155 78.6199 63.6986 78.5117 63.6005C78.4034 63.5024 78.275 63.4251 78.134 63.3732C77.993 63.3213 77.8422 63.2958 77.6904 63.2981ZM77.6904 65.2475C77.5006 65.2468 77.3154 65.1944 77.1579 65.0969C77.0005 64.9994 76.8779 64.8611 76.8056 64.6995C76.7334 64.5379 76.7147 64.3602 76.7519 64.1889C76.7891 64.0175 76.8805 63.8601 77.0147 63.7365C77.1489 63.6129 77.3197 63.5287 77.5058 63.4944C77.6918 63.4602 77.8847 63.4774 78.0602 63.544C78.2356 63.6105 78.3857 63.7234 78.4916 63.8685C78.5975 64.0135 78.6544 64.1841 78.6552 64.3589C78.6557 64.4757 78.6311 64.5915 78.5828 64.6995C78.5345 64.8075 78.4634 64.9057 78.3737 64.9883C78.284 65.0709 78.1775 65.1363 78.0602 65.1808C77.9429 65.2253 77.8172 65.248 77.6904 65.2475ZM95.5066 89.6276C95.3058 89.6254 95.1079 89.672 94.9328 89.7626C94.7577 89.8533 94.6116 89.9848 94.5092 90.1439C94.4067 90.303 94.3516 90.4842 94.3493 90.6692C94.347 90.8541 94.3976 91.0364 94.496 91.1977L94.6676 91.1134C94.5924 90.9824 94.5531 90.8365 94.5532 90.6884C94.5542 90.4557 94.655 90.2329 94.8336 90.0685C95.0121 89.904 95.254 89.8112 95.5066 89.8102C95.6819 89.8102 95.8539 89.8539 96.0043 89.9368C96.1548 90.0197 96.278 90.1386 96.3608 90.2809L96.5362 90.1931C96.4362 90.0219 96.2876 89.8788 96.1063 89.7792C95.9249 89.6797 95.7177 89.6272 95.5066 89.6276ZM89.5653 80.9026C89.339 80.9026 89.1179 80.9644 88.9297 81.0802C88.7416 81.196 88.595 81.3606 88.5084 81.5531C88.4218 81.7456 88.3991 81.9575 88.4433 82.1619C88.4874 82.3663 88.5964 82.5541 88.7564 82.7015C88.9164 82.8488 89.1202 82.9492 89.3421 82.9898C89.564 83.0305 89.7941 83.0096 90.0031 82.9299C90.2121 82.8501 90.3908 82.7151 90.5165 82.5418C90.6422 82.3685 90.7093 82.1648 90.7093 81.9564C90.7093 81.6769 90.5888 81.4089 90.3742 81.2112C90.1597 81.0136 89.8687 80.9026 89.5653 80.9026ZM89.5653 82.852C89.3756 82.8513 89.1903 82.7989 89.0329 82.7014C88.8754 82.6039 88.7528 82.4656 88.6806 82.304C88.6083 82.1424 88.5896 81.9647 88.6268 81.7934C88.664 81.622 88.7554 81.4646 88.8896 81.341C89.0238 81.2174 89.1947 81.1332 89.3807 81.0989C89.5668 81.0647 89.7597 81.0819 89.9351 81.1485C90.1105 81.215 90.2607 81.3279 90.3666 81.4729C90.4724 81.618 90.5293 81.7886 90.5301 81.9634C90.5306 82.0802 90.506 82.196 90.4577 82.304C90.4094 82.412 90.3383 82.5102 90.2486 82.5928C90.1589 82.6754 90.0524 82.7408 89.9351 82.7853C89.8178 82.8298 89.6921 82.8525 89.5653 82.852ZM101.436 80.9026C101.211 80.9061 100.992 80.9708 100.806 81.0887C100.621 81.2065 100.477 81.3723 100.393 81.5651C100.309 81.7579 100.29 81.9692 100.336 82.1725C100.382 82.3757 100.493 82.5618 100.653 82.7074C100.814 82.8531 101.018 82.9517 101.239 82.991C101.461 83.0302 101.69 83.0083 101.898 82.9281C102.105 82.8478 102.283 82.7128 102.408 82.5399C102.533 82.367 102.599 82.164 102.599 81.9564C102.6 81.8165 102.569 81.678 102.511 81.549C102.452 81.42 102.366 81.3031 102.258 81.205C102.149 81.1069 102.021 81.0296 101.88 80.9777C101.739 80.9258 101.588 80.9003 101.436 80.9026ZM101.436 82.852C101.247 82.8513 101.061 82.7989 100.904 82.7014C100.747 82.6039 100.624 82.4656 100.552 82.304C100.479 82.1424 100.461 81.9647 100.498 81.7934C100.535 81.622 100.627 81.4646 100.761 81.341C100.895 81.2174 101.066 81.1332 101.252 81.0989C101.438 81.0647 101.631 81.0819 101.806 81.1485C101.982 81.215 102.132 81.3279 102.238 81.4729C102.344 81.618 102.4 81.7886 102.401 81.9634C102.402 82.0802 102.377 82.196 102.329 82.304C102.28 82.412 102.209 82.5102 102.12 82.5928C102.03 82.6754 101.924 82.7408 101.806 82.7853C101.689 82.8298 101.563 82.8525 101.436 82.852Z" fill="white"/>
<path d="M104.235 81.5455C96.4865 86.2944 88.9818 89.3643 87.4869 90.1476C87.4145 90.1862 87.3573 90.0773 87.4297 90.0422C88.9551 89.3397 97.192 84.6962 104.174 81.4261C104.254 81.391 104.308 81.4893 104.235 81.5455Z" fill="#030712"/>
<path opacity="0.1" d="M103.934 86.7579L88.2535 94.2605C88.2535 94.2605 80.0814 77.8362 77.29 68.0084C76.268 64.3905 76.1993 62.146 76.9925 61.1415L103.934 86.7579Z" fill="#030712"/>
<path d="M97.9394 112.048L95.3348 96.9441C95.3348 96.9441 100.46 91.0186 97.1004 84.5275C95.4035 81.2363 86.8042 65.072 80.657 61.0432C75.5929 57.7379 66.9975 59.5223 64.1336 64.085C57.6508 74.4081 51.2062 86.5402 47.4614 112.079L97.9394 112.048Z" fill="#10B981"/>
<path d="M59.8702 72.0232C59.7196 72.0224 59.5704 72.0499 59.4317 72.1039C59.2203 72.1831 59.0394 72.3188 58.9123 72.4934C58.7852 72.668 58.7178 72.8737 58.7186 73.0839C58.7176 73.1841 58.7344 73.2838 58.7682 73.379C58.8295 73.5655 58.9459 73.7328 59.1043 73.862C59.2627 73.9913 59.457 74.0776 59.6654 74.1113C59.8739 74.1449 60.0884 74.1247 60.2851 74.0528C60.4818 73.9808 60.653 73.8601 60.7797 73.7039C60.9063 73.5477 60.9834 73.3622 61.0024 73.168C61.0214 72.9739 60.9816 72.7787 60.8873 72.6041C60.7931 72.4296 60.6481 72.2825 60.4686 72.1793C60.289 72.0762 60.0819 72.0209 59.8702 72.0196V72.0232ZM59.8702 73.9726C59.6167 73.9707 59.3742 73.8767 59.1957 73.7109C59.0171 73.5451 58.9169 73.321 58.9169 73.0874C58.9171 72.958 58.9487 72.8303 59.0094 72.7136C59.0701 72.597 59.1583 72.4942 59.2677 72.413C59.4348 72.2824 59.6473 72.2114 59.8664 72.2128C60.0017 72.197 60.1392 72.208 60.2695 72.2449C60.3999 72.2818 60.5203 72.3438 60.6226 72.4269C60.7249 72.5099 60.8069 72.6121 60.8631 72.7266C60.9192 72.8411 60.9482 72.9653 60.9482 73.091C60.9482 73.2166 60.9192 73.3408 60.8631 73.4553C60.8069 73.5698 60.7249 73.672 60.6226 73.755C60.5203 73.8381 60.3999 73.9001 60.2695 73.937C60.1392 73.9739 60.0017 73.9849 59.8664 73.9691L59.8702 73.9726ZM71.749 72.0232C71.5236 72.0266 71.3043 72.0914 71.1187 72.2092C70.9331 72.3271 70.7894 72.4928 70.7057 72.6857C70.6221 72.8785 70.6021 73.0898 70.6484 73.293C70.6947 73.4963 70.8051 73.6824 70.9658 73.828C71.1265 73.9736 71.3304 74.0722 71.5518 74.1115C71.7732 74.1508 72.0022 74.1289 72.2101 74.0486C72.4181 73.9684 72.5956 73.8333 72.7205 73.6605C72.8454 73.4876 72.912 73.2846 72.9121 73.0769C72.9121 72.9373 72.882 72.7992 72.8235 72.6704C72.7651 72.5416 72.6795 72.4248 72.5716 72.3268C72.4638 72.2287 72.3358 72.1514 72.1953 72.0993C72.0547 72.0472 71.9043 72.0213 71.7528 72.0232H71.749ZM71.749 73.9726C71.5592 73.9719 71.374 73.9195 71.2165 73.8219C71.0591 73.7244 70.9365 73.5861 70.8642 73.4245C70.792 73.263 70.7733 73.0853 70.8105 72.9139C70.8477 72.7425 70.9391 72.5851 71.0733 72.4616C71.2074 72.338 71.3783 72.2537 71.5644 72.2195C71.7504 72.1852 71.9433 72.2024 72.1188 72.269C72.2942 72.3356 72.4443 72.4485 72.5502 72.5935C72.6561 72.7385 72.713 72.9092 72.7138 73.0839C72.7143 73.2005 72.6898 73.3159 72.6417 73.4237C72.5936 73.5315 72.5229 73.6295 72.4337 73.7121C72.3444 73.7947 72.2383 73.8602 72.1214 73.9049C72.0046 73.9496 71.8793 73.9726 71.7528 73.9726H71.749ZM83.6239 72.0232C83.3976 72.0232 83.1764 72.085 82.9883 72.2007C82.8002 72.3165 82.6535 72.4811 82.567 72.6737C82.4804 72.8662 82.4577 73.0781 82.5019 73.2825C82.546 73.4869 82.655 73.6746 82.815 73.822C82.9749 73.9694 83.1788 74.0697 83.4007 74.1104C83.6226 74.1511 83.8526 74.1302 84.0617 74.0504C84.2707 73.9707 84.4494 73.8356 84.5751 73.6623C84.7008 73.489 84.7679 73.2853 84.7679 73.0769C84.7679 72.798 84.6479 72.5305 84.4342 72.333C84.2205 72.1355 83.9305 72.0241 83.6277 72.0232H83.6239ZM83.6239 73.9726C83.4342 73.9719 83.2489 73.9195 83.0914 73.8219C82.934 73.7244 82.8114 73.5861 82.7392 73.4245C82.6669 73.263 82.6482 73.0853 82.6854 72.9139C82.7226 72.7425 82.814 72.5851 82.9482 72.4616C83.0824 72.338 83.2533 72.2537 83.4393 72.2195C83.6254 72.1852 83.8183 72.2024 83.9937 72.269C84.1691 72.3356 84.3193 72.4485 84.4251 72.5935C84.531 72.7385 84.5879 72.9092 84.5887 73.0839C84.5892 73.2005 84.5647 73.3159 84.5166 73.4237C84.4686 73.5315 84.3979 73.6295 84.3086 73.7121C84.2193 73.7947 84.1132 73.8602 83.9963 73.9049C83.8795 73.9496 83.7542 73.9726 83.6277 73.9726H83.6239ZM65.8115 63.2982C65.5852 63.2982 65.3641 63.36 65.1759 63.4758C64.9878 63.5916 64.8412 63.7561 64.7546 63.9487C64.668 64.1412 64.6453 64.3531 64.6895 64.5575C64.7336 64.7619 64.8426 64.9497 65.0026 65.097C65.1626 65.2444 65.3664 65.3448 65.5883 65.3854C65.8102 65.4261 66.0403 65.4052 66.2493 65.3255C66.4584 65.2457 66.637 65.1106 66.7627 64.9374C66.8884 64.7641 66.9555 64.5603 66.9555 64.3519C66.9555 64.0731 66.8355 63.8056 66.6218 63.6081C66.4081 63.4105 66.1181 63.2991 65.8153 63.2982H65.8115ZM65.8115 65.2476C65.6218 65.2469 65.4365 65.1945 65.2791 65.097C65.1216 64.9994 64.999 64.8612 64.9268 64.6996C64.8545 64.538 64.8358 64.3603 64.873 64.1889C64.9102 64.0176 65.0017 63.8602 65.1358 63.7366C65.27 63.613 65.4409 63.5288 65.6269 63.4945C65.813 63.4602 66.0059 63.4775 66.1813 63.544C66.3568 63.6106 66.5069 63.7235 66.6128 63.8685C66.7186 64.0135 66.7755 64.1842 66.7763 64.359C66.7768 64.4755 66.7523 64.591 66.7043 64.6988C66.6562 64.8066 66.5855 64.9045 66.4962 64.9871C66.4069 65.0697 66.3008 65.1352 66.184 65.1799C66.0671 65.2246 65.9418 65.2476 65.8153 65.2476H65.8115ZM77.6864 63.2982C77.461 63.3017 77.2417 63.3664 77.0561 63.4842C76.8705 63.6021 76.7269 63.7679 76.6432 63.9607C76.5595 64.1535 76.5396 64.3648 76.5858 64.5681C76.6321 64.7713 76.7425 64.9574 76.9033 65.103C77.064 65.2486 77.2679 65.3473 77.4892 65.3865C77.7106 65.4258 77.9397 65.4039 78.1476 65.3237C78.3555 65.2434 78.5331 65.1084 78.658 64.9355C78.7828 64.7626 78.8495 64.5596 78.8495 64.3519C78.8495 64.2124 78.8194 64.0742 78.761 63.9454C78.7026 63.8166 78.6169 63.6998 78.5091 63.6018C78.4012 63.5038 78.2733 63.4264 78.1327 63.3743C77.9922 63.3222 77.8418 63.2963 77.6902 63.2982H77.6864ZM77.6864 65.2476C77.4967 65.2469 77.3114 65.1945 77.154 65.097C76.9965 64.9994 76.874 64.8612 76.8017 64.6996C76.7294 64.538 76.7107 64.3603 76.7479 64.1889C76.7851 64.0176 76.8766 63.8602 77.0107 63.7366C77.1449 63.613 77.3158 63.5288 77.5018 63.4945C77.6879 63.4602 77.8808 63.4775 78.0562 63.544C78.2317 63.6106 78.3818 63.7235 78.4877 63.8685C78.5936 64.0135 78.6505 64.1842 78.6512 64.359C78.6517 64.4755 78.6272 64.591 78.5792 64.6988C78.5311 64.8066 78.4604 64.9045 78.3711 64.9871C78.2818 65.0697 78.1757 65.1352 78.0589 65.1799C77.942 65.2246 77.8168 65.2476 77.6902 65.2476H77.6864ZM59.8702 89.6277C59.6448 89.6311 59.4255 89.6959 59.2399 89.8137C59.0543 89.9316 58.9107 90.0973 58.827 90.2902C58.7433 90.483 58.7234 90.6943 58.7696 90.8975C58.8159 91.1008 58.9264 91.2869 59.0871 91.4325C59.2478 91.5781 59.4517 91.6767 59.673 91.716C59.8944 91.7552 60.1235 91.7334 60.3314 91.6531C60.5393 91.5729 60.7169 91.4378 60.8418 91.265C60.9667 91.0921 61.0333 90.8891 61.0333 90.6814C61.0333 90.5415 61.0031 90.4031 60.9445 90.2741C60.8858 90.145 60.7998 90.0281 60.6915 89.93C60.5833 89.8319 60.4549 89.7547 60.3139 89.7028C60.1729 89.6509 60.0221 89.6253 59.8702 89.6277ZM59.8702 91.5771C59.6805 91.5764 59.4952 91.524 59.3378 91.4264C59.1803 91.3289 59.0578 91.1906 58.9855 91.029C58.9132 90.8675 58.8945 90.6898 58.9317 90.5184C58.9689 90.347 59.0604 90.1896 59.1945 90.0661C59.3287 89.9425 59.4996 89.8582 59.6856 89.824C59.8717 89.7897 60.0646 89.8069 60.24 89.8735C60.4155 89.9401 60.5656 90.053 60.6715 90.198C60.7774 90.343 60.8343 90.5137 60.835 90.6884C60.8355 90.8053 60.8109 90.921 60.7626 91.029C60.7143 91.1371 60.6433 91.2352 60.5536 91.3178C60.4639 91.4004 60.3573 91.4659 60.24 91.5104C60.1228 91.5549 59.9971 91.5775 59.8702 91.5771ZM71.749 89.6277C71.5236 89.6311 71.3043 89.6959 71.1187 89.8137C70.9331 89.9316 70.7894 90.0973 70.7057 90.2902C70.6221 90.483 70.6021 90.6943 70.6484 90.8975C70.6947 91.1008 70.8051 91.2869 70.9658 91.4325C71.1265 91.5781 71.3304 91.6767 71.5518 91.716C71.7732 91.7552 72.0022 91.7334 72.2101 91.6531C72.4181 91.5729 72.5956 91.4378 72.7205 91.265C72.8454 91.0921 72.912 90.8891 72.9121 90.6814C72.9121 90.5418 72.882 90.4036 72.8235 90.2749C72.7651 90.1461 72.6795 90.0293 72.5716 89.9313C72.4638 89.8333 72.3358 89.7559 72.1953 89.7038C72.0547 89.6517 71.9043 89.6258 71.7528 89.6277H71.749ZM71.749 91.5771C71.5592 91.5764 71.374 91.524 71.2165 91.4264C71.0591 91.3289 70.9365 91.1906 70.8642 91.029C70.792 90.8675 70.7733 90.6898 70.8105 90.5184C70.8477 90.347 70.9391 90.1896 71.0733 90.0661C71.2074 89.9425 71.3783 89.8582 71.5644 89.824C71.7504 89.7897 71.9433 89.8069 72.1188 89.8735C72.2942 89.9401 72.4443 90.053 72.5502 90.198C72.6561 90.343 72.713 90.5137 72.7138 90.6884C72.7143 90.805 72.6898 90.9204 72.6417 91.0282C72.5936 91.136 72.5229 91.234 72.4337 91.3166C72.3444 91.3991 72.2383 91.4647 72.1214 91.5094C72.0046 91.5541 71.8793 91.5771 71.7528 91.5771H71.749ZM83.6239 89.6277C83.3976 89.6277 83.1764 89.6895 82.9883 89.8052C82.8002 89.921 82.6535 90.0856 82.567 90.2781C82.4804 90.4707 82.4577 90.6826 82.5019 90.887C82.546 91.0914 82.655 91.2791 82.815 91.4265C82.9749 91.5739 83.1788 91.6742 83.4007 91.7149C83.6226 91.7556 83.8526 91.7347 84.0617 91.6549C84.2707 91.5752 84.4494 91.4401 84.5751 91.2668C84.7008 91.0935 84.7679 90.8898 84.7679 90.6814C84.7679 90.4025 84.6479 90.135 84.4342 89.9375C84.2205 89.74 83.9305 89.6286 83.6277 89.6277H83.6239ZM83.6239 91.5771C83.4342 91.5764 83.2489 91.524 83.0914 91.4264C82.934 91.3289 82.8114 91.1906 82.7392 91.029C82.6669 90.8675 82.6482 90.6898 82.6854 90.5184C82.7226 90.347 82.814 90.1896 82.9482 90.0661C83.0824 89.9425 83.2533 89.8582 83.4393 89.824C83.6254 89.7897 83.8183 89.8069 83.9937 89.8735C84.1691 89.9401 84.3193 90.053 84.4251 90.198C84.531 90.343 84.5879 90.5137 84.5887 90.6884C84.5892 90.805 84.5647 90.9204 84.5166 91.0282C84.4686 91.136 84.3979 91.234 84.3086 91.3166C84.2193 91.3991 84.1132 91.4647 83.9963 91.5094C83.8795 91.5541 83.7542 91.5771 83.6277 91.5771H83.6239ZM95.5026 89.6277C95.2772 89.6311 95.0579 89.6959 94.8723 89.8137C94.6867 89.9316 94.5431 90.0973 94.4594 90.2902C94.3757 90.483 94.3558 90.6943 94.402 90.8975C94.4483 91.1008 94.5587 91.2869 94.7195 91.4325C94.8802 91.5781 95.084 91.6767 95.3054 91.716C95.5268 91.7552 95.7559 91.7334 95.9638 91.6531C96.1717 91.5729 96.3493 91.4378 96.4742 91.265C96.599 91.0921 96.6657 90.8891 96.6657 90.6814C96.6657 90.5418 96.6356 90.4036 96.5772 90.2749C96.5188 90.1461 96.4331 90.0293 96.3253 89.9313C96.2174 89.8333 96.0895 89.7559 95.9489 89.7038C95.8084 89.6517 95.658 89.6258 95.5064 89.6277H95.5026ZM95.5026 91.5771C95.3129 91.5764 95.1276 91.524 94.9702 91.4264C94.8127 91.3289 94.6902 91.1906 94.6179 91.029C94.5456 90.8675 94.5269 90.6898 94.5641 90.5184C94.6013 90.347 94.6928 90.1896 94.8269 90.0661C94.9611 89.9425 95.132 89.8582 95.318 89.824C95.5041 89.7897 95.697 89.8069 95.8724 89.8735C96.0479 89.9401 96.198 90.053 96.3039 90.198C96.4098 90.343 96.4667 90.5137 96.4674 90.6884C96.4679 90.805 96.4434 90.9204 96.3954 91.0282C96.3473 91.136 96.2766 91.234 96.1873 91.3166C96.098 91.3991 95.9919 91.4647 95.8751 91.5094C95.7582 91.5541 95.633 91.5771 95.5064 91.5771H95.5026ZM55.0425 81.6473L54.8938 82.0232C54.8832 82.1848 54.8238 82.3406 54.7222 82.4728L54.5772 82.8521C54.7381 82.7544 54.87 82.6213 54.9612 82.465C55.0524 82.3087 55.1 82.1339 55.0997 81.9564C55.0987 81.8515 55.0807 81.7473 55.0463 81.6473H55.0425ZM65.8115 80.9027C65.5852 80.9027 65.3641 80.9645 65.1759 81.0803C64.9878 81.1961 64.8412 81.3606 64.7546 81.5532C64.668 81.7457 64.6453 81.9576 64.6895 82.162C64.7336 82.3664 64.8426 82.5542 65.0026 82.7015C65.1626 82.8489 65.3664 82.9493 65.5883 82.9899C65.8102 83.0306 66.0403 83.0097 66.2493 82.93C66.4584 82.8502 66.637 82.7151 66.7627 82.5418C66.8884 82.3686 66.9555 82.1648 66.9555 81.9564C66.9555 81.6776 66.8355 81.4101 66.6218 81.2126C66.4081 81.015 66.1181 80.9036 65.8153 80.9027H65.8115ZM65.8115 82.8521C65.6218 82.8514 65.4365 82.799 65.2791 82.7015C65.1216 82.6039 64.999 82.4657 64.9268 82.3041C64.8545 82.1425 64.8358 81.9648 64.873 81.7934C64.9102 81.6221 65.0017 81.4647 65.1358 81.3411C65.27 81.2175 65.4409 81.1333 65.6269 81.099C65.813 81.0647 66.0059 81.082 66.1813 81.1485C66.3568 81.2151 66.5069 81.328 66.6128 81.473C66.7186 81.618 66.7755 81.7887 66.7763 81.9635C66.7768 82.08 66.7523 82.1955 66.7043 82.3033C66.6562 82.4111 66.5855 82.509 66.4962 82.5916C66.4069 82.6742 66.3008 82.7397 66.184 82.7844C66.0671 82.8291 65.9418 82.8521 65.8153 82.8521H65.8115ZM77.6864 80.9027C77.461 80.9061 77.2417 80.9709 77.0561 81.0887C76.8705 81.2066 76.7269 81.3724 76.6432 81.5652C76.5595 81.758 76.5396 81.9693 76.5858 82.1726C76.6321 82.3758 76.7425 82.5619 76.9033 82.7075C77.064 82.8531 77.2679 82.9518 77.4892 82.991C77.7106 83.0303 77.9397 83.0084 78.1476 82.9282C78.3555 82.8479 78.5331 82.7129 78.658 82.54C78.7828 82.3671 78.8495 82.1641 78.8495 81.9564C78.8495 81.8169 78.8194 81.6787 78.761 81.5499C78.7026 81.4211 78.6169 81.3043 78.5091 81.2063C78.4012 81.1083 78.2733 81.031 78.1327 80.9788C77.9922 80.9267 77.8418 80.9008 77.6902 80.9027H77.6864ZM77.6864 82.8521C77.4967 82.8514 77.3114 82.799 77.154 82.7015C76.9965 82.6039 76.874 82.4657 76.8017 82.3041C76.7294 82.1425 76.7107 81.9648 76.7479 81.7934C76.7851 81.6221 76.8766 81.4647 77.0107 81.3411C77.1449 81.2175 77.3158 81.1333 77.5018 81.099C77.6879 81.0647 77.8808 81.082 78.0562 81.1485C78.2317 81.2151 78.3818 81.328 78.4877 81.473C78.5936 81.618 78.6505 81.7887 78.6512 81.9635C78.6517 82.08 78.6272 82.1955 78.5792 82.3033C78.5311 82.4111 78.4604 82.509 78.3711 82.5916C78.2818 82.6742 78.1757 82.7397 78.0589 82.7844C77.942 82.8291 77.8168 82.8521 77.6902 82.8521H77.6864ZM89.5614 80.9027C89.3351 80.9027 89.1139 80.9645 88.9258 81.0803C88.7376 81.1961 88.591 81.3606 88.5044 81.5532C88.4178 81.7457 88.3952 81.9576 88.4393 82.162C88.4835 82.3664 88.5924 82.5542 88.7524 82.7015C88.9124 82.8489 89.1163 82.9493 89.3382 82.9899C89.5601 83.0306 89.7901 83.0097 89.9992 82.93C90.2082 82.8502 90.3869 82.7151 90.5126 82.5418C90.6383 82.3686 90.7054 82.1648 90.7054 81.9564C90.7054 81.6776 90.5854 81.4101 90.3717 81.2126C90.1579 81.015 89.8679 80.9036 89.5652 80.9027H89.5614ZM89.5614 82.8521C89.3716 82.8514 89.1864 82.799 89.0289 82.7015C88.8715 82.6039 88.7489 82.4657 88.6766 82.3041C88.6044 82.1425 88.5857 81.9648 88.6229 81.7934C88.6601 81.6221 88.7515 81.4647 88.8857 81.3411C89.0198 81.2175 89.1907 81.1333 89.3768 81.099C89.5628 81.0647 89.7557 81.082 89.9312 81.1485C90.1066 81.2151 90.2567 81.328 90.3626 81.473C90.4685 81.618 90.5254 81.7887 90.5261 81.9635C90.5266 82.08 90.5022 82.1955 90.4541 82.3033C90.406 82.4111 90.3353 82.509 90.246 82.5916C90.1567 82.6742 90.0506 82.7397 89.9338 82.7844C89.817 82.8291 89.6917 82.8521 89.5652 82.8521H89.5614ZM48.2203 107.25C48.2203 107.309 48.2203 107.369 48.1898 107.432C48.315 107.444 48.4365 107.478 48.5474 107.533C48.6583 107.588 48.7563 107.662 48.836 107.752C48.9157 107.841 48.9754 107.945 49.0117 108.056C49.0481 108.167 49.0603 108.283 49.0478 108.398C49.0353 108.514 48.9982 108.626 48.9388 108.728C48.8793 108.83 48.7986 108.92 48.7012 108.993C48.6038 109.067 48.4917 109.122 48.3712 109.155C48.2508 109.189 48.1243 109.2 47.9991 109.189H47.9C47.9 109.248 47.9 109.308 47.8733 109.368H47.9991C48.3025 109.395 48.6052 109.31 48.8405 109.131C49.0758 108.953 49.2244 108.695 49.2537 108.416C49.2831 108.136 49.1907 107.858 48.9969 107.641C48.8031 107.424 48.5237 107.287 48.2203 107.26V107.25ZM59.8741 107.25C59.6486 107.253 59.4294 107.318 59.2437 107.436C59.0581 107.554 58.9145 107.719 58.8308 107.912C58.7471 108.105 58.7272 108.316 58.7735 108.52C58.8197 108.723 58.9302 108.909 59.0909 109.055C59.2516 109.2 59.4555 109.299 59.6769 109.338C59.8982 109.377 60.1273 109.355 60.3352 109.275C60.5431 109.195 60.7207 109.06 60.8456 108.887C60.9705 108.714 61.0371 108.511 61.0371 108.303C61.0397 108.162 61.0113 108.021 60.9535 107.89C60.8958 107.759 60.8098 107.639 60.7009 107.539C60.592 107.439 60.4623 107.361 60.3195 107.308C60.1768 107.255 60.024 107.229 59.8702 107.232L59.8741 107.25ZM59.8741 109.199C59.6843 109.198 59.4991 109.146 59.3416 109.049C59.1842 108.951 59.0616 108.813 58.9893 108.651C58.9171 108.49 58.8984 108.312 58.9356 108.14C58.9728 107.969 59.0642 107.812 59.1984 107.688C59.3325 107.565 59.5034 107.48 59.6895 107.446C59.8755 107.412 60.0684 107.429 60.2439 107.496C60.4193 107.562 60.5694 107.675 60.6753 107.82C60.7812 107.965 60.8381 108.136 60.8388 108.31C60.8348 108.544 60.7308 108.767 60.5493 108.93C60.3679 109.093 60.1238 109.183 59.8702 109.182L59.8741 109.199ZM71.7528 107.25C71.5274 107.253 71.3081 107.318 71.1225 107.436C70.9369 107.554 70.7932 107.719 70.7095 107.912C70.6259 108.105 70.6059 108.316 70.6522 108.52C70.6985 108.723 70.8089 108.909 70.9696 109.055C71.1304 109.2 71.3342 109.299 71.5556 109.338C71.777 109.377 72.006 109.355 72.2139 109.275C72.4219 109.195 72.5994 109.06 72.7243 108.887C72.8492 108.714 72.9158 108.511 72.9159 108.303C72.9185 108.162 72.8901 108.022 72.8326 107.891C72.7751 107.76 72.6895 107.641 72.581 107.541C72.4724 107.441 72.3432 107.362 72.2009 107.309C72.0586 107.256 71.9062 107.23 71.7528 107.232V107.25ZM71.7528 109.199C71.5631 109.198 71.3778 109.146 71.2203 109.049C71.0629 108.951 70.9403 108.813 70.8681 108.651C70.7958 108.49 70.7771 108.312 70.8143 108.14C70.8515 107.969 70.9429 107.812 71.0771 107.688C71.2113 107.565 71.3821 107.48 71.5682 107.446C71.7542 107.412 71.9472 107.429 72.1226 107.496C72.298 107.562 72.4482 107.675 72.554 107.82C72.6599 107.965 72.7168 108.136 72.7176 108.31C72.7136 108.543 72.61 108.765 72.4294 108.929C72.2488 109.092 72.0057 109.183 71.7528 109.182V109.199ZM83.6277 107.25C83.4014 107.25 83.1803 107.312 82.9921 107.427C82.804 107.543 82.6574 107.708 82.5708 107.9C82.4842 108.093 82.4615 108.305 82.5057 108.509C82.5498 108.713 82.6588 108.901 82.8188 109.049C82.9788 109.196 83.1826 109.296 83.4045 109.337C83.6264 109.378 83.8565 109.357 84.0655 109.277C84.2745 109.197 84.4532 109.062 84.5789 108.889C84.7046 108.716 84.7717 108.512 84.7717 108.303C84.7743 108.164 84.7465 108.025 84.6902 107.895C84.6338 107.765 84.55 107.647 84.4435 107.547C84.337 107.447 84.21 107.368 84.07 107.314C83.9299 107.26 83.7796 107.232 83.6277 107.232V107.25ZM83.6277 109.199C83.438 109.198 83.2527 109.146 83.0953 109.049C82.9378 108.951 82.8152 108.813 82.743 108.651C82.6707 108.49 82.652 108.312 82.6892 108.14C82.7264 107.969 82.8179 107.812 82.952 107.688C83.0862 107.565 83.2571 107.48 83.4431 107.446C83.6292 107.412 83.8221 107.429 83.9975 107.496C84.173 107.562 84.3231 107.675 84.429 107.82C84.5348 107.965 84.5917 108.136 84.5925 108.31C84.5885 108.543 84.485 108.765 84.3043 108.929C84.1237 109.092 83.8806 109.183 83.6277 109.182V109.199ZM95.5064 107.25C95.281 107.253 95.0617 107.318 94.8761 107.436C94.6905 107.554 94.5469 107.719 94.4632 107.912C94.3795 108.105 94.3596 108.316 94.4058 108.52C94.4521 108.723 94.5626 108.909 94.7233 109.055C94.884 109.2 95.0879 109.299 95.3092 109.338C95.5306 109.377 95.7597 109.355 95.9676 109.275C96.1755 109.195 96.3531 109.06 96.478 108.887C96.6029 108.714 96.6695 108.511 96.6695 108.303C96.6721 108.162 96.6438 108.022 96.5863 107.891C96.5287 107.76 96.4431 107.641 96.3346 107.541C96.2261 107.441 96.0968 107.362 95.9546 107.309C95.8123 107.256 95.6599 107.23 95.5064 107.232V107.25ZM95.5064 109.199C95.3167 109.198 95.1314 109.146 94.974 109.049C94.8165 108.951 94.694 108.813 94.6217 108.651C94.5494 108.49 94.5307 108.312 94.5679 108.14C94.6051 107.969 94.6966 107.812 94.8308 107.688C94.9649 107.565 95.1358 107.48 95.3219 107.446C95.5079 107.412 95.7008 107.429 95.8763 107.496C96.0517 107.562 96.2018 107.675 96.3077 107.82C96.4136 107.965 96.4705 108.136 96.4712 108.31C96.4672 108.543 96.3637 108.765 96.1831 108.929C96.0025 109.092 95.7593 109.183 95.5064 109.182V109.199ZM53.9404 98.5247C53.715 98.5282 53.4957 98.5929 53.3101 98.7108C53.1245 98.8287 52.9808 98.9944 52.8972 99.1873C52.8135 99.3801 52.7935 99.5914 52.8398 99.7946C52.8861 99.9979 52.9965 100.184 53.1572 100.33C53.318 100.475 53.5218 100.574 53.7432 100.613C53.9646 100.652 54.1936 100.63 54.4016 100.55C54.6095 100.47 54.7871 100.335 54.9119 100.162C55.0368 99.9892 55.1035 99.7861 55.1035 99.5785C55.1061 99.4368 55.0776 99.2962 55.0199 99.1649C54.9621 99.0336 54.8762 98.9144 54.7673 98.8144C54.6583 98.7144 54.5286 98.6356 54.3859 98.5828C54.2432 98.5301 54.0904 98.5043 53.9366 98.5072L53.9404 98.5247ZM53.9404 100.474C53.7507 100.473 53.5654 100.421 53.408 100.324C53.2505 100.226 53.1279 100.088 53.0557 99.9261C52.9834 99.7645 52.9647 99.5869 53.0019 99.4155C53.0391 99.2441 53.1306 99.0867 53.2647 98.9631C53.3989 98.8396 53.5698 98.7553 53.7558 98.7211C53.9419 98.6868 54.1348 98.704 54.3102 98.7706C54.4857 98.8371 54.6358 98.9501 54.7417 99.0951C54.8475 99.2401 54.9044 99.4107 54.9052 99.5855C54.9012 99.819 54.7971 100.042 54.6157 100.205C54.4342 100.368 54.1902 100.458 53.9366 100.457L53.9404 100.474ZM65.8191 98.5247C65.5929 98.5247 65.3717 98.5865 65.1836 98.7023C64.9954 98.8181 64.8488 98.9827 64.7622 99.1752C64.6756 99.3678 64.653 99.5797 64.6971 99.7841C64.7412 99.9885 64.8502 100.176 65.0102 100.324C65.1702 100.471 65.374 100.571 65.596 100.612C65.8179 100.653 66.0479 100.632 66.2569 100.552C66.466 100.472 66.6447 100.337 66.7704 100.164C66.8961 99.9906 66.9632 99.7869 66.9632 99.5785C66.9657 99.4383 66.9379 99.2991 66.8813 99.169C66.8247 99.0389 66.7405 98.9205 66.6336 98.8207C66.5267 98.721 66.3993 98.6419 66.2588 98.588C66.1183 98.5342 65.9675 98.5067 65.8153 98.5072L65.8191 98.5247ZM65.8191 100.474C65.6294 100.473 65.4441 100.421 65.2867 100.324C65.1292 100.226 65.0067 100.088 64.9344 99.9261C64.8621 99.7645 64.8434 99.5869 64.8806 99.4155C64.9178 99.2441 65.0093 99.0867 65.1434 98.9631C65.2776 98.8396 65.4485 98.7553 65.6345 98.7211C65.8206 98.6868 66.0135 98.704 66.1889 98.7706C66.3644 98.8371 66.5145 98.9501 66.6204 99.0951C66.7263 99.2401 66.7832 99.4107 66.7839 99.5855C66.7799 99.819 66.6759 100.042 66.4944 100.205C66.313 100.368 66.0689 100.458 65.8153 100.457L65.8191 100.474ZM77.6941 98.5247C77.4686 98.5282 77.2494 98.5929 77.0638 98.7108C76.8781 98.8287 76.7345 98.9944 76.6508 99.1873C76.5671 99.3801 76.5472 99.5914 76.5935 99.7946C76.6397 99.9979 76.7502 100.184 76.9109 100.33C77.0716 100.475 77.2755 100.574 77.4969 100.613C77.7182 100.652 77.9473 100.63 78.1552 100.55C78.3631 100.47 78.5407 100.335 78.6656 100.162C78.7905 99.9892 78.8571 99.7861 78.8571 99.5785C78.8597 99.4368 78.8313 99.2962 78.7735 99.1649C78.7158 99.0336 78.6298 98.9144 78.5209 98.8144C78.412 98.7144 78.2823 98.6356 78.1396 98.5828C77.9968 98.5301 77.844 98.5043 77.6902 98.5072L77.6941 98.5247ZM77.6941 100.474C77.5043 100.473 77.3191 100.421 77.1616 100.324C77.0042 100.226 76.8816 100.088 76.8093 99.9261C76.7371 99.7645 76.7184 99.5869 76.7556 99.4155C76.7928 99.2441 76.8842 99.0867 77.0184 98.9631C77.1525 98.8396 77.3234 98.7553 77.5095 98.7211C77.6955 98.6868 77.8884 98.704 78.0639 98.7706C78.2393 98.8371 78.3894 98.9501 78.4953 99.0951C78.6012 99.2401 78.6581 99.4107 78.6589 99.5855C78.6548 99.819 78.5508 100.042 78.3693 100.205C78.1879 100.368 77.9438 100.458 77.6902 100.457L77.6941 100.474ZM89.569 98.5247C89.3427 98.5247 89.1215 98.5865 88.9334 98.7023C88.7453 98.8181 88.5986 98.9827 88.5121 99.1752C88.4255 99.3678 88.4028 99.5797 88.4469 99.7841C88.4911 99.9885 88.6 100.176 88.76 100.324C88.92 100.471 89.1239 100.571 89.3458 100.612C89.5677 100.653 89.7977 100.632 90.0068 100.552C90.2158 100.472 90.3945 100.337 90.5202 100.164C90.6459 99.9906 90.713 99.7869 90.713 99.5785C90.7155 99.4383 90.6877 99.2991 90.6311 99.169C90.5745 99.0389 90.4903 98.9205 90.3834 98.8207C90.2765 98.721 90.1491 98.6419 90.0086 98.588C89.8681 98.5342 89.7173 98.5067 89.5652 98.5072L89.569 98.5247ZM89.569 100.474C89.3792 100.473 89.194 100.421 89.0365 100.324C88.8791 100.226 88.7565 100.088 88.6842 99.9261C88.612 99.7645 88.5933 99.5869 88.6305 99.4155C88.6677 99.2441 88.7591 99.0867 88.8933 98.9631C89.0275 98.8396 89.1983 98.7553 89.3844 98.7211C89.5704 98.6868 89.7633 98.704 89.9388 98.7706C90.1142 98.8371 90.2643 98.9501 90.3702 99.0951C90.4761 99.2401 90.533 99.4107 90.5338 99.5855C90.5298 99.819 90.4257 100.042 90.2443 100.205C90.0628 100.368 89.8187 100.458 89.5652 100.457L89.569 100.474Z" fill="white"/>
<path d="M86.8272 93.1155C84.2033 93.3785 81.6042 93.8211 79.0517 94.4397C77.7856 94.7628 76.5463 95.1422 75.3069 95.5391C74.693 95.7393 74.0714 95.9184 73.446 96.0976C72.7978 96.2997 72.1257 96.4294 71.444 96.4839C71.4318 96.4839 71.4202 96.4884 71.4116 96.4963C71.403 96.5042 71.3982 96.5149 71.3982 96.5261C71.3982 96.5373 71.403 96.548 71.4116 96.5559C71.4202 96.5638 71.4318 96.5682 71.444 96.5682C72.0906 96.5846 72.7377 96.5623 73.3812 96.5015C74.0014 96.4209 74.6154 96.3036 75.2192 96.1503C76.5043 95.8341 77.7742 95.4478 79.0555 95.1316C81.641 94.4678 84.2265 93.8074 86.8615 93.3157C86.9836 93.2911 86.9454 93.1014 86.8272 93.1155Z" fill="#030712"/>
<path d="M93.3672 95.1387C91.1974 94.9701 89.0191 94.9138 86.8425 94.9701C85.7557 95.0017 84.6765 95.093 83.5935 95.2089C83.0748 95.2651 82.56 95.3283 82.0452 95.3986C81.5304 95.4688 80.9241 95.6234 80.3559 95.6936C80.2987 95.6936 80.2987 95.785 80.3559 95.7779C80.8936 95.7288 81.4427 95.7604 81.9804 95.7393L83.6087 95.669C84.6917 95.6234 85.7785 95.5918 86.8615 95.5391C89.0352 95.4302 91.1974 95.3424 93.371 95.3037C93.493 95.3037 93.4816 95.1492 93.3672 95.1387Z" fill="#030712"/>
<path d="M61.7503 65.4549C46.4967 79.4134 35.7696 90.6393 36.2005 95.8342C37.1272 107.475 44.2925 109.484 45.4594 109.062C57.811 104.601 64.3129 83.1753 68.9157 69.6523C73.4727 56.2311 66.1166 61.4682 61.7503 65.4549Z" fill="#D3766A"/>
<path d="M40.1169 84.6504L60.6673 93.6494C60.6673 93.6494 68.0043 77.5869 70.2886 67.6571C72.5728 57.7274 68.3208 58.2226 59.3708 66.3048C50.4207 74.387 40.1169 84.6504 40.1169 84.6504Z" fill="#10B981"/>
<path d="M59.8703 72.0232C59.6449 72.0267 59.4256 72.0914 59.24 72.2092C59.0544 72.3271 58.9107 72.4929 58.8271 72.6857C58.7434 72.8785 58.7235 73.0898 58.7697 73.2931C58.816 73.4963 58.9264 73.6824 59.0872 73.828C59.2479 73.9736 59.4517 74.0723 59.6731 74.1115C59.8945 74.1508 60.1235 74.1289 60.3315 74.0487C60.5394 73.9684 60.717 73.8334 60.8419 73.6605C60.9667 73.4876 61.0334 73.2846 61.0334 73.0769C61.0334 72.9371 61.0032 72.7986 60.9445 72.6696C60.8859 72.5406 60.7999 72.4236 60.6916 72.3255C60.5834 72.2275 60.455 72.1502 60.314 72.0983C60.173 72.0464 60.0222 72.0209 59.8703 72.0232ZM59.8703 73.9726C59.6806 73.9719 59.4953 73.9195 59.3379 73.822C59.1804 73.7244 59.0578 73.5862 58.9856 73.4246C58.9133 73.263 58.8946 73.0853 58.9318 72.9139C58.969 72.7426 59.0605 72.5852 59.1946 72.4616C59.3288 72.338 59.4997 72.2538 59.6857 72.2195C59.8718 72.1852 60.0647 72.2025 60.2401 72.269C60.4156 72.3356 60.5657 72.4485 60.6716 72.5935C60.7775 72.7385 60.8344 72.9092 60.8351 73.084C60.8356 73.2008 60.811 73.3166 60.7627 73.4246C60.7144 73.5326 60.6433 73.6308 60.5537 73.7134C60.464 73.796 60.3574 73.8614 60.2401 73.9059C60.1228 73.9504 59.9972 73.9731 59.8703 73.9726ZM65.8116 63.2982C65.5853 63.2982 65.3641 63.36 65.176 63.4758C64.9879 63.5916 64.8412 63.7562 64.7547 63.9487C64.6681 64.1413 64.6454 64.3531 64.6896 64.5575C64.7337 64.7619 64.8427 64.9497 65.0027 65.0971C65.1626 65.2444 65.3665 65.3448 65.5884 65.3855C65.8103 65.4261 66.0404 65.4052 66.2494 65.3255C66.4584 65.2457 66.6371 65.1107 66.7628 64.9374C66.8885 64.7641 66.9556 64.5604 66.9556 64.352C66.9556 64.0731 66.8356 63.8056 66.6219 63.6081C66.4082 63.4106 66.1182 63.2991 65.8154 63.2982H65.8116ZM65.8116 65.2476C65.6219 65.2469 65.4366 65.1945 65.2791 65.097C65.1217 64.9995 64.9991 64.8612 64.9269 64.6996C64.8546 64.538 64.8359 64.3603 64.8731 64.189C64.9103 64.0176 65.0017 63.8602 65.1359 63.7366C65.2701 63.613 65.4409 63.5288 65.627 63.4945C65.8131 63.4603 66.006 63.4775 66.1814 63.5441C66.3568 63.6106 66.507 63.7235 66.6128 63.8685C66.7187 64.0136 66.7756 64.1842 66.7764 64.359C66.7769 64.4755 66.7524 64.591 66.7043 64.6988C66.6563 64.8066 66.5856 64.9046 66.4963 64.9871C66.407 65.0697 66.3009 65.1352 66.184 65.1799C66.0672 65.2246 65.9419 65.2476 65.8154 65.2476H65.8116ZM59.8703 89.6277C59.6449 89.6311 59.4256 89.6959 59.24 89.8137C59.0544 89.9316 58.9107 90.0974 58.8271 90.2902C58.7434 90.483 58.7235 90.6943 58.7697 90.8976C58.816 91.1008 58.9264 91.2869 59.0872 91.4325C59.2479 91.5781 59.4517 91.6768 59.6731 91.716C59.8945 91.7553 60.1235 91.7334 60.3315 91.6532C60.5394 91.5729 60.717 91.4379 60.8419 91.265C60.9667 91.0921 61.0334 90.8891 61.0334 90.6814C61.0334 90.5416 61.0032 90.4031 60.9445 90.2741C60.8859 90.1451 60.7999 90.0281 60.6916 89.93C60.5834 89.832 60.455 89.7547 60.314 89.7028C60.173 89.6509 60.0222 89.6254 59.8703 89.6277ZM59.8703 91.5771C59.6806 91.5764 59.4953 91.524 59.3379 91.4265C59.1804 91.3289 59.0578 91.1907 58.9856 91.0291C58.9133 90.8675 58.8946 90.6898 58.9318 90.5184C58.969 90.347 59.0605 90.1897 59.1946 90.0661C59.3288 89.9425 59.4997 89.8583 59.6857 89.824C59.8718 89.7897 60.0647 89.807 60.2401 89.8735C60.4156 89.9401 60.5657 90.053 60.6716 90.198C60.7775 90.343 60.8344 90.5137 60.8351 90.6885C60.8356 90.8053 60.811 90.921 60.7627 91.0291C60.7144 91.1371 60.6433 91.2353 60.5537 91.3179C60.464 91.4005 60.3574 91.4659 60.2401 91.5104C60.1228 91.5549 59.9972 91.5776 59.8703 91.5771ZM43.1676 81.6333L43.0075 81.7879C43.0133 81.8463 43.0133 81.9051 43.0075 81.9635C43.0075 82.1992 42.9058 82.4252 42.7249 82.5919C42.544 82.7585 42.2986 82.8521 42.0427 82.8521H41.9168C41.8596 82.9048 41.8101 82.9575 41.7605 83.0067C41.8522 83.0309 41.9473 83.0427 42.0427 83.0418C42.1945 83.0418 42.3449 83.014 42.4849 82.9599C42.625 82.9059 42.752 82.8267 42.8585 82.727C42.9649 82.6273 43.0488 82.509 43.1052 82.3791C43.1615 82.2493 43.1892 82.1103 43.1867 81.9705C43.2005 81.8579 43.194 81.744 43.1676 81.6333ZM53.9367 80.9027C53.7113 80.9062 53.492 80.9709 53.3064 81.0888C53.1208 81.2066 52.9771 81.3724 52.8934 81.5652C52.8098 81.758 52.7898 81.9693 52.8361 82.1726C52.8823 82.3758 52.9928 82.5619 53.1535 82.7075C53.3142 82.8532 53.5181 82.9518 53.7395 82.991C53.9609 83.0303 54.1899 83.0084 54.3978 82.9282C54.6058 82.8479 54.7833 82.7129 54.9082 82.54C55.0331 82.3671 55.0997 82.1641 55.0998 81.9565C55.0998 81.8166 55.0696 81.6781 55.0109 81.5491C54.9522 81.4201 54.8662 81.3032 54.758 81.2051C54.6497 81.107 54.5213 81.0297 54.3803 80.9778C54.2393 80.9259 54.0885 80.9004 53.9367 80.9027ZM53.9367 82.8521C53.7469 82.8514 53.5617 82.799 53.4042 82.7015C53.2468 82.604 53.1242 82.4657 53.0519 82.3041C52.9797 82.1425 52.961 81.9648 52.9982 81.7935C53.0354 81.6221 53.1268 81.4647 53.261 81.3411C53.3951 81.2175 53.566 81.1333 53.7521 81.099C53.9381 81.0648 54.131 81.082 54.3065 81.1486C54.4819 81.2151 54.632 81.328 54.7379 81.473C54.8438 81.6181 54.9007 81.7887 54.9015 81.9635C54.902 82.0803 54.8774 82.1961 54.8291 82.3041C54.7807 82.4121 54.7097 82.5103 54.62 82.5929C54.5303 82.6755 54.4238 82.7409 54.3065 82.7854C54.1892 82.8299 54.0635 82.8526 53.9367 82.8521ZM65.8154 80.9027C65.512 80.9027 65.221 81.0137 65.0065 81.2113C64.7919 81.409 64.6714 81.677 64.6714 81.9565C64.6661 82.1421 64.7127 82.326 64.8069 82.4902C64.9011 82.6545 65.0396 82.7936 65.2091 82.8943L65.2777 82.7187C65.1465 82.6364 65.039 82.5259 64.9646 82.3968C64.8901 82.2676 64.851 82.1237 64.8506 81.9775C64.8516 81.7449 64.9524 81.5221 65.131 81.3576C65.3095 81.1931 65.5514 81.1003 65.804 81.0994H65.9069C65.9298 81.0432 65.9489 80.987 65.9718 80.9273C65.9206 80.9144 65.8683 80.9062 65.8154 80.9027Z" fill="white"/>
<path d="M44.0601 81.6157C52.0415 86.0274 59.695 88.7742 61.2203 89.4942C61.2928 89.5258 61.3462 89.4169 61.2699 89.3853C59.7179 88.7531 51.2483 84.4679 44.1096 81.4963C44.0334 81.4612 43.9838 81.5736 44.0601 81.6157Z" fill="#030712"/>
<path d="M59.344 93.0136C59.7618 93.1279 60.1719 93.2651 60.5719 93.4246C62.1964 89.8208 61.9142 90.6427 63.5769 87.0565C64.3929 85.2979 65.2077 83.5417 66.0212 81.7878C66.864 79.9578 67.6 78.061 68.5495 76.2767C68.5563 76.2689 68.5657 76.2634 68.5763 76.261C68.5869 76.2586 68.598 76.2594 68.6079 76.2634C68.6179 76.2674 68.6262 76.2743 68.6315 76.2831C68.6368 76.2918 68.6388 76.3019 68.6372 76.3118C68.0943 78.0239 67.458 79.7097 66.7305 81.3628C66.8907 81.1028 67.0394 80.8359 67.2148 80.583C67.5962 80.014 67.9775 79.4449 68.336 78.8478C68.3894 78.7565 68.5533 78.8197 68.5 78.9111C68.172 79.4801 67.8898 80.0596 67.6114 80.6673C67.3331 81.2749 67.0127 81.8264 66.6886 82.3989C66.3645 82.9715 66.0251 83.4773 65.6704 84.0041L65.5446 84.2008C65.106 85.2546 64.6827 86.2908 64.2175 87.3234C62.5968 90.9448 60.8541 93.8215 60.7854 93.8109C60.2703 93.6233 59.7718 93.399 59.2944 93.1401C59.241 93.0804 59.2906 93.0136 59.344 93.0136Z" fill="#030712"/>
<path d="M65.3999 43.9058C65.9793 44.2388 66.65 44.4123 67.333 44.406C68.0159 44.3997 68.6827 44.2139 69.2548 43.8703C69.8269 43.5267 70.2806 43.0398 70.5624 42.4667C70.8442 41.8937 70.9424 41.2584 70.8454 40.6357C72.161 41.2398 73.7398 41.2469 74.8418 40.1756C75.9439 39.1043 75.8791 37.471 74.899 36.3118C75.6617 37.4499 75.7418 38.9743 74.6779 39.9859C73.7665 40.8499 72.611 40.9167 71.5166 40.5865C72.0604 40.5863 72.5984 40.483 73.097 40.283C73.5956 40.0829 74.0442 39.7905 74.4147 39.4239C74.8115 39.0036 75.0651 38.485 75.1437 37.9328C75.2224 37.3805 75.1227 36.8192 74.8571 36.3189C76.1003 35.7569 77.2176 34.7558 77.4617 33.4527C77.5714 32.9123 77.508 32.3542 77.2791 31.8465C77.0502 31.3387 76.6658 30.9034 76.1727 30.5935C76.7123 30.2268 77.1234 29.7226 77.3554 29.1431C77.5873 28.5636 77.6298 27.9342 77.4777 27.3326C77.3256 26.7311 76.9855 26.1838 76.4994 25.7583C76.0134 25.3328 75.4027 25.0478 74.7427 24.9385C75.1007 24.6399 75.3716 24.2632 75.5303 23.843C75.6891 23.4229 75.7308 22.9727 75.6514 22.5339C75.5721 22.095 75.3743 21.6816 75.0763 21.3315C74.7782 20.9814 74.3895 20.7059 73.9457 20.5303C74.17 20.2574 74.3044 19.9309 74.3328 19.5896C74.3612 19.2483 74.2824 18.9067 74.1059 18.6055C73.7245 17.903 72.9085 17.485 72.1 17.2426C72.1366 16.8866 72.0758 16.5279 71.9233 16.199C71.7708 15.8702 71.5313 15.5817 71.2267 15.36C70.8244 15.0872 70.3297 14.9555 69.8315 14.9883C69.3332 15.0211 68.8639 15.2164 68.5078 15.5391C67.6917 14.5064 66.6469 13.4948 65.2435 13.2244C64.0995 12.9996 62.7763 13.3262 62.1089 14.25C61.7019 13.8576 61.2092 13.549 60.6633 13.3448C60.1174 13.1406 59.5307 13.0453 58.9419 13.0652C58.3531 13.0851 57.7756 13.2198 57.2474 13.4604C56.7192 13.7009 56.2524 14.0419 55.8778 14.4608C55.4288 14.2317 54.9225 14.1151 54.4093 14.1225C53.8961 14.1299 53.3939 14.261 52.9529 14.5029C52.3358 14.8135 51.8118 15.26 51.4276 15.8025C51.0104 15.6238 50.5427 15.5707 50.0909 15.6508C49.6391 15.7309 49.2261 15.94 48.9107 16.2486C48.6262 16.5446 48.4164 16.895 48.2964 17.2746C48.1764 17.6541 48.1492 18.0535 48.2167 18.4439C48.103 18.6494 47.9399 18.8284 47.74 18.9673C47.2419 19.3194 46.8458 19.7793 46.587 20.3063C46.3283 20.8332 46.2148 21.4109 46.2566 21.988C45.9124 22.1107 45.6005 22.2994 45.3416 22.5417C45.0827 22.784 44.8828 23.0743 44.7551 23.3932C44.6274 23.7122 44.5749 24.0525 44.601 24.3916C44.6272 24.7307 44.7314 25.0608 44.9067 25.36C44.3074 25.8024 43.9211 26.4442 43.8312 27.1467C43.7413 27.8492 43.955 28.5561 44.4262 29.1148C43.9805 29.5015 43.6306 29.9721 43.4003 30.4946C43.17 31.0171 43.0647 31.5792 43.0915 32.1425C43.1373 33.0171 43.5949 33.9725 44.5215 34.25C44.0258 34.7628 44.2622 35.5918 44.7808 36.0625C44.9798 36.2383 45.1999 36.3926 45.4367 36.5226C45.7592 36.6546 46.0555 36.835 46.3138 37.0565C46.5274 37.3059 46.4969 37.6747 46.5693 37.9662C46.6239 38.1779 46.7018 38.3838 46.8019 38.5809C47.1876 39.3094 47.8319 39.8946 48.6281 40.2396C49.4243 40.5845 50.3246 40.6685 51.1797 40.4776C51.4695 41.6122 52.6822 42.2339 53.8491 42.42C54.2349 42.4772 54.6253 42.503 55.016 42.4973C55.3643 42.472 55.7125 42.5482 56.0113 42.7151C56.202 42.831 56.3621 42.989 56.5528 43.105C57.2011 43.5089 57.9485 43.4562 58.673 43.3052C59.5654 46.3224 63.6838 46.2873 65.3999 43.9058ZM48.8459 16.7333C49.1199 16.3712 49.5091 16.0962 49.9599 15.9465C50.4107 15.7967 50.9009 15.7796 51.3628 15.8974L51.3056 15.9922C51.3056 15.9922 50.989 15.9922 50.8327 16.0203C50.5511 16.0588 50.2774 16.1357 50.0204 16.2486C49.4782 16.4792 49.0228 16.8534 48.7124 17.3234C48.5811 17.5346 48.4786 17.7599 48.4074 17.9943L48.3731 18.0821C48.3908 17.6007 48.5546 17.1334 48.8459 16.7333ZM71.1619 16.0905C70.8353 15.7961 70.4184 15.6011 69.9676 15.532C69.5168 15.4629 69.0538 15.523 68.6413 15.7042L68.5955 15.648C69.3811 15.1492 70.2505 14.8928 71.1238 15.518C71.3911 15.7118 71.5981 15.9672 71.724 16.2583C71.8498 16.5494 71.8901 16.8659 71.8407 17.1759C71.731 16.762 71.4956 16.3856 71.1619 16.0905ZM58.8179 43.2911H58.8485C59.3801 44.1207 60.2419 44.7268 61.2508 44.9806C62.2598 45.2344 63.3364 45.116 64.252 44.6504C62.3072 45.8025 59.8933 45.7674 58.8179 43.2911Z" fill="#030712"/>
<path d="M69.0225 63.4176C69.3275 64.3344 74.8226 71.6122 80.1538 70.3337C82.3922 69.7998 80.1538 61.8265 80.1538 61.8265L81.5647 53.2666L69.5754 47.2954C69.5754 47.2954 68.9081 63.0278 69.0225 63.4176Z" fill="#D3766A"/>
<path d="M81.5686 53.263L80.1958 61.5735C78.842 61.4611 72.8016 60.5198 69.3352 53.2068C69.4649 49.9999 69.5793 47.2848 69.5793 47.2848L81.5686 53.263Z" fill="#030712"/>
<path d="M92.4444 40.2212C97.1464 53.7266 88.8942 57.8433 85.7329 58.7741C82.8614 59.6206 72.9656 62.1601 66.7765 49.171C60.5873 36.1819 65.9185 29.9051 72.3745 27.6536C78.8306 25.4021 87.7463 26.7158 92.4444 40.2212Z" fill="#D3766A"/>
<path d="M87.3841 36.5999C87.0294 36.6064 86.6754 36.6322 86.324 36.6771C85.947 36.6553 85.5729 36.7492 85.26 36.9441C85.1738 37.0226 85.1186 37.1255 85.1034 37.2363C85.0882 37.3471 85.1138 37.4594 85.1761 37.5552C85.3278 37.7285 85.5267 37.8614 85.7526 37.9404C85.9784 38.0194 86.223 38.0417 86.4612 38.0048C86.9573 37.9971 87.4327 37.8207 87.7959 37.5096C87.873 37.4335 87.9246 37.3386 87.9446 37.2363C87.9646 37.1339 87.9521 37.0284 87.9086 36.9324C87.8651 36.8363 87.7925 36.7539 87.6995 36.6949C87.6065 36.636 87.497 36.603 87.3841 36.5999Z" fill="#030712"/>
<path d="M77.1222 42.1706C77.3489 41.925 77.5895 41.6905 77.8429 41.4681C78.0567 41.181 78.3679 40.9673 78.7276 40.8605C78.848 40.8478 78.9695 40.8719 79.0735 40.929C79.1775 40.9861 79.2583 41.0731 79.3035 41.1766C79.3586 41.3935 79.3495 41.6201 79.2771 41.8326C79.2046 42.0452 79.0715 42.2359 78.8916 42.3849C78.5813 42.7402 78.1378 42.9758 77.6485 43.0452C77.5323 43.0593 77.4143 43.0408 77.3098 42.9922C77.2052 42.9437 77.1189 42.8672 77.0621 42.7729C77.0054 42.6786 76.9807 42.5707 76.9915 42.4632C77.0022 42.3558 77.0477 42.2539 77.1222 42.1706Z" fill="#030712"/>
<path d="M80.619 44.51C80.619 44.4749 80.5542 44.5732 80.5656 44.6119C80.8707 45.5357 81.0499 46.6421 80.2262 47.1795C80.1995 47.1971 80.2262 47.2427 80.2491 47.2287C81.3245 46.8072 81.069 45.339 80.619 44.51Z" fill="#030712"/>
<path d="M79.4292 43.7618C77.7704 44.0534 78.5216 47.0917 80.0623 46.8212C81.6029 46.5507 80.8211 43.516 79.4292 43.7618Z" fill="#030712"/>
<path d="M78.823 44.0569C78.5751 44.2887 78.3692 44.654 78.0298 44.7594C77.6904 44.8648 77.2671 44.6259 76.9163 44.373C76.882 44.3485 76.8591 44.373 76.8667 44.4222C77.004 45.0053 77.3929 45.5532 78.0946 45.497C78.7315 45.4443 79.048 44.8367 79.0594 44.2185C79.0632 44.1026 78.9374 43.9656 78.823 44.0569Z" fill="#030712"/>
<path d="M86.5222 42.8521C86.5222 42.8169 86.6099 42.8802 86.6176 42.9188C86.812 43.8707 87.2086 44.9279 88.2077 45.0544C88.2382 45.0544 88.2459 45.1036 88.2077 45.1071C87.0485 45.1808 86.5375 43.7688 86.5222 42.8521Z" fill="#030712"/>
<path d="M87.2009 41.6719C88.8178 41.2223 89.6758 44.2395 88.1733 44.654C86.6709 45.0684 85.8434 42.0477 87.2009 41.6719Z" fill="#030712"/>
<path d="M87.9369 41.707C88.242 41.8018 88.5814 42.0336 88.8941 41.9774C89.2068 41.9212 89.4318 41.5208 89.5729 41.152C89.5729 41.1169 89.6186 41.152 89.6339 41.1731C89.8131 41.7456 89.775 42.3954 89.2068 42.6518C88.6386 42.9082 88.1429 42.4867 87.8302 41.9493C87.773 41.851 87.8149 41.6648 87.9369 41.707Z" fill="#030712"/>
<path d="M81.1034 52.5079C81.3932 52.687 81.7021 52.954 82.0796 52.9188C82.463 52.8481 82.8256 52.7033 83.1436 52.4938C83.1503 52.4907 83.1578 52.4895 83.1653 52.4904C83.1728 52.4912 83.1798 52.4941 83.1855 52.4986C83.1912 52.5031 83.1953 52.509 83.1973 52.5157C83.1994 52.5223 83.1993 52.5294 83.197 52.536C83.0866 52.7478 82.9158 52.9279 82.7029 53.0572C82.49 53.1865 82.2429 53.2601 81.9881 53.2701C81.7683 53.2548 81.5583 53.1799 81.3846 53.0549C81.2109 52.9299 81.0812 52.7603 81.0119 52.5676C80.9852 52.5149 81.0615 52.4798 81.1034 52.5079Z" fill="#030712"/>
<path d="M82.8079 50.5795C84.3981 49.7295 85.2866 49.7681 86.3429 49.589C86.4497 49.5398 86.6785 49.3888 86.6632 49.2834L85.9349 47.3867C86.2514 47.4323 87.8416 47.6009 87.7005 47.2462C86.4764 44.3203 85.1112 41.0607 83.2197 38.3877C83.2074 38.3694 83.1883 38.3559 83.1659 38.3497C83.1435 38.3436 83.1195 38.3452 83.0983 38.3543C83.0771 38.3634 83.0603 38.3793 83.0511 38.3991C83.0418 38.4189 83.0408 38.4411 83.0481 38.4615C84.1083 41.3206 85.7175 43.9866 86.8158 46.8387C86.2454 46.7724 85.6676 46.7807 85.0997 46.8633C85.0044 46.923 85.9806 48.8373 86.0531 49.157C86.0531 49.157 84.3866 49.0235 82.621 50.4566C82.2321 50.7762 82.2244 50.8991 82.8079 50.5795Z" fill="#030712"/>
<path d="M80.3063 28.9497C80.3063 28.9497 81.2634 30.9307 80.76 32.5394C79.7228 35.8517 75.5776 35.648 74.426 37.067C73.3468 38.4018 74.2163 40.6919 73.2591 42.0056C71.9358 43.825 69.6402 43.544 69.5639 44.6469C69.4876 45.7498 69.3313 49.2448 67.947 49.8946C66.5628 50.5444 55.8281 29.0726 75.0743 26.8949C75.0743 26.8949 77.5225 25.5075 81.9384 26.793C86.8005 28.198 89.977 34.7488 89.977 34.7488C89.977 34.7488 89.8664 34.6715 89.1152 34.236C88.0589 33.6213 87.5898 32.9785 86.8272 32.5921C85.6259 31.988 85.0959 32.3638 83.8565 31.7843C81.9536 30.9097 80.3063 28.9497 80.3063 28.9497Z" fill="#030712"/>
<path d="M79.8372 28.0154C80.2924 28.8494 80.6429 29.7285 80.8821 30.6357C81.1665 31.5121 81.1876 32.4432 80.9431 33.3297C80.5788 34.1569 79.9014 34.8345 79.0364 35.237C78.1822 35.6866 77.1945 35.9395 76.2793 36.4348C75.8045 36.6949 75.4166 37.0704 75.1581 37.5201C74.9499 37.9774 74.841 38.4679 74.8378 38.9637C74.7997 39.9016 74.7501 40.8254 74.2162 41.5735C73.952 41.9495 73.6018 42.2679 73.1901 42.5063C72.7785 42.7447 72.3153 42.8975 71.8329 42.9539C70.8681 43.1014 69.7584 43.0136 68.8889 43.544C69.8041 43.0804 70.8452 43.249 71.8634 43.1682C72.3929 43.1284 72.9064 42.9819 73.3677 42.7391C73.829 42.4963 74.2267 42.1632 74.5327 41.7632C75.1886 40.9483 75.223 39.8946 75.2954 38.9918C75.3023 38.5499 75.402 38.1133 75.5891 37.7063C75.8192 37.3333 76.1537 37.024 76.5577 36.8106C77.3737 36.3364 78.369 36.073 79.2728 35.5883C79.734 35.3509 80.1521 35.0487 80.5122 34.6926C80.8966 34.3426 81.1764 33.907 81.3244 33.4281C81.5452 32.4804 81.4792 31.495 81.1337 30.5795C80.8103 29.6816 80.3753 28.8212 79.8372 28.0154Z" fill="#030712"/>
<path d="M80.3484 28.7671C80.6888 29.5854 81.1466 30.358 81.7098 31.0642C82.2705 31.813 83.0603 32.3913 83.9787 32.7256C84.4351 32.8617 84.9053 32.9547 85.3821 33.0031C85.8057 33.0611 86.2026 33.2293 86.5261 33.4878C86.8321 33.8299 87.1744 34.1429 87.5481 34.4222C87.9469 34.6706 88.4022 34.8316 88.879 34.8928C88.4457 34.7468 88.0479 34.5237 87.7082 34.236C87.3779 33.9348 87.0791 33.6055 86.8159 33.2525C86.4595 32.9105 85.9952 32.6807 85.4888 32.5957C85.0374 32.537 84.5921 32.4429 84.158 32.3147C83.3233 31.9987 82.5897 31.4922 82.0263 30.843C81.4172 30.1863 80.8567 29.4928 80.3484 28.7671Z" fill="#030712"/>
<path d="M70.8567 47.9803C70.8567 47.9803 66.5133 44.3519 64.6523 45.8728C62.7914 47.3937 66.7993 53.1366 69.5106 53.4703C69.8546 53.535 70.2092 53.5349 70.5532 53.47C70.8971 53.4051 71.2232 53.2767 71.5118 53.0925C71.8004 52.9084 72.0456 52.6724 72.2325 52.3987C72.4195 52.1249 72.5443 51.8192 72.5995 51.4998L70.8567 47.9803Z" fill="#D3766A"/>
<path d="M65.8461 47.4921C65.8041 47.4921 65.8117 47.5518 65.8461 47.5553C67.7528 47.8434 69.0455 49.1465 70.0751 50.5585C69.4078 50.0738 68.6184 49.8946 67.89 50.6463C67.8519 50.6849 67.9129 50.7411 67.9587 50.7236C68.2437 50.5683 68.574 50.4985 68.9039 50.5237C69.2339 50.5488 69.5472 50.6678 69.8005 50.8641C70.2258 51.1934 70.6095 51.5658 70.9446 51.974C71.0628 52.1005 71.3259 51.974 71.2268 51.8089L71.2039 51.7738C70.7386 49.712 68.2943 47.1971 65.8461 47.4921Z" fill="#030712"/>
<path d="M68.2598 53.1366C68.439 53.7548 65.9374 52.0618 65.7582 51.7667C65.579 51.4717 64.0117 50.8324 63.5083 50.2915C62.8214 49.471 62.2224 48.5911 61.7198 47.6642C61.5597 47.2392 60.4309 46.3365 60.2478 45.5567C60.0648 44.7769 58.7225 37.903 62.5893 32.3006C66.4561 26.6982 70.7957 25.5005 70.7957 25.5005C72.9407 24.7282 75.1708 24.1735 77.4463 23.8461C81.1338 23.3298 88.2573 30.0913 88.3145 30.2599C88.3717 30.4285 88.2534 31.0116 88.5394 31.4471C88.8254 31.8826 89.4966 32.2585 89.3021 32.7643C89.1076 33.2701 90.1411 34.2852 90.2478 34.7699C90.3546 35.2546 90.2478 35.4092 90.4194 35.7183C90.5911 36.0274 86.831 27.8855 75.0019 27.2181C75.0209 27.2181 64.3892 39.8454 68.2598 53.1366Z" fill="#10B981"/>
<path d="M90.4004 35.6305C90.4105 35.6607 90.4232 35.6901 90.4385 35.7183C90.4538 35.7429 90.4423 35.7113 90.4004 35.6305Z" fill="#10B981"/>
<path d="M90.3965 35.6305C90.4089 35.6604 90.4229 35.6897 90.4384 35.7183C90.4537 35.7429 90.4422 35.7113 90.3965 35.6305Z" fill="#10B981"/>
<path opacity="0.3" d="M83.5514 26.6947C83.6692 26.6355 83.7991 26.5996 83.9328 26.5893C84.2912 26.8493 84.6421 27.1057 84.9738 27.3656C84.9988 27.5422 84.9652 27.7216 84.8774 27.8802C84.7896 28.0388 84.6517 28.1692 84.4819 28.2543C84.3702 28.3211 84.2447 28.366 84.1134 28.3861C83.982 28.4063 83.8475 28.4012 83.7183 28.3713C83.5891 28.3414 83.468 28.2873 83.3626 28.2124C83.2571 28.1374 83.1696 28.0432 83.1055 27.9357C83.0413 27.8282 83.0019 27.7097 82.9898 27.5875C82.9776 27.4653 82.9929 27.3422 83.0348 27.2257C83.0766 27.1092 83.1441 27.002 83.233 26.9106C83.3219 26.8192 83.4303 26.7458 83.5514 26.6947ZM78.2127 27.6185C78.8635 27.7426 79.4864 27.889 80.0812 28.0576C80.1269 27.9406 80.1455 27.8161 80.1359 27.6921C80.1263 27.5681 80.0886 27.4473 80.0253 27.3375C79.962 27.2277 79.8745 27.1312 79.7684 27.0544C79.6623 26.9775 79.54 26.922 79.4092 26.8912C79.2784 26.8605 79.1421 26.8553 79.009 26.8759C78.8759 26.8966 78.7489 26.9426 78.6363 27.0111C78.5236 27.0796 78.4277 27.169 78.3548 27.2736C78.2818 27.3782 78.2334 27.4957 78.2127 27.6185ZM85.6641 30.6322C86.1662 30.9739 86.6475 31.3409 87.1055 31.7316C87.3045 31.5986 87.4411 31.4009 87.4877 31.1786C87.5343 30.9563 87.4873 30.7259 87.3564 30.5343C87.2255 30.3427 87.0203 30.2041 86.7825 30.1466C86.5447 30.0891 86.2921 30.117 86.0759 30.2248C85.8897 30.3076 85.7383 30.4446 85.645 30.6146L85.6641 30.6322ZM64.309 30.1334C64.4018 30.2218 64.5134 30.2916 64.6368 30.3384C64.7603 30.3852 64.8929 30.408 65.0263 30.4053C65.1598 30.4027 65.2912 30.3746 65.4123 30.323C65.5334 30.2713 65.6417 30.1972 65.7302 30.1052C65.8188 30.0132 65.8857 29.9053 65.9269 29.7884C65.968 29.6714 65.9825 29.5479 65.9693 29.4255C65.9562 29.3032 65.9157 29.1847 65.8505 29.0774C65.7853 28.9701 65.6967 28.8764 65.5903 28.8022C65.167 29.1991 64.7399 29.6311 64.309 30.1159V30.1334ZM66.2882 37.4429C66.3801 37.5979 66.5199 37.7244 66.6899 37.8061C66.8599 37.8879 67.0525 37.9214 67.2431 37.9022C67.4338 37.8831 67.614 37.8123 67.7609 37.6987C67.9079 37.5852 68.0149 37.434 68.0684 37.2643C68.1219 37.0947 68.1196 36.9143 68.0617 36.7458C68.0037 36.5774 67.8928 36.4287 67.743 36.3184C67.5932 36.2081 67.4112 36.1412 67.2201 36.1263C67.029 36.1114 66.8374 36.1491 66.6695 36.2346C66.4513 36.3492 66.2896 36.5373 66.2186 36.7592C66.1475 36.9812 66.1724 37.2199 66.2882 37.4253V37.4429ZM75.1238 24.8015C75.1816 24.9096 75.2625 25.0058 75.3617 25.0843C75.461 25.1628 75.5764 25.222 75.7011 25.2583C75.8259 25.2945 75.9573 25.3072 76.0874 25.2954C76.2176 25.2837 76.3439 25.2477 76.4586 25.1898C76.5732 25.1319 76.674 25.0532 76.7548 24.9584C76.8355 24.8636 76.8946 24.7548 76.9285 24.6384C76.9623 24.522 76.9702 24.4005 76.9517 24.2813C76.9332 24.162 76.8887 24.0474 76.8208 23.9445C76.1878 24.0428 75.5814 24.1622 75.017 24.2957C74.996 24.4704 75.0332 24.6468 75.1238 24.8015ZM70.5096 27.8293C70.5674 27.9373 70.6483 28.0335 70.7475 28.112C70.8467 28.1905 70.9622 28.2497 71.0869 28.286C71.2117 28.3223 71.3431 28.3349 71.4732 28.3232C71.6034 28.3114 71.7296 28.2755 71.8443 28.2176C71.959 28.1596 72.0598 28.0809 72.1406 27.9861C72.2213 27.8914 72.2804 27.7825 72.3143 27.6661C72.3481 27.5498 72.356 27.4283 72.3375 27.309C72.319 27.1898 72.2745 27.0752 72.2066 26.9722C72.0771 26.7758 71.8703 26.633 71.6293 26.5735C71.3883 26.514 71.1317 26.5425 70.913 26.653C70.6942 26.7635 70.5302 26.9474 70.455 27.1666C70.3799 27.3857 70.3994 27.6231 70.5096 27.8293ZM68.8355 32.5816C68.9274 32.7367 69.0673 32.8631 69.2373 32.9449C69.4073 33.0266 69.5998 33.0601 69.7905 33.041C69.9812 33.0219 70.1614 32.951 70.3083 32.8375C70.4552 32.7239 70.5622 32.5727 70.6158 32.4031C70.6693 32.2335 70.6669 32.053 70.609 31.8846C70.5511 31.7162 70.4402 31.5674 70.2904 31.4571C70.1405 31.3468 69.9585 31.28 69.7674 31.2651C69.5763 31.2502 69.3847 31.2878 69.2169 31.3733C68.9936 31.4881 68.8284 31.6793 68.757 31.9054C68.6857 32.1316 68.7139 32.3745 68.8355 32.5816ZM61.9981 35.0193C62.0905 35.1739 62.2306 35.2997 62.4006 35.381C62.5707 35.4622 62.7631 35.4952 62.9535 35.4757C63.1439 35.4563 63.3238 35.3852 63.4703 35.2716C63.6169 35.158 63.7236 35.0069 63.7769 34.8374C63.8303 34.6679 63.8278 34.4877 63.77 34.3195C63.7121 34.1512 63.6013 34.0026 63.4518 33.8924C63.3022 33.7821 63.1205 33.7152 62.9296 33.7001C62.7387 33.685 62.5473 33.7224 62.3794 33.8075C62.1544 33.9216 61.9878 34.1134 61.9163 34.3406C61.8448 34.5679 61.8742 34.812 61.9981 35.0193ZM63.5502 41.6508C63.6425 41.8054 63.7826 41.9313 63.9527 42.0125C64.1227 42.0938 64.3151 42.1267 64.5055 42.1073C64.696 42.0878 64.8758 42.0168 65.0224 41.9031C65.169 41.7895 65.2757 41.6384 65.329 41.4689C65.3823 41.2994 65.3799 41.1192 65.322 40.951C65.2641 40.7828 65.1534 40.6342 65.0038 40.5239C64.8542 40.4137 64.6725 40.3468 64.4816 40.3317C64.2908 40.3165 64.0993 40.3539 63.9315 40.439C63.8193 40.4948 63.7204 40.5706 63.6403 40.662C63.5603 40.7534 63.5008 40.8586 63.4653 40.9713C63.4298 41.0841 63.419 41.2023 63.4336 41.3189C63.4482 41.4356 63.4878 41.5484 63.5502 41.6508ZM66.6924 51.282C66.8066 51.4727 66.9923 51.6186 67.2148 51.6923C67.4373 51.766 67.6813 51.7625 67.9012 51.6824C67.7754 51.1099 67.6763 50.5339 67.6038 49.9648C67.4306 49.9536 67.2573 49.9857 67.1022 50.0577C66.9471 50.1296 66.816 50.2388 66.7227 50.3737C66.6294 50.5086 66.5773 50.6641 66.572 50.824C66.5666 50.9839 66.6082 51.1421 66.6924 51.282ZM67.2492 43.825C67.3295 43.9614 67.448 44.0754 67.5924 44.1552C67.6572 43.6108 67.7411 43.0699 67.8402 42.5395C67.767 42.5569 67.6966 42.5829 67.6305 42.6167C67.5168 42.6725 67.4165 42.7488 67.3354 42.841C67.2544 42.9332 67.1943 43.0395 67.1587 43.1535C67.1231 43.2675 67.1128 43.387 67.1283 43.5048C67.1439 43.6225 67.185 43.7362 67.2492 43.8391V43.825ZM59.9351 40.2915C60.0724 40.3344 60.2184 40.3484 60.3624 40.3325C60.5063 40.3165 60.6446 40.2709 60.7669 40.1992C60.8892 40.1274 60.9924 40.0313 61.069 39.9179C61.1456 39.8044 61.1936 39.6766 61.2093 39.5438C61.2251 39.4111 61.2084 39.2767 61.1602 39.1507C61.1121 39.0247 61.0339 38.9103 60.9314 38.8158C60.8288 38.7214 60.7046 38.6493 60.5678 38.605C60.431 38.5607 60.2851 38.5453 60.141 38.5598C60.0418 39.171 59.977 39.7506 59.9351 40.3055V40.2915ZM63.5692 46.8914C63.6987 47.0878 63.9055 47.2307 64.1465 47.2901C64.3875 47.3496 64.6441 47.3211 64.8628 47.2106C65.0816 47.1002 65.2456 46.9162 65.3208 46.6971C65.3959 46.4779 65.3764 46.2406 65.2662 46.0344C65.2084 45.9263 65.1275 45.8301 65.0283 45.7516C64.9291 45.6731 64.8136 45.6139 64.6889 45.5776C64.5642 45.5413 64.4327 45.5287 64.3026 45.5405C64.1724 45.5522 64.0462 45.5882 63.9315 45.6461C63.8168 45.704 63.716 45.7827 63.6352 45.8775C63.5545 45.9723 63.4954 46.0811 63.4615 46.1975C63.4277 46.3139 63.4198 46.4353 63.4383 46.5546C63.4568 46.6739 63.5013 46.7884 63.5692 46.8914ZM62.185 48.472C62.429 48.8514 62.7303 49.2869 63.001 49.6557C63.0512 49.5284 63.0691 49.3922 63.0531 49.2575C63.0372 49.1229 62.9879 48.9934 62.909 48.879C62.8302 48.7647 62.7239 48.6685 62.5984 48.598C62.4729 48.5274 62.3314 48.4843 62.185 48.472ZM60.1829 45.2441C60.3572 45.2513 60.5302 45.2136 60.6825 45.1352C60.8902 45.0294 61.0486 44.8571 61.1275 44.6509C61.2064 44.4447 61.2004 44.219 61.1105 44.0166C61.0206 43.8142 60.8532 43.6493 60.6401 43.5531C60.4269 43.4569 60.1828 43.4362 59.9541 43.4949C60.019 44.2571 60.1143 44.8718 60.1829 45.2406V45.2441Z" fill="white"/>
<path opacity="0.1" d="M65.7619 51.7668C65.5349 51.1705 65.3714 50.5552 65.2738 49.9298C65.1518 49.308 65.0488 48.6828 64.9535 48.0576C64.7666 46.8037 64.5722 45.5497 64.4692 44.2922C64.4425 43.9796 64.4044 43.6635 64.4006 43.3544C64.4167 43.0475 64.4717 42.7433 64.5645 42.4482C64.7323 41.837 64.9459 41.2399 65.1518 40.6358C65.3577 40.0316 65.5865 39.4345 65.8115 38.8374L66.4903 37.046C65.9437 38.2168 65.4353 39.3947 64.9649 40.5796C64.7323 41.1767 64.5226 41.7808 64.3395 42.399C64.241 42.7104 64.1796 43.0308 64.1565 43.3544C64.1565 43.6811 64.1908 43.9937 64.2213 44.3133C64.3586 45.5743 64.534 46.8318 64.7628 48.0822C64.8772 48.7074 64.9993 49.3326 65.1442 49.9508C65.2204 50.2599 65.3005 50.569 65.392 50.8746C65.4802 51.1834 65.6042 51.4825 65.7619 51.7668Z" fill="#050400"/>
<path opacity="0.1" d="M63.3215 38.9252C62.5459 40.262 61.97 41.6893 61.6093 43.1682C61.4252 43.9105 61.328 44.6689 61.3195 45.4303C61.306 46.1913 61.443 46.9483 61.7237 47.6642C61.6856 47.478 61.6437 47.2919 61.5979 47.1092C61.5762 47.0179 61.5622 46.9251 61.5559 46.8317L61.5293 46.5543C61.5293 46.4594 61.5026 46.3681 61.4987 46.2733V45.9923C61.4987 45.8061 61.4987 45.6199 61.4987 45.4338L61.5407 44.8753L61.6208 44.3203C61.6437 44.1342 61.6856 43.948 61.7199 43.7654C61.7542 43.5827 61.7886 43.4141 61.8381 43.2139C62.0021 42.4833 62.2195 41.7632 62.4788 41.0467C62.6008 40.6955 62.7381 40.3442 62.8792 39.993C63.0203 39.6417 63.169 39.2729 63.3215 38.9252Z" fill="#050400"/>
<path opacity="0.1" d="M88.322 31.0853C87.8077 30.5436 87.2396 30.0473 86.625 29.603C86.0263 29.1394 85.4086 28.7038 84.787 28.2718C84.1658 27.8328 83.5205 27.4237 82.8536 27.0459C82.1676 26.6942 81.4286 26.4385 80.6609 26.2872C81.0282 26.4054 81.3884 26.5414 81.7401 26.6947C82.089 26.8407 82.4266 27.0085 82.7506 27.197C83.0748 27.3866 83.3837 27.5974 83.7002 27.8116L84.6573 28.4509L86.5259 29.7365C86.8386 29.9507 87.1437 30.1685 87.4487 30.3898C87.7552 30.6047 88.0468 30.837 88.322 31.0853Z" fill="#050400"/>
<path opacity="0.1" d="M89.3366 33.0944C89.0088 32.6726 88.6495 32.2724 88.2612 31.8967C87.8806 31.5145 87.4783 31.151 87.0562 30.8078C86.8412 30.6347 86.6159 30.4729 86.3812 30.3231C86.1448 30.1861 85.9121 30.0456 85.6681 29.9121L84.9512 29.5047C84.7071 29.3782 84.4669 29.2413 84.219 29.1218C84.4364 29.2834 84.6613 29.4379 84.8863 29.596L85.5651 30.0491C85.7901 30.2002 86.0227 30.3442 86.2515 30.4917C86.4803 30.6392 86.6863 30.8008 86.896 30.9694C87.3193 31.3206 87.7197 31.6719 88.1315 32.0231L88.7341 32.557C88.94 32.7291 89.1383 32.9118 89.3366 33.0944Z" fill="#050400"/>
<path opacity="0.1" d="M63.4092 31.2012C65.4493 31.5525 70.1131 32.3147 71.0703 32.0477C71.3911 31.9419 71.7033 31.8151 72.0046 31.6684C72.8857 30.1165 73.8941 28.6287 75.021 27.2181C76.3949 27.292 77.7584 27.4837 79.0937 27.7906C79.9929 26.9425 80.8048 26.0195 81.519 25.0333C80.0394 24.2184 78.5827 23.688 77.4463 23.8461C75.1706 24.1728 72.9406 24.7276 70.7957 25.5005C70.7957 25.5005 67.0395 26.5472 63.4092 31.2012Z" fill="#050400"/>
<path d="M73.915 25.4688C73.915 25.4688 76.6149 20.2774 81.9232 19.1956C81.9232 19.1956 82.274 24.113 80.5732 25.9219C79.7267 26.8176 75.5586 27.5623 74.9904 26.9757C74.5778 26.508 74.2176 26.0032 73.915 25.4688Z" fill="#10B981"/>
<path opacity="0.3" d="M79.0137 20.2844C79.067 20.4744 79.0511 20.6753 78.9684 20.8561C78.8857 21.037 78.7408 21.1878 78.5561 21.2855C78.4043 21.3628 78.2327 21.4007 78.0594 21.3951C77.8861 21.3895 77.7177 21.3407 77.5722 21.2539C78.0243 20.8963 78.5062 20.5722 79.0137 20.2844ZM80.7716 23.9269C80.8378 24.0399 80.9302 24.1382 81.0422 24.2147C81.1542 24.2912 81.2832 24.344 81.4199 24.3694C81.5995 23.7947 81.7271 23.2073 81.8012 22.6132C81.5798 22.5731 81.3501 22.6067 81.153 22.708C81.0402 22.7642 80.9407 22.8405 80.8602 22.9325C80.7798 23.0244 80.7201 23.1303 80.6846 23.2437C80.6491 23.3572 80.6385 23.4761 80.6535 23.5934C80.6684 23.7107 80.7086 23.824 80.7716 23.9269ZM75.124 24.8015C75.2159 24.9565 75.3557 25.0829 75.5257 25.1647C75.6957 25.2465 75.8883 25.2799 76.079 25.2608C76.2696 25.2417 76.4498 25.1709 76.5968 25.0573C76.7437 24.9437 76.8507 24.7926 76.9042 24.6229C76.9578 24.4533 76.9554 24.2728 76.8975 24.1044C76.8396 23.936 76.7287 23.7872 76.5788 23.677C76.429 23.5667 76.247 23.4998 76.0559 23.4849C75.8648 23.47 75.6732 23.5077 75.5053 23.5932C75.394 23.6493 75.2959 23.7252 75.2165 23.8163C75.137 23.9075 75.0779 24.0122 75.0425 24.1244C75.0071 24.2367 74.996 24.3543 75.01 24.4704C75.024 24.5866 75.0627 24.6991 75.124 24.8015Z" fill="white"/>
<path opacity="0.1" d="M73.915 25.4723C74.2195 25.9993 74.5783 26.498 74.9866 26.9616C75.0103 26.9908 75.0419 27.0138 75.0781 27.0284C75.1172 27.0552 75.1611 27.0754 75.2078 27.0881C75.2421 27.0881 75.2726 27.1092 75.3184 27.1162C76.0983 27.219 76.8925 27.1796 77.656 27.0003C77.4531 26.2875 77.1786 25.5938 76.8361 24.9279C76.5501 24.4186 75.8065 24.0252 75.0781 23.7372C74.6377 24.2842 74.2486 24.8646 73.915 25.4723Z" fill="#050400"/>
<path d="M72.6795 26.2698C72.6795 26.2698 65.0794 25.9185 61.6511 27.7801C61.6511 27.7801 64.0231 31.1802 67.8708 31.7036C69.5944 31.9389 74.1858 28.6512 73.8235 27.8679C73.5239 27.2892 73.1389 26.7514 72.6795 26.2698Z" fill="#10B981"/>
<path opacity="0.3" d="M64.6029 28.7776C64.7707 28.6925 64.9621 28.6551 65.153 28.6703C65.3439 28.6854 65.5256 28.7523 65.6752 28.8625C65.8247 28.9728 65.9355 29.1214 65.9934 29.2896C66.0512 29.4578 66.0537 29.638 66.0003 29.8075C65.947 29.977 65.8403 30.1281 65.6937 30.2417C65.5472 30.3554 65.3673 30.4264 65.1769 30.4459C64.9865 30.4653 64.7941 30.4324 64.624 30.3511C64.454 30.2699 64.3139 30.144 64.2215 29.9894C64.0987 29.7819 64.0698 29.5382 64.1412 29.3112C64.2127 29.0842 64.3786 28.8924 64.6029 28.7776ZM70.5098 27.8292C70.5676 27.9373 70.6485 28.0335 70.7477 28.112C70.8469 28.1905 70.9624 28.2497 71.0871 28.286C71.2118 28.3223 71.3433 28.3349 71.4734 28.3232C71.6036 28.3114 71.7298 28.2755 71.8445 28.2175C71.9592 28.1596 72.06 28.0809 72.1408 27.9861C72.2215 27.8914 72.2806 27.7825 72.3145 27.6661C72.3483 27.5498 72.3562 27.4283 72.3377 27.309C72.3192 27.1898 72.2747 27.0752 72.2068 26.9722C72.0773 26.7758 71.8705 26.633 71.6295 26.5735C71.3885 26.514 71.1319 26.5425 70.9132 26.653C70.6944 26.7635 70.5304 26.9474 70.4552 27.1666C70.3801 27.3857 70.3996 27.6231 70.5098 27.8292ZM68.9844 31.5349C69.2235 31.4566 69.4578 31.3664 69.6861 31.2644C69.5219 31.2608 69.3598 31.2984 69.2171 31.3733C69.1312 31.4145 69.0537 31.4692 68.9883 31.5349H68.9844Z" fill="white"/>
<path opacity="0.1" d="M70.9559 26.2451C70.8435 27.0195 70.9759 27.8073 71.3372 28.5142C71.6256 28.9277 72.0065 29.2798 72.4545 29.5469C73.3507 28.8444 73.9494 28.17 73.8159 27.8644C73.5161 27.2869 73.1311 26.7502 72.6719 26.2697C72.6719 26.2697 72.0007 26.2346 70.9559 26.2451Z" fill="#050400"/>
<path d="M72.0733 27.9066C72.3437 28.281 72.7285 28.5733 73.1792 28.7465C73.6298 28.9197 74.126 28.966 74.6052 28.8797C75.0844 28.7933 75.5251 28.5782 75.8716 28.2613C76.2181 27.9445 76.455 27.5402 76.5523 27.0995C76.6496 26.6588 76.6029 26.2014 76.4182 25.785C76.2336 25.3687 75.9191 25.0121 75.5146 24.7602C75.11 24.5084 74.6336 24.3726 74.1453 24.3699C73.657 24.3673 73.1789 24.4979 72.7712 24.7454C72.4994 24.9103 72.2657 25.123 72.0835 25.3713C71.9013 25.6197 71.7741 25.8987 71.7092 26.1924C71.6444 26.4862 71.6432 26.7888 71.7056 27.083C71.7681 27.3771 71.8931 27.657 72.0733 27.9066Z" fill="#10B981"/>
<path d="M45.9284 108.493C48.6855 103.902 50.6494 93.5792 44.7844 73.4914C43.976 70.7131 21.8354 74.6224 22.5332 77.6326C23.4141 81.4226 27.7195 95.9572 28.1771 96.9828C32.082 105.638 44.0561 111.609 45.9284 108.493Z" fill="#D3766A"/>
<path d="M47.7819 104.703C48.3648 103.214 48.7764 101.673 49.0098 100.105C49.128 99.3221 49.2272 98.5318 49.2805 97.738C49.3339 96.9403 49.3339 96.1402 49.2805 95.3425C49.1888 93.7605 49.0106 92.1837 48.7467 90.6182C48.5009 89.0452 48.1403 87.4891 47.6675 85.9607C47.9344 87.5202 48.1213 89.0868 48.2891 90.6534C48.4569 92.2199 48.5903 93.7865 48.6704 95.353C48.7009 96.1328 48.7276 96.9161 48.6704 97.6888C48.6132 98.4616 48.5636 99.2519 48.4797 100.032C48.3196 101.591 48.1136 103.151 47.7819 104.703Z" fill="#030712"/>
<path d="M33.9392 82.0793C31.3918 82.0196 17.6865 81.0501 14.4909 80.1685C9.00719 78.6792 4.29002 76.5226 5.15947 74.2922C5.9641 72.2444 12.0579 74.1552 12.0579 74.1552C12.0579 74.1552 3.60742 69.589 4.63704 66.498C5.39972 64.2043 9.16735 66.3153 9.16735 66.3153C9.16735 66.3153 5.25099 63.3473 6.90601 61.4997C8.28264 59.9683 16.3442 64.661 16.3442 64.661C16.3442 64.661 8.77076 59.3923 11.7414 57.4218C13.69 56.1362 17.2708 60.2317 21.7744 61.3873C22.1558 61.4927 26.0607 62.2233 29.9275 62.9399C33.9468 63.688 44.9523 74.0041 44.9523 74.0041L33.9392 82.0793Z" fill="#D3766A"/>
<path d="M16.4625 64.6294C18.4817 65.6616 20.6487 66.4267 22.8996 66.902C22.9529 66.902 22.9339 67.053 22.8767 67.046C19.7001 66.6947 18.7849 66.4032 16.3558 64.7523C16.2223 64.668 16.3291 64.5697 16.4625 64.6294Z" fill="#030712"/>
<path d="M9.34667 66.2943C13.877 69.2202 16.4358 70.0316 21.8012 71.0818C21.8775 71.0818 21.8584 71.2153 21.7822 71.2047C16.4434 70.583 13.3317 70 9.22464 66.5296C9.03778 66.3856 9.15219 66.1608 9.34667 66.2943Z" fill="#030712"/>
<path d="M12.1572 74.0745C15.1659 74.8788 16.0316 74.9912 19.2691 75.5743C19.353 75.5743 19.3568 75.7569 19.2691 75.7499C15.9972 75.6059 14.8075 75.5005 12.1152 74.2185C11.9131 74.1131 11.9436 74.0183 12.1572 74.0745Z" fill="#030712"/>
<path d="M44.9523 74.0042C44.9523 74.0042 42.4469 64.3414 37.7793 60.9167C35.4417 59.2026 24.4324 54.3168 23.1206 56.3505C21.4313 58.9813 26.8959 62.9891 29.855 64.6294C29.855 64.6294 25.9387 70.7095 29.1877 74.3659C32.4367 78.0224 44.9523 74.0042 44.9523 74.0042Z" fill="#D3766A"/>
<path d="M22.9109 57.2146C23.2503 60.6357 27.281 62.5571 30.0191 64.3484C30.0599 64.3742 30.0934 64.4088 30.1165 64.4492C30.1396 64.4896 30.1517 64.5346 30.1517 64.5802C30.1517 64.6259 30.1396 64.6709 30.1165 64.7113C30.0934 64.7517 30.0599 64.7863 30.0191 64.8121C28.5623 67.4605 27.3497 71.5876 28.9589 74.3449C28.9657 74.3606 28.9665 74.3779 28.9612 74.394C28.9558 74.4101 28.9446 74.424 28.9295 74.4335C28.9143 74.4429 28.8961 74.4473 28.8779 74.4459C28.8597 74.4445 28.8425 74.4373 28.8293 74.4257C26.6633 71.6825 27.4984 67.5377 29.2945 64.7313C26.4573 62.9364 22.5028 60.8465 22.8575 57.2146H22.9109Z" fill="#030712"/>
<path d="M103.641 108.423C100.883 103.832 98.9158 93.5089 104.762 73.4211C105.57 70.6427 127.715 74.5521 127.013 77.5623C126.136 81.3523 121.83 95.8869 121.369 96.9125C117.483 105.567 105.509 111.538 103.641 108.423Z" fill="#D3766A"/>
<path d="M101.783 104.633C101.203 103.137 100.791 101.591 100.555 100.018C100.441 99.2343 100.338 98.444 100.285 97.6501C100.233 96.8523 100.233 96.0524 100.285 95.2546C100.377 93.6726 100.555 92.0959 100.819 90.5304C101.068 88.9639 101.427 87.414 101.894 85.8904C101.627 87.4499 101.444 89.0165 101.272 90.583C101.101 92.1496 100.971 93.7162 100.891 95.2827C100.861 96.0625 100.834 96.8458 100.891 97.6185C100.948 98.3913 100.994 99.1816 101.078 99.9613C101.246 101.51 101.455 103.08 101.783 104.633Z" fill="#030712"/>
<path d="M115.618 82.0091C118.169 81.9494 131.871 80.98 135.067 80.0983C140.55 78.5915 145.271 76.4524 144.398 74.222C143.597 72.1742 137.503 74.085 137.503 74.085C137.503 74.085 145.95 69.5188 144.92 66.4278C144.158 64.1341 140.39 66.2451 140.39 66.2451C140.39 66.2451 144.31 63.2771 142.651 61.4295C141.279 59.8946 133.213 64.5908 133.213 64.5908C133.213 64.5908 140.787 59.3221 137.82 57.3516C135.867 56.066 132.287 60.1616 127.787 61.3172C127.406 61.4225 123.497 62.1531 119.634 62.8697C115.615 63.6178 104.605 73.9339 104.605 73.9339L115.618 82.0091Z" fill="#D3766A"/>
<path d="M133.107 64.5661C131.087 65.5973 128.92 66.3622 126.67 66.8387C126.616 66.8387 126.631 66.9897 126.692 66.9827C129.869 66.6315 130.784 66.3399 133.213 64.6891C133.347 64.5977 133.236 64.4994 133.107 64.5661Z" fill="#030712"/>
<path d="M140.219 66.2241C135.688 69.15 133.13 69.9614 127.764 71.0116C127.688 71.0116 127.707 71.1451 127.787 71.1345C133.126 70.5128 136.234 69.9298 140.344 66.4594C140.527 66.3014 140.425 66.0906 140.219 66.2241Z" fill="#030712"/>
<path d="M137.408 74.0042C134.403 74.8086 133.537 74.921 130.296 75.5041C130.216 75.5041 130.208 75.6867 130.296 75.6797C133.564 75.5357 134.758 75.4303 137.45 74.1483C137.664 74.0534 137.625 73.948 137.408 74.0042Z" fill="#030712"/>
<path d="M104.613 73.934C104.613 73.934 107.118 64.2712 111.786 60.8465C114.124 59.1324 125.133 54.2466 126.449 56.2803C128.138 58.9111 122.669 62.9189 119.714 64.5592C119.714 64.5592 123.627 70.6358 120.378 74.2957C117.129 77.9557 104.613 73.934 104.613 73.934Z" fill="#D3766A"/>
<path d="M126.654 57.1443C126.319 60.5654 122.284 62.4867 119.546 64.2781C119.505 64.303 119.471 64.3366 119.446 64.3761C119.422 64.4157 119.409 64.46 119.407 64.5054C119.405 64.5508 119.415 64.5959 119.436 64.637C119.457 64.6782 119.488 64.7141 119.527 64.7417C120.984 67.3901 122.197 71.5173 120.587 74.2746C120.58 74.2902 120.58 74.3075 120.585 74.3237C120.59 74.3398 120.602 74.3537 120.617 74.3631C120.632 74.3726 120.65 74.377 120.668 74.3756C120.687 74.3741 120.704 74.367 120.717 74.3554C122.883 71.6121 122.048 67.4674 120.252 64.661C123.093 62.8661 127.043 60.7727 126.693 57.1443C126.693 57.1396 126.691 57.1351 126.687 57.1319C126.683 57.1286 126.679 57.1267 126.673 57.1267C126.668 57.1267 126.664 57.1286 126.66 57.1319C126.656 57.1351 126.654 57.1396 126.654 57.1443Z" fill="#030712"/>
<path d="M0 149.838C48.0488 149.624 101.951 149.621 150 149.838C101.951 150.056 48.0488 150.053 0 149.838Z" fill="#030712"/>
<path d="M99.6936 21.8545L99.0758 25.1949C99.0255 25.5308 98.9014 25.8538 98.711 26.144C98.5207 26.4343 98.268 26.6857 97.9686 26.883C97.6691 27.0802 97.3291 27.2192 96.9694 27.2913C96.6096 27.3634 96.2377 27.3672 95.8763 27.3024C95.1522 27.1873 94.5072 26.8125 94.0826 26.2601C93.658 25.7077 93.4884 25.0227 93.6112 24.3554L94.5989 19.013C94.5989 18.9603 94.6637 18.9673 94.6713 18.9181C94.6789 18.8689 94.6255 18.8584 94.637 18.8057C94.7756 18.1437 95.1847 17.556 95.7801 17.1639C96.3755 16.7717 97.1115 16.605 97.8364 16.6982C98.6652 16.8458 99.5177 16.8393 100.344 16.6792C101.17 16.5192 101.953 16.2087 102.647 15.7661C103.341 15.3235 103.932 14.7577 104.385 14.1018C104.839 13.4459 105.145 12.7133 105.287 11.9468C105.429 11.1803 105.403 10.3955 105.211 9.63833C105.019 8.88121 104.664 8.16705 104.168 7.53778C103.673 6.90851 103.045 6.3768 102.323 5.97387C101.601 5.57094 100.799 5.30491 99.9643 5.19139C98.8819 5.01754 97.7688 5.10943 96.7372 5.45783C95.7055 5.80622 94.7918 6.39881 94.0879 7.17594C93.8526 7.43962 93.5628 7.6576 93.2352 7.81718C92.9077 7.97676 92.5489 8.07476 92.1799 8.10548C91.8109 8.13621 91.4389 8.09904 91.0856 7.99614C90.7323 7.89324 90.4047 7.72667 90.1219 7.50611C89.8449 7.28927 89.6171 7.02424 89.4515 6.72621C89.2858 6.42817 89.1856 6.10297 89.1565 5.76921C89.1275 5.43546 89.1702 5.0997 89.2822 4.78117C89.3942 4.46263 89.5733 4.16756 89.8092 3.91285C91.0697 2.51769 92.6867 1.43285 94.515 0.755808C96.3434 0.0787647 98.3257 -0.169262 100.284 0.0340151C102.242 0.237292 104.115 0.885505 105.733 1.9204C107.352 2.9553 108.667 4.34445 109.558 5.96303C110.45 7.5816 110.891 9.37888 110.842 11.1934C110.793 13.0078 110.255 14.7826 109.277 16.3583C108.299 17.934 106.911 19.2611 105.238 20.2205C103.566 21.1798 101.66 21.7413 99.6936 21.8545ZM97.6114 33.0944L97.4398 34.0182C97.3895 34.3538 97.2655 34.6764 97.0754 34.9664C96.8853 35.2564 96.633 35.5076 96.334 35.7048C96.0349 35.902 95.6954 36.0411 95.3361 36.1134C94.9768 36.1858 94.6053 36.19 94.2442 36.1257C93.5194 36.0115 92.8734 35.637 92.448 35.0845C92.0226 34.532 91.8526 33.8466 91.9752 33.1787L92.1468 32.2515C92.2801 31.5902 92.6871 31.0026 93.282 30.6126C93.8768 30.2227 94.6129 30.0609 95.3348 30.1615C95.6975 30.212 96.0454 30.329 96.3581 30.5056C96.6708 30.6822 96.9418 30.9148 97.1551 31.1896C97.3685 31.4643 97.5198 31.7758 97.6001 32.1054C97.6805 32.435 97.6882 32.7761 97.6229 33.1085L97.6114 33.0944Z" fill="#4B5563"/>
</g>
<defs>
<clipPath id="clip0_1555_1939">
<rect width="150" height="150" fill="white"/>
</clipPath>
</defs>
</svg>
