<svg width="212" height="156" viewBox="0 0 212 156" fill="none" xmlns="http://www.w3.org/2000/svg">
<g id="g10">
<g id="g12">
<path id="path14" d="M167.191 63.3912C167.191 98.4011 129.764 126.782 83.5956 126.782C37.4269 126.782 0 98.4011 0 63.3912C0 28.3812 37.4269 -0.00012207 83.5956 -0.00012207C129.764 -0.00012207 167.191 28.3812 167.191 63.3912Z" fill="#F9FAFB"/>
<path id="path16" d="M212 147.038C212 150.149 194.915 152.671 173.839 152.671C152.764 152.671 135.678 150.149 135.678 147.038C135.678 143.928 152.764 141.406 173.839 141.406C194.915 141.406 212 143.928 212 147.038Z" fill="#D9D8E8"/>
<path id="path18" d="M162.793 149.756C162.793 153.205 131.928 156.002 93.8537 156.002C55.7793 156.002 24.9138 153.205 24.9138 149.756C24.9138 146.307 55.7793 143.511 93.8537 143.511C131.928 143.511 162.793 146.307 162.793 149.756Z" fill="#D9D8E8"/>
<path id="path20" d="M107.034 39.0617C107.034 39.0617 105.757 46.9389 96.4617 57.0779C96.4617 57.0779 95.4349 55.7253 97.212 50.1219C98.9895 44.5181 106.503 37.1537 107.034 39.0617Z" fill="#10B981"/>
<path id="path22" d="M107.034 39.0617C107.034 39.0617 98.6689 45.4266 96.4619 57.0779C96.4619 57.0779 96.0345 61.0739 97.3217 64.5359" stroke="#030712" stroke-width="1.33333" stroke-miterlimit="10" stroke-linecap="round"/>
<path id="path24" d="M84.5502 45.4251C84.5502 45.4251 86.897 43.5331 82.8597 38.8088C79.0246 34.3206 74.9643 30.2962 67.0283 28.8218C67.0283 28.8218 69.4235 40.2568 74.5947 42.9825C79.7659 45.7082 84.5502 45.4251 84.5502 45.4251Z" fill="#10B981"/>
<path id="path26" d="M65.2878 53.8329C65.2878 53.8329 73.5679 55.7544 87.6103 50.7691C87.6103 50.7691 86.7397 49.2248 80.4648 48.7056C74.1903 48.1863 63.6537 52.5499 65.2878 53.8329Z" fill="#10B981"/>
<path id="path28" d="M65.2878 53.8329C65.2878 53.8329 75.2218 48.2386 87.6103 50.7691C87.6103 50.7691 88.8846 51.1083 90.1822 52.9522" stroke="#030712" stroke-width="1.33333" stroke-miterlimit="10" stroke-linecap="round"/>
<path id="path30" d="M72.1508 61.8133C72.1508 61.8133 81.0108 68.0177 95.0536 63.0329C95.0536 63.0329 92.3229 57.7771 86.048 57.2579C79.7732 56.7382 70.5162 60.5299 72.1508 61.8133Z" fill="#10B981"/>
<path id="path32" d="M72.1506 61.8132C72.1506 61.8132 81.7007 57.0728 95.0535 63.0327C95.0535 63.0327 96.6237 63.7762 97.9214 65.6201" stroke="#030712" stroke-width="1.33333" stroke-miterlimit="10" stroke-linecap="round"/>
<path id="path34" d="M102.142 31.6029C102.142 31.6029 104.757 31.2697 98.3757 37.5494C92.3501 43.4788 93.1162 43.525 93.1162 43.525C93.1162 43.525 95.4026 34.6522 102.142 31.6029Z" fill="#030712"/>
<path id="path36" d="M88.733 46.5284C88.733 46.5284 90.6858 47.3296 94.2084 43.8906C97.731 40.4516 99.0445 32.7873 102.142 31.6028C102.142 31.6028 94.3704 34.2735 88.733 46.5284Z" fill="#10B981"/>
<path id="path38" d="M101.541 72.8619C97.5676 64.3479 92.0513 54.6754 84.5502 45.4251C84.5502 45.4251 82.7074 42.8575 76.3054 36.2023C69.903 29.5473 67.0283 28.8218 67.0283 28.8218" stroke="#030712" stroke-width="1.33333" stroke-miterlimit="10" stroke-linecap="round"/>
<path id="path40" d="M101.224 32.011C101.224 32.011 93.8291 35.4439 88.733 46.5285C87.4982 49.2141 88.9755 51.3392 90.1822 52.9523" stroke="#030712" stroke-width="1.33333" stroke-miterlimit="10" stroke-linecap="round"/>
<path id="path42" d="M168.659 123.902C168.659 123.902 162.478 128.754 148.236 125.193C148.236 125.193 148.274 122.763 153.385 120.425C158.496 118.088 169.467 121.652 168.659 123.902Z" fill="#10B981"/>
<path id="path44" d="M168.217 123.459C168.217 123.459 158.463 119.992 148.3 124.93C148.3 124.93 145.008 126.908 143.129 130.048" stroke="#030712" stroke-width="1.33333" stroke-miterlimit="10" stroke-linecap="round"/>
<path id="path46" d="M148.05 113.228C148.05 113.228 150.867 114.138 152.093 107.888C153.258 101.951 153.937 96.0914 150.401 88.3912C150.401 88.3912 143.104 97.1662 144.065 103.22C145.026 109.273 148.05 113.228 148.05 113.228Z" fill="#10B981"/>
<path id="path48" d="M168.999 115.57C168.999 115.57 171.173 117.152 162.483 117.405C154.278 117.644 154.826 118.216 154.826 118.216C154.826 118.216 162.04 113.142 168.999 115.57Z" fill="#030712"/>
<path id="path50" d="M149.668 117.404C149.668 117.404 150.641 119.376 155.421 119.256C160.201 119.137 165.935 114.291 168.999 115.57C168.999 115.57 161.498 112.134 149.668 117.404Z" fill="#10B981"/>
<path id="path52" d="M137.143 143.966C141.29 135.546 145.413 125.118 148.05 113.228C148.05 113.228 148.922 110.134 150.229 100.713C151.536 91.293 150.401 88.3912 150.401 88.3912" stroke="#030712" stroke-width="1.33333" stroke-miterlimit="10" stroke-linecap="round"/>
<path id="path54" d="M168.056 115.234C168.056 115.234 160.366 112.635 149.668 117.404C147.076 118.56 146.34 120.384 145.245 123.766" stroke="#030712" stroke-width="1.33333" stroke-miterlimit="10" stroke-linecap="round"/>
<path id="path56" d="M70.1603 67.8056C68.1597 67.8056 66.2232 67.0586 64.687 65.6954L60.4256 61.9125C58.892 60.5512 57.0704 59.8218 55.2038 59.8218H34.054C32.1348 59.8218 30.5789 61.477 30.5789 63.5187V67.8056V144.972C30.5789 148.495 33.2637 151.351 36.5757 151.351H142.007C144.583 151.351 146.671 149.129 146.671 146.389V72.7672C146.671 70.0269 144.583 67.8056 142.007 67.8056H70.1603Z" fill="#065F46"/>
<path id="path58" d="M146.671 146.805C146.671 146.805 139.495 132.487 138.778 130.843L119.168 88.3442C118.675 87.2148 117.611 86.4927 116.441 86.4927H43.5695C40.9204 86.4927 37.0889 85.0152 35.0547 83.2095L32.1142 80.5996C30.5806 79.2383 28.7589 78.5089 26.8927 78.5089H6.76504C4.62273 78.5089 3.16743 80.8243 3.98604 82.9302L28.3248 145.551C29.6891 149.061 32.9076 151.351 36.4783 151.351H145.355C146.064 151.351 146.72 150.704 146.72 149.949L146.671 146.805Z" fill="#059669"/>
<path id="path60" d="M117.03 90.5335L145.805 150.037" stroke="white" stroke-width="1.33333" stroke-miterlimit="10" stroke-linejoin="round"/>
<path id="path62" d="M105.174 100.787H80.3869C79.711 100.787 79.0821 100.426 78.719 99.8285C77.8814 98.4496 78.8271 96.6454 80.3869 96.6454H105.174C105.85 96.6454 106.479 97.0073 106.841 97.6048C107.679 98.9833 106.734 100.787 105.174 100.787Z" stroke="white" stroke-width="1.33333" stroke-miterlimit="10" stroke-linejoin="round"/>
<path id="path64" d="M58.8073 121.239L78.1059 133.47" stroke="white" stroke-width="1.33333" stroke-miterlimit="10" stroke-linecap="round" stroke-linejoin="round"/>
<path id="path66" d="M74.5861 120.65L62.4595 133.544" stroke="white" stroke-width="1.33333" stroke-miterlimit="10" stroke-linecap="round" stroke-linejoin="round"/>
<path id="path68" d="M74.4853 117.371C81.5765 121.099 84.5187 128.547 81.0572 134.007C77.5952 139.466 69.0404 140.87 61.9492 137.142C54.858 133.414 51.9157 125.966 55.3773 120.506C58.8392 115.046 67.394 113.643 74.4853 117.371Z" stroke="white" stroke-width="1.33333" stroke-miterlimit="10" stroke-linecap="round" stroke-linejoin="round"/>
<path id="path70" d="M168.126 67.8458C168.589 65.7177 166.46 63.0646 164.445 63.4829C162.805 63.8233 161.988 64.2417 161.724 64.3342C161.209 64.5149 157.363 64.2486 156.923 64.9298C156.604 65.4235 158.61 65.9935 159.894 66.1295C160.158 66.1574 160.236 66.525 160.01 66.6736C158.749 67.5054 156.238 69.196 156.025 69.6136C155.739 70.1734 154.435 72.35 154.802 72.5915C155.17 72.8333 156.281 71.746 157.003 70.9742C157.725 70.2024 159.835 69.5464 159.835 69.5464C159.835 69.5464 156.166 73.4634 155.682 74.5496C154.962 76.1673 157.052 75.4578 157.052 75.4578C156.725 76.3717 158.438 76.1715 158.843 75.8265C159.644 75.1456 162.117 71.9702 162.124 72.2939C162.132 72.6171 159.569 76.0767 159.829 76.8848C160.088 77.6929 161.124 76.6793 161.724 75.8265C162.324 74.9741 164.085 72.5915 164.085 72.5915C164.085 72.5915 166.085 71.038 167.756 68.3547C167.769 68.3333 168.121 67.8706 168.126 67.8458Z" fill="#F0896F"/>
<path id="path72" d="M157.143 75.3699L160.644 70.9317" stroke="#030712" stroke-width="1.33333" stroke-miterlimit="10" stroke-linecap="round"/>
<path id="path74" d="M141.809 55.257L154.402 46.8992C154.48 46.8449 154.555 46.7849 154.625 46.7196L158.777 42.1737C159.681 41.3312 161.076 41.5276 161.742 42.5913L163.778 45.8393C164.209 46.527 164.224 47.4188 163.816 48.1222L160.893 53.1666C160.678 53.538 160.363 53.8284 159.987 53.9999C157.635 55.0713 148.651 59.1078 143.292 60.7183C141.961 61.1183 140.668 59.966 140.785 58.5L140.916 56.849C140.968 56.2003 141.297 55.613 141.809 55.257Z" fill="#10B981"/>
<path id="path76" d="M170.812 138.767L170.146 143.58C170.146 143.58 157.668 148.679 158.825 148.753C159.983 148.826 177.914 147.716 177.914 147.716L176.859 138.98L170.812 138.767Z" fill="#030712"/>
<path id="path78" d="M174.288 60.8878C174.288 60.8878 175.282 71.0693 176.028 71.598C176.774 72.1272 177.768 72.3916 177.768 72.3916L176.152 60.7556L174.288 60.8878Z" stroke="#333436" stroke-width="1.33333" stroke-miterlimit="10"/>
<path id="path80" d="M193.993 53.8898C193.993 53.8898 199.05 64.8461 197.582 70.9504L169.545 66.8482L170.13 55.4659L193.993 53.8898Z" fill="#030712"/>
<path id="path82" d="M194.762 56.1093C194.762 56.1093 190.799 63.9161 183.216 64.5404" stroke="#4B5563" stroke-width="1.33333" stroke-miterlimit="10" stroke-linecap="round"/>
<path id="path84" d="M188.419 62.8751C188.419 62.8751 189.955 67.9356 194.414 68.0399" stroke="#4B5563" stroke-width="1.33333" stroke-miterlimit="10" stroke-linecap="round"/>
<path id="path86" d="M169.545 66.8482C169.545 66.8482 162.034 95.2957 161.839 104.454L167.327 139.736C167.327 139.736 172.563 142.505 178.016 140.267C178.239 140.176 175.251 121.968 175.041 103.222L190.716 68.3314L169.545 66.8482Z" fill="#030712"/>
<path id="path88" d="M197.705 69.7572L196.601 104.086L208.948 139.976C208.948 139.976 203.781 144.619 197.255 140.393L183.851 106.22L185.226 81.3542L179.384 77.5912L178.514 66.8218L197.705 69.7572Z" fill="#030712"/>
<path id="path90" d="M176.009 63.4829L181.961 68.2531L190.493 58.1198L169.767 61.2696L174.839 68.4235L176.009 63.4829Z" fill="white"/>
<path id="path92" d="M200.224 138.186L199.146 142.339C199.146 142.339 191.275 151.422 192.434 151.422C193.595 151.422 206.521 145.799 206.521 145.799L204.864 137.148L200.224 138.186Z" fill="#030712"/>
<path id="path94" d="M192.985 58.7464C192.985 58.7464 196.39 67.6494 193.936 104.998C193.936 104.998 202.536 125.131 206.995 141.055" stroke="#4B5563" stroke-width="1.33333" stroke-miterlimit="10" stroke-linecap="round"/>
<path id="path96" d="M180.471 78.4811L171.889 103.911L175.57 141.055" stroke="#4B5563" stroke-width="1.33333" stroke-miterlimit="10" stroke-linecap="round"/>
<path id="path98" d="M143.042 60.2773C143.042 60.2773 143.209 61.1679 141.355 61.848C139.502 62.528 138.411 62.3122 138.411 62.3122C138.411 62.3122 134.253 57.095 134.068 56.9105C133.884 56.7263 134.198 54.7197 135.428 53.9162C136.175 53.4286 139.072 54.2237 141.233 54.9241C142.739 55.412 143.669 57.0171 143.415 58.6703C143.316 59.3202 143.192 59.9223 143.042 60.2773Z" fill="#F0896F"/>
<path id="path100" d="M139.632 58.8927C139.632 58.8927 136.232 58.3678 134.795 57.1077C134.795 57.1077 132.648 56.6473 132.192 56.9358C131.736 57.2238 131.362 57.633 130.375 57.8099C129.387 57.9872 129.685 57.288 130.722 56.2958C131.019 56.0123 131.811 54.9933 132.499 54.8554C133.425 54.6701 135.428 53.9163 135.428 53.9163L139.447 59.0276" fill="#F0896F"/>
<path id="path102" d="M138.411 62.3122C138.411 62.3122 137.032 63.2322 136.548 63.2074C136.063 63.1822 135.605 62.875 135.486 62.0272C135.486 62.0272 132.919 62.5284 133.732 60.4618C133.732 60.4618 132.182 60.1944 132.14 59.1177C132.14 59.1177 130.763 58.3876 131.064 57.2169C131.365 56.0462 135.687 56.1524 135.687 56.1524L140.272 58.6294L138.411 62.3122Z" fill="#F0896F"/>
<path id="path104" d="M137.437 62.5078C137.437 62.5078 138.746 61.2726 138.674 60.7774C138.601 60.2819 138.355 60.0095 138.057 60.1042C137.659 60.2314 136.141 61.4628 135.486 62.0272" stroke="#0F1626" stroke-width="1.03982" stroke-miterlimit="10" stroke-linecap="round" stroke-linejoin="round"/>
<path id="path106" d="M133.732 60.4619C133.732 60.4619 137.221 59.8827 137.253 59.3329C137.285 58.7835 137.041 58.0579 136.313 58.2123C135.447 58.3961 132.964 59.0284 132.14 59.0112" stroke="#0F1626" stroke-width="1.03982" stroke-miterlimit="10" stroke-linecap="round" stroke-linejoin="round"/>
<path id="path108" d="M138.057 60.1042C138.057 60.1042 138.699 59.6813 138.445 59.2079C138.191 58.7349 137.845 58.5687 137.103 58.7739" stroke="#0F1626" stroke-width="1.03982" stroke-miterlimit="10" stroke-linecap="round" stroke-linejoin="round"/>
<path id="path110" d="M132.07 57.4614C132.07 57.4614 132.261 57.1974 132.531 56.9277" stroke="#0F1626" stroke-width="1.03982" stroke-miterlimit="10" stroke-linecap="round" stroke-linejoin="round"/>
<path id="path112" d="M139.635 64.3418L139.575 64.3777C139.105 64.6585 138.51 64.4812 138.246 63.9815L129.178 46.8292L130.939 45.7754L140.007 62.9281C140.271 63.4279 140.104 64.0609 139.635 64.3418Z" fill="#022C22"/>
<path id="path114" d="M133.66 49.5863L134.421 51.0255C134.627 51.416 134.534 51.8886 134.213 52.0812L132.568 53.0647C132.247 53.2572 131.818 53.0967 131.612 52.7063L130.818 51.2044" fill="#022C22"/>
<path id="path116" d="M130.142 35.4989C126.996 29.2914 123.054 25.0183 120.547 24.8185L120.63 24.229L119.321 25.1372C117.07 26.7675 118.266 34.0497 121.992 41.4031C125.718 48.756 130.563 53.3951 132.813 51.7648L134.044 50.8918L133.69 50.3871C134.556 47.5391 133.205 41.5444 130.142 35.4989Z" fill="#022C22"/>
<path id="path118" d="M131.451 34.5907C135.177 41.9437 136.373 49.2263 134.123 50.8566C131.872 52.4869 127.028 47.8478 123.302 40.4949C119.576 33.1419 118.38 25.8593 120.63 24.229C122.881 22.5987 127.726 27.2378 131.451 34.5907Z" fill="#10B981"/>
<path id="path120" d="M130.208 35.4916C133.24 41.4756 134.431 47.2452 132.867 48.3781C131.303 49.5109 127.578 45.5782 124.546 39.5939C121.513 33.6099 120.323 27.8402 121.886 26.7074C123.45 25.5746 127.176 29.5076 130.208 35.4916Z" fill="#C8D7F1"/>
<path id="path122" d="M139.632 58.8927C139.632 58.8927 136.232 58.3678 134.795 57.1077C134.795 57.1077 132.648 56.6473 132.192 56.9358C131.736 57.2238 131.362 57.633 130.375 57.8099C129.387 57.9872 129.685 57.288 130.722 56.2958C131.019 56.0123 131.811 54.9933 132.499 54.8554C133.425 54.6701 135.428 53.9163 135.428 53.9163L139.447 59.0276" fill="#F0896F"/>
<path id="path124" d="M139.632 58.8927C139.632 58.8927 136.232 58.3677 134.795 57.1077C134.795 57.1077 132.648 56.6473 132.192 56.9357C131.735 57.2238 131.362 57.633 130.375 57.8099" stroke="#0F1626" stroke-width="1.03982" stroke-miterlimit="10" stroke-linecap="round" stroke-linejoin="round"/>
<path id="path126" d="M130.208 35.4916C127.176 29.5076 123.45 25.5745 121.886 26.7074C121.763 26.7968 121.659 26.9183 121.569 27.0635C123.376 27.1804 126.538 30.8318 129.176 36.0376C131.969 41.5489 133.197 46.8754 132.152 48.5676C132.423 48.5851 132.663 48.5255 132.867 48.3781C134.431 47.2452 133.24 41.4756 130.208 35.4916Z" fill="#022C22"/>
<path id="path128" d="M128.097 33.1461C129.71 36.3295 130.343 39.3987 129.511 40.0012C128.679 40.6041 126.698 38.5119 125.085 35.3285C123.472 32.1455 122.838 29.0763 123.67 28.4734C124.502 27.8709 126.484 29.9631 128.097 33.1461Z" fill="white"/>
<path id="path130" d="M188.412 43.392L185.911 33.8968C184.993 30.4108 183.383 27.1857 181.256 24.36C177.489 19.3537 167.594 19.8091 167.594 19.8091L159.98 25.6372C159.957 25.6506 159.934 25.6643 159.91 25.6781C155.428 28.3094 154.604 32.3682 154.722 38.6249L155 47.0729L160.154 41.837L161.454 43.7344C161.449 43.6797 161.444 43.6289 161.439 43.5796L162.055 44.6112L161.454 43.7344C161.637 45.4774 162.491 49.9167 166.463 51.9902L168.726 55.7784L168.126 61.0139C189.365 69.23 194.654 53.097 194.654 53.097L188.412 43.392Z" fill="#10B981"/>
<path id="path132" d="M159.064 40.966L161.844 44.5842C161.844 44.5842 161.464 50.1602 166.746 51.9479" stroke="#030712" stroke-width="1.33333" stroke-miterlimit="10" stroke-linecap="round"/>
<path id="path134" d="M180.17 48.3296L164.005 63.3125C164.005 63.3125 167.206 68.0796 168.646 68.25L188.012 55.14" fill="#10B981"/>
<path id="path136" d="M168.807 58.7155C168.807 58.7155 177.609 48.1596 180.65 46.6271" stroke="#030712" stroke-width="1.33333" stroke-miterlimit="10" stroke-linecap="round"/>
<path id="path138" d="M175.989 36.9435C175.989 36.9435 176.409 39.3059 179.23 47.606" stroke="#030712" stroke-width="1.33333" stroke-miterlimit="10" stroke-linecap="round"/>
<path id="path140" d="M170.887 66.8879C170.887 66.8879 188.973 54.6292 189.133 51.0538C189.293 47.4784 184.571 30.8782 184.571 30.8782" stroke="#030712" stroke-width="1.33333" stroke-miterlimit="10" stroke-linecap="round"/>
<path id="path142" d="M172.867 49.5217C172.867 49.5217 177.221 49.9576 178.569 45.7545" stroke="#030712" stroke-width="1.33333" stroke-miterlimit="10" stroke-linecap="round"/>
<path id="path144" d="M155.24 46.3921C155.24 46.3921 156.44 45.1148 157.64 46.5621" stroke="#030712" stroke-width="1.33333" stroke-miterlimit="10" stroke-linecap="round"/>
<path id="path146" d="M140.998 54.821L143.559 53.5441C143.559 53.5441 146.68 57.1619 145.559 60.2693L142.438 61.2482C142.438 61.2482 143.879 57.8428 140.998 54.821Z" fill="white"/>
<path id="path148" d="M165.025 61.3971C165.025 61.3971 168.386 62.9293 170.787 67.3349L168.206 69.4417C168.206 69.4417 165.025 64.5894 162.804 63.8233L165.025 61.3971Z" fill="white"/>
<path id="path150" d="M162.204 19.2579L172.807 20.0881C172.807 20.0881 173.21 26.2925 166.807 31.7638L163.931 28.7917L162.364 32.4106C162.364 32.4106 159.931 30.9546 159.603 26.7747L160.12 21.7004L162.204 19.2579Z" fill="white"/>
<path id="path152" d="M167.594 19.8091C167.98 20.1598 168.164 20.7001 168.074 21.2323C167.734 23.2515 166.704 28.139 164.641 28.7534C162.031 29.5301 160.403 24.047 160.403 24.047L161.704 14.4693L167.594 19.8091Z" fill="#F0896F"/>
<path id="path154" d="M159.325 22.0802L159.293 23.4751C159.269 23.4893 158.823 27.6057 160.124 27.7646C165.559 26.7193 165.901 21.237 166.366 15.7963C166.366 15.7963 158.798 20.9944 159.325 22.0802Z" fill="#030712"/>
<path id="path156" d="M150.276 11.8116C150.276 11.8116 148.951 25.2406 156.794 27.5514C164.637 29.8625 166.515 16.257 166.245 11.5518C165.975 6.84658 164.003 5.0967 158.507 4.8858C150.374 4.57403 150.276 11.8116 150.276 11.8116Z" fill="#F0896F"/>
<path id="path158" d="M157.322 18.3C157.344 18.7837 157.128 19.188 156.84 19.2036C156.551 19.2193 156.299 18.8403 156.277 18.3566C156.254 17.8733 156.47 17.469 156.759 17.4534C157.048 17.4377 157.3 17.8171 157.322 18.3Z" fill="#030712"/>
<path id="path160" d="M158.183 15.826C158.183 15.826 155.592 17.0257 155.338 14.9419" stroke="#030712" stroke-width="1.33333" stroke-miterlimit="10" stroke-linecap="round"/>
<path id="path162" d="M152.194 15.8314C152.194 15.8314 151.338 17.4124 150.354 16.7098" stroke="#030712" stroke-width="1.33333" stroke-miterlimit="10" stroke-linecap="round"/>
<path id="path164" d="M150.817 18.6393C150.817 18.6393 151.307 18.4712 152.025 18.8746" stroke="#030712" stroke-width="1.33333" stroke-miterlimit="10" stroke-linecap="round"/>
<path id="path166" d="M158.496 23.6482C158.496 23.6482 159.203 22.9295 159.786 22.7664" stroke="#030712" stroke-width="1.33333" stroke-miterlimit="10" stroke-linecap="round"/>
<path id="path168" d="M153.195 20.1863C153.195 20.1863 152.745 21.2752 153.891 21.7979" stroke="#030712" stroke-width="1.33333" stroke-miterlimit="10" stroke-linecap="round"/>
<path id="path170" d="M150.184 14.6985C150.184 14.6985 150.317 10.7663 151.955 8.54453C151.955 8.54453 154.207 13.9894 163.911 15.1001L166.736 14.4685C166.736 14.4685 167.893 8.16361 163.84 5.68053C159.786 3.19784 153.582 4.57023 151.587 6.80229C148.203 10.5871 150.184 14.6985 150.184 14.6985Z" fill="#030712"/>
<path id="path172" d="M162.028 14.3814L163.706 17.9094L164.894 13.9458L162.028 14.3814Z" fill="#030712"/>
<path id="path174" d="M167.895 17.5431C167.412 19.4199 166.024 20.6604 164.795 20.3139C163.567 19.9677 162.963 18.1655 163.447 16.2888C163.93 14.412 165.318 13.1715 166.547 13.518C167.775 13.8642 168.379 15.6664 167.895 17.5431Z" fill="#F0896F"/>
<path id="path176" d="M166.662 15.9089C166.662 15.9089 165.281 14.6443 164.526 16.9565C164.526 16.9565 165.333 17.8678 164.824 18.583C164.824 18.583 165.619 18.7752 166.012 18.0286" stroke="#030712" stroke-width="1.33333" stroke-miterlimit="10" stroke-linecap="round" stroke-linejoin="round"/>
<path id="path178" d="M166.064 16.7935C166.064 16.7935 165.988 16.28 165.451 15.6935" stroke="#030712" stroke-width="1.33333" stroke-miterlimit="10" stroke-linecap="round" stroke-linejoin="round"/>
<path id="path180" d="M166.736 20.2508C166.736 20.9546 166.2 21.525 165.539 21.525C164.877 21.525 164.341 20.9546 164.341 20.2508C164.341 19.547 164.877 18.9766 165.539 18.9766C166.2 18.9766 166.736 19.547 166.736 20.2508Z" fill="white"/>
<path id="path182" d="M163.379 7.325C163.379 7.325 164.853 -0.863914 168.293 0.704103C171.732 2.2725 173.288 10.1126 170.012 10.7228C166.736 11.3325 164.198 9.67741 164.198 9.67741L163.379 7.325Z" fill="#030712"/>
<path id="path184" d="M163.42 9.67733C163.42 9.67733 169.111 14.7298 170.954 10.069" stroke="#030712" stroke-width="1.33333" stroke-miterlimit="10" stroke-linecap="round"/>
<path id="path186" d="M184.929 81.1605L178.34 77.2049" stroke="#4B5563" stroke-width="1.33333" stroke-miterlimit="10" stroke-linecap="round"/>
<path id="path188" d="M35.3843 29.2169C42.5032 29.4233 48.3934 35.489 48.8028 43.0525C49.0438 47.4998 47.4237 51.5467 44.6973 54.4019C44.2943 54.8237 44.1072 55.4251 44.2013 56.0181L45.2252 62.464L38.9252 58.5588C38.5661 58.3365 38.1433 58.2551 37.7364 58.3422C36.196 58.6727 34.5645 58.7335 32.8828 58.4626C26.6588 57.4596 21.803 51.9784 21.229 45.3098C20.4639 36.4217 27.1372 28.9778 35.3843 29.2169Z" fill="#D1FAE5"/>
<path id="path190" d="M34.3914 48.9871H34.6386H35.03H35.277L35.28 48.7401L35.3166 45.7221C35.8414 45.5656 36.3199 45.3473 36.7512 45.0652C37.2288 44.7534 37.6369 44.3852 37.9742 43.9604C37.9742 43.9604 37.9742 43.9603 37.9742 43.9603L37.7784 43.8049C38.0981 43.403 38.3459 42.959 38.5219 42.473L34.3914 48.9871ZM34.3914 48.9871L34.3886 48.7398M34.3914 48.9871L34.3886 48.7398M34.3886 48.7398L34.3496 45.2229L34.3474 45.0271M34.3886 48.7398L34.3474 45.0271M34.3474 45.0271L34.5369 44.9781M34.3474 45.0271L34.5369 44.9781M34.5369 44.9781C35.004 44.8571 35.427 44.7003 35.8069 44.508L35.8071 44.5079M34.5369 44.9781L35.8071 44.5079M35.8071 44.5079C36.1882 44.3154 36.5189 44.0946 36.8012 43.8461L36.8014 43.8459M35.8071 44.5079L36.8014 43.8459M36.8014 43.8459C37.0835 43.5982 37.3183 43.3224 37.5074 43.0175C37.6965 42.7126 37.8401 42.3837 37.9388 42.0314M36.8014 43.8459L37.9388 42.0314M37.9388 42.0314C38.0365 41.6802 38.0862 41.3074 38.0862 40.9126C38.0862 40.3559 37.9586 39.8338 37.7031 39.3418C37.4499 38.8543 37.089 38.4602 36.6167 38.1575C36.1547 37.8614 35.5966 37.7079 34.9321 37.7079C34.2281 37.7079 33.5764 37.9135 32.9707 38.3299C32.3869 38.7313 31.9195 39.4304 31.5905 40.4678L31.4869 40.7944L31.2075 40.5961L30.8553 40.3463L30.7095 40.2428L30.7603 40.0714C31.0722 39.0181 31.6005 38.1924 32.3541 37.6135L37.9388 42.0314ZM34.3428 50.759L34.343 50.7587C34.4842 50.5766 34.683 50.4849 34.9125 50.4849C35.146 50.4849 35.3674 50.5589 35.5078 50.7569L35.5083 50.7575C35.6266 50.9255 35.671 51.1351 35.671 51.3592C35.671 51.5705 35.6165 51.766 35.5011 51.9364L35.5006 51.9371C35.3629 52.1391 35.1534 52.2339 34.9125 52.2339C34.6829 52.2339 34.4745 52.1549 34.3324 51.9693L34.3321 51.969C34.2031 51.7999 34.1539 51.5872 34.1539 51.3592C34.1539 51.1359 34.2112 50.9294 34.3428 50.759Z" fill="#10B981" stroke="#10B981" stroke-width="0.5"/>
</g>
</g>
</svg>
