<svg width="17" height="16" viewBox="0 0 17 16" fill="none" xmlns="http://www.w3.org/2000/svg">
<path d="M8.49563 12C8.70688 12 8.88542 11.9285 9.03125 11.7856C9.17708 11.6427 9.25 11.4656 9.25 11.2544C9.25 11.0431 9.17854 10.8646 9.03563 10.7188C8.89271 10.5729 8.71563 10.5 8.50438 10.5C8.29313 10.5 8.11458 10.5715 7.96875 10.7144C7.82292 10.8573 7.75 11.0344 7.75 11.2456C7.75 11.4569 7.82146 11.6354 7.96438 11.7812C8.10729 11.9271 8.28438 12 8.49563 12ZM7.75 9H9.25V4H7.75V9ZM8.50583 16C7.40472 16 6.36806 15.7917 5.39583 15.375C4.42361 14.9583 3.57292 14.3854 2.84375 13.6562C2.11458 12.9271 1.54167 12.0767 1.125 11.105C0.708333 10.1333 0.5 9.09514 0.5 7.99042C0.5 6.88569 0.708333 5.85069 1.125 4.88542C1.54167 3.92014 2.11458 3.07292 2.84375 2.34375C3.57292 1.61458 4.42333 1.04167 5.395 0.625C6.36667 0.208333 7.40486 0 8.50958 0C9.61431 0 10.6493 0.208333 11.6146 0.625C12.5799 1.04167 13.4271 1.61458 14.1562 2.34375C14.8854 3.07292 15.4583 3.92167 15.875 4.89C16.2917 5.85847 16.5 6.89319 16.5 7.99417C16.5 9.09528 16.2917 10.1319 15.875 11.1042C15.4583 12.0764 14.8854 12.9271 14.1562 13.6562C13.4271 14.3854 12.5783 14.9583 11.61 15.375C10.6415 15.7917 9.60681 16 8.50583 16ZM8.5 14.5C10.3056 14.5 11.8403 13.8681 13.1042 12.6042C14.3681 11.3403 15 9.80556 15 8C15 6.19444 14.3681 4.65972 13.1042 3.39583C11.8403 2.13194 10.3056 1.5 8.5 1.5C6.69444 1.5 5.15972 2.13194 3.89583 3.39583C2.63194 4.65972 2 6.19444 2 8C2 9.80556 2.63194 11.3403 3.89583 12.6042C5.15972 13.8681 6.69444 14.5 8.5 14.5Z" fill="#EF4444"/>
</svg>
