<svg width="20" height="19" viewBox="0 0 20 19" fill="none" xmlns="http://www.w3.org/2000/svg">
<path fill-rule="evenodd" clip-rule="evenodd" d="M19.2334 2.29C19.0342 1.03026 17.9865 0.078122 16.7134 0H3.40345C2.13045 0.078122 1.08268 1.03026 0.883449 2.29L0.0134488 14.01C-0.166551 16.45 1.48345 18.54 3.57345 18.54H16.3634C18.4234 18.54 20.0534 16.54 19.9134 14.1L19.2334 2.29ZM3.40345 1.54H16.7134C17.2257 1.62644 17.627 2.02776 17.7134 2.54L18.1334 9.7H14.8634C13.5508 9.74547 12.3719 10.516 11.8034 11.7C11.4484 12.4133 10.7202 12.8643 9.92345 12.8643C9.12665 12.8643 8.39849 12.4133 8.04345 11.7C7.47672 10.5144 6.2968 9.74323 4.98345 9.7H1.84345L2.37345 2.55C2.4626 2.0262 2.87801 1.61886 3.40345 1.54ZM16.3634 17.04C16.8606 17.026 17.3303 16.8092 17.6634 16.44C18.1994 15.8266 18.463 15.0216 18.3934 14.21L18.2234 11.21H14.8434C14.0875 11.2614 13.4201 11.7217 13.1034 12.41C12.4943 13.6151 11.2588 14.375 9.90845 14.375C8.5581 14.375 7.32263 13.6151 6.71345 12.41C6.39335 11.7202 5.72229 11.26 4.96345 11.21H1.73345L1.51345 14.12C1.4389 14.9552 1.70587 15.785 2.25345 16.42C2.58779 16.8016 3.06626 17.0264 3.57345 17.04H16.3634Z" fill="#6B7280"/>
</svg>
