<svg width="14" height="15" viewBox="0 0 14 15" fill="none" xmlns="http://www.w3.org/2000/svg">
<path fill-rule="evenodd" clip-rule="evenodd" d="M2.30724 0.83393H11.7606V0.840597C12.5572 0.826733 13.2808 1.30301 13.583 2.04022C13.8853 2.77743 13.7043 3.62456 13.1272 4.17393L9.94724 7.35393C9.59326 7.70852 9.3902 8.18632 9.38057 8.68726V11.6206C9.37953 12.2289 9.09324 12.8015 8.60724 13.1673L7.78057 13.7873C7.19597 14.2321 6.40928 14.3058 5.75223 13.9773C5.09517 13.6488 4.68212 12.9752 4.68724 12.2406V8.68726C4.67761 8.18632 4.47455 7.70852 4.12057 7.35393L0.940571 4.17393C0.358407 3.62539 0.174157 2.77498 0.477078 2.03467C0.779998 1.29436 1.50753 0.817039 2.30724 0.83393ZM12.6272 2.41393C12.4834 2.06218 12.1406 1.83279 11.7606 1.83393H2.30724C1.92721 1.83279 1.58444 2.06218 1.44057 2.41393C1.29205 2.76397 1.37418 3.16931 1.64724 3.43393L4.84057 6.61393C5.39329 7.16201 5.70308 7.90888 5.70057 8.68726V12.2406C5.69701 12.4864 5.79124 12.7235 5.96253 12.8998C6.13382 13.0761 6.36813 13.1771 6.6139 13.1806C6.81475 13.1797 7.00953 13.1116 7.16724 12.9873L7.9939 12.3673C8.22892 12.191 8.36724 11.9144 8.36724 11.6206V8.68726C8.36824 7.90694 8.68296 7.1598 9.24057 6.61393L12.4206 3.43393C12.6936 3.16931 12.7758 2.76397 12.6272 2.41393Z" fill="#030712"/>
</svg>
