<svg width="30" height="31" viewBox="0 0 30 31" fill="none" xmlns="http://www.w3.org/2000/svg">
<path d="M5.56367 9.96045H2.55859L3.56611 15.2077C3.65347 15.6616 3.96879 15.9802 4.33069 15.9802H5.56367H6.79706C7.15856 15.9802 7.47429 15.6616 7.56123 15.2077L8.56875 9.96045H5.56367Z" fill="#9CA3AF"/>
<path d="M9.53216 5.38306H3.7533C3.7533 5.38306 1.53028 10.3827 2.3011 10.3827H8.07413C8.4531 10.3827 8.77424 10.0223 8.82707 9.53824L9.53216 5.38306Z" fill="#D1D5DB"/>
<path d="M8.56935 6.27856H4.36998L3.06836 9.55275C2.9939 9.73915 3.09874 9.96048 3.26097 9.96048H7.88672C7.99155 9.96048 8.08182 9.86271 8.10012 9.72895L8.56935 6.27856Z" fill="#664A3B"/>
<path d="M11.6828 9.96045H8.67773L9.68525 15.2077C9.77261 15.6616 10.0879 15.9802 10.4498 15.9802H11.6828H12.9162C13.2777 15.9802 13.5934 15.6616 13.6804 15.2077L14.6879 9.96045H11.6828Z" fill="#9CA3AF"/>
<path d="M15.0001 5.38306H9.27325L8.5744 9.84713C8.52948 10.1238 8.79197 10.3822 9.02201 10.3822H14.565C14.805 10.3822 14.9997 10.1431 14.9997 9.8482V5.38306H15.0001Z" fill="#D1D5DB"/>
<path d="M14.5331 6.27856H10.1074L9.14692 9.61667C9.09866 9.78481 9.20016 9.96048 9.34492 9.96048H14.3234C14.4391 9.96048 14.5331 9.84498 14.5331 9.70316V6.27856Z" fill="#664A3B"/>
<path d="M6.03555 4.25757H5.13037V8.76837H6.03555V4.25757Z" fill="#10B981"/>
<path d="M3.20601 2.82497C3.38946 3.54104 3.96809 3.9536 4.52385 4.18621C4.97602 4.37584 5.4465 4.49241 5.92073 4.53431C5.97647 2.75406 5.00597 1.00496 3.68272 0.5C3.35035 1.20909 3.00509 2.03798 3.20601 2.82497Z" fill="#10B981"/>
<path d="M4.24219 1.89355C4.74803 2.79066 5.34704 3.59967 6.01886 4.29157C5.80213 4.43232 5.53299 4.37698 5.325 4.21636C5.117 4.05627 4.96101 3.80487 4.82665 3.54487C4.56541 3.03991 4.36698 2.47963 4.24219 1.89355Z" fill="#6EE7B7"/>
<path d="M7.92159 3.07423C7.73856 3.79085 7.15993 4.20341 6.60375 4.43548C6.15158 4.6251 5.6811 4.74166 5.20687 4.78356C5.15113 3.00331 6.12163 1.25423 7.44488 0.749268C7.77766 1.45836 8.12335 2.28725 7.92159 3.07423Z" fill="#10B981"/>
<path d="M7.12963 1.89355C6.62379 2.79066 6.02477 3.59967 5.35254 4.29157C5.56885 4.43232 5.83841 4.37698 6.0464 4.21636C6.25439 4.05627 6.41039 3.80487 6.54475 3.54487C6.80641 3.03991 7.00442 2.47963 7.12963 1.89355Z" fill="#6EE7B7"/>
<path d="M12.4603 4.25757H11.5547V8.76837H12.4603V4.25757Z" fill="#10B981"/>
<path d="M9.63073 2.82497C9.81376 3.54104 10.3924 3.9536 10.9482 4.18621C11.4007 4.37584 11.8712 4.49241 12.3455 4.53431C12.4008 2.75406 11.4303 1.00496 10.1074 0.5C9.77424 1.20909 9.42898 2.03798 9.63073 2.82497Z" fill="#10B981"/>
<path d="M10.667 1.89355C11.1724 2.79066 11.7718 3.59967 12.4437 4.29157C12.2274 4.43232 11.9582 4.37698 11.7502 4.21636C11.5422 4.05627 11.3862 3.80487 11.2519 3.54487C10.9898 3.03991 10.7918 2.47963 10.667 1.89355Z" fill="#6EE7B7"/>
<path d="M14.3464 3.07423C14.1629 3.79085 13.5843 4.20341 13.0286 4.43548C12.576 4.6251 12.1059 4.74166 11.6317 4.78356C11.5759 3.00331 12.5464 1.25423 13.8693 0.749268C14.202 1.45836 14.5473 2.28725 14.3464 3.07423Z" fill="#10B981"/>
<path d="M13.5535 1.89355C13.0481 2.79066 12.4487 3.59967 11.7769 4.29157C11.9932 4.43232 12.2627 4.37698 12.4707 4.21636C12.6787 4.05627 12.8347 3.80487 12.9691 3.54487C13.2307 3.03991 13.4291 2.47963 13.5535 1.89355Z" fill="#6EE7B7"/>
<path d="M24.4357 9.96045H27.4408L26.4333 15.2077C26.3459 15.6616 26.0306 15.9802 25.6687 15.9802H24.4357H23.2023C22.8404 15.9802 22.5251 15.6616 22.4382 15.2077L21.4307 9.96045H24.4357Z" fill="#9CA3AF"/>
<path d="M20.4668 5.38306H26.2457C26.2457 5.38306 28.4687 10.3827 27.6979 10.3827H21.9248C21.5463 10.3827 21.2247 10.0223 21.1719 9.53824L20.4668 5.38306Z" fill="#D1D5DB"/>
<path d="M21.4307 6.27856H25.63L26.9317 9.55275C27.0061 9.73915 26.9013 9.96048 26.739 9.96048H22.1133C22.008 9.96048 21.9182 9.86271 21.8999 9.72895L21.4307 6.27856Z" fill="#664A3B"/>
<path d="M18.3166 9.96045H21.3217L20.3142 15.2077C20.2268 15.6616 19.9115 15.9802 19.5496 15.9802H18.3166H17.0832C16.7217 15.9802 16.406 15.6616 16.319 15.2077L15.3115 9.96045H18.3166Z" fill="#9CA3AF"/>
<path d="M15 5.38306H20.7269L21.4257 9.84713C21.4706 10.1238 21.2081 10.3822 20.9781 10.3822H15.4351C15.1951 10.3822 15.0004 10.1431 15.0004 9.8482L15 5.38306Z" fill="#D1D5DB"/>
<path d="M15.4668 6.27856H19.8925L20.853 9.61667C20.9012 9.78481 20.8001 9.96048 20.655 9.96048H15.6765C15.5608 9.96048 15.4668 9.84498 15.4668 9.70316V6.27856Z" fill="#664A3B"/>
<path d="M24.869 4.25757H23.9639V8.76837H24.869V4.25757Z" fill="#10B981"/>
<path d="M26.7932 2.82497C26.6097 3.54104 26.0311 3.9536 25.4753 4.18621C25.0232 4.37584 24.5527 4.49241 24.0785 4.53431C24.0227 2.75406 24.9932 1.00496 26.3165 0.5C26.6492 1.20909 26.9945 2.03798 26.7932 2.82497Z" fill="#10B981"/>
<path d="M25.7576 1.89355C25.2517 2.79066 24.6527 3.59967 23.9805 4.29157C24.1972 4.43232 24.4663 4.37698 24.6743 4.21636C24.8823 4.05627 25.0383 3.80487 25.1727 3.54487C25.4343 3.03991 25.6323 2.47963 25.7576 1.89355Z" fill="#6EE7B7"/>
<path d="M22.078 3.07423C22.261 3.79085 22.8396 4.20341 23.3958 4.43548C23.848 4.6251 24.3185 4.74166 24.7927 4.78356C24.8484 3.00331 23.8779 1.25423 22.5547 0.749268C22.2219 1.45836 21.8762 2.28725 22.078 3.07423Z" fill="#10B981"/>
<path d="M22.8701 1.89355C23.376 2.79066 23.975 3.59967 24.6468 4.29157C24.4305 4.43232 24.1609 4.37698 23.9529 4.21636C23.7449 4.05627 23.5889 3.80487 23.4546 3.54487C23.1933 3.03991 22.9953 2.47963 22.8701 1.89355Z" fill="#6EE7B7"/>
<path d="M18.4442 4.25757H17.5391V8.76837H18.4442V4.25757Z" fill="#10B981"/>
<path d="M20.369 2.82497C20.1859 3.54104 19.6073 3.9536 19.0515 4.18621C18.5989 4.37584 18.1285 4.49241 17.6547 4.53431C17.5985 2.75406 18.5694 1.00496 19.8922 0.5C20.2254 1.20909 20.5707 2.03798 20.369 2.82497Z" fill="#10B981"/>
<path d="M19.3329 1.89355C18.8275 2.79066 18.228 3.59967 17.5566 4.29157C17.773 4.43232 18.0421 4.37698 18.2501 4.21636C18.4581 4.05627 18.6141 3.80487 18.7484 3.54487C19.0101 3.03991 19.2081 2.47963 19.3329 1.89355Z" fill="#6EE7B7"/>
<path d="M15.6533 3.07423C15.8367 3.79085 16.4154 4.20341 16.9711 4.43548C17.4237 4.6251 17.8938 4.74166 18.368 4.78356C18.4237 3.00331 17.4532 1.25423 16.1304 0.749268C15.7976 1.45836 15.4523 2.28725 15.6533 3.07423Z" fill="#10B981"/>
<path d="M16.4458 1.89355C16.9512 2.79066 17.5507 3.59967 18.2229 4.29157C18.0062 4.43232 17.737 4.37698 17.529 4.21636C17.321 4.05627 17.165 3.80487 17.0307 3.54487C16.769 3.03991 16.5706 2.47963 16.4458 1.89355Z" fill="#6EE7B7"/>
<path d="M4.54536 16.5298H1.21582L2.33233 22.3438C2.42884 22.8466 2.77826 23.2001 3.17927 23.2001H4.54536H5.91147C6.31248 23.2001 6.6619 22.8472 6.75841 22.3438L7.87491 16.5298H4.54536Z" fill="#9CA3AF"/>
<path d="M8.94224 11.4585H2.53898C2.53898 11.4585 0.0759339 16.9975 0.929951 16.9975H7.32655C7.7467 16.9975 8.10195 16.5983 8.16102 16.0617L8.94224 11.4585Z" fill="#D1D5DB"/>
<path d="M7.87496 12.4512H3.22258L1.77954 16.0788C1.698 16.2851 1.81365 16.5301 1.99335 16.5301H7.1187C7.23518 16.5301 7.33501 16.4221 7.35498 16.2738L7.87496 12.4512Z" fill="#664A3B"/>
<path d="M11.3256 16.5298H7.99609L9.11259 22.3438C9.2091 22.8466 9.55853 23.2001 9.95954 23.2001H11.3256H12.6917C13.0932 23.2001 13.4426 22.8472 13.5387 22.3438L14.6552 16.5298H11.3256Z" fill="#9CA3AF"/>
<path d="M15.0002 11.4585H8.65478L7.88064 16.4049C7.83072 16.7117 8.12191 16.998 8.3765 16.998H14.5185C14.7847 16.998 15.0002 16.7332 15.0002 16.406V11.4585Z" fill="#D1D5DB"/>
<path d="M14.4832 12.4512H9.57961L8.51551 16.1497C8.46185 16.3356 8.57417 16.5301 8.73432 16.5301H14.2511C14.3792 16.5301 14.4832 16.4027 14.4832 16.2448V12.4512Z" fill="#664A3B"/>
<path d="M5.06796 10.2112H4.06543V15.2097H5.06796V10.2112Z" fill="#10B981"/>
<path d="M1.9328 8.62383C2.1358 9.41726 2.77684 9.8744 3.39291 10.1323C3.89418 10.3423 4.41541 10.4723 4.94122 10.5185C5.00278 8.54594 3.92703 6.60775 2.46152 6.04907C2.09254 6.83337 1.70983 7.75197 1.9328 8.62383Z" fill="#10B981"/>
<path d="M3.08057 7.5918C3.6409 8.58614 4.30481 9.48272 5.04942 10.2488C4.80982 10.4045 4.51114 10.3433 4.28027 10.166C4.04981 9.98876 3.87718 9.70995 3.72826 9.42202C3.43873 8.86172 3.21909 8.24126 3.08057 7.5918Z" fill="#6EE7B7"/>
<path d="M7.15789 8.89947C6.95489 9.69343 6.31386 10.15 5.69779 10.4084C5.19653 10.6185 4.67529 10.7479 4.14949 10.7941C4.08792 8.82211 5.16366 6.88392 6.62917 6.32471C6.99857 7.10954 7.38086 8.0276 7.15789 8.89947Z" fill="#10B981"/>
<path d="M6.27989 7.5918C5.71956 8.58614 5.05565 9.48272 4.31104 10.2488C4.55106 10.4045 4.84932 10.3433 5.08019 10.166C5.31065 9.98876 5.48369 9.70995 5.6322 9.42202C5.92173 8.86172 6.14137 8.24126 6.27989 7.5918Z" fill="#6EE7B7"/>
<path d="M12.1855 10.2112H11.1826V15.2097H12.1855V10.2112Z" fill="#10B981"/>
<path d="M9.05097 8.62383C9.25397 9.41726 9.89499 9.8744 10.5111 10.1323C11.0123 10.3423 11.5336 10.4723 12.0594 10.5185C12.1209 8.54594 11.0452 6.60775 9.57968 6.04907C9.2107 6.83337 8.828 7.75197 9.05097 8.62383Z" fill="#10B981"/>
<path d="M10.1982 7.5918C10.7586 8.58614 11.4225 9.48272 12.1671 10.2488C11.9271 10.4045 11.6284 10.3433 11.3979 10.166C11.1675 9.98876 10.9944 9.70995 10.8459 9.42202C10.5564 8.86172 10.3368 8.24126 10.1982 7.5918Z" fill="#6EE7B7"/>
<path d="M14.2761 8.89947C14.0726 9.69343 13.432 10.15 12.8155 10.4084C12.3147 10.6185 11.7935 10.7479 11.2677 10.7941C11.2061 8.82211 12.281 6.88392 13.7473 6.32471C14.1163 7.10954 14.499 8.0276 14.2761 8.89947Z" fill="#10B981"/>
<path d="M13.3976 7.5918C12.8372 8.58614 12.1733 9.48272 11.4287 10.2488C11.6683 10.4045 11.967 10.3433 12.1979 10.166C12.4283 9.98876 12.601 9.70995 12.7499 9.42202C13.0394 8.86172 13.259 8.24126 13.3976 7.5918Z" fill="#6EE7B7"/>
<path d="M25.455 16.5298H28.7846L27.6681 22.3438C27.572 22.8466 27.2221 23.2001 26.8211 23.2001H25.455H24.0889C23.6879 23.2001 23.3385 22.8472 23.242 22.3438L22.1255 16.5298H25.455Z" fill="#9CA3AF"/>
<path d="M21.0586 11.4585H27.4619C27.4619 11.4585 29.9249 16.9975 29.0709 16.9975H22.6743C22.2546 16.9975 21.8989 16.5983 21.8398 16.0617L21.0586 11.4585Z" fill="#D1D5DB"/>
<path d="M22.1255 12.4512H26.7783L28.2209 16.0788C28.3029 16.2851 28.1872 16.5301 28.0075 16.5301H22.8822C22.7657 16.5301 22.6658 16.4221 22.6459 16.2738L22.1255 12.4512Z" fill="#664A3B"/>
<path d="M18.6752 16.5298H22.0048L20.8883 22.3438C20.7918 22.8466 20.4423 23.2001 20.0413 23.2001H18.6752H17.3092C16.9077 23.2001 16.5583 22.8472 16.4622 22.3438L15.3457 16.5298H18.6752Z" fill="#9CA3AF"/>
<path d="M15 11.4585H21.3454L22.1196 16.4049C22.1695 16.7117 21.8783 16.998 21.6237 16.998H15.4817C15.2155 16.998 15 16.7332 15 16.406V11.4585Z" fill="#D1D5DB"/>
<path d="M15.5176 12.4512H20.4212L21.4853 16.1497C21.539 16.3356 21.4266 16.5301 21.2665 16.5301H15.7497C15.6216 16.5301 15.5176 16.4027 15.5176 16.2448V12.4512Z" fill="#664A3B"/>
<path d="M25.9351 10.2112H24.9326V15.2097H25.9351V10.2112Z" fill="#10B981"/>
<path d="M28.0676 8.62383C27.8646 9.41726 27.2235 9.8744 26.6074 10.1323C26.1062 10.3423 25.585 10.4723 25.0592 10.5185C24.9976 8.54594 26.0733 6.60775 27.5388 6.04907C27.9078 6.83337 28.2905 7.75197 28.0676 8.62383Z" fill="#10B981"/>
<path d="M26.92 7.5918C26.3597 8.58614 25.6958 9.48272 24.9512 10.2488C25.1908 10.4045 25.4895 10.3433 25.7203 10.166C25.9508 9.98876 26.1234 9.70995 26.2723 9.42202C26.5619 8.86172 26.7815 8.24126 26.92 7.5918Z" fill="#6EE7B7"/>
<path d="M22.8425 8.89947C23.0455 9.69343 23.6865 10.15 24.3026 10.4084C24.8038 10.6185 25.3251 10.7479 25.8509 10.7941C25.9124 8.82211 24.8367 6.88392 23.3712 6.32471C23.0022 7.10954 22.6195 8.0276 22.8425 8.89947Z" fill="#10B981"/>
<path d="M23.7207 7.5918C24.281 8.58614 24.9449 9.48272 25.6896 10.2488C25.4495 10.4045 25.1509 10.3433 24.9204 10.166C24.6899 9.98876 24.5173 9.70995 24.3684 9.42202C24.0789 8.86172 23.8592 8.24126 23.7207 7.5918Z" fill="#6EE7B7"/>
<path d="M18.8174 10.2112H17.8145V15.2097H18.8174V10.2112Z" fill="#10B981"/>
<path d="M20.9495 8.62383C20.7465 9.41726 20.1054 9.8744 19.4894 10.1323C18.9881 10.3423 18.4669 10.4723 17.9415 10.5185C17.8799 8.54594 18.9552 6.60775 20.4207 6.04907C20.7897 6.83337 21.1724 7.75197 20.9495 8.62383Z" fill="#10B981"/>
<path d="M19.8019 7.5918C19.2416 8.58614 18.5777 9.48272 17.8335 10.2488C18.0731 10.4045 18.3718 10.3433 18.6022 10.166C18.8327 9.98876 19.0057 9.70995 19.1543 9.42202C19.4438 8.86172 19.6634 8.24126 19.8019 7.5918Z" fill="#6EE7B7"/>
<path d="M15.7243 8.89947C15.9277 9.69343 16.5683 10.15 17.1844 10.4084C17.6857 10.6185 18.2069 10.7479 18.7327 10.7941C18.7943 8.82211 17.7194 6.88392 16.253 6.32471C15.884 7.10954 15.5013 8.0276 15.7243 8.89947Z" fill="#10B981"/>
<path d="M16.6025 7.5918C17.1629 8.58614 17.8268 9.48272 18.5714 10.2488C18.3318 10.4045 18.0331 10.3433 17.8022 10.166C17.5718 9.98876 17.3992 9.70995 17.2502 9.42202C16.9611 8.86172 16.7411 8.24126 16.6025 7.5918Z" fill="#6EE7B7"/>
<path d="M3.9949 23.479H0.490234L1.6654 29.5992C1.7669 30.1284 2.13462 30.5001 2.55684 30.5001H3.9949H5.43338C5.85561 30.5001 6.22292 30.1289 6.32484 29.5992L7.49999 23.479H3.9949Z" fill="#9CA3AF"/>
<path d="M8.62295 18.1404H1.88316C1.88316 18.1404 -0.709257 23.9711 0.189271 23.9711H6.92282C7.3646 23.9711 7.73941 23.551 7.80097 22.9858L8.62295 18.1404Z" fill="#D1D5DB"/>
<path d="M7.4997 19.1853H2.60232L1.08398 23.0037C0.99745 23.2207 1.11974 23.4791 1.3086 23.4791H6.70393C6.82664 23.4791 6.93148 23.3652 6.95269 23.2089L7.4997 19.1853Z" fill="#664A3B"/>
<path d="M11.1316 23.479H7.62695L8.80168 29.5992C8.90318 30.1284 9.27134 30.5001 9.69356 30.5001H11.1316H12.5697C12.9923 30.5001 13.3596 30.1289 13.4611 29.5992L14.6359 23.479H11.1316Z" fill="#9CA3AF"/>
<path d="M14.9997 18.1404H8.32027L7.50493 23.3468C7.45251 23.6702 7.7591 23.9711 8.02741 23.9711H14.4926C14.7726 23.9711 14.9997 23.6917 14.9997 23.3479V18.1404Z" fill="#D1D5DB"/>
<path d="M14.4556 19.1853H9.29405L8.17381 23.0783C8.11765 23.2739 8.23578 23.4791 8.40467 23.4791H14.2118C14.3466 23.4791 14.456 23.3442 14.456 23.1782V19.1853H14.4556Z" fill="#664A3B"/>
<path d="M4.54503 16.8274H3.48926V22.0886H4.54503V16.8274Z" fill="#10B981"/>
<path d="M1.24481 15.1562C1.45904 15.9921 2.13335 16.4729 2.78146 16.7442C3.30934 16.965 3.85761 17.1014 4.41087 17.1503C4.47576 15.0746 3.34387 13.0338 1.80098 12.4456C1.41329 13.2718 1.01019 14.2387 1.24481 15.1562Z" fill="#10B981"/>
<path d="M2.45312 14.0701C3.04299 15.1165 3.74226 16.0604 4.52598 16.8672C4.27306 17.0311 3.9594 16.9666 3.71689 16.7797C3.47395 16.5927 3.29217 16.2999 3.13493 15.9964C2.83001 15.4071 2.59872 14.7539 2.45312 14.0701Z" fill="#6EE7B7"/>
<path d="M6.74527 15.4467C6.53104 16.2826 5.85673 16.7634 5.20862 17.0347C4.68074 17.2555 4.13205 17.3925 3.57879 17.4408C3.51432 15.3651 4.64579 13.3243 6.18868 12.7361C6.57721 13.5623 6.9803 14.5292 6.74527 15.4467Z" fill="#10B981"/>
<path d="M5.82048 14.0701C5.23062 15.1165 4.53135 16.0604 3.74805 16.8672C4.00055 17.0311 4.31462 16.9666 4.55714 16.7797C4.80008 16.5927 4.98144 16.2999 5.13868 15.9964C5.4436 15.4071 5.67489 14.7539 5.82048 14.0701Z" fill="#6EE7B7"/>
<path d="M12.0382 16.8274H10.9824V22.0886H12.0382V16.8274Z" fill="#10B981"/>
<path d="M8.73749 15.1562C8.95172 15.9921 9.62603 16.4729 10.2741 16.7442C10.802 16.965 11.3503 17.1014 11.9036 17.1503C11.9685 15.0746 10.8365 13.0338 9.29366 12.4456C8.90596 13.2718 8.50287 14.2387 8.73749 15.1562Z" fill="#10B981"/>
<path d="M9.94629 14.0701C10.5362 15.1165 11.2354 16.0604 12.0187 16.8672C11.7662 17.0311 11.4522 16.9666 11.2096 16.7797C10.9667 16.5927 10.7849 16.2999 10.6281 15.9964C10.3232 15.4071 10.0919 14.7539 9.94629 14.0701Z" fill="#6EE7B7"/>
<path d="M14.2379 15.4467C14.0237 16.2826 13.349 16.7634 12.7009 17.0347C12.1734 17.2555 11.6247 17.3925 11.0715 17.4408C11.007 15.3651 12.1389 13.3243 13.6818 12.7361C14.0699 13.5623 14.4726 14.5292 14.2379 15.4467Z" fill="#10B981"/>
<path d="M13.3136 14.0701C12.7237 15.1165 12.0244 16.0604 11.2407 16.8672C11.4936 17.0311 11.8073 16.9666 12.0502 16.7797C12.2928 16.5927 12.4745 16.2999 12.6314 15.9964C12.9367 15.4071 13.168 14.7539 13.3136 14.0701Z" fill="#6EE7B7"/>
<path d="M26.0051 23.479H29.5098L28.3346 29.5992C28.2331 30.1284 27.8654 30.5001 27.4431 30.5001H26.0051H24.5666C24.1444 30.5001 23.7771 30.1289 23.6752 29.5992L22.5 23.479H26.0051Z" fill="#9CA3AF"/>
<path d="M21.377 18.1404H28.1167C28.1167 18.1404 30.7092 23.9711 29.8106 23.9711H23.0775C22.6353 23.9711 22.2609 23.551 22.1994 22.9858L21.377 18.1404Z" fill="#D1D5DB"/>
<path d="M22.5 19.1853H27.3974L28.9157 23.0037C29.0023 23.2207 28.88 23.4791 28.6911 23.4791H23.2958C23.1731 23.4791 23.0682 23.3652 23.047 23.2089L22.5 19.1853Z" fill="#664A3B"/>
<path d="M18.8684 23.479H22.3731L21.1983 29.5992C21.0968 30.1284 20.7287 30.5001 20.3064 30.5001H18.8684H17.4303C17.0077 30.5001 16.6404 30.1289 16.5384 29.5992L15.3633 23.479H18.8684Z" fill="#9CA3AF"/>
<path d="M15 18.1404H21.6795L22.4948 23.3468C22.5472 23.6702 22.2406 23.9711 21.9723 23.9711H15.5071C15.2271 23.9711 15 23.6917 15 23.3479V18.1404Z" fill="#D1D5DB"/>
<path d="M15.5444 19.1853H20.7059L21.8257 23.0783C21.8823 23.2739 21.7642 23.4791 21.5953 23.4791H15.7881C15.6534 23.4791 15.5439 23.3442 15.5439 23.1782V19.1853H15.5444Z" fill="#664A3B"/>
<path d="M26.5108 16.8274H25.4551V22.0886H26.5108V16.8274Z" fill="#10B981"/>
<path d="M28.7551 15.1562C28.5409 15.9921 27.8666 16.4729 27.2185 16.7442C26.691 16.965 26.1423 17.1014 25.5891 17.1503C25.5242 15.0746 26.6557 13.0338 28.199 12.4456C28.5871 13.2718 28.9902 14.2387 28.7551 15.1562Z" fill="#10B981"/>
<path d="M27.547 14.0701C26.9571 15.1165 26.2578 16.0604 25.4741 16.8672C25.727 17.0311 26.0407 16.9666 26.2836 16.7797C26.5262 16.5927 26.7083 16.2999 26.8648 15.9964C27.1701 15.4071 27.4014 14.7539 27.547 14.0701Z" fill="#6EE7B7"/>
<path d="M23.2553 15.4467C23.4695 16.2826 24.1442 16.7634 24.7919 17.0347C25.3198 17.2555 25.8685 17.3925 26.4218 17.4408C26.4862 15.3651 25.3547 13.3243 23.8119 12.7361C23.4233 13.5623 23.0202 14.5292 23.2553 15.4467Z" fill="#10B981"/>
<path d="M24.1792 14.0701C24.7691 15.1165 25.4683 16.0604 26.2516 16.8672C25.9991 17.0311 25.6851 16.9666 25.4426 16.7797C25.1996 16.5927 25.0178 16.2999 24.861 15.9964C24.5565 15.4071 24.3252 14.7539 24.1792 14.0701Z" fill="#6EE7B7"/>
<path d="M19.0177 16.8274H17.9619V22.0886H19.0177V16.8274Z" fill="#10B981"/>
<path d="M21.2625 15.1562C21.0482 15.9921 20.3739 16.4729 19.7258 16.7442C19.1979 16.965 18.6497 17.1014 18.0964 17.1503C18.0315 15.0746 19.1634 13.0338 20.7063 12.4456C21.094 13.2718 21.4971 14.2387 21.2625 15.1562Z" fill="#10B981"/>
<path d="M20.0539 14.0701C19.464 15.1165 18.7647 16.0604 17.9814 16.8672C18.2339 17.0311 18.548 16.9666 18.7905 16.7797C19.0335 16.5927 19.2148 16.2999 19.3721 15.9964C19.677 15.4071 19.9083 14.7539 20.0539 14.0701Z" fill="#6EE7B7"/>
<path d="M15.7624 15.4467C15.9767 16.2826 16.651 16.7634 17.2991 17.0347C17.827 17.2555 18.3756 17.3925 18.9289 17.4408C18.9934 15.3651 17.8619 13.3243 16.319 12.7361C15.9305 13.5623 15.5278 14.5292 15.7624 15.4467Z" fill="#10B981"/>
<path d="M16.6865 14.0701C17.2764 15.1165 17.9752 16.0604 18.7594 16.8672C18.5065 17.0311 18.1928 16.9666 17.9503 16.7797C17.7073 16.5927 17.5256 16.2999 17.3687 15.9964C17.0634 15.4071 16.8321 14.7539 16.6865 14.0701Z" fill="#6EE7B7"/>
</svg>
