<svg width="21" height="18" viewBox="0 0 21 18" fill="none" xmlns="http://www.w3.org/2000/svg">
<path fill-rule="evenodd" clip-rule="evenodd" d="M18.95 6.11C19.6908 6.10827 20.3718 6.51614 20.72 7.17C21.0816 7.81054 21.0624 8.59785 20.67 9.22L16.1 16.07C15.6249 16.8375 14.6947 17.1916 13.8295 16.9344C12.9643 16.6772 12.3786 15.8724 12.4 14.97V12.12H10.26C9.54405 12.1228 8.88119 11.7428 8.52198 11.1235C8.16277 10.5041 8.16202 9.74003 8.52 9.12L13.16 1C13.5169 0.381832 14.1762 0.000732149 14.89 0C15.9946 0 16.89 0.89543 16.89 2V6.11H18.95ZM14.8 15.24L19.37 8.39C19.486 8.2356 19.5028 8.02818 19.413 7.85717C19.3232 7.68616 19.143 7.58215 18.95 7.59H16.39C15.8377 7.59 15.39 7.14228 15.39 6.59V1.98C15.39 1.84564 15.336 1.71692 15.24 1.62286C15.1441 1.5288 15.0143 1.47731 14.88 1.48C14.6969 1.48062 14.5301 1.58535 14.45 1.75L9.81 9.87C9.72512 10.0251 9.72849 10.2135 9.81887 10.3655C9.90924 10.5175 10.0732 10.6105 10.25 10.61H12.89C13.4423 10.61 13.89 11.0577 13.89 11.61V14.96C13.8927 15.1772 14.0353 15.3679 14.2429 15.4318C14.4506 15.4956 14.6757 15.4182 14.8 15.24Z" fill="#6B7280"/>
<path d="M6.75 2.85H1.95C1.53579 2.85 1.2 3.18579 1.2 3.6C1.2 4.01421 1.53579 4.35 1.95 4.35H6.75C7.16421 4.35 7.5 4.01421 7.5 3.6C7.5 3.18579 7.16421 2.85 6.75 2.85Z" fill="#6B7280"/>
<path d="M6.3 8.33C6.29461 7.91804 5.96196 7.58539 5.55 7.58H0.75C0.335786 7.58 0 7.91579 0 8.33C0 8.74421 0.335786 9.08 0.75 9.08H5.55C5.74891 9.08 5.93968 9.00098 6.08033 8.86033C6.22098 8.71968 6.3 8.52891 6.3 8.33Z" fill="#6B7280"/>
<path d="M6.75 13.35H1.95C1.53579 13.35 1.2 13.6858 1.2 14.1C1.2 14.5142 1.53579 14.85 1.95 14.85H6.75C7.16421 14.85 7.5 14.5142 7.5 14.1C7.5 13.6858 7.16421 13.35 6.75 13.35Z" fill="#6B7280"/>
</svg>
