<svg width="25" height="24" viewBox="0 0 25 24" fill="none" xmlns="http://www.w3.org/2000/svg">
<path fill-rule="evenodd" clip-rule="evenodd" d="M20.79 7.00048L15.23 2.89048C13.6036 1.70317 11.3964 1.70317 9.77 2.89048L4.22 7.00048C3.14544 7.77462 2.5061 9.01612 2.5 10.3405L2.5 17.7705C2.56002 20.1637 4.54665 22.0564 6.94 22.0005L18.06 22.0005C20.4534 22.0564 22.44 20.1637 22.5 17.7705L22.5 10.3305C22.4914 9.01185 21.8567 7.77576 20.79 7.00048ZM21 17.7705C20.9404 19.3354 19.6251 20.5568 18.06 20.5005L6.94 20.5005C5.37698 20.5512 4.06502 19.333 4 17.7705L4 10.3405C4.00534 9.4904 4.41817 8.69448 5.11 8.20048L10.66 4.10048C11.7561 3.30006 13.2439 3.30006 14.34 4.10048L19.89 8.21048C20.5812 8.6959 20.9948 9.48583 21 10.3305L21 17.7705ZM8 15.7505L17 15.7505C17.4142 15.7505 17.75 16.0863 17.75 16.5005C17.75 16.9147 17.4142 17.2505 17 17.2505H8C7.58579 17.2505 7.25 16.9147 7.25 16.5005C7.25 16.0863 7.58579 15.7505 8 15.7505Z" fill="#6B7280"/>
</svg>
