<svg width="25" height="24" viewBox="0 0 25 24" fill="none" xmlns="http://www.w3.org/2000/svg">
<path fill-rule="evenodd" clip-rule="evenodd" d="M15.2263 2.89342L20.7842 7.00321C21.8553 7.77925 22.4927 9.02008 22.5 10.3437L22.5 17.7835C22.4312 20.1691 20.4518 22.0518 18.0684 21.9987L6.94211 21.9987C4.55466 22.0577 2.56883 20.1733 2.5 17.7835L2.5 10.3437C2.50733 9.02008 3.14465 7.77925 4.21579 7.00321L9.77368 2.89342C11.3965 1.70219 13.6035 1.70219 15.2263 2.89342ZM7.76314 17.5411H17.2368C17.6728 17.5411 18.0263 17.1872 18.0263 16.7507C18.0263 16.3142 17.6728 15.9604 17.2368 15.9604L7.76314 15.9604C7.32712 15.9604 6.97366 16.3142 6.97366 16.7507C6.97366 17.1872 7.32712 17.5411 7.76314 17.5411Z" fill="#10B981"/>
</svg>
