<svg width="20" height="20" viewBox="0 0 20 20" fill="none" xmlns="http://www.w3.org/2000/svg">
<path fill-rule="evenodd" clip-rule="evenodd" d="M12.7263 0.893424L18.2842 5.00321C19.3553 5.77925 19.9927 7.02008 20 8.34373L20 15.7835C19.9312 18.1691 17.9518 20.0518 15.5684 19.9987L4.44211 19.9987C2.05466 20.0577 0.0688305 18.1733 0 15.7835L0 8.34373C0.0073259 7.02008 0.644652 5.77925 1.71579 5.00321L7.27368 0.893424C8.89647 -0.297808 11.1035 -0.297808 12.7263 0.893424ZM5.26314 15.5411L14.7368 15.5411C15.1728 15.5411 15.5263 15.1872 15.5263 14.7507C15.5263 14.3142 15.1728 13.9604 14.7368 13.9604L5.26314 13.9604C4.82712 13.9604 4.47366 14.3142 4.47366 14.7507C4.47366 15.1872 4.82712 15.5411 5.26314 15.5411Z" fill="#10B981"/>
</svg>
