<svg width="16" height="19" viewBox="0 0 16 19" fill="none" xmlns="http://www.w3.org/2000/svg">
<path d="M7.99825 18.5C5.85708 18.5 4.07208 17.7646 2.64325 16.2937C1.21442 14.8227 0.5 12.992 0.5 10.8015C0.5 9.83131 0.719917 8.8579 1.15975 7.88123C1.59942 6.90473 2.14908 5.96756 2.80875 5.06973C3.46825 4.1719 4.18167 3.3274 4.949 2.53623C5.71633 1.74506 6.42883 1.05673 7.0865 0.471228C7.2135 0.350728 7.35608 0.261312 7.51425 0.202979C7.67242 0.144645 7.83433 0.115479 8 0.115479C8.16567 0.115479 8.32758 0.144645 8.48575 0.202979C8.64392 0.261312 8.7865 0.350728 8.9135 0.471228C9.57117 1.05673 10.2837 1.74506 11.051 2.53623C11.8183 3.3274 12.5318 4.1719 13.1913 5.06973C13.8509 5.96756 14.4006 6.90473 14.8403 7.88123C15.2801 8.8579 15.5 9.83131 15.5 10.8015C15.5 12.992 14.785 14.8227 13.355 16.2937C11.925 17.7646 10.1394 18.5 7.99825 18.5ZM8.24625 15.8462C8.42058 15.8296 8.56417 15.7643 8.677 15.6505C8.78983 15.5366 8.84625 15.3994 8.84625 15.2387C8.84625 15.0514 8.78475 14.9029 8.66175 14.7932C8.53875 14.6836 8.38167 14.6371 8.1905 14.6537C7.50717 14.7037 6.76292 14.5035 5.95775 14.053C5.15258 13.6023 4.65 12.8186 4.45 11.702C4.41667 11.5315 4.34517 11.3975 4.2355 11.3C4.126 11.2025 3.99558 11.1537 3.84425 11.1537C3.66225 11.1537 3.51067 11.2221 3.3895 11.3587C3.26833 11.4952 3.2295 11.6705 3.273 11.8845C3.5435 13.3371 4.19742 14.3756 5.23475 15C6.27192 15.6243 7.27575 15.9064 8.24625 15.8462Z" fill="#0EA5E9"/>
</svg>
