<svg width="25" height="24" viewBox="0 0 25 24" fill="none" xmlns="http://www.w3.org/2000/svg">
<path d="M12.5 19.5135C14.4564 17.7622 15.9534 16.0823 16.9913 14.474C18.0291 12.8657 18.548 11.457 18.548 10.248C18.548 8.425 17.9689 6.92633 16.8105 5.752C15.6522 4.57767 14.2154 3.9905 12.5 3.9905C10.7847 3.9905 9.34786 4.57767 8.18953 5.752C7.03119 6.92633 6.45203 8.425 6.45203 10.248C6.45203 11.457 6.97094 12.8657 8.00878 14.474C9.04661 16.0823 10.5437 17.7622 12.5 19.5135ZM12.5 20.9403C12.3052 20.9403 12.1104 20.9067 11.9155 20.8395C11.7205 20.7722 11.5442 20.668 11.3865 20.527C10.4892 19.7 9.64944 18.8483 8.86728 17.972C8.08528 17.0958 7.40553 16.2199 6.82803 15.3443C6.25036 14.4686 5.79328 13.6007 5.45678 12.7405C5.12028 11.8802 4.95203 11.0493 4.95203 10.248C4.95203 7.94033 5.69844 6.07208 7.19128 4.64325C8.68428 3.21442 10.4539 2.5 12.5 2.5C14.5462 2.5 16.3158 3.21442 17.8088 4.64325C19.3016 6.07208 20.048 7.94033 20.048 10.248C20.048 11.0493 19.8798 11.8785 19.5433 12.7355C19.2068 13.5927 18.7514 14.4607 18.177 15.3395C17.6025 16.2183 16.9243 17.0943 16.1423 17.9672C15.3603 18.8404 14.5205 19.6904 13.623 20.5173C13.4677 20.6583 13.2911 20.764 13.0933 20.8345C12.8956 20.905 12.6979 20.9403 12.5 20.9403ZM12.5018 11.8652C12.9993 11.8652 13.4246 11.6881 13.7778 11.3338C14.1311 10.9794 14.3078 10.5535 14.3078 10.056C14.3078 9.5585 14.1306 9.13308 13.7763 8.77975C13.4219 8.42658 12.9959 8.25 12.4983 8.25C12.0008 8.25 11.5754 8.42717 11.2223 8.7815C10.8689 9.13583 10.6923 9.56183 10.6923 10.0595C10.6923 10.557 10.8694 10.9823 11.2238 11.3355C11.5781 11.6887 12.0041 11.8652 12.5018 11.8652Z" fill="white"/>
</svg>
