<svg width="30" height="38" viewBox="0 0 30 38" fill="none" xmlns="http://www.w3.org/2000/svg">
<path d="M0.840088 15.08C0.840088 7.25966 7.17974 0.920013 15.0001 0.920013C22.8204 0.920013 29.1601 7.25966 29.1601 15.08V23C29.1601 30.8204 22.8204 37.16 15.0001 37.16C7.17974 37.16 0.840088 30.8204 0.840088 23V15.08Z" fill="#10B981"/>
<path d="M12.8001 34.6C12.0001 25.68 17.4401 19.72 26.8401 20.52C27.6001 31.12 20.7601 35.24 12.8001 34.6Z" fill="white"/>
<path d="M16.6408 19.6869C16.2209 15.0687 19.0761 11.983 24.0097 12.3972C24.4086 17.8852 20.8186 20.0182 16.6408 19.6869Z" fill="white"/>
<path d="M14.5515 19.8397C15.0527 14.2175 11.6448 10.4611 5.75632 10.9653C5.28023 17.6463 9.56507 20.243 14.5515 19.8397Z" fill="white"/>
<path d="M15.6401 5.52001C13.1201 8.00001 12.9601 10.6 15.6401 13.12C18.3201 10.6 18.0801 7.76001 15.6401 5.52001Z" fill="white"/>
<path d="M10.4401 33.88C5.36009 32.24 1.92009 26.72 2.92009 20.52C7.40009 20.12 10.6001 20.88 13.2801 23.6C10.9601 27.24 10.288 29.5259 10.4401 33.88Z" fill="white"/>
</svg>
