<svg width="142" height="182" viewBox="0 0 142 182" fill="none" xmlns="http://www.w3.org/2000/svg">
<path d="M0.199951 71.4C0.199951 32.2982 31.8982 0.600006 71 0.600006C110.102 0.600006 141.8 32.2982 141.8 71.4V111C141.8 150.102 110.102 181.8 71 181.8C31.8982 181.8 0.199951 150.102 0.199951 111V71.4Z" fill="white"/>
<path d="M60 169C56 124.4 83.2 94.6 130.2 98.6C134 151.6 99.7999 172.2 60 169Z" fill="#10B981"/>
<path d="M79.2034 94.4343C77.104 71.3434 91.38 55.915 116.048 57.9859C118.043 85.4257 100.093 96.091 79.2034 94.4343Z" fill="#10B981"/>
<path d="M68.7571 95.1982C71.2629 67.0876 54.2237 48.3052 24.7811 50.8263C22.4006 84.2313 43.8248 97.2151 68.7571 95.1982Z" fill="#10B981"/>
<path d="M74.2 23.6C61.6 36 60.8 49 74.2 61.6C87.6 49 86.4 34.8 74.2 23.6Z" fill="#10B981"/>
<path d="M48.2 165.4C22.8 157.2 5.59995 129.6 10.6 98.6C33 96.6 49 100.4 62.4 114C50.8 132.2 47.4397 143.629 48.2 165.4Z" fill="#10B981"/>
</svg>
