<svg width="23" height="24" viewBox="0 0 23 24" fill="none" xmlns="http://www.w3.org/2000/svg">
<path d="M22.5549 13.6619L20.6549 6.82594C20.0979 4.82328 18.8876 3.06423 17.2162 1.82841C15.5448 0.592595 13.5083 -0.0490714 11.4303 0.00540872C9.35238 0.0598888 7.35227 0.807389 5.74792 2.12909C4.14358 3.45079 3.02706 5.27084 2.57586 7.29994L1.10486 13.9149C0.942375 14.6459 0.946132 15.404 1.11585 16.1333C1.28557 16.8626 1.61692 17.5444 2.08544 18.1285C2.55396 18.7126 3.14768 19.184 3.82277 19.5079C4.49786 19.8318 5.23708 20 5.98586 19.9999H7.09986C7.32937 21.1302 7.94259 22.1464 8.8356 22.8763C9.72861 23.6062 10.8465 24.005 11.9999 24.005C13.1532 24.005 14.2711 23.6062 15.1641 22.8763C16.0571 22.1464 16.6703 21.1302 16.8999 19.9999H17.7379C18.5087 20 19.2691 19.8218 19.9596 19.4794C20.6502 19.1369 21.2522 18.6394 21.7187 18.0258C22.1852 17.4122 22.5034 16.699 22.6487 15.942C22.7939 15.185 22.7621 14.4046 22.5559 13.6619H22.5549ZM11.9999 21.9999C11.3816 21.9974 10.7792 21.8039 10.2752 21.4459C9.77109 21.0879 9.38994 20.5829 9.18386 19.9999H14.8159C14.6098 20.5829 14.2286 21.0879 13.7246 21.4459C13.2205 21.8039 12.6181 21.9974 11.9999 21.9999ZM20.1259 16.8149C19.8472 17.1846 19.4862 17.4842 19.0715 17.6899C18.6568 17.8956 18.1998 18.0018 17.7369 17.9999H5.98586C5.53664 17.9999 5.09318 17.8989 4.6882 17.7045C4.28322 17.5101 3.92707 17.2273 3.64602 16.8768C3.36498 16.5264 3.16622 16.1173 3.06442 15.6798C2.96262 15.2423 2.96038 14.7875 3.05786 14.3489L4.52786 7.73294C4.88221 6.13915 5.75917 4.70955 7.01932 3.67139C8.27946 2.63324 9.85048 2.04611 11.4826 2.00336C13.1148 1.9606 14.7144 2.46466 16.0272 3.43541C17.3399 4.40616 18.2905 5.78789 18.7279 7.36094L20.6279 14.1969C20.7534 14.6423 20.7734 15.1108 20.6863 15.5653C20.5991 16.0197 20.4072 16.4476 20.1259 16.8149Z" fill="#1F1F1F"/>
</svg>
