<svg width="30" height="31" viewBox="0 0 30 31" fill="none" xmlns="http://www.w3.org/2000/svg">
<path d="M15 30.5001C23.2843 30.5001 30 28.6903 30 26.4577C30 24.2251 23.2843 22.4153 15 22.4153C6.71573 22.4153 0 24.2251 0 26.4577C0 28.6903 6.71573 30.5001 15 30.5001Z" fill="#7D6659"/>
<path d="M12.4659 0.738025C13.2079 0.530972 14.0699 0.336202 14.7176 0.716859C15.4289 1.13435 15.5911 2.09933 16.3694 2.40928C14.0929 2.25558 11.7747 2.61591 9.69385 3.44794C10.3272 3.13164 10.2621 2.30893 10.6209 1.74874C10.9873 1.17797 11.7589 0.935764 12.4659 0.738025Z" fill="#10B981"/>
<path d="M18.158 23.3522C18.5584 23.8476 18.8918 24.5276 18.5168 25.0382C18.1336 25.559 16.9779 25.8626 15.9126 25.6789C12.5119 25.0916 9.83932 24.0889 6.54102 23.1481C6.62234 22.5421 6.99546 21.7258 7.07678 21.1199C9.8795 22.0514 12.4378 23.2035 15.4237 23.3953C14.024 22.8352 12.5851 22.2504 11.5385 21.2549C10.4918 20.2599 9.92687 18.739 10.5808 17.5085C11.5772 17.4856 13.1367 17.677 13.1367 17.677C13.8949 19.8352 16.6708 21.5137 18.158 23.3522Z" fill="#111827"/>
<path d="M5.45176 24.3349C5.74117 24.3536 6.01432 24.1897 6.17936 23.9788C6.34439 23.7676 6.42092 23.5135 6.49506 23.2654C6.67493 22.6607 6.85528 22.0569 7.03515 21.4527C7.0782 21.3079 7.11502 21.1364 7.00452 21.0229C6.94329 20.9598 6.84954 20.931 6.76008 20.9052C6.29033 20.768 5.81963 20.6308 5.34987 20.4937C5.04277 21.0107 4.73374 21.534 4.57397 22.101C4.41419 22.6679 4.41706 23.2912 4.71795 23.8112C4.8672 24.0703 5.12408 24.3138 5.45176 24.3349Z" fill="#111827"/>
<path d="M11.5982 17.614C10.3721 17.4506 9.14512 17.2871 7.9186 17.1237C7.59523 17.0805 7.25703 17.039 6.94896 17.1343C6.40076 17.3049 5.98172 17.7042 5.77316 18.1843C5.53254 18.7399 5.44022 19.4881 5.65979 20.0508C5.865 20.5767 6.42325 20.9214 6.95614 21.2165C8.9246 22.3081 11.0083 23.2371 13.171 23.9882C10.7453 23.3975 8.37878 22.6155 6.10943 21.6534C5.84729 22.3957 5.48039 23.4073 5.21777 24.1495C5.21777 24.1495 11.039 25.383 14.0876 25.67C14.8022 25.7369 15.9259 25.3974 16.3765 24.9019C16.7176 24.5268 16.6985 23.9713 16.4727 23.533C16.2464 23.0948 15.8489 22.7476 15.4605 22.411C14.4478 21.5345 13.4351 20.658 12.4224 19.7815C12.0842 19.4889 11.7388 19.1874 11.5388 18.808C11.3394 18.4282 11.3135 17.9481 11.5982 17.614Z" fill="#6B7280"/>
<path d="M4.60019 24.8913C4.8896 24.9099 5.16275 24.746 5.32778 24.5348C5.49282 24.3235 5.56936 24.0694 5.6435 23.8213C5.82337 23.2171 6.00323 22.6133 6.18357 22.009C6.22662 21.8638 6.26346 21.6923 6.15296 21.5788C6.09173 21.5162 5.99798 21.487 5.90852 21.4615C5.43829 21.3244 4.96806 21.1872 4.49831 21.0496C4.1912 21.567 3.88218 22.0903 3.7224 22.6569C3.56263 23.2238 3.5655 23.8471 3.86639 24.3671C4.01564 24.6262 4.27204 24.8701 4.60019 24.8913Z" fill="#111827"/>
<path d="M20.2639 17.5391C20.3916 17.4744 20.6997 17.3787 20.6997 17.3787C20.6997 17.3787 22.0333 17.9295 21.6177 18.6354C21.4531 18.9153 20.8815 19.1079 20.5289 19.0592C19.9147 18.9741 19.411 18.715 19.0024 18.3C19.3976 18.0985 19.8688 17.7411 20.2639 17.5391Z" fill="#FFC56E"/>
<path d="M18.5745 4.0637C18.4554 3.24734 17.537 2.72017 16.6592 2.44918C15.0251 1.94404 13.2021 1.93092 11.5594 2.41404C10.6294 2.68757 9.72388 3.14317 9.1929 3.87188C8.66192 4.60144 8.60308 5.64264 9.24648 6.29725C9.88461 6.94551 10.971 7.04672 11.9425 7.02301C13.1537 6.99337 14.3616 6.84135 15.5341 6.57078C16.4496 6.35949 17.3844 6.05293 18.0163 5.43008C18.3932 5.05789 18.6463 4.5591 18.5745 4.0637Z" fill="#10B981"/>
<path d="M13.9133 8.32673C14.7619 8.18573 15.4407 7.58616 15.8238 6.90106C16.2075 6.21596 16.3424 5.44619 16.473 4.69038C16.5557 4.20894 16.6275 3.67755 16.328 3.26937C16.0554 2.89803 15.5411 2.72781 15.0489 2.64736C13.4803 2.39119 11.7841 2.85229 10.6484 3.84395C10.5537 4.87414 10.5695 5.95471 11.0909 6.87904C11.6133 7.80337 12.7661 8.51727 13.9133 8.32673Z" fill="#FFC56E"/>
<path d="M10.7434 6.09257C10.6874 5.86731 10.7343 5.63317 10.7759 5.40536C10.818 5.17756 10.8544 4.94045 10.7797 4.71942C10.7046 4.49882 10.4865 4.29854 10.2258 4.29981C9.92395 4.3015 9.69338 4.57926 9.69434 4.84602C9.6953 5.1132 9.87133 5.35625 10.0813 5.54763C10.2913 5.73902 10.5406 5.89526 10.7434 6.09257Z" fill="#FFC56E"/>
<path d="M10.9854 3.17493C12.485 2.04439 13.6833 2.57748 13.6833 2.57748C13.1212 3.54246 11.5407 4.81866 10.5993 5.51434C10.5022 5.16205 10.4209 4.80426 10.4199 4.44181C10.418 3.81642 10.6735 3.41035 10.9854 3.17493Z" fill="#111827"/>
<path d="M14.837 4.91011C16.3826 5.19634 17.0762 4.85887 17.0762 4.85887C17.3503 4.20977 17.1088 3.3951 16.4491 3.02122C15.7899 2.64734 14.8882 2.46654 14.109 2.39837C12.7097 2.27727 11.9219 2.64734 11.9219 2.64734C12.4026 3.66059 13.622 4.68485 14.837 4.91011Z" fill="#111827"/>
<path d="M14.1196 8.34192C14.0703 8.10649 14.0822 7.8698 14.1344 7.63777C13.9976 7.6691 13.8569 7.69112 13.7101 7.69112C13.3738 7.69112 13.0595 7.59965 12.7907 7.44849C12.7409 7.67671 12.6706 7.90029 12.5658 8.11412C12.2989 8.65864 11.7665 9.14006 11.1016 9.21882C11.1217 9.97674 11.2322 10.7326 11.4292 11.4702C11.5326 11.8555 11.6641 12.2446 11.933 12.5609C12.2023 12.8768 12.6338 13.1097 13.0786 13.0728C13.6574 13.025 14.0799 12.5486 14.264 12.0604C14.4477 11.5726 14.4654 11.0459 14.6338 10.5539C14.8027 10.0619 15.1892 9.57111 15.7613 9.48176C15.0016 9.61133 14.2588 9.01558 14.1196 8.34192Z" fill="#FFC56E"/>
<path d="M15.4297 9.47457C15.7698 9.41063 16.1272 9.56731 16.352 9.80231C16.5764 10.0382 16.6888 10.3405 16.7682 10.6403C17.0409 11.6704 16.9768 12.7536 17.2638 13.7808C17.7077 15.3707 19.0313 16.7486 20.7333 17.3913C20.7333 17.3913 19.6489 18.12 19.1944 18.3474C17.5312 17.8147 16.2721 16.4691 15.3991 15.1078C14.5261 13.7465 14.2223 12.1062 14.5586 10.5691C14.661 10.1042 14.9059 9.5728 15.4297 9.47457Z" fill="#6B7280"/>
<path d="M15.8199 9.49181C14.9971 12.2377 14.2059 15.2296 13.2401 17.9387C11.4582 18.208 8.95633 18.089 6.68555 17.2553C7.33421 14.8638 7.91207 12.7344 8.56025 10.3429C8.65449 9.99568 8.9989 9.44778 9.23809 9.15985C9.23809 9.15985 10.2584 9.02478 11.971 8.79443C12.6086 9.80768 14.2757 9.35462 14.4503 8.97862C14.4503 8.97862 15.287 9.4084 15.8199 9.49181Z" fill="#10B981"/>
<path d="M19.8043 14.7029C19.9096 14.3981 20.1794 14.1415 20.5157 14.0272C20.774 13.9391 21.0586 13.9332 21.3241 13.8646C21.7895 13.7443 22.1813 13.4208 22.3492 13.0186C22.4243 13.4195 22.4999 13.8281 22.4368 14.2308C22.3736 14.6335 22.1488 15.037 21.7513 15.2407C21.4145 15.413 21.0055 15.4215 20.6171 15.4253C20.3463 15.4283 20.0349 15.4143 19.8684 15.2254C19.7421 15.0815 19.7446 14.8774 19.8043 14.7029Z" fill="#10B981"/>
<path d="M19.5126 13.7527C19.1835 13.3971 18.7941 13.0858 18.3612 12.8318C18.2449 13.27 18.1713 13.7269 18.266 14.169C18.3602 14.6114 18.6458 15.0395 19.0979 15.2449C19.3409 15.3554 19.6647 15.3863 19.8671 15.2246C20.0316 15.0933 20.067 14.8748 20.0374 14.6809C19.9852 14.3337 19.7637 14.0237 19.5126 13.7527Z" fill="#10B981"/>
<path d="M20.1493 19.5693C20.0531 19.5108 19.945 19.4486 19.8991 19.3364C19.8823 19.2957 19.891 19.2255 19.9048 19.1632C19.934 19.0358 19.9584 18.9096 19.9704 18.7804C20.0259 18.1411 20.1742 16.4537 20.2593 15.5412C20.2713 15.4074 20.2808 15.2622 20.1981 15.15C20.1148 15.0374 19.9001 14.9976 19.8173 15.1098C19.7087 16.3648 19.6006 17.6194 19.492 18.8744C19.3485 18.918 19.2074 18.9701 19.0835 19.0582C18.9256 19.17 18.796 19.3499 18.785 19.5557C18.775 19.7408 18.8591 19.9148 18.9515 20.0702C19.0428 20.2252 19.1471 20.3784 19.1859 20.5588C19.2241 20.7392 19.1744 20.9581 19.0246 21.0424C19.2093 21.0788 19.3758 20.884 19.4093 20.6816C19.4423 20.4788 19.2634 20.1981 19.1624 19.9436C19.0868 19.7513 18.9782 19.5892 19.1739 19.3402C19.1993 19.308 19.2476 19.2847 19.3016 19.2627C19.3011 19.2644 19.3007 19.2657 19.3002 19.2674C19.2715 19.4799 19.3456 19.6921 19.4322 19.8843C19.5193 20.0761 19.6221 20.265 19.6566 20.4762C19.691 20.6871 19.6393 20.9331 19.4743 21.0491C19.7168 21.0669 20.0924 20.7112 19.6417 19.8039C19.6006 19.7217 19.5164 19.4736 19.5848 19.3436C19.5996 19.3148 19.6207 19.297 19.6441 19.283C19.6523 19.3152 19.6647 19.3461 19.68 19.3749C19.7427 19.4897 19.8465 19.5693 19.9503 19.6391C20.0541 19.709 20.1636 19.7742 20.2464 19.8729C20.4377 20.1015 20.4401 20.4682 20.3134 20.7455C20.5004 20.6825 20.8204 19.977 20.1493 19.5693Z" fill="#10B981"/>
<path d="M28.8435 26.366C28.5043 24.9276 27.616 23.6366 26.4823 22.9519C24.896 21.9941 22.9529 22.1487 21.415 23.1086C20.2363 23.8436 19.2872 25.0097 18.5864 26.3655H28.8435V26.366Z" fill="#664A3B"/>
<path d="M20.0007 18.5433C20.1336 18.1338 19.8404 17.7011 19.4601 17.4403C19.1544 17.2307 18.7866 17.0926 18.4039 17.0439C18.0757 17.5948 17.7471 18.1457 17.4189 18.6961C17.8533 18.9155 18.3073 19.1399 18.8067 19.1687C19.3061 19.1979 19.8624 18.9688 20.0007 18.5433Z" fill="#FFC56E"/>
<path d="M13.8335 15.1212C12.883 14.7109 12.1789 13.9576 11.9028 13.054C11.6618 12.2639 11.4914 11.5433 11.1958 10.3717C11.0925 9.96348 10.9275 9.6493 10.5605 9.38551C10.1932 9.12214 9.67033 8.98919 9.23837 9.15983C8.80067 9.33301 8.56388 9.77675 8.54331 10.201C8.52274 10.6253 8.88915 13.5892 9.3546 14.8079C9.51485 15.2275 9.68419 15.6602 10.0224 15.9854C10.3434 16.2941 10.7863 16.4761 11.2188 16.6468C13.2934 17.4644 15.4169 18.1834 17.5786 18.7995C18.0531 18.2549 18.4311 17.6444 18.6946 16.9974C17.8919 16.8407 15.4317 15.8114 13.8335 15.1212Z" fill="#6B7280"/>
<path d="M14.8519 26.218L14.0435 28.6718C14.0435 28.6718 17.4193 29.4801 18.2229 28.1522C19.0098 26.854 14.8519 26.218 14.8519 26.218Z" fill="#111827"/>
<path d="M15.9444 27.6605C15.9951 27.5457 15.367 27.3544 15.1742 27.3188L5.70458 25.5679C5.33577 25.5125 4.97364 25.6293 4.85692 25.8415L4.85214 25.8504C4.70719 26.1137 4.99564 26.4084 5.45583 26.4681L15.0374 27.7392C15.2154 27.7625 15.8985 27.7642 15.9444 27.6605Z" fill="#D1D5DB"/>
</svg>
