<svg width="30" height="31" viewBox="0 0 30 31" fill="none" xmlns="http://www.w3.org/2000/svg">
<path d="M26.224 17.7879C25.8743 16.6701 26.2126 15.4503 26.4114 14.2862C26.9037 11.4062 26.4942 8.34114 25.27 5.75035C22.3277 2.22531 17.6433 0.962413 13.4003 1.75888C9.15767 2.55534 5.32948 5.18367 2.13619 8.42079C2.77599 9.93178 2.55919 11.7151 2.19284 13.3369C1.82648 14.9587 1.31953 16.5873 1.42182 18.2562C1.51066 19.7086 2.05836 21.0974 2.08199 22.553C2.10563 24.0086 1.2963 25.6885 0 25.7004C2.31509 26.6667 6.43384 27.2224 8.90338 27.1926C16.8833 27.0965 21.593 26.9363 28.7127 22.8876C27.8891 22.7205 26.5011 18.6746 26.224 17.7879Z" fill="#9CA3AF"/>
<path d="M26.2244 17.7883C25.8747 16.6705 26.213 15.4506 26.4118 14.2866C26.812 11.9467 26.6164 9.48449 25.8727 7.25439C24.1905 10.4618 20.7193 11.6542 17.3589 11.9137C14.9293 12.1014 12.3929 12.1668 9.96984 11.9178C7.34545 11.6482 4.95171 10.7213 2.4944 9.81086C2.63417 10.9648 2.45161 12.1916 2.19284 13.3377C1.82648 14.9595 1.31953 16.5881 1.42182 18.257C1.51025 19.7094 2.05836 21.0982 2.08199 22.5538C2.10563 24.0094 1.2963 25.6893 0 25.7012C2.31509 26.6675 6.43384 27.2232 8.90338 27.1934C16.8833 27.0973 21.593 26.9371 28.7127 22.8884C27.8895 22.7209 26.5015 18.6749 26.2244 17.7883Z" fill="#9CA3AF"/>
<path d="M22.8234 10.2383C17.0053 11.6545 11.0584 12.4038 5.10547 12.4702C5.22935 15.7494 5.35324 19.0282 5.47712 22.3074C11.1465 20.704 17.1549 19.1047 22.7508 21.0052C23.2684 17.4289 23.7782 13.6992 22.8234 10.2383Z" fill="#F9FAFB"/>
<path d="M8.65731 18.6423C8.81257 18.5874 8.95561 18.5091 9.08764 18.407C9.21927 18.305 9.31422 18.2006 9.37168 18.0939L9.2482 17.6504L8.55176 17.8953L8.41361 17.3996L9.65653 16.9624L9.98499 18.1406C9.8827 18.3681 9.72377 18.5741 9.50901 18.7577C9.29425 18.9417 9.05423 19.0799 8.78771 19.1737C8.32355 19.3367 7.92623 19.3184 7.59614 19.1174C7.26564 18.9165 7.02684 18.5508 6.87891 18.0203C6.7318 17.4925 6.74443 17.0439 6.91722 16.6745C7.09001 16.3046 7.41153 16.0373 7.88303 15.8716C8.55257 15.6359 9.05586 15.765 9.39328 16.257L8.89448 16.6374C8.79016 16.4964 8.6622 16.4063 8.51223 16.3669C8.36227 16.3289 8.2013 16.339 8.02973 16.3994C7.74936 16.4983 7.56272 16.6686 7.47022 16.9112C7.3773 17.1528 7.38097 17.4527 7.48 17.8088C7.58106 18.1713 7.73469 18.4244 7.94008 18.5695C8.14547 18.7133 8.38468 18.738 8.65731 18.6423Z" fill="#9CA3AF"/>
<path d="M10.6738 18.4593L10.1489 16.5762C10.1115 16.442 10.078 16.3299 10.0495 16.2406C10.021 16.1514 9.99491 16.0731 9.97168 16.0049L10.5141 15.814C10.5259 15.8392 10.5544 15.9202 10.5997 16.0571C10.6453 16.1935 10.6742 16.2846 10.6869 16.3299L10.6954 16.3271C10.7024 16.1349 10.7178 15.9957 10.7411 15.9106C10.7647 15.8246 10.8014 15.7545 10.8515 15.6991C10.9012 15.6442 10.9705 15.6012 11.0602 15.5696C11.1327 15.544 11.195 15.5343 11.2456 15.5412L11.3947 16.0758C11.2965 16.0855 11.2122 16.1024 11.1421 16.1271C11.0002 16.177 10.9077 16.2805 10.865 16.437C10.8218 16.594 10.8356 16.7986 10.9065 17.0517L11.2431 18.2597L10.6738 18.4593Z" fill="#9CA3AF"/>
<path d="M14.0257 15.9265C14.137 16.3256 14.126 16.6726 13.9919 16.9683C13.8578 17.2644 13.617 17.4736 13.2686 17.5963C12.9271 17.7162 12.6276 17.697 12.3696 17.5382C12.112 17.3789 11.9278 17.101 11.817 16.7037C11.7066 16.3082 11.7168 15.9626 11.848 15.6678C11.9792 15.3726 12.2196 15.1634 12.5693 15.0407C12.9271 14.9153 13.2307 14.9281 13.4797 15.081C13.7295 15.2339 13.9112 15.5159 14.0257 15.9265ZM13.4308 16.1361C13.3493 15.8432 13.2474 15.6463 13.1255 15.5447C13.0041 15.4426 12.8623 15.4202 12.7001 15.477C12.3545 15.5987 12.2592 15.9374 12.414 16.4936C12.4906 16.7682 12.5913 16.9623 12.7156 17.0758C12.8399 17.1898 12.9817 17.2182 13.141 17.1624C13.4907 17.0388 13.5872 16.6973 13.4308 16.1361Z" fill="#9CA3AF"/>
<path d="M14.6709 14.3515L15.0556 15.7316C15.1762 16.1641 15.3661 16.3344 15.6249 16.2433C15.763 16.1948 15.8555 16.0895 15.9028 15.927C15.9496 15.765 15.9448 15.5796 15.8869 15.3718L15.5193 14.0531L16.0882 13.853L16.6208 15.7632C16.6791 15.9728 16.7357 16.1541 16.7908 16.3079L16.2479 16.4987C16.1709 16.2864 16.1171 16.1262 16.0874 16.0181L16.0772 16.0218C16.0536 16.2346 15.9953 16.4045 15.902 16.5303C15.809 16.6562 15.6823 16.7473 15.5213 16.8036C15.2895 16.8855 15.089 16.8686 14.9199 16.7519C14.7511 16.6356 14.6232 16.4228 14.5372 16.1133L14.1016 14.5511L14.6709 14.3515Z" fill="#9CA3AF"/>
<path d="M18.7725 15.6106L18.3878 14.23C18.2672 13.7984 18.0769 13.6281 17.8164 13.7197C17.6791 13.7682 17.5866 13.8735 17.5389 14.0355C17.4917 14.1975 17.497 14.3829 17.5548 14.5903L17.9224 15.9095L17.3535 16.1095L16.8209 14.1994C16.7842 14.0675 16.7524 13.96 16.7255 13.8771C16.699 13.7938 16.6742 13.7197 16.6514 13.6547L17.1938 13.4638C17.206 13.4908 17.2329 13.5659 17.2745 13.6885C17.3164 13.8112 17.3437 13.8964 17.3568 13.9435L17.3649 13.9408C17.3894 13.7256 17.4481 13.5549 17.5406 13.429C17.6327 13.3036 17.7594 13.212 17.92 13.1557C18.1522 13.0743 18.3527 13.0916 18.5219 13.2093C18.691 13.326 18.8185 13.5393 18.9045 13.8487L19.3401 15.411L18.7725 15.6106Z" fill="#9CA3AF"/>
<path d="M21.3065 14.7194C21.2947 14.6988 21.2722 14.6434 21.2392 14.5546C21.2062 14.4658 21.181 14.3907 21.1642 14.3303L21.1561 14.333C21.1162 14.6731 20.9242 14.9038 20.5799 15.0251C20.3248 15.1149 20.0966 15.0723 19.8952 14.8974C19.6935 14.723 19.537 14.4347 19.425 14.0328C19.3113 13.6254 19.2966 13.2844 19.3814 13.0111C19.4657 12.7374 19.6422 12.5534 19.9111 12.4586C20.0664 12.4041 20.2103 12.3931 20.3435 12.4266C20.4764 12.46 20.5933 12.5378 20.6944 12.6605L20.6985 12.6591L20.5819 12.2558L20.3313 11.3573L20.9002 11.1577L21.6916 13.9961C21.734 14.1477 21.789 14.3248 21.8574 14.5271L21.3065 14.7194ZM20.9332 13.4849C20.859 13.2194 20.7628 13.0294 20.6439 12.9136C20.5249 12.7982 20.3887 12.7676 20.2347 12.8216C20.0823 12.8751 19.9882 12.9841 19.9531 13.1493C19.9177 13.3137 19.9393 13.5389 20.0187 13.8236C20.1744 14.3816 20.4014 14.6081 20.6997 14.5033C20.8492 14.4507 20.945 14.3358 20.9862 14.1591C21.0269 13.9824 21.0094 13.7577 20.9332 13.4849Z" fill="#9CA3AF"/>
<path d="M0.603516 11.8014C3.59304 14.0489 7.29164 14.6778 10.8676 14.8105C14.0996 14.93 17.3723 14.6833 20.4678 13.6149C23.5633 12.5466 28.4372 8.25344 28.4372 8.25344C27.3422 7.37184 26.1799 6.39183 25.0854 5.50977C22.3318 8.98537 18.2167 10.8099 14.1212 11.0791C10.0257 11.3482 5.94073 10.1769 2.14351 8.40267C1.63045 9.53557 1.11698 10.6685 0.603516 11.8014Z" fill="#E5E7EB"/>
<path d="M15.6756 0.359422C16.3093 0.161222 16.8574 0.965009 17.5155 0.973248C19.9231 1.00346 19.8086 2.254 20.3881 2.42016C20.9672 2.58631 21.6029 2.54329 22.1298 2.86096C22.625 3.1594 22.4265 4.6887 23.4388 4.82786C23.9286 4.89514 24.1833 5.54238 23.8667 5.96716C23.4583 6.51508 22.766 5.9603 22.1959 6.09167C21.541 6.24226 21.2626 7.23189 20.6139 7.4127C20.2394 7.51706 19.8518 7.31703 19.4663 7.32665C18.8738 7.34175 18.3929 7.83336 17.9043 8.20916C17.505 8.5163 16.9723 8.7525 16.5359 8.60511C16.1932 8.4893 15.8276 8.47145 15.4735 8.52958C14.7224 8.65179 13.9869 8.89256 13.2949 9.24228C13.07 9.35625 12.8194 9.26699 12.6616 9.05369C12.5194 8.86144 12.2672 8.73373 12.0386 8.7676C11.6388 8.82665 11.3213 9.15805 10.9766 9.39333C10.6318 9.62861 10.1444 9.75448 9.85509 9.43865C9.85427 8.88936 9.2214 8.62479 8.74013 8.72229C8.25885 8.81979 7.61702 9.51371 7.31587 9.08069C6.1895 7.46122 5.63039 8.71679 4.31534 7.36006C3.66902 6.69359 4.2375 5.16383 5.11203 5.0938C4.61323 4.25889 5.12629 2.92733 6.00937 2.76437C6.54566 2.6655 7.1822 2.90719 7.58564 2.49843C7.94792 2.13178 7.9194 1.40077 8.33954 1.12293C8.92025 0.738428 9.5792 1.6214 10.252 1.57517C11.0654 1.51933 11.4505 0.176784 12.2643 0.148862C12.9787 0.124602 13.4502 1.14765 14.1646 1.15268C14.7269 1.15726 15.1328 0.528785 15.6756 0.359422Z" fill="#664A3B"/>
<path d="M20.4043 28.7311C20.8338 28.1873 21.5743 27.4467 22.0853 27.0004C22.5959 26.5546 23.195 26.2103 23.838 26.1311C24.5389 26.0451 25.2456 26.279 25.874 26.6374C26.7986 27.1652 27.5806 27.9534 28.3516 28.7329C27.2509 29.5811 25.9347 30.0466 24.6021 30.1377C22.3204 30.2934 20.4043 28.7311 20.4043 28.7311Z" fill="#664A3B"/>
<path d="M29.0304 19.3886C28.8788 19.8468 28.6212 20.2744 28.2512 20.5316C27.635 20.9601 26.8498 20.847 26.1309 20.7436C25.4121 20.6401 24.6072 20.587 24.042 21.096C24.1805 20.0661 24.3423 18.9776 24.945 18.1866C25.5331 17.4144 26.4463 17.0592 27.3355 16.8738C28.2251 16.688 29.142 16.6363 30.0003 16.3149C29.6347 16.6843 29.4579 17.2341 29.3535 17.7738C29.2492 18.3134 29.2019 18.8709 29.0304 19.3886Z" fill="#10B981"/>
<path d="M26.2104 19.6347C25.5314 19.9642 24.8819 20.3693 24.2734 20.8417C25.291 19.2863 27.4443 19.1728 28.5169 17.6646C28.371 18.2019 27.9932 18.6263 27.569 18.9238C27.1448 19.2213 26.6696 19.4117 26.2104 19.6347Z" fill="#6EE7B7"/>
<path d="M25.8819 18.561C25.4805 19.1955 25.0791 19.8294 24.6777 20.4638C25.2694 20.034 25.6301 19.3003 25.8819 18.561Z" fill="#6EE7B7"/>
<path d="M27.0749 17.8252C26.8625 18.4161 26.552 18.9618 26.1641 19.4264L26.5594 19.2533C26.6299 19.1774 26.7203 18.965 26.8275 18.7604C26.9783 18.472 27.1229 18.1552 27.0749 17.8252Z" fill="#6EE7B7"/>
<path d="M26.4881 19.2971C26.4596 19.2957 26.4278 19.309 26.414 19.3374C26.3862 19.3955 26.4645 19.4431 26.5232 19.4513C26.8333 19.4953 27.1475 19.5392 27.4572 19.4925C27.7669 19.4454 28.1235 19.3511 28.3142 19.0732C27.6222 19.3204 27.1039 19.3255 26.4881 19.2971Z" fill="#6EE7B7"/>
<path d="M27.694 19.9773C26.9377 20.0537 26.172 20.0134 25.4258 19.8564L25.3496 20.1027C25.9894 20.3133 27.0534 20.1865 27.694 19.9773Z" fill="#6EE7B7"/>
<path d="M23.8661 18.3411C23.4146 17.3807 22.5075 16.7637 21.5616 16.5381C20.6158 16.3124 19.6304 16.436 18.6846 16.6612C19.1381 16.8214 19.4633 17.2823 19.6418 17.7771C19.8203 18.272 19.879 18.8089 19.9752 19.3316C20.0717 19.8544 20.2164 20.3863 20.531 20.7863C20.9768 21.353 21.7006 21.5599 22.3718 21.5022C23.0429 21.4445 23.6795 21.158 24.3034 20.8747C24.2691 20.0082 24.2268 19.1082 23.8661 18.3411Z" fill="#10B981"/>
<path d="M21.9803 18.9204C21.5667 18.3437 21.2256 17.6182 20.6025 17.377C21.1975 17.9748 21.5647 18.7996 22.0513 19.51C22.5378 20.2209 23.242 20.8599 24.0387 20.8077C23.2946 20.2598 22.5382 19.6986 21.9803 18.9204Z" fill="#6EE7B7"/>
<path d="M22.6654 18.0688C22.6287 18.4598 22.5921 18.8539 22.6308 19.2443C22.6691 19.6348 22.7889 20.0261 23.0289 20.3127C23.0171 20.0431 22.9698 19.7771 22.9226 19.5126C22.8366 19.031 22.751 18.5499 22.6654 18.0688Z" fill="#6EE7B7"/>
<path d="M21.7303 19.0195C21.7731 19.1215 21.9272 19.0648 21.9573 18.9572C21.9871 18.8496 21.7695 17.4668 21.5967 17.3428C21.6411 17.9012 21.6855 18.4606 21.7303 19.0195Z" fill="#6EE7B7"/>
<path d="M21.8491 19.2176C21.9009 19.2103 21.9596 19.1952 21.9852 19.1435C22.0142 19.0858 21.9824 19.0084 21.9331 18.9727C21.8833 18.9366 21.8214 18.9306 21.7627 18.926C21.3605 18.8931 20.9579 18.8601 20.5557 18.8276C20.92 19.1394 21.3947 19.2826 21.8491 19.2176Z" fill="#6EE7B7"/>
<path d="M21.0303 19.8599C21.5751 20.2151 22.2467 20.3167 22.8559 20.1373C22.8372 20.0723 22.8184 20.0073 22.7993 19.9423C22.2096 19.9148 21.6199 19.8873 21.0303 19.8599Z" fill="#6EE7B7"/>
<path d="M24.7211 26.7401C25.0443 26.6161 25.1058 26.1419 25.1123 25.7583C25.1278 24.8112 25.1433 23.8601 25.0328 22.9208C24.9224 21.9815 24.6807 21.0477 24.2186 20.2554C24.0259 20.4517 23.9521 20.7607 23.9574 21.0532C23.9627 21.3457 24.0369 21.6295 24.0972 21.9138C24.4053 23.373 24.3433 24.9284 23.9199 26.3506C24.1404 26.5909 24.4301 26.8514 24.7211 26.7401Z" fill="#10B981"/>
</svg>
