<svg width="32" height="32" viewBox="0 0 32 32" fill="none" xmlns="http://www.w3.org/2000/svg">
<path d="M0 8.00049C0 3.58221 3.58172 0.000488281 8 0.000488281H24C28.4183 0.000488281 32 3.58221 32 8.00049V24.0005C32 28.4188 28.4183 32.0005 24 32.0005H8C3.58172 32.0005 0 28.4188 0 24.0005V8.00049Z" fill="#059669"/>
<path d="M12.7615 24.0004H19.2193C19.3026 24.0004 19.3731 23.9764 19.4307 23.9284C19.4884 23.8803 19.5301 23.8209 19.5557 23.7504L20.6328 19.4524H11.348L12.425 23.7504C12.4507 23.8209 12.4923 23.8803 12.55 23.9284C12.6077 23.9764 12.6782 24.0004 12.7615 24.0004ZM12.7615 25.5004C12.3333 25.5004 11.9571 25.3716 11.6328 25.1139C11.3084 24.8563 11.0911 24.5216 10.9808 24.1099L9.80775 19.4524H22.173L21 24.1099C20.8897 24.5151 20.6723 24.8481 20.348 25.1089C20.0237 25.3699 19.6474 25.5004 19.2193 25.5004H12.7615ZM9.34625 17.9524H22.6538C22.7564 17.9524 22.8398 17.9204 22.9038 17.8562C22.9679 17.792 23 17.7119 23 17.6157V15.7599H9V17.6157C9 17.7119 9.03367 17.792 9.101 17.8562C9.16833 17.9204 9.25008 17.9524 9.34625 17.9524ZM15.9905 12.0582C15.9905 10.6864 16.4652 9.50494 17.4145 8.51394C18.3638 7.52294 19.5295 6.89794 20.9115 6.63894C20.9885 6.62227 21.0587 6.62744 21.122 6.65444C21.1855 6.68127 21.2474 6.71969 21.3077 6.76969C21.3679 6.81969 21.4089 6.87902 21.4307 6.94769C21.4526 7.01619 21.4552 7.08894 21.4385 7.16594C21.2102 8.37994 20.6727 9.43119 19.826 10.3197C18.9792 11.2082 17.9506 11.7639 16.7402 11.9869V14.2602H23.596C23.8538 14.2602 24.0689 14.3464 24.2413 14.5187C24.4138 14.6912 24.5 14.9063 24.5 15.1639V17.6157C24.5 18.1209 24.3186 18.5533 23.9557 18.9129C23.5929 19.2726 23.1589 19.4524 22.6538 19.4524H9.34625C8.84108 19.4524 8.40708 19.2726 8.04425 18.9129C7.68142 18.5533 7.5 18.1209 7.5 17.6157V15.1639C7.5 14.9063 7.58625 14.6912 7.75875 14.5187C7.93108 14.3464 8.14617 14.2602 8.404 14.2602H15.2405V11.9869C14.0302 11.7639 13.0016 11.2082 12.1548 10.3197C11.3081 9.43119 10.7706 8.37994 10.5423 7.16594C10.5256 7.08894 10.5282 7.01619 10.55 6.94769C10.5718 6.87902 10.6128 6.81969 10.673 6.76969C10.7333 6.71969 10.7953 6.68127 10.8588 6.65444C10.9223 6.62744 10.9924 6.62227 11.0692 6.63894C12.4512 6.89794 13.6169 7.52294 14.5662 8.51394C15.5157 9.50494 15.9905 10.6864 15.9905 12.0582Z" fill="white"/>
</svg>
