<svg width="32" height="32" viewBox="0 0 32 32" fill="none" xmlns="http://www.w3.org/2000/svg">
<path d="M0 8.00049C0 3.58221 3.58172 0.000488281 8 0.000488281H24C28.4183 0.000488281 32 3.58221 32 8.00049V24.0005C32 28.4188 28.4183 32.0005 24 32.0005H8C3.58172 32.0005 0 28.4188 0 24.0005V8.00049Z" fill="#EF4444"/>
<mask id="mask0_1393_9843" style="mask-type:alpha" maskUnits="userSpaceOnUse" x="4" y="4" width="24" height="25">
<rect x="4" y="4.00049" width="24" height="24" fill="#D9D9D9"/>
</mask>
<g mask="url(#mask0_1393_9843)">
<path d="M14 7.00049C13.7167 7.00049 13.4792 6.90465 13.2875 6.71299C13.0958 6.52132 13 6.28382 13 6.00049C13 5.71715 13.0958 5.47965 13.2875 5.28799C13.4792 5.09632 13.7167 5.00049 14 5.00049H18C18.2833 5.00049 18.5208 5.09632 18.7125 5.28799C18.9042 5.47965 19 5.71715 19 6.00049C19 6.28382 18.9042 6.52132 18.7125 6.71299C18.5208 6.90465 18.2833 7.00049 18 7.00049H14ZM16 18.0005C16.2833 18.0005 16.5208 17.9047 16.7125 17.713C16.9042 17.5213 17 17.2838 17 17.0005V13.0005C17 12.7172 16.9042 12.4797 16.7125 12.288C16.5208 12.0963 16.2833 12.0005 16 12.0005C15.7167 12.0005 15.4792 12.0963 15.2875 12.288C15.0958 12.4797 15 12.7172 15 13.0005V17.0005C15 17.2838 15.0958 17.5213 15.2875 17.713C15.4792 17.9047 15.7167 18.0005 16 18.0005ZM16 26.0005C14.7667 26.0005 13.6042 25.763 12.5125 25.288C11.4208 24.813 10.4667 24.1672 9.65 23.3505C8.83333 22.5338 8.1875 21.5797 7.7125 20.488C7.2375 19.3963 7 18.2338 7 17.0005C7 15.7672 7.2375 14.6047 7.7125 13.513C8.1875 12.4213 8.83333 11.4672 9.65 10.6505C10.4667 9.83382 11.4208 9.18799 12.5125 8.71299C13.6042 8.23799 14.7667 8.00049 16 8.00049C17.0333 8.00049 18.025 8.16716 18.975 8.50049C19.925 8.83382 20.8167 9.31716 21.65 9.95049L22.35 9.25049C22.5333 9.06715 22.7667 8.97549 23.05 8.97549C23.3333 8.97549 23.5667 9.06715 23.75 9.25049C23.9333 9.43382 24.025 9.66716 24.025 9.95049C24.025 10.2338 23.9333 10.4672 23.75 10.6505L23.05 11.3505C23.6833 12.1838 24.1667 13.0755 24.5 14.0255C24.8333 14.9755 25 15.9672 25 17.0005C25 18.2338 24.7625 19.3963 24.2875 20.488C23.8125 21.5797 23.1667 22.5338 22.35 23.3505C21.5333 24.1672 20.5792 24.813 19.4875 25.288C18.3958 25.763 17.2333 26.0005 16 26.0005ZM16 24.0005C17.9333 24.0005 19.5833 23.3172 20.95 21.9505C22.3167 20.5838 23 18.9338 23 17.0005C23 15.0672 22.3167 13.4172 20.95 12.0505C19.5833 10.6838 17.9333 10.0005 16 10.0005C14.0667 10.0005 12.4167 10.6838 11.05 12.0505C9.68333 13.4172 9 15.0672 9 17.0005C9 18.9338 9.68333 20.5838 11.05 21.9505C12.4167 23.3172 14.0667 24.0005 16 24.0005Z" fill="white"/>
</g>
</svg>
