<svg width="32" height="32" viewBox="0 0 32 32" fill="none" xmlns="http://www.w3.org/2000/svg">
<path d="M0 8.00049C0 3.58221 3.58172 0.000488281 8 0.000488281H24C28.4183 0.000488281 32 3.58221 32 8.00049V24.0005C32 28.4188 28.4183 32.0005 24 32.0005H8C3.58172 32.0005 0 28.4188 0 24.0005V8.00049Z" fill="#0EA5E9"/>
<mask id="mask0_1393_9832" style="mask-type:alpha" maskUnits="userSpaceOnUse" x="4" y="4" width="24" height="25">
<rect x="4" y="4.00049" width="24" height="24" fill="#D9D9D9"/>
</mask>
<g mask="url(#mask0_1393_9832)">
<path d="M17 15.6005V12.0005C17 11.7172 16.9042 11.4797 16.7125 11.288C16.5208 11.0963 16.2833 11.0005 16 11.0005C15.7167 11.0005 15.4792 11.0963 15.2875 11.288C15.0958 11.4797 15 11.7172 15 12.0005V15.9755C15 16.1088 15.025 16.238 15.075 16.363C15.125 16.488 15.2 16.6005 15.3 16.7005L18.6 20.0005C18.7833 20.1838 19.0167 20.2755 19.3 20.2755C19.5833 20.2755 19.8167 20.1838 20 20.0005C20.1833 19.8172 20.275 19.5838 20.275 19.3005C20.275 19.0172 20.1833 18.7838 20 18.6005L17 15.6005ZM16 26.0005C14.6167 26.0005 13.3167 25.738 12.1 25.213C10.8833 24.688 9.825 23.9755 8.925 23.0755C8.025 22.1755 7.3125 21.1172 6.7875 19.9005C6.2625 18.6838 6 17.3838 6 16.0005C6 14.6172 6.2625 13.3172 6.7875 12.1005C7.3125 10.8838 8.025 9.82549 8.925 8.92549C9.825 8.02549 10.8833 7.31299 12.1 6.78799C13.3167 6.26299 14.6167 6.00049 16 6.00049C17.3833 6.00049 18.6833 6.26299 19.9 6.78799C21.1167 7.31299 22.175 8.02549 23.075 8.92549C23.975 9.82549 24.6875 10.8838 25.2125 12.1005C25.7375 13.3172 26 14.6172 26 16.0005C26 17.3838 25.7375 18.6838 25.2125 19.9005C24.6875 21.1172 23.975 22.1755 23.075 23.0755C22.175 23.9755 21.1167 24.688 19.9 25.213C18.6833 25.738 17.3833 26.0005 16 26.0005ZM16 24.0005C18.2167 24.0005 20.1042 23.2213 21.6625 21.663C23.2208 20.1047 24 18.2172 24 16.0005C24 13.7838 23.2208 11.8963 21.6625 10.338C20.1042 8.77965 18.2167 8.00049 16 8.00049C13.7833 8.00049 11.8958 8.77965 10.3375 10.338C8.77917 11.8963 8 13.7838 8 16.0005C8 18.2172 8.77917 20.1047 10.3375 21.663C11.8958 23.2213 13.7833 24.0005 16 24.0005Z" fill="white"/>
</g>
</svg>
