<svg width="30" height="31" viewBox="0 0 30 31" fill="none" xmlns="http://www.w3.org/2000/svg">
<path d="M27.7105 29.116V13.164H27.7074C27.6425 6.15873 21.9795 0.5 15.0002 0.5C8.02095 0.5 2.35793 6.15917 2.29306 13.164H2.28955V29.116H27.7105Z" fill="#D1FAE5"/>
<path d="M10.3142 7.65682C10.3142 8.81511 9.38061 9.75382 8.22916 9.75382C7.07771 9.75382 6.14453 8.81511 6.14453 7.65682C6.14453 6.49853 7.07771 5.55981 8.22916 5.55981C9.38061 5.55981 10.3142 6.49853 10.3142 7.65682Z" fill="white"/>
<path d="M9.29932 28.0207C9.92128 27.3162 10.993 26.3554 11.7324 25.7774C12.4723 25.1993 13.3393 24.7527 14.2702 24.6504C15.2849 24.5388 16.308 24.8417 17.2179 25.3073C18.5561 25.9916 19.6891 27.0137 20.8051 28.0238C19.2118 29.123 9.29932 28.0207 9.29932 28.0207Z" fill="#664A3B"/>
<path d="M21.7866 15.9083C21.567 16.5022 21.194 17.0564 20.6588 17.3898C19.7668 17.9453 18.6298 17.799 17.5893 17.6649C16.5487 17.5309 15.3832 17.4617 14.5645 18.1222C14.7652 16.7871 14.9993 15.3757 15.8719 14.3497C16.7232 13.3483 18.0451 12.888 19.3333 12.6473C20.6211 12.407 21.9483 12.3395 23.1909 11.9229C22.6614 12.4017 22.4059 13.1147 22.2547 13.8144C22.1035 14.5146 22.0351 15.2368 21.7866 15.9083Z" fill="#10B981"/>
<path d="M17.7043 16.2276C16.7216 16.6553 15.7805 17.18 14.9004 17.7928C16.3731 15.7756 19.4909 15.6288 21.0438 13.6733C20.8325 14.37 20.2855 14.9203 19.6714 15.3061C19.0569 15.6919 18.3688 15.9388 17.7043 16.2276Z" fill="#6EE7B7"/>
<path d="M17.3047 14.7239C16.7235 15.5462 16.1423 16.3685 15.5615 17.1908C16.4171 16.6326 16.9396 15.682 17.3047 14.7239Z" fill="#6EE7B7"/>
<path d="M18.9566 13.8818C18.6493 14.6477 18.1996 15.3554 17.6377 15.9572C17.8586 15.7959 17.9081 15.9771 18.1071 15.7901C18.2228 15.6817 18.9566 14.9198 18.9566 13.8818Z" fill="#6EE7B7"/>
<path d="M18.107 15.7902C18.0658 15.7959 18.0193 15.8056 17.9996 15.8422C17.9593 15.9176 18.0728 15.9794 18.1574 15.9899C18.6062 16.0468 19.0608 16.1041 19.5096 16.0433C19.9576 15.9825 20.4064 15.7889 20.6825 15.4282C19.8239 15.5486 18.9657 15.6694 18.107 15.7902Z" fill="#6EE7B7"/>
<path d="M19.8521 16.6714C18.7576 16.7711 17.6491 16.7182 16.5686 16.5149C16.559 16.7362 16.7974 16.8791 17.0096 16.9417C17.9362 17.2142 18.925 16.9426 19.8521 16.6714Z" fill="#6EE7B7"/>
<path d="M14.3104 14.5499C13.6569 13.3047 12.3437 12.5049 10.9744 12.2121C9.60557 11.9194 8.17886 12.0794 6.80957 12.3717C7.46617 12.579 7.93691 13.1773 8.19552 13.8188C8.45412 14.4604 8.53872 15.1566 8.67855 15.8343C8.81793 16.5119 9.02788 17.202 9.48329 17.7205C10.1289 18.4551 11.1765 18.7236 12.1482 18.6486C13.12 18.5741 14.0409 18.2024 14.9447 17.8351C14.8943 16.7112 14.8329 15.545 14.3104 14.5499Z" fill="#10B981"/>
<path d="M11.5802 15.3011C10.9814 14.5533 10.4875 13.6128 9.58496 13.2993C10.4462 14.0744 10.9784 15.1437 11.6827 16.0652C12.3871 16.9867 13.4066 17.8156 14.5603 17.7477C13.4833 17.0374 12.3875 16.3103 11.5802 15.3011Z" fill="#6EE7B7"/>
<path d="M12.5721 14.1975C12.5191 14.7037 12.4661 15.2151 12.5217 15.7213C12.5774 16.2275 12.7505 16.735 13.0977 17.1062C13.0806 16.757 13.0122 16.4122 12.9438 16.0692C12.8198 15.4453 12.6962 14.821 12.5721 14.1975Z" fill="#6EE7B7"/>
<path d="M11.2177 15.4298C11.2804 15.5621 11.5031 15.4884 11.5465 15.3491C11.5898 15.2093 11.2743 13.417 11.0244 13.2556C11.0888 13.98 11.1537 14.7049 11.2177 15.4298Z" fill="#6EE7B7"/>
<path d="M11.39 15.6866C11.4654 15.6773 11.55 15.6575 11.5873 15.5905C11.6289 15.5155 11.5833 15.4159 11.5115 15.3687C11.4396 15.322 11.3493 15.2942 11.2647 15.3083C10.5603 15.4278 10.2053 15.2823 9.51758 15.1804C10.0444 15.5847 10.7326 15.7708 11.39 15.6866Z" fill="#6EE7B7"/>
<path d="M10.2061 16.519C10.9955 16.9794 11.9672 17.1121 12.8495 16.8793C12.8219 16.7951 12.7947 16.7104 12.7671 16.6262C11.9137 16.5905 11.0599 16.5548 10.2061 16.519Z" fill="#6EE7B7"/>
<path d="M15.5485 25.4401C16.0162 25.2796 16.106 24.6641 16.1148 24.1672C16.1376 22.9392 16.1595 21.706 16 20.4882C15.84 19.2708 15.4902 18.0601 14.8213 17.0327C14.5421 17.2876 14.4352 17.6879 14.4431 18.0671C14.451 18.4459 14.5588 18.814 14.6456 19.1826C15.0922 21.0742 15.0024 23.0909 14.3892 24.9348C14.7078 25.247 15.1277 25.5843 15.5485 25.4401Z" fill="#10B981"/>
<path d="M30 27.6543H0V30.5H30V27.6543Z" fill="#6B7280"/>
</svg>
