<svg width="38" height="33" viewBox="0 0 38 33" fill="none" xmlns="http://www.w3.org/2000/svg">
<path d="M11.6759 11.6533C11.6759 11.6533 0.179031 13.6381 0 31.2839H16.5977C16.5977 31.2839 6.05637 19.2955 11.6759 11.6533Z" fill="#D1FAE5"/>
<path d="M3.2666 31.2581C3.54998 30.9169 4.03848 30.4516 4.37557 30.1717C4.71215 29.8917 5.10806 29.6752 5.5321 29.626C5.99452 29.5719 6.46051 29.7189 6.87535 29.9442C7.48508 30.2755 8.00172 30.7704 8.51017 31.2597C7.78381 31.7923 6.91526 32.0848 6.03647 32.1417C4.53057 32.239 3.2666 31.2581 3.2666 31.2581Z" fill="#664A3B"/>
<path d="M8.95811 25.3924C8.85785 25.68 8.68802 25.9485 8.44403 26.1103C8.03737 26.3794 7.51869 26.3083 7.04502 26.2438C6.57084 26.1787 6.03938 26.1453 5.66699 26.4652C5.75855 25.8184 5.86495 25.1349 6.26291 24.6384C6.65064 24.1535 7.25322 23.9309 7.83993 23.8139C8.42715 23.6975 9.03176 23.6652 9.59852 23.4629C9.35708 23.6947 9.24097 24.0403 9.17192 24.3787C9.10235 24.7172 9.07115 25.0671 8.95811 25.3924Z" fill="#10B981"/>
<path d="M7.09711 25.5473C6.64903 25.754 6.22037 26.0083 5.81934 26.3052C6.49045 25.3286 7.91145 25.2575 8.61888 24.3105C8.52272 24.6479 8.2736 24.9142 7.99328 25.1012C7.71348 25.2876 7.39993 25.4068 7.09711 25.5473Z" fill="#A7F3D0"/>
<path d="M6.91501 24.8188C6.65004 25.2169 6.38508 25.6149 6.12012 26.0135C6.51092 25.7434 6.74876 25.2825 6.91501 24.8188Z" fill="#A7F3D0"/>
<path d="M7.66842 24.4111C7.52878 24.7818 7.32365 25.1247 7.06738 25.4161C7.16815 25.3379 7.19066 25.4259 7.28171 25.3352C7.33389 25.2827 7.66842 24.9136 7.66842 24.4111Z" fill="#A7F3D0"/>
<path d="M7.28147 25.3347C7.26254 25.3374 7.24105 25.3423 7.23236 25.3598C7.21394 25.3965 7.26562 25.4266 7.30449 25.4315C7.50859 25.4594 7.71625 25.4867 7.92035 25.4572C8.12445 25.4276 8.32906 25.3336 8.45489 25.1592C8.06358 25.2177 7.67227 25.2762 7.28147 25.3347Z" fill="#A7F3D0"/>
<path d="M8.07594 25.762C7.57721 25.8102 7.07183 25.7845 6.57924 25.686C6.57464 25.7932 6.68409 25.8626 6.78077 25.8927C7.20277 26.025 7.65394 25.8933 8.07594 25.762Z" fill="#A7F3D0"/>
<path d="M5.55082 24.7338C5.25261 24.1308 4.65413 23.7436 4.03008 23.602C3.40603 23.4604 2.75589 23.5375 2.13184 23.6791C2.43107 23.7797 2.64591 24.0695 2.76356 24.3801C2.88121 24.6907 2.92009 25.028 2.98352 25.3561C3.04746 25.6841 3.1426 26.0182 3.35027 26.2692C3.64439 26.6251 4.12215 26.7552 4.56461 26.7186C5.00758 26.6825 5.42805 26.5026 5.83931 26.3244C5.8163 25.7804 5.78868 25.2161 5.55082 24.7338Z" fill="#10B981"/>
<path d="M4.30643 25.0983C4.03379 24.7363 3.80821 24.2808 3.39746 24.1294C3.78979 24.5045 4.03224 25.0223 4.35297 25.4684C4.6742 25.9146 5.13866 26.3159 5.66501 26.2831C5.17395 25.9392 4.67472 25.5871 4.30643 25.0983Z" fill="#A7F3D0"/>
<path d="M4.75857 24.5635C4.73402 24.809 4.70998 25.0561 4.73556 25.3016C4.76062 25.5466 4.83991 25.7926 4.99797 25.9725C4.98978 25.803 4.9591 25.6362 4.92789 25.4706C4.87163 25.1677 4.81484 24.8658 4.75857 24.5635Z" fill="#A7F3D0"/>
<path d="M4.14071 25.1604C4.16936 25.2244 4.27115 25.1889 4.29059 25.1216C4.31003 25.0544 4.1668 24.1861 4.05273 24.1079C4.08189 24.4584 4.11105 24.8094 4.14071 25.1604Z" fill="#A7F3D0"/>
<path d="M4.21942 25.285C4.25369 25.2801 4.29257 25.2708 4.30945 25.2385C4.32837 25.2024 4.30741 25.1538 4.27518 25.1313C4.24193 25.1089 4.20101 25.0953 4.16265 25.1018C3.84141 25.1598 3.67977 25.0898 3.36621 25.04C3.60662 25.2352 3.91967 25.3255 4.21942 25.285Z" fill="#A7F3D0"/>
<path d="M3.67969 25.6885C4.03928 25.9116 4.48225 25.9755 4.8843 25.8629C4.87202 25.8219 4.85924 25.7814 4.84748 25.7404C4.4577 25.7229 4.06895 25.7054 3.67969 25.6885Z" fill="#A7F3D0"/>
<path d="M6.11531 30.0082C6.32861 29.9301 6.36902 29.6326 6.37362 29.392C6.38386 28.7977 6.39358 28.2001 6.32094 27.6107C6.24779 27.0207 6.0887 26.4346 5.78384 25.937C5.65647 26.0606 5.60789 26.2547 5.61147 26.4379C5.61505 26.621 5.66364 26.7998 5.70354 26.9781C5.90712 27.8939 5.86569 28.8704 5.58691 29.7638C5.73167 29.9148 5.92349 30.0782 6.11531 30.0082Z" fill="#10B981"/>
<path d="M13.7244 7.42725L11.6758 13.8048L16.1101 11.616L15.9521 10.8391L13.7244 7.42725Z" fill="#6B7280"/>
<path d="M24.8469 5.92939C24.3891 4.90365 24.8377 3.51377 25.9446 2.68814C27.051 1.86307 28.4265 1.8926 29.1692 2.70564L30.2557 1.89533C29.1718 0.571605 27.0413 0.488496 25.338 1.75864C23.6346 3.02933 22.9722 5.19563 23.7609 6.7397L24.8469 5.92939Z" fill="#6B7280"/>
<path d="M28.5288 13.3296L15.8698 10.7231L15.3076 12.0004L30.3114 16.7748L28.5288 13.3296Z" fill="#9CA3AF"/>
<path d="M34.9524 10.9216L30.5508 3.72062L30.7493 3.33515C30.7825 3.27118 31.5677 1.76101 32.7861 0.852276C34.1227 -0.14503 35.5268 -0.0805113 36.7401 1.03326C39.8149 3.85513 35.7151 9.82693 35.5386 10.0795L34.9524 10.9216ZM32.1621 3.67743L34.9907 8.30473C35.8818 6.74261 37.3898 3.56042 35.8475 2.14374C35.1038 1.46138 34.4015 1.43349 33.5703 2.05298C32.937 2.52648 32.4316 3.24603 32.1621 3.67743Z" fill="#6B7280"/>
<path d="M30.5972 1.4265L23.2275 6.92285L30.6291 18.2621L37.9988 12.7658L30.5972 1.4265Z" fill="#9CA3AF"/>
<path d="M30.5881 1.41806L23.2197 6.91504L23.9077 7.96866L31.276 2.47168L30.5881 1.41806Z" fill="#D1D5DB"/>
<path d="M36.9194 11.1023L29.5488 16.5977L30.6293 18.2534L37.9998 12.758L36.9194 11.1023Z" fill="#6B7280"/>
</svg>
