<svg width="32" height="32" viewBox="0 0 32 32" fill="none" xmlns="http://www.w3.org/2000/svg">
<path d="M0 8.00049C0 3.58221 3.58172 0.000488281 8 0.000488281H24C28.4183 0.000488281 32 3.58221 32 8.00049V24.0005C32 28.4188 28.4183 32.0005 24 32.0005H8C3.58172 32.0005 0 28.4188 0 24.0005V8.00049Z" fill="#EAB308"/>
<path d="M16.25 20.7505C13.4886 20.7505 11.25 18.5119 11.25 15.7505C11.25 12.9891 13.4886 10.7505 16.25 10.7505C19.0114 10.7505 21.25 12.9891 21.25 15.7505C21.25 18.5119 19.0114 20.7505 16.25 20.7505Z" fill="white"/>
<path d="M22.5 15.7505C22.5054 16.1625 22.838 16.4951 23.25 16.5005L26.25 16.5005C26.6642 16.5005 27 16.1647 27 15.7505C27 15.3363 26.6642 15.0005 26.25 15.0005L23.25 15.0005C22.838 15.0059 22.5054 15.3385 22.5 15.7505Z" fill="white"/>
<path d="M10 15.7505C9.99461 15.3385 9.66196 15.0059 9.25 15.0005L6.25 15.0005C5.83579 15.0005 5.5 15.3363 5.5 15.7505C5.5 16.1647 5.83579 16.5005 6.25 16.5005L9.25 16.5005C9.66196 16.4951 9.99461 16.1625 10 15.7505Z" fill="white"/>
<path d="M20.67 10.2705C20.3775 10.5633 20.3775 11.0377 20.67 11.3305C20.9628 11.6229 21.4372 11.6229 21.73 11.3305L23.85 9.21049C24.0507 9.02352 24.1332 8.74193 24.0654 8.4762C23.9975 8.21047 23.79 8.00297 23.5243 7.9351C23.2586 7.86724 22.977 7.94984 22.79 8.15049L20.67 10.2705Z" fill="white"/>
<path d="M11.83 21.2305C12.1054 20.935 12.0972 20.4745 11.8116 20.1889C11.526 19.9033 11.0655 19.8951 10.77 20.1705L8.65 22.2905C8.50836 22.4304 8.42906 22.6214 8.43 22.8205C8.42791 23.0198 8.50739 23.2113 8.65 23.3505C8.94282 23.6429 9.41718 23.6429 9.71 23.3505L11.83 21.2305Z" fill="white"/>
<path d="M16.25 9.50049C16.662 9.4951 16.9946 9.16245 17 8.75049L17 5.75049C17 5.33627 16.6642 5.00049 16.25 5.00049C15.8358 5.00049 15.5 5.33627 15.5 5.75049L15.5 8.75049C15.5054 9.16245 15.838 9.4951 16.25 9.50049Z" fill="white"/>
<path d="M17 25.7505L17 22.7505C17 22.3363 16.6642 22.0005 16.25 22.0005C15.8358 22.0005 15.5 22.3363 15.5 22.7505L15.5 25.7505C15.5 26.1647 15.8358 26.5005 16.25 26.5005C16.6642 26.5005 17 26.1647 17 25.7505Z" fill="white"/>
<path d="M11.83 10.2705L9.71 8.15049C9.41718 7.85803 8.94282 7.85803 8.65 8.15049C8.50739 8.28971 8.42791 8.48119 8.43 8.68049C8.42906 8.87955 8.50836 9.0706 8.65 9.21049L10.77 11.3305C11.0655 11.6058 11.526 11.5977 11.8116 11.3121C12.0972 11.0265 12.1054 10.566 11.83 10.2705Z" fill="white"/>
<path d="M20.45 20.7505C20.4491 20.9496 20.5284 21.1406 20.67 21.2805L22.79 23.3505C22.977 23.5511 23.2586 23.6337 23.5243 23.5659C23.79 23.498 23.9975 23.2905 24.0654 23.0248C24.1332 22.759 24.0507 22.4775 23.85 22.2905L21.73 20.1705C21.4372 19.878 20.9628 19.878 20.67 20.1705C20.5153 20.3223 20.4348 20.5343 20.45 20.7505Z" fill="white"/>
</svg>
