<svg width="32" height="32" viewBox="0 0 32 32" fill="none" xmlns="http://www.w3.org/2000/svg">
<path d="M0 8.00049C0 3.58221 3.58172 0.000488281 8 0.000488281H24C28.4183 0.000488281 32 3.58221 32 8.00049V24.0005C32 28.4188 28.4183 32.0005 24 32.0005H8C3.58172 32.0005 0 28.4188 0 24.0005V8.00049Z" fill="#10B981"/>
<path d="M15.9996 9.21203C15.7868 9.21203 15.6086 9.14027 15.4651 8.99677C15.3214 8.85311 15.2496 8.67486 15.2496 8.46203V6.26978C15.2496 6.05694 15.3214 5.87878 15.4651 5.73528C15.6086 5.59161 15.7868 5.51978 15.9996 5.51978C16.2124 5.51978 16.3906 5.59161 16.5341 5.73528C16.6778 5.87878 16.7496 6.05694 16.7496 6.26978V8.46203C16.7496 8.67486 16.6778 8.85311 16.5341 8.99677C16.3906 9.14027 16.2124 9.21203 15.9996 9.21203ZM20.7958 11.2043C20.6508 11.0594 20.5783 10.8823 20.5783 10.6728C20.5783 10.4631 20.6508 10.2859 20.7958 10.141L22.3303 8.59102C22.4855 8.43586 22.6653 8.35827 22.8698 8.35827C23.0743 8.35827 23.2541 8.43586 23.4091 8.59102C23.5541 8.73586 23.6266 8.91144 23.6266 9.11777C23.6266 9.32428 23.5541 9.49994 23.4091 9.64478L21.8496 11.2043C21.7048 11.3493 21.5291 11.4218 21.3226 11.4218C21.1163 11.4218 20.9407 11.3493 20.7958 11.2043ZM23.5381 16.7505C23.3253 16.7505 23.147 16.6787 23.0033 16.535C22.8598 16.3915 22.7881 16.2134 22.7881 16.0005C22.7881 15.7877 22.8598 15.6095 23.0033 15.466C23.147 15.3224 23.3253 15.2505 23.5381 15.2505H25.7303C25.9432 15.2505 26.1213 15.3224 26.2648 15.466C26.4085 15.6095 26.4803 15.7877 26.4803 16.0005C26.4803 16.2134 26.4085 16.3915 26.2648 16.535C26.1213 16.6787 25.9432 16.7505 25.7303 16.7505H23.5381ZM22.3303 23.41L20.7958 21.86C20.6508 21.7152 20.5783 21.5379 20.5783 21.3283C20.5783 21.1188 20.6508 20.9416 20.7958 20.7968C20.9407 20.6518 21.1178 20.5793 21.3273 20.5793C21.537 20.5793 21.7143 20.6518 21.8591 20.7968L23.4091 22.3313C23.5643 22.4864 23.6418 22.6663 23.6418 22.8708C23.6418 23.0753 23.5643 23.255 23.4091 23.41C23.2541 23.5652 23.0743 23.6428 22.8698 23.6428C22.6653 23.6428 22.4855 23.5652 22.3303 23.41ZM10.1593 11.214L8.59009 9.64478C8.44509 9.49994 8.37259 9.32269 8.37259 9.11302C8.37259 8.90336 8.44509 8.72936 8.59009 8.59102C8.74509 8.43586 8.92325 8.35827 9.12459 8.35827C9.32592 8.35827 9.50409 8.43586 9.65909 8.59102L11.2033 10.1505C11.3483 10.2954 11.4224 10.4726 11.4256 10.6823C11.4288 10.8919 11.3579 11.0692 11.2131 11.214C11.0683 11.3589 10.8926 11.4313 10.6861 11.4313C10.4798 11.4313 10.3042 11.3589 10.1593 11.214ZM10.2881 23.0583H14.5958C15.0765 23.0583 15.4883 22.8868 15.8313 22.5438C16.1743 22.2008 16.3458 21.7889 16.3458 21.3083C16.3458 20.8274 16.1801 20.4172 15.8486 20.0775C15.5173 19.7377 15.1112 19.5678 14.6303 19.5678H13.5093L13.0766 18.5313C12.8304 17.9556 12.4461 17.4989 11.9236 17.161C11.4013 16.8232 10.824 16.6543 10.1918 16.6543C9.31367 16.6543 8.5685 16.9604 7.95634 17.5725C7.34417 18.1847 7.03809 18.9299 7.03809 19.8083C7.03809 20.7121 7.35375 21.4797 7.98509 22.111C8.61659 22.7425 9.38425 23.0583 10.2881 23.0583ZM10.2881 24.5583C8.97525 24.5583 7.85542 24.0948 6.92859 23.1678C6.00159 22.2409 5.53809 21.1211 5.53809 19.8083C5.53809 18.5146 5.99034 17.4155 6.89484 16.511C7.79934 15.6065 8.89834 15.1543 10.1918 15.1543C11.147 15.1543 12.0163 15.4188 12.7996 15.9478C13.5829 16.4766 14.1522 17.1833 14.5073 18.0678C15.4098 18.0678 16.1903 18.3733 16.8486 18.9843C17.5069 19.5951 17.8393 20.3973 17.8458 21.3908C17.8252 22.2768 17.5014 23.0262 16.8746 23.639C16.2476 24.2519 15.488 24.5583 14.5958 24.5583H10.2881ZM17.8266 21.1985C17.7624 20.9485 17.6983 20.7053 17.6341 20.4688C17.5701 20.2323 17.506 19.989 17.4418 19.739C18.2112 19.4159 18.8298 18.9194 19.2976 18.2495C19.7656 17.5797 19.9996 16.83 19.9996 16.0005C19.9996 14.9005 19.6079 13.9589 18.8246 13.1755C18.0413 12.3922 17.0996 12.0005 15.9996 12.0005C14.9804 12.0005 14.0926 12.3368 13.3361 13.0093C12.5798 13.6816 12.1478 14.5274 12.0401 15.5468C11.7901 15.4826 11.5349 15.4236 11.2746 15.3698C11.0144 15.3159 10.7593 15.2569 10.5093 15.1928C10.7042 13.8288 11.3243 12.7057 12.3698 11.8235C13.4153 10.9415 14.6253 10.5005 15.9996 10.5005C17.5253 10.5005 18.8233 11.0358 19.8938 12.1063C20.9643 13.1768 21.4996 14.4749 21.4996 16.0005C21.4996 17.1749 21.1633 18.2329 20.4908 19.1745C19.8185 20.1162 18.9304 20.7909 17.8266 21.1985Z" fill="white"/>
</svg>
