<svg width="30" height="31" viewBox="0 0 30 31" fill="none" xmlns="http://www.w3.org/2000/svg">
<path d="M25.4936 15.9564C25.0098 15.9181 24.4354 16.3597 23.8684 16.8372C22.0763 18.3486 20.7027 21.656 18.4044 21.6272C17.3587 21.6144 15.6831 20.6393 13.975 19.7913L13.7949 22.1824C14.6281 22.442 15.4539 22.7498 16.2663 23.138C17.681 23.8147 19.1054 24.3167 20.5434 24.7144C21.694 23.752 23.3488 21.6788 25.9279 17.8555C26.3106 17.2881 26.0648 16.0013 25.4936 15.9564Z" fill="#E5A029"/>
<path d="M17.8994 22.3822C19.3142 23.0589 20.7385 23.5609 22.1766 23.9586C23.3272 22.9963 24.9819 20.923 27.561 17.0998C27.9438 16.5323 27.6983 15.2456 27.1268 15.2001C26.643 15.1618 26.0685 15.6033 25.5015 16.0814C23.7095 17.5923 22.3359 20.9002 20.0376 20.8714C17.7393 20.8425 12.4022 16.1679 10.3514 18.4032C10.3514 18.4032 10.3439 18.391 10.3322 18.3721L10.1846 20.3328C12.8015 20.7028 15.4081 21.1909 17.8994 22.3822Z" fill="#F1AA3F"/>
<path d="M19.8898 21.8201C21.305 22.4968 22.7289 22.9982 24.1669 23.3964C25.3175 22.4341 27.068 20.5089 29.6475 16.6857C30.0302 16.1183 29.7573 15.197 29.1862 15.1515C28.7024 15.1132 28.1142 15.1831 27.4927 15.5192C25.9228 16.369 24.3275 20.3381 22.0288 20.3092C19.7305 20.2804 14.3934 15.6063 12.3426 17.841C12.3426 17.841 12.3351 17.8283 12.3235 17.81L12.1758 19.7706C14.7923 20.1406 17.3989 20.6287 19.8898 21.8201Z" fill="#F6B455"/>
<path d="M0 24.2922C0 24.2922 0.362737 29.4721 4.57832 30.1483C4.57832 30.1483 8.30387 24.8081 9.13542 24.3494C11.4054 23.0964 14.9821 24.7027 15.9555 24.8064C17.5404 24.9756 21.0837 25.0682 22.9132 25.4831C23.1387 25.5341 23.3675 25.4609 23.5468 25.2712C24.1308 24.6544 25.5439 23.2018 26.8884 22.1286C27.8435 21.3659 28.65 19.7463 29.8223 18.0081C30.205 17.4412 29.9321 16.5194 29.361 16.4739C28.8768 16.4356 28.2886 16.5055 27.6675 16.8416C26.0976 17.6913 24.5019 21.6604 22.2036 21.6321C19.9052 21.6033 14.5682 16.9287 12.5178 19.1639C12.5178 19.1639 10.0631 15.0983 7.92532 16.82C5.78717 18.5416 3.2767 21.8867 0 24.2922Z" fill="#FFC56E"/>
<path d="M13.9473 18.5853C14.4847 17.7783 15.4107 16.6784 16.0496 16.0156C16.6886 15.3533 17.4382 14.8425 18.2427 14.7249C19.1192 14.5968 20.0036 14.944 20.7898 15.477C21.9462 16.2607 22.925 17.431 23.8893 18.588C20.8638 21.5377 13.9473 18.5853 13.9473 18.5853Z" fill="#664A3B"/>
<path d="M24.7377 4.71323C24.5476 5.39323 24.2256 6.0283 23.763 6.41046C22.9922 7.04664 22.0096 6.87913 21.1107 6.7255C20.2118 6.57186 19.2042 6.4931 18.4971 7.24854C18.6705 5.71936 18.8727 4.1031 19.6269 2.9278C20.3628 1.78133 21.505 1.25386 22.6174 0.978197C23.7301 0.702536 24.877 0.625438 25.9511 0.148438C25.4931 0.696988 25.2726 1.51344 25.142 2.31491C25.0114 3.11638 24.9523 3.94392 24.7377 4.71323Z" fill="#10B981"/>
<path d="M21.2092 5.07855C20.3602 5.56831 19.547 6.16955 18.7861 6.87118C20.059 4.56106 22.7525 4.393 24.0945 2.15332C23.9119 2.95146 23.4393 3.58154 22.9085 4.0236C22.3782 4.4651 21.7837 4.74743 21.2092 5.07855Z" fill="#A7F3D0"/>
<path d="M20.8637 3.35645C20.3616 4.29824 19.8595 5.24004 19.3574 6.18184C20.097 5.54288 20.5484 4.4541 20.8637 3.35645Z" fill="#A7F3D0"/>
<path d="M22.2917 2.39209C22.0263 3.26899 21.6378 4.0799 21.1523 4.76933C21.3433 4.58463 21.3861 4.79151 21.5579 4.57742C21.6578 4.45373 22.2917 3.58071 22.2917 2.39209Z" fill="#A7F3D0"/>
<path d="M21.5581 4.57748C21.5227 4.58413 21.4823 4.59523 21.4653 4.63683C21.4304 4.72336 21.5285 4.79379 21.6017 4.806C21.9894 4.87144 22.3825 4.93689 22.7698 4.86701C23.1571 4.79712 23.5448 4.57581 23.7836 4.1626C23.0419 4.30126 22.2998 4.43937 21.5581 4.57748Z" fill="#A7F3D0"/>
<path d="M23.0662 5.58735C22.1203 5.70161 21.1627 5.64116 20.2288 5.4082C20.22 5.66223 20.4268 5.8253 20.6094 5.89685C21.4106 6.20912 22.265 5.8974 23.0662 5.58735Z" fill="#A7F3D0"/>
<path d="M18.2773 3.15719C17.7124 1.73119 16.578 0.814904 15.3946 0.479894C14.2115 0.144885 12.979 0.327921 11.7959 0.66293C12.3633 0.900321 12.7701 1.58531 12.9935 2.32022C13.2173 3.05514 13.2901 3.85218 13.4107 4.62813C13.5314 5.40465 13.7123 6.19446 14.1059 6.7885C14.6633 7.6299 15.5689 7.93718 16.4083 7.85177C17.2478 7.76635 18.044 7.34093 18.8248 6.91995C18.7815 5.63205 18.7287 4.29645 18.2773 3.15719Z" fill="#10B981"/>
<path d="M15.9182 4.01797C15.4007 3.16158 14.9739 2.08445 14.1943 1.72559C14.9385 2.61303 15.3982 3.83825 16.0068 4.8932C16.6154 5.94815 17.4964 6.89771 18.4931 6.82006C17.5626 6.00694 16.6158 5.17386 15.9182 4.01797Z" fill="#A7F3D0"/>
<path d="M16.7749 2.75342C16.7292 3.33358 16.6834 3.9193 16.7312 4.49891C16.7791 5.07852 16.9293 5.65979 17.2292 6.08465C17.2142 5.68419 17.1551 5.28984 17.0965 4.89659C16.9892 4.1822 16.8818 3.46781 16.7749 2.75342Z" fill="#A7F3D0"/>
<path d="M15.6053 4.16519C15.6589 4.31661 15.852 4.23286 15.8894 4.07257C15.9268 3.91283 15.6544 1.8595 15.4385 1.6748C15.4938 2.50512 15.5495 3.33488 15.6053 4.16519Z" fill="#A7F3D0"/>
<path d="M15.7535 4.45949C15.8188 4.4484 15.892 4.42566 15.9241 4.34967C15.9602 4.2637 15.9207 4.14945 15.8587 4.09565C15.7968 4.04185 15.7186 4.00968 15.6458 4.02632C15.0368 4.16331 14.7302 3.99691 14.1357 3.87988C14.5912 4.34302 15.1853 4.55545 15.7535 4.45949Z" fill="#A7F3D0"/>
<path d="M14.7305 5.4126C15.4123 5.94007 16.2521 6.09149 17.0146 5.8247C16.9909 5.72819 16.9676 5.63168 16.9439 5.53461C16.206 5.49412 15.4684 5.45309 14.7305 5.4126Z" fill="#A7F3D0"/>
<path d="M19.3468 15.6297C19.7508 15.4456 19.8281 14.7412 19.836 14.1721C19.8556 12.7661 19.8747 11.3534 19.7366 9.95897C19.5985 8.56458 19.2965 7.17795 18.7183 6.00098C18.4774 6.29272 18.3851 6.75198 18.3917 7.18571C18.3984 7.61945 18.4911 8.04099 18.5664 8.46363C18.9521 10.6301 18.8747 12.9402 18.3447 15.0518C18.6201 15.4084 18.9833 15.795 19.3468 15.6297Z" fill="#10B981"/>
<path d="M15.9721 18.9908L13.1038 16.6812C7.97476 14.32 8.43526 17.3213 7.70312 17.9308L11.1587 20.5443C11.1587 20.5443 13.7108 19.0218 20.2933 21.0507C20.2933 21.0507 16.1547 19.0124 15.9721 18.9908Z" fill="#E9A82A"/>
<path d="M22.3936 18.29C22.4381 18.0532 22.3595 17.8086 22.1773 17.7869C20.7575 17.6161 15.4034 16.8973 12.2531 15.4474C7.12406 13.0868 7.4972 17.2517 6.76465 17.8613L11.1587 20.5436C11.1587 20.5436 11.8476 17.6766 19.1647 20.497C19.1647 20.497 21.916 20.8148 22.3936 18.29Z" fill="#FFC56E"/>
<path d="M20.2771 17.6372C20.2771 17.6372 19.399 18.1425 19.8686 18.8391C20.1112 19.1985 20.5276 19.4254 21.2942 19.2196C21.8803 19.0621 22.1715 18.5429 22.2173 18.1974C22.2385 18.0377 22.1532 17.8885 22.0309 17.8724L20.2771 17.6372Z" fill="#FAECD0"/>
<path d="M29.5305 17.1184C29.0143 17.0197 28.1133 17.4656 28.1362 19.1152C28.1416 19.4984 28.5555 19.661 28.8429 19.3587C29.0921 19.0969 29.4236 18.6093 29.7739 18.1329C29.9478 17.8961 30.0584 17.2188 29.5305 17.1184Z" fill="#FAECD0"/>
</svg>
