<svg width="30" height="31" viewBox="0 0 30 31" fill="none" xmlns="http://www.w3.org/2000/svg">
<path d="M4.55957 27.0742C5.69819 25.8956 7.66114 24.2887 9.01573 23.3214C10.3698 22.354 11.9582 21.6077 13.6633 21.4363C15.5211 21.2494 17.3949 21.7565 19.0614 22.5347C21.5121 23.6797 23.5869 25.3889 25.6304 27.0786C22.712 28.9176 19.2219 29.9279 15.6898 30.1246C9.63855 30.463 4.55957 27.0742 4.55957 27.0742Z" fill="#664A3B"/>
<path d="M27.4284 6.81391C27.0264 7.80737 26.3433 8.7344 25.3628 9.29247C23.7296 10.2222 21.6471 9.97723 19.7415 9.75267C17.8359 9.52855 15.7014 9.41295 14.2021 10.5171C14.57 8.28396 14.9985 5.9232 16.5965 4.20689C18.156 2.53222 20.5764 1.76199 22.9347 1.35982C25.2929 0.957206 27.7239 0.844705 29.9997 0.148438C29.0298 0.949233 28.5617 2.14156 28.2845 3.3122C28.0083 4.48239 27.8825 5.69111 27.4284 6.81391Z" fill="#10B981"/>
<path d="M19.9513 7.34807C18.1518 8.06294 16.4289 8.94125 14.8164 9.96616C17.514 6.59245 23.2226 6.34619 26.0667 3.07568C25.6801 4.241 24.6784 5.16138 23.5537 5.80672C22.4286 6.45205 21.1685 6.8644 19.9513 7.34807Z" fill="#6EE7B7"/>
<path d="M19.219 4.83252C18.1551 6.20822 17.0908 7.58348 16.0264 8.95918C17.595 8.02595 18.5514 6.43588 19.219 4.83252Z" fill="#6EE7B7"/>
<path d="M22.2447 3.42432C21.6822 4.70524 20.8588 5.88916 19.8301 6.89635C20.2345 6.62662 20.3252 6.92913 20.6901 6.61643C20.9007 6.43527 22.2447 5.16011 22.2447 3.42432Z" fill="#6EE7B7"/>
<path d="M20.6895 6.61621C20.6143 6.62595 20.5285 6.64234 20.4929 6.70346C20.4191 6.83014 20.6274 6.93289 20.7821 6.95061C21.604 7.04584 22.437 7.14151 23.258 7.03964C24.0789 6.93777 24.9003 6.614 25.406 6.01074C23.834 6.21271 22.262 6.41468 20.6895 6.61621Z" fill="#6EE7B7"/>
<path d="M23.8853 8.09086C21.8804 8.2574 19.8505 8.16926 17.8716 7.8291C17.8538 8.19982 18.2915 8.43855 18.6791 8.54264C20.3764 8.99884 22.187 8.54397 23.8853 8.09086Z" fill="#6EE7B7"/>
<path d="M13.7368 4.54166C12.5393 2.4595 10.1348 1.12101 7.62714 0.631587C5.11995 0.142163 2.50719 0.409684 0 0.898665C1.20226 1.24547 2.06418 2.24602 2.53804 3.31921C3.01191 4.39196 3.16665 5.55638 3.42214 6.69025C3.67811 7.82412 4.06183 8.97748 4.89628 9.84516C6.0778 11.0738 7.99688 11.5229 9.77616 11.398C11.5554 11.2731 13.2431 10.6517 14.8976 10.0374C14.8055 8.15676 14.6937 6.20615 13.7368 4.54166Z" fill="#10B981"/>
<path d="M8.73703 5.7987C7.64083 4.5479 6.736 2.97466 5.08398 2.45068C6.6608 3.7471 7.63504 5.53605 8.92503 7.07696C10.215 8.61787 12.0816 10.0046 14.1944 9.89126C12.2223 8.70291 10.216 7.48666 8.73703 5.7987Z" fill="#6EE7B7"/>
<path d="M10.5528 3.95264C10.4554 4.79994 10.3585 5.65478 10.4603 6.50119C10.562 7.34805 10.8801 8.19712 11.515 8.81765C11.4837 8.233 11.3583 7.65676 11.2335 7.08274C11.0069 6.03922 10.7799 4.99615 10.5528 3.95264Z" fill="#6EE7B7"/>
<path d="M8.07306 6.01375C8.18683 6.23477 8.59561 6.11208 8.67467 5.87866C8.75373 5.64525 8.17622 2.64669 7.71875 2.37695C7.83637 3.58922 7.95448 4.80149 8.07306 6.01375Z" fill="#6EE7B7"/>
<path d="M8.38739 6.44363C8.52526 6.42769 8.68096 6.39447 8.74893 6.2833C8.8251 6.15751 8.74219 5.99052 8.61058 5.91257C8.47898 5.83417 8.31315 5.78723 8.15889 5.81115C6.86842 6.01135 6.21909 5.76818 4.95898 5.59766C5.92455 6.27311 7.18369 6.58404 8.38739 6.44363Z" fill="#6EE7B7"/>
<path d="M6.21973 7.83545C7.66494 8.60568 9.4447 8.82714 11.0606 8.43737C11.0104 8.29652 10.9608 8.15523 10.9111 8.01438C9.34684 7.95503 7.78353 7.89524 6.21973 7.83545Z" fill="#6EE7B7"/>
<path d="M16.0043 22.757C16.8609 22.4886 17.0249 21.4592 17.0412 20.6279C17.0822 18.5741 17.1227 16.511 16.8306 14.4744C16.5385 12.4379 15.8978 10.4129 14.6729 8.69434C14.1624 9.12042 13.9667 9.791 13.9806 10.4244C13.9951 11.0577 14.1918 11.6738 14.3509 12.2904C15.1684 15.455 15.0036 18.8283 13.8809 21.9128C14.4646 22.4341 15.234 22.9988 16.0043 22.757Z" fill="#10B981"/>
</svg>
