<svg width="24" height="24" viewBox="0 0 24 24" fill="none" xmlns="http://www.w3.org/2000/svg">
<path d="M8.7615 20L15.2193 20C15.3026 20 15.3731 19.976 15.4307 19.928C15.4884 19.8798 15.5301 19.8205 15.5557 19.75L16.6328 15.452L7.348 15.452L8.425 19.75C8.45067 19.8205 8.49233 19.8798 8.55 19.928C8.60767 19.976 8.67817 20 8.7615 20ZM8.7615 21.5C8.33333 21.5 7.95708 21.3712 7.63275 21.1135C7.30842 20.8558 7.09108 20.5212 6.98075 20.1095L5.80775 15.452L18.173 15.452L17 20.1095C16.8897 20.5147 16.6723 20.8477 16.348 21.1085C16.0237 21.3695 15.6474 21.5 15.2193 21.5L8.7615 21.5ZM5.34625 13.952L18.6538 13.952C18.7564 13.952 18.8398 13.9199 18.9038 13.8558C18.9679 13.7916 19 13.7114 19 13.6153V11.7595L5 11.7595V13.6153C5 13.7114 5.03367 13.7916 5.101 13.8558C5.16833 13.9199 5.25008 13.952 5.34625 13.952ZM11.9905 8.05776C11.9905 6.68593 12.4652 5.50451 13.4145 4.51351C14.3638 3.52251 15.5295 2.89751 16.9115 2.63851C16.9885 2.62184 17.0587 2.62701 17.122 2.65401C17.1855 2.68084 17.2474 2.71926 17.3077 2.76926C17.3679 2.81926 17.4089 2.87859 17.4307 2.94726C17.4526 3.01576 17.4552 3.08851 17.4385 3.16551C17.2102 4.37951 16.6727 5.43076 15.826 6.31926C14.9792 7.20776 13.9506 7.76351 12.7402 7.98651L12.7402 10.2598L19.596 10.2598C19.8538 10.2598 20.0689 10.3459 20.2413 10.5183C20.4138 10.6908 20.5 10.9058 20.5 11.1635V13.6153C20.5 14.1204 20.3186 14.5528 19.9557 14.9125C19.5929 15.2722 19.1589 15.452 18.6538 15.452L5.34625 15.452C4.84108 15.452 4.40708 15.2722 4.04425 14.9125C3.68142 14.5528 3.5 14.1204 3.5 13.6153L3.5 11.1635C3.5 10.9058 3.58625 10.6908 3.75875 10.5183C3.93108 10.3459 4.14617 10.2598 4.404 10.2598H11.2405V7.98651C10.0302 7.76351 9.00158 7.20776 8.15475 6.31926C7.30808 5.43076 6.77058 4.37951 6.54225 3.16551C6.52558 3.08851 6.52817 3.01576 6.55 2.94726C6.57183 2.87859 6.61283 2.81926 6.673 2.76926C6.73333 2.71926 6.79525 2.68084 6.85875 2.65401C6.92225 2.62701 6.99242 2.62184 7.06925 2.63851C8.45125 2.89751 9.61692 3.52251 10.5662 4.51351C11.5157 5.50451 11.9905 6.68593 11.9905 8.05776Z" fill="#6B7280"/>
</svg>
