<svg width="16" height="21" viewBox="0 0 16 21" fill="none" xmlns="http://www.w3.org/2000/svg">
<path d="M8.05 8.96H4.93C4.51579 8.96 4.18 8.62422 4.18 8.21C4.18 7.79579 4.51579 7.46 4.93 7.46H8.05C8.46421 7.46 8.8 7.79579 8.8 8.21C8.8 8.62422 8.46421 8.96 8.05 8.96Z" fill="#6B7280"/>
<path d="M4.93 10.57H11.07C11.4842 10.57 11.82 10.9058 11.82 11.32C11.82 11.7342 11.4842 12.07 11.07 12.07H4.93C4.51579 12.07 4.18 11.7342 4.18 11.32C4.18 10.9058 4.51579 10.57 4.93 10.57Z" fill="#6B7280"/>
<path d="M10.23 13.5H4.93C4.51579 13.5 4.18 13.8358 4.18 14.25C4.18 14.6642 4.51579 15 4.93 15H10.23C10.6442 15 10.98 14.6642 10.98 14.25C10.98 13.8358 10.6442 13.5 10.23 13.5Z" fill="#6B7280"/>
<path fill-rule="evenodd" clip-rule="evenodd" d="M10.27 1.48012e-06C11.0792 -0.00111711 11.7474 0.631927 11.79 1.44C14.1649 1.70703 15.9696 3.70032 16 6.09V16.18C15.9945 18.8011 13.8711 20.9245 11.25 20.93H4.75C2.12893 20.9245 0.00550069 18.8011 0 16.18V6.09C0.0304126 3.70032 1.83508 1.70703 4.21 1.44C4.25747 0.634192 4.9228 0.00388306 5.73 1.48012e-06H10.27ZM10.29 1.44H5.73V2.63H10.29V1.44ZM14.5 16.18C14.5 17.9766 13.0465 19.4345 11.25 19.44H4.75C2.95345 19.4345 1.49999 17.9766 1.5 16.18V6.09C1.50398 4.49887 2.65936 3.14458 4.23 2.89C4.35276 3.62136 4.98843 4.15532 5.73 4.15H10.27C11.0116 4.15532 11.6472 3.62136 11.77 2.89C13.3406 3.14458 14.496 4.49887 14.5 6.09V16.18Z" fill="#6B7280"/>
</svg>
