<svg width="16" height="20" viewBox="0 0 16 20" fill="none" xmlns="http://www.w3.org/2000/svg">
<path fill-rule="evenodd" clip-rule="evenodd" d="M15.58 14.71L15.82 15.85C16.0474 16.8356 15.8228 17.8713 15.2076 18.6742C14.5924 19.4771 13.6508 19.9633 12.64 20H3.35997C2.34915 19.9633 1.40754 19.4771 0.792319 18.6742C0.177098 17.8713 -0.0474614 16.8356 0.179972 15.85L0.419972 14.71C0.696007 13.1668 2.02259 12.0327 3.58997 12H12.41C13.9774 12.0327 15.3039 13.1668 15.58 14.71ZM12.64 18.49C13.1478 18.4841 13.6256 18.2489 13.94 17.85V17.86C14.3257 17.3762 14.4759 16.7458 14.35 16.14L14.11 15C13.9768 14.1552 13.2646 13.5226 12.41 13.49H3.58998C2.73534 13.5226 2.02314 14.1552 1.88998 15L1.64998 16.14C1.52713 16.7426 1.67724 17.3687 2.05998 17.85C2.37431 18.2489 2.85219 18.4841 3.35998 18.49H12.64Z" fill="#6B7280"/>
<path fill-rule="evenodd" clip-rule="evenodd" d="M8.49996 10H7.49996C5.29082 10 3.49996 8.20915 3.49996 6.00001V3.36001C3.49729 2.46807 3.85043 1.61189 4.48113 0.981192C5.11184 0.350491 5.96802 -0.00265152 6.85996 1.49917e-05H9.13996C10.0319 -0.00265152 10.8881 0.350491 11.5188 0.981192C12.1495 1.61189 12.5026 2.46807 12.5 3.36001V6.00001C12.5 8.20915 10.7091 10 8.49996 10ZM6.85996 1.50002C5.83271 1.50002 4.99996 2.33277 4.99996 3.36001V6.00001C4.99996 7.38073 6.11925 8.50001 7.49996 8.50001H8.49996C9.88067 8.50001 11 7.38073 11 6.00001V3.36001C11 2.86671 10.804 2.39361 10.4552 2.0448C10.1064 1.69598 9.63326 1.50002 9.13996 1.50002H6.85996Z" fill="#6B7280"/>
</svg>
