<svg width="30" height="31" viewBox="0 0 30 31" fill="none" xmlns="http://www.w3.org/2000/svg">
<path d="M25.6874 18.8433C25.3449 17.6809 25.6762 16.4123 25.871 15.2019C26.3532 12.2069 25.952 9.01962 24.7529 6.32548C21.8709 2.65982 17.2825 1.34654 13.1263 2.17477C8.9706 3.00301 5.22081 5.73619 2.09293 9.10245C2.71962 10.6737 2.50727 12.5282 2.14841 14.2147C1.78956 15.9011 1.293 17.5947 1.39319 19.3302C1.48021 20.8406 2.01669 22.2847 2.03984 23.7984C2.06299 25.3121 1.27024 27.059 0.000488281 27.0714C2.26816 28.0762 6.30256 28.6541 8.72152 28.6231C16.538 28.5232 21.1512 28.3566 28.1251 24.1464C27.3184 23.9726 25.9588 19.7653 25.6874 18.8433Z" fill="#9CA3AF"/>
<path d="M25.6873 18.8433C25.3448 17.6809 25.6761 16.4124 25.8709 15.2019C26.2629 12.7686 26.0713 10.2082 25.3428 7.88916C23.695 11.2245 20.2949 12.4645 17.0034 12.7343C14.6235 12.9295 12.1391 12.9976 9.76565 12.7386C7.19501 12.4583 4.85029 11.4944 2.44331 10.5476C2.58022 11.7476 2.4014 13.0233 2.14792 14.2152C1.78907 15.9016 1.29251 17.5952 1.3927 19.3307C1.47932 20.8411 2.0162 22.2852 2.03935 23.7989C2.0625 25.3126 1.26975 27.0595 0 27.0719C2.26767 28.0767 6.30207 28.6546 8.72103 28.6236C16.5375 28.5237 21.1507 28.3571 28.1246 24.1469C27.3183 23.9727 25.9587 19.7653 25.6873 18.8433Z" fill="#9CA3AF"/>
<path d="M22.3555 10.9924C16.6566 12.4652 10.8315 13.2444 5.00049 13.3134C5.12184 16.7234 5.24318 20.133 5.36453 23.5431C10.9178 21.8756 16.8031 20.2125 22.2845 22.1888C22.7914 18.4699 23.2908 14.5915 22.3555 10.9924Z" fill="#F9FAFB"/>
<path d="M8.47964 19.7315C8.63173 19.6744 8.77183 19.593 8.90116 19.4869C9.0301 19.3807 9.1231 19.2722 9.17938 19.1613L9.05844 18.7L8.37626 18.9547L8.24094 18.4392L9.4584 17.9846L9.78013 19.2098C9.67994 19.4464 9.52427 19.6606 9.3139 19.8515C9.10354 20.0428 8.86843 20.1866 8.60738 20.2842C8.15272 20.4536 7.76353 20.4346 7.44021 20.2256C7.11648 20.0166 6.88257 19.6363 6.73767 19.0846C6.59357 18.5358 6.60595 18.0693 6.77519 17.6852C6.94444 17.3006 7.25938 17.0226 7.72122 16.8503C8.37706 16.6052 8.87003 16.7394 9.20054 17.2511L8.71196 17.6467C8.60977 17.5 8.48443 17.4063 8.33754 17.3653C8.19065 17.3258 8.03297 17.3363 7.86492 17.3991C7.5903 17.502 7.40748 17.679 7.31687 17.9313C7.22586 18.1826 7.22945 18.4944 7.32645 18.8647C7.42544 19.2417 7.57593 19.5049 7.77711 19.6558C7.97829 19.8053 8.2126 19.831 8.47964 19.7315Z" fill="#9CA3AF"/>
<path d="M10.4544 19.5411L9.94024 17.5829C9.90352 17.4434 9.87078 17.3268 9.84284 17.234C9.8149 17.1411 9.78935 17.0597 9.7666 16.9888L10.2979 16.7903C10.3095 16.8165 10.3374 16.9008 10.3817 17.0431C10.4264 17.1849 10.4548 17.2797 10.4671 17.3268L10.4755 17.3239C10.4823 17.124 10.4975 16.9793 10.5202 16.8908C10.5434 16.8013 10.5793 16.7284 10.6284 16.6708C10.6771 16.6137 10.745 16.569 10.8328 16.5361C10.9038 16.5095 10.9649 16.4995 11.0144 16.5066L11.1605 17.0626C11.0643 17.0726 10.9817 17.0902 10.913 17.1159C10.7741 17.1678 10.6835 17.2754 10.6416 17.4382C10.5993 17.6014 10.6128 17.8142 10.6823 18.0774L11.012 19.3336L10.4544 19.5411Z" fill="#9CA3AF"/>
<path d="M13.7377 16.9073C13.8467 17.3224 13.8359 17.6832 13.7046 17.9907C13.5733 18.2987 13.3374 18.5162 12.9961 18.6438C12.6616 18.7685 12.3682 18.7485 12.1155 18.5833C11.8632 18.4177 11.6828 18.1287 11.5742 17.7156C11.4661 17.3043 11.476 16.9449 11.6046 16.6384C11.7331 16.3314 11.9686 16.1138 12.3111 15.9863C12.6616 15.8559 12.959 15.8692 13.2028 16.0282C13.4475 16.1871 13.6256 16.4804 13.7377 16.9073ZM13.1549 17.1253C13.0751 16.8207 12.9753 16.616 12.856 16.5104C12.737 16.4042 12.5981 16.3809 12.4392 16.4399C12.1007 16.5665 12.0073 16.9188 12.159 17.4971C12.2341 17.7827 12.3327 17.9845 12.4544 18.1026C12.5762 18.2211 12.7151 18.2506 12.8711 18.1925C13.2136 18.064 13.3082 17.7089 13.1549 17.1253Z" fill="#9CA3AF"/>
<path d="M14.3701 15.2693L14.747 16.7045C14.8651 17.1543 15.0511 17.3314 15.3046 17.2366C15.4399 17.1862 15.5305 17.0767 15.5768 16.9077C15.6227 16.7392 15.6179 16.5464 15.5613 16.3303L15.2012 14.959L15.7584 14.751L16.2802 16.7373C16.3372 16.9553 16.3927 17.1438 16.4466 17.3038L15.9149 17.5022C15.8395 17.2814 15.7868 17.1148 15.7576 17.0024L15.7477 17.0063C15.7245 17.2276 15.6674 17.4042 15.576 17.5351C15.485 17.666 15.3609 17.7607 15.2032 17.8193C14.9761 17.9045 14.7797 17.8868 14.614 17.7655C14.4488 17.6446 14.3234 17.4232 14.2392 17.1015L13.8125 15.4769L14.3701 15.2693Z" fill="#9CA3AF"/>
<path d="M18.3877 16.5789L18.0109 15.1433C17.8928 14.6944 17.7063 14.5174 17.4513 14.6126C17.3168 14.663 17.2261 14.7725 17.1794 14.941C17.1331 15.1095 17.1383 15.3023 17.195 15.5179L17.5551 16.8897L16.9978 17.0978L16.4761 15.1114C16.4402 14.9743 16.4091 14.8625 16.3827 14.7763C16.3568 14.6897 16.3324 14.6126 16.3101 14.545L16.8413 14.3465C16.8533 14.3746 16.8797 14.4526 16.9204 14.5802C16.9615 14.7078 16.9882 14.7963 17.001 14.8453L17.009 14.8425C17.033 14.6188 17.0904 14.4412 17.181 14.3103C17.2713 14.1799 17.3954 14.0847 17.5527 14.0261C17.7802 13.9414 17.9766 13.9595 18.1422 14.0818C18.3079 14.2032 18.4328 14.425 18.5171 14.7468L18.9438 16.3714L18.3877 16.5789Z" fill="#9CA3AF"/>
<path d="M20.869 15.652C20.8574 15.6306 20.8354 15.573 20.8031 15.4806C20.7708 15.3883 20.746 15.3102 20.7297 15.2474L20.7217 15.2502C20.6825 15.6039 20.4945 15.8438 20.1572 15.9699C19.9074 16.0632 19.6838 16.019 19.4866 15.8371C19.2891 15.6558 19.1358 15.3559 19.026 14.938C18.9146 14.5143 18.9003 14.1597 18.9833 13.8756C19.0659 13.5909 19.2388 13.3996 19.5022 13.301C19.6543 13.2444 19.7952 13.233 19.9257 13.2677C20.0559 13.3025 20.1704 13.3834 20.2694 13.5109L20.2734 13.5095L20.1592 13.0902L19.9138 12.1558L20.471 11.9482L21.2462 14.8999C21.2877 15.0575 21.3416 15.2417 21.4086 15.4521L20.869 15.652ZM20.5033 14.3682C20.4307 14.0921 20.3365 13.8946 20.2199 13.7742C20.1034 13.6542 19.97 13.6223 19.8191 13.6785C19.6699 13.7342 19.5777 13.8475 19.5433 14.0193C19.5086 14.1902 19.5297 14.4244 19.6076 14.7205C19.7601 15.3007 19.9824 15.5363 20.2746 15.4273C20.4211 15.3726 20.5149 15.2531 20.5552 15.0694C20.5951 14.8856 20.578 14.6519 20.5033 14.3682Z" fill="#9CA3AF"/>
<path d="M0.59082 12.6178C3.51912 14.9549 7.14197 15.609 10.6447 15.747C13.8105 15.8712 17.0162 15.6147 20.0483 14.5037C23.0804 13.3927 27.8544 8.92833 27.8544 8.92833C26.7818 8.01155 25.6434 6.99244 24.5713 6.0752C21.8741 9.68945 17.8433 11.5868 13.8316 11.8667C9.81999 12.1465 5.81873 10.9285 2.09928 9.0835C1.59672 10.2616 1.09377 11.4397 0.59082 12.6178Z" fill="#E5E7EB"/>
<path d="M15.3542 0.719401C15.9749 0.513294 16.5118 1.34915 17.1565 1.35771C19.5148 1.38913 19.4026 2.68956 19.9702 2.86234C20.5374 3.03513 21.1601 2.99039 21.6763 3.32073C22.1613 3.63108 21.9669 5.22139 22.9584 5.36609C23.4382 5.43606 23.6877 6.10912 23.3775 6.55085C22.9776 7.12062 22.2994 6.54371 21.7409 6.68032C21.0995 6.83692 20.8268 7.86603 20.1914 8.05405C19.8245 8.16258 19.4449 7.95457 19.0673 7.96456C18.4869 7.98027 18.0159 8.49149 17.5373 8.88229C17.1461 9.20168 16.6244 9.4473 16.1969 9.29403C15.8612 9.1736 15.5031 9.15503 15.1563 9.21548C14.4206 9.34258 13.7001 9.59295 13.0223 9.95661C12.802 10.0751 12.5565 9.98232 12.402 9.7605C12.2627 9.56058 12.0156 9.42778 11.7917 9.463C11.4001 9.52441 11.0891 9.86903 10.7514 10.1137C10.4137 10.3584 9.93633 10.4893 9.65292 10.1608C9.65212 9.58962 9.03222 9.31449 8.5608 9.41588C8.08938 9.51727 7.46069 10.2389 7.16571 9.78859C6.0624 8.10451 5.51475 9.41017 4.22663 7.99931C3.59355 7.30626 4.15039 5.71547 5.007 5.64265C4.51842 4.77443 5.02097 3.38975 5.88597 3.22029C6.41128 3.11748 7.03478 3.3688 7.42995 2.94374C7.78482 2.56246 7.75687 1.8023 8.16842 1.51337C8.73723 1.11353 9.38269 2.03173 10.0417 1.98365C10.8385 1.92558 11.2157 0.529478 12.0128 0.500442C12.7125 0.475214 13.1744 1.53907 13.8741 1.54431C14.425 1.54907 14.8226 0.89552 15.3542 0.719401Z" fill="#664A3B"/>
<path d="M20.4043 29.0827C20.8338 28.5389 21.5743 27.7982 22.0853 27.352C22.5959 26.9061 23.195 26.5619 23.838 26.4827C24.5389 26.3967 25.2456 26.6306 25.874 26.989C26.7986 27.5167 27.5806 28.305 28.3516 29.0845C27.2509 29.9327 25.9347 30.3982 24.6021 30.4893C22.3204 30.6449 20.4043 29.0827 20.4043 29.0827Z" fill="#664A3B"/>
<path d="M29.0304 19.7402C28.8788 20.1984 28.6212 20.6259 28.2512 20.8832C27.635 21.3116 26.8498 21.1986 26.1309 21.0951C25.4121 20.9917 24.6072 20.9386 24.042 21.4476C24.1805 20.4177 24.3423 19.3292 24.945 18.5382C25.5331 17.766 26.4463 17.4108 27.3355 17.2254C28.2251 17.0396 29.142 16.9878 30.0003 16.6665C29.6347 17.0359 29.4579 17.5856 29.3535 18.1253C29.2492 18.665 29.2019 19.2225 29.0304 19.7402Z" fill="#10B981"/>
<path d="M26.2104 19.9865C25.5314 20.316 24.8819 20.7211 24.2734 21.1935C25.291 19.6381 27.4443 19.5246 28.5169 18.0164C28.371 18.5537 27.9932 18.9781 27.569 19.2756C27.1448 19.5731 26.6696 19.7635 26.2104 19.9865Z" fill="#6EE7B7"/>
<path d="M25.8819 18.9126C25.4805 19.547 25.0791 20.181 24.6777 20.8154C25.2694 20.3856 25.6301 19.6518 25.8819 18.9126Z" fill="#6EE7B7"/>
<path d="M27.0749 18.177C26.8625 18.7679 26.552 19.3136 26.1641 19.7782L26.5594 19.6051C26.6299 19.5292 26.7203 19.3168 26.8275 19.1122C26.9783 18.8238 27.1229 18.507 27.0749 18.177Z" fill="#6EE7B7"/>
<path d="M26.4881 19.6486C26.4596 19.6473 26.4278 19.6605 26.414 19.6889C26.3862 19.7471 26.4645 19.7947 26.5232 19.8029C26.8333 19.8468 27.1475 19.8908 27.4572 19.8441C27.7669 19.7969 28.1235 19.7027 28.3142 19.4248C27.6222 19.672 27.1039 19.677 26.4881 19.6486Z" fill="#6EE7B7"/>
<path d="M27.694 20.3289C26.9377 20.4053 26.172 20.365 25.4258 20.208L25.3496 20.4543C25.9894 20.6648 27.0534 20.538 27.694 20.3289Z" fill="#6EE7B7"/>
<path d="M23.8661 18.6924C23.4146 17.7321 22.5075 17.115 21.5616 16.8894C20.6158 16.6637 19.6304 16.7873 18.6846 17.0125C19.1381 17.1727 19.4633 17.6337 19.6418 18.1285C19.8203 18.6233 19.879 19.1602 19.9752 19.6829C20.0717 20.2057 20.2164 20.7376 20.531 21.1376C20.9768 21.7043 21.7006 21.9112 22.3718 21.8535C23.0429 21.7959 23.6795 21.5093 24.3034 21.226C24.2691 20.3595 24.2268 19.4596 23.8661 18.6924Z" fill="#10B981"/>
<path d="M21.9799 19.272C21.5662 18.6953 21.2251 17.9697 20.6021 17.7285C21.197 18.3263 21.5642 19.1512 22.0508 19.8616C22.5373 20.5724 23.2415 21.2114 24.0382 21.1593C23.2941 20.6113 22.5377 20.0502 21.9799 19.272Z" fill="#6EE7B7"/>
<path d="M22.6649 18.4204C22.6283 18.8113 22.5916 19.2054 22.6303 19.5959C22.6686 19.9863 22.7884 20.3777 23.0284 20.6642C23.0166 20.3946 22.9693 20.1287 22.9221 19.8641C22.8361 19.3826 22.7505 18.9015 22.6649 18.4204Z" fill="#6EE7B7"/>
<path d="M21.7299 19.3713C21.7726 19.4733 21.9267 19.4166 21.9568 19.309C21.9866 19.2015 21.769 17.8186 21.5962 17.6946C21.6406 18.253 21.685 18.8124 21.7299 19.3713Z" fill="#6EE7B7"/>
<path d="M21.8491 19.5689C21.9009 19.5616 21.9596 19.5465 21.9852 19.4948C22.0142 19.4371 21.9824 19.3598 21.9331 19.3241C21.8833 19.2879 21.8214 19.2819 21.7627 19.2774C21.3605 19.2444 20.9579 19.2115 20.5557 19.179C20.92 19.4907 21.3947 19.6339 21.8491 19.5689Z" fill="#6EE7B7"/>
<path d="M21.0308 20.2114C21.5756 20.5666 22.2472 20.6682 22.8564 20.4888C22.8377 20.4238 22.8189 20.3588 22.7998 20.2938C22.2101 20.2664 21.6204 20.2389 21.0308 20.2114Z" fill="#6EE7B7"/>
<path d="M24.7211 27.0917C25.0443 26.9677 25.1058 26.4934 25.1123 26.1099C25.1278 25.1628 25.1433 24.2116 25.0328 23.2723C24.9224 22.3331 24.6807 21.3993 24.2186 20.6069C24.0259 20.8033 23.9521 21.1123 23.9574 21.4048C23.9627 21.6973 24.0369 21.9811 24.0972 22.2653C24.4053 23.7246 24.3433 25.28 23.9199 26.7022C24.1404 26.9425 24.4301 27.2029 24.7211 27.0917Z" fill="#10B981"/>
</svg>
