<svg width="200" height="200" viewBox="0 0 200 200" fill="none" xmlns="http://www.w3.org/2000/svg">
<g clip-path="url(#clip0_1506_17827)">
<rect width="200" height="200" fill="white"/>
<path d="M16.4055 131.385C16.4055 131.385 17.2691 122.747 24.7395 107.058C31.4971 92.8676 36.2271 86.5608 36.2271 86.5608L67.9871 110.099L42.9847 146.252L16.4055 131.385Z" fill="#FCA5A5"/>
<path d="M170.024 85.2092C170.024 85.2092 184.44 119.447 185.341 126.655L161.916 143.774L146.374 107.284L170.024 85.2092Z" fill="#FCA5A5"/>
<path d="M90.5121 61.3333L68.6381 62.2681C62.8233 62.5165 57.1693 64.2805 52.2749 67.4297C46.8637 70.9117 40.1453 76.8105 33.2993 86.7861L60.7797 112.014L73.3937 180.714H167.547L149.753 108.185L172.278 85.8849C172.278 85.8849 167.998 67.8653 149.528 62.0085C131.057 56.1525 90.5121 61.3333 90.5121 61.3333Z" fill="#065F46"/>
<path d="M167.547 180.714L149.753 108.185C140.292 108.298 130.494 87.8001 130.494 87.8001L127.49 87.9341L124.75 58.4053H120.696L123.452 88.1141L83.8654 89.8793L81.1646 60.7705H77.1102L79.8278 90.0593L77.4482 90.1653C74.0694 106.383 60.7798 112.014 60.7798 112.014L65.2846 166.524L65.9602 180.377H73.3314L73.3934 180.715H167.547V180.714Z" fill="#022C22"/>
<path d="M90.2869 55.4768L85.9321 63.5856C84.9637 65.164 84.1577 66.6448 84.3977 68.4808C85.0525 73.4888 89.0853 84.158 101.399 83.8576C113.448 83.5636 117.166 74.0968 117.165 66.7564C117.165 64.5988 116.858 63.4304 115.665 61.6332L111.235 53.4492L90.2869 55.4768Z" fill="#FCA5A5"/>
<path d="M98.8832 36.3993C102.793 36.3993 105.963 33.2294 105.963 29.3193C105.963 25.4091 102.793 22.2393 98.8832 22.2393C94.973 22.2393 91.8032 25.4091 91.8032 29.3193C91.8032 33.2294 94.973 36.3993 98.8832 36.3993Z" fill="#CA8A04"/>
<path d="M86.2004 49.6361C86.2004 49.6361 87.526 66.2377 99.4092 65.9509C112.078 66.0125 112.058 52.4065 112.058 49.2665C112.058 45.3781 109.657 34.3105 98.852 34.3985C87.4932 34.4909 86.2004 44.6489 86.2004 49.6361Z" fill="#FCA5A5"/>
<path d="M111.504 55.7924L111.873 47.05C111.873 47.05 114.213 45.6956 115.075 48.5276C115.937 51.3596 114.09 55.7924 111.504 55.7924Z" fill="#F87171"/>
<path d="M87.5369 55.7044L86.7813 46.9868C86.7813 46.9868 84.3841 45.7372 83.6485 48.6044C82.9125 51.472 84.9537 55.8188 87.5369 55.7044Z" fill="#F87171"/>
<path d="M113.418 40.1681C112.537 38.0625 111.027 36.2925 109.541 34.5597C108.555 33.4105 107.525 32.2277 106.151 31.5925C102.873 30.0777 99.0749 32.1657 95.4697 31.9581C94.7965 31.9193 94.1205 31.7993 93.4525 31.8913C91.4925 32.1609 90.2425 34.0901 88.5217 35.0669C87.8961 35.4221 87.1965 35.6557 86.6313 36.1005C85.7381 36.8033 85.3389 37.9073 85.1545 38.9933C84.7429 41.4189 85.5149 43.9317 84.7841 46.3121C84.3613 47.6889 85.2117 52.1541 86.3973 54.0853C86.2273 54.8253 86.0573 55.5745 86.0977 56.3381C86.1485 57.2985 86.6189 58.3121 87.5069 58.6825C87.3933 57.5561 87.2801 56.4145 87.4569 55.2961C87.5729 54.5641 87.8133 53.8553 87.8949 53.1173C87.9021 53.0509 87.9105 52.9597 87.9173 52.8549C88.4025 51.4225 88.8129 49.2445 88.3557 46.4341C88.3557 46.4341 89.5869 47.9117 94.0197 46.9265C98.4525 45.9413 99.8069 45.9413 102.516 46.6801C105.225 47.4189 109.288 45.8181 109.288 45.8181C109.288 45.8181 109.214 49.1061 110.52 50.9665C110.924 52.1953 111.529 53.3341 111.663 54.6485C111.784 55.8317 111.58 56.9273 111.301 58.0677C112.502 57.4973 113.197 55.9249 113.109 54.6517C113.035 53.5945 112.529 52.6313 112.259 51.6201C112.25 51.5881 112.245 51.5569 112.237 51.5249C112.585 50.7057 112.961 49.8825 113.22 49.0409C113.387 48.4965 113.491 47.8697 113.533 47.3029C113.585 46.6117 113.696 46.0493 113.885 45.3769C114.366 43.6645 114.097 41.7901 113.418 40.1681Z" fill="#EAB308"/>
<path d="M105.128 54.1254C105.128 54.6922 104.669 55.1514 104.102 55.1514C103.535 55.1514 103.076 54.6922 103.076 54.1254C103.076 53.5586 103.535 53.0994 104.102 53.0994C104.669 53.0994 105.128 53.5586 105.128 54.1254Z" fill="#030712"/>
<path d="M96.719 54.2753C96.719 54.8421 96.2598 55.3013 95.693 55.3013C95.1266 55.3013 94.667 54.8421 94.667 54.2753C94.667 53.7085 95.1262 53.2493 95.693 53.2493C96.2594 53.2493 96.719 53.7089 96.719 54.2753Z" fill="#030712"/>
<path d="M98.1609 59.8853L98.7861 53.6349C98.8085 53.4153 99.0013 53.2557 99.2241 53.2765C99.4437 53.2985 99.6041 53.4945 99.5821 53.7145L99.0809 58.7265L101.195 58.0057C101.404 57.9337 101.632 58.0465 101.703 58.2553C101.774 58.4645 101.662 58.6917 101.453 58.7629L98.1609 59.8853Z" fill="#030712"/>
<path d="M100.674 62.1757C99.4265 62.1757 98.4277 61.6301 98.4109 61.6205C98.3145 61.5665 98.2801 61.4449 98.3341 61.3485C98.3881 61.2521 98.5093 61.2173 98.6061 61.2713C98.7153 61.3321 101.309 62.7405 103.203 60.6365C103.277 60.5541 103.404 60.5481 103.485 60.6217C103.567 60.6957 103.574 60.8221 103.5 60.9041C102.613 61.8889 101.579 62.1757 100.674 62.1757Z" fill="#030712"/>
<path d="M91.8646 51.3461C91.6278 51.3461 91.403 51.2053 91.3082 50.9725C91.1834 50.6657 91.3298 50.3161 91.6362 50.1909C91.7462 50.1457 94.3562 49.0993 96.6882 49.9577C96.999 50.0725 97.1582 50.4173 97.0438 50.7281C96.929 51.0393 96.5838 51.1981 96.2734 51.0837C94.385 50.3873 92.1122 51.2921 92.0894 51.3013C92.0162 51.3321 91.9398 51.3461 91.8646 51.3461Z" fill="#030712"/>
<path d="M103.127 51.0085C102.89 51.0085 102.666 50.8673 102.571 50.6349C102.446 50.3281 102.593 49.9785 102.899 49.8533C103.009 49.8085 105.621 48.7625 107.951 49.6201C108.262 49.7349 108.421 50.0797 108.307 50.3905C108.193 50.7021 107.847 50.8609 107.536 50.7461C105.647 50.0497 103.375 50.9545 103.352 50.9641C103.279 50.9941 103.202 51.0085 103.127 51.0085Z" fill="#030712"/>
<path d="M137.761 122.375H67.5896C65.6944 122.375 64.158 120.839 64.158 118.944V89.7668C64.158 87.8716 65.6944 86.3352 67.5896 86.3352H137.761C139.656 86.3352 141.193 87.8716 141.193 89.7668V118.944C141.193 120.839 139.656 122.375 137.761 122.375Z" fill="#EAB308"/>
<path d="M135.223 95.1205H121.033C119.477 95.1205 118.217 93.8597 118.217 92.3049C118.217 90.7501 119.477 89.4893 121.033 89.4893H135.223C136.779 89.4893 138.039 90.7501 138.039 92.3049C138.039 93.8597 136.779 95.1205 135.223 95.1205Z" fill="#030712"/>
<path d="M136.688 92.1921C136.688 93.1385 135.921 93.9057 134.974 93.9057C134.028 93.9057 133.261 93.1385 133.261 92.1921C133.261 91.2457 134.028 90.4785 134.974 90.4785C135.921 90.4785 136.688 91.2457 136.688 92.1921Z" fill="white"/>
<path d="M132.183 92.1921C132.183 93.1385 131.415 93.9057 130.469 93.9057C129.523 93.9057 128.755 93.1385 128.755 92.1921C128.755 91.2457 129.523 90.4785 130.469 90.4785C131.415 90.4785 132.183 91.2457 132.183 92.1921Z" fill="white"/>
<path d="M127.678 92.1921C127.678 93.1385 126.911 93.9057 125.964 93.9057C125.018 93.9057 124.251 93.1385 124.251 92.1921C124.251 91.2457 125.018 90.4785 125.964 90.4785C126.911 90.4785 127.678 91.2457 127.678 92.1921Z" fill="white"/>
<path d="M166.42 111.788L183.989 120.798C183.989 120.798 190.634 129.245 185.904 139.832C181.173 150.419 173.403 150.644 165.744 148.054C160.095 146.143 151.779 135.214 151.779 135.214L166.42 111.788Z" fill="#FCA5A5"/>
<path d="M181.287 119.647C181.257 119.647 181.226 119.64 181.197 119.626L168.583 113.318C168.484 113.269 168.444 113.149 168.493 113.05C168.543 112.952 168.663 112.911 168.762 112.96L181.376 119.267C181.475 119.317 181.515 119.437 181.465 119.536C181.431 119.606 181.36 119.647 181.287 119.647Z" fill="#022C22"/>
<path d="M170.683 118.885C170.683 118.885 168.82 107.429 154.708 93.3184C153.479 92.0904 149.016 84.4732 146.599 82.056C142.544 78.0016 134.935 79.0576 129.101 79.2476C125.876 79.3528 124.963 80.4112 124.299 82.2812C123.716 83.9256 125.313 85.7964 126.777 86.5608L138.715 86.3356C141.044 86.9112 143.648 92.2456 144.348 94.5404L145.931 99.734C145.931 99.734 134.096 98.0612 131.814 97.7564C130.17 97.5372 123.676 101.894 120.173 104.348C118.842 105.28 118.276 107.027 118.81 108.557C119.428 110.327 121.3 111.211 123.034 110.55L132.633 106.895L138.471 107.956L131.969 109.44L123.764 114.841C122.097 115.938 121.555 118.212 122.556 119.91C123.537 121.575 125.64 122.069 127.292 121.023L134.806 116.262L140.67 116.574L135.946 118.436L127.998 124.026C126.599 125.01 126.207 126.974 127.129 128.381L127.174 128.45C128.035 129.762 129.742 130.124 131.091 129.28L133.934 127.5C135.586 126.466 137.622 126.486 139.182 127.554C144.076 130.904 151.977 139.404 157.964 137.881L170.683 118.885Z" fill="#FCA5A5"/>
<path d="M129.821 83.8328H127.34C126.077 83.8328 125.801 83.392 125.566 81.976C125.486 81.4976 125.564 81.1016 125.797 80.7992C126.152 80.34 126.734 80.2824 126.758 80.28L129.314 80.0364L129.821 83.8328ZM128.969 80.4712L126.795 80.6784C126.791 80.6788 126.358 80.7256 126.112 81.0464C125.951 81.2572 125.9 81.548 125.96 81.9104C126.181 83.2336 126.361 83.4328 127.339 83.4328H129.363L128.969 80.4712Z" fill="#022C22"/>
<path d="M120.961 108.472C120.435 108.472 120.081 108.101 119.584 107.34C119.337 106.962 119.255 106.594 119.341 106.248C119.472 105.722 119.948 105.454 119.967 105.443L122.056 104.278L123.659 107.185L123.515 107.288C123.484 107.311 122.748 107.834 121.789 108.255C121.461 108.399 121.194 108.472 120.961 108.472ZM121.899 104.824L120.161 105.793C120.158 105.795 119.815 105.992 119.729 106.348C119.672 106.581 119.736 106.841 119.919 107.121C120.589 108.147 120.813 108.248 121.628 107.889C122.304 107.592 122.877 107.234 123.135 107.064L121.899 104.824Z" fill="#022C22"/>
<path d="M124.866 119.284C124.34 119.284 123.986 118.912 123.488 118.152C123.242 117.774 123.16 117.406 123.246 117.06C123.376 116.534 123.852 116.266 123.872 116.255L125.96 115.09L127.563 117.996L127.419 118.1C127.388 118.122 126.653 118.646 125.694 119.067C125.366 119.211 125.099 119.284 124.866 119.284ZM125.804 115.636L124.066 116.605C124.062 116.607 123.72 116.804 123.633 117.16C123.576 117.393 123.64 117.653 123.823 117.933C124.493 118.959 124.716 119.06 125.532 118.701C126.21 118.404 126.781 118.046 127.039 117.875L125.804 115.636Z" fill="#022C22"/>
<path d="M129.07 128.219C128.544 128.219 128.19 127.848 127.693 127.086C127.446 126.708 127.364 126.341 127.45 125.995C127.581 125.469 128.056 125.201 128.076 125.19L130.164 124.026L131.767 126.932L131.623 127.035C131.592 127.058 130.857 127.581 129.898 128.002C129.57 128.146 129.303 128.219 129.07 128.219ZM130.008 124.571L128.27 125.54C128.267 125.542 127.924 125.738 127.837 126.094C127.78 126.328 127.845 126.588 128.028 126.868C128.698 127.893 128.922 127.994 129.737 127.636C130.415 127.338 130.986 126.98 131.244 126.81L130.008 124.571Z" fill="#022C22"/>
<path d="M151.217 100.839C151.206 100.839 151.194 100.838 151.183 100.836L145.897 99.9308C145.788 99.9124 145.715 99.8088 145.734 99.7C145.752 99.5908 145.857 99.5184 145.964 99.5368L151.25 100.442C151.359 100.46 151.432 100.564 151.414 100.672C151.397 100.77 151.312 100.839 151.217 100.839Z" fill="#022C22"/>
<path d="M135.674 108.722C135.584 108.722 135.503 108.662 135.48 108.572C135.453 108.465 135.518 108.356 135.624 108.329L144.409 106.076C144.515 106.049 144.625 106.114 144.652 106.22C144.68 106.327 144.615 106.436 144.508 106.463L135.724 108.716C135.707 108.72 135.69 108.722 135.674 108.722Z" fill="#022C22"/>
<path d="M138.603 117.395C138.519 117.395 138.44 117.341 138.413 117.257C138.378 117.152 138.436 117.039 138.54 117.005L145.748 114.64C145.853 114.604 145.966 114.662 146 114.767C146.035 114.872 145.978 114.985 145.873 115.019L138.665 117.384C138.644 117.392 138.623 117.395 138.603 117.395Z" fill="#022C22"/>
<path d="M170.363 122.8C170.358 122.8 170.353 122.8 170.348 122.8C170.238 122.792 170.155 122.696 170.163 122.586C170.715 115.086 166.409 108.36 166.366 108.294C166.306 108.201 166.332 108.077 166.424 108.017C166.516 107.957 166.64 107.983 166.7 108.076C166.745 108.144 171.124 114.978 170.562 122.616C170.554 122.72 170.466 122.8 170.363 122.8Z" fill="#022C22"/>
<path d="M57.8512 120.911C57.8512 120.911 47.2068 144.022 39.636 149.234C29.2992 156.35 16.402 150.876 15.2604 138.41C14.1076 125.816 40.6196 97.936 40.6196 97.936L57.8512 120.911Z" fill="#FCA5A5"/>
<path d="M37.804 101.202C37.804 101.202 44.336 92.4173 62.356 84.3085C67.56 81.9665 86.438 80.7409 94.2828 80.3901C96.1568 80.3065 97.72 81.8029 97.72 83.6789C97.72 85.3289 96.4984 86.7241 94.8632 86.9421L70.6904 90.1653L67.5368 91.9673C67.5368 91.9673 79.2496 94.2197 81.502 94.6701C83.1248 94.9945 87.7868 100.93 90.2668 104.224C91.2092 105.476 91.1584 107.212 90.1436 108.406C88.9692 109.787 86.9084 109.982 85.4956 108.846L77.6724 102.554L71.816 101.653L77.4472 105.032L83.3724 112.438C84.5764 113.944 84.3268 116.141 82.8152 117.338C81.3336 118.511 79.186 118.286 77.9796 116.831L72.4912 110.212L66.86 108.636L70.6892 111.789L76.3096 119.283C77.2988 120.602 77.0108 122.477 75.6712 123.438L75.6052 123.485C74.3552 124.382 72.6252 124.164 71.6368 122.986L69.5528 120.501C68.3424 119.058 66.4168 118.431 64.5896 118.889C58.8568 120.326 48.5676 125.401 43.4344 122.15L37.804 101.202Z" fill="#FCA5A5"/>
<path d="M92.6521 84.8461C92.6069 84.8461 92.5629 84.8309 92.5269 84.8021C92.4833 84.7673 92.4565 84.7161 92.4525 84.6601L92.2269 81.5065C92.2229 81.4533 92.2409 81.4005 92.2761 81.3605C92.3113 81.3201 92.3613 81.2957 92.4149 81.2925L94.3285 81.1801C94.3817 81.1765 95.0445 81.1405 95.5545 81.5805C95.8893 81.8693 96.0789 82.2893 96.1173 82.8293C96.1617 83.4477 96.0321 83.9089 95.7325 84.2005C95.4181 84.5057 95.0229 84.5145 94.9137 84.5085L92.6817 84.8433C92.6717 84.8457 92.6621 84.8461 92.6521 84.8461ZM92.6405 81.6805L92.8361 84.4165L94.8749 84.1105C94.8913 84.1081 94.9081 84.1081 94.9245 84.1093C94.9345 84.1105 95.2325 84.1325 95.4573 83.9105C95.6657 83.7045 95.7537 83.3505 95.7185 82.8585C95.6237 81.5293 94.4853 81.5697 94.3557 81.5797C94.3549 81.5797 94.3537 81.5797 94.3529 81.5797L92.6405 81.6805Z" fill="#022C22"/>
<path d="M87.8032 108.061C87.74 108.061 87.678 108.056 87.6164 108.045C87.1848 107.971 86.9464 107.656 86.8852 107.565L85.3012 105.957C85.262 105.917 85.2412 105.863 85.2436 105.807C85.246 105.752 85.272 105.7 85.3144 105.664L87.7312 103.626C87.772 103.591 87.8244 103.575 87.8784 103.579C87.9316 103.584 87.9808 103.61 88.0148 103.652L89.232 105.132C89.2652 105.172 89.6852 105.686 89.63 106.359C89.594 106.8 89.3656 107.2 88.9516 107.549C88.5484 107.889 88.1632 108.061 87.8032 108.061ZM85.7376 105.83L87.1848 107.299C87.1964 107.31 87.2068 107.324 87.2152 107.338C87.2208 107.348 87.3776 107.601 87.6896 107.652C87.9788 107.7 88.3168 107.562 88.694 107.244C89.7124 106.384 89.0096 105.488 88.926 105.389C88.9256 105.388 88.9244 105.388 88.924 105.387L87.8344 104.062L85.7376 105.83Z" fill="#022C22"/>
<path d="M80.9335 116.508C80.8703 116.508 80.8083 116.502 80.7467 116.492C80.3151 116.418 80.0771 116.102 80.0155 116.011L78.4311 114.404C78.3919 114.364 78.3711 114.31 78.3735 114.254C78.3759 114.198 78.4019 114.146 78.4443 114.111L80.8611 112.072C80.9019 112.037 80.9539 112.022 81.0083 112.026C81.0615 112.031 81.1107 112.057 81.1447 112.098L82.3619 113.579C82.3951 113.619 82.8151 114.133 82.7599 114.806C82.7239 115.246 82.4955 115.647 82.0815 115.996C81.6783 116.336 81.2931 116.508 80.9335 116.508ZM78.8675 114.277L80.3147 115.745C80.3263 115.757 80.3367 115.77 80.3451 115.784C80.3507 115.794 80.5075 116.047 80.8195 116.098C81.1095 116.147 81.4463 116.008 81.8239 115.69C82.8423 114.831 82.1395 113.935 82.0559 113.836C82.0551 113.835 82.0543 113.834 82.0539 113.834L80.9643 112.508L78.8675 114.277Z" fill="#022C22"/>
<path d="M73.838 122.589C73.7748 122.589 73.7124 122.584 73.6512 122.573C73.2196 122.499 72.9816 122.184 72.92 122.093L71.3356 120.485C71.2964 120.446 71.2756 120.392 71.278 120.336C71.2804 120.28 71.3064 120.228 71.3488 120.192L73.7656 118.154C73.8064 118.119 73.8592 118.104 73.9128 118.108C73.966 118.113 74.0152 118.138 74.0492 118.18L75.2664 119.661C75.3008 119.702 75.7196 120.216 75.6644 120.887C75.6284 121.328 75.4 121.728 74.986 122.078C74.5832 122.418 74.1976 122.589 73.838 122.589ZM71.7724 120.359L73.2196 121.827C73.2312 121.838 73.2416 121.852 73.25 121.866C73.2556 121.876 73.4124 122.129 73.7244 122.18C74.0136 122.229 74.3512 122.09 74.7288 121.772C75.7472 120.913 75.0444 120.017 74.9608 119.918C74.9604 119.917 74.9592 119.916 74.9588 119.915L73.8692 118.59L71.7724 120.359Z" fill="#022C22"/>
<path d="M52.6269 122.3C51.3865 122.3 50.1025 122.126 48.8829 121.661C48.7797 121.622 48.7281 121.506 48.7673 121.403C48.8065 121.299 48.9213 121.247 49.0257 121.287C53.6193 123.036 59.3993 120.418 59.4573 120.391C59.5585 120.345 59.6761 120.389 59.7229 120.489C59.7693 120.589 59.7253 120.708 59.6249 120.755C59.4441 120.838 56.2217 122.3 52.6269 122.3Z" fill="#022C22"/>
<path d="M72.8299 102.529C72.7963 102.529 72.7619 102.52 72.7303 102.502L67.4371 99.4614C67.3415 99.4062 67.3083 99.2842 67.3631 99.1882C67.4179 99.0922 67.5399 99.0594 67.6363 99.1142L72.9295 102.155C73.0251 102.21 73.0583 102.332 73.0035 102.428C72.9667 102.493 72.8991 102.529 72.8299 102.529Z" fill="#022C22"/>
<path d="M69.2265 92.5048C69.2113 92.5048 69.1961 92.5032 69.1809 92.4996L63.8877 91.2608C63.7801 91.2356 63.7133 91.128 63.7385 91.0204C63.7633 90.9128 63.8713 90.8464 63.9785 90.8712L69.2717 92.11C69.3793 92.1352 69.4461 92.2428 69.4209 92.3504C69.3997 92.4424 69.3173 92.5048 69.2265 92.5048Z" fill="#022C22"/>
<path d="M67.5363 109.398C67.4911 109.398 67.4459 109.383 67.4083 109.352L64.0295 106.536C63.9447 106.465 63.9331 106.339 64.0039 106.254C64.0747 106.17 64.2003 106.158 64.2859 106.229L67.6647 109.044C67.7495 109.115 67.7611 109.241 67.6903 109.326C67.6507 109.374 67.5939 109.398 67.5363 109.398Z" fill="#022C22"/>
<path d="M30.6711 109.436C30.6235 109.436 30.5759 109.419 30.5375 109.385C30.4551 109.311 30.4483 109.185 30.5219 109.102C30.9947 108.575 42.1043 96.169 42.8595 95.565C43.6079 94.9662 50.2487 90.4898 50.5311 90.2998C50.6227 90.2382 50.7467 90.2622 50.8088 90.3538C50.8703 90.4454 50.8463 90.5698 50.7547 90.6314C50.6859 90.6778 43.8455 95.2886 43.1095 95.8778C42.5259 96.3446 34.8155 104.907 30.8199 109.37C30.7807 109.413 30.7263 109.436 30.6711 109.436Z" fill="#022C22"/>
<path d="M199.757 176.307H0.0288086V200H199.757V176.307Z" fill="#CA8A04"/>
<path d="M39.9439 172.831V169.227C39.9439 164.624 43.6751 160.893 48.2779 160.893C52.8807 160.893 56.6119 164.624 56.6119 169.227V173.281C56.6119 173.281 38.8175 172.831 39.9439 172.831Z" fill="#065F46"/>
<path d="M58.2827 187.922H38.0483C36.7315 187.922 35.6643 186.855 35.6643 185.538V172.512C35.6643 171.195 36.7315 170.128 38.0483 170.128H58.2827C59.5995 170.128 60.6667 171.196 60.6667 172.512V185.538C60.6667 186.855 59.5991 187.922 58.2827 187.922Z" fill="white"/>
<path d="M170.325 170.353C170.072 170.439 174.344 167.554 175.748 165.131C173.293 165.747 170.912 166.663 168.677 167.851C172.803 166.174 176.153 162.681 177.655 158.488C173.331 159.71 169.427 162.374 166.712 165.955C170.217 162.309 171.979 157.057 171.383 152.034C169.395 152.51 168.01 154.287 166.977 156.052C165.191 159.101 163.953 162.468 163.337 165.947C163.727 162.874 164.119 159.779 163.924 156.688C163.729 153.597 162.91 150.473 161.085 147.971C158.881 153.564 158.045 159.69 158.67 165.669C158.413 160.779 156.51 155.989 153.341 152.257C151.951 154.635 151.785 157.576 152.338 160.275C152.89 162.974 154.103 165.487 155.346 167.945C154.1 163.514 149.775 160.139 145.173 160.01C146.641 164.466 149.811 168.339 153.89 170.657L170.325 170.353Z" fill="#065F46"/>
<path d="M173.883 191.189H147.294C145.977 191.189 144.91 190.121 144.91 188.805V171.255C144.91 169.939 145.977 168.871 147.294 168.871H173.883C175.2 168.871 176.267 169.939 176.267 171.255V188.805C176.267 190.121 175.199 191.189 173.883 191.189Z" fill="#F3F4F6"/>
<path d="M81.4542 158.643C73.241 154.026 67.9098 145.711 62.9126 137.724C61.897 136.1 60.8562 134.407 60.6354 132.505C60.4146 130.603 61.2698 128.431 63.0642 127.764C64.995 127.046 67.1079 128.289 68.5398 129.769C69.9719 131.25 71.1602 133.068 73.0066 133.982C76.0846 135.504 79.9486 134.022 83.1334 135.306C87.1034 136.907 88.2871 141.879 91.0779 145.125C93.0206 147.384 95.7522 148.786 98.093 150.63C104.155 155.406 107.453 163.468 106.476 171.124L99.4991 170.825L81.4542 158.643Z" fill="#A7F3D0"/>
<path d="M61.3664 128.734L61.157 128.949L104.394 171.117L104.604 170.903L61.3664 128.734Z" fill="#022C22"/>
<path d="M68.9157 136.378L62.8818 137.579L62.9404 137.873L68.9743 136.673L68.9157 136.378Z" fill="#022C22"/>
<path d="M73.1613 133.966L72.8633 134L73.6267 140.648L73.9248 140.614L73.1613 133.966Z" fill="#022C22"/>
<path d="M82.9871 135.304L82.9111 149.919L83.2111 149.92L83.2871 135.306L82.9871 135.304Z" fill="#022C22"/>
<path d="M81.0622 148.352L71.95 150.32L72.0132 150.613L81.1255 148.645L81.0622 148.352Z" fill="#022C22"/>
<path d="M93.2738 159.929L93.095 147.243L93.395 147.239L93.5738 159.925L93.2738 159.929Z" fill="#022C22"/>
<path d="M119.522 171.641C120.018 167.924 121.579 164.356 123.971 161.469C126.505 158.411 130.103 155.799 130.73 151.877C130.976 150.339 130.717 148.766 130.813 147.211C130.98 144.516 132.194 142.017 133.039 139.452C133.883 136.887 134.331 133.952 133.041 131.58C131.751 129.207 128.12 128.073 126.269 130.038C125.299 131.069 125.084 132.572 124.565 133.889C123.255 137.207 120.033 139.284 117.163 141.402C114.293 143.521 111.386 146.318 111.271 149.883C111.203 151.955 112.117 153.977 111.979 156.045C111.853 157.936 110.868 159.643 110.219 161.423C109.005 164.747 108.969 168.488 110.117 171.835L119.522 171.641Z" fill="#A7F3D0"/>
<path d="M129.921 129.309L111.707 171.484L111.982 171.603L130.196 129.428L129.921 129.309Z" fill="#022C22"/>
<path d="M133.407 137.444L125.01 140.305L125.106 140.59L133.504 137.729L133.407 137.444Z" fill="#022C22"/>
<path d="M120.732 138.973L120.45 139.077L122.952 145.867L123.233 145.763L120.732 138.973Z" fill="#022C22"/>
<path d="M130.7 151.746L119.121 154.247L119.184 154.54L130.763 152.039L130.7 151.746Z" fill="#022C22"/>
<path d="M111.79 147.528L111.528 147.674L117.425 158.216L117.687 158.07L111.79 147.528Z" fill="#022C22"/>
<path d="M113.894 171.155C112.785 167.683 113.169 163.761 114.93 160.569C115.767 159.051 116.897 157.696 117.589 156.107C118.883 153.135 118.468 149.592 116.942 146.733C116.063 145.086 114.821 143.579 114.442 141.751C113.861 138.947 115.434 136.195 115.937 133.376C116.533 130.031 115.521 126.436 113.267 123.894C112.551 123.086 111.715 122.375 111.122 121.473C110.04 119.828 109.893 117.765 109.406 115.857C108.919 113.949 107.815 111.922 105.896 111.482C103.496 110.932 101.318 113.202 100.517 115.53C99.7167 117.859 99.6951 120.44 98.5975 122.643C97.1175 125.615 93.7515 127.822 93.7267 131.142C93.7119 133.132 94.9547 134.885 95.5643 136.779C97.1135 141.595 94.4923 146.66 93.9255 151.686C93.1071 158.94 97.0807 166.504 103.518 169.946L113.894 171.155Z" fill="#065F46"/>
<mask id="mask0_1506_17827" style="mask-type:luminance" maskUnits="userSpaceOnUse" x="93" y="111" width="26" height="61">
<path d="M113.894 171.155C112.785 167.683 113.169 163.761 114.93 160.569C115.767 159.051 116.897 157.696 117.589 156.107C118.883 153.135 118.468 149.592 116.942 146.733C116.063 145.086 114.821 143.579 114.442 141.751C113.861 138.947 115.434 136.195 115.937 133.376C116.533 130.031 115.521 126.436 113.267 123.894C112.551 123.086 111.715 122.375 111.122 121.473C110.04 119.828 109.893 117.765 109.406 115.857C108.919 113.949 107.815 111.922 105.896 111.482C103.496 110.932 101.318 113.202 100.517 115.53C99.7167 117.859 99.6951 120.44 98.5975 122.643C97.1175 125.615 93.7515 127.822 93.7267 131.142C93.7119 133.132 94.9547 134.885 95.5643 136.779C97.1135 141.595 94.4923 146.66 93.9255 151.686C93.1071 158.94 97.0807 166.504 103.518 169.946L113.894 171.155Z" fill="white"/>
</mask>
<g mask="url(#mask0_1506_17827)">
<path d="M106.208 171.928L104.709 110.795L105.009 110.787L106.508 171.921L106.208 171.928Z" fill="#022C22"/>
</g>
<mask id="mask1_1506_17827" style="mask-type:luminance" maskUnits="userSpaceOnUse" x="93" y="111" width="26" height="61">
<path d="M113.894 171.155C112.785 167.683 113.169 163.761 114.93 160.569C115.767 159.051 116.897 157.696 117.589 156.107C118.883 153.135 118.468 149.592 116.942 146.733C116.063 145.086 114.821 143.579 114.442 141.751C113.861 138.947 115.434 136.195 115.937 133.376C116.533 130.031 115.521 126.436 113.267 123.894C112.551 123.086 111.715 122.375 111.122 121.473C110.04 119.828 109.893 117.765 109.406 115.857C108.919 113.949 107.815 111.922 105.896 111.482C103.496 110.932 101.318 113.202 100.517 115.53C99.7167 117.859 99.6951 120.44 98.5975 122.643C97.1175 125.615 93.7515 127.822 93.7267 131.142C93.7119 133.132 94.9547 134.885 95.5643 136.779C97.1135 141.595 94.4923 146.66 93.9255 151.686C93.1071 158.94 97.0807 166.504 103.518 169.946L113.894 171.155Z" fill="white"/>
</mask>
<g mask="url(#mask1_1506_17827)">
<path d="M105.338 126.423L105.095 126.247L110.277 119.101L110.52 119.277L105.338 126.423Z" fill="#022C22"/>
</g>
<mask id="mask2_1506_17827" style="mask-type:luminance" maskUnits="userSpaceOnUse" x="88" y="113" width="55" height="39">
<path d="M142.788 141.693C139.301 140.623 136.301 138.074 134.69 134.815C133.923 133.265 133.459 131.568 132.55 130.096C130.852 127.345 127.705 125.666 124.483 125.286C122.627 125.067 120.678 125.226 118.961 124.495C116.326 123.373 114.967 120.517 112.941 118.5C110.536 116.107 107.005 114.887 103.626 115.283C102.553 115.409 101.49 115.688 100.409 115.66C98.4386 115.608 96.6607 114.554 94.8155 113.865C92.97 113.176 90.6734 112.925 89.2124 114.245C87.3857 115.896 88.0012 118.972 89.4539 120.954C90.9067 122.935 93.0135 124.424 94.1938 126.577C95.7858 129.481 95.6686 133.493 98.3801 135.405C100.005 136.551 102.157 136.532 104.062 137.112C108.903 138.587 111.559 143.618 115.361 146.945C120.848 151.748 129.335 152.804 135.85 149.497L142.788 141.693Z" fill="white"/>
</mask>
<g mask="url(#mask2_1506_17827)">
<path d="M95.1121 125.138L94.9417 125.385L105.304 132.531L105.475 132.285L95.1121 125.138Z" fill="#022C22"/>
</g>
<mask id="mask3_1506_17827" style="mask-type:luminance" maskUnits="userSpaceOnUse" x="87" y="120" width="48" height="48">
<path d="M134.727 161.03C131.626 159.115 129.366 155.886 128.627 152.316C128.275 150.619 128.252 148.854 127.743 147.197C126.792 144.098 124.172 141.677 121.153 140.499C119.414 139.821 117.491 139.485 116.014 138.343C113.749 136.592 113.153 133.478 111.701 131.01C109.977 128.082 106.87 126.01 103.505 125.546C102.436 125.398 101.339 125.403 100.301 125.104C98.4096 124.559 96.9558 123.088 95.3453 121.956C93.7344 120.824 91.5777 120.003 89.8344 120.918C87.6545 122.062 87.4775 125.204 88.3843 127.493C89.2911 129.782 90.954 131.756 91.5543 134.144C92.3641 137.364 91.2441 141.231 93.3851 143.768C94.6685 145.289 96.7526 145.811 98.4478 146.853C102.757 149.502 104.062 155.054 106.901 159.241C110.999 165.282 118.937 168.44 126.063 166.865L134.727 161.03Z" fill="white"/>
</mask>
<g mask="url(#mask3_1506_17827)">
<path d="M115.838 133.258L105.218 142.352L105.414 142.58L116.033 133.487L115.838 133.258Z" fill="#022C22"/>
</g>
<mask id="mask4_1506_17827" style="mask-type:luminance" maskUnits="userSpaceOnUse" x="68" y="124" width="57" height="37">
<path d="M124.354 150.144C120.819 149.244 117.702 146.848 115.941 143.68C115.104 142.174 114.561 140.507 113.586 139.085C111.761 136.426 108.537 134.903 105.298 134.678C103.432 134.548 101.492 134.797 99.7403 134.15C97.0542 133.158 95.5649 130.38 93.4461 128.468C90.9318 126.2 87.3447 125.152 83.9849 125.705C82.9172 125.881 81.8675 126.209 80.7857 126.232C78.8129 126.274 76.9867 125.308 75.1101 124.71C73.2333 124.112 70.9255 123.97 69.5254 125.353C67.7747 127.082 68.5314 130.115 70.075 132.018C71.6186 133.922 73.7935 135.304 75.0726 137.392C76.7978 140.207 76.8649 144.206 79.6639 145.98C81.3417 147.044 83.492 146.924 85.4231 147.412C90.3312 148.652 93.2186 153.533 97.173 156.666C102.88 161.186 111.414 161.838 117.776 158.238L124.354 150.144Z" fill="white"/>
</mask>
<g mask="url(#mask4_1506_17827)">
<path d="M94.3519 147.396L94.1943 147.651L105.985 154.908L106.143 154.653L94.3519 147.396Z" fill="#022C22"/>
</g>
<path d="M96.6847 171.897C96.6847 171.897 48.4427 151.797 45.2263 149.653C42.0103 147.509 49.2463 141.076 59.1627 148.849C68.5431 144.292 74.1715 151.261 77.3875 153.673C80.6035 156.085 84.6239 151.261 90.5199 153.941C96.4163 156.621 97.4883 161.713 100.168 163.053C102.848 164.393 108.209 172.166 108.209 172.166L96.6847 171.897Z" fill="#065F46"/>
<path d="M108.093 172.261C107.976 172.117 96.3116 157.861 92.2664 155.047C88.478 152.411 85.1928 153.31 82.5544 154.032L82.028 154.175C79.3352 154.894 77.9992 155.073 74.5604 151.817C72.0408 149.43 69.086 147.981 65.5264 147.389L65.5756 147.093C69.196 147.696 72.2024 149.17 74.7668 151.599C78.0956 154.752 79.3024 154.592 81.9504 153.886L82.4748 153.743C85.0316 153.044 88.5332 152.085 92.4376 154.801C96.5172 157.639 108.208 171.927 108.325 172.072L108.093 172.261Z" fill="#022C22"/>
<path d="M88.9864 168.518L87.3784 153.331L87.6768 153.299L89.2848 168.487L88.9864 168.518Z" fill="#022C22"/>
<path d="M70.8749 148.999L70.582 149.064L73.4404 161.929L73.7333 161.864L70.8749 148.999Z" fill="#022C22"/>
<path d="M52.826 145.392L52.5479 145.504L56.3003 154.794L56.5785 154.682L52.826 145.392Z" fill="#022C22"/>
<path d="M101.892 175.468C105.494 173.083 108.189 169.363 109.335 165.197C110.001 162.771 110.155 160.229 110.772 157.789C111.388 155.349 112.581 152.898 114.726 151.583C117.818 149.687 122.039 150.615 125.137 148.728C128.762 146.521 129.969 140.998 134.098 140.017C136.888 139.354 139.676 141.182 142.543 141.203C146.351 141.23 149.483 138.137 153.217 137.387C156.689 136.69 160.509 138.289 162.449 141.251C162.449 141.251 126.07 165.756 107.109 176.778L101.892 175.468Z" fill="#065F46"/>
<path d="M108.203 168.58L107.946 168.425C107.962 168.399 109.544 165.715 110.07 161.159C110.69 155.786 112.104 152.792 114.656 151.449C116.018 150.733 117.894 150.423 119.709 150.123C121.682 149.797 123.723 149.459 125.056 148.602L125.219 148.854C123.833 149.745 121.761 150.087 119.757 150.419C117.966 150.715 116.115 151.021 114.796 151.715C112.341 153.006 110.975 155.93 110.368 161.194C109.835 165.818 108.22 168.553 108.203 168.58Z" fill="#022C22"/>
<path d="M116.981 150.802L116.683 150.842L119.184 169.425L119.482 169.385L116.981 150.802Z" fill="#022C22"/>
<path d="M134.252 139.994L133.954 140.03L136.162 158.331L136.46 158.295L134.252 139.994Z" fill="#022C22"/>
<path d="M151.165 138.086L148.847 150.059L149.141 150.116L151.46 138.143L151.165 138.086Z" fill="#022C22"/>
<path d="M78.46 166.939H130.32L125.496 190.256C125.496 192.4 83.284 192.4 83.284 190.256L78.46 166.939Z" fill="white"/>
</g>
<defs>
<clipPath id="clip0_1506_17827">
<rect width="200" height="200" fill="white"/>
</clipPath>
</defs>
</svg>
