<svg width="16" height="16" viewBox="0 0 16 16" fill="none" xmlns="http://www.w3.org/2000/svg">
<g id="Waterdrop">
<path id="Vector" d="M7.99883 14.3332C6.57139 14.3332 5.38139 13.843 4.42883 12.8624C3.47628 11.8817 3 10.6612 3 9.2009C3 8.55413 3.14661 7.90518 3.43983 7.25407C3.73294 6.60307 4.09939 5.97829 4.53917 5.37974C4.97883 4.78118 5.45444 4.21818 5.966 3.69074C6.47756 3.16329 6.95256 2.7044 7.391 2.31407C7.47567 2.23374 7.57072 2.17413 7.67617 2.13524C7.78161 2.09635 7.88956 2.0769 8 2.0769C8.11044 2.0769 8.21839 2.09635 8.32383 2.13524C8.42928 2.17413 8.52433 2.23374 8.609 2.31407C9.04744 2.7044 9.52244 3.16329 10.034 3.69074C10.5456 4.21818 11.0212 4.78118 11.4608 5.37974C11.9006 5.97829 12.2671 6.60307 12.5602 7.25407C12.8534 7.90518 13 8.55413 13 9.2009C13 10.6612 12.5233 11.8817 11.57 12.8624C10.6167 13.843 9.42628 14.3332 7.99883 14.3332ZM8 13.3332C9.15556 13.3332 10.1111 12.9416 10.8667 12.1582C11.6222 11.3749 12 10.3888 12 9.1999C12 8.38879 11.6639 7.47213 10.9917 6.4499C10.3194 5.42768 9.32222 4.31102 8 3.0999C6.67778 4.31102 5.68056 5.42768 5.00833 6.4499C4.33611 7.47213 4 8.38879 4 9.1999C4 10.3888 4.37778 11.3749 5.13333 12.1582C5.88889 12.9416 6.84444 13.3332 8 13.3332ZM8.16417 12.5641C8.28039 12.553 8.37611 12.5095 8.45133 12.4336C8.52656 12.3577 8.56417 12.2662 8.56417 12.1591C8.56417 12.0342 8.52317 11.9352 8.44117 11.8621C8.35917 11.789 8.25444 11.758 8.127 11.7691C7.67144 11.8024 7.17528 11.6689 6.6385 11.3686C6.10172 11.0681 5.76667 10.5457 5.63333 9.80124C5.61111 9.68757 5.56344 9.59824 5.49033 9.53324C5.41733 9.46824 5.33039 9.43574 5.2295 9.43574C5.10817 9.43574 5.00711 9.48129 4.92633 9.5724C4.84556 9.6634 4.81967 9.78024 4.84867 9.9229C5.029 10.8913 5.46494 11.5837 6.1565 11.9999C6.84794 12.4161 7.51717 12.6042 8.16417 12.5641Z" fill="#030712"/>
</g>
</svg>
