<svg width="24" height="24" viewBox="0 0 24 24" fill="none" xmlns="http://www.w3.org/2000/svg">
<path d="M12 5.21151C11.7872 5.21151 11.609 5.13976 11.4655 4.99626C11.3218 4.85259 11.25 4.67434 11.25 4.46151V2.26926C11.25 2.05642 11.3218 1.87826 11.4655 1.73476C11.609 1.59109 11.7872 1.51926 12 1.51926C12.2128 1.51926 12.391 1.59109 12.5345 1.73476C12.6782 1.87826 12.75 2.05642 12.75 2.26926V4.46151C12.75 4.67434 12.6782 4.85259 12.5345 4.99626C12.391 5.13976 12.2128 5.21151 12 5.21151ZM16.7962 7.20376C16.6512 7.05892 16.5788 6.88176 16.5788 6.67226C16.5788 6.46259 16.6512 6.28534 16.7962 6.14051L18.3307 4.59051C18.4859 4.43534 18.6658 4.35776 18.8703 4.35776C19.0748 4.35776 19.2545 4.43534 19.4095 4.59051C19.5545 4.73534 19.627 4.91092 19.627 5.11726C19.627 5.32376 19.5545 5.49942 19.4095 5.64426L17.85 7.20376C17.7052 7.34876 17.5295 7.42126 17.323 7.42126C17.1167 7.42126 16.9411 7.34876 16.7962 7.20376ZM19.5385 12.75C19.3257 12.75 19.1474 12.6782 19.0037 12.5345C18.8603 12.391 18.7885 12.2128 18.7885 12C18.7885 11.7872 18.8603 11.609 19.0037 11.4655C19.1474 11.3218 19.3257 11.25 19.5385 11.25H21.7307C21.9436 11.25 22.1217 11.3218 22.2652 11.4655C22.4089 11.609 22.4807 11.7872 22.4807 12C22.4807 12.2128 22.4089 12.391 22.2652 12.5345C22.1217 12.6782 21.9436 12.75 21.7307 12.75H19.5385ZM18.3307 19.4095L16.7962 17.8595C16.6512 17.7147 16.5788 17.5374 16.5788 17.3278C16.5788 17.1183 16.6512 16.9411 16.7962 16.7963C16.9411 16.6513 17.1182 16.5788 17.3277 16.5788C17.5374 16.5788 17.7147 16.6513 17.8595 16.7963L19.4095 18.3308C19.5647 18.4859 19.6423 18.6658 19.6423 18.8703C19.6423 19.0748 19.5647 19.2545 19.4095 19.4095C19.2545 19.5647 19.0748 19.6423 18.8703 19.6423C18.6658 19.6423 18.4859 19.5647 18.3307 19.4095ZM6.15975 7.21351L4.5905 5.64426C4.4455 5.49942 4.373 5.32217 4.373 5.11251C4.373 4.90284 4.4455 4.72884 4.5905 4.59051C4.7455 4.43534 4.92366 4.35776 5.125 4.35776C5.32633 4.35776 5.5045 4.43534 5.6595 4.59051L7.20375 6.15001C7.34875 6.29484 7.42283 6.47209 7.426 6.68176C7.42916 6.89142 7.35833 7.06867 7.2135 7.21351C7.06867 7.35834 6.893 7.43076 6.6865 7.43076C6.48016 7.43076 6.30458 7.35834 6.15975 7.21351ZM6.2885 19.0578H10.5962C11.0769 19.0578 11.4887 18.8863 11.8317 18.5433C12.1747 18.2003 12.3462 17.7884 12.3462 17.3078C12.3462 16.8269 12.1805 16.4167 11.849 16.077C11.5177 15.7372 11.1116 15.5673 10.6307 15.5673H9.50975L9.077 14.5308C8.83083 13.9551 8.4465 13.4983 7.924 13.1605C7.40166 12.8227 6.82441 12.6538 6.19225 12.6538C5.31408 12.6538 4.56891 12.9598 3.95675 13.572C3.34458 14.1842 3.0385 14.9294 3.0385 15.8078C3.0385 16.7116 3.35416 17.4792 3.9855 18.1105C4.617 18.742 5.38467 19.0578 6.2885 19.0578ZM6.2885 20.5578C4.97566 20.5578 3.85583 20.0943 2.929 19.1673C2.002 18.2404 1.5385 17.1206 1.5385 15.8078C1.5385 14.5141 1.99075 13.415 2.89525 12.5105C3.79975 11.606 4.89875 11.1538 6.19225 11.1538C7.14741 11.1538 8.01666 11.4183 8.8 11.9473C9.58333 12.4761 10.1526 13.1828 10.5077 14.0673C11.4102 14.0673 12.1907 14.3728 12.849 14.9838C13.5073 15.5946 13.8397 16.3968 13.8462 17.3903C13.8256 18.2763 13.5018 19.0257 12.875 19.6385C12.248 20.2513 11.4884 20.5578 10.5962 20.5578H6.2885ZM13.827 17.198C13.7628 16.948 13.6987 16.7048 13.6345 16.4683C13.5705 16.2318 13.5064 15.9885 13.4422 15.7385C14.2116 15.4153 14.8302 14.9188 15.298 14.249C15.766 13.5792 16 12.8295 16 12C16 10.9 15.6083 9.95834 14.825 9.17501C14.0417 8.39167 13.1 8.00001 12 8.00001C10.9808 8.00001 10.093 8.33626 9.3365 9.00876C8.58016 9.68109 8.14816 10.5269 8.0405 11.5463C7.7905 11.4821 7.53533 11.4231 7.275 11.3693C7.01483 11.3154 6.75975 11.2564 6.50975 11.1923C6.70458 9.82826 7.32475 8.70517 8.37025 7.82301C9.41575 6.94101 10.6257 6.50001 12 6.50001C13.5257 6.50001 14.8238 7.03526 15.8942 8.10576C16.9648 9.17626 17.5 10.4743 17.5 12C17.5 13.1743 17.1638 14.2323 16.4913 15.174C15.8189 16.1157 14.9308 16.7903 13.827 17.198Z" fill="#6B7280"/>
</svg>
