<svg width="24" height="24" viewBox="0 0 24 24" fill="none" xmlns="http://www.w3.org/2000/svg">
<path d="M8.78844 12.4937C8.78844 12.3327 8.91896 12.2021 9.07997 12.2021C9.24098 12.2021 9.3715 12.3327 9.3715 12.4937V13.5465L9.88034 13.0942C9.99983 12.988 10.184 12.9976 10.2918 13.1158C10.3995 13.2339 10.39 13.4158 10.2705 13.522L9.3715 14.3211V15.6266L10.5778 14.9391L10.8128 13.8472C10.8463 13.6916 11.0012 13.5923 11.1587 13.6253C11.3161 13.6584 11.4167 13.8113 11.3832 13.9669L11.2572 14.5518L12.1106 14.0654C12.2491 13.9864 12.4267 14.034 12.5072 14.1717C12.5877 14.3093 12.5406 14.4849 12.4021 14.5639L11.4795 15.0898L12.1205 15.2954C12.2737 15.3445 12.3576 15.5069 12.3079 15.6581C12.2581 15.8093 12.0935 15.892 11.9403 15.8428L10.8 15.4771L9.6848 16.1127L10.888 16.7985L11.9537 16.4567C12.1069 16.4075 12.2715 16.4902 12.3212 16.6414C12.371 16.7926 12.2871 16.955 12.1339 17.0041L11.5675 17.1858L12.4149 17.6688C12.5535 17.7478 12.6005 17.9234 12.52 18.0611C12.4395 18.1987 12.262 18.2463 12.1234 18.1673L11.195 17.6381L11.3372 18.2987C11.3707 18.4543 11.2702 18.6072 11.1127 18.6403C10.9552 18.6733 10.8004 18.574 10.7669 18.4184L10.5155 17.2508L9.3715 16.5988V17.9973L10.2122 18.7445C10.3317 18.8508 10.3412 19.0326 10.2335 19.1508C10.1257 19.2689 9.94152 19.2785 9.82203 19.1723L9.3715 18.7718V19.739C9.3715 19.9 9.24098 20.0306 9.07997 20.0306C8.91896 20.0306 8.78844 19.9 8.78844 19.739V18.6929L8.28713 19.1385C8.16764 19.2447 7.98344 19.2351 7.8757 19.117C7.76797 18.9988 7.7775 18.817 7.89699 18.7107L8.78844 17.9183V16.6236L7.56343 17.3218L7.33047 18.4039C7.29697 18.5594 7.14214 18.6588 6.98465 18.6257C6.82716 18.5927 6.72665 18.4398 6.76015 18.2842L6.88396 17.7091L6.03653 18.1921C5.89799 18.2711 5.72041 18.2235 5.63991 18.0859C5.55941 17.9482 5.60646 17.7726 5.745 17.6936L6.67348 17.1644L6.02282 16.9557C5.86958 16.9066 5.7857 16.7442 5.83545 16.593C5.88521 16.4418 6.04976 16.3591 6.20299 16.4083L7.35295 16.7771L8.51867 16.1127L7.29062 15.4127L6.21531 15.7577C6.06208 15.8068 5.89753 15.7241 5.84778 15.5729C5.79802 15.4218 5.88191 15.2594 6.03514 15.2102L6.61115 15.0255L5.75784 14.5391C5.6193 14.4601 5.57224 14.2845 5.65275 14.1469C5.73325 14.0092 5.91083 13.9616 6.04937 14.0406L6.97195 14.5664L6.83183 13.9156C6.79833 13.76 6.89884 13.6071 7.05633 13.5741C7.21382 13.541 7.36865 13.6404 7.40215 13.7959L7.65143 14.9537L8.78844 15.6018V14.2287L7.9553 13.4881C7.83581 13.3819 7.82628 13.2001 7.93401 13.0819C8.04175 12.9638 8.22595 12.9542 8.34544 13.0604L8.78844 13.4541V12.4937Z" fill="#38BDF8"/>
<path d="M12.9554 17.4209C12.9047 17.3691 12.846 17.3235 12.7798 17.2859L12.7526 17.2704C12.9296 17.068 13.0008 16.7804 12.9088 16.5019C12.8609 16.3567 12.7756 16.2356 12.6676 16.1446C12.769 16.0551 12.8491 15.9382 12.895 15.7993C12.994 15.4996 12.904 15.1895 12.6965 14.9861L12.7665 14.9463C13.1509 14.7281 13.2819 14.2393 13.0581 13.8581C12.8372 13.4817 12.3533 13.3521 11.9738 13.5676L11.9306 13.5921C11.8444 13.3286 11.6216 13.1195 11.3345 13.0595C11.1849 13.0282 11.0348 13.041 10.8991 13.0897C10.8749 12.9436 10.8094 12.8024 10.7016 12.6846C10.4875 12.4508 10.1647 12.3729 9.87892 12.4588V12.3796C9.87892 11.9383 9.52121 11.5806 9.07995 11.5806C8.63868 11.5806 8.28097 11.9383 8.28097 12.3796V12.4066C8.01314 12.3513 7.72374 12.4343 7.52648 12.6497C7.42185 12.764 7.35707 12.9003 7.33125 13.0417C7.19203 12.989 7.03696 12.9743 6.88241 13.0066C6.57696 13.0705 6.34428 13.3031 6.27153 13.5905L6.18613 13.542C5.80664 13.3265 5.32273 13.4561 5.10179 13.8325C4.87802 14.2137 5.00899 14.7025 5.39336 14.9207L5.42194 14.937C5.24111 15.1397 5.16756 15.4302 5.26046 15.7114C5.30983 15.8608 5.39868 15.9847 5.5112 16.0766C5.39264 16.1694 5.29892 16.297 5.2477 16.452C5.14779 16.7544 5.24039 17.0675 5.4519 17.2707L5.38004 17.3115C5.3652 17.32 5.35074 17.3288 5.33666 17.338C3.15196 16.9237 1.5 15.0042 1.5 12.699C1.5 10.0911 3.61406 7.97707 6.22189 7.97707C6.78735 7.97707 7.32959 8.07647 7.8321 8.25874C8.82356 5.83366 11.2063 4.125 13.9882 4.125C17.6597 4.125 20.6361 7.10138 20.6361 10.7729C20.6361 10.9347 20.6303 11.0951 20.619 11.2539C21.7292 11.7651 22.5 12.8876 22.5 14.1901C22.5 15.9744 21.0535 17.4209 19.2692 17.4209H12.9554Z" fill="#9CA3AF"/>
</svg>
