<svg width="24" height="24" viewBox="0 0 24 24" fill="none" xmlns="http://www.w3.org/2000/svg">
<path d="M18.3308 19.4095L16.7963 17.8595C16.6513 17.7045 16.5788 17.5248 16.5788 17.3203C16.5788 17.1158 16.6513 16.9411 16.7963 16.7963C16.9411 16.6513 17.1158 16.5788 17.3203 16.5788C17.5248 16.5788 17.7045 16.6513 17.8595 16.7963L19.4095 18.3308C19.5647 18.4859 19.6423 18.6658 19.6423 18.8703C19.6423 19.0748 19.5647 19.2545 19.4095 19.4095C19.2545 19.5647 19.0748 19.6423 18.8703 19.6423C18.6658 19.6423 18.4859 19.5647 18.3308 19.4095ZM6.2885 19.5193C5.26784 19.5193 4.39409 19.1558 3.66725 18.429C2.94042 17.7022 2.577 16.8284 2.577 15.8078C2.577 14.8134 2.931 13.9623 3.639 13.2543C4.347 12.5463 5.19809 12.1923 6.19225 12.1923C6.90875 12.1923 7.56934 12.3865 8.174 12.775C8.7785 13.1635 9.22117 13.6911 9.502 14.3578L9.81925 15.1058H10.6308C11.2464 15.1058 11.7632 15.3186 12.181 15.7443C12.5988 16.1701 12.8078 16.6913 12.8078 17.3078C12.8078 17.9244 12.5939 18.4472 12.1663 18.876C11.7388 19.3048 11.2154 19.5193 10.5963 19.5193H6.2885ZM14.7538 16.7578C14.6423 15.8039 14.2519 14.9918 13.5828 14.3213C12.9134 13.6508 12.0987 13.2591 11.1385 13.1463C10.6987 12.3168 10.0926 11.6491 9.32025 11.1433C8.54775 10.6376 7.68784 10.3334 6.7405 10.2308C7.1225 9.10392 7.79592 8.20042 8.76075 7.52026C9.72559 6.84009 10.8053 6.50001 12 6.50001C13.5278 6.50001 14.8264 7.03476 15.8958 8.10426C16.9653 9.17359 17.5 10.4722 17.5 12C17.5 12.9887 17.2558 13.9051 16.7673 14.7493C16.2788 15.5933 15.6076 16.2628 14.7538 16.7578ZM19.5385 12.75C19.326 12.75 19.1478 12.6781 19.004 12.5343C18.8603 12.3904 18.7885 12.2123 18.7885 11.9998C18.7885 11.7871 18.8603 11.609 19.004 11.4655C19.1478 11.3218 19.326 11.25 19.5385 11.25H21.7308C21.9433 11.25 22.1213 11.3219 22.265 11.4658C22.4088 11.6096 22.4808 11.7878 22.4808 12.0003C22.4808 12.2129 22.4088 12.391 22.265 12.5345C22.1213 12.6782 21.9433 12.75 21.7308 12.75H19.5385ZM6.15975 7.21351L4.5905 5.64426C4.4455 5.49942 4.373 5.32167 4.373 5.11101C4.373 4.90034 4.44475 4.72684 4.58825 4.59051C4.74475 4.44167 4.92525 4.36726 5.12975 4.36726C5.33425 4.36726 5.51084 4.44167 5.6595 4.59051L7.20375 6.15001C7.34875 6.30517 7.42284 6.48501 7.426 6.68951C7.42917 6.89401 7.35834 7.06867 7.2135 7.21351C7.06867 7.35834 6.893 7.43076 6.6865 7.43076C6.48017 7.43076 6.30459 7.35834 6.15975 7.21351ZM16.7963 7.20376C16.6513 7.05892 16.5788 6.88426 16.5788 6.67976C16.5788 6.47526 16.6513 6.29551 16.7963 6.14051L18.3308 4.59051C18.4859 4.43534 18.6658 4.35776 18.8703 4.35776C19.0748 4.35776 19.2553 4.43601 19.4118 4.59251C19.5553 4.73601 19.627 4.91092 19.627 5.11726C19.627 5.32376 19.5545 5.49942 19.4095 5.64426L17.85 7.20376C17.7052 7.34876 17.5295 7.42126 17.323 7.42126C17.1167 7.42126 16.9411 7.34876 16.7963 7.20376ZM11.9998 5.21151C11.7871 5.21151 11.609 5.13967 11.4655 4.99601C11.3218 4.85217 11.25 4.67401 11.25 4.46151V2.26926C11.25 2.05676 11.3219 1.87867 11.4658 1.73501C11.6096 1.59117 11.7878 1.51926 12.0003 1.51926C12.2129 1.51926 12.391 1.59117 12.5345 1.73501C12.6782 1.87867 12.75 2.05676 12.75 2.26926V4.46151C12.75 4.67401 12.6781 4.85217 12.5343 4.99601C12.3904 5.13967 12.2123 5.21151 11.9998 5.21151Z" fill="#10B981"/>
</svg>
