<svg width="24" height="24" viewBox="0 0 24 24" fill="none" xmlns="http://www.w3.org/2000/svg">
<path d="M11.8623 5.35386C12.0124 5.44075 12.2063 5.40013 12.3009 5.25472L12.6628 4.69847C12.779 4.51998 12.7295 4.28051 12.5451 4.17385C12.3608 4.0672 12.1275 4.14304 12.0306 4.3327L11.7289 4.92378C11.65 5.07829 11.7121 5.26697 11.8623 5.35386Z" fill="#FACC15"/>
<path d="M8.86207 4.55085C9.03558 4.55085 9.18334 4.41845 9.19228 4.24518L9.22651 3.58129C9.23745 3.36927 9.07437 3.1875 8.86207 3.1875C8.64976 3.1875 8.48669 3.36927 8.49762 3.58129L8.53186 4.24518C8.5408 4.41845 8.68856 4.55085 8.86207 4.55085Z" fill="#FACC15"/>
<path d="M5.86185 5.35386C6.012 5.26697 6.07416 5.07829 5.99528 4.92378L5.69351 4.3327C5.59668 4.14304 5.36331 4.0672 5.179 4.17385C4.99469 4.28051 4.94515 4.51998 5.0613 4.69847L5.42327 5.25472C5.51789 5.40013 5.7117 5.44075 5.86185 5.35386Z" fill="#FACC15"/>
<path d="M3.66636 7.54935C3.75325 7.3992 3.71263 7.20539 3.56722 7.11077L3.01097 6.7488C2.83248 6.63265 2.59301 6.68219 2.48635 6.8665C2.3797 7.05081 2.45554 7.28418 2.6452 7.38101L3.23628 7.68278C3.39079 7.76166 3.57947 7.6995 3.66636 7.54935Z" fill="#FACC15"/>
<path d="M2.55768 10.2194C2.73095 10.2283 2.86335 10.3761 2.86335 10.5496C2.86335 10.7231 2.73095 10.8708 2.55768 10.8798L1.89379 10.914C1.68177 10.9249 1.5 10.7619 1.5 10.5496C1.5 10.3373 1.68177 10.1742 1.89379 10.1851L2.55768 10.2194Z" fill="#FACC15"/>
<path d="M12.2806 6.84016C11.3818 6.01141 10.181 5.50519 8.86207 5.50519C6.07614 5.50519 3.81769 7.76364 3.81769 10.5496C3.81769 10.7532 3.82975 10.9539 3.8532 11.1512C4.66846 10.6181 5.64287 10.3082 6.68966 10.3082C7.11417 10.3082 7.52738 10.3593 7.92319 10.4558C8.79939 8.7159 10.3745 7.38743 12.2806 6.84016Z" fill="#FACC15"/>
<path d="M6.68966 20.0842C4.15677 20.0842 2.10345 18.0309 2.10345 15.498C2.10345 12.9651 4.15677 10.9118 6.68966 10.9118C7.23887 10.9118 7.76553 11.0083 8.2536 11.1854C9.21656 8.82997 11.5309 7.17041 14.2328 7.17041C17.7988 7.17041 20.6897 10.0613 20.6897 13.6273C20.6897 13.7844 20.6841 13.9402 20.673 14.0945C21.7514 14.591 22.5 15.6812 22.5 16.9463C22.5 18.6793 21.0951 20.0842 19.3621 20.0842H6.68966Z" fill="#9CA3AF"/>
</svg>
