<svg width="24" height="24" viewBox="0 0 24 24" fill="none" xmlns="http://www.w3.org/2000/svg">
<path d="M16.7422 10.9482H15.4263C15.1817 10.9482 14.9652 11.1062 14.8906 11.339L13.6644 15.1643C13.548 15.5273 13.8188 15.8985 14.2 15.8985H14.8716C15.0863 15.8985 15.2572 16.0784 15.2461 16.2928L15.0382 20.3309C15.033 20.4317 15.1689 20.4684 15.2152 20.3787L18.1002 14.7892C18.2934 14.4148 18.0217 13.9687 17.6003 13.9687H17.0388C16.783 13.9687 16.6023 13.7184 16.6828 13.4756L17.276 11.6879C17.3968 11.3238 17.1258 10.9482 16.7422 10.9482Z" fill="#FACC15"/>
<path d="M18.4088 15.5459L18.7951 14.7974C19.1366 14.1358 18.6563 13.3474 17.9118 13.3474H17.38L17.9485 11.6341C18.162 10.9906 17.6829 10.3269 17.005 10.3269H15.2878C14.8557 10.3269 14.4731 10.6061 14.3412 11.0176L12.9933 15.2222C12.9585 15.3308 12.9433 15.4397 12.9453 15.5459L6.22189 15.5459C3.61406 15.5459 1.5 13.4318 1.5 10.824C1.5 8.21613 3.61406 6.10207 6.22189 6.10207C6.78735 6.10207 7.3296 6.20146 7.83211 6.38373C8.82356 3.95866 11.2063 2.25 13.9882 2.25C17.6597 2.25 20.6361 5.22638 20.6361 8.89793C20.6361 9.05967 20.6303 9.22006 20.619 9.37891C21.7292 9.89014 22.5 11.0126 22.5 12.3151C22.5 14.0994 21.0535 15.5459 19.2692 15.5459H18.4088Z" fill="#9CA3AF"/>
<path d="M12.8312 20.6182L12.1864 19.2738L11.5415 20.6184C11.4775 20.7304 11.4408 20.8607 11.4408 20.9996C11.4408 21.419 11.7746 21.759 12.1864 21.759C12.5982 21.759 12.932 21.419 12.932 20.9996C12.932 20.8606 12.8953 20.7303 12.8312 20.6182Z" fill="#38BDF8"/>
<path d="M10.5947 18.1332L9.94972 16.7886L9.30486 18.133C9.24083 18.2451 9.20415 18.3754 9.20415 18.5144C9.20415 18.9338 9.53795 19.2738 9.94971 19.2738C10.3615 19.2738 10.6953 18.9338 10.6953 18.5144C10.6953 18.3755 10.6586 18.2452 10.5947 18.1332Z" fill="#38BDF8"/>
<path d="M8.35794 20.6183L7.71304 19.2738L7.06817 20.6183C7.00414 20.7303 6.96747 20.8606 6.96747 20.9996C6.96747 21.419 7.30127 21.759 7.71303 21.759C8.1248 21.759 8.4586 21.419 8.4586 20.9996C8.4586 20.8606 8.42194 20.7304 8.35794 20.6183Z" fill="#38BDF8"/>
<path d="M6.12122 18.1331L5.47633 16.7886L4.83142 18.1331C4.76743 18.2452 4.73077 18.3754 4.73077 18.5144C4.73077 18.9338 5.06457 19.2738 5.47634 19.2738C5.8881 19.2738 6.2219 18.9338 6.2219 18.5144C6.2219 18.3754 6.18523 18.2451 6.12122 18.1331Z" fill="#38BDF8"/>
</svg>
