<svg width="24" height="24" viewBox="0 0 24 24" fill="none" xmlns="http://www.w3.org/2000/svg">
<path fill-rule="evenodd" clip-rule="evenodd" d="M20.9915 12.471C20.7444 12.4582 20.5556 12.2475 20.5556 12C20.5556 11.7525 20.7444 11.5418 20.9915 11.529L21.9384 11.4802C22.2408 11.4646 22.5 11.6972 22.5 12C22.5 12.3028 22.2408 12.5354 21.9384 12.5198L20.9915 12.471ZM19.4103 7.721C19.5342 7.93515 19.8033 8.02381 20.0237 7.9113L20.8667 7.4809C21.1372 7.3428 21.2454 7.00996 21.0932 6.74709C20.9411 6.48422 20.5996 6.41358 20.345 6.57923L19.5517 7.09548C19.3443 7.23043 19.2863 7.50686 19.4103 7.721ZM16.279 4.58973C16.4931 4.71365 16.7696 4.65571 16.9045 4.44833L17.4208 3.65499C17.5864 3.40043 17.5158 3.05889 17.2529 2.90677C16.99 2.75465 16.6572 2.86282 16.5191 3.13332L16.0887 3.97633C15.9762 4.19669 16.0648 4.4658 16.279 4.58973ZM12 3.44444C12.2475 3.44444 12.4582 3.25562 12.471 3.00849L12.5198 2.06164C12.5354 1.75924 12.3028 1.5 12 1.5C11.6972 1.5 11.4646 1.75924 11.4802 2.06164L11.529 3.00849C11.5418 3.25562 11.7525 3.44444 12 3.44444ZM7.721 4.58973C7.93515 4.4658 8.02381 4.19669 7.9113 3.97633L7.4809 3.13332C7.3428 2.86282 7.00996 2.75465 6.74709 2.90677C6.48422 3.05889 6.41358 3.40043 6.57923 3.65499L7.09548 4.44833C7.23043 4.65571 7.50686 4.71366 7.721 4.58973ZM4.58973 7.72101C4.71365 7.50686 4.65571 7.23043 4.44833 7.09548L3.65499 6.57923C3.40043 6.41358 3.05889 6.48422 2.90677 6.74709C2.75465 7.00996 2.86282 7.3428 3.13332 7.4809L3.97633 7.9113C4.19669 8.02381 4.4658 7.93515 4.58973 7.72101ZM3.00849 11.529C3.25562 11.5418 3.44444 11.7525 3.44444 12C3.44444 12.2475 3.25562 12.4582 3.00849 12.471L2.06164 12.5198C1.75924 12.5354 1.5 12.3028 1.5 12C1.5 11.6972 1.75924 11.4646 2.06164 11.4802L3.00849 11.529ZM4.58973 16.279C4.4658 16.0648 4.19669 15.9762 3.97633 16.0887L3.13332 16.5191C2.86282 16.6572 2.75465 16.99 2.90677 17.2529C3.05889 17.5158 3.40043 17.5864 3.65499 17.4208L4.44834 16.9045C4.65571 16.7696 4.71366 16.4931 4.58973 16.279ZM7.721 19.4103C7.50686 19.2863 7.23043 19.3443 7.09548 19.5517L6.57923 20.345C6.41358 20.5996 6.48422 20.9411 6.74709 21.0932C7.00996 21.2454 7.3428 21.1372 7.4809 20.8667L7.9113 20.0237C8.02381 19.8033 7.93515 19.5342 7.721 19.4103ZM12 20.5556C11.7525 20.5556 11.5418 20.7444 11.529 20.9915L11.4802 21.9384C11.4646 22.2408 11.6972 22.5 12 22.5C12.3028 22.5 12.5354 22.2408 12.5198 21.9384L12.471 20.9915C12.4582 20.7444 12.2475 20.5556 12 20.5556ZM16.279 19.4103C16.0648 19.5342 15.9762 19.8033 16.0887 20.0237L16.5191 20.8667C16.6572 21.1372 16.99 21.2454 17.2529 21.0932C17.5158 20.9411 17.5864 20.5996 17.4208 20.345L16.9045 19.5517C16.7696 19.3443 16.4931 19.2863 16.279 19.4103ZM19.4103 16.279C19.2863 16.4931 19.3443 16.7696 19.5517 16.9045L20.345 17.4208C20.5996 17.5864 20.9411 17.5158 21.0932 17.2529C21.2454 16.99 21.1372 16.6572 20.8667 16.5191L20.0237 16.0887C19.8033 15.9762 19.5342 16.0648 19.4103 16.279Z" fill="#FACC15"/>
<path d="M19.1944 12.0001C19.1944 15.9735 15.9734 19.1946 12 19.1946C8.0266 19.1946 4.80554 15.9735 4.80554 12.0001C4.80554 8.02673 8.0266 4.80566 12 4.80566C15.9734 4.80566 19.1944 8.02673 19.1944 12.0001Z" fill="#FACC15"/>
</svg>
