<svg width="24" height="24" viewBox="0 0 24 24" fill="none" xmlns="http://www.w3.org/2000/svg">
<path d="M6.22189 15.3584C3.61406 15.3584 1.5 13.2443 1.5 10.6365C1.5 8.02864 3.61406 5.91457 6.22189 5.91457C6.78735 5.91457 7.32959 6.01397 7.8321 6.19624C8.82356 3.77116 11.2063 2.0625 13.9882 2.0625C17.6597 2.0625 20.6361 5.03888 20.6361 8.71043C20.6361 8.87217 20.6303 9.03256 20.619 9.19141C21.7292 9.70264 22.5 10.8251 22.5 12.1276C22.5 13.9119 21.0535 15.3584 19.2692 15.3584H6.22189Z" fill="#9CA3AF"/>
<path d="M17.4289 17.9456L16.784 16.6011L16.1391 17.9457C16.0751 18.0577 16.0385 18.188 16.0385 18.3269C16.0385 18.7463 16.3722 19.0863 16.784 19.0863C17.1958 19.0863 17.5296 18.7463 17.5296 18.3269C17.5296 18.1879 17.4929 18.0577 17.4289 17.9456Z" fill="#38BDF8"/>
<path d="M15.1923 20.6794L14.5473 19.3348L13.9025 20.6793C13.8384 20.7914 13.8018 20.9216 13.8018 21.0606C13.8018 21.48 14.1356 21.82 14.5473 21.82C14.9591 21.82 15.2929 21.48 15.2929 21.0606C15.2929 20.9217 15.2562 20.7915 15.1923 20.6794Z" fill="#38BDF8"/>
<path d="M12.9556 17.9457L12.3106 16.6011L11.6657 17.9456C11.6017 18.0577 11.5651 18.1879 11.5651 18.3269C11.5651 18.7463 11.8989 19.0863 12.3106 19.0863C12.7224 19.0863 13.0562 18.7463 13.0562 18.3269C13.0562 18.1879 13.0196 18.0577 12.9556 17.9457Z" fill="#38BDF8"/>
<path d="M10.8431 20.6793L10.1982 19.3348L9.55329 20.6794C9.4893 20.7914 9.45265 20.9217 9.45265 21.0606C9.45265 21.48 9.78645 21.82 10.1982 21.82C10.61 21.82 10.9438 21.48 10.9438 21.0606C10.9438 20.9216 10.9071 20.7914 10.8431 20.6793Z" fill="#38BDF8"/>
<path d="M8.60647 17.9457L7.96153 16.6011L7.31664 17.9456C7.25263 18.0577 7.21597 18.1879 7.21597 18.3269C7.21597 18.7463 7.54976 19.0863 7.96153 19.0863C8.37329 19.0863 8.70709 18.7463 8.70709 18.3269C8.70709 18.188 8.67045 18.0577 8.60647 17.9457Z" fill="#38BDF8"/>
<path d="M6.36975 20.6794L5.72484 19.3348L5.07994 20.6794C5.01593 20.7914 4.97928 20.9217 4.97928 21.0606C4.97928 21.48 5.31308 21.82 5.72484 21.82C6.1366 21.82 6.4704 21.48 6.4704 21.0606C6.4704 20.9217 6.43375 20.7914 6.36975 20.6794Z" fill="#38BDF8"/>
</svg>
