<svg width="24" height="24" viewBox="0 0 24 24" fill="none" xmlns="http://www.w3.org/2000/svg">
<path d="M6.89885 7.58975L7.12102 8.30609C7.3853 8.22413 7.58299 8.0033 7.63532 7.73159L6.89885 7.58975ZM3.25 11.7105C3.25 12.1247 3.58579 12.4605 4 12.4605C4.41421 12.4605 4.75 12.1247 4.75 11.7105H3.25ZM18.4671 15.25C18.0529 15.25 17.7171 15.5858 17.7171 16C17.7171 16.4142 18.0529 16.75 18.4671 16.75V15.25ZM19.1873 8.54209L18.4373 8.53325C18.4331 8.88838 18.6786 9.19776 19.0254 9.27441L19.1873 8.54209ZM14.375 5.75572L13.767 6.19491C14.0086 6.52936 14.475 6.60585 14.8108 6.3661L14.375 5.75572ZM7.63532 7.73159C7.96971 5.99526 9.39284 4.75 11.0312 4.75V3.25C8.59446 3.25 6.61717 5.08643 6.16238 7.44792L7.63532 7.73159ZM4.75 11.7105C4.75 10.0551 5.78717 8.71977 7.12102 8.30609L6.67669 6.87341C4.68663 7.49061 3.25 9.42812 3.25 11.7105H4.75ZM21.25 12.2316C21.25 13.945 19.9592 15.25 18.4671 15.25V16.75C20.8774 16.75 22.75 14.6807 22.75 12.2316H21.25ZM19.0254 9.27441C20.275 9.55063 21.25 10.7519 21.25 12.2316H22.75C22.75 10.1054 21.3401 8.24985 19.3491 7.80977L19.0254 9.27441ZM18.4375 8.5C18.4375 8.51114 18.4374 8.52222 18.4373 8.53325L19.9372 8.55094C19.9374 8.53394 19.9375 8.51696 19.9375 8.5H18.4375ZM16.0938 5.95C17.3433 5.95 18.4375 7.04534 18.4375 8.5H19.9375C19.9375 6.30958 18.2615 4.45 16.0938 4.45V5.95ZM14.8108 6.3661C15.1821 6.10096 15.6223 5.95 16.0938 5.95V4.45C15.2932 4.45 14.551 4.70845 13.9392 5.14534L14.8108 6.3661ZM11.0312 4.75C12.1301 4.75 13.1233 5.30391 13.767 6.19491L14.9829 5.31653C14.0839 4.07198 12.6554 3.25 11.0312 3.25V4.75Z" fill="#10B981"/>
<path d="M3 16H14.5C15.3284 16 16 15.3284 16 14.5C16 13.6716 15.3284 13 14.5 13C13.8469 13 13.2913 13.4174 13.0854 14" stroke="#10B981" stroke-width="1.5" stroke-linecap="round"/>
<path d="M2 14H10C10.5523 14 11 13.5523 11 13C11 12.4477 10.5523 12 10 12C9.7151 12 9.45802 12.1191 9.27588 12.3103" stroke="#10B981" stroke-width="1.5" stroke-linecap="round"/>
<path d="M9 18H16C16.5523 18 17 18.4477 17 19C17 19.5523 16.5523 20 16 20C15.7151 20 15.458 19.8809 15.2759 19.6897" stroke="#10B981" stroke-width="1.5" stroke-linecap="round"/>
</svg>
